<svg width="48" height="48" fill="none" xmlns="http://www.w3.org/2000/svg"><path d="M4.8 6.889H12L16.8 2h14.4L36 6.889h7.2c1.273 0 2.494.515 3.394 1.432.9.917 1.406 2.16 1.406 3.457V41.11c0 1.297-.506 2.54-1.406 3.457A4.756 4.756 0 0143.2 46H4.8a4.756 4.756 0 01-3.394-1.432A4.935 4.935 0 010 41.111V11.778c0-1.297.506-2.54 1.406-3.457A4.756 4.756 0 014.8 6.889zM24 14.222a11.89 11.89 0 00-8.485 3.58A12.338 12.338 0 0012 26.444c0 3.242 1.264 6.35 3.515 8.643A11.89 11.89 0 0024 38.667a11.89 11.89 0 008.485-3.58A12.338 12.338 0 0036 26.444c0-3.241-1.264-6.35-3.515-8.642A11.89 11.89 0 0024 14.222zm0 4.89c1.91 0 3.74.772 5.091 2.147a7.403 7.403 0 012.109 5.185c0 1.945-.759 3.81-2.109 5.186A7.134 7.134 0 0124 33.778c-1.91 0-3.74-.773-5.091-2.148a7.403 7.403 0 01-2.109-5.186c0-1.944.759-3.81 2.109-5.185A7.134 7.134 0 0124 19.111z" fill="#000"/></svg>