<svg width="48" height="48" fill="none" xmlns="http://www.w3.org/2000/svg"><g clip-path="url(#prefix__clip0_1321_13504)" fill="#000"><path d="M4.8 38.384h4.8v9.794l12.242-9.794H33.6c2.647 0 4.8-2.153 4.8-4.8v-19.2c0-2.647-2.153-4.8-4.8-4.8H4.8a4.805 4.805 0 00-4.8 4.8v19.2c0 2.647 2.153 4.8 4.8 4.8z"/><path d="M43.2-.016H14.4a4.805 4.805 0 00-4.8 4.8h28.8c2.647 0 4.8 2.153 4.8 4.8v19.2c2.647 0 4.8-2.152 4.8-4.8v-19.2c0-2.647-2.153-4.8-4.8-4.8z"/></g><defs><clipPath id="prefix__clip0_1321_13504"><path fill="#fff" d="M0 0h48v48H0z"/></clipPath></defs></svg>