<svg width="48" height="48" fill="none" xmlns="http://www.w3.org/2000/svg"><g clip-path="url(#prefix__clip0_1395_22276)"><path d="M16.299 22.789l6.493-6.511-5.837-5.857-2.288 2.286c-.266.265-.588.41-.967.435-.379.024-.727-.12-1.043-.435-.315-.315-.472-.653-.472-1.016 0-.362.157-.7.472-1.014l2.268-2.27-5.549-5.55-6.51 6.512 13.433 13.42zM38.57 45.08l6.51-6.511-5.546-5.55-2.286 2.269a1.447 1.447 0 01-.978.443c-.375.02-.72-.129-1.035-.443-.314-.315-.47-.65-.469-1.007.002-.356.158-.692.47-1.006l2.268-2.286-5.8-5.783-6.496 6.494L38.57 45.08zM34.562 8.555l4.912 4.91 4.964-4.964-4.927-4.927-4.95 4.981zM4.077 46.223c-.66 0-1.208-.218-1.643-.654-.436-.436-.655-.984-.657-1.643V38.19c0-.305.053-.59.159-.856.106-.265.282-.521.529-.768l11.804-11.805L.77 11.208C.257 10.694 0 10.082 0 9.371c0-.71.257-1.324.77-1.84L7.54.766C8.052.25 8.664-.004 9.375 0c.71.004 1.323.264 1.837.78l13.626 13.553L37.538 1.615c.313-.313.643-.538.99-.677a2.964 2.964 0 011.108-.207c.392 0 .762.069 1.109.207.347.139.677.364.992.677l4.64 4.825c.314.313.532.643.654.99.12.346.18.716.179 1.108-.002.393-.063.751-.182 1.075-.12.324-.336.643-.648.955L33.785 23.232l13.447 13.554c.512.514.768 1.126.768 1.837 0 .71-.256 1.323-.768 1.837l-6.769 6.767c-.513.515-1.125.773-1.836.773-.71 0-1.323-.257-1.837-.77l-13.555-13.5-11.804 11.805a2.31 2.31 0 01-.767.529c-.265.106-.55.159-.856.159H4.077z" fill="#000"/></g><defs><clipPath id="prefix__clip0_1395_22276"><path fill="#fff" d="M0 0h48v48H0z"/></clipPath></defs></svg>