<svg width="48" height="48" fill="none" xmlns="http://www.w3.org/2000/svg"><path d="M40.614 8.992A39.277 39.277 0 0030.854 6a.23.23 0 00-.16.067c-.412.743-.892 1.71-1.212 2.452a37.39 37.39 0 00-10.971 0c-.32-.764-.8-1.71-1.235-2.452-.023-.045-.091-.067-.16-.067a39.573 39.573 0 00-9.76 2.992c-.023 0-.046.022-.069.045C1.07 18.192-.644 27.1.202 35.917c0 .045.022.09.068.113 4.115 2.969 8.069 4.768 11.978 5.96.068.023.137 0 .16-.044a28.912 28.912 0 002.445-3.914c.046-.09 0-.18-.091-.203a28.352 28.352 0 01-3.749-1.754c-.091-.045-.091-.18-.023-.248.252-.18.503-.382.755-.562a.143.143 0 01.16-.023c7.863 3.532 16.343 3.532 24.115 0a.143.143 0 01.16.023c.251.202.502.382.754.585.091.067.091.202-.023.247-1.189.697-2.446 1.26-3.749 1.755-.091.022-.114.135-.091.202a34.297 34.297 0 002.446 3.914c.068.023.137.045.205.023 3.932-1.193 7.886-2.992 12-5.961a.123.123 0 00.07-.113c1.005-10.19-1.67-19.03-7.087-26.88-.022-.023-.045-.045-.09-.045zm-24.572 21.55c-2.354 0-4.32-2.138-4.32-4.77 0-2.631 1.92-4.768 4.32-4.768 2.423 0 4.343 2.16 4.32 4.768 0 2.632-1.92 4.77-4.32 4.77zm15.932 0c-2.355 0-4.32-2.138-4.32-4.77 0-2.631 1.92-4.768 4.32-4.768 2.423 0 4.343 2.16 4.32 4.768 0 2.632-1.897 4.77-4.32 4.77z" fill="#000"/></svg>