<svg width="48" height="48" fill="none" xmlns="http://www.w3.org/2000/svg"><g clip-path="url(#prefix__clip0_1395_23095)"><path d="M.004 9a6 6 0 016-6h36a6 6 0 016 6v30a6 6 0 01-6 6h-36a6 6 0 01-6-6V9zm3 27v3a3 3 0 003 3h36a3 3 0 003-3V28.5l-11.331-5.841a1.5 1.5 0 00-1.731.279l-11.13 11.13-7.98-5.316a1.5 1.5 0 00-1.89.186L3.004 36zm15-19.5a4.5 4.5 0 10-9 0 4.5 4.5 0 009 0z" fill="#000"/></g><defs><clipPath id="prefix__clip0_1395_23095"><path fill="#fff" d="M0 0h48v48H0z"/></clipPath></defs></svg>