<svg width="48" height="48" fill="none" xmlns="http://www.w3.org/2000/svg"><g clip-path="url(#prefix__clip0_1792_17483)"><path d="M5.455 48c-1.5 0-2.784-.522-3.851-1.565C.536 45.39.002 44.135 0 42.667V5.333c0-1.466.535-2.721 1.604-3.765S3.956.002 5.454 0h16.364c.773 0 1.421.256 1.945.768.523.512.784 1.145.782 1.899-.001.753-.263 1.387-.785 1.901s-1.17.769-1.942.765H5.455v37.334h16.363c.773 0 1.421.256 1.945.768.523.512.784 1.145.782 1.898-.001.754-.263 1.388-.785 1.902-.522.513-1.17.769-1.942.765H5.455zm33.204-21.333H19.091c-.773 0-1.42-.256-1.942-.768s-.784-1.145-.785-1.899c-.002-.754.26-1.387.785-1.899s1.173-.768 1.942-.768h19.568l-5.114-5a2.42 2.42 0 01-.75-1.8c0-.71.25-1.333.75-1.866.5-.534 1.137-.812 1.91-.835a2.602 2.602 0 011.977.768l9.75 9.533c.545.534.818 1.156.818 1.867 0 .711-.273 1.333-.818 1.867l-9.75 9.533c-.546.533-1.193.79-1.942.768a2.809 2.809 0 01-1.945-.835 2.554 2.554 0 01-.714-1.898c.023-.733.284-1.344.783-1.835l5.045-4.933z" fill="#000"/></g><defs><clipPath id="prefix__clip0_1792_17483"><path fill="#fff" d="M0 0h48v48H0z"/></clipPath></defs></svg>