<svg width="48" height="48" fill="none" xmlns="http://www.w3.org/2000/svg"><path d="M41.018 45l-5.782-5.647H12c-3.345 0-6.182-1.158-8.51-3.474C1.165 33.562 0 30.739 0 27.409c0-2.78.865-5.255 2.596-7.427 1.731-2.186 3.957-3.584 6.677-4.192.116-.29.225-.571.327-.847.145-.275.255-.572.327-.89L.873 5.04 3.927 2l40.146 39.96M12 35.01h18.873L13.309 17.528c-.073.405-.123.803-.153 1.194a8.371 8.371 0 00-.065 1.086H12c-2.11 0-3.905.746-5.39 2.237-1.497 1.477-2.246 3.265-2.246 5.364 0 2.1.749 3.91 2.247 5.43C8.095 34.285 9.89 35.01 12 35.01zm32.946 1.629l-3.164-3.04c.625-.507 1.09-1.094 1.396-1.76.306-.666.458-1.418.458-2.258 0-1.52-.53-2.802-1.592-3.844-1.048-1.057-2.335-1.585-3.862-1.585h-3.273v-4.344c0-2.997-1.062-5.56-3.185-7.688C29.6 10.006 27.026 8.95 24 8.95c-.974 0-1.92.115-2.836.347a9.945 9.945 0 00-2.619 1.13l-3.163-3.15A16.016 16.016 0 0119.44 5.28c1.44-.449 2.96-.673 4.56-.673 4.262 0 7.87 1.477 10.822 4.43 2.967 2.94 4.45 6.53 4.45 10.772 2.517.29 4.597 1.375 6.24 3.258C47.172 24.919 48 27.09 48 29.58c0 1.448-.27 2.758-.807 3.93a9.572 9.572 0 01-2.247 3.128z" fill="#000"/></svg>