<svg width="48" height="48" fill="none" xmlns="http://www.w3.org/2000/svg"><path d="M9.734 15.173c.153-.245.313-.486.478-.722h27.576c.165.237.324.478.478.722l4.848-2.808 2.4 4.171-5.312 3.078c.39 1.421.598 2.922.598 4.47v2.409H48v4.817h-7.2a16.91 16.91 0 01-1.286 6.478l6 3.478-2.4 4.171-6.063-3.511A16.786 16.786 0 0126.4 47.998V28.9h-4.8V48a16.787 16.787 0 01-10.651-6.074l-6.063 3.511-2.4-4.171 6-3.475A16.91 16.91 0 017.2 31.31H0v-4.817h7.2v-2.409c0-1.548.209-3.046.598-4.47l-5.312-3.078 2.4-4.171 4.848 2.808zm4.666-5.54a9.65 9.65 0 012.812-6.811A9.583 9.583 0 0124 0a9.583 9.583 0 016.788 2.822A9.65 9.65 0 0133.6 9.634H14.4z" fill="#000"/></svg>