<svg width="48" height="48" fill="none" xmlns="http://www.w3.org/2000/svg"><g clip-path="url(#prefix__clip0_2449_26079)"><path fill-rule="evenodd" clip-rule="evenodd" d="M26.182 39.273V48h-4.364v-8.727h4.364zm10.16-6.016l6.171 6.17-3.085 3.086-6.171-6.17 3.085-3.086zm-24.684 0l3.085 3.085-6.17 6.171-3.086-3.085 6.17-6.171zM24 12.07c6.589 0 11.93 5.341 11.93 11.93 0 6.589-5.341 11.93-11.93 11.93A11.908 11.908 0 0112.07 24c0-6.589 5.341-11.93 11.93-11.93zm0 4.364a7.568 7.568 0 00-7.566 7.574A7.542 7.542 0 0024 31.566V16.434zm24 5.384v4.364h-8.727v-4.364H48zm-39.273 0v4.364H0v-4.364h8.727zM8.572 5.487l6.171 6.17-3.085 3.086-6.171-6.17 3.085-3.086zm30.856 0l3.085 3.085-6.17 6.171-3.086-3.085 6.17-6.171zM26.182 0v8.727h-4.364V0h4.364z" fill="#000"/></g><defs><clipPath id="prefix__clip0_2449_26079"><path fill="#fff" d="M0 0h48v48H0z"/></clipPath></defs></svg>