<svg width="48" height="48" fill="none" xmlns="http://www.w3.org/2000/svg"><path d="M36.144 27.634c-4.464 0-8.208 3.22-9.168 7.504-2.28-.992-4.368-.726-5.952-.024-.984-4.31-4.728-7.48-9.168-7.48-5.208 0-9.456 4.333-9.456 9.683S6.648 47 11.856 47c4.944 0 8.976-3.922 9.36-8.908.816-.581 2.952-1.67 5.568.048.432 4.962 4.416 8.86 9.36 8.86 5.208 0 9.456-4.333 9.456-9.683s-4.248-9.683-9.456-9.683zM11.856 44.24c-3.744 0-6.744-3.098-6.744-6.923s3.024-6.924 6.744-6.924c3.744 0 6.744 3.099 6.744 6.924s-3 6.923-6.744 6.923zm24.288 0c-3.744 0-6.744-3.098-6.744-6.923s3-6.924 6.744-6.924c3.744 0 6.768 3.099 6.768 6.924s-3.048 6.923-6.768 6.923zM48 21.582H0v3.63h48v-3.63zM32.472 2.53a2.573 2.573 0 00-3.144-1.404L24 2.917l-5.352-1.79-.12-.025a2.575 2.575 0 00-3.096 1.55L9.6 17.95h28.8l-5.856-15.3-.072-.12z" fill="#000"/></svg>