<svg width="48" height="48" fill="none" xmlns="http://www.w3.org/2000/svg"><g clip-path="url(#prefix__clip0_1395_21952)" fill="#000"><path d="M30.003-.001v16.203a8.996 8.996 0 010 15.594v16.203l-16-12h-14v-24h14l16-12zm-6 12l-8.001 6h-10v12h10l8 6v-24z"/><path d="M40.8 9.6l-2.396-1.8-3.603 4.797 2.4 1.8a12 12 0 012.4 2.406A11.909 11.909 0 0142 24c0 2.706-.891 5.19-2.4 7.2a12 12 0 01-2.4 2.4l-2.4 1.803 3.603 4.8 2.4-1.803a18 18 0 003.594-3.6A17.94 17.94 0 0048 24c0-4.05-1.341-7.794-3.6-10.8a18.001 18.001 0 00-3.6-3.6z"/></g><defs><clipPath id="prefix__clip0_1395_21952"><path fill="#fff" d="M0 0h48v48H0z"/></clipPath></defs></svg>