<svg width="48" height="48" fill="none" xmlns="http://www.w3.org/2000/svg"><g clip-path="url(#prefix__clip0_1350_30081)"><path d="M0 45.429A2.571 2.571 0 002.571 48H45.43A2.57 2.57 0 0048 45.429v-30H0v30zm34.286-26.143a.429.429 0 01.428-.429H39a.428.428 0 01.429.429v4.285A.429.429 0 0139 24h-4.286a.429.429 0 01-.428-.429v-4.285zm0 8.571a.429.429 0 01.428-.428H39a.428.428 0 01.429.428v4.286a.429.429 0 01-.429.428h-4.286a.429.429 0 01-.428-.428v-4.286zm-8.572-8.571a.428.428 0 01.429-.429h4.286a.429.429 0 01.428.429v4.285a.429.429 0 01-.428.429h-4.286a.429.429 0 01-.429-.429v-4.285zm0 8.571a.428.428 0 01.429-.428h4.286a.428.428 0 01.428.428v4.286a.428.428 0 01-.428.428h-4.286a.429.429 0 01-.429-.428v-4.286zm0 8.572a.429.429 0 01.429-.429h4.286a.429.429 0 01.428.429v4.285a.428.428 0 01-.428.429h-4.286a.429.429 0 01-.429-.429V36.43zm-8.571-8.572a.428.428 0 01.428-.428h4.286a.429.429 0 01.429.428v4.286a.428.428 0 01-.429.428h-4.286a.428.428 0 01-.428-.428v-4.286zm0 8.572A.429.429 0 0117.57 36h4.286a.429.429 0 01.429.429v4.285a.428.428 0 01-.429.429h-4.286a.429.429 0 01-.428-.429V36.43zM8.57 27.857A.429.429 0 019 27.43h4.286a.429.429 0 01.428.428v4.286a.429.429 0 01-.428.428H9a.428.428 0 01-.429-.428v-4.286zm0 8.572A.429.429 0 019 36h4.286a.429.429 0 01.428.429v4.285a.429.429 0 01-.428.429H9a.429.429 0 01-.429-.429V36.43zm36.858-33h-5.992V0h-5.143v3.429H13.706V0H8.563v3.429H2.57A2.55 2.55 0 000 5.975V12h48V5.975a2.55 2.55 0 00-2.571-2.546z" fill="#000"/></g><defs><clipPath id="prefix__clip0_1350_30081"><path fill="#fff" d="M0 0h48v48H0z"/></clipPath></defs></svg>