<svg width="48" height="48" viewBox="0 0 48 48" fill="none" xmlns="http://www.w3.org/2000/svg">
<g clip-path="url(#clip0_1398_25012)">
<path d="M48 29.3333V42.6667C48 44.0812 47.4381 45.4377 46.4379 46.4379C45.4377 47.4381 44.0812 48 42.6667 48H5.33333C3.91885 48 2.56229 47.4381 1.5621 46.4379C0.561903 45.4377 0 44.0812 0 42.6667V5.33333C0 3.91885 0.561903 2.56229 1.5621 1.5621C2.56229 0.561903 3.91885 0 5.33333 0H18.6667V5.33333H5.33333V42.6667H42.6667V29.3333H48Z" fill="black"/>
<path d="M48 10.4H37.6V0H32.4V10.4H22V15.6H32.4V26H37.6V15.6H48V10.4Z" fill="black"/>
</g>
<defs>
<clipPath id="clip0_1398_25012">
<rect width="48" height="48" fill="white"/>
</clipPath>
</defs>
</svg>
