<svg width="48" height="48" viewBox="0 0 48 48" fill="none" xmlns="http://www.w3.org/2000/svg">
<g clip-path="url(#clip0_1352_13262)">
<path d="M18.4268 14.8195C19.8455 14.8195 20.9855 13.6795 20.9855 12.2608C20.9855 10.8421 19.8455 9.70215 18.4268 9.70215C17.0082 9.70215 15.8682 10.8421 15.8682 12.2608C15.8682 13.6795 17.0082 14.8195 18.4268 14.8195Z" fill="black"/>
<path fill-rule="evenodd" clip-rule="evenodd" d="M23.5694 20.3946C23.5694 17.6586 21.2641 15.6826 18.4267 15.6826C15.5894 15.6826 13.2841 17.6586 13.2841 20.3946V21.6866C13.2841 21.9146 13.3854 22.1426 13.5374 22.2946C13.6894 22.4466 13.9174 22.5479 14.1454 22.5479H22.7081C22.9361 22.5479 23.1641 22.4466 23.316 22.2946C23.468 22.1426 23.5694 21.9146 23.5694 21.6866V20.3946ZM13.2334 27.8679C13.2334 27.364 13.4336 26.8808 13.7899 26.5244C14.1462 26.1681 14.6295 25.9679 15.1334 25.9679H32.8667C33.3706 25.9679 33.8539 26.1681 34.2102 26.5244C34.5665 26.8808 34.7667 27.364 34.7667 27.8679C34.7667 28.3718 34.5665 28.8551 34.2102 29.2114C33.8539 29.5677 33.3706 29.7679 32.8667 29.7679H15.1334C14.6295 29.7679 14.1462 29.5677 13.7899 29.2114C13.4336 28.8551 13.2334 28.3718 13.2334 27.8679ZM13.2334 35.4679C13.2334 34.964 13.4336 34.4807 13.7899 34.1244C14.1462 33.7681 14.6295 33.5679 15.1334 33.5679H32.8667C33.3706 33.5679 33.8539 33.7681 34.2102 34.1244C34.5665 34.4807 34.7667 34.964 34.7667 35.4679C34.7667 35.9718 34.5665 36.4551 34.2102 36.8114C33.8539 37.1677 33.3706 37.3679 32.8667 37.3679H15.1334C14.6295 37.3679 14.1462 37.1677 13.7899 36.8114C13.4336 36.4551 13.2334 35.9718 13.2334 35.4679Z" fill="black"/>
<path fill-rule="evenodd" clip-rule="evenodd" d="M5 5.06666C5 2.27493 7.27493 0 10.0667 0H27.0146C28.4384 0 29.781 0.602933 30.726 1.59853L30.7412 1.61626L41.6649 13.528C42.5743 14.4982 42.9999 15.7674 42.9999 16.9733V43.0666C42.9999 45.8583 40.725 48.1333 37.9333 48.1333H10.0667C7.27493 48.1333 5 45.8583 5 43.0666V5.06666ZM27.0121 5.06666H10.0667V43.0666H37.9333V16.953L27.0501 5.08439L27.0425 5.08186C27.0333 5.07516 27.023 5.07002 27.0121 5.06666Z" fill="black"/>
<path fill-rule="evenodd" clip-rule="evenodd" d="M27.0148 0C27.6867 0 28.331 0.266904 28.8061 0.741995C29.2812 1.21709 29.5481 1.86145 29.5481 2.53333V14.44H40.4668C40.7994 14.44 41.1289 14.5055 41.4362 14.6328C41.7436 14.7601 42.0228 14.9467 42.2581 15.182C42.4933 15.4172 42.6799 15.6965 42.8072 16.0038C42.9346 16.3112 43.0001 16.6406 43.0001 16.9733C43.0001 17.306 42.9346 17.6354 42.8072 17.9428C42.6799 18.2501 42.4933 18.5294 42.2581 18.7646C42.0228 18.9999 41.7436 19.1865 41.4362 19.3138C41.1289 19.4411 40.7994 19.5066 40.4668 19.5066H27.0148C26.3429 19.5066 25.6985 19.2397 25.2234 18.7646C24.7483 18.2896 24.4814 17.6452 24.4814 16.9733V2.53333C24.4814 1.86145 24.7483 1.21709 25.2234 0.741995C25.6985 0.266904 26.3429 0 27.0148 0Z" fill="black"/>
</g>
<defs>
<clipPath id="clip0_1352_13262">
<rect width="48" height="48" fill="white"/>
</clipPath>
</defs>
</svg>
