<svg width="48" height="48" fill="none" xmlns="http://www.w3.org/2000/svg"><path d="M0 9.563c0-2.174 1.792-3.938 4-3.938h8c2.208 0 4 1.764 4 3.938v1.312h16V9.562c0-2.173 1.792-3.937 4-3.937h8c2.208 0 4 1.764 4 3.938v7.874c0 2.174-1.792 3.938-4 3.938h-8c-2.208 0-4-1.764-4-3.938v-1.312H16v1.313c0 .139-.008.278-.025.41l6.692 8.777h8c2.208 0 4 1.764 4 3.938v7.875c0 2.173-1.792 3.937-4 3.937h-8c-2.209 0-4-1.764-4-3.938v-7.874c0-.14.008-.28.025-.41L12 21.374H4c-2.208 0-4-1.764-4-3.938V9.563z" fill="#000"/></svg>