<svg width="48" height="48" viewBox="0 0 48 48" fill="none" xmlns="http://www.w3.org/2000/svg">
<g clip-path="url(#clip0_1331_16028)">
<path d="M0.000976562 6H48.001V41H0.000976562V6Z" fill="#003399"/>
<path d="M24.0011 11.5693L23.4678 13.2977L24.3567 13.4706L24.0011 11.5693Z" fill="#FFCC00"/>
<path d="M24.0008 11.5693L24.5342 13.2977L23.6453 13.4706L24.0008 11.5693Z" fill="#FFCC00"/>
<path d="M25.6906 12.7674L23.8367 12.7965L23.9483 13.6789L25.6906 12.7674Z" fill="#FFCC00"/>
<path d="M25.6893 12.7668L24.1716 13.7917L23.7229 13.0146L25.6893 12.7668Z" fill="#FFCC00"/>
<path d="M25.0503 14.6963L24.431 12.9922L23.6109 13.3568L25.0503 14.6963Z" fill="#FFCC00"/>
<path d="M25.0493 14.6972L23.5717 13.5987L24.1821 12.9539L25.0493 14.6972Z" fill="#FFCC00"/>
<path d="M22.3114 12.7674L24.1653 12.7965L24.0537 13.6789L22.3114 12.7674Z" fill="#FFCC00"/>
<path d="M22.3126 12.7668L23.8303 13.7917L24.2791 13.0146L22.3126 12.7668Z" fill="#FFCC00"/>
<path d="M22.9536 14.6973L23.5729 12.9932L24.393 13.3577L22.9536 14.6973Z" fill="#FFCC00"/>
<path d="M22.9546 14.6982L24.4322 13.5997L23.8218 12.9549L22.9546 14.6982Z" fill="#FFCC00"/>
<path d="M24.0021 32.3096L23.4688 34.038L24.3576 34.2108L24.0021 32.3096Z" fill="#FFCC00"/>
<path d="M24.0018 32.3096L24.5352 34.038L23.6463 34.2108L24.0018 32.3096Z" fill="#FFCC00"/>
<path d="M25.6915 33.5095L23.8377 33.5387L23.9493 34.4211L25.6915 33.5095Z" fill="#FFCC00"/>
<path d="M25.6903 33.509L24.1726 34.5338L23.7239 33.7568L25.6903 33.509Z" fill="#FFCC00"/>
<path d="M25.0503 35.4395L24.431 33.7354L23.6109 34.0999L25.0503 35.4395Z" fill="#FFCC00"/>
<path d="M25.0493 35.4404L23.5717 34.3418L24.1821 33.6971L25.0493 35.4404Z" fill="#FFCC00"/>
<path d="M22.3133 33.5095L24.1672 33.5387L24.0556 34.4211L22.3133 33.5095Z" fill="#FFCC00"/>
<path d="M22.3146 33.509L23.8323 34.5338L24.281 33.7568L22.3146 33.509Z" fill="#FFCC00"/>
<path d="M22.9546 35.4395L23.5738 33.7354L24.394 34.0999L22.9546 35.4395Z" fill="#FFCC00"/>
<path d="M22.9556 35.4404L24.4332 34.3418L23.8228 33.6971L22.9556 35.4404Z" fill="#FFCC00"/>
<path d="M13.3361 21.9404L12.8027 23.6688L13.6916 23.8417L13.3361 21.9404Z" fill="#FFCC00"/>
<path d="M13.3358 21.9404L13.8691 23.6688L12.9803 23.8417L13.3358 21.9404Z" fill="#FFCC00"/>
<path d="M15.0236 23.1394L13.1697 23.1686L13.2813 24.051L15.0236 23.1394Z" fill="#FFCC00"/>
<path d="M15.0223 23.1389L13.5047 24.1637L13.0559 23.3867L15.0223 23.1389Z" fill="#FFCC00"/>
<path d="M14.3833 25.0674L13.7641 23.3633L12.9439 23.7278L14.3833 25.0674Z" fill="#FFCC00"/>
<path d="M14.3823 25.0683L12.9047 23.9698L13.5151 23.325L14.3823 25.0683Z" fill="#FFCC00"/>
<path d="M11.6464 23.1394L13.5002 23.1686L13.3886 24.051L11.6464 23.1394Z" fill="#FFCC00"/>
<path d="M11.6476 23.1389L13.1653 24.1637L13.614 23.3867L11.6476 23.1389Z" fill="#FFCC00"/>
<path d="M12.2876 25.0674L12.9068 23.3633L13.727 23.7278L12.2876 25.0674Z" fill="#FFCC00"/>
<path d="M12.2886 25.0683L13.7662 23.9698L13.1558 23.325L12.2886 25.0683Z" fill="#FFCC00"/>
<path d="M17.7526 16.168L19.2303 15.0693L18.62 14.4246L17.7526 16.168Z" fill="#FFCC00"/>
<path d="M17.7513 16.167L18.3709 14.4628L19.1908 14.8272L17.7513 16.167Z" fill="#FFCC00"/>
<path d="M17.1118 14.2339L18.6335 15.2599L19.0798 14.4869L17.1118 14.2339Z" fill="#FFCC00"/>
<path d="M17.1118 14.2349L18.9665 14.2696L18.8578 15.1487L17.1118 14.2349Z" fill="#FFCC00"/>
<path d="M18.8047 13.0397L18.2687 14.767L19.1484 14.9357L18.8047 13.0397Z" fill="#FFCC00"/>
<path d="M18.8057 13.0403L19.3263 14.7631L18.4451 14.9393L18.8057 13.0403Z" fill="#FFCC00"/>
<path d="M19.8428 16.1621L18.3677 15.0732L18.9863 14.4225L19.8428 16.1621Z" fill="#FFCC00"/>
<path d="M19.8427 16.1621L19.2347 14.46L18.4078 14.8316L19.8427 16.1621Z" fill="#FFCC00"/>
<path d="M20.4909 14.2295L18.9614 15.2578L18.5198 14.4929L20.4909 14.2295Z" fill="#FFCC00"/>
<path d="M20.4906 14.2285L18.6343 14.2744L18.7374 15.1467L20.4906 14.2285Z" fill="#FFCC00"/>
<path d="M15.8903 20.0117L15.2707 18.3075L14.4507 18.6719L15.8903 20.0117Z" fill="#FFCC00"/>
<path d="M15.889 20.0118L14.4114 18.913L15.0216 18.2684L15.889 20.0118Z" fill="#FFCC00"/>
<path d="M13.8017 20.0068L15.2769 18.9179L14.6583 18.2672L13.8017 20.0068Z" fill="#FFCC00"/>
<path d="M13.8018 20.0069L14.4098 18.3047L15.2367 18.6763L13.8018 20.0069Z" fill="#FFCC00"/>
<path d="M13.1527 18.0762L14.6821 19.1045L15.1238 18.3395L13.1527 18.0762Z" fill="#FFCC00"/>
<path d="M13.153 18.0752L15.0093 18.1211L14.9062 18.9934L13.153 18.0752Z" fill="#FFCC00"/>
<path d="M16.5356 18.0786L15.014 19.1046L14.5676 18.3316L16.5356 18.0786Z" fill="#FFCC00"/>
<path d="M16.5357 18.0796L14.681 18.1143L14.7897 18.9934L16.5357 18.0796Z" fill="#FFCC00"/>
<path d="M14.8418 16.8845L15.3778 18.6117L14.498 18.7805L14.8418 16.8845Z" fill="#FFCC00"/>
<path d="M14.8408 16.8851L14.3201 18.6078L15.2014 18.784L14.8408 16.8851Z" fill="#FFCC00"/>
<path d="M16.5346 28.4772L14.6814 28.5018L14.7953 29.387L16.5346 28.4772Z" fill="#FFCC00"/>
<path d="M16.5328 28.476L15.0183 29.4999L14.5676 28.7196L16.5328 28.476Z" fill="#FFCC00"/>
<path d="M15.8961 30.406L15.2671 28.7L14.453 29.0586L15.8961 30.406Z" fill="#FFCC00"/>
<path d="M15.894 30.4075L14.4144 29.3007L15.0178 28.6609L15.894 30.4075Z" fill="#FFCC00"/>
<path d="M13.8049 30.399L15.2793 29.3137L14.6576 28.6609L13.8049 30.399Z" fill="#FFCC00"/>
<path d="M13.8055 30.3998L14.4092 28.6984L15.2387 29.0725L13.8055 30.3998Z" fill="#FFCC00"/>
<path d="M14.838 27.2794L15.377 29.0053L14.5081 29.1694L14.838 27.2794Z" fill="#FFCC00"/>
<path d="M14.8348 27.2812L14.3292 28.9975L15.2014 29.1776L14.8348 27.2812Z" fill="#FFCC00"/>
<path d="M13.1544 28.4684L15.0109 28.5152L14.9085 29.387L13.1544 28.4684Z" fill="#FFCC00"/>
<path d="M13.1542 28.4701L14.6847 29.4986L15.1257 28.7343L13.1542 28.4701Z" fill="#FFCC00"/>
<path d="M20.392 31.9567L18.5388 31.9813L18.6528 32.8664L20.392 31.9567Z" fill="#FFCC00"/>
<path d="M20.3902 31.9554L18.8757 32.9793L18.425 32.1991L20.3902 31.9554Z" fill="#FFCC00"/>
<path d="M19.7564 33.8874L19.1273 32.1816L18.3131 32.5401L19.7564 33.8874Z" fill="#FFCC00"/>
<path d="M19.7544 33.889L18.2748 32.7822L18.8781 32.1424L19.7544 33.889Z" fill="#FFCC00"/>
<path d="M17.6633 33.8814L19.1377 32.7961L18.516 32.1434L17.6633 33.8814Z" fill="#FFCC00"/>
<path d="M17.6639 33.8823L18.2676 32.1809L19.0971 32.5549L17.6639 33.8823Z" fill="#FFCC00"/>
<path d="M18.6984 30.7608L19.2374 32.4867L18.3685 32.6508L18.6984 30.7608Z" fill="#FFCC00"/>
<path d="M18.6952 30.7626L18.1895 32.4789L19.0617 32.659L18.6952 30.7626Z" fill="#FFCC00"/>
<path d="M17.0128 31.9479L18.8693 31.9947L18.7669 32.8664L17.0128 31.9479Z" fill="#FFCC00"/>
<path d="M17.0126 31.9496L18.5431 32.9781L18.9841 32.2138L17.0126 31.9496Z" fill="#FFCC00"/>
<path d="M34.6688 21.9395L35.2021 23.6678L34.3133 23.8407L34.6688 21.9395Z" fill="#FFCC00"/>
<path d="M34.6691 21.9395L34.1357 23.6678L35.0246 23.8407L34.6691 21.9395Z" fill="#FFCC00"/>
<path d="M32.9803 23.1385L34.8342 23.1676L34.7226 24.05L32.9803 23.1385Z" fill="#FFCC00"/>
<path d="M32.9806 23.1379L34.4983 24.1627L34.947 23.3857L32.9806 23.1379Z" fill="#FFCC00"/>
<path d="M33.6216 25.0665L34.2408 23.3624L35.061 23.7269L33.6216 25.0665Z" fill="#FFCC00"/>
<path d="M33.6226 25.0673L35.1002 23.9688L34.4898 23.324L33.6226 25.0673Z" fill="#FFCC00"/>
<path d="M36.3585 23.1375L34.5047 23.1667L34.6162 24.0491L36.3585 23.1375Z" fill="#FFCC00"/>
<path d="M36.3573 23.1369L34.8396 24.1618L34.3909 23.3848L36.3573 23.1369Z" fill="#FFCC00"/>
<path d="M35.7173 25.0655L35.098 23.3614L34.2779 23.7259L35.7173 25.0655Z" fill="#FFCC00"/>
<path d="M35.7163 25.0664L34.2387 23.9678L34.8491 23.323L35.7163 25.0664Z" fill="#FFCC00"/>
<path d="M30.2513 16.1661L28.7737 15.0673L29.3839 14.4227L30.2513 16.1661Z" fill="#FFCC00"/>
<path d="M30.2526 16.165L29.633 14.4609L28.8131 14.8252L30.2526 16.165Z" fill="#FFCC00"/>
<path d="M30.894 14.231L29.3724 15.2569L28.926 14.4839L30.894 14.231Z" fill="#FFCC00"/>
<path d="M30.8941 14.2319L29.0394 14.2667L29.1481 15.1457L30.8941 14.2319Z" fill="#FFCC00"/>
<path d="M29.1992 13.0388L29.7352 14.766L28.8555 14.9348L29.1992 13.0388Z" fill="#FFCC00"/>
<path d="M29.1982 13.0394L28.6776 14.7621L29.5588 14.9383L29.1982 13.0394Z" fill="#FFCC00"/>
<path d="M28.1601 16.1621L29.6353 15.0732L29.0167 14.4225L28.1601 16.1621Z" fill="#FFCC00"/>
<path d="M28.1602 16.1621L28.7682 14.46L29.5951 14.8316L28.1602 16.1621Z" fill="#FFCC00"/>
<path d="M27.5121 14.2295L29.0415 15.2578L29.4832 14.4929L27.5121 14.2295Z" fill="#FFCC00"/>
<path d="M27.5124 14.2285L29.3687 14.2744L29.2656 15.1467L27.5124 14.2285Z" fill="#FFCC00"/>
<path d="M32.1127 20.0097L32.7322 18.3056L33.5522 18.6699L32.1127 20.0097Z" fill="#FFCC00"/>
<path d="M32.1139 20.0098L33.5916 18.911L32.9813 18.2664L32.1139 20.0098Z" fill="#FFCC00"/>
<path d="M34.2012 20.0058L32.7261 18.917L33.3446 18.2662L34.2012 20.0058Z" fill="#FFCC00"/>
<path d="M34.2011 20.0059L33.5931 18.3038L32.7662 18.6753L34.2011 20.0059Z" fill="#FFCC00"/>
<path d="M34.8503 18.0743L33.3208 19.1025L32.8791 18.3376L34.8503 18.0743Z" fill="#FFCC00"/>
<path d="M34.8499 18.0732L32.9937 18.1191L33.0967 18.9914L34.8499 18.0732Z" fill="#FFCC00"/>
<path d="M31.4683 18.0767L32.9899 19.1026L33.4363 18.3297L31.4683 18.0767Z" fill="#FFCC00"/>
<path d="M31.4682 18.0776L33.3229 18.1124L33.2142 18.9914L31.4682 18.0776Z" fill="#FFCC00"/>
<path d="M33.1621 16.8835L32.6261 18.6107L33.5059 18.7795L33.1621 16.8835Z" fill="#FFCC00"/>
<path d="M33.1631 16.8841L33.6838 18.6068L32.8025 18.7831L33.1631 16.8841Z" fill="#FFCC00"/>
<path d="M31.4673 28.4762L33.3205 28.5008L33.2066 29.386L31.4673 28.4762Z" fill="#FFCC00"/>
<path d="M31.4692 28.475L32.9836 29.4989L33.4343 28.7186L31.4692 28.475Z" fill="#FFCC00"/>
<path d="M32.1049 30.404L32.7338 28.6981L33.548 29.0567L32.1049 30.404Z" fill="#FFCC00"/>
<path d="M32.107 30.4056L33.5866 29.2988L32.9832 28.659L32.107 30.4056Z" fill="#FFCC00"/>
<path d="M34.1971 30.399L32.7226 29.3137L33.3443 28.6609L34.1971 30.399Z" fill="#FFCC00"/>
<path d="M34.1965 30.3998L33.5928 28.6984L32.7633 29.0725L34.1965 30.3998Z" fill="#FFCC00"/>
<path d="M33.163 27.2784L32.624 29.0043L33.4928 29.1684L33.163 27.2784Z" fill="#FFCC00"/>
<path d="M33.1661 27.2802L33.6718 28.9965L32.7996 29.1766L33.1661 27.2802Z" fill="#FFCC00"/>
<path d="M34.8486 28.4664L32.9921 28.5132L33.0944 29.385L34.8486 28.4664Z" fill="#FFCC00"/>
<path d="M34.8487 28.4682L33.3182 29.4966L32.8772 28.7323L34.8487 28.4682Z" fill="#FFCC00"/>
<path d="M27.6099 31.9557L29.4631 31.9803L29.3492 32.8655L27.6099 31.9557Z" fill="#FFCC00"/>
<path d="M27.6118 31.9545L29.1262 32.9784L29.5769 32.1981L27.6118 31.9545Z" fill="#FFCC00"/>
<path d="M28.2446 33.8855L28.8735 32.1795L29.6876 32.5381L28.2446 33.8855Z" fill="#FFCC00"/>
<path d="M28.2466 33.887L29.7262 32.7802L29.1229 32.1404L28.2466 33.887Z" fill="#FFCC00"/>
<path d="M30.3377 33.8795L28.8633 32.7941L29.485 32.1414L30.3377 33.8795Z" fill="#FFCC00"/>
<path d="M30.3371 33.8803L29.7334 32.1789L28.9039 32.5529L30.3371 33.8803Z" fill="#FFCC00"/>
<path d="M29.3046 30.7579L28.7656 32.4838L29.6344 32.6479L29.3046 30.7579Z" fill="#FFCC00"/>
<path d="M29.3077 30.7597L29.8134 32.476L28.9412 32.6561L29.3077 30.7597Z" fill="#FFCC00"/>
<path d="M30.9892 31.9459L29.1327 31.9927L29.2351 32.8645L30.9892 31.9459Z" fill="#FFCC00"/>
<path d="M30.9893 31.9477L29.4589 32.9761L29.0178 32.2118L30.9893 31.9477Z" fill="#FFCC00"/>
</g>
<defs>
<clipPath id="clip0_1331_16028">
<rect width="48" height="35" fill="white" transform="translate(0 6)"/>
</clipPath>
</defs>
</svg>
