<svg width="48" height="48" fill="none" xmlns="http://www.w3.org/2000/svg"><path d="M24 0c-3.152 0-6.273.623-9.184 1.833a23.995 23.995 0 00-7.787 5.22A24.126 24.126 0 000 24.084c0 10.645 6.888 19.677 16.416 22.88 1.2.192 1.584-.554 1.584-1.205v-4.07c-6.648 1.445-8.064-3.227-8.064-3.227-1.104-2.793-2.664-3.54-2.664-3.54-2.184-1.493.168-1.445.168-1.445 2.4.169 3.672 2.48 3.672 2.48 2.088 3.661 5.616 2.577 6.984 2 .216-1.566.84-2.626 1.512-3.228-5.328-.602-10.92-2.673-10.92-11.849 0-2.673.912-4.816 2.472-6.526-.24-.602-1.08-3.107.24-6.358 0 0 2.016-.65 6.6 2.456 1.896-.53 3.96-.795 6-.795s4.104.265 6 .795c4.584-3.107 6.6-2.456 6.6-2.456 1.32 3.25.48 5.756.24 6.358 1.56 1.71 2.472 3.853 2.472 6.526 0 9.2-5.616 11.223-10.968 11.825.864.747 1.656 2.216 1.656 4.456v6.599c0 .65.384 1.42 1.608 1.204C41.136 43.736 48 34.728 48 24.083c0-3.162-.62-6.294-1.827-9.216a24.09 24.09 0 00-5.202-7.813 23.995 23.995 0 00-7.787-5.22A23.928 23.928 0 0024 0z" fill="#000"/></svg>