<svg width="48" height="48" fill="none" xmlns="http://www.w3.org/2000/svg"><g clip-path="url(#prefix__clip0_1389_17858)"><path d="M12.02 17.576H9.799m11.111 0h-2.222M12.02 10.91H9.799m11.111 0h-2.222m20 20h-2.222m2.222-8.889h-2.222m-7.778-6.666v31.11h8.89c4.19 0 6.284 0 7.586-1.301 1.302-1.302 1.302-3.396 1.302-7.587V24.243c0-4.191 0-6.285-1.302-7.587-1.302-1.302-3.396-1.302-7.587-1.302h-8.889zm0 0c0-6.285 0-9.43-1.953-11.38-1.951-1.953-5.096-1.953-11.38-1.953-6.285 0-9.43 0-11.38 1.953C2.02 5.924 2.02 9.069 2.02 15.354v4.444m13.388 8.79a4.446 4.446 0 01-7.622 3.202 4.445 4.445 0 117.622-3.203zm-13.233 13.9c2.351-3.619 6.087-4.974 8.789-4.972 2.702.002 6.327 1.353 8.68 4.971.151.233.193.522.056.765-.55.975-2.258 2.91-3.49 3.04-1.42.15-5.126.173-5.244.173-.118 0-3.94-.022-5.355-.173-1.236-.132-2.943-2.065-3.494-3.04a.733.733 0 01.058-.765z" stroke="#000" stroke-width="2.97" stroke-linecap="round" stroke-linejoin="round"/></g><defs><clipPath id="prefix__clip0_1389_17858"><path fill="#fff" d="M0 0h48v48H0z"/></clipPath></defs></svg>