<svg width="48" height="48" fill="none" xmlns="http://www.w3.org/2000/svg"><g clip-path="url(#prefix__clip0_1310_11856)"><path d="M11 13v7H8a4 4 0 00-4 4v20a4 4 0 004 4h32a4 4 0 004-4V24a4 4 0 00-4-4h-3v-7a13 13 0 10-26 0zm5 7v-7a8 8 0 0116 0v7H16zm4 11a3.999 3.999 0 116.184 3.352l-.016.01s.39 2.36.83 5.14v.002a1.5 1.5 0 01-1.498 1.498h-3.004a1.5 1.5 0 01-1.498-1.498v-.002l.83-5.14a4 4 0 01-1.832-3.36L20 31z" fill="#000"/></g><defs><clipPath id="prefix__clip0_1310_11856"><path fill="#fff" transform="translate(4)" d="M0 0h40v48H0z"/></clipPath></defs></svg>