<svg width="48" height="48" viewBox="0 0 48 48" fill="none" xmlns="http://www.w3.org/2000/svg">
<path d="M4.8 43C3.48 43 2.3504 42.5353 1.4112 41.6059C0.472 40.6765 0.0016 39.5578 0 38.25V9.75C0 8.44375 0.4704 7.32592 1.4112 6.3965C2.352 5.46708 3.4816 5.00158 4.8 5H43.2C44.52 5 45.6504 5.4655 46.5912 6.3965C47.532 7.3275 48.0016 8.44533 48 9.75V38.25C48 39.5562 47.5304 40.6749 46.5912 41.6059C45.652 42.5369 44.5216 43.0016 43.2 43H4.8ZM24 26.375L43.2 14.5V9.75L24 21.625L4.8 9.75V14.5L24 26.375Z" fill="black"/>
</svg>
