<svg width="48" height="48" viewBox="0 0 48 48" fill="none" xmlns="http://www.w3.org/2000/svg">
<path fill-rule="evenodd" clip-rule="evenodd" d="M43.7706 45.8281C45.2569 44.3802 46 42.4062 46 39.9062C46 38.8021 45.9644 37.724 45.8931 36.6719C45.8219 35.6198 45.6793 34.4844 45.4656 33.2656C45.2518 32.0469 44.982 30.9167 44.6562 29.875C44.3305 28.8333 43.8928 27.8177 43.343 26.8281C42.7933 25.8385 42.1622 24.9948 41.4496 24.2969C40.737 23.599 39.8666 23.0417 38.8384 22.625C37.8103 22.2083 36.6752 22 35.4332 22C35.2296 22 34.7919 22.224 34.12 22.6719C33.4482 23.1198 32.705 23.6198 31.8906 24.1719C31.0762 24.724 29.987 25.224 28.6229 25.6719C27.2588 26.1198 25.8845 26.3437 24.5 26.3437C23.1155 26.3437 21.7412 26.1198 20.3771 25.6719C19.013 25.224 17.9238 24.724 17.1094 24.1719C16.295 23.6198 15.5518 23.1198 14.88 22.6719C14.2081 22.224 13.7704 22 13.5668 22C12.3248 22 11.1898 22.2083 10.1616 22.625C9.13341 23.0417 8.26302 23.599 7.55043 24.2969C6.83783 24.9948 6.20668 25.8385 5.65696 26.8281C5.10724 27.8177 4.66951 28.8333 4.34375 29.875C4.01799 30.9167 3.74822 32.0469 3.53445 33.2656C3.32067 34.4844 3.17815 35.6198 3.10689 36.6719C3.03563 37.724 3 38.8021 3 39.9062C3 42.4062 3.74313 44.3802 5.2294 45.8281C6.71567 47.276 8.69058 48 11.1541 48H37.8459C40.3094 48 42.2843 47.276 43.7706 45.8281ZM32.7916 20.4844C35.082 18.1406 36.2273 15.3125 36.2273 12C36.2273 8.6875 35.082 5.85938 32.7916 3.51562C30.5011 1.17188 27.7372 0 24.5 0C21.2628 0 18.4989 1.17188 16.2085 3.51562C13.918 5.85938 12.7727 8.6875 12.7727 12C12.7727 15.3125 13.918 18.1406 16.2085 20.4844C18.4989 22.8281 21.2628 24 24.5 24C27.7372 24 30.5011 22.8281 32.7916 20.4844ZM21.3589 32.4065C21.4177 32.4638 21.4874 32.5092 21.5642 32.5399L22.2145 32.815C22.2573 32.8345 22.2935 32.8655 22.3189 32.9045C22.3443 32.9435 22.3578 32.9888 22.3578 33.035C22.3578 33.0812 22.3443 33.1265 22.3189 33.1655C22.2935 33.2044 22.2573 33.2355 22.2145 33.255L21.5642 33.53C21.4131 33.5988 21.2899 33.7154 21.2224 33.8634L20.7124 35.0026C20.6224 35.1827 20.3481 35.1827 20.2527 35.0026L19.7427 33.8639C19.6811 33.7154 19.5579 33.5936 19.4009 33.53L18.7506 33.255C18.7078 33.2355 18.6716 33.2044 18.6462 33.1655C18.6208 33.1265 18.6073 33.0812 18.6073 33.035C18.6073 32.9888 18.6208 32.9435 18.6462 32.9045C18.6716 32.8655 18.7078 32.8345 18.7506 32.815L19.4009 32.5399C19.5522 32.4729 19.6737 32.3545 19.7427 32.2066L20.2527 31.0726C20.3427 30.8925 20.617 30.8925 20.7124 31.0726L21.2218 32.206C21.2536 32.2811 21.3002 32.3492 21.3589 32.4065ZM28.5992 34.916C28.7948 35.378 29.1631 35.7493 29.6289 35.9539L31.5693 36.8149C32.1436 37.0931 32.1436 37.9069 31.5693 38.1851L29.6289 39.0461C29.1656 39.2539 28.7985 39.6242 28.5998 40.084L27.066 43.6371C27.0033 43.7646 26.9052 43.8721 26.783 43.9473C26.6607 44.0226 26.5193 44.0625 26.3749 44.0625C26.2306 44.0625 26.0891 44.0226 25.9669 43.9473C25.8446 43.8721 25.7465 43.7646 25.6839 43.6371L24.1506 40.084C23.9548 39.6221 23.5866 39.2509 23.121 39.0461L21.1806 38.1851C20.6063 37.9069 20.6063 37.0931 21.1806 36.8149L23.121 35.9539C23.5843 35.7461 23.9514 35.3758 24.1501 34.916L25.6839 31.3629C25.7465 31.2354 25.8446 31.1279 25.9669 31.0527C26.0891 30.9774 26.2306 30.9375 26.3749 30.9375C26.5193 30.9375 26.6607 30.9774 26.783 31.0527C26.9052 31.1279 27.0033 31.2354 27.066 31.3629L28.5992 34.916ZM20.8051 39.9685C20.6079 39.8761 20.4504 39.7165 20.3647 39.5107L19.7074 37.9478C19.6811 37.8925 19.6393 37.8457 19.5868 37.8129C19.5343 37.7802 19.4734 37.7627 19.4111 37.7627C19.3489 37.7627 19.2879 37.7802 19.2354 37.8129C19.183 37.8457 19.1411 37.8925 19.1149 37.9478L18.457 39.5107C18.3707 39.7113 18.2138 39.8761 18.0166 39.9685L17.1863 40.3491C17.1301 40.3778 17.0831 40.421 17.0502 40.474C17.0174 40.527 17 40.5879 17 40.6499C17 40.712 17.0174 40.7728 17.0502 40.8259C17.0831 40.8789 17.1301 40.9221 17.1863 40.9507L18.0166 41.3314C18.2166 41.4247 18.3737 41.588 18.457 41.7892L19.1143 43.352C19.1406 43.4073 19.1824 43.4541 19.2349 43.4869C19.2874 43.5197 19.3483 43.5371 19.4106 43.5371C19.4728 43.5371 19.5338 43.5197 19.5862 43.4869C19.6387 43.4541 19.6806 43.4073 19.7068 43.352L20.3647 41.7892C20.4509 41.5886 20.6079 41.4238 20.8051 41.3314L21.6354 40.9507C21.6916 40.9221 21.7386 40.8789 21.7715 40.8259C21.8043 40.7728 21.8217 40.712 21.8217 40.6499C21.8217 40.5879 21.8043 40.527 21.7715 40.474C21.7386 40.421 21.6916 40.3778 21.6354 40.3491L20.8051 39.9685Z" fill="black"/>
</svg>
