<svg width="48" height="48" viewBox="0 0 48 48" fill="none" xmlns="http://www.w3.org/2000/svg">
<path d="M44.2105 38.3684C45.1837 38.3689 46.1194 38.7438 46.8237 39.4153C47.528 40.0869 47.947 41.0037 47.9937 41.9758C48.0405 42.9478 47.7115 43.9006 47.0749 44.6367C46.4383 45.3728 45.5429 45.8358 44.5743 45.9297L44.2105 45.9474H3.78947C2.81629 45.9469 1.8806 45.572 1.17629 44.9004C0.47197 44.2289 0.0530223 43.3121 0.0062545 42.34C-0.0405133 41.3679 0.288485 40.4152 0.925075 39.6791C1.56166 38.943 2.45705 38.48 3.42568 38.3861L3.78947 38.3684H44.2105ZM44.2105 20.6842C45.2156 20.6842 46.1794 21.0835 46.8901 21.7941C47.6007 22.5048 48 23.4687 48 24.4737C48 25.4787 47.6007 26.4426 46.8901 27.1532C46.1794 27.8639 45.2156 28.2632 44.2105 28.2632H3.78947C2.78444 28.2632 1.82058 27.8639 1.10991 27.1532C0.399247 26.4426 0 25.4787 0 24.4737C0 23.4687 0.399247 22.5048 1.10991 21.7941C1.82058 21.0835 2.78444 20.6842 3.78947 20.6842H44.2105ZM44.2105 3C45.2156 3 46.1794 3.39925 46.8901 4.10991C47.6007 4.82058 48 5.78444 48 6.78947C48 7.7945 47.6007 8.75837 46.8901 9.46904C46.1794 10.1797 45.2156 10.5789 44.2105 10.5789H3.78947C2.78444 10.5789 1.82058 10.1797 1.10991 9.46904C0.399247 8.75837 0 7.7945 0 6.78947C0 5.78444 0.399247 4.82058 1.10991 4.10991C1.82058 3.39925 2.78444 3 3.78947 3H44.2105Z" fill="black"/>
</svg>
