<svg width="48" height="48" fill="none" xmlns="http://www.w3.org/2000/svg"><g clip-path="url(#prefix__clip0_1387_16687)"><path d="M40.273 40.193l1.193 5.42c.068.273.034.529-.102.768-.137.238-.33.403-.58.494l-.17.034c-.091.046-.21.085-.358.12a7.38 7.38 0 00-.546.153c-.216.068-.46.13-.733.187a31.95 31.95 0 01-1.892.34c-.375.058-.755.11-1.142.155-.386.045-.801.08-1.244.102-.443.023-.88.034-1.313.034-5.318 0-9.966-1.483-13.943-4.449-3.977-2.966-6.682-6.96-8.114-11.983H8.091c-.296 0-.551-.108-.767-.324A1.048 1.048 0 017 30.477v-3.852c0-.296.108-.551.324-.767.216-.216.471-.324.767-.324h2.25a36.924 36.924 0 01.034-3.58H8.091c-.318 0-.58-.102-.784-.306A1.062 1.062 0 017 20.864v-3.887c0-.318.102-.58.307-.784.204-.204.466-.307.784-.307h3.34c1.524-4.772 4.29-8.613 8.302-11.522C23.744 1.454 28.296 0 33.386 0 35.705 0 37.91.261 40 .784c.25.068.477.239.682.511.136.25.17.523.102.819l-1.466 5.42a.998.998 0 01-.477.665.977.977 0 01-.818.085l-.137-.034a9.036 9.036 0 00-.392-.085l-.596-.12-.767-.119-.887-.102-.988-.085-1.006-.034c-2.864 0-5.432.727-7.704 2.181-2.273 1.455-3.978 3.455-5.114 6h15.954c.364 0 .648.137.853.41.227.272.306.568.238.886l-.818 3.886c-.114.591-.477.886-1.09.886H18.931c-.068.841-.068 2.035 0 3.58H34.58c.34 0 .625.137.852.41.204.272.273.579.204.92l-.818 3.818c-.045.25-.17.46-.375.63a1.04 1.04 0 01-.682.256H20.568c1.091 2.66 2.79 4.767 5.097 6.324 2.307 1.557 4.903 2.335 7.79 2.335.409 0 .818-.017 1.227-.05.409-.035.79-.075 1.142-.12.352-.046.687-.097 1.006-.154.318-.056.596-.113.835-.17.238-.057.449-.108.63-.153l.41-.103.17-.068a1.045 1.045 0 011.398.784z" fill="#000"/></g><defs><clipPath id="prefix__clip0_1387_16687"><path fill="#fff" transform="translate(7)" d="M0 0h34.91v48H0z"/></clipPath></defs></svg>