<svg width="48" height="48" viewBox="0 0 48 48" fill="none" xmlns="http://www.w3.org/2000/svg">
<g clip-path="url(#clip0_1398_24755)">
<path d="M0 0H48V48H0V0ZM5.33333 5.33333V10.6667H10.6667V5.33333H5.33333ZM16 5.33333V21.3333H32V5.33333H16ZM37.3333 5.33333V10.6667H42.6667V5.33333H37.3333ZM42.6667 16H37.3333V21.3333H42.6667V16ZM42.6667 26.6667H37.3333V32H42.6667V26.6667ZM42.6667 37.3333H37.3333V42.6667H42.6667V37.3333ZM32 42.6667V26.6667H16V42.6667H32ZM10.6667 42.6667V37.3333H5.33333V42.6667H10.6667ZM5.33333 32H10.6667V26.6667H5.33333V32ZM5.33333 21.3333H10.6667V16H5.33333V21.3333Z" fill="black"/>
</g>
<defs>
<clipPath id="clip0_1398_24755">
<rect width="48" height="48" fill="white"/>
</clipPath>
</defs>
</svg>
