<svg width="48" height="48" viewBox="0 0 48 48" fill="none" xmlns="http://www.w3.org/2000/svg">
<path d="M10.2857 28.5455V25.1818H13.7143V28.5455H10.2857ZM0 11.7273C0 9.94309 0.722447 8.23198 2.00841 6.97037C3.29437 5.70876 5.03852 5 6.85714 5H30.8571C32.6758 5 34.4199 5.70876 35.7059 6.97037C36.9918 8.23198 37.7143 9.94309 37.7143 11.7273V33.5909C37.7143 34.037 37.8949 34.4647 38.2164 34.7801C38.5379 35.0955 38.9739 35.2727 39.4286 35.2727C39.8832 35.2727 40.3193 35.0955 40.6408 34.7801C40.9622 34.4647 41.1429 34.037 41.1429 33.5909V11.7273C42.9615 11.7273 44.7056 12.436 45.9916 13.6976C47.2776 14.9593 48 16.6704 48 18.4545V33.5909C48 35.8211 47.0969 37.96 45.4895 39.537C43.882 41.114 41.7019 42 39.4286 42H8.57143C6.29814 42 4.11797 41.114 2.51051 39.537C0.903059 37.96 0 35.8211 0 33.5909V11.7273ZM8.57143 15.0909C8.11677 15.0909 7.68074 15.2681 7.35925 15.5835C7.03775 15.8989 6.85714 16.3267 6.85714 16.7727C6.85714 17.2188 7.03775 17.6465 7.35925 17.962C7.68074 18.2774 8.11677 18.4545 8.57143 18.4545H29.1429C29.5975 18.4545 30.0336 18.2774 30.355 17.962C30.6765 17.6465 30.8571 17.2188 30.8571 16.7727C30.8571 16.3267 30.6765 15.8989 30.355 15.5835C30.0336 15.2681 29.5975 15.0909 29.1429 15.0909H8.57143ZM8.57143 21.8182C8.11677 21.8182 7.68074 21.9954 7.35925 22.3108C7.03775 22.6262 6.85714 23.054 6.85714 23.5V30.2273C6.85714 30.6733 7.03775 31.1011 7.35925 31.4165C7.68074 31.7319 8.11677 31.9091 8.57143 31.9091H15.4286C15.8832 31.9091 16.3193 31.7319 16.6408 31.4165C16.9622 31.1011 17.1429 30.6733 17.1429 30.2273V23.5C17.1429 23.054 16.9622 22.6262 16.6408 22.3108C16.3193 21.9954 15.8832 21.8182 15.4286 21.8182H8.57143ZM22.2857 21.8182C21.8311 21.8182 21.395 21.9954 21.0735 22.3108C20.752 22.6262 20.5714 23.054 20.5714 23.5C20.5714 23.946 20.752 24.3738 21.0735 24.6892C21.395 25.0046 21.8311 25.1818 22.2857 25.1818H29.1429C29.5975 25.1818 30.0336 25.0046 30.355 24.6892C30.6765 24.3738 30.8571 23.946 30.8571 23.5C30.8571 23.054 30.6765 22.6262 30.355 22.3108C30.0336 21.9954 29.5975 21.8182 29.1429 21.8182H22.2857ZM22.2857 28.5455C21.8311 28.5455 21.395 28.7226 21.0735 29.038C20.752 29.3534 20.5714 29.7812 20.5714 30.2273C20.5714 30.6733 20.752 31.1011 21.0735 31.4165C21.395 31.7319 21.8311 31.9091 22.2857 31.9091H29.1429C29.5975 31.9091 30.0336 31.7319 30.355 31.4165C30.6765 31.1011 30.8571 30.6733 30.8571 30.2273C30.8571 29.7812 30.6765 29.3534 30.355 29.038C30.0336 28.7226 29.5975 28.5455 29.1429 28.5455H22.2857Z" fill="black"/>
</svg>
