<svg width="57" height="48" fill="none" xmlns="http://www.w3.org/2000/svg"><path d="M5.099 23.43c0 3.955.566 6.78 2.832 10.17 1.723 2.291 4.024 2.865 6.476 1.26a1.675 1.675 0 011.781 0c2.452 1.606 4.753 1.032 6.475-1.26 2.267-3.39 2.833-6.215 2.833-10.169 0-3.392-2.537-6.782-5.666-6.782-1.615 0-3.072.884-4.104 1.836a.637.637 0 01-.857 0c-1.031-.95-2.49-1.836-4.105-1.836-3.128 0-5.665 3.391-5.665 6.781z" stroke="#000" stroke-width="3.2" stroke-linecap="round" stroke-linejoin="round"/><path d="M8.923 24.299c0-1.874.579-2.983 1.912-3.825m4.462-2.55c0-1.53 1.105-5.099 3.824-5.099" stroke="#000" stroke-width="3.2" stroke-linecap="round" stroke-linejoin="round"/><path d="M32.828 13.302h17.927l-2.39 23.903H35.218l-2.39-23.903zm2.63 2.39l1.912 19.122h1.195L36.928 18.49c1.278-.407 2.94-.538 4.266.788 1.864 1.865 5.175.825 6.573.275l.359-3.86H35.457z" fill="#000"/></svg>