<svg width="48" height="48" fill="none" xmlns="http://www.w3.org/2000/svg"><g clip-path="url(#prefix__clip0_1395_22620)"><path d="M14 19.828l12 12V47a1 1 0 01-1 1H4a4 4 0 01-4-4V4a4 4 0 014-4h5a1 1 0 011 1v29.345a6 6 0 104 0V19.828zM12 38a2 2 0 100-4 2 2 0 000 4zm26-20a2 2 0 10-4 0 2 2 0 004 0zm6-18H31a1 1 0 00-1 1v8.172l3.415 3.415a6 6 0 11-2.828 2.828l-4-4A2 2 0 0126 10V1a1 1 0 00-1-1H15a1 1 0 00-1 1v13.172l15.415 15.413A2 2 0 0130 31v16a1 1 0 001 1h13a4 4 0 004-4V4a4 4 0 00-4-4z" fill="#000"/></g><defs><clipPath id="prefix__clip0_1395_22620"><path fill="#fff" d="M0 0h48v48H0z"/></clipPath></defs></svg>