<svg width="48" height="48" fill="none" xmlns="http://www.w3.org/2000/svg"><path d="M15.048 30.427c-.44 0-.738.043-.892.086v2.825c.182.043.41.055.724.055 1.15 0 1.856-.58 1.856-1.561 0-.878-.609-1.405-1.688-1.405zm8.362.029c-.48 0-.791.043-.976.086V36.8c.185.043.482.043.75.043 1.96.014 3.236-1.065 3.236-3.348.014-1.99-1.149-3.04-3.01-3.04z" fill="#000"/><path d="M28.796.02H9.612a4.796 4.796 0 00-4.796 4.796v38.367a4.796 4.796 0 004.796 4.797h28.776a4.796 4.796 0 004.796-4.796V14.408L28.796.02zM18.001 34.047c-.741.696-1.835 1.007-3.108 1.007a5.333 5.333 0 01-.739-.043v3.42H12.01v-9.439c.968-.144 1.946-.21 2.924-.197 1.335 0 2.285.255 2.925.765.61.485 1.022 1.279 1.022 2.214-.003.94-.314 1.734-.88 2.273zm9.129 3.25c-1.007.836-2.54 1.234-4.412 1.234-1.123 0-1.916-.072-2.456-.143v-9.393a19.061 19.061 0 012.923-.2c1.815 0 2.995.327 3.916 1.022.995.739 1.619 1.916 1.619 3.607 0 1.83-.67 3.093-1.59 3.872zm8.86-6.655h-3.673v2.185h3.434v1.76h-3.434v3.846h-2.173v-9.566h5.846v1.775zm-7.194-13.837h-2.398V4.815l11.99 11.99h-9.592z" fill="#000"/></svg>