<svg width="48" height="48" fill="none" xmlns="http://www.w3.org/2000/svg"><path d="M47 2.4v4.8c0 4.456-1.785 8.729-4.964 11.88A17.023 17.023 0 0130.053 24h-2.421v2.4h12.105v16.8c0 1.273-.51 2.494-1.418 3.394A4.864 4.864 0 0134.895 48H15.526a4.864 4.864 0 01-3.424-1.406 4.78 4.78 0 01-1.418-3.394V26.4H22.79v-7.2c0-4.456 1.785-8.729 4.963-11.88A17.023 17.023 0 0139.737 2.4H47zM9.474 0a18.262 18.262 0 018.348 2.01A18.087 18.087 0 0124.3 7.607 18.996 18.996 0 0020.368 19.2v2.4h-1.21a18.239 18.239 0 01-12.84-5.272A17.92 17.92 0 011 3.6V0h8.474z" fill="#000"/></svg>