<svg width="48" height="48" fill="none" xmlns="http://www.w3.org/2000/svg"><g clip-path="url(#prefix__clip0_1395_23408)" fill="#000"><path d="M40.5 3a3 3 0 013 3v36a3 3 0 01-3 3h-33a3 3 0 01-3-3V6a3 3 0 013-3h33zm-33-3a6 6 0 00-6 6v36a6 6 0 006 6h33a6 6 0 006-6V6a6 6 0 00-6-6h-33z"/><path d="M19.5 9a3 3 0 013-3h3a3 3 0 013 3v9a3 3 0 01-3 3h-3a3 3 0 01-3-3V9zm-12 0a3 3 0 013-3h3a3 3 0 013 3v21a3 3 0 01-3 3h-3a3 3 0 01-3-3V9zm24 0a3 3 0 013-3h3a3 3 0 013 3v30a3 3 0 01-3 3h-3a3 3 0 01-3-3V9z"/></g><defs><clipPath id="prefix__clip0_1395_23408"><path fill="#fff" d="M0 0h48v48H0z"/></clipPath></defs></svg>