<svg width="48" height="48" fill="none" xmlns="http://www.w3.org/2000/svg"><path d="M5 48V33.34c0-.825.193-1.608.58-2.35a4.723 4.723 0 011.614-1.794l2.681-1.794c.284 3.464.731 6.412 1.34 8.845.61 2.433 1.565 5.134 2.865 8.103L5 48zm12.736-4.949a35.577 35.577 0 01-3.169-8.66 42.747 42.747 0 01-1.036-9.463c0-5.155 1.006-10.01 3.018-14.566C18.56 5.806 21.21 2.352 24.5 0c3.29 2.35 5.942 5.805 7.954 10.362 2.011 4.558 3.016 9.413 3.015 14.566 0 3.216-.346 6.34-1.036 9.372a37.858 37.858 0 01-3.169 8.752H17.736zM24.5 25.732c1.34 0 2.489-.484 3.444-1.452.956-.969 1.433-2.134 1.431-3.497-.002-1.362-.479-2.527-1.43-3.493-.953-.967-2.101-1.452-3.445-1.455-1.344-.003-2.491.482-3.442 1.455-.95.973-1.428 2.138-1.433 3.494-.005 1.355.473 2.52 1.433 3.496.96.974 2.108 1.459 3.442 1.452zM44 48l-9.08-3.65c1.3-2.969 2.255-5.67 2.864-8.103.61-2.433 1.057-5.381 1.341-8.845l2.681 1.794a4.715 4.715 0 011.616 1.794c.387.742.58 1.526.578 2.35V48z" fill="#000"/></svg>