<svg width="48" height="48" viewBox="0 0 48 48" fill="none" xmlns="http://www.w3.org/2000/svg">
<path fill-rule="evenodd" clip-rule="evenodd" d="M34.5 10.6667H24V16H34.5V10.6667ZM34.5 18.6667H24V21.3333H34.5V18.6667ZM21.375 10.6667H13.5V21.3333H21.375V10.6667ZM21.375 26.6667H34.5V24H21.375V26.6667ZM29.25 32H34.5V29.3333H29.25V32ZM34.5 34.6667H13.5V37.3333H34.5V34.6667ZM26.625 29.3333H13.5V32H26.625V29.3333ZM18.75 24H13.5V26.6667H18.75V24ZM42.375 0H5.625C4.92881 0 4.26113 0.280951 3.76884 0.781048C3.27656 1.28115 3 1.95942 3 2.66667V45.3333C3 46.0406 3.27656 46.7189 3.76884 47.219C4.26113 47.7191 4.92881 48 5.625 48H42.375C43.0712 48 43.7389 47.7191 44.2312 47.219C44.7234 46.7189 45 46.0406 45 45.3333V2.66667C45 1.95942 44.7234 1.28115 44.2312 0.781048C43.7389 0.280951 43.0712 0 42.375 0ZM39.75 42.6667H8.25V5.33333H39.75V42.6667Z" fill="black"/>
</svg>
