<svg width="48" height="48" fill="none" xmlns="http://www.w3.org/2000/svg"><path fill-rule="evenodd" clip-rule="evenodd" d="M34.5 10.667H24V16h10.5v-5.333zm0 8H24v2.666h10.5v-2.666zm-13.125-8H13.5v10.666h7.875V10.667zm0 16H34.5V24H21.375v2.667zM29.25 32h5.25v-2.667h-5.25V32zm5.25 2.667h-21v2.666h21v-2.666zm-7.875-5.334H13.5V32h13.125v-2.667zM18.75 24H13.5v2.667h5.25V24zM42.375 0H5.625c-.696 0-1.364.281-1.856.781A2.688 2.688 0 003 2.667v42.666c0 .708.277 1.386.769 1.886S4.929 48 5.625 48h36.75c.696 0 1.364-.28 1.856-.781.492-.5.769-1.178.769-1.886V2.667c0-.708-.277-1.386-.769-1.886A2.604 2.604 0 0042.375 0zM39.75 42.667H8.25V5.333h31.5v37.334z" fill="#000"/></svg>