<svg width="48" height="48" fill="none" xmlns="http://www.w3.org/2000/svg"><g clip-path="url(#prefix__clip0_1310_11866)"><path d="M44.267 48l-16.8-16.8c-1.334 1.067-2.867 1.911-4.6 2.533-1.734.623-3.578.934-5.534.934-4.844 0-8.944-1.679-12.298-5.035C1.68 26.276.002 22.176 0 17.333c-.002-4.842 1.676-8.942 5.035-12.298C8.393 1.678 12.492 0 17.333 0s8.942 1.678 12.302 5.035c3.36 3.356 5.037 7.456 5.032 12.298 0 1.956-.311 3.8-.934 5.534-.622 1.733-1.466 3.266-2.533 4.6l16.8 16.8L44.267 48zM17.333 29.333c3.334 0 6.167-1.166 8.502-3.498 2.334-2.333 3.5-5.167 3.498-8.502-.001-3.335-1.168-6.168-3.498-8.498-2.331-2.331-5.165-3.498-8.502-3.502-3.337-.003-6.17 1.164-8.498 3.502-2.33 2.337-3.496 5.17-3.502 8.498-.005 3.328 1.162 6.162 3.502 8.502 2.34 2.34 5.172 3.505 8.498 3.498z" fill="#000"/></g><defs><clipPath id="prefix__clip0_1310_11866"><path fill="#fff" d="M0 0h48v48H0z"/></clipPath></defs></svg>