<svg width="48" height="48" fill="none" xmlns="http://www.w3.org/2000/svg"><g clip-path="url(#prefix__clip0_1391_19979)"><path d="M0 5.333v37.334A5.333 5.333 0 005.333 48h37.334A5.333 5.333 0 0048 42.667V5.333A5.333 5.333 0 0042.667 0H5.333A5.333 5.333 0 000 5.333zm18.667 5.334H40V16H18.667v-5.333zm0 10.666H40v5.334H18.667v-5.334zm0 10.667H40v5.333H18.667V32zM8 10.667h5.333V16H8v-5.333zm0 10.666h5.333v5.334H8v-5.334zM8 32h5.333v5.333H8V32z" fill="#000"/></g><defs><clipPath id="prefix__clip0_1391_19979"><path fill="#fff" d="M0 0h48v48H0z"/></clipPath></defs></svg>