<svg width="48" height="48" viewBox="0 0 48 48" fill="none" xmlns="http://www.w3.org/2000/svg">
<path d="M40.3529 32.7341H12.8111L7.51465 11.5479H45.6494L40.3529 32.7341Z" fill="black"/>
<path d="M2.21875 5.19238H5.9263L7.51525 11.5482M7.51525 11.5482L12.8117 32.7345H40.3535L45.65 11.5482H7.51525Z" stroke="black" stroke-width="4.23722" stroke-linecap="round" stroke-linejoin="round"/>
<path d="M12.8117 43.3275C14.5668 43.3275 15.9896 41.9047 15.9896 40.1496C15.9896 38.3945 14.5668 36.9717 12.8117 36.9717C11.0566 36.9717 9.63379 38.3945 9.63379 40.1496C9.63379 41.9047 11.0566 43.3275 12.8117 43.3275Z" stroke="black" stroke-width="4.23722" stroke-linecap="round" stroke-linejoin="round"/>
<path d="M40.3527 43.3275C42.1078 43.3275 43.5306 41.9047 43.5306 40.1496C43.5306 38.3945 42.1078 36.9717 40.3527 36.9717C38.5976 36.9717 37.1748 38.3945 37.1748 40.1496C37.1748 41.9047 38.5976 43.3275 40.3527 43.3275Z" stroke="black" stroke-width="4.23722" stroke-linecap="round" stroke-linejoin="round"/>
</svg>
