<svg width="48" height="48" viewBox="0 0 48 48" fill="none" xmlns="http://www.w3.org/2000/svg">
<path d="M46.2278 26.774C46.439 30.3957 44.7732 33.8772 41.7937 36.0035L43.6002 39.485C44.1398 40.5364 44.2102 41.7748 43.741 42.873C43.2952 43.9712 42.3802 44.8357 41.2541 45.2096L39.4007 45.7937C38.6289 46.0527 37.7957 46.0682 37.0148 45.8382C36.2339 45.6082 35.5432 45.1439 35.0369 44.5086L30.0632 38.6672C27.9751 38.3167 26.0044 37.4288 24.3387 36.0969C23.1656 36.4474 21.9926 36.6343 20.8195 36.6343C18.7549 36.6343 16.6904 36.0035 14.9543 34.7885C13.7108 35.1623 12.4439 35.3259 11.1536 35.3025C9.30015 35.3259 7.47018 34.952 5.75753 34.251C4.10901 33.5185 2.70041 32.3392 1.69239 30.8478C0.684368 29.3564 0.117518 27.6128 0.0564956 25.816C-0.131193 24.1337 0.15034 22.428 0.877632 20.8858C0.197262 19.1334 0.126879 17.2174 0.713405 15.4416C1.58146 13.2219 3.22374 11.376 5.26485 10.2077C6.62559 6.25888 10.4497 3.61855 14.6493 3.89893C18.403 0.394072 24.151 0.0202207 28.327 3.0344C29.3124 2.77738 30.3447 2.63718 31.377 2.63718C34.5677 2.56709 37.5942 3.96903 39.5883 6.46917C44.3744 7.70755 47.7997 11.9601 47.9874 16.9137C48.1047 19.5073 47.4009 22.0541 45.9697 24.2271C46.134 25.0683 46.2278 25.9095 46.2278 26.774ZM34.4973 23.4794C35.8346 23.643 36.8903 24.6477 36.8903 25.9796C36.8903 26.5993 36.6431 27.1936 36.2032 27.6318C35.7632 28.07 35.1665 28.3161 34.5442 28.3161H33.0662C32.3154 30.4191 31.0016 32.265 29.2655 33.6669C29.852 33.8772 30.462 33.994 31.072 34.1576C43.1075 33.994 41.6998 26.6805 41.6998 26.5637C41.6376 24.9587 40.9377 23.4441 39.7542 22.353C38.5706 21.2619 37.0004 20.6837 35.3888 20.7456C34.7666 20.7456 34.1699 20.4995 33.7299 20.0613C33.2899 19.6231 33.0427 19.0288 33.0427 18.4091C33.0427 17.7894 33.2899 17.1951 33.7299 16.7569C34.1699 16.3187 34.7666 16.0725 35.3888 16.0725C38.2745 16.1426 41.0429 17.2174 43.2013 19.11C43.3187 18.4324 43.389 17.7315 43.389 17.0305C43.2483 14.1331 41.9345 11.6096 36.6557 11.119C33.7231 4.20269 26.3329 8.03467 26.3329 10.1843C26.2625 10.7217 26.8255 11.8667 26.9194 11.9368C27.5416 11.9368 28.1384 12.1829 28.5783 12.6211C29.0183 13.0593 29.2655 13.6536 29.2655 14.2733C29.2655 15.5584 28.2097 16.6099 26.9194 16.6099C25.676 16.5632 24.5029 16.0959 23.5645 15.3014C22.4383 16.0258 21.148 16.4697 19.8107 16.6099C18.4734 16.7267 17.3707 15.7921 17.3004 14.507C17.2571 14.2018 17.277 13.891 17.3588 13.5937C17.4405 13.2964 17.5824 13.0189 17.7758 12.7782C17.9691 12.5375 18.2098 12.3387 18.4831 12.194C18.7564 12.0493 19.0565 11.9618 19.3649 11.9368C19.7403 11.89 21.5703 11.6096 21.5703 10.1376C21.5703 8.59545 22.1568 7.12341 23.1656 5.95512C21.0072 5.37098 18.6846 6.14205 16.3385 8.9693C12.0216 8.2917 10.262 8.87584 8.97169 13.4322C6.74289 14.5304 5.56984 15.3014 5.0537 17.638C7.58749 17.1239 10.1917 17.3342 12.6082 18.2221C13.7812 18.6661 14.4381 19.9746 13.9924 21.2363C13.5466 22.4513 12.1859 23.0589 10.9659 22.6149C9.25322 21.8672 7.32942 21.8205 5.56984 22.4747C4.81909 23.1056 4.81909 24.4141 4.81909 25.4422C4.81909 27.1712 5.68714 28.7835 7.16519 29.7181C8.40863 30.349 9.79283 30.6761 11.177 30.6527C10.8251 30.0452 10.5201 29.4143 10.262 28.7601C10.0774 28.1598 10.1336 27.5115 10.419 26.9516C10.7044 26.3918 11.1966 25.964 11.7922 25.7582C12.3878 25.5524 13.0404 25.5846 13.6126 25.8482C14.1848 26.1117 14.6321 26.586 14.8604 27.1712C15.7989 29.8349 18.1919 31.6574 21.0072 31.9612C24.2214 31.7976 27.0836 29.905 28.4913 26.9843C29.0309 23.7598 31.6351 23.4794 34.4973 23.4794ZM39.1895 40.9337L37.7349 37.8961L36.0692 38.27L38.4153 41.1907L39.1895 40.9337ZM28.2801 20.8157C28.3005 20.2188 28.0906 19.6368 27.6936 19.1892C27.2965 18.7416 26.7425 18.4625 26.1452 18.4091C24.4794 18.3156 22.8606 18.8764 21.6172 19.9746C20.2799 21.3298 19.5761 23.199 19.6465 25.0917C19.6465 25.7114 19.8936 26.3057 20.3336 26.7439C20.7736 27.1821 21.3703 27.4282 21.9926 27.4282C23.3298 27.4282 24.3387 26.3768 24.3387 25.0917C24.3387 24.4608 24.5029 23.8299 24.8783 23.3159C25.1598 23.0822 25.5117 22.9654 25.8871 22.9654C27.1775 23.0355 28.2801 22.0775 28.2801 20.8157Z" fill="black"/>
</svg>
