<svg width="48" height="48" viewBox="0 0 48 48" fill="none" xmlns="http://www.w3.org/2000/svg">
<g clip-path="url(#clip0_1395_23314)">
<path d="M24 12.3333C22.7623 12.3333 21.5753 11.8417 20.7002 10.9665C19.825 10.0913 19.3333 8.90434 19.3333 7.66667C19.3333 6.42899 19.825 5.242 20.7002 4.36683C21.5753 3.49167 22.7623 3 24 3C25.2377 3 26.4247 3.49167 27.2998 4.36683C28.175 5.242 28.6667 6.42899 28.6667 7.66667C28.6667 8.90434 28.175 10.0913 27.2998 10.9665C26.4247 11.8417 25.2377 12.3333 24 12.3333ZM24 12.3333V21.6667M24 21.6667C25.8565 21.6667 27.637 22.4042 28.9497 23.7169C30.2625 25.0297 31 26.8102 31 28.6667C31 30.5232 30.2625 32.3037 28.9497 33.6164C27.637 34.9292 25.8565 35.6667 24 35.6667C22.1435 35.6667 20.363 34.9292 19.0503 33.6164C17.7375 32.3037 17 30.5232 17 28.6667C17 26.8102 17.7375 25.0297 19.0503 23.7169C20.363 22.4042 22.1435 21.6667 24 21.6667ZM11.6333 37.5333L18.1667 32.8667M36.3667 37.5333L29.8333 32.8667M3 40.3333C3 41.571 3.49167 42.758 4.36683 43.6332C5.242 44.5083 6.42899 45 7.66667 45C8.90434 45 10.0913 44.5083 10.9665 43.6332C11.8417 42.758 12.3333 41.571 12.3333 40.3333C12.3333 39.0957 11.8417 37.9087 10.9665 37.0335C10.0913 36.1583 8.90434 35.6667 7.66667 35.6667C6.42899 35.6667 5.242 36.1583 4.36683 37.0335C3.49167 37.9087 3 39.0957 3 40.3333ZM35.6667 40.3333C35.6667 41.571 36.1583 42.758 37.0335 43.6332C37.9087 44.5083 39.0957 45 40.3333 45C41.571 45 42.758 44.5083 43.6332 43.6332C44.5083 42.758 45 41.571 45 40.3333C45 39.0957 44.5083 37.9087 43.6332 37.0335C42.758 36.1583 41.571 35.6667 40.3333 35.6667C39.0957 35.6667 37.9087 36.1583 37.0335 37.0335C36.1583 37.9087 35.6667 39.0957 35.6667 40.3333Z" stroke="black" stroke-width="4.3632" stroke-linecap="round" stroke-linejoin="round"/>
</g>
<defs>
<clipPath id="clip0_1395_23314">
<rect width="48" height="48" fill="white"/>
</clipPath>
</defs>
</svg>
