<svg width="48" height="48" viewBox="0 0 48 48" fill="none" xmlns="http://www.w3.org/2000/svg">
<g clip-path="url(#clip0_1398_24571)">
<path d="M24 0C37.2552 0 48 10.7448 48 24C48 37.2552 37.2552 48 24 48C10.7448 48 0 37.2552 0 24C0 10.7448 10.7448 0 24 0ZM24 9.6C23.3635 9.6 22.753 9.85286 22.3029 10.3029C21.8529 10.753 21.6 11.3635 21.6 12V24C21.6001 24.6365 21.8531 25.2468 22.3032 25.6968L29.5032 32.8968C29.9558 33.334 30.5621 33.5759 31.1914 33.5704C31.8206 33.565 32.4226 33.3125 32.8676 32.8676C33.3125 32.4226 33.565 31.8206 33.5704 31.1914C33.5759 30.5621 33.334 29.9558 32.8968 29.5032L26.4 23.0064V12C26.4 11.3635 26.1471 10.753 25.6971 10.3029C25.247 9.85286 24.6365 9.6 24 9.6Z" fill="black"/>
</g>
<defs>
<clipPath id="clip0_1398_24571">
<rect width="48" height="48" fill="white"/>
</clipPath>
</defs>
</svg>
