<svg width="48" height="48" viewBox="0 0 48 48" fill="none" xmlns="http://www.w3.org/2000/svg">
<path d="M43.186 37H4.814C3.53774 36.9984 2.3142 36.4807 1.41174 35.5604C0.509285 34.6401 0.00158773 33.3924 0 32.091V10.909C0.00158773 9.60756 0.509285 8.35987 1.41174 7.4396C2.3142 6.51934 3.53774 6.00162 4.814 6H43.186C44.4623 6.00162 45.6858 6.51934 46.5883 7.4396C47.4907 8.35987 47.9984 9.60756 48 10.909V32.091C47.9984 33.3924 47.4907 34.6401 46.5883 35.5604C45.6858 36.4807 44.4623 36.9984 43.186 37Z" fill="black"/>
<path d="M11 40H37Z" fill="black"/>
<path d="M11 40H37" stroke="black" stroke-width="3.82194" stroke-miterlimit="10" stroke-linecap="round"/>
</svg>
