<svg width="48" height="48" fill="none" xmlns="http://www.w3.org/2000/svg"><path d="M46 39.906c0 2.5-.743 4.474-2.23 5.922C42.285 47.276 40.31 48 37.847 48H11.154c-2.463 0-4.438-.724-5.925-2.172C3.743 44.38 3 42.406 3 39.906c0-1.104.036-2.182.107-3.234.071-1.052.214-2.188.427-3.406a27 27 0 01.81-3.391 16.256 16.256 0 011.313-3.047c.55-.99 1.18-1.833 1.893-2.531.713-.698 1.583-1.255 2.612-1.672 1.028-.417 2.163-.625 3.405-.625.203 0 .641.224 1.313.672.672.448 1.415.948 2.23 1.5.814.552 1.903 1.052 3.267 1.5 1.364.448 2.739.672 4.123.672 1.384 0 2.759-.224 4.123-.672 1.364-.448 2.453-.948 3.268-1.5.814-.552 1.557-1.052 2.229-1.5.672-.448 1.11-.672 1.313-.672 1.242 0 2.377.208 3.405.625 1.029.417 1.899.974 2.612 1.672.712.698 1.343 1.541 1.893 2.531.55.99.987 2.005 1.313 3.047.326 1.042.596 2.172.81 3.39.213 1.22.356 2.355.427 3.407A47.84 47.84 0 0146 39.906zM36.227 12c0 3.313-1.145 6.14-3.435 8.484C30.502 22.828 27.737 24 24.5 24s-6.001-1.172-8.291-3.516c-2.291-2.343-3.436-5.172-3.436-8.484 0-3.313 1.145-6.14 3.436-8.484C18.498 1.172 21.263 0 24.5 0s6.001 1.172 8.292 3.516c2.29 2.343 3.435 5.171 3.435 8.484z" fill="#000"/></svg>