<svg width="48" height="48" fill="none" xmlns="http://www.w3.org/2000/svg"><g clip-path="url(#prefix__clip0_1395_21578)"><path d="M34.464 28.8c.192-1.584.336-3.168.336-4.8 0-1.632-.144-3.216-.336-4.8h8.112c.384 1.536.624 3.144.624 4.8 0 1.656-.24 3.264-.624 4.8m-12.36 13.344c1.44-2.664 2.544-5.544 3.312-8.544h7.08a19.272 19.272 0 01-10.392 8.544zm-.6-13.344H18.384A31.844 31.844 0 0118 24c0-1.632.144-3.24.384-4.8h11.232c.216 1.56.384 3.168.384 4.8 0 1.632-.168 3.216-.384 4.8zM24 43.104c-1.992-2.88-3.6-6.072-4.584-9.504h9.168c-.984 3.432-2.592 6.624-4.584 9.504zM14.4 14.4H7.392A19.008 19.008 0 0117.76 5.856C16.32 8.52 15.24 11.4 14.4 14.4zM7.392 33.6H14.4c.84 3 1.92 5.88 3.36 8.544A19.2 19.2 0 017.392 33.6zm-1.968-4.8C5.04 27.264 4.8 25.656 4.8 24c0-1.656.24-3.264.624-4.8h8.112c-.192 1.584-.336 3.168-.336 4.8 0 1.632.144 3.216.336 4.8M24 4.872c1.992 2.88 3.6 6.096 4.584 9.528h-9.168C20.4 10.968 22.008 7.752 24 4.872zM40.608 14.4h-7.08a37.68 37.68 0 00-3.312-8.544A19.168 19.168 0 0140.608 14.4zM24 0C10.728 0 0 10.8 0 24A24 24 0 1024 0z" fill="#000"/></g><defs><clipPath id="prefix__clip0_1395_21578"><path fill="#fff" d="M0 0h48v48H0z"/></clipPath></defs></svg>