<svg width="48" height="48" viewBox="0 0 48 48" fill="none" xmlns="http://www.w3.org/2000/svg">
<g clip-path="url(#clip0_1319_11841)">
<path d="M38.7692 33.2308C37.8462 33.2308 36.9231 32.8615 36.1846 32.1231L30.6462 26.5846C29.9077 25.8462 29.5385 24.9231 29.5385 24C29.5385 23.0769 29.9077 22.1538 30.6462 21.4154L36.1846 15.8769C36.9231 15.1385 37.8462 14.7692 38.7692 14.7692C39.6923 14.7692 40.6154 15.1385 41.3538 15.8769L46.8923 21.4154C47.6308 22.1538 48 23.0769 48 24C48 24.9231 47.6308 25.8462 46.8923 26.5846L41.3538 32.1231C40.6154 32.8615 39.6923 33.2308 38.7692 33.2308ZM38.7692 18.4615L33.2308 24L38.7692 29.5385L44.3077 24L38.7692 18.4615ZM24 18.4615C23.0769 18.4615 22.1538 18.0923 21.4154 17.3538L15.8769 11.8154C15.1385 11.0769 14.7692 10.1538 14.7692 9.23077C14.7692 8.30769 15.1385 7.38462 15.8769 6.64615L21.4154 1.10769C22.1538 0.369231 23.0769 0 24 0C24.9231 0 25.8462 0.369231 26.5846 1.10769L32.1231 6.64615C32.8615 7.38462 33.2308 8.30769 33.2308 9.23077C33.2308 10.1538 32.8615 11.0769 32.1231 11.8154L26.5846 17.3538C25.8462 18.0923 24.9231 18.4615 24 18.4615ZM24 3.69231L18.4615 9.23077L24 14.7692L29.5385 9.23077L24 3.69231ZM24 48C23.0769 48 22.1538 47.6308 21.4154 46.8923L15.8769 41.3538C15.1385 40.6154 14.7692 39.6923 14.7692 38.7692C14.7692 37.8462 15.1385 36.9231 15.8769 36.1846L21.4154 30.6462C22.1538 29.9077 23.0769 29.5385 24 29.5385C24.9231 29.5385 25.8462 29.9077 26.5846 30.6462L32.1231 36.1846C32.8615 36.9231 33.2308 37.8462 33.2308 38.7692C33.2308 39.6923 32.8615 40.6154 32.1231 41.3538L26.5846 46.8923C25.8462 47.6308 24.9231 48 24 48ZM24 33.2308L18.4615 38.7692L24 44.3077L29.5385 38.7692L24 33.2308ZM9.23077 33.2308C8.30769 33.2308 7.38462 32.8615 6.64615 32.1231L1.10769 26.5846C0.369231 25.8462 0 24.9231 0 24C0 23.0769 0.369231 22.1538 1.10769 21.4154L6.64615 15.8769C7.38462 15.1385 8.30769 14.7692 9.23077 14.7692C10.1538 14.7692 11.0769 15.1385 11.8154 15.8769L17.3538 21.4154C18.0923 22.1538 18.4615 23.0769 18.4615 24C18.4615 24.9231 18.0923 25.8462 17.3538 26.5846L11.8154 32.1231C11.0769 32.8615 10.1538 33.2308 9.23077 33.2308ZM9.23077 18.4615L3.69231 24L9.23077 29.5385L14.7692 24L9.23077 18.4615Z" fill="black"/>
</g>
<defs>
<clipPath id="clip0_1319_11841">
<rect width="48" height="48" fill="white"/>
</clipPath>
</defs>
</svg>
