<svg width="18" height="16" viewBox="0 0 18 16" fill="none" xmlns="http://www.w3.org/2000/svg">
<path d="M5.47701 1.95342C5.38493 1.91593 5.30123 1.86066 5.23072 1.7908C5.16022 1.72094 5.10431 1.63787 5.06622 1.54639L4.45485 0.164661C4.34042 -0.0548535 4.01127 -0.0548535 3.90327 0.164661L3.29127 1.54703C3.20839 1.72739 3.06268 1.87176 2.88112 1.95342L2.10068 2.28877C2.04934 2.31251 2.00589 2.35037 1.97543 2.39788C1.94498 2.44539 1.9288 2.50057 1.9288 2.55693C1.9288 2.61328 1.94498 2.66847 1.97543 2.71597C2.00589 2.76348 2.04934 2.80134 2.10068 2.82508L2.88112 3.16043C3.06948 3.23787 3.21734 3.38635 3.29127 3.56746L3.90327 4.95559C4.0177 5.17511 4.34685 5.17511 4.45485 4.95559L5.06686 3.56682C5.14786 3.38635 5.29572 3.24427 5.47701 3.16043L6.25744 2.82508C6.30878 2.80134 6.35224 2.76348 6.38269 2.71597C6.41314 2.66847 6.42932 2.61328 6.42932 2.55693C6.42932 2.50057 6.41314 2.44539 6.38269 2.39788C6.35224 2.35037 6.30878 2.31251 6.25744 2.28877L5.47701 1.95342ZM15.1547 6.11524C14.5958 5.86587 14.1537 5.41323 13.9191 4.84999L12.0792 0.518573C12.004 0.363212 11.8863 0.232131 11.7396 0.140397C11.5929 0.0486636 11.4232 0 11.2499 0C11.0767 0 10.907 0.0486636 10.7603 0.140397C10.6136 0.232131 10.4958 0.363212 10.4206 0.518573L8.58011 4.84999C8.34168 5.41051 7.90113 5.86188 7.34517 6.11524L5.01671 7.16482C4.32756 7.50401 4.32756 8.49599 5.01671 8.83518L7.34517 9.88476C7.90386 10.1345 8.34579 10.587 8.58075 11.15L10.4206 15.4814C10.4958 15.6368 10.6136 15.7679 10.7603 15.8596C10.907 15.9513 11.0767 16 11.2499 16C11.4232 16 11.5929 15.9513 11.7396 15.8596C11.8863 15.7679 12.004 15.6368 12.0792 15.4814L13.9197 11.15C14.1582 10.5895 14.5987 10.1381 15.1547 9.88476L17.4831 8.83518C18.1723 8.49599 18.1723 7.50401 17.4831 7.16482L15.1547 6.11524ZM4.03763 10.4511C4.14049 10.702 4.32949 10.8966 4.56607 11.0092L5.56251 11.4732C5.62989 11.5081 5.68636 11.5608 5.72578 11.6254C5.76519 11.6901 5.78603 11.7643 5.78603 11.8399C5.78603 11.9155 5.76519 11.9897 5.72578 12.0544C5.68636 12.119 5.62989 12.1717 5.56251 12.2066L4.56607 12.6706C4.32949 12.7832 4.14113 12.9842 4.03763 13.2287L3.2482 15.1339C3.21667 15.2013 3.16647 15.2584 3.10349 15.2983C3.04051 15.3383 2.96738 15.3595 2.89269 15.3595C2.818 15.3595 2.74487 15.3383 2.68189 15.2983C2.61892 15.2584 2.56871 15.2013 2.53719 15.1339L1.74839 13.2287C1.64841 12.9835 1.45991 12.7844 1.21996 12.6706L0.22352 12.2066C0.156133 12.1717 0.0996613 12.119 0.0602504 12.0544C0.0208396 11.9897 0 11.9155 0 11.8399C0 11.7643 0.0208396 11.6901 0.0602504 11.6254C0.0996613 11.5608 0.156133 11.5081 0.22352 11.4732L1.21996 11.0092C1.45653 10.8966 1.64489 10.6956 1.74839 10.4511L2.53783 8.54591C2.56935 8.4785 2.61956 8.42146 2.68254 8.38149C2.74551 8.34153 2.81865 8.32029 2.89333 8.32029C2.96802 8.32029 3.04115 8.34153 3.10413 8.38149C3.16711 8.42146 3.21731 8.4785 3.24884 8.54591L4.03763 10.4511Z" fill="url(#paint0_linear_965_11653)"/>
<defs>
<linearGradient id="paint0_linear_965_11653" x1="2.93367e-08" y1="1" x2="18" y2="15" gradientUnits="userSpaceOnUse">
<stop stop-color="#FF0000"/>
<stop offset="1" stop-color="#4800FF"/>
</linearGradient>
</defs>
</svg>
