<svg width="48" height="48" fill="none" xmlns="http://www.w3.org/2000/svg"><path d="M16.635 1.316a24.009 24.009 0 001.643 45.87 25.647 25.647 0 0012.278.133 21.675 21.675 0 009.827-5.107 21.795 21.795 0 006.07-9.963 28.202 28.202 0 00.611-12.74H24.482v9.367H37.56a11.276 11.276 0 01-4.804 7.406 13.719 13.719 0 01-5.285 2.087 15.664 15.664 0 01-5.729 0 14.098 14.098 0 01-5.33-2.326 14.911 14.911 0 01-5.502-7.368 14.535 14.535 0 010-9.345 14.891 14.891 0 013.483-5.657 14.102 14.102 0 0114.209-3.71 13.006 13.006 0 015.175 3.035c1.475-1.467 2.947-2.938 4.416-4.413.76-.793 1.586-1.548 2.334-2.36a23.228 23.228 0 00-7.725-4.765 24.282 24.282 0 00-16.167-.144z" fill="#fff"/><path d="M16.634 1.316a24.282 24.282 0 0116.167.14 23.228 23.228 0 017.721 4.788c-.759.812-1.56 1.571-2.333 2.36-1.472 1.47-2.943 2.934-4.413 4.394a13.006 13.006 0 00-5.175-3.036 14.103 14.103 0 00-14.213 3.696 14.893 14.893 0 00-3.483 5.657l-7.865-6.09a24.104 24.104 0 0113.594-11.91z" fill="#E33629"/><path d="M.955 19.259a23.876 23.876 0 012.087-6.033l7.865 6.105a14.535 14.535 0 000 9.345c-2.62 2.023-5.242 4.057-7.865 6.1A24.028 24.028 0 01.955 19.26z" fill="#F8BD00"/><path d="M24.482 19.504h22.583a28.202 28.202 0 01-.611 12.74 21.793 21.793 0 01-6.07 9.964c-2.539-1.98-5.089-3.946-7.627-5.926a11.277 11.277 0 004.803-7.414H24.482c-.004-3.119 0-6.241 0-9.364z" fill="#587DBD"/><path d="M3.037 34.776c2.623-2.024 5.245-4.057 7.865-6.101a14.911 14.911 0 005.51 7.368 14.1 14.1 0 005.341 2.307c1.894.352 3.836.352 5.73 0a13.72 13.72 0 005.285-2.087c2.538 1.98 5.088 3.946 7.626 5.927a21.676 21.676 0 01-9.827 5.11c-4.043.95-8.256.905-12.278-.133a23.902 23.902 0 01-8.726-4.397 24.18 24.18 0 01-6.526-7.994z" fill="#319F43"/></svg>