<svg width="48" height="48" fill="none" xmlns="http://www.w3.org/2000/svg"><path fill-rule="evenodd" clip-rule="evenodd" d="M24 11.607A5.805 5.805 0 1024-.002a5.805 5.805 0 000 11.61zm-9.124 8.387a9.677 9.677 0 0118.248 0H14.876zM6.36 24.302a2.591 2.591 0 00.224 5.172h3.079L10.905 46.4A1.728 1.728 0 0012.626 48h22.747a1.727 1.727 0 001.72-1.603l1.244-16.923h3.079a2.591 2.591 0 00.224-5.172l-.224.01H6.588l-.228-.01zM24 30.054a1.727 1.727 0 011.548.964l.905 1.83 2.024.298a1.728 1.728 0 01.957 2.946L27.97 37.52l.345 2.014a1.726 1.726 0 01-2.505 1.82L24 40.4l-1.81.95a1.728 1.728 0 01-2.505-1.82l.345-2.014-1.464-1.427a1.727 1.727 0 01.957-2.947l2.024-.293.905-1.835a1.724 1.724 0 011.548-.96z" fill="#000"/></svg>