<svg width="48" height="48" fill="none" xmlns="http://www.w3.org/2000/svg"><path d="M6.502 7.647c.691-.864 1.546-1.614 2.403-2.311A23.776 23.776 0 0121.392.146c2.143-.238 4.31-.36 6.097 1.062a5.548 5.548 0 012.047 3.704c.157 1.454-.246 2.962-1.17 4.102-.471.58-1.149 1.169-1.83 1.48-1.524.686-3.057.543-4.666.812a12.773 12.773 0 00-9.852 8.046c-1.265 3.348-1.105 6.866.374 10.115 1.368 3.005 4.052 5.406 7.131 6.554a12.905 12.905 0 009.856-.379 12.874 12.874 0 006.683-7.224c.44-1.183.66-2.392.803-3.642.298.429.368 1.216.448 1.727.438 2.837.486 5.69-.023 8.52-.08.45-.151.966-.315 1.389-.056.329-.125.656-.206.98-.782 2.334-1.718 4.523-3.075 6.585-.557.846-1.389 1.671-1.814 2.573-2.053.985-7.387 1.784-9.601 1.314-.671.03-1.462-.131-2.128-.24-3.905-.642-7.871-2.282-10.936-4.813-.337-.196-.67-.527-.97-.778-2.31-1.926-4.236-4.485-5.598-7.158C.014 29.707-.854 23.07.957 17.498c.069-.574.348-1.272.55-1.817a23.015 23.015 0 014.995-8.034z" fill="url(#prefix__paint0_linear_3327_36316)"/><path d="M.957 17.497C.98 18.58.294 19.712.523 20.781c.022.106.045.21.071.314l.03.027c1.083.983 1.288 2.426 1.862 3.687.282.617.673 1.18 1.056 1.737 1.7 2.474 3.65 4.886 5.911 6.875 4.352 3.826 10.34 6.407 16.127 6.802 1.17.08 2.393.01 3.566-.04a19.416 19.416 0 004.389-.684c.638-.175 1.3-.452 1.95-.562.164-.028.342.009.498.06.23-.135.292-.419.356-.662.148-.56.238-1.42.538-1.904l.098-.02c-.056.33-.125.657-.206.98-.782 2.335-1.718 4.523-3.075 6.585-.557.846-1.389 1.671-1.814 2.574-2.053.984-7.387 1.783-9.601 1.313-.671.03-1.462-.13-2.128-.24-3.905-.642-7.871-2.281-10.936-4.812-.337-.197-.67-.527-.97-.779-2.31-1.926-4.236-4.485-5.598-7.158C.014 29.706-.854 23.07.957 17.497z" fill="url(#prefix__paint1_linear_3327_36316)"/><path d="M9.214 42.812c.088-.08.161-.19.283-.184.256.015.67.337.966.426.338.102.69.154 1.026.264.774.253 1.55.63 2.313.928l4.62 1.761c1.773.683 3.547 1.436 5.434 1.72l.002.048c-.517.034-1.07.016-1.58.09-.67.029-1.461-.132-2.127-.241-3.905-.642-7.872-2.281-10.937-4.812z" fill="#DEB619"/><path d="M6.502 7.647c.69-.864 1.546-1.614 2.402-2.311A23.776 23.776 0 0121.391.146c2.144-.238 4.31-.36 6.097 1.062a5.548 5.548 0 012.048 3.704c.157 1.454-.246 2.962-1.171 4.102-.47.58-1.148 1.169-1.829 1.48-.582-.487-1.466-.883-2.152-1.224A24.253 24.253 0 0010.93 6.92c-1.06.117-3.514.838-4.36.736l-.067-.01z" fill="url(#prefix__paint2_linear_3327_36316)"/><path d="M36.864 24.776c-.083-1.647.317-3.298 1.445-4.54a5.64 5.64 0 013.88-1.812 5.539 5.539 0 014.017 1.458 5.642 5.642 0 011.781 3.932c.11 2.777-.51 6.067-1.539 8.65-.119.299-.24.711-.425.972-1.867 5.196-6.913 9.943-11.83 12.259-.735.346-1.513.7-2.314.855.426-.902 1.257-1.727 1.814-2.573 1.358-2.063 2.294-4.251 3.076-6.585.08-.324.15-.651.206-.98.163-.423.234-.938.315-1.388.509-2.832.461-5.684.022-8.521-.079-.511-.149-1.298-.448-1.727z" fill="url(#prefix__paint3_linear_3327_36316)"/><path d="M36.769 37.392c.194.704-.591 1.91-.744 2.634l.082.049c1.583-.053 5.043-2.306 6.764-2.965.257-.099.54-.171.8-.05.019.008.106.051.128.058.47.133 1.68-3.398 2.185-3.664l.04-.017c-1.868 5.195-6.914 9.943-11.831 12.258-.735.346-1.513.7-2.314.855.426-.902 1.257-1.727 1.814-2.573 1.358-2.062 2.294-4.25 3.076-6.585z" fill="url(#prefix__paint4_linear_3327_36316)"/><path d="M23.626 17.618a4.294 4.294 0 011.95.303 4.127 4.127 0 012.269 2.235c.555 1.313.423 3.129-.56 4.211-.336.37-1.329.979-1.454 1.395-.335 1.11.255 2.415-.222 3.523-.23.537-.636.793-1.156 1.01a2.69 2.69 0 01-.49.052c-.406.001-.888-.177-1.166-.478-.873-.942-.548-3.062-.518-4.245-.204-.116-.41-.234-.602-.37-.934-.655-1.605-1.637-1.786-2.774a4.313 4.313 0 01.743-3.158c.732-1.017 1.784-1.508 2.992-1.704z" fill="#9467FE"/><defs><linearGradient id="prefix__paint0_linear_3327_36316" x1="14.977" y1="37.301" x2="25.583" y2="9.745" gradientUnits="userSpaceOnUse"><stop stop-color="#A26CBC"/><stop offset="1" stop-color="#613DFF"/></linearGradient><linearGradient id="prefix__paint1_linear_3327_36316" x1="12.024" y1="43.843" x2="18.63" y2="28.988" gradientUnits="userSpaceOnUse"><stop stop-color="#E4AF22"/><stop offset="1" stop-color="#A663C9"/></linearGradient><linearGradient id="prefix__paint2_linear_3327_36316" x1="9.989" y1=".907" x2="28.104" y2="9.423" gradientUnits="userSpaceOnUse"><stop stop-color="#9578FF"/><stop offset="1" stop-color="#C6B4FF"/></linearGradient><linearGradient id="prefix__paint3_linear_3327_36316" x1="42.285" y1="39.714" x2="41.201" y2="18.59" gradientUnits="userSpaceOnUse"><stop stop-color="#CFB4E0"/><stop offset="1" stop-color="#B09CFF"/></linearGradient><linearGradient id="prefix__paint4_linear_3327_36316" x1="38.823" y1="43.638" x2="37.109" y2="39.404" gradientUnits="userSpaceOnUse"><stop stop-color="#FEDB8D"/><stop offset="1" stop-color="#DEC0C2"/></linearGradient></defs></svg>