<svg width="96" height="20" fill="none" xmlns="http://www.w3.org/2000/svg"><path d="M3.44 15.216V6.128l.592.768L1.76 8.048l-.464-1.824L4.352 4.64h1.152v10.576H3.44zM1.568 16v-1.92h5.856V16H1.568zM13.4 16.16c-.907 0-1.686-.23-2.337-.688-.64-.47-1.136-1.13-1.488-1.984-.341-.864-.512-1.893-.512-3.088s.17-2.219.512-3.072c.352-.864.848-1.525 1.488-1.984.65-.47 1.43-.704 2.336-.704.907 0 1.686.235 2.336.704.65.459 1.147 1.12 1.488 1.984.352.853.528 1.877.528 3.072s-.176 2.224-.528 3.088c-.341.853-.837 1.515-1.488 1.984-.65.459-1.43.688-2.336.688zm0-1.824c.746 0 1.322-.341 1.727-1.024.416-.693.624-1.664.624-2.912 0-1.259-.208-2.235-.624-2.928-.405-.693-.981-1.04-1.728-1.04-.746 0-1.328.347-1.744 1.04-.405.693-.608 1.67-.608 2.928 0 1.248.203 2.219.608 2.912.416.683.998 1.024 1.744 1.024zM21.989 16l-.064-.16 3.392-7.072.192 1.2a3.83 3.83 0 01-.592.912 3.81 3.81 0 01-.784.704 3.907 3.907 0 01-.896.448c-.31.096-.619.144-.928.144-.608 0-1.168-.16-1.68-.48a3.773 3.773 0 01-1.232-1.296 3.532 3.532 0 01-.464-1.776c0-.757.176-1.44.528-2.048a3.92 3.92 0 013.472-2c.544 0 1.056.101 1.536.304.49.192.912.464 1.264.816.363.352.645.757.848 1.216.213.459.32.944.32 1.456 0 .31-.032.63-.096.96a7.02 7.02 0 01-.272 1.056 14.5 14.5 0 01-.496 1.264c-.192.459-.427.981-.704 1.568L23.973 16h-1.984zm.784-5.616c.384 0 .73-.085 1.04-.256.31-.181.55-.416.72-.704.17-.288.256-.619.256-.992 0-.384-.085-.73-.256-1.04-.17-.31-.405-.55-.704-.72a1.933 1.933 0 00-1.024-.272c-.363 0-.683.085-.96.256-.277.17-.501.41-.672.72-.16.299-.24.65-.24 1.056 0 .341.08.661.24.96.17.299.395.539.672.72.288.181.597.272.928.272zM30.942 16l-.064-.16 3.392-7.072.192 1.2c-.16.341-.357.645-.592.912a3.81 3.81 0 01-.784.704 3.907 3.907 0 01-.896.448c-.31.096-.618.144-.928.144-.608 0-1.168-.16-1.68-.48A3.774 3.774 0 0128.35 10.4a3.532 3.532 0 01-.464-1.776c0-.757.176-1.44.528-2.048a3.92 3.92 0 013.472-2c.544 0 1.056.101 1.536.304.49.192.912.464 1.264.816.363.352.645.757.848 1.216.214.459.32.944.32 1.456 0 .31-.032.63-.096.96-.053.32-.144.672-.272 1.056-.128.384-.293.805-.496 1.264-.192.459-.427.981-.704 1.568L32.926 16h-1.984zm.784-5.616c.384 0 .73-.085 1.04-.256.31-.181.55-.416.72-.704.17-.288.256-.619.256-.992 0-.384-.085-.73-.256-1.04-.17-.31-.405-.55-.704-.72a1.933 1.933 0 00-1.024-.272c-.363 0-.682.085-.96.256-.277.17-.501.41-.672.72-.16.299-.24.65-.24 1.056 0 .341.08.661.24.96.17.299.395.539.672.72.288.181.598.272.928.272zM37.991 16l4.592-10.144.384.784H37.24V4.768h7.056l.24 1.168L40.151 16h-2.16zM51.3 16V4.8h4.769c.736 0 1.354.107 1.856.32.512.213.896.533 1.152.96.266.416.4.923.4 1.52 0 .619-.166 1.141-.496 1.568-.33.427-.795.72-1.392.88l-.016-.32c.501.107.938.299 1.312.576.373.267.661.603.864 1.008.213.395.32.848.32 1.36 0 .544-.09 1.024-.272 1.44-.17.416-.427.763-.768 1.04a3.67 3.67 0 01-1.216.64c-.47.139-.998.208-1.584.208H51.3zm2.033-1.872h2.8c.394 0 .725-.059.992-.176.277-.117.485-.288.624-.512.15-.235.224-.512.224-.832 0-.299-.08-.555-.24-.768a1.34 1.34 0 00-.656-.48 2.707 2.707 0 00-1.024-.176h-2.72v2.944zm0-4.736h2.544c.31 0 .576-.059.8-.176.234-.117.416-.277.544-.48a1.29 1.29 0 00.192-.704c0-.427-.144-.757-.432-.992-.288-.245-.71-.368-1.264-.368h-2.384v2.72zM65.9 16.16c-.885 0-1.669-.187-2.351-.56a4.173 4.173 0 01-1.584-1.52c-.374-.65-.56-1.392-.56-2.224 0-.661.106-1.264.32-1.808a4.315 4.315 0 01.88-1.408 3.86 3.86 0 011.36-.928 4.458 4.458 0 011.744-.336c.554 0 1.072.107 1.552.32.48.213.896.507 1.248.88.352.363.618.8.8 1.312.192.501.282 1.05.272 1.648l-.016.688h-6.832l-.368-1.344h5.552l-.256.272V10.8a1.7 1.7 0 00-.32-.864 1.81 1.81 0 00-.704-.592 1.926 1.926 0 00-.928-.224c-.523 0-.966.101-1.328.304a1.945 1.945 0 00-.8.88c-.182.373-.272.843-.272 1.408 0 .544.112 1.019.336 1.424.234.405.56.72.976.944.426.213.922.32 1.488.32a2.99 2.99 0 001.088-.192c.33-.128.688-.357 1.072-.688l.976 1.36a4.436 4.436 0 01-.992.688A5.952 5.952 0 0167.1 16a4.7 4.7 0 01-1.2.16zM71.324 16V7.568h1.936l.032 2.688-.272-.608a3 3 0 01.608-1.152c.288-.341.618-.608.992-.8a2.538 2.538 0 011.2-.304c.181 0 .352.016.512.048.17.032.31.07.416.112l-.528 2.16a1.836 1.836 0 00-.432-.16 2.104 2.104 0 00-.512-.064c-.267 0-.523.053-.768.16a1.882 1.882 0 00-.624.416 2.051 2.051 0 00-.432.64 2.098 2.098 0 00-.144.8V16h-1.984zM78.074 16V4.16h1.984V16h-1.984zM82.595 16V7.568h1.968V16h-1.968zm.96-10.224c-.395 0-.704-.096-.928-.288-.214-.203-.32-.485-.32-.848 0-.341.112-.619.336-.832.224-.213.528-.32.912-.32.405 0 .714.101.928.304.224.192.336.475.336.848 0 .33-.112.603-.336.816-.224.213-.534.32-.928.32zM87.058 16V7.568h1.92l.032 1.728-.368.192c.107-.384.315-.73.624-1.04.31-.32.677-.576 1.104-.768a3.167 3.167 0 011.312-.288c.64 0 1.174.128 1.6.384.438.256.763.64.976 1.152.224.512.336 1.152.336 1.92V16h-1.968v-5.008c0-.427-.059-.779-.176-1.056a1.17 1.17 0 00-.544-.624c-.245-.139-.544-.203-.896-.192-.288 0-.555.048-.8.144a1.796 1.796 0 00-.624.384c-.17.16-.31.347-.416.56a1.696 1.696 0 00-.144.704V16h-1.968z" fill="#000"/></svg>