<svg width="48" height="48" fill="none" xmlns="http://www.w3.org/2000/svg"><path d="M15.08 0h16.422c.546 0 .965 0 1.332.036 2.607.261 4.74 1.859 5.646 4.01H8.1c.907-2.151 3.04-3.749 5.648-4.01C14.11 0 14.528 0 15.079 0zM9.902 6.53c-3.27 0-5.952 2.015-6.847 4.687L3 11.385c.936-.288 1.913-.48 2.899-.607 2.54-.333 5.755-.333 9.486-.333h16.216c3.731 0 6.943 0 9.486.333.988.13 1.963.317 2.899.607l-.054-.168c-.894-2.672-3.576-4.686-6.85-4.686H9.904z" fill="#000"/><path fill-rule="evenodd" clip-rule="evenodd" d="M15.952 13.663h15.914c8.066 0 12.102 0 14.368 2.332 2.267 2.331 1.731 5.932.665 13.135L45.89 35.96c-.837 5.649-1.255 8.474-3.4 10.166-2.144 1.691-5.307 1.691-11.636 1.691h-13.89c-6.326 0-9.492 0-11.636-1.691-2.145-1.692-2.563-4.517-3.4-10.166l-1.01-6.83c-1.068-7.204-1.601-10.805.666-13.136 2.266-2.332 6.302-2.332 14.368-2.332zM14.346 38.37c0-.978.892-1.772 1.991-1.772h15.144c1.1 0 1.991.794 1.991 1.772s-.892 1.771-1.991 1.771H16.337c-1.1 0-1.991-.793-1.991-1.771z" fill="#000"/></svg>