<svg width="48" height="48" viewBox="0 0 48 48" fill="none" xmlns="http://www.w3.org/2000/svg">
<path d="M14.6053 8.12773C14.3598 8.02932 14.1366 7.88424 13.9486 7.70085C13.7606 7.51747 13.6115 7.29941 13.5099 7.05927L11.8796 3.43224C11.5745 2.85601 10.6967 2.85601 10.4087 3.43224L8.77671 7.06095C8.5557 7.53441 8.16716 7.91338 7.68299 8.12773L5.60182 9.00803C5.46491 9.07035 5.34903 9.16972 5.26782 9.29443C5.18662 9.41914 5.14348 9.56399 5.14348 9.71193C5.14348 9.85987 5.18662 10.0047 5.26782 10.1294C5.34903 10.2541 5.46491 10.3535 5.60182 10.4158L7.68299 11.2961C8.18528 11.4994 8.57957 11.8892 8.77671 12.3646L10.4087 16.0084C10.7139 16.5847 11.5916 16.5847 11.8796 16.0084L13.5116 12.3629C13.7276 11.8892 14.1219 11.5162 14.6053 11.2961L16.6865 10.4158C16.8234 10.3535 16.9393 10.2541 17.0205 10.1294C17.1017 10.0047 17.1449 9.85987 17.1449 9.71193C17.1449 9.56399 17.1017 9.41914 17.0205 9.29443C16.9393 9.16972 16.8234 9.07035 16.6865 9.00803L14.6053 8.12773ZM40.4125 19.0525C38.922 18.3979 37.7433 17.2097 37.1176 15.7312L32.2113 4.36125C32.0107 3.95343 31.6968 3.60934 31.3056 3.36854C30.9144 3.12774 30.4618 3 29.9998 3C29.5378 3 29.0852 3.12774 28.694 3.36854C28.3028 3.60934 27.9889 3.95343 27.7883 4.36125L22.8803 15.7312C22.2445 17.2026 21.0697 18.3874 19.5871 19.0525L13.3779 21.8077C11.5402 22.698 11.5402 25.302 13.3779 26.1924L19.5871 28.9475C21.077 29.603 22.2554 30.7909 22.882 32.2688L27.7883 43.6387C27.9889 44.0466 28.3028 44.3907 28.694 44.6315C29.0852 44.8723 29.5378 45 29.9998 45C30.4618 45 30.9144 44.8723 31.3056 44.6315C31.6968 44.3907 32.0107 44.0466 32.2113 43.6387L37.1193 32.2688C37.7551 30.7974 38.9299 29.6126 40.4125 28.9475L46.6217 26.1924C48.4594 25.302 48.4594 22.698 46.6217 21.8077L40.4125 19.0525ZM10.767 30.4343C11.0413 31.0928 11.5453 31.6035 12.1762 31.8992L14.8334 33.1171C15.013 33.2088 15.1636 33.347 15.2687 33.5168C15.3738 33.6865 15.4294 33.8812 15.4294 34.0798C15.4294 34.2783 15.3738 34.473 15.2687 34.6428C15.1636 34.8125 15.013 34.9507 14.8334 35.0424L12.1762 36.2604C11.5453 36.556 11.043 37.0835 10.767 37.7253L8.66186 42.7265C8.57779 42.9035 8.44391 43.0532 8.27597 43.1581C8.10803 43.263 7.91301 43.3188 7.71384 43.3188C7.51468 43.3188 7.31966 43.263 7.15172 43.1581C6.98377 43.0532 6.8499 42.9035 6.76583 42.7265L4.66238 37.7253C4.39575 37.0817 3.89309 36.5592 3.25322 36.2604L0.596052 35.0424C0.416355 34.9507 0.265763 34.8125 0.160668 34.6428C0.0555722 34.473 0 34.2783 0 34.0798C0 33.8812 0.0555722 33.6865 0.160668 33.5168C0.265763 33.347 0.416355 33.2088 0.596052 33.1171L3.25322 31.8992C3.88409 31.6035 4.38638 31.076 4.66238 30.4343L6.76755 25.433C6.85161 25.2561 6.98549 25.1063 7.15343 25.0014C7.32137 24.8965 7.51639 24.8408 7.71556 24.8408C7.91472 24.8408 8.10975 24.8965 8.27769 25.0014C8.44563 25.1063 8.5795 25.2561 8.66357 25.433L10.767 30.4343Z" fill="black"/>
</svg>
