<svg width="48" height="48" fill="none" xmlns="http://www.w3.org/2000/svg"><path d="M44.444 9.318H29.038L22.873 4.71A3.589 3.589 0 0020.74 4H10.667a3.56 3.56 0 00-2.514 1.038A3.54 3.54 0 007.11 7.545v3.546H3.556a3.56 3.56 0 00-2.515 1.038A3.54 3.54 0 000 14.636v24.819c0 .94.375 1.842 1.041 2.507A3.56 3.56 0 003.556 43H37.53a3.367 3.367 0 002.373-.982c.63-.628.984-1.479.985-2.366v-3.743h3.753a3.367 3.367 0 002.373-.982c.63-.627.984-1.478.985-2.366V12.864a3.54 3.54 0 00-1.041-2.507 3.56 3.56 0 00-2.515-1.039zm0 23.046H40.89v-12.41a3.54 3.54 0 00-1.042-2.506 3.56 3.56 0 00-2.514-1.039H21.927L15.762 11.8a3.589 3.589 0 00-2.133-.71h-2.962V7.546H20.74l6.638 4.964c.308.23.682.355 1.066.355h16v19.5z" fill="#000"/></svg>