<svg width="48" height="48" fill="none" xmlns="http://www.w3.org/2000/svg"><g clip-path="url(#prefix__clip0_1331_16028)"><path d="M.001 6h48v35h-48V6z" fill="#039"/><path d="M24.001 11.57l-.533 1.728.889.173L24 11.569z" fill="#FC0"/><path d="M24 11.57l.534 1.728-.889.173.356-1.902z" fill="#FC0"/><path d="M25.69 12.767l-1.853.03.111.882 1.743-.912z" fill="#FC0"/><path d="M25.69 12.767l-1.518 1.025-.45-.777 1.967-.248z" fill="#FC0"/><path d="M25.05 14.696l-.619-1.704-.82.365 1.44 1.34z" fill="#FC0"/><path d="M25.05 14.697L23.571 13.6l.61-.645.867 1.743z" fill="#FC0"/><path d="M22.311 12.767l1.854.03-.111.882-1.743-.912z" fill="#FC0"/><path d="M22.313 12.767l1.517 1.025.45-.777-1.967-.248z" fill="#FC0"/><path d="M22.954 14.697l.619-1.704.82.365-1.44 1.34z" fill="#FC0"/><path d="M22.955 14.698l1.477-1.098-.61-.645-.867 1.743zM24.002 32.31l-.533 1.728.889.173-.356-1.901z" fill="#FC0"/><path d="M24.002 32.31l.533 1.728-.889.173.356-1.901z" fill="#FC0"/><path d="M25.692 33.51l-1.854.029.111.882 1.742-.911z" fill="#FC0"/><path d="M25.69 33.509l-1.517 1.025-.45-.777 1.967-.248z" fill="#FC0"/><path d="M25.05 35.44l-.619-1.705-.82.365 1.44 1.34z" fill="#FC0"/><path d="M25.05 35.44l-1.478-1.098.61-.645.867 1.743z" fill="#FC0"/><path d="M22.313 33.51l1.854.029-.111.882-1.743-.911z" fill="#FC0"/><path d="M22.315 33.509l1.517 1.025.449-.777-1.966-.248z" fill="#FC0"/><path d="M22.955 35.44l.619-1.705.82.365-1.44 1.34z" fill="#FC0"/><path d="M22.956 35.44l1.477-1.098-.61-.645-.867 1.743zM13.336 21.94l-.533 1.729.889.173-.356-1.902z" fill="#FC0"/><path d="M13.336 21.94l.533 1.729-.889.173.356-1.902z" fill="#FC0"/><path d="M15.024 23.14l-1.854.029.111.882 1.743-.912z" fill="#FC0"/><path d="M15.022 23.139l-1.517 1.025-.45-.777 1.967-.248z" fill="#FC0"/><path d="M14.383 25.067l-.619-1.704-.82.365 1.44 1.34z" fill="#FC0"/><path d="M14.382 25.068l-1.477-1.098.61-.645.867 1.743z" fill="#FC0"/><path d="M11.646 23.14l1.854.029-.111.882-1.743-.912z" fill="#FC0"/><path d="M11.648 23.139l1.517 1.025.449-.777-1.966-.248z" fill="#FC0"/><path d="M12.288 25.067l.619-1.704.82.365-1.44 1.34z" fill="#FC0"/><path d="M12.289 25.068l1.477-1.098-.61-.645-.867 1.743zM17.753 16.168l1.477-1.099-.61-.644-.867 1.743z" fill="#FC0"/><path d="M17.751 16.167l.62-1.704.82.364-1.44 1.34z" fill="#FC0"/><path d="M17.112 14.234l1.522 1.026.446-.773-1.968-.253z" fill="#FC0"/><path d="M17.112 14.235l1.855.035-.11.879-1.745-.914z" fill="#FC0"/><path d="M18.805 13.04l-.536 1.727.88.169-.344-1.896z" fill="#FC0"/><path d="M18.806 13.04l.52 1.723-.88.176.36-1.899z" fill="#FC0"/><path d="M19.843 16.162l-1.475-1.089.618-.65.857 1.74z" fill="#FC0"/><path d="M19.843 16.162l-.608-1.702-.827.372 1.435 1.33z" fill="#FC0"/><path d="M20.49 14.23l-1.529 1.028-.441-.765 1.97-.264z" fill="#FC0"/><path d="M20.49 14.229l-1.856.045.103.873 1.754-.918zM15.89 20.012l-.62-1.704-.82.364 1.44 1.34z" fill="#FC0"/><path d="M15.889 20.012l-1.478-1.099.61-.645.868 1.744z" fill="#FC0"/><path d="M13.802 20.007l1.475-1.09-.619-.65-.856 1.74z" fill="#FC0"/><path d="M13.802 20.007l.608-1.702.827.371-1.435 1.33z" fill="#FC0"/><path d="M13.153 18.076l1.53 1.029.44-.765-1.97-.264z" fill="#FC0"/><path d="M13.153 18.075l1.856.046-.103.872-1.753-.918z" fill="#FC0"/><path d="M16.536 18.079l-1.522 1.026-.446-.773 1.968-.253z" fill="#FC0"/><path d="M16.536 18.08l-1.855.034.109.88 1.746-.914z" fill="#FC0"/><path d="M14.842 16.884l.536 1.728-.88.169.344-1.896z" fill="#FC0"/><path d="M14.84 16.885l-.52 1.723.881.176-.36-1.899zM16.535 28.477l-1.854.025.114.885 1.74-.91z" fill="#FC0"/><path d="M16.533 28.476L15.018 29.5l-.45-.78 1.965-.244z" fill="#FC0"/><path d="M15.896 30.406l-.629-1.706-.814.359 1.443 1.347z" fill="#FC0"/><path d="M15.894 30.407l-1.48-1.106.604-.64.876 1.746z" fill="#FC0"/><path d="M13.805 30.399l1.474-1.085-.621-.653-.853 1.738z" fill="#FC0"/><path d="M13.806 30.4l.603-1.702.83.375-1.434 1.327z" fill="#FC0"/><path d="M14.838 27.28l.539 1.725-.869.164.33-1.89z" fill="#FC0"/><path d="M14.835 27.281l-.506 1.716.872.18-.366-1.896z" fill="#FC0"/><path d="M13.154 28.468l1.857.047-.102.872-1.755-.919z" fill="#FC0"/><path d="M13.154 28.47l1.53 1.029.442-.765-1.972-.264zM20.392 31.957l-1.853.024.114.885 1.739-.91z" fill="#FC0"/><path d="M20.39 31.955l-1.514 1.024-.451-.78 1.965-.244z" fill="#FC0"/><path d="M19.756 33.887l-.629-1.705-.814.358 1.443 1.347z" fill="#FC0"/><path d="M19.754 33.889l-1.48-1.107.604-.64.876 1.747z" fill="#FC0"/><path d="M17.663 33.881l1.475-1.085-.622-.653-.853 1.738z" fill="#FC0"/><path d="M17.664 33.882l.604-1.701.83.374-1.434 1.327z" fill="#FC0"/><path d="M18.698 30.76l.54 1.727-.87.164.33-1.89z" fill="#FC0"/><path d="M18.695 30.763l-.506 1.716.873.18-.367-1.896z" fill="#FC0"/><path d="M17.013 31.948l1.856.047-.102.871-1.754-.918z" fill="#FC0"/><path d="M17.013 31.95l1.53 1.028.441-.764-1.971-.264zM34.669 21.94l.533 1.728-.889.173.356-1.902z" fill="#FC0"/><path d="M34.67 21.94l-.534 1.728.889.173-.356-1.902z" fill="#FC0"/><path d="M32.98 23.139l1.854.029-.111.882-1.743-.912z" fill="#FC0"/><path d="M32.98 23.138l1.518 1.025.449-.777-1.966-.248z" fill="#FC0"/><path d="M33.622 25.067l.619-1.705.82.365-1.44 1.34z" fill="#FC0"/><path d="M33.623 25.067L35.1 23.97l-.61-.645-.867 1.743z" fill="#FC0"/><path d="M36.358 23.137l-1.853.03.111.882 1.742-.912z" fill="#FC0"/><path d="M36.357 23.137l-1.517 1.025-.45-.777 1.967-.248z" fill="#FC0"/><path d="M35.717 25.066l-.619-1.705-.82.365 1.44 1.34z" fill="#FC0"/><path d="M35.716 25.066l-1.477-1.098.61-.645.867 1.743zM30.251 16.166l-1.477-1.099.61-.644.867 1.743z" fill="#FC0"/><path d="M30.253 16.165l-.62-1.704-.82.364 1.44 1.34z" fill="#FC0"/><path d="M30.894 14.231l-1.522 1.026-.446-.773 1.968-.253z" fill="#FC0"/><path d="M30.894 14.232l-1.855.035.11.879 1.745-.914z" fill="#FC0"/><path d="M29.2 13.039l.535 1.727-.88.169.344-1.896z" fill="#FC0"/><path d="M29.198 13.04l-.52 1.722.88.176-.36-1.899z" fill="#FC0"/><path d="M28.16 16.162l1.475-1.089-.618-.65-.857 1.74z" fill="#FC0"/><path d="M28.16 16.162l.608-1.702.827.372-1.435 1.33z" fill="#FC0"/><path d="M27.512 14.23l1.53 1.028.441-.765-1.97-.264z" fill="#FC0"/><path d="M27.512 14.229l1.857.045-.103.873-1.754-.918zM32.113 20.01l.62-1.704.82.364-1.44 1.34z" fill="#FC0"/><path d="M32.114 20.01l1.478-1.099-.61-.645-.868 1.744z" fill="#FC0"/><path d="M34.201 20.006l-1.475-1.089.619-.65.856 1.739z" fill="#FC0"/><path d="M34.201 20.006l-.608-1.702-.827.371 1.435 1.33z" fill="#FC0"/><path d="M34.85 18.074l-1.53 1.028-.44-.764 1.97-.264z" fill="#FC0"/><path d="M34.85 18.073l-1.856.046.103.872 1.753-.918z" fill="#FC0"/><path d="M31.468 18.077l1.522 1.026.446-.773-1.968-.253z" fill="#FC0"/><path d="M31.468 18.078l1.855.034-.109.88-1.746-.914z" fill="#FC0"/><path d="M33.162 16.884l-.536 1.727.88.168-.344-1.895z" fill="#FC0"/><path d="M33.163 16.884l.52 1.723-.88.176.36-1.899zM31.467 28.476l1.854.025-.114.885-1.74-.91z" fill="#FC0"/><path d="M31.47 28.475l1.514 1.024.45-.78-1.965-.244z" fill="#FC0"/><path d="M32.105 30.404l.629-1.706.814.359-1.443 1.347z" fill="#FC0"/><path d="M32.107 30.406l1.48-1.107-.604-.64-.876 1.747z" fill="#FC0"/><path d="M34.197 30.399l-1.474-1.085.621-.653.853 1.738z" fill="#FC0"/><path d="M34.197 30.4l-.604-1.702-.83.375 1.434 1.327z" fill="#FC0"/><path d="M33.163 27.278l-.539 1.726.869.164-.33-1.89z" fill="#FC0"/><path d="M33.166 27.28l.506 1.716-.872.18.366-1.896z" fill="#FC0"/><path d="M34.849 28.466l-1.857.047.102.872 1.755-.919z" fill="#FC0"/><path d="M34.849 28.468l-1.53 1.029-.442-.765 1.972-.264zM27.61 31.956l1.853.024-.114.885-1.74-.91z" fill="#FC0"/><path d="M27.612 31.954l1.514 1.024.45-.78-1.964-.244z" fill="#FC0"/><path d="M28.245 33.886l.628-1.707.815.36-1.443 1.346z" fill="#FC0"/><path d="M28.247 33.887l1.48-1.107-.604-.64-.876 1.747z" fill="#FC0"/><path d="M30.338 33.88l-1.475-1.086.622-.653.853 1.739z" fill="#FC0"/><path d="M30.337 33.88l-.604-1.701-.83.374 1.434 1.327z" fill="#FC0"/><path d="M29.305 30.758l-.54 1.726.87.164-.33-1.89z" fill="#FC0"/><path d="M29.308 30.76l.505 1.716-.872.18.367-1.896z" fill="#FC0"/><path d="M30.99 31.946l-1.857.047.102.872 1.754-.92z" fill="#FC0"/><path d="M30.99 31.948l-1.531 1.028-.441-.764 1.971-.264z" fill="#FC0"/></g><defs><clipPath id="prefix__clip0_1331_16028"><path fill="#fff" transform="translate(0 6)" d="M0 0h48v35H0z"/></clipPath></defs></svg>