<svg width="48" height="48" viewBox="0 0 48 48" fill="none" xmlns="http://www.w3.org/2000/svg">
<path d="M25.8126 4.71249C28.2193 2.98418 31.0111 2.12002 34.1638 2.12002C35.8967 2.12002 37.7979 2.5761 39.8677 3.53628C41.9374 4.47245 43.574 5.57665 44.7773 6.84888C47.2562 9.92144 48.2911 13.4981 47.9301 17.5788C47.545 21.6596 46.1973 24.8522 43.8628 27.1086L25.596 45.3279C25.1388 45.784 24.5612 46 23.8873 46C23.2134 46 22.6599 45.784 22.2026 45.3279C21.9801 45.1094 21.8054 44.8472 21.6894 44.5581C21.5734 44.2689 21.5187 43.9589 21.5287 43.6476C21.5287 42.9754 21.7453 42.3993 22.2026 41.9433L33.2493 30.9253C33.851 30.3972 33.851 29.8451 33.2493 29.245C32.6476 28.6448 32.0941 28.6448 31.5646 29.245L20.5179 40.263C20.2952 40.4867 20.0283 40.662 19.7342 40.7777C19.4401 40.8934 19.1251 40.947 18.8092 40.9351C18.1353 40.9351 17.5818 40.719 17.1245 40.263C16.902 40.0444 16.7272 39.7823 16.6113 39.4931C16.4953 39.204 16.4406 38.894 16.4506 38.5826C16.4506 37.9105 16.6672 37.3344 17.1245 36.8783L28.1712 25.8603C28.821 25.2602 28.821 24.6601 28.1712 24.06C27.6177 23.4599 27.0882 23.4599 26.4865 24.06L15.4398 35.198C15.2146 35.4184 14.9473 35.5914 14.6537 35.7068C14.3602 35.8223 14.0465 35.8778 13.7311 35.8702C13.0572 35.8702 12.4796 35.6541 11.9742 35.198C11.4929 34.742 11.2522 34.1898 11.2522 33.5177C11.2522 32.8456 11.5169 32.2455 12.0464 31.7174L23.1172 20.6754C23.7188 20.0753 23.7188 19.5232 23.1172 18.9951C22.5155 18.467 21.9379 18.467 21.4084 18.9951L10.2414 30.0611C9.71191 30.5412 9.15838 30.8052 8.5567 30.8052C7.88283 30.8052 7.30523 30.5652 6.87203 30.0611C6.41475 29.581 6.17409 29.0049 6.17409 28.3328C6.17409 27.6607 6.41475 27.1086 6.87203 26.6525C14.2365 19.2591 18.7851 14.7943 20.5179 13.138L29.0857 21.5876C30.0243 22.4757 31.1073 22.9318 32.431 22.9318C34.1157 22.9318 35.4394 22.2597 36.4261 20.9154C37.1 19.9313 37.3407 18.8511 37.1481 17.6508C36.9556 16.4506 36.4502 15.4424 35.6319 14.6023L25.8126 4.71249ZM30.7704 19.9073L20.5179 9.65739L3.4786 26.6525C1.45698 24.6121 0.301773 21.4915 0.0370376 17.2428C-0.227698 13.018 0.927512 9.34534 3.4786 6.27278C6.34255 3.44026 9.76005 2 13.7311 2C17.7262 2 21.1196 3.44026 23.8873 6.27278L34.1638 16.5226C34.6211 16.9787 34.8377 17.5308 34.8377 18.2029C34.8377 18.8751 34.6211 19.4512 34.1638 19.9073C33.7066 20.3393 33.153 20.5794 32.431 20.5794C31.7812 20.5794 31.2277 20.3393 30.7704 19.9073Z" fill="black"/>
</svg>
