<svg width="29" height="29" fill="none" xmlns="http://www.w3.org/2000/svg"><path fill="url(#prefix__paint0_linear_1254_8649)" d="M0 0h29v29H0z"/><path fill-rule="evenodd" clip-rule="evenodd" d="M22.554 23.379c.596-.58.894-1.372.894-2.375 0-.443-.014-.875-.043-1.297a13.033 13.033 0 00-.171-1.366 10.83 10.83 0 00-.325-1.36 6.523 6.523 0 00-.527-1.222 4.396 4.396 0 00-.759-1.015 3.185 3.185 0 00-1.047-.67 3.604 3.604 0 00-1.366-.251c-.081 0-.257.09-.526.27-.27.179-.568.38-.895.6-.326.222-.763.423-1.31.603s-1.098.269-1.653.269c-.556 0-1.107-.09-1.654-.27-.547-.18-.984-.38-1.31-.601-.327-.222-.625-.422-.895-.602-.269-.18-.444-.27-.526-.27-.498 0-.953.085-1.366.252-.412.167-.761.39-1.047.67-.286.28-.539.618-.76 1.015-.22.397-.395.804-.526 1.222-.13.418-.239.871-.325 1.36-.085.489-.142.944-.171 1.366-.029.422-.043.854-.043 1.297 0 1.003.298 1.794.894 2.375.596.58 1.388.871 2.376.871h10.705c.988 0 1.78-.29 2.376-.871zM18.15 13.215c.918-.94 1.378-2.074 1.378-3.402 0-1.329-.46-2.463-1.378-3.403C17.232 5.47 16.124 5 14.826 5c-1.299 0-2.407.47-3.326 1.41-.918.94-1.378 2.074-1.378 3.402 0 1.329.46 2.463 1.378 3.403.919.94 2.027 1.41 3.325 1.41 1.299 0 2.407-.47 3.326-1.41zm-4.585 4.781a.254.254 0 00.083.054l.26.11a.098.098 0 01.058.088.096.096 0 01-.058.089l-.26.11a.274.274 0 00-.137.134l-.205.457c-.036.072-.146.072-.184 0l-.205-.457a.25.25 0 00-.137-.134l-.26-.11a.098.098 0 01-.058-.089.098.098 0 01.057-.088l.261-.11a.273.273 0 00.137-.134l.205-.455c.036-.072.146-.072.184 0l.204.455c.013.03.032.057.055.08zm2.904 1.007a.794.794 0 00.413.416l.778.345c.23.112.23.438 0 .55l-.778.345a.81.81 0 00-.413.416l-.615 1.425a.304.304 0 01-.277.17.312.312 0 01-.277-.17l-.615-1.425a.796.796 0 00-.413-.416l-.778-.345a.305.305 0 010-.55l.778-.345a.809.809 0 00.413-.416l.615-1.425a.312.312 0 01.554 0l.615 1.425zm-3.126 2.026a.351.351 0 01-.176-.184l-.264-.626a.133.133 0 00-.238 0l-.263.626a.36.36 0 01-.177.184l-.333.153a.137.137 0 00-.075.12.134.134 0 00.075.121l.333.153c.08.037.143.102.177.183l.263.627a.13.13 0 00.119.074.13.13 0 00.119-.074l.264-.627a.36.36 0 01.176-.183l.333-.153a.138.138 0 00.075-.12.137.137 0 00-.075-.12l-.333-.154z" fill="#fff"/><defs><linearGradient id="prefix__paint0_linear_1254_8649" x1="2.446" y1="2.795" x2="25.855" y2="26.38" gradientUnits="userSpaceOnUse"><stop stop-color="#4867CD"/><stop offset="1" stop-color="#5A85EB"/></linearGradient></defs></svg>