<svg width="48" height="48" fill="none" xmlns="http://www.w3.org/2000/svg"><path d="M19.667 48c-1.192 0-2.212-.427-3.06-1.28-.848-.855-1.272-1.882-1.274-3.084v-6.545c-1.191 0-2.211-.427-3.059-1.28-.848-.855-1.273-1.882-1.274-3.084V4.364c0-1.2.425-2.227 1.274-3.081C13.124.429 14.144 0 15.334 0h17.333c1.191 0 2.212.428 3.061 1.283.85.855 1.273 1.882 1.272 3.08v28.364c0 1.2-.424 2.228-1.272 3.083-.848.855-1.868 1.282-3.061 1.28v6.546c0 1.2-.424 2.228-1.272 3.083-.848.855-1.869 1.282-3.062 1.281h-8.666zM24 25.09c1.806 0 3.34-.636 4.604-1.908 1.264-1.273 1.896-2.818 1.896-4.636 0-1.819-.632-3.364-1.896-4.637C27.34 12.636 25.806 12 24 12s-3.34.636-4.604 1.91c-1.264 1.272-1.896 2.817-1.896 4.636 0 1.818.632 3.363 1.896 4.636C20.66 24.455 22.194 25.09 24 25.09zm-4.333 18.546h8.666v-6.545h-8.666v6.545zM24 20.727c-.614 0-1.128-.21-1.543-.628-.414-.419-.622-.937-.624-1.553-.001-.617.207-1.135.624-1.554.418-.419.932-.628 1.543-.628a2.1 2.1 0 011.545.628c.419.419.626.937.622 1.553-.005.617-.213 1.136-.624 1.556-.412.42-.926.63-1.543.626z" fill="#000"/></svg>