<svg width="48" height="48" fill="none" xmlns="http://www.w3.org/2000/svg"><path d="M24.2 48l-.6-7.2H23c-5.68 0-10.5-1.98-14.46-5.94C4.58 30.9 2.6 26.08 2.6 20.4c0-5.68 1.98-10.5 5.94-14.46C12.5 1.98 17.32 0 23 0c2.84 0 5.49.53 7.95 1.589 2.462 1.059 4.622 2.519 6.48 4.38a20.614 20.614 0 014.378 6.48c1.06 2.459 1.59 5.11 1.592 7.951 0 3-.49 5.88-1.47 8.64-.978 2.76-2.32 5.32-4.022 7.68a34.148 34.148 0 01-6.06 6.42A37.442 37.442 0 0124.2 48zm-1.26-14.46c.68 0 1.26-.24 1.74-.72s.72-1.06.72-1.74c0-.68-.24-1.26-.72-1.74a2.37 2.37 0 00-1.74-.72c-.68 0-1.26.24-1.74.72a2.37 2.37 0 00-.72 1.74c0 .68.24 1.26.72 1.74s1.06.72 1.74.72zm-1.74-7.62h3.6c0-1.2.12-2.04.36-2.52s1-1.36 2.28-2.64c.72-.72 1.32-1.5 1.8-2.34.48-.84.72-1.74.72-2.7 0-2.04-.69-3.57-2.07-4.591-1.378-1.021-3.009-1.53-4.89-1.529-1.76 0-3.24.49-4.44 1.471-1.2.981-2.04 2.17-2.52 3.569l3.36 1.32c.2-.68.58-1.35 1.14-2.009.56-.659 1.38-.99 2.46-.991 1.08-.002 1.89.298 2.43.9.542.602.811 1.262.81 1.98 0 .68-.2 1.29-.6 1.831-.4.541-.88 1.09-1.44 1.649-1.4 1.2-2.25 2.15-2.55 2.851-.298.701-.449 1.95-.45 3.749z" fill="#000"/></svg>