<svg width="48" height="48" fill="none" xmlns="http://www.w3.org/2000/svg"><path d="M45.057 28.771c-.675 3.38-5.884 7.097-11.985 7.816-3.159.36-6.27.72-9.573.576-5.426-.264-9.646-1.295-9.646-1.295v1.486c.772 5.323 5.353 5.635 9.718 5.803 4.389.12 8.295-1.103 8.295-1.103l.194 3.956s-3.087 1.63-8.561 1.942c-3.014.168-6.776-.072-11.141-1.2C2.905 44.236 1.265 34.19 1.024 23.977L1 15.752C1 5.347 7.824 2.302 7.824 2.302 11.321.719 17.254 0 23.426 0h.145c6.173 0 12.106.72 15.602 2.302 0 0 6.825 3.045 6.825 13.45 0 0 .096 7.696-.94 13.019zm-7.09-12.204c0-2.59-.723-4.58-2.05-6.137-1.35-1.511-3.134-2.302-5.377-2.302-2.556 0-4.51.983-5.835 2.949l-1.206 2.11-1.206-2.11c-1.35-1.966-3.28-2.95-5.86-2.95-2.218 0-4.003.792-5.377 2.303-1.327 1.558-2.026 3.548-2.026 6.137V29.18h5.064V16.927c0-2.541 1.085-3.884 3.28-3.884 2.411 0 3.617 1.558 3.617 4.627v6.69h4.992v-6.69c0-3.069 1.205-4.627 3.64-4.627 2.171 0 3.256 1.343 3.256 3.884v12.252h5.089V16.567z" fill="#000"/></svg>