<svg width="48" height="48" fill="none" xmlns="http://www.w3.org/2000/svg"><path d="M9.75 48h28.5c1.26 0 2.468-.506 3.359-1.406A4.826 4.826 0 0043 43.2V4.8c0-1.273-.5-2.494-1.391-3.394A4.725 4.725 0 0038.25 0H9.75C8.49 0 7.282.506 6.391 1.406A4.826 4.826 0 005 4.8v38.4c0 1.273.5 2.494 1.391 3.394.891.9 2.1 1.406 3.359 1.406zm7.125-7.2h-4.75V36h4.75v4.8zm0-9.6h-4.75v-4.8h4.75v4.8zm0-9.6h-4.75v-4.8h4.75v4.8zm9.5 19.2h-4.75V36h4.75v4.8zm0-9.6h-4.75v-4.8h4.75v4.8zm0-9.6h-4.75v-4.8h4.75v4.8zm9.5 19.2h-4.75V26.4h4.75v14.4zm0-19.2h-4.75v-4.8h4.75v4.8zM9.75 4.8h28.5V12H9.75V4.8z" fill="#000"/></svg>