<svg width="109" height="23" fill="none" xmlns="http://www.w3.org/2000/svg"><path d="M10.326 18.18c-.96 0-1.836-.162-2.628-.486a6.23 6.23 0 01-2.07-1.368 6.23 6.23 0 01-1.368-2.07c-.324-.792-.486-1.662-.486-2.61s.162-1.818.486-2.61a6.23 6.23 0 011.368-2.07 6.23 6.23 0 012.07-1.368c.792-.324 1.662-.486 2.61-.486s1.818.162 2.61.486a6.23 6.23 0 012.07 1.368 6.006 6.006 0 011.35 2.07c.324.792.486 1.662.486 2.61 0 .936-.162 1.806-.486 2.61a6.006 6.006 0 01-1.35 2.07 6.23 6.23 0 01-2.07 1.368 6.78 6.78 0 01-2.592.486zm-.018-2.88c.492 0 .942-.09 1.35-.27.42-.18.78-.432 1.08-.756.312-.336.552-.726.72-1.17.168-.444.252-.93.252-1.458 0-.528-.084-1.014-.252-1.458a3.347 3.347 0 00-.72-1.152c-.3-.336-.66-.594-1.08-.774a3.308 3.308 0 00-1.35-.27c-.492 0-.948.09-1.368.27-.408.18-.768.438-1.08.774a3.347 3.347 0 00-.72 1.152c-.156.444-.234.93-.234 1.458 0 .528.078 1.02.234 1.476a3.347 3.347 0 001.8 1.908c.42.18.876.27 1.368.27zm8.577 6.66V8.442h2.736l.108 2.142-.54-.162c.084-.396.288-.756.612-1.08a3.505 3.505 0 011.224-.774 4.182 4.182 0 011.584-.306c.816 0 1.542.216 2.178.648.636.42 1.134 1.002 1.494 1.746.372.732.558 1.584.558 2.556 0 .96-.186 1.812-.558 2.556a4.345 4.345 0 01-1.512 1.764c-.636.42-1.368.63-2.196.63-.54 0-1.056-.102-1.548-.306a3.636 3.636 0 01-1.242-.828c-.336-.348-.558-.726-.666-1.134l.666-.252v6.318h-2.898zm4.986-6.228c.432 0 .81-.102 1.134-.306.324-.216.576-.51.756-.882.18-.372.27-.816.27-1.332 0-.504-.09-.942-.27-1.314a2.027 2.027 0 00-.756-.882c-.312-.216-.69-.324-1.134-.324-.444 0-.828.102-1.152.306a2.027 2.027 0 00-.756.882c-.18.384-.27.828-.27 1.332 0 .516.09.96.27 1.332.18.372.432.666.756.882.324.204.708.306 1.152.306zm11.434 2.448c-1.056 0-1.974-.21-2.754-.63a4.715 4.715 0 01-1.818-1.746c-.432-.744-.648-1.59-.648-2.538 0-.732.12-1.404.36-2.016.24-.612.576-1.14 1.008-1.584a4.344 4.344 0 011.53-1.044 5.016 5.016 0 011.962-.378c.672 0 1.284.12 1.836.36.564.24 1.05.576 1.458 1.008.408.432.72.942.936 1.53.216.588.312 1.23.288 1.926l-.018.774H31.83l-.414-1.62h5.688l-.306.342v-.36a1.51 1.51 0 00-.288-.792 1.577 1.577 0 00-.63-.558 1.985 1.985 0 00-.9-.198c-.468 0-.87.096-1.206.288-.324.18-.57.45-.738.81-.168.348-.252.78-.252 1.296 0 .528.108.99.324 1.386.228.384.552.684.972.9.432.216.942.324 1.53.324.408 0 .768-.06 1.08-.18.324-.12.672-.324 1.044-.612l1.35 1.908a5.396 5.396 0 01-1.188.792 5.73 5.73 0 01-1.296.45 5.326 5.326 0 01-1.296.162zm5.992-.18V8.442h2.736l.09 1.944-.575.216c.131-.432.365-.822.701-1.17.348-.36.762-.648 1.242-.864.48-.216.984-.324 1.513-.324.72 0 1.326.15 1.818.45.491.288.863.726 1.115 1.314.253.576.379 1.284.379 2.124V18h-2.899v-5.634c0-.384-.053-.702-.162-.954a1.095 1.095 0 00-.504-.558c-.215-.132-.485-.192-.81-.18a1.92 1.92 0 00-.702.126 1.406 1.406 0 00-.557.342 1.737 1.737 0 00-.379.504 1.555 1.555 0 00-.125.63V18H41.297z" fill="url(#prefix__paint0_linear_1254_8653)"/><path d="M53.03 18V5.4h2.735l4.59 7.47-1.962-.018L63.037 5.4h2.628V18h-2.97v-3.924c0-1.08.024-2.052.072-2.916.06-.864.156-1.722.288-2.574l.342.936-3.492 5.418h-1.188l-3.42-5.382.342-.972c.132.804.222 1.632.27 2.484.06.84.09 1.842.09 3.006V18h-2.97zm19.024.162c-.804 0-1.524-.21-2.16-.63-.624-.432-1.122-1.02-1.494-1.764-.372-.756-.558-1.608-.558-2.556 0-.972.186-1.83.558-2.574.372-.744.882-1.326 1.53-1.746.648-.432 1.386-.648 2.214-.648.456 0 .87.066 1.242.198.384.132.72.318 1.008.558.288.228.534.498.738.81.204.3.354.624.45.972l-.594-.072V8.442h2.862V18h-2.916v-2.304l.648-.018a3.068 3.068 0 01-.468.954c-.216.3-.48.564-.792.792-.312.228-.66.408-1.044.54a3.74 3.74 0 01-1.224.198zm.792-2.43c.444 0 .828-.102 1.152-.306.324-.204.576-.492.756-.864.18-.384.27-.834.27-1.35 0-.516-.09-.96-.27-1.332a2.027 2.027 0 00-.756-.882c-.324-.216-.708-.324-1.152-.324-.432 0-.81.108-1.134.324a2.072 2.072 0 00-.738.882c-.18.372-.27.816-.27 1.332 0 .516.09.966.27 1.35.18.372.426.66.738.864.324.204.702.306 1.134.306zM81.183 18V6.03h2.88V18h-2.88zm-1.692-7.038v-2.52h6.426v2.52h-6.426zM92.03 18.18c-1.056 0-1.974-.21-2.754-.63a4.715 4.715 0 01-1.818-1.746c-.432-.744-.648-1.59-.648-2.538 0-.732.12-1.404.36-2.016.24-.612.576-1.14 1.008-1.584a4.344 4.344 0 011.53-1.044 5.016 5.016 0 011.962-.378c.672 0 1.284.12 1.836.36.564.24 1.05.576 1.458 1.008.408.432.72.942.936 1.53.216.588.312 1.23.288 1.926l-.018.774h-7.614l-.414-1.62h5.688l-.306.342v-.36a1.51 1.51 0 00-.288-.792 1.577 1.577 0 00-.63-.558 1.985 1.985 0 00-.9-.198c-.468 0-.87.096-1.206.288-.324.18-.57.45-.738.81-.168.348-.252.78-.252 1.296 0 .528.108.99.324 1.386.228.384.552.684.972.9.432.216.942.324 1.53.324.408 0 .768-.06 1.08-.18.324-.12.672-.324 1.044-.612l1.35 1.908a5.396 5.396 0 01-1.188.792 5.73 5.73 0 01-1.296.45 5.326 5.326 0 01-1.296.162zm9.215 0c-.936 0-1.764-.15-2.484-.45-.708-.3-1.272-.702-1.692-1.206l1.746-1.512c.372.372.792.648 1.26.828.468.168.912.252 1.332.252.168 0 .318-.018.45-.054.132-.036.24-.084.324-.144a.784.784 0 00.216-.234.714.714 0 00.072-.324.62.62 0 00-.324-.558 3.498 3.498 0 00-.54-.216c-.252-.084-.576-.18-.972-.288a8.804 8.804 0 01-1.476-.504 3.839 3.839 0 01-1.008-.702 2.876 2.876 0 01-.558-.828 2.654 2.654 0 01-.198-1.044c0-.444.102-.846.306-1.206a3.3 3.3 0 01.846-.936 3.87 3.87 0 011.224-.594 4.868 4.868 0 011.44-.216c.528 0 1.032.06 1.512.18s.924.288 1.332.504c.42.216.792.474 1.116.774l-1.512 1.692a3.771 3.771 0 00-.738-.54c-.264-.168-.54-.3-.828-.396a2.523 2.523 0 00-.792-.144c-.18 0-.342.018-.486.054a.799.799 0 00-.342.144.577.577 0 00-.216.234.694.694 0 00.018.648.89.89 0 00.288.27c.12.072.312.156.576.252.264.084.624.192 1.08.324.564.156 1.05.33 1.458.522.408.192.732.42.972.684.192.204.336.444.432.72.096.264.144.552.144.864a2.72 2.72 0 01-.522 1.638c-.336.468-.804.84-1.404 1.116-.6.264-1.284.396-2.052.396z" fill="#000"/><defs><linearGradient id="prefix__paint0_linear_1254_8653" x1="11.687" y1="2.217" x2="19.532" y2="37.612" gradientUnits="userSpaceOnUse"><stop stop-color="#4867CD"/><stop offset="1" stop-color="#5A85EB"/></linearGradient></defs></svg>