<svg width="48" height="48" fill="none" xmlns="http://www.w3.org/2000/svg"><path d="M18.24.701l.54 2.182a21.694 21.694 0 00-6.03 2.494L11.595 3.45A23.905 23.905 0 0118.24.7zm11.52 0l-.54 2.182a21.694 21.694 0 016.03 2.494l1.163-1.927A23.906 23.906 0 0029.76.7zM3.45 11.594a23.905 23.905 0 00-2.749 6.644l2.183.54a21.694 21.694 0 012.494-6.029L3.45 11.594zm-1.2 12.404c0-1.09.081-2.18.244-3.259L.27 20.402a24.075 24.075 0 000 7.192l2.224-.337a21.749 21.749 0 01-.244-3.259zm34.155 20.549l-1.155-1.928c-1.87 1.13-3.9 1.97-6.022 2.494l.54 2.182a23.905 23.905 0 006.637-2.748zm9.345-20.549c0 1.09-.08 2.18-.244 3.259l2.224.337c.36-2.384.36-4.808 0-7.192l-2.224.338c.163 1.078.245 2.167.244 3.258zm1.549 5.76l-2.183-.54a21.692 21.692 0 01-2.493 6.03l1.927 1.162a23.906 23.906 0 002.749-6.652zm-20.04 15.748c-2.16.325-4.357.325-6.518 0l-.337 2.224c2.384.36 4.808.36 7.192 0l-.337-2.224zm14.25-8.605a21.825 21.825 0 01-4.609 4.604l1.335 1.811a24.038 24.038 0 005.085-5.07l-1.811-1.345zM36.9 6.49a21.824 21.824 0 014.609 4.608l1.811-1.35a24.038 24.038 0 00-5.07-5.07L36.9 6.492zM6.491 11.099a21.824 21.824 0 014.61-4.608L9.75 4.68a24.037 24.037 0 00-5.07 5.07l1.81 1.349zm38.06.495l-1.928 1.155c1.13 1.87 1.97 3.9 2.493 6.022l2.183-.54a23.905 23.905 0 00-2.749-6.637zm-23.81-9.1a21.9 21.9 0 016.518 0L27.596.27a24.094 24.094 0 00-7.192 0l.337 2.224zM7.646 43.913L3 44.997l1.084-4.647-2.19-.513L.81 44.483a2.25 2.25 0 002.704 2.703l4.642-1.065-.51-2.208zM2.363 37.83l2.19.51.75-3.221a21.657 21.657 0 01-2.42-5.902l-2.182.54a23.812 23.812 0 002.213 5.703l-.551 2.37zm10.5 4.874l-3.222.75.51 2.19 2.37-.551a23.813 23.813 0 005.704 2.212l.54-2.182a21.655 21.655 0 01-5.887-2.434l-.015.015zM24 4.5A19.5 19.5 0 007.5 34.373l-1.875 7.998 7.999-1.874A19.501 19.501 0 0042.42 17.555 19.5 19.5 0 0024 4.5z" fill="#000"/></svg>