<svg width="48" height="48" viewBox="0 0 48 48" fill="none" xmlns="http://www.w3.org/2000/svg">
<path d="M44.3077 4H3.69231C2.71305 4 1.77389 4.38312 1.08145 5.06507C0.38901 5.74702 0 6.67194 0 7.63636V40.3636C0 41.3281 0.38901 42.253 1.08145 42.9349C1.77389 43.6169 2.71305 44 3.69231 44H44.3077C45.287 44 46.2261 43.6169 46.9185 42.9349C47.611 42.253 48 41.3281 48 40.3636V7.63636C48 6.67194 47.611 5.74702 46.9185 5.06507C46.2261 4.38312 45.287 4 44.3077 4ZM15.8769 28C16.2686 28.2893 16.5276 28.72 16.5968 29.1974C16.6661 29.6748 16.5399 30.1597 16.2462 30.5455C15.9524 30.9312 15.515 31.1863 15.0303 31.2545C14.5456 31.3227 14.0532 31.1984 13.6615 30.9091L6.27692 25.4545C6.04764 25.2852 5.86154 25.0656 5.73337 24.8131C5.60519 24.5607 5.53846 24.2823 5.53846 24C5.53846 23.7177 5.60519 23.4394 5.73337 23.1869C5.86154 22.9344 6.04764 22.7148 6.27692 22.5455L13.6615 17.0909C14.0532 16.8016 14.5456 16.6774 15.0303 16.7455C15.515 16.8137 15.9524 17.0688 16.2462 17.4545C16.5399 17.8403 16.6661 18.3252 16.5968 18.8026C16.5276 19.2799 16.2686 19.7107 15.8769 20L10.4608 24L15.8769 28ZM29.4669 11.7727L22.0823 37.2273C22.0194 37.4609 21.9098 37.6799 21.7599 37.8713C21.61 38.0627 21.4229 38.2228 21.2095 38.3421C20.996 38.4615 20.7606 38.5377 20.5168 38.5664C20.2731 38.5951 20.0261 38.5756 19.7901 38.5091C19.5541 38.4426 19.334 38.3305 19.1425 38.1792C18.9511 38.0279 18.7922 37.8406 18.6752 37.6281C18.5581 37.4156 18.4853 37.1823 18.4609 36.9418C18.4365 36.7013 18.461 36.4583 18.5331 36.2273L25.9177 10.7727C26.0596 10.3176 26.3772 9.93543 26.8021 9.70838C27.2271 9.48132 27.7255 9.4275 28.1903 9.55845C28.6551 9.68941 29.0492 9.99471 29.2879 10.4087C29.5266 10.8228 29.5909 11.3125 29.4669 11.7727ZM41.7231 25.4545L34.3385 30.9091C33.9468 31.1984 33.4544 31.3227 32.9697 31.2545C32.485 31.1863 32.0476 30.9312 31.7538 30.5455C31.4601 30.1597 31.3339 29.6748 31.4032 29.1974C31.4724 28.72 31.7314 28.2893 32.1231 28L37.5392 24L32.1231 20C31.9291 19.8567 31.7657 19.6773 31.6422 19.4718C31.5187 19.2664 31.4375 19.039 31.4032 18.8026C31.3689 18.5662 31.3822 18.3255 31.4424 18.0942C31.5025 17.8629 31.6084 17.6456 31.7538 17.4545C31.8993 17.2635 32.0816 17.1026 32.2902 16.981C32.4988 16.8593 32.7297 16.7793 32.9697 16.7455C33.2097 16.7118 33.4541 16.7249 33.6889 16.7842C33.9238 16.8434 34.1445 16.9476 34.3385 17.0909L41.7231 22.5455C41.9524 22.7148 42.1385 22.9344 42.2666 23.1869C42.3948 23.4394 42.4615 23.7177 42.4615 24C42.4615 24.2823 42.3948 24.5607 42.2666 24.8131C42.1385 25.0656 41.9524 25.2852 41.7231 25.4545Z" fill="black"/>
</svg>
