<svg width="48" height="48" fill="none" xmlns="http://www.w3.org/2000/svg"><g clip-path="url(#prefix__clip0_1391_20086)"><path d="M46.222 6.727L40.324.762A2.709 2.709 0 0038.444 0c-.7 0-1.374.273-1.881.762l-5.244 5.32H3.188a3.17 3.17 0 00-2.254.944A3.243 3.243 0 000 9.306v35.47c0 .855.336 1.675.934 2.28A3.17 3.17 0 003.188 48h35.064a3.17 3.17 0 002.255-.944 3.244 3.244 0 00.933-2.28V15.367l4.782-4.836A2.708 2.708 0 0047 8.629c0-.713-.28-1.397-.778-1.902zM23.637 28.863l-6.678 1.5 1.593-6.692L33.774 8.242l5.148 5.208-15.285 15.413zm17.006-17.251l-5.148-5.208 2.949-2.982 5.148 5.207-2.949 2.983z" fill="#000"/></g><defs><clipPath id="prefix__clip0_1391_20086"><path fill="#fff" d="M0 0h48v48H0z"/></clipPath></defs></svg>