<svg width="48" height="48" fill="none" xmlns="http://www.w3.org/2000/svg"><path fill-rule="evenodd" clip-rule="evenodd" d="M46.665 22.467c-2.117-11.823-6.85-15.31-9.367-15.31-3.929 0-4.937 2.921-13.298 3.02-8.362-.099-9.37-3.02-13.299-3.02-2.517 0-7.253 3.487-9.37 15.31C.125 29.216-1.185 39.29 1.937 40.5c3.886 1.505 5.204-2.258 9.47-5.438C15.74 31.839 17.818 31.08 24 31.08c6.182 0 8.26.759 12.593 3.982 4.267 3.178 5.584 6.943 9.47 5.438 3.122-1.21 1.812-11.282.602-18.033zM14.4 24a4.8 4.8 0 110-9.6 4.8 4.8 0 010 9.6zm16.8 0a2.4 2.4 0 110-4.8 2.4 2.4 0 010 4.8zm4.8-4.8a2.4 2.4 0 110-4.8 2.4 2.4 0 010 4.8z" fill="#000"/></svg>