<svg width="48" height="48" fill="none" xmlns="http://www.w3.org/2000/svg"><path d="M10.91 41c-1.82 0-3.365-.638-4.637-1.914C5 37.81 4.363 36.26 4.363 34.438H0V10.375c0-1.203.428-2.233 1.283-3.089C2.138 6.43 3.165 6.001 4.363 6H34.91v8.75h6.546L48 23.5v10.938h-4.364c0 1.822-.636 3.372-1.909 4.648C40.455 40.362 38.91 41 37.091 41s-3.364-.638-4.636-1.914c-1.273-1.276-1.91-2.826-1.91-4.648h-13.09c0 1.822-.637 3.372-1.91 4.648C14.274 40.362 12.728 41 10.91 41zm0-4.375c.617 0 1.136-.21 1.555-.63.419-.42.627-.94.626-1.557-.002-.619-.211-1.138-.628-1.558-.418-.42-.936-.63-1.554-.63s-1.136.21-1.553.63c-.418.42-.627.94-.629 1.557-.001.619.208 1.139.629 1.56.42.422.938.63 1.553.628zm26.18 0c.62 0 1.138-.21 1.556-.63.42-.42.628-.94.627-1.557-.002-.619-.211-1.138-.629-1.558-.417-.42-.935-.63-1.553-.63-.618 0-1.136.21-1.553.63-.418.42-.627.94-.629 1.557-.001.619.208 1.139.629 1.56.42.422.938.63 1.553.628zm-2.18-10.938h9.272l-4.91-6.562H34.91v6.563z" fill="#000"/></svg>