<svg width="48" height="48" fill="none" xmlns="http://www.w3.org/2000/svg"><g clip-path="url(#prefix__clip0_1483_16238)"><path d="M10.22 30.27a5.003 5.003 0 01-4.99 4.993A5.005 5.005 0 01.236 30.27a5.006 5.006 0 014.994-4.994h4.991v4.994zm2.517 0a5.006 5.006 0 014.993-4.995 5.006 5.006 0 014.994 4.994v12.5a5.006 5.006 0 01-4.994 4.995 5.006 5.006 0 01-4.993-4.994v-12.5z" fill="#DE1C59"/><path d="M17.73 10.22a5.003 5.003 0 01-4.993-4.99A5.005 5.005 0 0117.73.236a5.006 5.006 0 014.994 4.994v4.991H17.73zm0 2.517a5.006 5.006 0 014.994 4.993 5.005 5.005 0 01-4.994 4.994H5.23A5.005 5.005 0 01.236 17.73a5.006 5.006 0 014.994-4.993h12.5z" fill="#35C5F0"/><path d="M37.779 17.73a5.003 5.003 0 014.99-4.993 5.006 5.006 0 014.995 4.993 5.006 5.006 0 01-4.994 4.994h-4.991V17.73zm-2.516 0a5.006 5.006 0 01-4.994 4.994 5.006 5.006 0 01-4.994-4.994V5.23A5.005 5.005 0 0130.27.236a5.006 5.006 0 014.994 4.994v12.5z" fill="#2EB57D"/><path d="M30.27 37.779a5.003 5.003 0 014.993 4.99 5.006 5.006 0 01-4.994 4.995 5.006 5.006 0 01-4.994-4.994v-4.991h4.994zm0-2.516a5.006 5.006 0 01-4.995-4.994 5.006 5.006 0 014.994-4.994h12.5a5.006 5.006 0 014.995 4.994 5.006 5.006 0 01-4.994 4.994h-12.5z" fill="#EBB02E"/></g><defs><clipPath id="prefix__clip0_1483_16238"><path fill="#fff" d="M0 0h48v48H0z"/></clipPath></defs></svg>