<svg width="48" height="48" viewBox="0 0 48 48" fill="none" xmlns="http://www.w3.org/2000/svg">
<path d="M30.6096 19.1111C32.928 19.1111 34.8096 21.0276 34.8096 23.3889V34.9976C34.8096 37.9156 33.6715 40.7141 31.6457 42.7775C29.6198 44.8408 26.8722 46 24.0072 46C21.1422 46 18.3946 44.8408 16.3688 42.7775C14.3429 40.7141 13.2048 37.9156 13.2048 34.9976V23.3889C13.2048 21.0276 15.084 19.1111 17.4048 19.1111H30.6096ZM12.3144 19.1111C11.4472 20.169 10.9269 21.4768 10.8264 22.8511L10.8024 23.3889V34.9976C10.8024 37.068 11.2632 39.0284 12.084 40.7787C11.2904 40.9987 10.4624 41.1095 9.6 41.1111C8.33911 41.1111 7.09057 40.8581 5.92568 40.3666C4.7608 39.8751 3.7024 39.1546 2.81093 38.2464C1.91945 37.3382 1.21237 36.26 0.730068 35.0734C0.247764 33.8869 -0.000314923 32.6151 3.00027e-07 31.3309V23.3889C3.9671e-05 22.3153 0.396411 21.281 1.11043 20.4913C1.82445 19.7015 2.80392 19.2141 3.8544 19.1258L4.2 19.1111H12.3144ZM35.7 19.1111H43.8C46.1184 19.1111 48 21.0276 48 23.3889V31.3333C48.0003 32.8322 47.6623 34.311 47.0121 35.6557C46.3619 37.0003 45.4169 38.1746 44.2502 39.088C43.0834 40.0014 41.726 40.6293 40.283 40.9233C38.84 41.2173 37.35 41.1695 35.928 40.7836C36.648 39.2484 37.0896 37.5569 37.188 35.7676L37.2096 34.9976V23.3889C37.2096 21.7633 36.6456 20.2722 35.7 19.1111ZM24 2C25.9096 2 27.7409 2.77262 29.0912 4.14788C30.4414 5.52315 31.2 7.38841 31.2 9.33333C31.2 11.2783 30.4414 13.1435 29.0912 14.5188C27.7409 15.8941 25.9096 16.6667 24 16.6667C22.0904 16.6667 20.2591 15.8941 18.9088 14.5188C17.5586 13.1435 16.8 11.2783 16.8 9.33333C16.8 7.38841 17.5586 5.52315 18.9088 4.14788C20.2591 2.77262 22.0904 2 24 2ZM39.6 4.44444C41.1913 4.44444 42.7174 5.08829 43.8426 6.23435C44.9679 7.3804 45.6 8.93479 45.6 10.5556C45.6 12.1763 44.9679 13.7307 43.8426 14.8768C42.7174 16.0228 41.1913 16.6667 39.6 16.6667C38.0087 16.6667 36.4826 16.0228 35.3574 14.8768C34.2321 13.7307 33.6 12.1763 33.6 10.5556C33.6 8.93479 34.2321 7.3804 35.3574 6.23435C36.4826 5.08829 38.0087 4.44444 39.6 4.44444ZM8.4 4.44444C9.9913 4.44444 11.5174 5.08829 12.6426 6.23435C13.7679 7.3804 14.4 8.93479 14.4 10.5556C14.4 12.1763 13.7679 13.7307 12.6426 14.8768C11.5174 16.0228 9.9913 16.6667 8.4 16.6667C6.8087 16.6667 5.28258 16.0228 4.15736 14.8768C3.03214 13.7307 2.4 12.1763 2.4 10.5556C2.4 8.93479 3.03214 7.3804 4.15736 6.23435C5.28258 5.08829 6.8087 4.44444 8.4 4.44444Z" fill="black"/>
</svg>
