<svg width="48" height="48" fill="none" xmlns="http://www.w3.org/2000/svg"><g clip-path="url(#prefix__clip0_1387_17162)"><path d="M30.5 9a4.5 4.5 0 100-9 4.5 4.5 0 000 9zM15.658 29.763l-1.387 3.236H8a3 3 0 000 6h7.26a4.49 4.49 0 004.136-2.727l.824-1.924-1-.59c-1.624-.96-2.818-2.379-3.562-3.995zM41 20.999h-4.128l-2.443-4.992c-1.172-2.395-3.323-4.147-5.792-4.776L21.973 9.25a8.962 8.962 0 00-7.578 1.607l-3.72 2.851a3 3 0 003.65 4.76l3.722-2.85c.72-.552 1.635-.75 2.37-.576l1.377.41-3.512 8.193a6.016 6.016 0 002.466 7.529l7.967 4.703-2.575 8.225a3 3 0 105.725 1.792l2.966-9.474a4.519 4.519 0 00-2.029-5.099l-5.74-3.388 2.935-7.339 1.9 3.884a4.528 4.528 0 004.041 2.521H41A3 3 0 0041 21z" fill="#000"/></g><defs><clipPath id="prefix__clip0_1387_17162"><path fill="#fff" transform="translate(5)" d="M0 0h39v48H0z"/></clipPath></defs></svg>