<svg width="48" height="48" fill="none" xmlns="http://www.w3.org/2000/svg"><g clip-path="url(#prefix__clip0_1319_10315)"><path d="M5.184 29.11c0 1.844.402 3.253.928 4.107a3.177 3.177 0 002.766 1.59c1.352 0 2.588-.335 4.972-3.645 1.91-2.652 4.16-6.367 5.676-8.712l2.563-3.954c1.782-2.746 3.84-5.799 6.207-7.875 1.928-1.682 4.009-2.62 6.104-2.62 3.517 0 6.867 2.046 9.431 5.882 2.806 4.202 4.173 9.495 4.173 14.957 0 3.246-.638 5.632-1.723 7.517-1.046 1.823-3.096 3.644-6.533 3.644v-5.194c2.943 0 3.672-2.714 3.672-5.82 0-4.426-1.028-9.339-3.293-12.849-1.608-2.49-3.69-4.01-5.983-4.01-2.478 0-4.473 1.876-6.715 5.222-1.192 1.777-2.415 3.944-3.789 6.388l-1.512 2.68c-3.038 5.407-3.808 6.639-5.327 8.67-2.657 3.573-4.93 4.913-7.923 4.913-3.55 0-5.796-1.543-7.178-3.868C.557 34.237-.001 31.75-.001 28.918l5.185.193z" fill="#0081FB"/><path d="M4.087 14.25c2.377-3.677 5.807-6.249 9.742-6.249 2.278 0 4.543.67 6.908 2.615 2.588 2.12 5.342 5.61 8.785 11.361l1.234 2.064c2.978 4.98 4.674 7.54 5.664 8.75 1.275 1.55 2.17 2.01 3.328 2.01 2.943 0 3.672-2.715 3.672-5.82l4.574-.145c0 3.247-.638 5.633-1.723 7.518C45.235 38.18 43.185 40 39.748 40c-2.136 0-4.03-.466-6.123-2.448-1.609-1.521-3.49-4.223-4.937-6.653l-4.305-7.217c-2.16-3.622-4.141-6.323-5.288-7.54-1.235-1.322-2.82-2.91-5.35-2.91-2.048 0-3.787 1.443-5.243 3.65L4.087 14.25z" fill="url(#prefix__paint0_linear_1319_10315)"/><path d="M13.745 13.233c-2.048 0-3.787 1.443-5.243 3.65C6.444 20 5.184 24.643 5.184 29.11c0 1.843.402 3.252.928 4.106l-4.42 2.916C.557 34.237-.001 31.75-.001 28.918c0-5.152 1.409-10.521 4.088-14.668 2.377-3.677 5.807-6.249 9.742-6.249l-.084 5.232z" fill="url(#prefix__paint1_linear_1319_10315)"/></g><defs><linearGradient id="prefix__paint0_linear_1319_10315" x1="10.405" y1="23.172" x2="43.456" y2="24.835" gradientUnits="userSpaceOnUse"><stop stop-color="#0064E1"/><stop offset=".4" stop-color="#0064E1"/><stop offset=".83" stop-color="#0073EE"/><stop offset="1" stop-color="#0082FB"/></linearGradient><linearGradient id="prefix__paint1_linear_1319_10315" x1="6.913" y1="31.289" x2="6.913" y2="19.059" gradientUnits="userSpaceOnUse"><stop stop-color="#0082FB"/><stop offset="1" stop-color="#0064E0"/></linearGradient><clipPath id="prefix__clip0_1319_10315"><path fill="#fff" transform="translate(0 8)" d="M0 0h48v32H0z"/></clipPath></defs></svg>