<svg width="48" height="48" viewBox="0 0 48 48" fill="none" xmlns="http://www.w3.org/2000/svg">
<g clip-path="url(#clip0_1313_12286)">
<path d="M26.8753 32.1303C31.012 30.5587 33.078 25.9665 31.4899 21.8729C29.9018 17.7793 25.261 15.7349 21.1245 17.3063C16.9878 18.8779 14.922 23.4703 16.5099 27.5639C16.9128 28.6024 17.5317 29.5456 18.3267 30.3322C19.1216 31.1189 20.0748 31.7315 21.1245 32.1303L15.7203 46.0657C3.80661 41.5403 -2.14445 28.3146 2.42834 16.5248C7.00113 4.7351 20.3659 -1.15382 32.2796 3.37124C44.1934 7.89631 50.1442 21.122 45.5714 32.9118C44.4114 35.9033 42.6286 38.6202 40.3388 40.8862C38.049 43.1523 35.3032 44.9168 32.2796 46.0654L26.8753 32.1303Z" fill="#3DA639"/>
<path d="M32.2801 46.8831C32.113 46.8833 31.9498 46.8332 31.8121 46.7395C31.6744 46.6458 31.5687 46.513 31.509 46.3586L26.1047 32.4232C26.0263 32.2208 26.0323 31.9959 26.1214 31.7978C26.2105 31.5998 26.3754 31.4449 26.58 31.367C28.3745 30.6854 29.7936 29.3527 30.5755 27.6147C31.3573 25.8769 31.4083 23.9418 30.7193 22.1659C29.2971 18.4997 25.1261 16.6621 21.4214 18.0695C17.7166 19.4772 15.8596 23.6047 17.2819 27.2708C17.6439 28.202 18.1993 29.0478 18.9123 29.7534C19.6253 30.4589 20.4801 31.0087 21.4213 31.367C21.6258 31.4449 21.7907 31.5998 21.8798 31.7978C21.9689 31.9959 21.975 32.2208 21.8965 32.4232L16.4922 46.3586C16.4137 46.561 16.2572 46.7242 16.0571 46.8124C15.8569 46.9005 15.6296 46.9064 15.425 46.8288C9.45708 44.5622 4.73823 40.131 2.13788 34.352C-0.462285 28.5731 -0.632904 22.1379 1.6579 16.2321C3.94813 10.3263 8.42586 5.65657 14.2657 3.08317C20.1056 0.509765 26.6083 0.341161 32.5764 2.60796C38.5443 4.87476 43.2632 9.30578 45.8633 15.0847C48.4635 20.8637 48.6341 27.2988 46.3433 33.2046C43.9168 39.4614 38.8987 44.4272 32.5762 46.8286C32.4818 46.8645 32.3815 46.8829 32.2803 46.883M23.9927 2.65841C20.9116 2.65841 17.8373 3.29944 14.9379 4.57687C9.50152 6.97277 5.33278 11.32 3.20041 16.8182C1.06785 22.3164 1.22666 28.3071 3.64739 33.6871C5.95582 38.8176 10.0574 42.8066 15.251 44.9958L20.0719 32.5647C18.0828 31.5875 16.5368 29.9076 15.7394 27.8571C13.9907 23.3491 16.2738 18.2739 20.8291 16.5434C25.3847 14.8128 30.513 17.0724 32.2618 21.58C33.1091 23.7637 33.0461 26.1433 32.0848 28.28C31.2364 30.166 29.7777 31.6638 27.9299 32.5658L32.75 44.9953C38.2745 42.66 42.6405 38.1891 44.801 32.6191C46.9334 27.1211 46.7747 21.1302 44.3538 15.7502C41.9333 10.3703 37.5403 6.24511 31.9843 4.13486C29.3911 3.14994 26.6893 2.65878 23.9925 2.65878M44.5762 43.5826C44.2768 43.8856 44.1271 44.2449 44.1271 44.6607C44.1271 45.0914 44.2794 45.4574 44.5839 45.7587C44.8867 46.06 45.2525 46.2106 45.6813 46.2106C46.1083 46.2106 46.4732 46.0591 46.7761 45.7561C47.0788 45.4516 47.2302 45.0864 47.2302 44.6607C47.2302 44.2464 47.0796 43.8871 46.7785 43.5826C46.474 43.2729 46.1083 43.118 45.6813 43.118C45.249 43.118 44.8807 43.2729 44.5762 43.5826ZM46.998 45.9962C46.6323 46.3461 46.1934 46.5211 45.6813 46.5211C45.1522 46.5211 44.7064 46.3419 44.3441 45.9835C43.9816 45.6249 43.8003 45.184 43.8003 44.6607C43.8003 44.117 43.996 43.665 44.3874 43.3048C44.7549 42.9682 45.1861 42.7999 45.6811 42.7999C46.2001 42.7999 46.6433 42.9817 47.0108 43.3452C47.3783 43.7088 47.562 44.1473 47.562 44.6607C47.562 45.1892 47.374 45.6343 46.998 45.9962ZM45.8523 44.0395C45.7773 44.0109 45.6718 43.9966 45.5358 43.9966H45.403V44.595H45.6149C45.7424 44.595 45.8419 44.5697 45.9134 44.5191C45.9849 44.4687 46.0206 44.3871 46.0206 44.2743C46.0206 44.1615 45.9645 44.0833 45.8523 44.0395ZM44.8569 45.6957V43.6331C44.9862 43.6331 45.1798 43.6335 45.4375 43.6344C45.6954 43.6351 45.8387 43.6364 45.8675 43.6381C46.0325 43.6498 46.1694 43.6852 46.2784 43.7442C46.4638 43.8451 46.5565 44.0092 46.5565 44.2365C46.5565 44.4098 46.5076 44.5352 46.4099 44.6126C46.312 44.69 46.1916 44.7364 46.0488 44.7516C46.1798 44.7784 46.2784 44.818 46.3448 44.8703C46.4673 44.9677 46.5286 45.1217 46.5286 45.3321V45.5165C46.5286 45.5365 46.5298 45.5567 46.5323 45.577C46.5348 45.5972 46.5395 45.6175 46.5464 45.6376L46.5642 45.6957H46.0435C46.0265 45.63 46.0155 45.5349 46.0105 45.4104C46.0053 45.2859 45.9942 45.2017 45.9773 45.158C45.9647 45.1231 45.9444 45.0914 45.918 45.0652C45.8915 45.039 45.8594 45.0189 45.8241 45.0064C45.7833 44.9896 45.7211 44.9787 45.6378 44.9736L45.5178 44.9662H45.403V45.6957H44.8569Z" fill="#1D531D"/>
</g>
<defs>
<clipPath id="clip0_1313_12286">
<rect width="48" height="46" fill="white" transform="translate(0 1)"/>
</clipPath>
</defs>
</svg>
