<svg width="48" height="48" viewBox="0 0 48 48" fill="none" xmlns="http://www.w3.org/2000/svg">
<path d="M29.4622 40.8C31.5762 40.8 32.6931 43.2576 31.283 44.8032C30.3661 45.8089 29.2436 46.6135 27.9887 47.1643C26.7337 47.7152 25.3746 47.9999 24 48C22.6255 47.9999 21.2663 47.7152 20.0114 47.1643C18.7565 46.6135 17.634 45.8089 16.7171 44.8032C15.3681 43.3248 16.331 41.0136 18.2666 40.8168L18.5354 40.8024L29.4622 40.8ZM24 0C27.3189 0 30.1245 2.1672 31.0263 5.1384L31.1388 5.5488L31.1583 5.652C33.8529 7.14411 36.149 9.24207 37.8584 11.7739C39.5679 14.3058 40.642 17.1994 40.9927 20.2176L41.0611 20.9064L41.1076 21.6V28.6344L41.1589 28.9608C41.4935 30.7292 42.49 32.3105 43.9523 33.3936L44.3604 33.6744L44.7564 33.912C46.8581 35.0808 46.125 38.1504 43.835 38.3856L43.5515 38.4H4.44858C1.93621 38.4 1.05884 35.1264 3.24372 33.912C4.17493 33.3945 4.97951 32.6831 5.60099 31.8278C6.22246 30.9724 6.64577 29.9939 6.84119 28.9608L6.89251 28.6176L6.89495 21.4896C7.04397 18.3549 7.97312 15.3039 9.60108 12.6035C11.2291 9.90318 13.5062 7.63585 16.2332 6L16.8393 5.6496L16.8638 5.5464C17.2085 4.11079 17.9939 2.81379 19.1138 1.83083C20.2336 0.847867 21.6339 0.22637 23.1251 0.0503998L23.5699 0.00959988L24 0Z" fill="black"/>
</svg>
