<svg width="48" height="48" fill="none" xmlns="http://www.w3.org/2000/svg"><g clip-path="url(#prefix__clip0_1398_24792)"><path d="M42.793 5.215a17.778 17.778 0 00-29.48 18.074L1.043 35.558A3.523 3.523 0 000 38.07v6.374A3.555 3.555 0 003.556 48h7.11a1.778 1.778 0 001.778-1.777v-3.555H16a1.778 1.778 0 001.777-1.778v-3.555h3.556a1.78 1.78 0 001.258-.52l2.124-2.126c1.778.579 3.637.872 5.507.869h.022a17.779 17.779 0 0016.407-10.983 17.772 17.772 0 00-3.858-19.36zm-8.127 11.68a3.556 3.556 0 110-7.112 3.556 3.556 0 010 7.112z" fill="#000"/></g><defs><clipPath id="prefix__clip0_1398_24792"><path fill="#fff" d="M0 0h48v48H0z"/></clipPath></defs></svg>