<svg width="115" height="20" fill="none" xmlns="http://www.w3.org/2000/svg"><path fill="#fff" d="M0 0h115v20H0z"/><path d="M1.504 16V4.8h1.968l4.08 6.64-1.152-.016L10.528 4.8H12.4V16h-2.064v-4.208c0-.96.021-1.824.064-2.592.053-.768.139-1.53.256-2.288l.256.688-3.472 5.36H6.384l-3.36-5.312.224-.736c.117.715.197 1.45.24 2.208.053.747.08 1.637.08 2.672V16H1.504zM18.242 16.16a3.285 3.285 0 01-1.888-.576c-.565-.384-1.018-.907-1.36-1.568-.341-.661-.512-1.413-.512-2.256 0-.843.17-1.595.512-2.256a3.933 3.933 0 011.392-1.552 3.617 3.617 0 011.984-.56c.427 0 .816.064 1.168.192.352.117.662.288.928.512.267.224.485.48.656.768.181.288.304.597.368.928l-.432-.112V7.568h1.984V16h-2v-2.016l.464-.08c-.075.288-.213.57-.416.848a3.158 3.158 0 01-.736.72 4 4 0 01-.976.496 3.3 3.3 0 01-1.136.192zm.544-1.744c.459 0 .864-.112 1.216-.336a2.23 2.23 0 00.816-.928c.203-.405.304-.87.304-1.392 0-.512-.101-.965-.304-1.36a2.23 2.23 0 00-.816-.928 2.216 2.216 0 00-1.216-.336c-.459 0-.864.112-1.216.336a2.27 2.27 0 00-.8.928c-.192.395-.288.848-.288 1.36 0 .523.096.987.288 1.392.192.395.459.704.8.928.352.224.758.336 1.216.336zM25.324 16V7.568h1.936l.032 2.688-.272-.608a3 3 0 01.608-1.152c.288-.341.618-.608.992-.8a2.538 2.538 0 011.2-.304c.181 0 .352.016.512.048.17.032.31.07.416.112l-.528 2.16a1.837 1.837 0 00-.432-.16 2.105 2.105 0 00-.512-.064c-.267 0-.523.053-.768.16a1.882 1.882 0 00-.624.416 2.049 2.049 0 00-.432.64 2.097 2.097 0 00-.144.8V16h-1.984zM35.315 16.16c-.79 0-1.499-.192-2.128-.576a4.124 4.124 0 01-1.488-1.568c-.363-.661-.544-1.408-.544-2.24 0-.832.181-1.579.544-2.24a4.124 4.124 0 011.488-1.568c.63-.384 1.338-.576 2.128-.576.757 0 1.445.144 2.064.432.618.288 1.098.688 1.44 1.2l-1.088 1.312a2.739 2.739 0 00-.608-.608 3.321 3.321 0 00-.784-.432 2.303 2.303 0 00-.832-.16c-.47 0-.89.117-1.264.352-.363.224-.65.539-.864.944a2.78 2.78 0 00-.32 1.344c0 .501.106.95.32 1.344.224.395.522.71.896.944.373.235.79.352 1.248.352.277 0 .544-.043.8-.128.266-.096.517-.23.752-.4.234-.17.453-.384.656-.64l1.088 1.328c-.363.47-.864.853-1.504 1.152a4.75 4.75 0 01-2 .432zM44.18 16.16c-.843 0-1.595-.187-2.256-.56a4.252 4.252 0 01-1.568-1.568c-.384-.661-.576-1.413-.576-2.256 0-.843.192-1.595.576-2.256a4.133 4.133 0 011.568-1.552c.661-.384 1.413-.576 2.256-.576.832 0 1.578.192 2.24.576a4.02 4.02 0 011.552 1.552c.384.661.576 1.413.576 2.256 0 .843-.192 1.595-.576 2.256A4.134 4.134 0 0146.42 15.6c-.662.373-1.408.56-2.24.56zm0-1.744c.458 0 .864-.117 1.216-.352a2.42 2.42 0 00.848-.944 2.66 2.66 0 00.304-1.344c.01-.512-.09-.965-.304-1.36a2.303 2.303 0 00-.848-.928 2.141 2.141 0 00-1.216-.352 2.297 2.297 0 00-2.096 1.296 2.899 2.899 0 00-.304 1.344c0 .501.101.95.304 1.344.202.395.485.71.848.944.373.235.79.352 1.248.352zM55.363 16V4.8h4.768c.736 0 1.355.107 1.856.32.512.213.896.533 1.152.96.267.416.4.923.4 1.52 0 .619-.165 1.141-.496 1.568-.33.427-.794.72-1.392.88l-.016-.32c.502.107.939.299 1.312.576.374.267.662.603.864 1.008.214.395.32.848.32 1.36 0 .544-.09 1.024-.272 1.44-.17.416-.426.763-.768 1.04-.341.277-.746.49-1.216.64a5.59 5.59 0 01-1.584.208h-4.928zm2.032-1.872h2.8c.395 0 .726-.059.992-.176.278-.117.486-.288.624-.512.15-.235.224-.512.224-.832 0-.299-.08-.555-.24-.768a1.34 1.34 0 00-.656-.48 2.705 2.705 0 00-1.024-.176h-2.72v2.944zm0-4.736h2.544c.31 0 .576-.059.8-.176.235-.117.416-.277.544-.48a1.29 1.29 0 00.192-.704c0-.427-.144-.757-.432-.992-.288-.245-.71-.368-1.264-.368h-2.384v2.72zM69.195 16.16a3.285 3.285 0 01-1.888-.576c-.565-.384-1.018-.907-1.36-1.568-.341-.661-.512-1.413-.512-2.256 0-.843.17-1.595.512-2.256a3.933 3.933 0 011.392-1.552 3.617 3.617 0 011.984-.56c.427 0 .816.064 1.168.192.352.117.662.288.928.512.267.224.486.48.656.768.182.288.304.597.368.928l-.432-.112V7.568h1.984V16h-2v-2.016l.464-.08c-.074.288-.213.57-.416.848a3.158 3.158 0 01-.736.72 3.998 3.998 0 01-.976.496 3.3 3.3 0 01-1.136.192zm.544-1.744c.459 0 .864-.112 1.216-.336a2.23 2.23 0 00.816-.928c.203-.405.304-.87.304-1.392 0-.512-.101-.965-.304-1.36a2.23 2.23 0 00-.816-.928 2.216 2.216 0 00-1.216-.336c-.458 0-.864.112-1.216.336a2.27 2.27 0 00-.8.928c-.192.395-.288.848-.288 1.36 0 .523.096.987.288 1.392.192.395.459.704.8.928.352.224.758.336 1.216.336zM76.277 16V7.568h1.936l.032 2.688-.272-.608a3 3 0 01.608-1.152 3.22 3.22 0 01.992-.8 2.538 2.538 0 011.2-.304c.181 0 .352.016.512.048.17.032.31.07.416.112l-.528 2.16a1.834 1.834 0 00-.432-.16 2.104 2.104 0 00-.512-.064c-.267 0-.523.053-.768.16a1.882 1.882 0 00-.624.416 2.052 2.052 0 00-.432.64 2.097 2.097 0 00-.144.8V16h-1.984zM84.236 16V5.424h1.968V16h-1.968zm-1.664-6.608V7.568h5.472v1.824h-5.472zM92.671 16.16c-.747 0-1.419-.123-2.016-.368a3.69 3.69 0 01-1.44-1.088l1.28-1.104c.32.363.677.624 1.072.784.395.16.81.24 1.248.24.181 0 .341-.021.48-.064.15-.043.277-.107.384-.192a.867.867 0 00.336-.672.73.73 0 00-.288-.608 2.329 2.329 0 00-.512-.24 7.13 7.13 0 00-.88-.256 7.423 7.423 0 01-1.44-.512c-.384-.203-.683-.427-.896-.672a2.161 2.161 0 01-.416-.688 2.617 2.617 0 01-.128-.832c0-.373.08-.71.24-1.008.17-.31.4-.576.688-.8a3.099 3.099 0 011.008-.512 4.084 4.084 0 011.2-.176 4.701 4.701 0 012.352.624c.352.192.65.427.896.704l-1.088 1.2a3.985 3.985 0 00-.672-.512 3.451 3.451 0 00-.72-.352 1.895 1.895 0 00-.688-.144c-.203 0-.384.021-.544.064a1.05 1.05 0 00-.4.16.834.834 0 00-.256.288.851.851 0 00-.08.384c.01.128.043.25.096.368a.89.89 0 00.256.272c.117.075.293.16.528.256.235.096.539.187.912.272.523.139.96.293 1.312.464.352.17.63.368.832.592.203.192.347.416.432.672.085.256.128.539.128.848 0 .501-.144.95-.432 1.344-.277.395-.661.704-1.152.928-.48.224-1.024.336-1.632.336zM101.237 16.16c-.79 0-1.499-.192-2.128-.576a4.124 4.124 0 01-1.488-1.568c-.363-.661-.544-1.408-.544-2.24 0-.832.181-1.579.544-2.24a4.124 4.124 0 011.488-1.568c.629-.384 1.338-.576 2.128-.576.757 0 1.445.144 2.064.432.618.288 1.098.688 1.44 1.2l-1.088 1.312a2.745 2.745 0 00-.608-.608 3.339 3.339 0 00-.784-.432 2.307 2.307 0 00-.832-.16c-.47 0-.891.117-1.264.352a2.387 2.387 0 00-.864.944 2.78 2.78 0 00-.32 1.344c0 .501.106.95.32 1.344.224.395.522.71.896.944.373.235.789.352 1.248.352.277 0 .544-.043.8-.128.266-.096.517-.23.752-.4.234-.17.453-.384.656-.64l1.088 1.328c-.363.47-.864.853-1.504 1.152a4.752 4.752 0 01-2 .432zM106.246 16V4.16h1.952v5.136l-.368.192c.106-.384.314-.73.624-1.04.309-.32.677-.576 1.104-.768a3.164 3.164 0 011.312-.288c.64 0 1.173.128 1.6.384.437.256.762.64.976 1.152.224.512.336 1.152.336 1.92V16h-1.968v-5.008c0-.427-.059-.779-.176-1.056a1.174 1.174 0 00-.544-.624c-.246-.139-.544-.203-.896-.192-.288 0-.555.048-.8.144a1.791 1.791 0 00-.624.384c-.171.16-.31.347-.416.56a1.696 1.696 0 00-.144.704V16h-1.968z" fill="#000"/></svg>