<svg width="115" height="20" fill="none" xmlns="http://www.w3.org/2000/svg"><path fill="#fff" d="M0 0h115v20H0z"/><path d="M5.056 16.16c-.65 0-1.248-.08-1.792-.24a4.804 4.804 0 01-1.472-.752 5.68 5.68 0 01-1.168-1.2l1.36-1.536c.523.725 1.035 1.227 1.536 1.504a3.445 3.445 0 001.696.416c.363 0 .693-.053.992-.16.299-.117.533-.272.704-.464a1.04 1.04 0 00.256-.688c0-.181-.037-.347-.112-.496a1.051 1.051 0 00-.304-.416 2.396 2.396 0 00-.512-.352 3.7 3.7 0 00-.688-.272 10.986 10.986 0 00-.848-.208 7.48 7.48 0 01-1.536-.464 3.99 3.99 0 01-1.104-.736 2.824 2.824 0 01-.656-.992A3.611 3.611 0 011.2 7.84c0-.47.101-.901.304-1.296.213-.395.501-.736.864-1.024a4.093 4.093 0 011.264-.672c.48-.16.997-.24 1.552-.24.63 0 1.19.075 1.68.224.501.15.939.373 1.312.672.384.288.699.64.944 1.056L7.744 7.92a3.374 3.374 0 00-.72-.816 2.712 2.712 0 00-.864-.496 2.729 2.729 0 00-.976-.176c-.384 0-.72.053-1.008.16a1.498 1.498 0 00-.656.464c-.16.192-.24.427-.24.704 0 .213.048.405.144.576.096.16.23.304.4.432.181.128.41.24.688.336.277.096.592.181.944.256a7.902 7.902 0 011.584.48c.47.192.87.427 1.2.704.33.267.581.576.752.928.17.341.256.725.256 1.152 0 .736-.176 1.37-.528 1.904-.341.523-.827.928-1.456 1.216-.63.277-1.365.416-2.208.416zM15.04 16.16c-.843 0-1.595-.187-2.257-.56a4.252 4.252 0 01-1.568-1.568c-.384-.661-.576-1.413-.576-2.256 0-.843.192-1.595.576-2.256a4.133 4.133 0 011.568-1.552c.662-.384 1.414-.576 2.256-.576.832 0 1.579.192 2.24.576a4.02 4.02 0 011.552 1.552c.384.661.576 1.413.576 2.256 0 .843-.192 1.595-.576 2.256A4.134 4.134 0 0117.28 15.6c-.661.373-1.408.56-2.24.56zm0-1.744c.458 0 .863-.117 1.215-.352.363-.235.646-.55.848-.944a2.66 2.66 0 00.304-1.344c.01-.512-.09-.965-.304-1.36a2.302 2.302 0 00-.848-.928 2.141 2.141 0 00-1.216-.352 2.297 2.297 0 00-2.096 1.296 2.9 2.9 0 00-.304 1.344c0 .501.102.95.304 1.344.203.395.486.71.848.944.374.235.79.352 1.248.352zM21.168 16V7.568h1.936l.032 2.688-.272-.608c.117-.427.32-.81.608-1.152a3.22 3.22 0 01.992-.8 2.538 2.538 0 011.2-.304c.181 0 .352.016.512.048.17.032.309.07.416.112l-.528 2.16a1.834 1.834 0 00-.432-.16 2.103 2.103 0 00-.512-.064c-.267 0-.523.053-.768.16a1.884 1.884 0 00-.624.416 2.054 2.054 0 00-.432.64 2.097 2.097 0 00-.144.8V16h-1.984zM30.727 16.16a3.286 3.286 0 01-1.888-.576c-.566-.384-1.019-.907-1.36-1.568-.342-.661-.512-1.413-.512-2.256 0-.843.17-1.595.512-2.256a3.934 3.934 0 011.392-1.552 3.617 3.617 0 011.984-.56c.426 0 .816.064 1.168.192.352.117.661.288.928.512.266.224.485.48.656.768.181.288.304.597.368.928l-.432-.112V7.568h1.984V16h-2v-2.016l.464-.08c-.075.288-.214.57-.416.848a3.152 3.152 0 01-.736.72 3.995 3.995 0 01-.976.496c-.352.128-.731.192-1.136.192zm.544-1.744c.458 0 .864-.112 1.216-.336a2.23 2.23 0 00.816-.928c.202-.405.304-.87.304-1.392 0-.512-.102-.965-.304-1.36a2.23 2.23 0 00-.816-.928 2.216 2.216 0 00-1.216-.336c-.459 0-.864.112-1.216.336a2.27 2.27 0 00-.8.928c-.192.395-.288.848-.288 1.36 0 .523.096.987.288 1.392.192.395.458.704.8.928.352.224.757.336 1.216.336zM40.58 16.16c-.608 0-1.136-.133-1.584-.4a2.668 2.668 0 01-1.024-1.168c-.235-.512-.352-1.12-.352-1.824v-5.2h1.968v4.784c0 .448.07.832.208 1.152.139.31.341.55.608.72.267.17.587.256.96.256.277 0 .528-.043.752-.128.235-.096.437-.224.608-.384.17-.17.304-.368.4-.592.096-.235.144-.485.144-.752V7.568h1.968V16h-1.92l-.032-1.76.352-.192a2.735 2.735 0 01-.656 1.088c-.299.31-.656.56-1.072.752a3.287 3.287 0 01-1.328.272zM51.495 16.16c-.886 0-1.67-.187-2.352-.56a4.173 4.173 0 01-1.584-1.52c-.374-.65-.56-1.392-.56-2.224 0-.661.106-1.264.32-1.808a4.317 4.317 0 01.88-1.408 3.861 3.861 0 011.36-.928 4.459 4.459 0 011.744-.336c.554 0 1.072.107 1.552.32.48.213.896.507 1.248.88.352.363.618.8.8 1.312a4.35 4.35 0 01.272 1.648l-.016.688h-6.832l-.368-1.344h5.552l-.256.272V10.8a1.699 1.699 0 00-.32-.864 1.81 1.81 0 00-.704-.592 1.925 1.925 0 00-.928-.224c-.523 0-.966.101-1.328.304a1.946 1.946 0 00-.8.88c-.182.373-.272.843-.272 1.408 0 .544.112 1.019.336 1.424.234.405.56.72.976.944.426.213.922.32 1.488.32a2.99 2.99 0 001.088-.192c.33-.128.688-.357 1.072-.688l.976 1.36a4.431 4.431 0 01-.992.688 5.96 5.96 0 01-1.152.432 4.7 4.7 0 01-1.2.16zM56.918 16V7.568h1.936l.032 2.688-.272-.608c.117-.427.32-.81.608-1.152a3.22 3.22 0 01.992-.8 2.538 2.538 0 011.2-.304c.181 0 .352.016.512.048.17.032.309.07.416.112l-.528 2.16a1.834 1.834 0 00-.432-.16 2.103 2.103 0 00-.512-.064c-.267 0-.523.053-.768.16a1.883 1.883 0 00-.624.416 2.052 2.052 0 00-.432.64 2.097 2.097 0 00-.144.8V16h-1.984zM72.26 16.16c-.651 0-1.249-.08-1.793-.24a4.804 4.804 0 01-1.472-.752 5.681 5.681 0 01-1.168-1.2l1.36-1.536c.523.725 1.035 1.227 1.536 1.504a3.444 3.444 0 001.696.416c.363 0 .694-.053.992-.16.299-.117.534-.272.704-.464a1.04 1.04 0 00.256-.688c0-.181-.037-.347-.112-.496a1.05 1.05 0 00-.304-.416 2.393 2.393 0 00-.512-.352 3.695 3.695 0 00-.688-.272 10.988 10.988 0 00-.848-.208 7.482 7.482 0 01-1.536-.464 3.989 3.989 0 01-1.104-.736 2.824 2.824 0 01-.656-.992 3.613 3.613 0 01-.208-1.264c0-.47.101-.901.304-1.296.214-.395.502-.736.864-1.024a4.092 4.092 0 011.264-.672c.48-.16.998-.24 1.552-.24.63 0 1.19.075 1.68.224.502.15.939.373 1.312.672.384.288.699.64.944 1.056l-1.376 1.36a3.375 3.375 0 00-.72-.816 2.711 2.711 0 00-.864-.496 2.73 2.73 0 00-.976-.176c-.384 0-.72.053-1.008.16a1.498 1.498 0 00-.656.464c-.16.192-.24.427-.24.704 0 .213.048.405.144.576.096.16.23.304.4.432.181.128.41.24.688.336.278.096.592.181.944.256a7.9 7.9 0 011.584.48c.47.192.87.427 1.2.704.33.267.582.576.752.928.17.341.256.725.256 1.152 0 .736-.176 1.37-.528 1.904-.341.523-.826.928-1.456 1.216-.63.277-1.365.416-2.208.416zM79.298 16V5.424h1.968V16h-1.968zm-1.664-6.608V7.568h5.472v1.824h-5.472zM84.605 16V7.568h1.936l.032 2.688-.272-.608c.117-.427.32-.81.608-1.152a3.22 3.22 0 01.992-.8 2.538 2.538 0 011.2-.304c.181 0 .352.016.512.048.17.032.31.07.416.112l-.528 2.16a1.836 1.836 0 00-.432-.16 2.103 2.103 0 00-.512-.064c-.267 0-.523.053-.768.16a1.884 1.884 0 00-.624.416 2.054 2.054 0 00-.432.64 2.097 2.097 0 00-.144.8V16h-1.984zM90.263 16.176c-.384 0-.682-.112-.896-.336-.202-.224-.304-.539-.304-.944 0-.373.107-.677.32-.912.224-.245.518-.368.88-.368.384 0 .678.112.88.336.214.213.32.528.32.944 0 .373-.112.683-.336.928-.213.235-.5.352-.864.352zM100.315 15.216V6.128l.592.768-2.272 1.152-.464-1.824 3.056-1.584h1.152v10.576h-2.064zM98.443 16v-1.92h5.856V16h-5.856zM108.77 16l-.064-.16 3.392-7.072.192 1.2c-.16.341-.357.645-.592.912a3.805 3.805 0 01-.784.704 3.899 3.899 0 01-.896.448 3.111 3.111 0 01-.928.144c-.608 0-1.168-.16-1.68-.48a3.78 3.78 0 01-1.232-1.296 3.535 3.535 0 01-.464-1.776c0-.757.176-1.44.528-2.048a3.922 3.922 0 013.472-2c.544 0 1.056.101 1.536.304.491.192.912.464 1.264.816.363.352.646.757.848 1.216.214.459.32.944.32 1.456 0 .31-.032.63-.096.96-.053.32-.144.672-.272 1.056-.128.384-.293.805-.496 1.264-.192.459-.426.981-.704 1.568L110.754 16h-1.984zm.784-5.616c.384 0 .731-.085 1.04-.256.31-.181.55-.416.72-.704.171-.288.256-.619.256-.992 0-.384-.085-.73-.256-1.04-.17-.31-.405-.55-.704-.72a1.932 1.932 0 00-1.024-.272c-.362 0-.682.085-.96.256a1.91 1.91 0 00-.672.72c-.16.299-.24.65-.24 1.056 0 .341.08.661.24.96.171.299.395.539.672.72.288.181.598.272.928.272z" fill="#000"/></svg>