<svg width="73" height="20" fill="none" xmlns="http://www.w3.org/2000/svg"><path d="M6.592 16.16a6.192 6.192 0 01-2.336-.432 5.89 5.89 0 01-1.872-1.232 5.58 5.58 0 01-1.216-1.824 5.985 5.985 0 01-.432-2.288c0-.81.144-1.563.432-2.256a5.446 5.446 0 011.248-1.824 5.675 5.675 0 011.872-1.216 6.272 6.272 0 012.336-.432c.587 0 1.152.08 1.696.24.544.16 1.035.384 1.472.672.438.288.8.613 1.088.976L9.568 7.92a5.184 5.184 0 00-.928-.72 4.246 4.246 0 00-.976-.448 3.52 3.52 0 00-1.056-.16c-.533 0-1.029.096-1.488.288a3.744 3.744 0 00-1.184.8 3.833 3.833 0 00-1.072 2.704c0 .523.096 1.019.288 1.488.203.47.48.88.832 1.232s.758.63 1.216.832c.47.192.966.288 1.488.288.395 0 .763-.059 1.104-.176.342-.117.646-.277.912-.48.267-.213.47-.459.608-.736a1.86 1.86 0 00.224-.896v-.352l.288.336H6.512v-1.856h5.072a5.405 5.405 0 01.064.816 5.145 5.145 0 01-.368 2.352 4.542 4.542 0 01-1.088 1.552 4.968 4.968 0 01-1.616 1.024 5.463 5.463 0 01-1.984.352zM17.448 16.16c-.885 0-1.67-.187-2.352-.56a4.173 4.173 0 01-1.584-1.52c-.373-.65-.56-1.392-.56-2.224 0-.661.107-1.264.32-1.808a4.315 4.315 0 01.88-1.408 3.86 3.86 0 011.36-.928 4.458 4.458 0 011.744-.336c.555 0 1.072.107 1.552.32.48.213.896.507 1.248.88.352.363.619.8.8 1.312.192.501.283 1.05.272 1.648l-.016.688H14.28l-.368-1.344h5.552l-.256.272V10.8a1.699 1.699 0 00-.32-.864 1.81 1.81 0 00-.704-.592 1.926 1.926 0 00-.928-.224c-.523 0-.965.101-1.328.304a1.945 1.945 0 00-.8.88c-.181.373-.272.843-.272 1.408 0 .544.112 1.019.336 1.424.235.405.56.72.976.944.427.213.923.32 1.488.32a2.99 2.99 0 001.088-.192c.33-.128.688-.357 1.072-.688l.976 1.36a4.436 4.436 0 01-.992.688 5.965 5.965 0 01-1.152.432 4.7 4.7 0 01-1.2.16zM22.871 16V7.568h1.936l.032 2.688-.272-.608a3 3 0 01.608-1.152c.288-.341.619-.608.992-.8a2.538 2.538 0 011.2-.304c.181 0 .352.016.512.048.17.032.31.07.416.112l-.528 2.16a1.836 1.836 0 00-.432-.16 2.104 2.104 0 00-.512-.064c-.267 0-.523.053-.768.16a1.882 1.882 0 00-.624.416 2.05 2.05 0 00-.432.64 2.097 2.097 0 00-.144.8V16h-1.984zM29.573 16V7.568h1.936l.032 1.696-.32.128c.096-.277.24-.533.433-.768.192-.245.42-.453.688-.624.266-.181.549-.32.848-.416.298-.107.602-.16.912-.16.458 0 .864.075 1.216.224a2 2 0 01.896.672c.245.31.426.704.544 1.184l-.305-.064.128-.256c.118-.256.283-.485.496-.688.214-.213.454-.4.72-.56.267-.17.545-.299.833-.384.298-.085.591-.128.88-.128.64 0 1.173.128 1.6.384.426.256.746.645.96 1.168.213.523.32 1.168.32 1.936V16h-1.984v-4.96c0-.427-.06-.779-.176-1.056a1.12 1.12 0 00-.512-.608c-.225-.139-.507-.208-.849-.208-.266 0-.522.048-.767.144a1.64 1.64 0 00-.608.384 1.696 1.696 0 00-.544 1.264V16h-1.985v-4.976c0-.405-.058-.741-.176-1.008a1.305 1.305 0 00-.511-.624 1.438 1.438 0 00-.816-.224c-.267 0-.518.048-.753.144a1.737 1.737 0 00-1.008.928 1.696 1.696 0 00-.143.704V16h-1.985zM47.758 16.16a3.286 3.286 0 01-1.888-.576c-.565-.384-1.018-.907-1.36-1.568-.341-.661-.512-1.413-.512-2.256 0-.843.17-1.595.512-2.256a3.933 3.933 0 011.392-1.552 3.617 3.617 0 011.984-.56c.427 0 .816.064 1.168.192.352.117.661.288.928.512.267.224.486.48.656.768.181.288.304.597.368.928l-.432-.112V7.568h1.984V16h-2v-2.016l.464-.08c-.075.288-.213.57-.416.848a3.152 3.152 0 01-.736.72 3.995 3.995 0 01-.976.496 3.3 3.3 0 01-1.136.192zm.544-1.744c.459 0 .864-.112 1.216-.336a2.23 2.23 0 00.816-.928c.203-.405.304-.87.304-1.392 0-.512-.101-.965-.304-1.36a2.229 2.229 0 00-.816-.928 2.216 2.216 0 00-1.216-.336c-.459 0-.864.112-1.216.336a2.27 2.27 0 00-.8.928c-.192.395-.288.848-.288 1.36 0 .523.096.987.288 1.392.192.395.459.704.8.928.352.224.758.336 1.216.336zM54.84 16V7.568h1.92l.032 1.728-.368.192a2.35 2.35 0 01.624-1.04c.31-.32.677-.576 1.104-.768a3.166 3.166 0 011.312-.288c.64 0 1.173.128 1.6.384.437.256.763.64.976 1.152.224.512.336 1.152.336 1.92V16h-1.968v-5.008c0-.427-.059-.779-.176-1.056a1.17 1.17 0 00-.544-.624c-.245-.139-.544-.203-.896-.192-.288 0-.555.048-.8.144a1.798 1.798 0 00-.624.384c-.17.16-.31.347-.416.56a1.696 1.696 0 00-.144.704V16H54.84zM65.792 19.68l1.792-4.144.016 1.312-4.16-9.28h2.272l2.32 5.504c.074.139.149.325.224.56.074.224.138.448.192.672l-.4.128c.074-.203.154-.416.24-.64.085-.235.165-.475.24-.72l1.984-5.504H72.8L69.28 16l-1.44 3.68h-2.048z" fill="#000"/></svg>