<svg xmlns="http://www.w3.org/2000/svg" width="29" height="29" viewBox="0 0 29 29">
  <circle cx="14.8" cy="9.8" r="4.8" fill="#000"/>
  <path d="M8.3 24.3c-2.2 0-3.3-1.1-3.3-3.3 0-4.7 1.5-7.2 4.3-7.2.5 0 2.7 1.7 5.4 1.7 2.8 0 5-1.7 5.5-1.7 2.8 0 4.3 2.5 4.3 7.2 0 2.2-1.1 3.3-3.3 3.3H8.3Z" fill="#000"/>
  <path d="m15.6 16.8.7 1.6 1.6.7-1.6.7-.7 1.7-.7-1.7-1.6-.7 1.6-.7.7-1.6Z" fill="#000"/>
  <path d="m12.2 17 .3.7.7.3-.7.3-.3.8-.3-.8-.7-.3.7-.3.3-.7Zm-.4 3 .3.7.7.3-.7.3-.3.8-.3-.8-.7-.3.7-.3.3-.7Z" fill="#000"/>
</svg>
