<svg width="48" height="48" fill="none" xmlns="http://www.w3.org/2000/svg"><g clip-path="url(#prefix__clip0_1315_10099)"><path d="M40.66 8.17A38.585 38.585 0 0030.758 5a29.824 29.824 0 00-1.269 2.682 35.712 35.712 0 00-10.975 0A28.875 28.875 0 0017.231 5a38.455 38.455 0 00-9.91 3.177C1.052 17.822-.647 27.227.203 36.5c4.156 3.161 8.185 5.082 12.145 6.338a30.856 30.856 0 002.601-4.363 25.376 25.376 0 01-4.096-2.03c.343-.259.678-.529 1.004-.809 7.898 3.762 16.48 3.762 24.284 0 .327.279.662.548 1.004.81a25.302 25.302 0 01-4.104 2.033 30.738 30.738 0 002.601 4.363c3.964-1.256 7.996-3.177 12.153-6.342.997-10.748-1.703-20.067-7.136-28.33zM16.026 30.796c-2.37 0-4.315-2.254-4.315-5 0-2.744 1.903-5.002 4.315-5.002 2.413 0 4.357 2.254 4.316 5.003.003 2.745-1.903 4.999-4.316 4.999zm15.947 0c-2.37 0-4.315-2.254-4.315-5 0-2.744 1.903-5.002 4.315-5.002 2.413 0 4.357 2.254 4.316 5.003 0 2.745-1.903 4.999-4.316 4.999z" fill="#5865F2"/></g><defs><clipPath id="prefix__clip0_1315_10099"><path fill="#fff" transform="translate(0 5)" d="M0 0h48v38H0z"/></clipPath></defs></svg>