<svg width="48" height="48" fill="none" xmlns="http://www.w3.org/2000/svg"><path d="M20.532 0a10.555 10.555 0 00-7.488 3.122 10.693 10.693 0 00-3.102 7.536c0 2.827 1.116 5.538 3.102 7.536a10.555 10.555 0 007.488 3.122c2.808 0 5.502-1.123 7.488-3.122a10.693 10.693 0 003.102-7.536c0-2.827-1.116-5.538-3.102-7.536A10.556 10.556 0 0020.532 0zM7.319 23.98a5.266 5.266 0 00-3.76 1.553A5.33 5.33 0 002 29.31c0 4.505 2.205 7.903 5.652 10.117 3.394 2.177 7.969 3.205 12.88 3.205 4.91 0 9.486-1.028 12.88-3.205.252-.162.497-.33.736-.506v-5.932a10.25 10.25 0 01-3.872-3.775 10.336 10.336 0 01-1.423-5.233H7.319zm23.8 0c0 3.48 2.21 6.443 5.295 7.541v5.292l.002 8.105c0 .267.093.523.26.725l1.586 1.94a1.13 1.13 0 001.686.075l4.061-4.17a1.146 1.146 0 00.218-1.284 1.147 1.147 0 00-.27-.368l-3.57-3.2 3.577-3.137a1.147 1.147 0 00.286-1.333 1.148 1.148 0 00-.286-.388l-2.486-2.18a7.953 7.953 0 004.337-3.413 8.039 8.039 0 001.09-5.432 8.01 8.01 0 00-2.679-4.84 7.915 7.915 0 00-5.162-1.926 7.917 7.917 0 00-5.616 2.341 8.02 8.02 0 00-2.326 5.653m10.59-2.665c0 .707-.28 1.385-.776 1.884a2.639 2.639 0 01-3.744 0 2.673 2.673 0 010-3.768 2.639 2.639 0 013.744 0c.496.5.775 1.177.775 1.884z" fill="#000"/></svg>