<svg width="98" height="98" viewBox="0 0 98 98" fill="none" xmlns="http://www.w3.org/2000/svg">
<g clip-path="url(#clip0_291_2841)">
<rect x="0.585" y="0.585" width="95.94" height="95.94" rx="19.305" fill="url(#paint0_linear_291_2841)" stroke="#DEDEDE" stroke-width="1.17"/>
<mask id="mask0_291_2841" style="mask-type:alpha" maskUnits="userSpaceOnUse" x="0" y="0" width="98" height="98">
<rect x="0.585" y="0.585" width="95.94" height="95.94" rx="19.305" fill="url(#paint1_linear_291_2841)" stroke="#DEDEDE" stroke-width="1.17"/>
</mask>
<g mask="url(#mask0_291_2841)">
</g>
<path d="M64.25 58.3438C63.2656 58.3438 62.2812 57.95 61.4938 57.1625L55.5875 51.2562C54.8 50.4688 54.4062 49.4844 54.4062 48.5C54.4062 47.5156 54.8 46.5312 55.5875 45.7438L61.4938 39.8375C62.2812 39.05 63.2656 38.6562 64.25 38.6562C65.2344 38.6562 66.2188 39.05 67.0062 39.8375L72.9125 45.7438C73.7 46.5312 74.0938 47.5156 74.0938 48.5C74.0938 49.4844 73.7 50.4688 72.9125 51.2562L67.0062 57.1625C66.2188 57.95 65.2344 58.3438 64.25 58.3438ZM64.25 42.5938L58.3438 48.5L64.25 54.4062L70.1562 48.5L64.25 42.5938ZM48.5 42.5938C47.5156 42.5938 46.5312 42.2 45.7438 41.4125L39.8375 35.5062C39.05 34.7187 38.6562 33.7344 38.6562 32.75C38.6562 31.7656 39.05 30.7812 39.8375 29.9937L45.7438 24.0875C46.5312 23.3 47.5156 22.9062 48.5 22.9062C49.4844 22.9062 50.4688 23.3 51.2562 24.0875L57.1625 29.9937C57.95 30.7812 58.3438 31.7656 58.3438 32.75C58.3438 33.7344 57.95 34.7187 57.1625 35.5062L51.2562 41.4125C50.4688 42.2 49.4844 42.5938 48.5 42.5938ZM48.5 26.8438L42.5938 32.75L48.5 38.6562L54.4062 32.75L48.5 26.8438ZM48.5 74.0938C47.5156 74.0938 46.5312 73.7 45.7438 72.9125L39.8375 67.0062C39.05 66.2188 38.6562 65.2344 38.6562 64.25C38.6562 63.2656 39.05 62.2812 39.8375 61.4938L45.7438 55.5875C46.5312 54.8 47.5156 54.4062 48.5 54.4062C49.4844 54.4062 50.4688 54.8 51.2562 55.5875L57.1625 61.4938C57.95 62.2812 58.3438 63.2656 58.3438 64.25C58.3438 65.2344 57.95 66.2188 57.1625 67.0062L51.2562 72.9125C50.4688 73.7 49.4844 74.0938 48.5 74.0938ZM48.5 58.3438L42.5938 64.25L48.5 70.1562L54.4062 64.25L48.5 58.3438ZM32.75 58.3438C31.7656 58.3438 30.7812 57.95 29.9937 57.1625L24.0875 51.2562C23.3 50.4688 22.9062 49.4844 22.9062 48.5C22.9062 47.5156 23.3 46.5312 24.0875 45.7438L29.9937 39.8375C30.7812 39.05 31.7656 38.6562 32.75 38.6562C33.7344 38.6562 34.7187 39.05 35.5062 39.8375L41.4125 45.7438C42.2 46.5312 42.5938 47.5156 42.5938 48.5C42.5938 49.4844 42.2 50.4688 41.4125 51.2562L35.5062 57.1625C34.7187 57.95 33.7344 58.3438 32.75 58.3438ZM32.75 42.5938L26.8438 48.5L32.75 54.4062L38.6562 48.5L32.75 42.5938Z" fill="white"/>
</g>
<defs>
<linearGradient id="paint0_linear_291_2841" x1="8.19" y1="9.36" x2="86.58" y2="88.335" gradientUnits="userSpaceOnUse">
<stop stop-color="#00C443"/>
<stop offset="1" stop-color="#00BE63"/>
</linearGradient>
<linearGradient id="paint1_linear_291_2841" x1="8.19" y1="9.36" x2="86.58" y2="88.335" gradientUnits="userSpaceOnUse">
<stop stop-color="white"/>
<stop offset="1" stop-color="#EAEAEA"/>
</linearGradient>
<clipPath id="clip0_291_2841">
<rect width="97.11" height="97.11" fill="white"/>
</clipPath>
</defs>
</svg>
