<svg width="98" height="98" viewBox="0 0 98 98" fill="none" xmlns="http://www.w3.org/2000/svg">
<rect x="0.585" y="0.585" width="95.94" height="95.94" rx="19.305" fill="url(#paint0_linear_237_3019)" stroke="#DEDEDE" stroke-width="1.17"/>
<path d="M22.3067 38.0512H74.6938V35.8322C74.6938 30.919 72.1899 28.4375 67.2034 28.4375H29.7971C24.8117 28.4375 22.3057 30.919 22.3057 35.8333L22.3067 38.0512ZM22.3067 61.1921C22.3067 66.1064 24.8107 68.5635 29.7971 68.5635H67.2034C72.1889 68.5635 74.6948 66.1064 74.6948 61.1921V43.4672H22.3047L22.3067 61.1921ZM30.2745 55.371V50.9576C30.2745 49.6222 31.2048 48.6674 32.6125 48.6674H38.4571C39.8648 48.6674 40.7951 49.6222 40.7951 50.9576V55.371C40.7951 56.7309 39.8648 57.6612 38.4571 57.6612H32.6115C31.2038 57.6612 30.2745 56.7309 30.2745 55.371Z" fill="white"/>
<defs>
<linearGradient id="paint0_linear_237_3019" x1="8.19" y1="9.36" x2="86.58" y2="88.335" gradientUnits="userSpaceOnUse">
<stop stop-color="#00C443"/>
<stop offset="1" stop-color="#00BE63"/>
</linearGradient>
</defs>
</svg>
