<svg width="98" height="98" viewBox="0 0 98 98" fill="none" xmlns="http://www.w3.org/2000/svg">
<rect x="0.585" y="0.585" width="95.94" height="95.94" rx="19.305" fill="url(#paint0_linear_158_6364)" stroke="#DEDEDE" stroke-width="1.17"/>
<mask id="mask0_158_6364" style="mask-type:alpha" maskUnits="userSpaceOnUse" x="1" y="1" width="95" height="95">
<rect x="1.585" y="1.585" width="93.83" height="93.83" rx="18.415" fill="url(#paint1_linear_158_6364)" stroke="#DEDEDE" stroke-width="1.17"/>
</mask>
<g mask="url(#mask0_158_6364)">
<path fill-rule="evenodd" clip-rule="evenodd" d="M70.8241 73.2595C72.5304 71.6212 73.3836 69.3878 73.3836 66.5593C73.3836 65.31 73.3427 64.0902 73.2609 62.8998C73.1791 61.7095 73.0155 60.4248 72.77 59.0459C72.5246 57.667 72.2149 56.3882 71.8409 55.2096C71.4669 54.0311 70.9643 52.882 70.3332 51.7623C69.7021 50.6427 68.9774 49.688 68.1593 48.8984C67.3412 48.1087 66.3419 47.4782 65.1615 47.0068C63.981 46.5353 62.6779 46.2996 61.252 46.2996C61.0182 46.2996 60.5157 46.553 59.7443 47.0598C58.9729 47.5666 58.1198 48.1323 57.1847 48.757C56.2497 49.3816 54.9992 49.9473 53.4331 50.4541C51.8669 50.9609 50.2891 51.2143 48.6996 51.2143C47.1101 51.2143 45.5323 50.9609 43.9662 50.4541C42.4001 49.9473 41.1495 49.3816 40.2145 48.757C39.2795 48.1323 38.4263 47.5666 37.6549 47.0598C36.8836 46.553 36.381 46.2996 36.1473 46.2996C34.7214 46.2996 33.4182 46.5353 32.2378 47.0068C31.0573 47.4782 30.0581 48.1087 29.2399 48.8984C28.4218 49.688 27.6972 50.6427 27.0661 51.7623C26.4349 52.882 25.9324 54.0311 25.5584 55.2096C25.1844 56.3882 24.8747 57.667 24.6292 59.0459C24.3838 60.4248 24.2202 61.7095 24.1383 62.8998C24.0565 64.0902 24.0156 65.31 24.0156 66.5593C24.0156 69.3878 24.8688 71.6212 26.5752 73.2595C28.2816 74.8977 30.5489 75.7168 33.3773 75.7168H64.0219C66.8503 75.7168 69.1177 74.8977 70.8241 73.2595ZM58.2191 44.5848C60.8488 41.933 62.1636 38.7332 62.1636 34.9853C62.1636 31.2375 60.8488 28.0377 58.2191 25.3859C55.5894 22.7341 52.4163 21.4082 48.6996 21.4082C44.983 21.4082 41.8098 22.7341 39.1802 25.3859C36.5505 28.0377 35.2356 31.2375 35.2356 34.9853C35.2356 38.7332 36.5505 41.933 39.1802 44.5848C41.8098 47.2366 44.983 48.5625 48.6996 48.5625C52.4163 48.5625 55.5894 47.2366 58.2191 44.5848ZM45.2302 56.7913C45.3007 56.8611 45.3844 56.9164 45.4765 56.9539L46.257 57.2893C46.3083 57.313 46.3518 57.3509 46.3822 57.3984C46.4127 57.4459 46.4288 57.5011 46.4288 57.5574C46.4288 57.6138 46.4127 57.669 46.3822 57.7165C46.3518 57.764 46.3083 57.8018 46.257 57.8256L45.4765 58.1609C45.2952 58.2448 45.1474 58.3868 45.0664 58.5673L44.4544 59.9561C44.3464 60.1756 44.0172 60.1756 43.9028 59.9561L43.2908 58.568C43.2169 58.3868 43.069 58.2384 42.8806 58.1609L42.1002 57.8256C42.0489 57.8018 42.0054 57.764 41.9749 57.7165C41.9445 57.669 41.9283 57.6138 41.9283 57.5574C41.9283 57.5011 41.9445 57.4459 41.9749 57.3984C42.0054 57.3509 42.0489 57.313 42.1002 57.2893L42.8806 56.9539C43.0622 56.8722 43.2079 56.7279 43.2908 56.5475L43.9028 55.1651C44.0108 54.9456 44.3399 54.9456 44.4544 55.1651L45.0657 56.5469C45.1038 56.6384 45.1597 56.7214 45.2302 56.7913ZM53.9186 59.8505C54.1532 60.4137 54.5953 60.8664 55.1542 61.1157L57.4826 62.1653C58.1718 62.5045 58.1718 63.4965 57.4826 63.8357L55.1542 64.8852C54.5982 65.1386 54.1577 65.59 53.9193 66.1505L52.0787 70.4819C52.0035 70.6373 51.8858 70.7684 51.7391 70.8601C51.5924 70.9518 51.4227 71.0005 51.2494 71.0005C51.0762 71.0005 50.9065 70.9518 50.7598 70.8601C50.6131 70.7684 50.4954 70.6373 50.4201 70.4819L48.5803 66.1505C48.3453 65.5875 47.9034 65.1349 47.3447 64.8852L45.0162 63.8357C44.3271 63.4965 44.3271 62.5045 45.0162 62.1653L47.3447 61.1157C47.9006 60.8624 48.3412 60.411 48.5796 59.8505L50.4201 55.5191C50.4954 55.3637 50.6131 55.2326 50.7598 55.1409C50.9065 55.0492 51.0762 55.0005 51.2494 55.0005C51.4227 55.0005 51.5924 55.0492 51.7391 55.1409C51.8858 55.2326 52.0035 55.3637 52.0787 55.5191L53.9186 59.8505ZM44.5656 66.0097C44.329 65.8971 44.14 65.7025 44.0371 65.4516L43.2484 63.5464C43.2168 63.479 43.1666 63.422 43.1036 63.382C43.0407 63.342 42.9675 63.3208 42.8928 63.3208C42.8182 63.3208 42.745 63.342 42.682 63.382C42.6191 63.422 42.5689 63.479 42.5373 63.5464L41.7479 65.4516C41.6444 65.6961 41.456 65.8971 41.2195 66.0097L40.223 66.4737C40.1556 66.5086 40.0992 66.5613 40.0598 66.6259C40.0204 66.6906 39.9995 66.7648 39.9995 66.8404C39.9995 66.916 40.0204 66.9902 40.0598 67.0549C40.0992 67.1195 40.1556 67.1722 40.223 67.2071L41.2195 67.6711C41.4594 67.7849 41.6479 67.984 41.7479 68.2292L42.5367 70.1344C42.5682 70.2018 42.6184 70.2588 42.6814 70.2988C42.7444 70.3388 42.8175 70.36 42.8922 70.36C42.9669 70.36 43.04 70.3388 43.103 70.2988C43.166 70.2588 43.2162 70.2018 43.2477 70.1344L44.0371 68.2292C44.1406 67.9847 44.329 67.7837 44.5656 67.6711L45.562 67.2071C45.6294 67.1722 45.6859 67.1195 45.7253 67.0549C45.7647 66.9902 45.7855 66.916 45.7855 66.8404C45.7855 66.7648 45.7647 66.6906 45.7253 66.6259C45.6859 66.5613 45.6294 66.5086 45.562 66.4737L44.5656 66.0097Z" fill="white"/>
</g>
<defs>
<linearGradient id="paint0_linear_158_6364" x1="8.19" y1="9.36" x2="86.58" y2="88.335" gradientUnits="userSpaceOnUse">
<stop stop-color="#00C443"/>
<stop offset="1" stop-color="#00BE63"/>
</linearGradient>
<linearGradient id="paint1_linear_158_6364" x1="9.01205" y1="10.1566" x2="85.6988" y2="87.4157" gradientUnits="userSpaceOnUse">
<stop stop-color="white"/>
<stop offset="1" stop-color="#EAEAEA"/>
</linearGradient>
</defs>
</svg>
