<svg width="98" height="98" viewBox="0 0 98 98" fill="none" xmlns="http://www.w3.org/2000/svg">
<rect x="0.585" y="0.585" width="95.94" height="95.94" rx="19.305" fill="url(#paint0_linear_833_6529)" stroke="#DEDEDE" stroke-width="1.17"/>
<path d="M26.8789 74.3996V58.7576C26.8789 57.8776 27.0883 57.0416 27.5072 56.2496C27.9261 55.4576 28.5087 54.8196 29.2549 54.3356L32.1589 52.4216C32.4669 56.1176 32.9509 59.2636 33.6109 61.8596C34.2709 64.4556 35.3049 67.3376 36.7129 70.5056L26.8789 74.3996ZM40.6729 69.1196C39.1329 66.2156 37.9889 63.1356 37.2409 59.8796C36.4929 56.6236 36.1189 53.2576 36.1189 49.7816C36.1189 44.2816 37.2083 39.101 39.3872 34.2399C41.5661 29.3788 44.4367 25.6934 47.9989 23.1836C51.5629 25.6916 54.4343 29.377 56.6132 34.2399C58.7921 39.1028 59.8807 44.2834 59.8789 49.7816C59.8789 53.2136 59.5049 56.547 58.7569 59.7819C58.0089 63.0168 56.8649 66.1293 55.3249 69.1196H40.6729ZM47.9989 50.6396C49.4509 50.6396 50.6943 50.123 51.7292 49.0899C52.7641 48.0568 53.2807 46.8134 53.2789 45.3596C53.2771 43.9058 52.7606 42.6633 51.7292 41.6319C50.6979 40.6006 49.4544 40.0831 47.9989 40.0796C46.5434 40.0761 45.3008 40.5935 44.2712 41.6319C43.2416 42.6703 42.7242 43.9129 42.7189 45.3596C42.7136 46.8063 43.2311 48.0498 44.2712 49.0899C45.3114 50.1301 46.5539 50.6466 47.9989 50.6396ZM69.1189 74.3996L59.2849 70.5056C60.6929 67.3376 61.7269 64.4556 62.3869 61.8596C63.0469 59.2636 63.5309 56.1176 63.8389 52.4216L66.7429 54.3356C67.4909 54.8196 68.0743 55.4576 68.4932 56.2496C68.9121 57.0416 69.1207 57.8776 69.1189 58.7576V74.3996Z" fill="white"/>
<defs>
<linearGradient id="paint0_linear_833_6529" x1="8.19" y1="9.36" x2="86.58" y2="88.335" gradientUnits="userSpaceOnUse">
<stop stop-color="#00C443"/>
<stop offset="1" stop-color="#00BE63"/>
</linearGradient>
</defs>
</svg>
