<svg width="98" height="98" viewBox="0 0 98 98" fill="none" xmlns="http://www.w3.org/2000/svg">
<rect x="0.585" y="0.585" width="95.94" height="95.94" rx="19.305" fill="url(#paint0_linear_158_6699)" stroke="#DEDEDE" stroke-width="1.17"/>
<path d="M33.6667 27.917H64.3333C64.8417 27.917 65.3292 28.1189 65.6886 28.4784C66.0481 28.8378 66.25 29.3253 66.25 29.8337V37.5003C66.25 38.0087 66.0481 38.4962 65.6886 38.8556C65.3292 39.2151 64.8417 39.417 64.3333 39.417H33.6667C33.1583 39.417 32.6708 39.2151 32.3114 38.8556C31.9519 38.4962 31.75 38.0087 31.75 37.5003V29.8337C31.75 29.3253 31.9519 28.8378 32.3114 28.4784C32.6708 28.1189 33.1583 27.917 33.6667 27.917ZM33.6667 43.2503H64.3333C64.8417 43.2503 65.3292 43.4523 65.6886 43.8117C66.0481 44.1711 66.25 44.6587 66.25 45.167V52.8337C66.25 53.342 66.0481 53.8295 65.6886 54.1889C65.3292 54.5484 64.8417 54.7503 64.3333 54.7503H33.6667C33.1583 54.7503 32.6708 54.5484 32.3114 54.1889C31.9519 53.8295 31.75 53.342 31.75 52.8337V45.167C31.75 44.6587 31.9519 44.1711 32.3114 43.8117C32.6708 43.4523 33.1583 43.2503 33.6667 43.2503ZM33.6667 58.5837H64.3333C64.8417 58.5837 65.3292 58.7856 65.6886 59.145C66.0481 59.5045 66.25 59.992 66.25 60.5003V68.167C66.25 68.6753 66.0481 69.1628 65.6886 69.5223C65.3292 69.8817 64.8417 70.0837 64.3333 70.0837H33.6667C33.1583 70.0837 32.6708 69.8817 32.3114 69.5223C31.9519 69.1628 31.75 68.6753 31.75 68.167V60.5003C31.75 59.992 31.9519 59.5045 32.3114 59.145C32.6708 58.7856 33.1583 58.5837 33.6667 58.5837ZM43.25 35.5837H45.1667V31.7503H43.25V35.5837ZM43.25 50.917H45.1667V47.0837H43.25V50.917ZM43.25 66.2503H45.1667V62.417H43.25V66.2503ZM35.5833 31.7503V35.5837H39.4167V31.7503H35.5833ZM35.5833 47.0837V50.917H39.4167V47.0837H35.5833ZM35.5833 62.417V66.2503H39.4167V62.417H35.5833Z" fill="white"/>
<defs>
<linearGradient id="paint0_linear_158_6699" x1="8.19" y1="9.36" x2="86.58" y2="88.335" gradientUnits="userSpaceOnUse">
<stop stop-color="#00C443"/>
<stop offset="1" stop-color="#00BE63"/>
</linearGradient>
</defs>
</svg>
