<svg width="98" height="98" viewBox="0 0 98 98" fill="none" xmlns="http://www.w3.org/2000/svg">
<g clip-path="url(#clip0_153_1627)">
<rect x="0.585" y="0.585" width="95.94" height="95.94" rx="19.305" fill="url(#paint0_linear_153_1627)" stroke="#DEDEDE" stroke-width="1.17"/>
<path d="M70.3017 51.6285C70.504 55.0892 68.9077 58.416 66.0523 60.4478L67.7835 63.7745C68.3006 64.7793 68.3681 65.9626 67.9184 67.012C67.4912 68.0614 66.6144 68.8875 65.5352 69.2447L63.759 69.8029C63.0194 70.0503 62.2209 70.0652 61.4725 69.8454C60.7241 69.6256 60.0622 69.182 59.577 68.5749L54.8105 62.9931C52.8095 62.6582 50.9209 61.8097 49.3246 60.5371C48.2004 60.872 47.0762 61.0506 45.952 61.0506C43.9735 61.0506 41.9949 60.4478 40.3312 59.2867C39.1395 59.644 37.9254 59.8003 36.6888 59.7779C34.9126 59.8003 33.1589 59.443 31.5176 58.7732C29.9378 58.0732 28.5879 56.9464 27.6219 55.5212C26.6559 54.0961 26.1126 52.43 26.0541 50.7131C25.8743 49.1055 26.1441 47.4756 26.8411 46.002C26.189 44.3275 26.1216 42.4966 26.6837 40.7998C27.5156 38.6787 29.0894 36.9148 31.0455 35.7985C32.3495 32.0251 36.0143 29.5022 40.0389 29.7701C43.6362 26.421 49.1447 26.0638 53.1468 28.944C54.0911 28.6984 55.0803 28.5644 56.0696 28.5644C59.1274 28.4974 62.0277 29.8371 63.9388 32.2261C68.5255 33.4094 71.8081 37.473 71.9879 42.2064C72.1003 44.6847 71.4258 47.1184 70.0543 49.1948C70.2117 49.9986 70.3017 50.8024 70.3017 51.6285ZM59.0599 48.4803C60.3415 48.6366 61.3532 49.5967 61.3532 50.8694C61.3532 51.4615 61.1164 52.0294 60.6947 52.4481C60.2731 52.8669 59.7012 53.1021 59.1049 53.1021H57.6884C56.969 55.1115 55.7099 56.8754 54.0461 58.215C54.6082 58.416 55.1928 58.5276 55.7773 58.6839C67.3114 58.5276 65.9623 51.5392 65.9623 51.4275C65.9027 49.8939 65.232 48.4466 64.0977 47.404C62.9635 46.3614 61.4587 45.8089 59.9143 45.8681C59.318 45.8681 58.7461 45.6328 58.3245 45.2141C57.9028 44.7954 57.6659 44.2275 57.6659 43.6353C57.6659 43.0432 57.9028 42.4753 58.3245 42.0566C58.7461 41.6378 59.318 41.4026 59.9143 41.4026C62.6798 41.4696 65.3328 42.4966 67.4013 44.3051C67.5137 43.6577 67.5812 42.9878 67.5812 42.318C67.4463 39.5494 66.1872 37.1381 61.1284 36.6692C58.318 30.0603 51.2357 33.722 51.2357 35.7761C51.1682 36.2897 51.7078 37.3837 51.7977 37.4507C52.394 37.4507 52.9659 37.6859 53.3876 38.1046C53.8092 38.5233 54.0461 39.0912 54.0461 39.6834C54.0461 40.9114 53.0343 41.9161 51.7977 41.9161C50.6061 41.8715 49.4819 41.4249 48.5826 40.6658C47.5034 41.3579 46.2668 41.7822 44.9852 41.9161C43.7037 42.0278 42.647 41.1347 42.5795 39.9067C42.5381 39.615 42.5571 39.318 42.6355 39.034C42.7138 38.7499 42.8498 38.4847 43.0351 38.2547C43.2204 38.0247 43.4511 37.8347 43.713 37.6965C43.9748 37.5582 44.2624 37.4746 44.5581 37.4507C44.9178 37.406 46.6715 37.1381 46.6715 35.7315C46.6715 34.2579 47.2336 32.8513 48.2004 31.7349C46.1319 31.1767 43.906 31.9135 41.6577 34.6151C37.5207 33.9676 35.8345 34.5258 34.5979 38.8796C32.4619 39.929 31.3378 40.6658 30.8431 42.8985C33.2713 42.4073 35.767 42.6083 38.0828 43.4567C39.207 43.8809 39.8365 45.1313 39.4093 46.3369C38.9822 47.4979 37.6781 48.0785 36.509 47.6542C34.8677 46.9398 33.024 46.8951 31.3378 47.5203C30.6183 48.1231 30.6183 49.3734 30.6183 50.3558C30.6183 52.0081 31.4502 53.5486 32.8666 54.4417C34.0583 55.0446 35.3848 55.3571 36.7113 55.3348C36.3741 54.7543 36.0818 54.1515 35.8345 53.5263C35.6575 52.9527 35.7114 52.3332 35.9849 51.7982C36.2584 51.2633 36.7301 50.8545 37.3009 50.6578C37.8717 50.4611 38.497 50.492 39.0454 50.7438C39.5938 50.9956 40.0224 51.4488 40.2412 52.0081C41.1406 54.5534 43.4339 56.2949 46.1319 56.5851C49.2121 56.4289 51.9551 54.6203 53.3041 51.8294C53.8213 48.7483 56.3169 48.4803 59.0599 48.4803ZM63.5566 65.1588L62.1626 62.2563L60.5663 62.6135L62.8147 65.4044L63.5566 65.1588ZM53.1018 45.935C53.1213 45.3647 52.9202 44.8085 52.5397 44.3808C52.1592 43.9531 51.6282 43.6864 51.0558 43.6353C49.4595 43.546 47.9081 44.0819 46.7165 45.1313C45.4349 46.4262 44.7604 48.2124 44.8279 50.0209C44.8279 50.6131 45.0647 51.181 45.4864 51.5997C45.908 52.0184 46.4799 52.2537 47.0762 52.2537C48.3578 52.2537 49.3246 51.2489 49.3246 50.0209C49.3246 49.4181 49.4819 48.8153 49.8417 48.3241C50.1115 48.1008 50.4487 47.9891 50.8085 47.9891C52.0451 48.0561 53.1018 47.1407 53.1018 45.935Z" fill="white"/>
<mask id="mask0_153_1627" style="mask-type:alpha" maskUnits="userSpaceOnUse" x="0" y="0" width="98" height="98">
<rect x="0.585" y="0.585" width="95.94" height="95.94" rx="19.305" fill="url(#paint1_linear_153_1627)" stroke="#DEDEDE" stroke-width="1.17"/>
</mask>
<g mask="url(#mask0_153_1627)">
</g>
</g>
<defs>
<linearGradient id="paint0_linear_153_1627" x1="8.19" y1="9.36" x2="86.58" y2="88.335" gradientUnits="userSpaceOnUse">
<stop stop-color="#00C443"/>
<stop offset="1" stop-color="#00BE63"/>
</linearGradient>
<linearGradient id="paint1_linear_153_1627" x1="8.19" y1="9.36" x2="86.58" y2="88.335" gradientUnits="userSpaceOnUse">
<stop stop-color="white"/>
<stop offset="1" stop-color="#EAEAEA"/>
</linearGradient>
<clipPath id="clip0_153_1627">
<rect width="97.11" height="97.11" fill="white"/>
</clipPath>
</defs>
</svg>
