<svg width="98" height="98" viewBox="0 0 98 98" fill="none" xmlns="http://www.w3.org/2000/svg">
<rect x="0.585" y="0.585" width="95.94" height="95.94" rx="19.305" fill="url(#paint0_linear_175_5479)" stroke="#DEDEDE" stroke-width="1.17"/>
<path d="M37.5977 28.0654L31.3452 34.3236L28.9052 31.8836L26.1602 34.6229L29.9727 38.4354L31.3452 39.7431L32.7177 38.4335L40.3427 30.8085L37.5977 28.0654ZM46.5952 31.3442V35.1567H71.3764V31.3442H46.5952ZM37.5977 43.3154L31.3452 49.5756L28.9052 47.1279L26.1602 49.8729L29.9727 53.6854L31.3452 54.9931L32.7177 53.6835L40.3427 46.0585L37.5977 43.3154ZM46.5952 46.5942V50.4067H71.3764V46.5942H46.5952ZM37.5977 58.5654L31.3452 64.8237L28.9052 62.3837L26.1602 65.1229L29.9727 68.9354L31.3452 70.2431L32.7177 68.9335L40.3427 61.3085L37.5977 58.5635V58.5654ZM46.5952 61.8442V65.6567H71.3764V61.8442H46.5952Z" fill="white"/>
<defs>
<linearGradient id="paint0_linear_175_5479" x1="8.19" y1="9.36" x2="86.58" y2="88.335" gradientUnits="userSpaceOnUse">
<stop stop-color="#00C443"/>
<stop offset="1" stop-color="#00BE63"/>
</linearGradient>
</defs>
</svg>
