<svg width="98" height="98" viewBox="0 0 98 98" fill="none" xmlns="http://www.w3.org/2000/svg">
<rect x="0.585" y="0.585" width="95.94" height="95.94" rx="19.305" fill="url(#paint0_linear_194_6146)" stroke="#DEDEDE" stroke-width="1.17"/>
<path d="M64.6208 80.0906C64.6208 81.7878 64.1089 83.1278 63.0851 84.1108C62.0612 85.0937 60.7008 85.5851 59.0038 85.5851H40.617C38.92 85.5851 37.5596 85.0937 36.5357 84.1108C35.5119 83.1278 35 81.7878 35 80.0906C35 79.3411 35.0245 78.6092 35.0736 77.895C35.1227 77.1808 35.2209 76.41 35.3682 75.5826C35.5154 74.7553 35.7012 73.988 35.9256 73.2809C36.15 72.5737 36.4516 71.8843 36.8303 71.2125C37.2089 70.5407 37.6437 69.9679 38.1346 69.4941C38.6255 69.0203 39.225 68.642 39.9333 68.3591C40.6416 68.0763 41.4235 67.9349 42.279 67.9349C42.4192 67.9349 42.7208 68.0869 43.1836 68.391C43.6464 68.695 44.1583 69.0345 44.7193 69.4093C45.2803 69.784 46.0307 70.1235 46.9703 70.4275C47.91 70.7316 48.8567 70.8836 49.8104 70.8836C50.7641 70.8836 51.7108 70.7316 52.6505 70.4275C53.5901 70.1235 54.3405 69.784 54.9015 69.4093C55.4625 69.0345 55.9744 68.695 56.4372 68.391C56.9 68.0869 57.2016 67.9349 57.3418 67.9349C58.1974 67.9349 58.9792 68.0763 59.6875 68.3591C60.3958 68.642 60.9953 69.0203 61.4862 69.4941C61.9771 69.9679 62.4119 70.5407 62.7905 71.2125C63.1692 71.8843 63.4707 72.5737 63.6951 73.2809C63.9195 73.988 64.1054 74.7553 64.2526 75.5826C64.3999 76.41 64.4981 77.1808 64.5472 77.895C64.5963 78.6092 64.6208 79.3411 64.6208 80.0906ZM57.8888 61.1463C57.8888 63.395 57.0999 65.3149 55.5221 66.906C53.9443 68.497 52.0404 69.2926 49.8104 69.2926C47.5804 69.2926 45.6765 68.497 44.0987 66.906C42.5209 65.3149 41.732 63.395 41.732 61.1463C41.732 58.8976 42.5209 56.9777 44.0987 55.3866C45.6765 53.7955 47.5804 53 49.8104 53C52.0404 53 53.9443 53.7955 55.5221 55.3866C57.0999 56.9777 57.8888 58.8976 57.8888 61.1463Z" fill="white"/>
<path d="M64.6208 38.0906C64.6208 39.7878 64.1089 41.1278 63.0851 42.1108C62.0612 43.0937 60.7008 43.5851 59.0038 43.5851H40.617C38.92 43.5851 37.5596 43.0937 36.5357 42.1108C35.5119 41.1278 35 39.7878 35 38.0906C35 37.3411 35.0245 36.6092 35.0736 35.895C35.1227 35.1808 35.2209 34.41 35.3682 33.5826C35.5154 32.7553 35.7012 31.988 35.9256 31.2809C36.15 30.5737 36.4516 29.8843 36.8303 29.2125C37.2089 28.5407 37.6437 27.9679 38.1346 27.4941C38.6255 27.0203 39.225 26.642 39.9333 26.3591C40.6416 26.0763 41.4235 25.9349 42.279 25.9349C42.4192 25.9349 42.7208 26.0869 43.1836 26.391C43.6464 26.695 44.1583 27.0345 44.7193 27.4093C45.2803 27.784 46.0307 28.1235 46.9703 28.4275C47.91 28.7316 48.8567 28.8836 49.8104 28.8836C50.7641 28.8836 51.7108 28.7316 52.6505 28.4275C53.5901 28.1235 54.3405 27.784 54.9015 27.4093C55.4625 27.0345 55.9744 26.695 56.4372 26.391C56.9 26.0869 57.2016 25.9349 57.3418 25.9349C58.1974 25.9349 58.9792 26.0763 59.6875 26.3591C60.3958 26.642 60.9953 27.0203 61.4862 27.4941C61.9771 27.9679 62.4119 28.5407 62.7905 29.2125C63.1692 29.8843 63.4707 30.5737 63.6951 31.2809C63.9195 31.988 64.1054 32.7553 64.2526 33.5826C64.3999 34.41 64.4981 35.1808 64.5472 35.895C64.5963 36.6092 64.6208 37.3411 64.6208 38.0906ZM57.8888 19.1463C57.8888 21.395 57.0999 23.3149 55.5221 24.906C53.9443 26.497 52.0404 27.2926 49.8104 27.2926C47.5804 27.2926 45.6765 26.497 44.0987 24.906C42.5209 23.3149 41.732 21.395 41.732 19.1463C41.732 16.8976 42.5209 14.9777 44.0987 13.3866C45.6765 11.7955 47.5804 11 49.8104 11C52.0404 11 53.9443 11.7955 55.5221 13.3866C57.0999 14.9777 57.8888 16.8976 57.8888 19.1463Z" fill="white"/>
<path fill-rule="evenodd" clip-rule="evenodd" d="M36.5807 64.5521C37.5862 63.5868 38.0889 62.2708 38.0889 60.6042C38.0889 59.8681 38.0648 59.1493 38.0166 58.4479C37.9684 57.7465 37.872 56.9896 37.7273 56.1771C37.5827 55.3646 37.4002 54.6111 37.1799 53.9167C36.9595 53.2222 36.6634 52.5451 36.2915 51.8854C35.9196 51.2257 35.4926 50.6632 35.0106 50.1979C34.5285 49.7326 33.9397 49.3611 33.2442 49.0833C32.5486 48.8056 31.7808 48.6667 30.9406 48.6667C30.8029 48.6667 30.5068 48.816 30.0523 49.1146C29.5977 49.4132 29.095 49.7465 28.5441 50.1146C27.9932 50.4826 27.2563 50.816 26.3335 51.1146C25.4107 51.4132 24.481 51.5625 23.5444 51.5625C22.6079 51.5625 21.6782 51.4132 20.7554 51.1146C19.8326 50.816 19.0957 50.4826 18.5448 50.1146C17.9939 49.7465 17.4911 49.4132 17.0366 49.1146C16.5821 48.816 16.286 48.6667 16.1483 48.6667C15.3081 48.6667 14.5402 48.8056 13.8447 49.0833C13.1492 49.3611 12.5604 49.7326 12.0783 50.1979C11.5962 50.6632 11.1693 51.2257 10.7974 51.8854C10.4255 52.5451 10.1294 53.2222 9.90903 53.9167C9.68866 54.6111 9.50616 55.3646 9.36155 56.1771C9.21693 56.9896 9.12052 57.7465 9.07231 58.4479C9.0241 59.1493 9 59.8681 9 60.6042C9 62.2708 9.50272 63.5868 10.5082 64.5521C11.5136 65.5174 12.8496 66 14.5161 66H32.5727C34.2393 66 35.5753 65.5174 36.5807 64.5521ZM29.1536 47.6562C30.703 46.0938 31.4778 44.2083 31.4778 42C31.4778 39.7917 30.703 37.9062 29.1536 36.3438C27.6041 34.7813 25.7344 34 23.5444 34C21.3545 34 19.4848 34.7813 17.9353 36.3438C16.3859 37.9062 15.6111 39.7917 15.6111 42C15.6111 44.2083 16.3859 46.0938 17.9353 47.6562C19.4848 49.2188 21.3545 50 23.5444 50C25.7344 50 27.6041 49.2188 29.1536 47.6562ZM21.5004 54.8489C21.542 54.89 21.5913 54.9226 21.6455 54.9447L22.1054 55.1423C22.1356 55.1563 22.1612 55.1786 22.1792 55.2066C22.1971 55.2346 22.2067 55.2671 22.2067 55.3003C22.2067 55.3335 22.1971 55.366 22.1792 55.394C22.1612 55.422 22.1356 55.4443 22.1054 55.4583L21.6455 55.6559C21.5387 55.7053 21.4516 55.789 21.4039 55.8954L21.0433 56.7137C20.9796 56.843 20.7857 56.843 20.7182 56.7137L20.3576 55.8957C20.3141 55.789 20.227 55.7015 20.116 55.6559L19.6561 55.4583C19.6259 55.4443 19.6003 55.422 19.5823 55.394C19.5644 55.366 19.5548 55.3335 19.5548 55.3003C19.5548 55.2671 19.5644 55.2346 19.5823 55.2066C19.6003 55.1786 19.6259 55.1563 19.6561 55.1423L20.116 54.9447C20.223 54.8966 20.3088 54.8115 20.3576 54.7052L20.7182 53.8907C20.7819 53.7614 20.9758 53.7614 21.0433 53.8907L21.4035 54.7049C21.4259 54.7588 21.4589 54.8077 21.5004 54.8489ZM26.6198 56.6514C26.7581 56.9833 27.0185 57.25 27.3479 57.397L28.7199 58.0154C29.1259 58.2153 29.1259 58.7998 28.7199 58.9996L27.3479 59.6181C27.0203 59.7673 26.7607 60.0333 26.6202 60.3636L25.5357 62.9158C25.4914 63.0073 25.422 63.0845 25.3356 63.1386C25.2492 63.1926 25.1492 63.2213 25.0471 63.2213C24.945 63.2213 24.845 63.1926 24.7586 63.1386C24.6721 63.0845 24.6028 63.0073 24.5584 62.9158L23.4743 60.3636C23.3359 60.0318 23.0755 59.7652 22.7463 59.6181L21.3743 58.9996C20.9683 58.7998 20.9683 58.2153 21.3743 58.0154L22.7463 57.397C23.0739 57.2477 23.3335 56.9817 23.474 56.6514L24.5584 54.0993C24.6028 54.0077 24.6721 53.9305 24.7586 53.8764C24.845 53.8224 24.945 53.7937 25.0471 53.7937C25.1492 53.7937 25.2492 53.8224 25.3356 53.8764C25.422 53.9305 25.4914 54.0077 25.5357 54.0993L26.6198 56.6514ZM21.1088 60.2806C20.9694 60.2142 20.858 60.0996 20.7974 59.9518L20.3326 58.8292C20.3141 58.7894 20.2845 58.7558 20.2474 58.7323C20.2103 58.7087 20.1672 58.6962 20.1232 58.6962C20.0792 58.6962 20.0361 58.7087 19.999 58.7323C19.9619 58.7558 19.9323 58.7894 19.9137 58.8292L19.4485 59.9518C19.3876 60.0958 19.2766 60.2142 19.1372 60.2806L18.55 60.554C18.5103 60.5746 18.4771 60.6056 18.4538 60.6437C18.4306 60.6818 18.4183 60.7255 18.4183 60.7701C18.4183 60.8146 18.4306 60.8584 18.4538 60.8965C18.4771 60.9345 18.5103 60.9656 18.55 60.9862L19.1372 61.2595C19.2786 61.3266 19.3896 61.4439 19.4485 61.5884L19.9133 62.711C19.9319 62.7507 19.9615 62.7843 19.9986 62.8079C20.0357 62.8314 20.0788 62.8439 20.1228 62.8439C20.1668 62.8439 20.2099 62.8314 20.247 62.8079C20.2841 62.7843 20.3137 62.7507 20.3323 62.711L20.7974 61.5884C20.8584 61.4443 20.9694 61.3259 21.1088 61.2595L21.6959 60.9862C21.7356 60.9656 21.7689 60.9345 21.7921 60.8965C21.8153 60.8584 21.8276 60.8146 21.8276 60.7701C21.8276 60.7255 21.8153 60.6818 21.7921 60.6437C21.7689 60.6056 21.7356 60.5746 21.6959 60.554L21.1088 60.2806Z" fill="white"/>
<path fill-rule="evenodd" clip-rule="evenodd" d="M88.5807 64.5521C89.5862 63.5868 90.0889 62.2708 90.0889 60.6042C90.0889 59.8681 90.0648 59.1493 90.0166 58.4479C89.9684 57.7465 89.872 56.9896 89.7273 56.1771C89.5827 55.3646 89.4002 54.6111 89.1799 53.9167C88.9595 53.2222 88.6634 52.5451 88.2915 51.8854C87.9196 51.2257 87.4926 50.6632 87.0106 50.1979C86.5285 49.7326 85.9397 49.3611 85.2442 49.0833C84.5486 48.8056 83.7808 48.6667 82.9406 48.6667C82.8029 48.6667 82.5068 48.816 82.0523 49.1146C81.5977 49.4132 81.095 49.7465 80.5441 50.1146C79.9932 50.4826 79.2563 50.816 78.3335 51.1146C77.4107 51.4132 76.481 51.5625 75.5444 51.5625C74.6079 51.5625 73.6782 51.4132 72.7554 51.1146C71.8326 50.816 71.0957 50.4826 70.5448 50.1146C69.9939 49.7465 69.4911 49.4132 69.0366 49.1146C68.5821 48.816 68.286 48.6667 68.1483 48.6667C67.3081 48.6667 66.5402 48.8056 65.8447 49.0833C65.1492 49.3611 64.5604 49.7326 64.0783 50.1979C63.5962 50.6632 63.1693 51.2257 62.7974 51.8854C62.4255 52.5451 62.1294 53.2222 61.909 53.9167C61.6887 54.6111 61.5062 55.3646 61.3615 56.1771C61.2169 56.9896 61.1205 57.7465 61.0723 58.4479C61.0241 59.1493 61 59.8681 61 60.6042C61 62.2708 61.5027 63.5868 62.5082 64.5521C63.5136 65.5174 64.8496 66 66.5161 66H84.5727C86.2393 66 87.5753 65.5174 88.5807 64.5521ZM81.1536 47.6562C82.703 46.0938 83.4778 44.2083 83.4778 42C83.4778 39.7917 82.703 37.9062 81.1536 36.3438C79.6041 34.7813 77.7344 34 75.5444 34C73.3545 34 71.4848 34.7813 69.9353 36.3438C68.3859 37.9062 67.6111 39.7917 67.6111 42C67.6111 44.2083 68.3859 46.0938 69.9353 47.6562C71.4848 49.2188 73.3545 50 75.5444 50C77.7344 50 79.6041 49.2188 81.1536 47.6562ZM73.5004 54.8489C73.542 54.89 73.5913 54.9226 73.6455 54.9447L74.1054 55.1423C74.1356 55.1563 74.1612 55.1786 74.1792 55.2066C74.1971 55.2346 74.2067 55.2671 74.2067 55.3003C74.2067 55.3335 74.1971 55.366 74.1792 55.394C74.1612 55.422 74.1356 55.4443 74.1054 55.4583L73.6455 55.6559C73.5387 55.7053 73.4516 55.789 73.4039 55.8954L73.0433 56.7137C72.9796 56.843 72.7857 56.843 72.7182 56.7137L72.3576 55.8957C72.3141 55.789 72.227 55.7015 72.116 55.6559L71.6561 55.4583C71.6259 55.4443 71.6003 55.422 71.5823 55.394C71.5644 55.366 71.5548 55.3335 71.5548 55.3003C71.5548 55.2671 71.5644 55.2346 71.5823 55.2066C71.6003 55.1786 71.6259 55.1563 71.6561 55.1423L72.116 54.9447C72.223 54.8966 72.3088 54.8115 72.3576 54.7052L72.7182 53.8907C72.7819 53.7614 72.9758 53.7614 73.0433 53.8907L73.4035 54.7049C73.4259 54.7588 73.4589 54.8077 73.5004 54.8489ZM78.6198 56.6514C78.7581 56.9833 79.0185 57.25 79.3479 57.397L80.7199 58.0154C81.1259 58.2153 81.1259 58.7998 80.7199 58.9996L79.3479 59.6181C79.0203 59.7673 78.7607 60.0333 78.6202 60.3636L77.5357 62.9158C77.4914 63.0073 77.422 63.0845 77.3356 63.1386C77.2492 63.1926 77.1492 63.2213 77.0471 63.2213C76.945 63.2213 76.845 63.1926 76.7586 63.1386C76.6721 63.0845 76.6028 63.0073 76.5584 62.9158L75.4743 60.3636C75.3359 60.0318 75.0755 59.7652 74.7463 59.6181L73.3743 58.9996C72.9683 58.7998 72.9683 58.2153 73.3743 58.0154L74.7463 57.397C75.0739 57.2477 75.3335 56.9817 75.474 56.6514L76.5584 54.0993C76.6028 54.0077 76.6721 53.9305 76.7586 53.8764C76.845 53.8224 76.945 53.7937 77.0471 53.7937C77.1492 53.7937 77.2492 53.8224 77.3356 53.8764C77.422 53.9305 77.4914 54.0077 77.5357 54.0993L78.6198 56.6514ZM73.1088 60.2806C72.9694 60.2142 72.858 60.0996 72.7974 59.9518L72.3326 58.8292C72.3141 58.7894 72.2845 58.7558 72.2474 58.7323C72.2103 58.7087 72.1672 58.6962 72.1232 58.6962C72.0792 58.6962 72.0361 58.7087 71.999 58.7323C71.9619 58.7558 71.9323 58.7894 71.9137 58.8292L71.4485 59.9518C71.3876 60.0958 71.2766 60.2142 71.1372 60.2806L70.55 60.554C70.5103 60.5746 70.4771 60.6056 70.4538 60.6437C70.4306 60.6818 70.4183 60.7255 70.4183 60.7701C70.4183 60.8146 70.4306 60.8584 70.4538 60.8965C70.4771 60.9345 70.5103 60.9656 70.55 60.9862L71.1372 61.2595C71.2786 61.3266 71.3896 61.4439 71.4485 61.5884L71.9133 62.711C71.9319 62.7507 71.9615 62.7843 71.9986 62.8079C72.0357 62.8314 72.0788 62.8439 72.1228 62.8439C72.1668 62.8439 72.2099 62.8314 72.247 62.8079C72.2841 62.7843 72.3137 62.7507 72.3323 62.711L72.7974 61.5884C72.8584 61.4443 72.9694 61.3259 73.1088 61.2595L73.6959 60.9862C73.7356 60.9656 73.7689 60.9345 73.7921 60.8965C73.8153 60.8584 73.8276 60.8146 73.8276 60.7701C73.8276 60.7255 73.8153 60.6818 73.7921 60.6437C73.7689 60.6056 73.7356 60.5746 73.6959 60.554L73.1088 60.2806Z" fill="white"/>
<defs>
<linearGradient id="paint0_linear_194_6146" x1="8.19" y1="9.36" x2="86.58" y2="88.335" gradientUnits="userSpaceOnUse">
<stop stop-color="#00C443"/>
<stop offset="1" stop-color="#00BE63"/>
</linearGradient>
</defs>
</svg>
