<svg width="98" height="98" viewBox="0 0 98 98" fill="none" xmlns="http://www.w3.org/2000/svg">
<rect x="0.585" y="0.585" width="95.94" height="95.94" rx="19.305" fill="url(#paint0_linear_158_6695)" stroke="#DEDEDE" stroke-width="1.17"/>
<path d="M73.3836 66.5681C73.3836 69.3966 72.5304 71.63 70.8241 73.2682C69.1177 74.9065 66.8503 75.7256 64.0219 75.7256H33.3773C30.5489 75.7256 28.2816 74.9065 26.5752 73.2682C24.8688 71.63 24.0156 69.3966 24.0156 66.5681C24.0156 65.3188 24.0565 64.099 24.1383 62.9086C24.2202 61.7182 24.3838 60.4336 24.6292 59.0547C24.8747 57.6757 25.1844 56.397 25.5584 55.2184C25.9324 54.0399 26.4349 52.8907 27.0661 51.7711C27.6972 50.6515 28.4218 49.6968 29.2399 48.9072C30.0581 48.1175 31.0573 47.487 32.2378 47.0156C33.4182 46.5441 34.7214 46.3084 36.1473 46.3084C36.381 46.3084 36.8836 46.5618 37.6549 47.0686C38.4263 47.5754 39.2795 48.1411 40.2145 48.7657C41.1495 49.3904 42.4001 49.9561 43.9662 50.4629C45.5323 50.9697 47.1101 51.2231 48.6996 51.2231C50.2891 51.2231 51.8669 50.9697 53.4331 50.4629C54.9992 49.9561 56.2497 49.3904 57.1847 48.7657C58.1198 48.1411 58.9729 47.5754 59.7443 47.0686C60.5157 46.5618 61.0182 46.3084 61.252 46.3084C62.6779 46.3084 63.981 46.5441 65.1615 47.0156C66.3419 47.487 67.3412 48.1175 68.1593 48.9072C68.9774 49.6968 69.7021 50.6515 70.3332 51.7711C70.9643 52.8907 71.4669 54.0399 71.8409 55.2184C72.2149 56.397 72.5246 57.6757 72.77 59.0547C73.0155 60.4336 73.1791 61.7182 73.2609 62.9086C73.3427 64.099 73.3836 65.3188 73.3836 66.5681ZM62.1636 34.9941C62.1636 38.742 60.8488 41.9418 58.2191 44.5936C55.5894 47.2454 52.4163 48.5713 48.6996 48.5713C44.983 48.5713 41.8098 47.2454 39.1802 44.5936C36.5505 41.9418 35.2356 38.742 35.2356 34.9941C35.2356 31.2463 36.5505 28.0465 39.1802 25.3947C41.8098 22.7429 44.983 21.417 48.6996 21.417C52.4163 21.417 55.5894 22.7429 58.2191 25.3947C60.8488 28.0465 62.1636 31.2463 62.1636 34.9941Z" fill="white"/>
<defs>
<linearGradient id="paint0_linear_158_6695" x1="8.19" y1="9.36" x2="86.58" y2="88.335" gradientUnits="userSpaceOnUse">
<stop stop-color="#00C443"/>
<stop offset="1" stop-color="#00BE63"/>
</linearGradient>
</defs>
</svg>
