<svg width="98" height="98" viewBox="0 0 98 98" fill="none" xmlns="http://www.w3.org/2000/svg">
<rect x="0.585" y="0.585" width="95.94" height="95.94" rx="19.305" fill="url(#paint0_linear_175_5475)" stroke="#DEDEDE" stroke-width="1.17"/>
<g clip-path="url(#clip0_175_5475)">
<path fill-rule="evenodd" clip-rule="evenodd" d="M30.0709 27C29.6636 27 29.273 27.1618 28.985 27.4498C28.697 27.7378 28.5352 28.1284 28.5352 28.5357V37.75C28.5352 38.1573 28.697 38.5479 28.985 38.8359C29.273 39.1239 29.6636 39.2857 30.0709 39.2857H39.2852C39.6925 39.2857 40.0831 39.1239 40.3711 38.8359C40.6591 38.5479 40.8209 38.1573 40.8209 37.75V35.4464H56.178V37.5657L37.5652 56.1786H30.0709C29.6636 56.1786 29.273 56.3404 28.985 56.6284C28.697 56.9164 28.5352 57.307 28.5352 57.7143V66.9286C28.5352 67.3359 28.697 67.7265 28.985 68.0145C29.273 68.3025 29.6636 68.4643 30.0709 68.4643H39.2852C39.6925 68.4643 40.0831 68.3025 40.3711 68.0145C40.6591 67.7265 40.8209 67.3359 40.8209 66.9286V64.625H59.2494V68.4643C59.2489 68.7684 59.3387 69.0659 59.5074 69.3189C59.6761 69.572 59.9161 69.7692 60.1971 69.8857C60.478 70.0022 60.7873 70.0326 61.0855 69.9731C61.3838 69.9136 61.6577 69.7669 61.8724 69.5516L68.0153 63.4087C68.1583 63.2661 68.2718 63.0966 68.3492 62.91C68.4266 62.7234 68.4665 62.5234 68.4665 62.3214C68.4665 62.1194 68.4266 61.9194 68.3492 61.7328C68.2718 61.5463 68.1583 61.3768 68.0153 61.2341L61.8724 55.0913C61.6577 54.876 61.3838 54.7292 61.0855 54.6698C60.7873 54.6103 60.478 54.6407 60.1971 54.7572C59.9161 54.8736 59.6761 55.0709 59.5074 55.3239C59.3387 55.577 59.2489 55.8744 59.2494 56.1786V60.0179H40.8209V59.4343L60.9694 39.2857H66.928C67.3353 39.2857 67.7259 39.1239 68.0139 38.8359C68.3019 38.5479 68.4637 38.1573 68.4637 37.75V28.5357C68.4637 28.1284 68.3019 27.7378 68.0139 27.4498C67.7259 27.1618 67.3353 27 66.928 27H57.7137C57.3064 27 56.9158 27.1618 56.6278 27.4498C56.3398 27.7378 56.178 28.1284 56.178 28.5357V30.8393H40.8209V28.5357C40.8209 28.1284 40.6591 27.7378 40.3711 27.4498C40.0831 27.1618 39.6925 27 39.2852 27H30.0709Z" fill="white"/>
</g>
<defs>
<linearGradient id="paint0_linear_175_5475" x1="8.19" y1="9.36" x2="86.58" y2="88.335" gradientUnits="userSpaceOnUse">
<stop stop-color="#00C443"/>
<stop offset="1" stop-color="#00BE63"/>
</linearGradient>
<clipPath id="clip0_175_5475">
<rect width="43" height="43" fill="white" transform="translate(27 27)"/>
</clipPath>
</defs>
</svg>
