<svg width="48" height="48" viewBox="0 0 48 48" fill="none" xmlns="http://www.w3.org/2000/svg">
<path d="M36.8116 5.66404H29.911C28.6641 5.66804 28.7107 7.54005 29.911 7.52905H36.8116V8.48606H29.911C28.671 8.47506 28.7167 10.3461 29.911 10.3511H36.8116V11.3291H29.911C28.671 11.3291 28.7167 13.1991 29.911 13.1941H36.8116V14.1261H29.911C28.6968 14.1351 28.7167 16.0071 29.911 16.0131H36.8116V16.9471H29.911C28.6968 16.9431 28.6919 18.8121 29.911 18.8121H36.8116V19.7441H29.911C28.6968 19.7481 28.6919 21.6192 29.911 21.6102H36.8116V22.5652H29.911C28.6968 22.5542 28.6919 24.4232 29.911 24.4302H36.8116V25.3602H29.911C28.6968 25.3592 28.7167 27.2322 29.911 27.2262H36.8116V45.3853C36.8156 48.1523 40.9881 48.1023 41 45.3853V2.89002C40.9881 1.62601 39.9576 0.0280002 38.262 0.0230002H29.911C28.6641 0.0240002 28.7107 1.89601 29.911 1.88801L36.8116 1.91101V2.84102H29.911C28.6661 2.83502 28.7127 4.70603 29.911 4.70703H36.8116V5.66404ZM29.4364 37.8583C29.4325 34.6282 26.1088 31.1542 22.1378 33.4042V21.0501L19.5695 0.675005C19.5159 0.136001 19.0622 0.00900006 18.7574 0C18.4427 0.00900006 17.8123 0.136001 17.7438 0.675005L15.1885 21.0501V33.4042C11.2175 31.1542 8.00099 34.6502 8 37.8333C8.00099 40.6653 10.1652 42.9913 13.0938 42.9843C16.0443 42.9913 18.1668 40.3843 18.1668 37.8333V25.0002H19.1595V37.8333C19.1595 40.6893 21.3555 42.8033 23.7956 42.9373C23.7549 44.5033 24.2622 46.7373 25.2173 47.6233C26.3371 48.6633 27.6703 47.3333 27.1233 46.2503C26.5952 45.2423 26.077 44.6453 26.4979 42.4443C28.2571 41.6243 29.4325 39.8983 29.4364 37.8583ZM13.207 40.3993C12.5375 40.3993 11.8955 40.1314 11.4222 39.6546C10.9488 39.1778 10.6829 38.5311 10.6829 37.8568C10.6829 37.1824 10.9488 36.5357 11.4222 36.0589C11.8955 35.5821 12.5375 35.3142 13.207 35.3142C14.5829 35.3222 15.7037 36.4593 15.7137 37.8583C15.7113 38.5287 15.447 39.1712 14.9779 39.6468C14.5087 40.1224 13.8725 40.3927 13.207 40.3993ZM21.7158 37.8583C21.7181 37.1874 21.9825 36.5444 22.4518 36.0683C22.9211 35.5922 23.5575 35.3213 24.2235 35.3142C24.8896 35.3208 25.5262 35.5916 25.9955 36.0678C26.4647 36.544 26.7287 37.1873 26.7302 37.8583C26.7292 38.5291 26.4653 39.1724 25.9958 39.6482C25.5264 40.1241 24.8895 40.394 24.2235 40.3993C23.5578 40.393 22.9213 40.1228 22.452 39.6472C21.9826 39.1716 21.7182 38.5289 21.7158 37.8583Z" fill="black"/>
</svg>
