<svg width="48" height="48" viewBox="0 0 48 48" fill="none" xmlns="http://www.w3.org/2000/svg">
<path d="M16.4159 33.9243L42.723 5.98886C43.3439 5.32962 44.0681 5 44.8959 5C45.7237 5 46.4479 5.32962 47.0688 5.98886C47.6896 6.64811 48 7.43151 48 8.33906C48 9.24662 47.6896 10.0289 47.0688 10.686L18.5887 41.0111C17.9679 41.6704 17.2436 42 16.4159 42C15.5881 42 14.8638 41.6704 14.243 41.0111L0.895411 26.8374C0.274593 26.1782 -0.0234001 25.3959 0.00143266 24.4905C0.0262654 23.5852 0.350125 22.8018 0.973012 22.1403C1.5959 21.4789 2.33364 21.1492 3.18623 21.1514C4.03882 21.1536 4.77553 21.4833 5.39634 22.1403L16.4159 33.9243Z" fill="black"/>
</svg>
