<svg width="48" height="48" fill="none" xmlns="http://www.w3.org/2000/svg"><g clip-path="url(#prefix__clip0_1773_17077)" fill="#000"><path d="M29.143 14H4.857A4.862 4.862 0 000 18.857v24.286A4.862 4.862 0 004.857 48h24.286A4.862 4.862 0 0034 43.143V18.857A4.862 4.862 0 0029.143 14z"/><path d="M43.143 0H18.857A4.857 4.857 0 0014 4.857v4.857h19.429a4.857 4.857 0 014.857 4.857V34h4.857A4.857 4.857 0 0048 29.143V4.857A4.857 4.857 0 0043.143 0z"/></g><defs><clipPath id="prefix__clip0_1773_17077"><path fill="#fff" d="M0 0h48v48H0z"/></clipPath></defs></svg>