<svg width="48" height="48" fill="none" xmlns="http://www.w3.org/2000/svg"><path d="M17.294 0l-2.197 1.101c0 3.466.087 9.506 1.504 14.17 6.308 1.536 9.49 1.536 15.798 0 1.439-4.653 1.504-9.364 1.515-14.17L31.706 0a56.214 56.214 0 01-2.358 2.875c-.78.883-1.602 1.77-2.392 2.467-.39.348-.768.649-1.147.884-.39.238-.768.443-1.309.443-.541 0-.92-.205-1.31-.443a8.384 8.384 0 01-1.146-.884c-.79-.697-1.612-1.584-2.392-2.467A56.214 56.214 0 0117.294 0zm-.93 17.207L3 43.944c.03.119.087.248.234.41.216.25.603.553 1.148.834 1.09.584 2.783 1.114 4.84 1.536C13.333 47.567 18.927 48 24.5 48s11.167-.433 15.278-1.277c2.056-.422 3.755-.952 4.837-1.536.552-.281.93-.584 1.147-.833a.92.92 0 00.238-.411L32.637 17.208c-6.276 1.503-9.998 1.503-16.274 0z" fill="#000"/></svg>