<svg width="48" height="48" fill="none" xmlns="http://www.w3.org/2000/svg"><g clip-path="url(#prefix__clip0_1398_26072)"><path d="M22 28c1.689 0 3.111-.578 4.267-1.733C27.422 25.11 28 23.689 28 22c0-1.689-.578-3.111-1.733-4.267C25.11 16.578 23.689 16 22 16c-1.689 0-3.111.578-4.267 1.733C16.578 18.89 16 20.311 16 22c0 1.689.578 3.111 1.733 4.267C18.89 27.422 20.311 28 22 28zm12.867 10.667l-7-7c-.89.577-1.833 1-2.832 1.266-1 .267-2.011.4-3.035.4-3.156 0-5.833-1.1-8.032-3.298-2.2-2.2-3.3-4.878-3.301-8.035-.002-3.157 1.098-5.835 3.301-8.032 2.203-2.197 4.88-3.298 8.032-3.301 3.152-.004 5.83 1.097 8.035 3.301 2.204 2.204 3.304 4.882 3.298 8.032 0 1.022-.144 2.034-.432 3.035a10.42 10.42 0 01-1.301 2.832l7.067 7.066-3.8 3.734zM5.333 48c-1.466 0-2.721-.522-3.765-1.565C.524 45.39.002 44.135 0 42.667V32h5.333v10.667H16V48H5.333zM32 48v-5.333h10.667V32H48v10.667c0 1.466-.522 2.722-1.565 3.768-1.044 1.045-2.3 1.567-3.768 1.565H32zM0 16V5.333c0-1.466.523-2.721 1.568-3.765S3.868.002 5.333 0H16v5.333H5.333V16H0zm42.667 0V5.333H32V0h10.667c1.466 0 2.722.523 3.768 1.568 1.045 1.045 1.567 2.3 1.565 3.765V16h-5.333z" fill="#000"/></g><defs><clipPath id="prefix__clip0_1398_26072"><path fill="#fff" d="M0 0h48v48H0z"/></clipPath></defs></svg>