<svg width="48" height="48" fill="none" xmlns="http://www.w3.org/2000/svg"><g clip-path="url(#prefix__clip0_1483_16227)"><path d="M1.273 16.306C4.732 6.09 14.397-.268 24.641.009l-3.283 3.88C15.28 4.988 10.033 9.138 7.97 15.23c-3.069 9.065 2.075 18.997 11.489 22.184 9.413 3.186 19.532-1.58 22.6-10.644 2.057-6.072.426-12.534-3.703-17.096l-.253-5.094c8.279 6.009 12.076 16.913 8.623 27.112-4.249 12.552-17.868 19.282-30.42 15.033-12.55-4.249-19.281-17.868-15.033-30.42m29.7-14.07a.555.555 0 01.703.232l.013.022.012.025c.032.06.058.129.07.214.026.166.037.56.041.961l.001.11.002.374v.1c0 .325-.003.569-.003.569l.094 3.55.14 4.098.174 7.12v.048c-.002.406-.085 3.384-2.197 5.453-2.271 2.225-5.06 2.021-6.876 1.407-1.815-.615-4.154-2.147-4.607-5.294-.385-2.675 1.037-4.924 1.473-5.538l.029-.04c.059-.083.093-.126.093-.126L24.6 9.97l2.6-3.17 2.232-2.763s.328-.44.666-.873l.067-.086c.106-.135.213-.269.322-.401l.058-.069c.083-.099.153-.178.203-.226a.653.653 0 01.175-.121l.043-.022.007-.003z" fill="#0058CC"/></g><defs><clipPath id="prefix__clip0_1483_16227"><path fill="#fff" d="M0 0h48v48H0z"/></clipPath></defs></svg>