<svg width="48" height="48" fill="none" xmlns="http://www.w3.org/2000/svg"><g clip-path="url(#prefix__clip0_1398_24755)"><path d="M0 0h48v48H0V0zm5.333 5.333v5.334h5.334V5.333H5.333zm10.667 0v16h16v-16H16zm21.333 0v5.334h5.334V5.333h-5.334zM42.667 16h-5.334v5.333h5.334V16zm0 10.667h-5.334V32h5.334v-5.333zm0 10.666h-5.334v5.334h5.334v-5.334zM32 42.667v-16H16v16h16zm-21.333 0v-5.334H5.333v5.334h5.334zM5.333 32h5.334v-5.333H5.333V32zm0-10.667h5.334V16H5.333v5.333z" fill="#000"/></g><defs><clipPath id="prefix__clip0_1398_24755"><path fill="#fff" d="M0 0h48v48H0z"/></clipPath></defs></svg>