<svg width="48" height="48" fill="none" xmlns="http://www.w3.org/2000/svg"><path d="M12.142 1L5.504 7.677l-2.59-2.603L0 7.996l4.047 4.068 1.457 1.395 1.457-1.397 8.095-8.135L12.142 1zm9.551 3.498v4.068H48V4.498H21.693zM12.142 17.27l-6.638 6.68-2.59-2.612L0 24.267l4.047 4.067 1.457 1.396 1.457-1.398 8.095-8.135-2.914-2.927zm9.551 3.499v4.067H48V20.77H21.693zM12.142 33.54l-6.638 6.677-2.59-2.603L0 40.537l4.047 4.068L5.504 46l1.457-1.397 8.095-8.136-2.914-2.928v.002zm9.551 3.498v4.068H48v-4.068H21.693z" fill="#000"/></svg>