<svg width="48" height="48" viewBox="0 0 48 48" fill="none" xmlns="http://www.w3.org/2000/svg">
<path fill-rule="evenodd" clip-rule="evenodd" d="M4.8 2C3.52696 2 2.30606 2.51508 1.40589 3.43192C0.505713 4.34877 0 5.59227 0 6.88889V41.1111C0 42.4077 0.505713 43.6512 1.40589 44.5681C2.30606 45.4849 3.52696 46 4.8 46H43.2C44.473 46 45.6939 45.4849 46.5941 44.5681C47.4943 43.6512 48 42.4077 48 41.1111V6.88889C48 5.59227 47.4943 4.34877 46.5941 3.43192C45.6939 2.51508 44.473 2 43.2 2H4.8ZM15.9 15.7622C15.9533 15.2949 16.113 14.8467 16.3665 14.4534C16.6201 14.0601 16.9603 13.7326 17.3602 13.4971C17.76 13.2615 18.2084 13.1244 18.6695 13.0967C19.1306 13.0689 19.5917 13.1513 20.016 13.3373C21.2256 13.8653 23.7792 15.0533 27.0144 16.9551C29.288 18.2786 31.4838 19.7364 33.5904 21.3209C33.9608 21.6016 34.2616 21.9666 34.4689 22.3868C34.6761 22.807 34.784 23.2707 34.784 23.7409C34.784 24.2111 34.6761 24.6748 34.4689 25.095C34.2616 25.5152 33.9608 25.8802 33.5904 26.1609C31.4837 27.7437 29.2879 29.1999 27.0144 30.5218C24.7529 31.8672 22.4161 33.0768 20.016 34.1444C19.5918 34.331 19.1305 34.4138 18.6692 34.3863C18.2079 34.3588 17.7593 34.2218 17.3594 33.9861C16.9594 33.7505 16.6191 33.4228 16.3656 33.0292C16.1122 32.6356 15.9528 32.1871 15.9 31.7196C15.612 29.0702 15.471 26.4064 15.4776 23.7409C15.4776 19.9496 15.7464 17.0944 15.9 15.7622Z" fill="black"/>
</svg>
