<svg width="48" height="48" viewBox="0 0 48 48" fill="none" xmlns="http://www.w3.org/2000/svg">
<path d="M36.7749 6.93616C37.3845 6.32216 38.1082 5.83515 38.9046 5.50295C39.7011 5.17074 40.5546 4.99984 41.4166 5C42.2786 5.00016 43.1322 5.17138 43.9285 5.50388C44.7248 5.83639 45.4483 6.32366 46.0577 6.93788C46.6671 7.55211 47.1505 8.28125 47.4802 9.08369C47.8099 9.88613 47.9796 10.7461 47.9794 11.6146C47.9792 12.4831 47.8093 13.3431 47.4793 14.1454C47.1493 14.9477 46.6656 15.6767 46.056 16.2906L37.0046 25.4102C35.9925 26.43 34.7431 27.1782 33.3703 27.5865L28.344 29.0788C27.7535 29.2538 27.1272 29.2654 26.5307 29.1124C25.9343 28.9595 25.3897 28.6475 24.9541 28.2094C24.5185 27.7713 24.208 27.2231 24.0553 26.6223C23.9025 26.0216 23.913 25.3906 24.0857 24.7954L25.56 19.7278C25.9657 18.3402 26.7107 17.0776 27.7269 16.0557L36.7749 6.93616ZM8.57143 8.45609H30.4183L25.2994 13.6135C23.8792 15.0446 22.8383 16.812 22.272 18.7536L20.7977 23.8178C19.2651 29.0684 24.1097 33.9391 29.3143 32.3916L34.3371 30.8993C36.2603 30.3282 38.0107 29.2807 39.4286 27.8525L48 19.2165V34.364C48 36.6544 47.0969 38.851 45.4895 40.4706C43.882 42.0901 41.7019 43 39.4286 43H8.57143C6.29814 43 4.11797 42.0901 2.51051 40.4706C0.903059 38.851 0 36.6544 0 34.364V26.4431L1.21371 25.2237C3.11657 23.3031 5.91086 21.113 8.48229 19.9108C9.77143 19.3063 10.8583 19.0231 11.6674 19.0403C12.3874 19.0542 12.8229 19.2891 13.1451 19.7761C13.5771 20.429 13.5771 20.9506 13.2994 21.6311C12.9634 22.4602 12.2709 23.348 11.3349 24.4983L11.2183 24.6468C10.3851 25.6659 9.37371 26.9094 8.76343 28.2497C8.07429 29.7559 7.82057 31.5314 8.75314 33.4106C9.78171 35.4867 11.8046 36.2605 13.7451 36.3261C15.6651 36.3918 17.7634 35.8011 19.6149 34.8856C19.818 34.7861 19.9996 34.6471 20.1492 34.4767C20.2989 34.3062 20.4136 34.1076 20.4868 33.8923C20.5601 33.677 20.5903 33.4493 20.5759 33.2222C20.5615 32.9951 20.5027 32.7731 20.4029 32.5689C20.303 32.3648 20.1641 32.1826 19.9942 32.0327C19.8242 31.8828 19.6265 31.7682 19.4125 31.6956C19.1984 31.6229 18.9722 31.5936 18.7469 31.6093C18.5216 31.625 18.3015 31.6854 18.0994 31.787C16.5909 32.5332 15.0617 32.9166 13.8617 32.8752C12.6857 32.8337 12.0994 32.4261 11.8183 31.863C11.4651 31.1514 11.5029 30.5089 11.8766 29.6937C12.2949 28.7748 13.0491 27.8456 13.9886 26.6884L14.0229 26.6469C14.8731 25.6037 15.912 24.3221 16.4743 22.9404C17.1051 21.3859 17.1634 19.6241 15.9977 17.8624C14.9486 16.2734 13.3783 15.617 11.7326 15.586C10.1794 15.5549 8.544 16.0696 7.03543 16.7777C4.54286 17.9453 1.992 19.821 0 21.6242V17.0921C0 14.8017 0.903059 12.6051 2.51051 10.9855C4.11797 9.36595 6.29814 8.45609 8.57143 8.45609Z" fill="black"/>
</svg>
