<svg width="48" height="48" fill="none" xmlns="http://www.w3.org/2000/svg"><path d="M17 4.571V0h14v4.571H17zm4.667 25.143h4.666V16h-4.666v13.714zM24 48c-2.878 0-5.59-.542-8.139-1.627-2.548-1.085-4.774-2.562-6.678-4.43a21.063 21.063 0 01-4.52-6.544C3.556 32.904 3 30.248 3 27.429c0-2.82.555-5.477 1.664-7.973a21 21 0 014.52-6.542c1.903-1.865 4.13-3.34 6.68-4.427 2.55-1.087 5.261-1.63 8.136-1.63 2.411 0 4.725.381 6.942 1.143a22.838 22.838 0 016.241 3.314l3.267-3.2 3.267 3.2-3.267 3.2c1.478 1.905 2.606 3.943 3.383 6.115a20.012 20.012 0 011.167 6.8c0 2.819-.555 5.476-1.664 7.972a21 21 0 01-4.52 6.542c-1.903 1.865-4.13 3.342-6.68 4.43C29.586 47.46 26.875 48.003 24 48z" fill="#000"/></svg>