<svg width="48" height="48" fill="none" xmlns="http://www.w3.org/2000/svg"><g clip-path="url(#prefix__clip0_2122_18916)"><path d="M24 1.847c-13.114 0-24 8.827-24 20.021 0 6.645 3.841 12.448 9.7 16.074-.396 2.17-2.312 4.044-4.136 5.976a1.326 1.326 0 001.128 2.224c4.298-.537 8.255-2.853 11.186-4.912 2.01.442 4.063.664 6.122.662 13.113 0 24-8.829 24-20.024S37.113 1.847 24 1.847zm0 2.65c11.931 0 21.349 7.915 21.349 17.372S35.93 39.24 24 39.24a26.397 26.397 0 01-3.718-.266c-.171-.025-.343-.049-.514-.077a25.285 25.285 0 01-.381-.068 31.117 31.117 0 01-.433-.08c-.157-.031-.313-.066-.47-.1-.127-.027-.256-.054-.382-.083-.27-.063-.538-.13-.805-.202-.446.319-.896.63-1.353.933l-.008.005c-.388.256-.78.505-1.177.749-1.31.814-2.727 1.602-4.207 2.227.662-.906 1.227-1.904 1.561-3.019a7.805 7.805 0 00.247-1.139c.015-.11.024-.223.035-.336.01-.11.022-.218.027-.331.01-.242.011-.49-.005-.743a1.344 1.344 0 00-.042-.276l-.002-.001-.014-.008a22.046 22.046 0 01-1.271-.738c-5.146-3.196-8.436-8.235-8.436-13.82 0-9.456 9.416-17.37 21.348-17.37zm-1.484 1.055c-.439.016-.88.042-1.321.086-.005.006-.005.013-.01.018-.85.721-2.143.582-3.089 1.149-.432.508.64.364.75.509.287-.275.598.134.896.164-.303.218.647.205.21.379.477.211 1.2.153 1.337.726.52.012 1.395.14 1.277.771-.508.124-.557.633-.899.969-.384.179-.2.525-.536.684-.81.227-1.658.343-2.459.602-.386.291-1.14 1.096-1.465.311-.132-.667.452-1.213.964-1.621.189-.41 1.225-.601.845-1.11-.103-.098.081-.381-.27-.18-.58.046-.7.657-1.032 1.008-.374.174-.042.42-.32.613-.54.221-1.184.352-1.53.826-.491.483-.277 1.105-.437 1.67-.466.196-.117.641-.316.951-.228.548-.999-.017-1.125-.041-.287.353-.955.363-1.381.38-.479-.506-.558.328-1.095.28-.734.02-1.004.682-1.494 1.04-.61.138-1.274.454-1.33 1.092-.14.413.006-.072.17.223.377.56-.574.953-.386 1.478.39.494 1.04.616 1.525.977.259.714-.818.013-1.093.346-.45-.312-.398-.817-1.125-.927.08-.16.127-.383-.139-.5-.78-.368-1.065.5-1.29.984.062.043.777.252.6.679-.163.339-.629 1.36.166 1.198.328-.02.634-.148.765-.408.342-.146.554-.284.942-.132.253.262.184.167 1.592.482.284.266.13.89.687 1.05.596.159 1.236.4 1.352 1.023-.139.63.713.495 1.134.79.647.2 1.357.35 1.907.777.519.597-.189 1.205-.473 1.722-.096.575.077 1.177-.183 1.735-.117.632-1.285.407-1.121 1.149.077.59-.182 1.154-.335 1.718-.485.243-.009.688-.283 1.036-.466.104-.265.52-.163.805-.15.329.246.561.07.791.721.109.29.86.856 1.127.264.369 1.096.12.888.702-.469.457-1.202.118-1.77-.08a20.871 20.871 0 003.636 1.457.7.7 0 01.128-.66c.233.093.374-.05.44.452-.022.208.077.334.223.428.447.117.9.224 1.359.317a.466.466 0 01.471.087c.341.062.685.118 1.032.168-.033-.104-.082-.236.004-.321.313.099.714.029.773-.376.581-.075.477-.777.94-.988.608-.102 1.229-.095 1.832-.239.078-.008.154-.012.23-.012.531 0 1.025.187 1.553.216.44-.205.78-.046 1.25.003.572.07 2.197-.507 2.638-.048-.211.398.505.333.42.756.275.309.79.395 1.438.333 5.216-1.678 10.01-5.445 11.98-10.4-.28-.212-.55-.431-.617-.777-.122-.488-.398-.95-.488-1.455-.187-.626-.286-1.3-.744-1.826-.44-.37.187-.903.536-.425.073-.412-.614-.912-.453-1.43-.144-.507-.156-1.34-.91-1.377-.368-.388-.335-1.191-1.052-1.245-.461.377-.285 1.054-.621 1.516-.206.623.075 1.282.382 1.848.383.317.107 1.201-.44.753 0-.405-.48-.258-.664-.61-.255-.692-.686-1.333-1.03-2 .022-.638-.848-.565-1.048-1.052-.418-.591-1.215-.24-1.824-.274-.44-.043-.876.015-1.216-.255l-.61-.35c-.015-.011-.046-.044-.099-.083-.003.005-.023-.001-.034-.002-.011 0-.014.005.015.031.043.063.076.095.087.118.235.166.576.345.778.585.413.086.788 0 1.157.06.332.175.605.577.385.984-.082.539-.646.763-1.02 1.121-.882.577-1.276.655-2.184-.219-.388-.307-.624-.736-.899-1.041-.275-.305-.548-.609-.794-.868-.088-.084.465.576.638.803.172.227.27.408.361.59.027.13.285.452.48.604h-.001l1.027.91c.306.307 1.018-.565 1.424-.124a2.947 2.947 0 01-.906 2.184c-.548.41-1.056 1.763-1.364 2.34-.146.677.398 1.354.073 2.026-.114.676-1.266.487-1.253 1.186.173.602-.477.756-.776 1.176-.225.482-.73.796-1.172 1.125-.5.382-1.184.066-1.73.317-.713.081-.308-.822-.606-1.15-.457-.532-.199-1.217-.563-1.764-.396-.477-.335-1.124.081-1.572.184-.554-.072-1.211-.469-1.664-.67-.316-.176-.932-.343-1.39-.435-.054-.804-.18-1.156-.442-.57.142-1.158.34-1.796.267-.687.318-1.257-.203-1.76-.548-.168-.476-.775-1.566-.905-2.037-.338-.274-.154-.494.107-.718.155-.518-.228-1.104.31-1.525.247-.53.825-.703 1.2-1.086.086-.466.554-.689.824-.984-.799.072-.537-.644-.43-1.083-.242-.906 1.061-.24 1.368-.666.025-.364-.044-.762-.77-.684-.057.006.081-.17.046-.207 0 0 .307-.086.334-.096.382-.267.648-.488 1.222-.385-.027-.013.604-.233.557-.476.548-.038 1.113-.117 1.644-.068.015-.117.314-.598.045-.754-.022-.022-.226-.115-.237-.239.002-.037-.03-.096-.14-.182.04.185.145.498.103.76-.421.317-1.26.391-1.627.265-.22-.196-.49-.53-.072-1.175.575-.305.611-1.02 1.172-1.35.48-.365 1.045.042 1.559.005.551-.083 1.142.003 1.397-.48.199-.272-.173-.496-.366-.76a.38.38 0 00-.112-.713c-.177-.65-.902-.293-1.405-.411-.445.025-.539-.423-.04-.413.553-.03 1.185-.337 1.597-.377-.425-.16.098-.793-.527-.707-.47.271-1.206.334-1.471-.207-.232-.506.87-.036.634-.148-.38-.445-1.081-.624-1.675-.75-.667-.185-1.302.223-1.956.085.048-.102.045-.172.022-.229zm-.872 11.445l-.103.098c1.176-.308 2.424-.54 3.696.103.427.194.923.355 1.333.53.144-.437.673-.542 1.113-.342.528.176 1.121.088 1.654.015.35-.324-.08-.41-.39-.323-.34-.168-.801-.102-1.16-.375-.022-.117-.258-.397-.351-.521-.031-.01.19.322.077.48-.216.171-.5.2-.678.074a6.23 6.23 0 01-.349-.392.211.211 0 00-.12-.018c-.255.04-.352.622-.593.633-.425-.121-.497.09-.512-.407.719-.048-.09-.505-.362-.63-.023-.013-.038-.015-.047-.01-.065.026.146.398.085.465-.059.078-.066.135-.162.214l-.39-.03c.091-.164-.32-.62-.118-.836-.42-.001-.835.274-1.053.578-.081.108-.117.184-.124.24l-.027.002s-.936.354-.966.354c-.03 0-.451.098-.451.098h-.002zm3.391-8.203c.188.01.434.118.325.266.346.307-.181.291-.406.182-.411.26-.286-.295-.07-.42a.272.272 0 01.151-.028m1.544.093c.52-.041.27.945.82 1.017.621.11 0 .621-.372.406-.496-.257-.929-.913-.564-1.4a.523.523 0 01.116-.023zm-2.453.236c.595.046.505 1.037-.195.913-.712-.052-.694-.849-.002-.911l.07.003a.578.578 0 01.127-.005zm-5.861.03c-.019.01-.014.078.025.017-.01-.017-.019-.02-.025-.016zm-2.215.674a.48.48 0 00-.118.003c-.223.03-.092.13.036.106.315.15.323-.081.082-.109zm-1.392.016c-.04.004-.081.013-.12.013-.68.048-1.244.592-1.206 1.2.118.711.7-.028 1.027-.197.566-.201.25-.635.42-1a.24.24 0 00-.12-.015m1.082 1.257c-.43.025-.006.302 0 0zm23.43.187c-.088.29.37.687.668.88.524.26.93.663 1.294 1.083.33.345.335.844.768 1.12.08.091.18.19.278.295a16.223 16.223 0 00-2.487-3.113c-.166-.035-.377-.16-.521-.265zm-18.623.014c.105-.008.214.034.313.064.366-.128.944.073.753.518-.387.355-1.266.345-1.558-.127-.5-.31.284-.134.387-.427a.336.336 0 01.105-.028zm1.872 1.468a.787.787 0 01.481.15c-.11.234-.002.445.15.62l-.072.254c-.547.19-.932.384-1.54.45-.487-.27.191-.79.505-.988-.017-.316.21-.478.476-.486zm-8.632.733c-.013-.007-.026-.01-.043.003-.556.19.286.31.081.02-.014-.004-.026-.016-.038-.023zm17.075 1.175c-.084.112.448.487.673.612.187-.15-.548-.395-.673-.611zm-2.754.264c-.06.124-.135.245-.163.38.097.646 1.09-.283 1.546.117.421.117.207-.152-.032-.218-.395-.29-1.123.292-1.351-.278zm14.551.568c0 .085-.012.17-.059.255-.585-.244-.215.404-.341.77-.385.463.752 1.288-.034 1.482-.048.327.755.777.763 1.273.292.665.081 1.385-.175 2.03-.214.093-.407-.577-.59-.792-.312-.628-.278.248-.105.498.248.564.768 1.02.768 1.662.198.484-.02.97.121 1.467.435.49-.034 1.164.33 1.671a.4.4 0 01.301.05c.07-.221.136-.444.195-.67-.517-.081-.38-.819-.504-1.21-.084-.465-.051-.975.371-1.308.422-.459.029-1.181.545-1.582a16.208 16.208 0 00-.022-.324.24.24 0 01-.094.026c-.196-.356-.242-.905-.087-1.333a12.853 12.853 0 00-.106-.5c-.152-.317-.224-.595-.475-.927-.037-.389-.606-1.023-.235-1.313-.17-.417-.359-.826-.566-1.225zm-10.914.091c-.127.013-.053.204.02.263.388.342.531-.224.047-.257a.193.193 0 00-.067-.006zm-24.765.373l-.066.004c-.505.2-.743.673-.997 1.08-.165.404-.504.82-.404 1.255.41.62.535-.492 1.04-.323.484.264.815-.333 1.23-.124.152.24.67.19.317-.063-.464-.33-.12-.845-.055-1.24.013-.685-.939.108-1.01-.562l-.055-.027zm20.558.844c.25.081.513.053.373.304-.323-.001-1.173-.123-.373-.304zM4.2 18.506a14.112 14.112 0 00-.487 3.394c.92 6.647 4.333 11.047 9.068 13.569-.228-.37-.622-.65-.909-.985-.292-.486-.635-.942-.976-1.402-.439-.52-.516-1.17-.806-1.75-.317-.498-.452-1.057-.633-1.6-.219-.528-.2-1.158-.665-1.583-.555-.331-1.188-.614-1.362-1.257-.242-.638-.827-1.135-.996-1.796.221-.513-.156-1.108.241-1.587.252-.368.825-1.185.216-1.398-.362.189-.531-.033-.67-.333-.432-.434-.101-1.04-.602-1.453-.38-.209-.247-.678-.584-.825-.542-.176-.743-.623-.835-.994m3.604.604a.76.76 0 01.217.036.487.487 0 01.195.12c.111.205.27.303.038.358-.35.078-.825-.509-.45-.514zm26.11 1.428c.01 0 .017.007.02.028-.082.045-.047-.026-.02-.028zm9.047 3.58c-.027.004-.05.03.015.073.045-.055.013-.076-.015-.072zm-9.764 2.959c.483.023.336.64.39.93-.252.415-.495.836-.73 1.262-.211.416-.452 1.078-1.124.846-.544-.44.024-1.093.163-1.59-.267-.697 1.117-.564.84-1.193.214.2.374-.114.46-.255m-.316 7.177c.25.023.294.348.226.518-.52.457-.873-.424-.227-.518zm-18.217.115c.207.115.367-.022.296.395-.328.667-1.032-.38-.296-.395" fill="#000"/></g><defs><clipPath id="prefix__clip0_2122_18916"><path fill="#fff" d="M0 0h48v48H0z"/></clipPath></defs></svg>