<svg width="48" height="48" fill="none" xmlns="http://www.w3.org/2000/svg"><g clip-path="url(#prefix__clip0_1745_19462)"><path d="M24 29.11L6.114 46.996C5.444 47.666 4.594 48 3.56 48c-1.034 0-1.886-.335-2.555-1.004C.334 46.327 0 45.476 0 44.441c0-1.034.335-1.886 1.004-2.555L18.89 24 1.004 6.114C.334 5.444 0 4.594 0 3.56c0-1.034.335-1.886 1.004-2.555C1.673.334 2.524 0 3.559 0c1.034 0 1.886.335 2.555 1.004L24 18.89 41.886 1.004C42.556.334 43.406 0 44.44 0c1.034 0 1.886.335 2.555 1.004.67.669 1.004 1.52 1.004 2.555 0 1.034-.335 1.886-1.004 2.555L29.11 24l17.886 17.886c.67.67 1.004 1.52 1.004 2.555 0 1.034-.335 1.886-1.004 2.555-.669.67-1.52 1.004-2.555 1.004-1.034 0-1.886-.335-2.555-1.004L24 29.11z" fill="#000"/></g><defs><clipPath id="prefix__clip0_1745_19462"><path fill="#fff" d="M0 0h48v48H0z"/></clipPath></defs></svg>