<svg width="48" height="48" fill="none" xmlns="http://www.w3.org/2000/svg"><g clip-path="url(#prefix__clip0_1809_17658)"><path d="M48 7.5c0 1.688-1.34 3.244-3.6 4.5-2.728 1.51-6.797 2.578-11.466 2.897a13.418 13.418 0 00-1.059-.469C28.181 12.881 23.269 12 18 12c-.778 0-1.538.019-2.297.056L15.6 12C13.34 10.744 12 9.187 12 7.5 12 3.356 20.063 0 30 0c9.938 0 18 3.356 18 7.5zm-32.934 7.603A42.98 42.98 0 0118 15c5.831 0 11.006 1.153 14.297 2.944C34.622 19.209 36 20.784 36 22.5c0 .375-.066.74-.197 1.097-.431 1.237-1.594 2.372-3.281 3.328-.01.01-.028.01-.038.019-.028.018-.056.028-.084.047-3.281 1.818-8.512 3-14.4 3-5.588 0-10.584-1.06-13.894-2.729a8.928 8.928 0 01-.515-.271C1.34 25.744 0 24.188 0 22.5c0-3.262 5.006-6.047 12-7.069.984-.14 2.006-.253 3.066-.328zM39 22.5c0-2.053-.994-3.74-2.26-5.006 2.654-.413 5.082-1.069 7.144-1.922 1.529-.638 2.953-1.425 4.116-2.39V16.5c0 1.81-1.547 3.478-4.106 4.772-1.369.694-3.038 1.284-4.913 1.734.01-.169.019-.328.019-.497V22.5zm-3 9c0 1.688-1.34 3.244-3.6 4.5-.169.094-.337.178-.516.272C28.584 37.94 23.587 39 18 39c-5.887 0-11.119-1.181-14.4-3C1.34 34.744 0 33.187 0 31.5v-3.319c1.172.966 2.587 1.753 4.116 2.39C7.819 32.12 12.73 33 18 33s10.181-.881 13.884-2.428c.732-.3 1.435-.647 2.1-1.022a14.899 14.899 0 001.613-1.05c.14-.103.272-.216.403-.319V31.5zm3 0v-5.428c1.781-.394 3.422-.89 4.884-1.5 1.529-.638 2.953-1.425 4.116-2.39V25.5c0 .984-.469 1.969-1.397 2.897-1.528 1.528-4.219 2.784-7.622 3.6.01-.16.019-.328.019-.497zM18 42c5.269 0 10.181-.881 13.884-2.428 1.529-.638 2.953-1.425 4.116-2.39V40.5c0 4.144-8.063 7.5-18 7.5-9.938 0-18-3.356-18-7.5v-3.319c1.172.966 2.587 1.753 4.116 2.39C7.819 41.12 12.73 42 18 42z" fill="#000"/></g><defs><clipPath id="prefix__clip0_1809_17658"><path fill="#fff" d="M0 0h48v48H0z"/></clipPath></defs></svg>