<svg width="48" height="48" fill="none" xmlns="http://www.w3.org/2000/svg"><path d="M33.096 4.8h2.779c1.89 0 3.702.759 5.038 2.109A7.239 7.239 0 0143 12v28.8c0 1.91-.75 3.74-2.087 5.091A7.088 7.088 0 0135.875 48h-23.75a7.088 7.088 0 01-5.038-2.109A7.239 7.239 0 015 40.8V12c0-1.91.75-3.74 2.087-5.091A7.088 7.088 0 0112.125 4.8h2.779a7.192 7.192 0 012.605-3.48A7.074 7.074 0 0121.625 0h4.75c1.474 0 2.912.46 4.116 1.32a7.193 7.193 0 012.605 3.48zM19.25 7.2c0 .637.25 1.247.696 1.697.445.45 1.05.703 1.679.703h4.75c.63 0 1.234-.253 1.68-.703.445-.45.695-1.06.695-1.697s-.25-1.247-.696-1.697a2.363 2.363 0 00-1.679-.703h-4.75c-.63 0-1.234.253-1.68.703A2.413 2.413 0 0019.25 7.2zm9.5 12c0-1.273-.5-2.494-1.391-3.394A4.725 4.725 0 0024 14.4c-1.26 0-2.468.506-3.359 1.406A4.826 4.826 0 0019.25 19.2c0 1.273.5 2.494 1.391 3.394.891.9 2.1 1.406 3.359 1.406 1.26 0 2.468-.506 3.359-1.406A4.826 4.826 0 0028.75 19.2zm-14.25 12v.014a6.244 6.244 0 00.18 1.32 7.008 7.008 0 001.188 2.506c1.425 1.93 3.99 3.36 8.132 3.36 4.142 0 6.702-1.43 8.137-3.36a7.05 7.05 0 001.334-3.38c.017-.148.026-.296.029-.446V31.2c0-.636-.25-1.247-.696-1.697a2.363 2.363 0 00-1.679-.703h-14.25c-.63 0-1.234.253-1.68.703A2.413 2.413 0 0014.5 31.2z" fill="#000"/></svg>