<svg width="48" height="48" viewBox="0 0 48 48" fill="none" xmlns="http://www.w3.org/2000/svg">
<path fill-rule="evenodd" clip-rule="evenodd" d="M34.2667 14.8278C34.7679 14.828 35.2581 14.976 35.6771 15.2536C36.096 15.5313 36.4253 15.9264 36.6244 16.3904L47.762 42.3176C47.9061 42.6315 47.9865 42.9713 47.9984 43.317C48.0104 43.6628 47.9536 44.0074 47.8315 44.3307C47.7093 44.6539 47.5243 44.9493 47.2873 45.1993C47.0503 45.4493 46.766 45.6489 46.4513 45.7864C46.1367 45.9239 45.7979 45.9965 45.455 45.9999C45.112 46.0033 44.7719 45.9374 44.4546 45.8061C44.1373 45.6749 43.8493 45.4809 43.6075 45.2356C43.3656 44.9903 43.1749 44.6987 43.0465 44.3779L40.7436 39.0266H27.7863L25.4903 44.3779C25.2194 45.0092 24.7111 45.506 24.0771 45.7592C23.4431 46.0124 22.7354 46.0011 22.1096 45.7279C21.4838 45.4547 20.9913 44.9419 20.7403 44.3023C20.4894 43.6628 20.5005 42.9488 20.7714 42.3176L31.9089 16.3904C32.1081 15.9264 32.4374 15.5313 32.8563 15.2536C33.2752 14.976 33.7655 14.828 34.2667 14.8278ZM30.0173 33.8411H38.5161L34.2667 23.9404L30.0173 33.8411ZM13.705 1C14.3867 1 15.0404 1.27316 15.5224 1.75939C16.0044 2.24562 16.2752 2.90509 16.2752 3.59272V7.95195C19.2535 8.03875 22.2253 8.28222 25.1784 8.68137C25.8542 8.77305 26.4661 9.13177 26.8797 9.67862C27.2933 10.2255 27.4746 10.9156 27.3837 11.5973C27.2928 12.279 26.9372 12.8963 26.3951 13.3135C25.853 13.7307 25.1688 13.9136 24.493 13.8219C23.7391 13.7182 22.9829 13.626 22.2244 13.5453C21.016 17.7387 19.2081 21.7319 16.8578 25.3992C17.6711 26.4501 18.5302 27.4561 19.4349 28.4172C19.9052 28.915 20.1602 29.5809 20.1439 30.2685C20.1275 30.956 19.841 31.6088 19.3475 32.0833C18.854 32.5577 18.1938 32.815 17.5122 32.7985C16.8307 32.7819 16.1836 32.493 15.7132 31.9951C15.0185 31.2589 14.3487 30.499 13.705 29.717C10.9064 33.1178 7.62579 36.0835 3.96908 38.5184C3.40059 38.8798 2.7144 39.0022 2.05752 38.8595C1.40063 38.7167 0.825289 38.3201 0.45473 37.7547C0.0841708 37.1892 -0.0521315 36.4999 0.0750205 35.8343C0.202172 35.1687 0.582666 34.5798 1.135 34.1937C4.72579 31.795 7.90632 28.8237 10.5522 25.3958C9.87475 24.3421 9.24136 23.2603 8.65371 22.1531C8.33242 21.5466 8.26312 20.8362 8.46107 20.1782C8.65901 19.5202 9.10798 18.9684 9.70921 18.6443C10.3104 18.3202 11.0147 18.2503 11.667 18.45C12.3193 18.6497 12.8663 19.1026 13.1876 19.7091L13.7016 20.6459C15.0312 18.2952 16.1279 15.7889 16.964 13.165C12.2706 12.9789 7.56988 13.1986 2.91358 13.8219C2.23783 13.9136 1.55364 13.7307 1.01155 13.3135C0.469448 12.8963 0.113841 12.279 0.0229529 11.5973C-0.0679352 10.9156 0.113341 10.2255 0.526903 9.67862C0.940466 9.13178 1.55244 8.77305 2.22819 8.68137C5.15251 8.28727 8.12025 8.04413 11.1314 7.95195V3.59272C11.1314 3.25195 11.198 2.91452 11.3274 2.59973C11.4567 2.28494 11.6464 1.99897 11.8854 1.75817C12.1244 1.51737 12.4082 1.32646 12.7204 1.19637C13.0326 1.06628 13.3672 0.999548 13.705 1Z" fill="black"/>
</svg>
