<svg width="48" height="49" viewBox="0 0 48 49" fill="none" xmlns="http://www.w3.org/2000/svg">
<path d="M31.9194 13.0306C31.9198 13.0086 31.9191 12.9866 31.9176 12.9647C31.9005 12.707 31.7746 12.4152 31.6861 12.1715C31.1844 10.7908 30.3483 9.49028 29.2294 8.52947C27.9174 7.40279 26.3538 6.70015 24.6259 6.54232C24.2491 6.5079 23.884 6.48748 23.5057 6.51698C21.7311 6.65543 20.1376 7.25867 18.7647 8.4033C18.4709 8.6483 18.187 8.89131 17.9381 9.18329C17.1025 10.1638 16.4773 11.1796 16.0703 12.4053C16.0172 12.565 15.8967 12.8408 15.9095 13.0039L15.9668 13.0252C15.8469 13.0625 15.6683 13.0424 15.5389 13.0515C15.2652 13.0713 14.9921 13.0966 14.7195 13.1273C13.275 13.2833 11.7611 13.3974 10.3584 13.7872C10.4829 12.8615 10.6094 11.9583 10.8477 11.0531C11.6022 8.18625 13.2812 5.51407 15.6492 3.71031C15.739 3.64218 15.8295 3.57517 15.9209 3.50928C16.0122 3.4434 16.1044 3.37866 16.1974 3.31506C16.2904 3.25146 16.3841 3.18903 16.4787 3.12776C16.5732 3.06649 16.6685 3.00641 16.7645 2.9475C16.8605 2.88859 16.9572 2.83088 17.0547 2.77438C17.1521 2.71787 17.2503 2.66259 17.3491 2.60852C17.4479 2.55445 17.5474 2.50162 17.6476 2.45001C17.7477 2.39841 17.8485 2.34807 17.9498 2.29897C18.0512 2.24987 18.1532 2.20203 18.2558 2.15547C18.3583 2.1089 18.4615 2.06361 18.5652 2.0196C18.6689 1.97559 18.7731 1.93287 18.8779 1.89145C18.9826 1.85003 19.0879 1.80991 19.1936 1.7711C19.2994 1.73229 19.4056 1.6948 19.5123 1.65863C19.6189 1.62246 19.7261 1.58761 19.8336 1.5541C19.9412 1.52058 20.0491 1.48841 20.1575 1.45757C20.2658 1.42674 20.3746 1.39725 20.4836 1.36911C20.5927 1.34097 20.7021 1.31419 20.8118 1.28877C20.9216 1.26335 21.0316 1.2393 21.142 1.2166C21.2523 1.19391 21.3629 1.1726 21.4738 1.15265C21.5846 1.1327 21.6957 1.11413 21.8071 1.09694C21.9184 1.07976 22.03 1.06395 22.1417 1.04953C22.2534 1.03511 22.3653 1.02208 22.4773 1.01044C22.5894 0.998793 22.7015 0.98854 22.8139 0.979679C22.9262 0.970818 23.0386 0.963354 23.151 0.957287C23.2635 0.951215 23.3761 0.94654 23.4887 0.943262C23.6013 0.939988 23.7139 0.938109 23.8266 0.937624C23.9392 0.937144 24.0518 0.93806 24.1645 0.940373C24.2771 0.942686 24.3897 0.946396 24.5022 0.951502C24.6147 0.956613 24.7272 0.963116 24.8396 0.971012C24.9519 0.978912 25.0642 0.988204 25.1763 0.998889C25.2884 1.00957 25.4004 1.02165 25.5123 1.03511C25.6241 1.04858 25.7358 1.06343 25.8473 1.07966C25.9556 1.094 26.0638 1.10966 26.1717 1.12666C26.2797 1.14367 26.3875 1.162 26.495 1.18167C26.6025 1.20133 26.7098 1.22232 26.8167 1.24463C26.9238 1.26695 27.0305 1.29058 27.1369 1.31553C27.2433 1.34048 27.3494 1.36675 27.4551 1.39432C27.5609 1.42189 27.6664 1.45076 27.7714 1.48094C27.8764 1.51112 27.9811 1.54259 28.0854 1.57535C28.1897 1.60811 28.2935 1.64215 28.3969 1.67747C28.5004 1.7128 28.6033 1.7494 28.7059 1.78727C28.8084 1.82514 28.9105 1.86427 29.0121 1.90466C29.1136 1.94505 29.2146 1.98669 29.3152 2.02958C29.4157 2.07247 29.5157 2.11659 29.6152 2.16195C29.7146 2.20731 29.8135 2.25389 29.9117 2.30169C30.0101 2.34949 30.1078 2.39849 30.2049 2.44871C30.3019 2.49892 30.3984 2.55033 30.4942 2.60292C30.59 2.65552 30.6851 2.70929 30.7796 2.76424C30.8741 2.81918 30.9679 2.87529 31.061 2.93255C31.1541 2.98981 31.2465 3.04822 31.3381 3.10777C31.4298 3.16731 31.5207 3.22798 31.6108 3.28977C31.701 3.35156 31.7904 3.41446 31.879 3.47846C31.9676 3.54245 32.0554 3.60754 32.1424 3.67371C32.2294 3.73987 32.3156 3.80711 32.4009 3.8754C32.4863 3.9437 32.5708 4.01304 32.6544 4.08342C32.738 4.15381 32.8207 4.22521 32.9026 4.29764C32.9844 4.37007 33.0654 4.4435 33.1455 4.51792C33.2255 4.59235 33.3046 4.66776 33.3828 4.74414C33.4609 4.82052 33.5382 4.89786 33.6145 4.97615C33.6907 5.05444 33.766 5.13365 33.8403 5.21381C33.9146 5.29395 33.988 5.37501 34.0603 5.45697C34.1326 5.53893 34.2039 5.62178 34.2741 5.7055C34.3444 5.78922 34.4137 5.87379 34.4819 5.95923C34.55 6.04466 34.6171 6.13092 34.6832 6.21801C34.7638 6.3255 34.8428 6.4341 34.9203 6.54384C34.9978 6.65357 35.0737 6.76438 35.1481 6.87628C35.2224 6.98815 35.2952 7.10107 35.3663 7.21503C35.4375 7.329 35.507 7.44396 35.5749 7.55992C35.6427 7.67584 35.7089 7.79272 35.7735 7.91055C35.8381 8.02838 35.9009 8.14708 35.9621 8.26665C36.0233 8.38626 36.0827 8.50672 36.1405 8.62802C36.1982 8.74932 36.2542 8.87142 36.3085 8.99433C36.3628 9.11723 36.4153 9.24087 36.4661 9.36524C36.5169 9.48961 36.5658 9.61469 36.613 9.74049C36.6602 9.86628 36.7056 9.9927 36.7492 10.1197C36.7929 10.2468 36.8347 10.3745 36.8747 10.5028C36.9146 10.631 36.9527 10.7598 36.9891 10.8892C37.0254 11.0185 37.0598 11.1484 37.0924 11.2786C37.1251 11.409 37.1559 11.5398 37.1848 11.671C37.2137 11.8022 37.2407 11.9337 37.2659 12.0657C37.3817 12.656 37.4395 13.2482 37.5268 13.8419C36.781 13.577 35.5979 13.4335 34.8019 13.333C33.8437 13.2074 32.8829 13.1066 31.9194 13.0306Z" fill="#205793"/>
<path d="M15.9668 13.0251C17.3444 12.8438 18.77 12.7945 20.158 12.7414C22.3897 12.6535 24.6219 12.6406 26.8545 12.7024C28.5467 12.7618 30.2316 12.901 31.9194 13.0305C32.8828 13.1065 33.8437 13.2073 34.8019 13.3329C35.5979 13.4333 36.781 13.5769 37.5268 13.8418L37.5665 13.8608C37.9671 14.049 38.3981 14.1623 38.7953 14.3672C38.8536 14.3969 38.9115 14.4272 38.9691 14.4581C39.0267 14.4891 39.0839 14.5207 39.1407 14.553C39.1975 14.5853 39.254 14.6183 39.3101 14.6519C39.3661 14.6855 39.4218 14.7198 39.4771 14.7546C39.5323 14.7896 39.5872 14.8251 39.6417 14.8613C39.6961 14.8974 39.7502 14.9342 39.8038 14.9717C39.8574 15.0091 39.9105 15.0471 39.9632 15.0858C40.0159 15.1244 40.0682 15.1637 40.12 15.2036C40.1718 15.2435 40.2231 15.2839 40.2739 15.325C40.3248 15.366 40.3752 15.4077 40.4251 15.45C40.475 15.4922 40.5244 15.535 40.5733 15.5784C40.6222 15.6218 40.6706 15.6657 40.7185 15.7102C40.7664 15.7547 40.8137 15.7998 40.8606 15.8454C40.9074 15.891 40.9537 15.9371 40.9995 15.9838C41.0453 16.0305 41.0905 16.0777 41.1351 16.1254C41.1798 16.1731 41.2239 16.2214 41.2674 16.2701C41.311 16.3189 41.354 16.3681 41.3964 16.4179C41.4388 16.4676 41.4806 16.5179 41.5219 16.5686C41.5631 16.6193 41.6038 16.6705 41.6438 16.7222C41.6839 16.7738 41.7233 16.826 41.7621 16.8786C41.801 16.9311 41.8392 16.9842 41.8768 17.0376C41.9145 17.0911 41.9514 17.145 41.9878 17.1993C42.0242 17.2536 42.0599 17.3083 42.0949 17.3635C42.13 17.4187 42.1645 17.4742 42.1983 17.5302C42.2321 17.5861 42.2653 17.6425 42.2978 17.6992C42.3303 17.7559 42.3621 17.813 42.3933 17.8705C42.4244 17.9279 42.4549 17.9858 42.4847 18.0439C42.5146 18.1021 42.5437 18.1606 42.5722 18.2195C42.6007 18.2783 42.6285 18.3374 42.6555 18.397C42.6826 18.4564 42.709 18.5162 42.7347 18.5764C42.7605 18.6365 42.7855 18.6969 42.8097 18.7575C42.834 18.8182 42.8576 18.8792 42.8805 18.9404C43.4794 20.5503 43.4399 22.1416 43.3357 23.8265C43.0972 27.68 42.2413 31.3867 40.623 34.9033C40.4912 35.1838 40.3548 35.462 40.2137 35.7379C40.0726 36.0138 39.9269 36.2873 39.7767 36.5584C39.6265 36.8295 39.4718 37.098 39.3126 37.3638C39.1534 37.6297 38.9898 37.8929 38.8218 38.1533C38.6538 38.4137 38.4815 38.6713 38.3049 38.9259C38.1283 39.1806 37.9475 39.4322 37.7624 39.6808C37.5774 39.9294 37.3883 40.1749 37.1951 40.4171C37.0019 40.6594 36.8046 40.8984 36.6034 41.1341C36.5704 41.0295 36.5361 40.9253 36.5005 40.8215C36.4649 40.7177 36.428 40.6144 36.3899 40.5116C36.3517 40.4088 36.3123 40.3064 36.2716 40.2045C36.2309 40.1026 36.1889 40.0013 36.1458 39.9004C36.1025 39.7996 36.0581 39.6993 36.0124 39.5996C35.9667 39.4998 35.9198 39.4007 35.8717 39.3021C35.8235 39.2035 35.7741 39.1056 35.7235 39.0083C35.673 38.9109 35.6212 38.8142 35.5682 38.7182C35.5152 38.6221 35.4611 38.5267 35.4057 38.4319C35.3504 38.3372 35.2939 38.2432 35.2363 38.1499C35.1786 38.0566 35.1197 37.964 35.0598 37.8721C34.9998 37.7802 34.9387 37.6891 34.8765 37.5988C34.8143 37.5084 34.751 37.4188 34.6865 37.3301C34.6221 37.2413 34.5565 37.1533 34.49 37.0662C34.4233 36.979 34.3556 36.8927 34.2869 36.8072C34.2181 36.7217 34.1483 36.6371 34.0774 36.5533C34.0066 36.4696 33.9347 36.3868 33.8618 36.3048C33.7889 36.2228 33.715 36.1418 33.64 36.0617C33.5651 35.9815 33.4892 35.9023 33.4123 35.8241C33.3354 35.7458 33.2576 35.6685 33.1788 35.5922C33.1 35.5159 33.0202 35.4405 32.9396 35.3662C32.8589 35.2918 32.7774 35.2185 32.6949 35.1462C32.6124 35.0738 32.529 35.0026 32.4448 34.9323C32.3605 34.862 32.2754 34.7928 32.1894 34.7247C32.1035 34.6565 32.0167 34.5895 31.9291 34.5234C31.8414 34.4574 31.753 34.3925 31.6637 34.3287C31.5745 34.2649 31.4845 34.2022 31.3937 34.1407C31.3029 34.0791 31.2114 34.0186 31.1191 33.9593C31.0268 33.9 30.9338 33.8419 30.84 33.7849C30.7463 33.7279 30.6519 33.672 30.5568 33.6173C30.4617 33.5627 30.3659 33.5092 30.2695 33.4569C30.173 33.4046 30.076 33.3535 29.9782 33.3037C29.8821 33.2553 29.7853 33.208 29.688 33.162C29.5907 33.1159 29.4928 33.0711 29.3944 33.0274C29.296 32.9838 29.197 32.9413 29.0976 32.9001C28.9981 32.8588 28.8982 32.8188 28.7978 32.78C28.6973 32.7412 28.5965 32.7036 28.4951 32.6673C28.3938 32.6309 28.292 32.5958 28.1898 32.5619C28.0876 32.5281 27.985 32.4955 27.882 32.4641C27.779 32.4328 27.6756 32.4027 27.5719 32.3738C27.4682 32.345 27.3641 32.3174 27.2597 32.2911C27.1553 32.2648 27.0506 32.2398 26.9456 32.216C26.8405 32.1923 26.7353 32.1698 26.6297 32.1486C26.5241 32.1275 26.4183 32.1076 26.3123 32.089C26.2062 32.0704 26.1 32.0531 25.9935 32.0371C25.887 32.0211 25.7804 32.0064 25.6736 31.993C25.5667 31.9796 25.4597 31.9675 25.3526 31.9567C25.2455 31.9459 25.1383 31.9364 25.0309 31.9283C24.9236 31.9201 24.8161 31.9132 24.7085 31.9076C24.601 31.9021 24.4935 31.8979 24.3859 31.895C24.2782 31.892 24.1706 31.8904 24.0629 31.8901C23.9552 31.8898 23.8476 31.8908 23.7399 31.8932C23.6323 31.8955 23.5247 31.8991 23.4171 31.904C23.3096 31.909 23.2021 31.9152 23.0947 31.9229C22.9873 31.9304 22.8801 31.9393 22.7729 31.9495C22.6657 31.9597 22.5586 31.9712 22.4517 31.984C22.3448 31.9968 22.2381 32.0109 22.1315 32.0263C22.025 32.0417 21.9186 32.0584 21.8124 32.0764C21.7063 32.0944 21.6004 32.1136 21.4947 32.1342C21.389 32.1548 21.2836 32.1767 21.1785 32.1999C21.0734 32.223 20.9685 32.2474 20.8639 32.2732C20.7594 32.2989 20.6552 32.3258 20.5513 32.3541C20.4474 32.3824 20.3439 32.4119 20.2407 32.4427C20.1375 32.4735 20.0347 32.5055 19.9323 32.5388C19.8299 32.5724 19.7279 32.6073 19.6263 32.6435C19.5248 32.6796 19.4236 32.7169 19.323 32.7556C19.2223 32.7942 19.1221 32.8341 19.0224 32.8751C18.9228 32.9162 18.8237 32.9585 18.725 33.002C18.6263 33.0455 18.5282 33.0902 18.4307 33.1361C18.3331 33.182 18.2362 33.2292 18.1398 33.2775C18.0434 33.3258 17.9476 33.3752 17.8525 33.4259C17.7573 33.4765 17.6627 33.5283 17.5688 33.5813C17.4749 33.6343 17.3817 33.6884 17.2891 33.7437C17.1965 33.7989 17.1046 33.8553 17.0134 33.9128C16.9222 33.9703 16.8318 34.0289 16.742 34.0886C16.6522 34.1483 16.5632 34.2092 16.475 34.2711C16.3867 34.333 16.2992 34.396 16.2125 34.4601C16.1258 34.5241 16.0399 34.5892 15.9547 34.6554C15.8696 34.7215 15.7853 34.7887 15.7019 34.857C15.6184 34.9252 15.5357 34.9945 15.454 35.0647C15.3722 35.135 15.2913 35.2062 15.2113 35.2785C15.1313 35.3507 15.0522 35.4239 14.9739 35.4981C14.8957 35.5723 14.8184 35.6474 14.742 35.7235C14.6656 35.7996 14.5902 35.8766 14.5157 35.9546C14.4411 36.0325 14.3676 36.1113 14.2951 36.191C14.2225 36.2708 14.1509 36.3514 14.0804 36.4329C14.0098 36.5144 13.9402 36.5968 13.8716 36.68C13.803 36.7632 13.7355 36.8472 13.669 36.9321C13.6025 37.0169 13.5371 37.1026 13.4726 37.189C13.4082 37.2755 13.3449 37.3627 13.2827 37.4508C13.2204 37.5388 13.1592 37.6276 13.0991 37.7171C13.039 37.8066 12.9801 37.8969 12.9222 37.9878C12.8643 38.0788 12.8076 38.1704 12.752 38.2628C12.6964 38.3551 12.6419 38.4482 12.5886 38.5419C12.5352 38.6356 12.483 38.7299 12.432 38.8249C12.381 38.9198 12.3311 39.0154 12.2824 39.1116C12.0513 39.5659 11.8487 40.0326 11.6749 40.5118C11.5703 40.8 11.4932 41.1387 11.3561 41.4092C11.1642 41.1581 10.951 40.9219 10.752 40.676C10.378 40.2166 10.0177 39.7468 9.67112 39.2664C9.47064 38.985 9.27541 38.7001 9.08543 38.4115C8.89549 38.1229 8.71094 37.831 8.53177 37.5356C8.35259 37.2403 8.17891 36.9417 8.01073 36.6399C7.84259 36.3382 7.68007 36.0334 7.52319 35.7256C7.3663 35.4178 7.21513 35.1073 7.06967 34.7939C6.92426 34.4806 6.78468 34.1646 6.65092 33.8461C6.51716 33.5276 6.38932 33.2067 6.2674 32.8835C6.14547 32.5602 6.02958 32.2348 5.91971 31.9073C4.99654 29.1604 4.51393 26.3131 4.34752 23.4253C4.30467 22.6816 4.2485 21.9355 4.31774 21.1913C4.41906 20.1022 4.6814 19.0634 5.17386 18.0826C5.2249 17.9811 5.27798 17.8807 5.33309 17.7813C5.38821 17.6819 5.44532 17.5837 5.50443 17.4867C5.56354 17.3897 5.62459 17.2939 5.68759 17.1993C5.7506 17.1047 5.81549 17.0115 5.88227 16.9196C5.94909 16.8276 6.01772 16.7371 6.08818 16.648C6.15864 16.5588 6.23088 16.4711 6.3049 16.3849C6.37891 16.2987 6.45467 16.2141 6.53215 16.131C6.6096 16.0479 6.68871 15.9663 6.76949 15.8864C6.85026 15.8065 6.93265 15.7283 7.01663 15.6517C7.10056 15.5751 7.18604 15.5003 7.27304 15.4272C7.36005 15.3541 7.4485 15.2828 7.5384 15.2134C7.6283 15.1438 7.71957 15.0762 7.81223 15.0104C7.90484 14.9446 7.99876 14.8807 8.094 14.8188C8.18928 14.7568 8.28574 14.6968 8.38337 14.6387C8.48106 14.5807 8.57987 14.5246 8.67982 14.4705C8.77977 14.4165 8.88079 14.3646 8.98288 14.3146C9.42738 14.1009 9.89151 13.9431 10.3584 13.7871C11.7611 13.3973 13.275 13.2832 14.7194 13.1271C14.9921 13.0964 15.2652 13.0712 15.5388 13.0514C15.6683 13.0423 15.8468 13.0624 15.9668 13.0251ZM23.7761 16.7134C22.0167 16.808 20.3573 17.5304 19.168 18.8479C19.1313 18.888 19.0952 18.9286 19.0595 18.9696C19.0239 19.0107 18.9887 19.0522 18.9541 19.0941C18.9195 19.136 18.8854 19.1784 18.8519 19.2211C18.8183 19.2639 18.7853 19.307 18.7528 19.3506C18.7203 19.3942 18.6884 19.4382 18.657 19.4826C18.6256 19.527 18.5947 19.5717 18.5645 19.6169C18.5342 19.662 18.5044 19.7075 18.4753 19.7534C18.4462 19.7993 18.4176 19.8455 18.3896 19.8922C18.3616 19.9387 18.3342 19.9857 18.3073 20.0329C18.2805 20.0802 18.2542 20.1278 18.2286 20.1757C18.203 20.2237 18.1779 20.2719 18.1534 20.3204C18.129 20.369 18.1051 20.4179 18.0819 20.467C18.0587 20.5161 18.036 20.5656 18.014 20.6153C17.992 20.665 17.9706 20.715 17.9499 20.7652C17.9291 20.8154 17.9089 20.8659 17.8894 20.9167C17.8699 20.9674 17.851 21.0183 17.8328 21.0695C17.8145 21.1208 17.7969 21.1722 17.7799 21.2239C17.763 21.2755 17.7467 21.3274 17.731 21.3794C17.7153 21.4314 17.7003 21.4837 17.6859 21.5361C17.6715 21.5885 17.6578 21.6411 17.6447 21.6939C17.6316 21.7466 17.6192 21.7996 17.6075 21.8527C17.5957 21.9057 17.5846 21.9589 17.5742 22.0123C17.5637 22.0656 17.5539 22.1191 17.5449 22.1727C17.5357 22.2263 17.5273 22.28 17.5195 22.3338C17.5117 22.3876 17.5046 22.4415 17.4982 22.4955C17.4918 22.5494 17.486 22.6035 17.4809 22.6576C17.4758 22.7117 17.4714 22.7659 17.4677 22.8201C17.4639 22.8744 17.4609 22.9286 17.4585 22.9829C17.4561 23.0373 17.4543 23.0916 17.4533 23.146C17.4523 23.2003 17.4519 23.2547 17.4522 23.309C17.4525 23.3634 17.4535 23.4177 17.4551 23.472C17.4568 23.5264 17.4591 23.5807 17.4621 23.635C17.465 23.6885 17.4685 23.7419 17.4726 23.7953C17.4767 23.8487 17.4815 23.9021 17.487 23.9554C17.4924 24.0087 17.4985 24.0619 17.5052 24.115C17.512 24.1681 17.5194 24.2212 17.5275 24.2742C17.5355 24.3271 17.5442 24.3799 17.5535 24.4327C17.5629 24.4855 17.5729 24.5381 17.5836 24.5906C17.5942 24.6431 17.6055 24.6954 17.6174 24.7476C17.6293 24.7999 17.6419 24.8519 17.6551 24.9039C17.6683 24.9558 17.6821 25.0075 17.6966 25.0591C17.7111 25.1107 17.7262 25.1621 17.742 25.2133C17.7577 25.2645 17.774 25.3155 17.791 25.3663C17.808 25.4171 17.8256 25.4677 17.8439 25.518C17.8621 25.5684 17.8809 25.6186 17.9004 25.6685C17.9198 25.7184 17.9399 25.768 17.9605 25.8175C17.9812 25.8669 18.0025 25.916 18.0244 25.9649C18.0463 26.0138 18.0688 26.0624 18.0919 26.1108C18.1149 26.1591 18.1386 26.2072 18.1629 26.2549C18.1871 26.3027 18.2119 26.3501 18.2374 26.3973C18.2628 26.4444 18.2888 26.4913 18.3154 26.5378C18.3419 26.5843 18.3691 26.6305 18.3968 26.6763C18.4244 26.7222 18.4527 26.7677 18.4815 26.8128C18.5103 26.858 18.5397 26.9028 18.5697 26.9472C18.5996 26.9916 18.63 27.0357 18.661 27.0794C18.692 27.1231 18.7235 27.1664 18.7556 27.2093C18.7877 27.2522 18.8203 27.2947 18.8534 27.3369C18.8865 27.3789 18.9201 27.4207 18.9542 27.462C18.9883 27.5033 19.023 27.5441 19.0581 27.5845C19.0932 27.625 19.1288 27.665 19.165 27.7045C19.2011 27.7441 19.2377 27.7832 19.2747 27.8219C19.3118 27.8606 19.3494 27.8988 19.3873 27.9365C19.4254 27.9743 19.4639 28.0115 19.5028 28.0483C19.5417 28.0851 19.5811 28.1214 19.6209 28.1573C20.9461 29.3374 22.5523 29.8862 24.3185 29.8517C26.2069 29.6987 27.793 28.9966 29.0384 27.5404C29.0733 27.4997 29.1076 27.4584 29.1414 27.4168C29.1752 27.3752 29.2084 27.3332 29.2412 27.2908C29.274 27.2483 29.3063 27.2055 29.338 27.1623C29.3697 27.119 29.4009 27.0754 29.4315 27.0314C29.4621 26.9874 29.4922 26.943 29.5218 26.8983C29.5513 26.8536 29.5803 26.8084 29.6088 26.763C29.6372 26.7175 29.6651 26.6717 29.6924 26.6256C29.7197 26.5795 29.7465 26.533 29.7727 26.4862C29.7988 26.4394 29.8244 26.3923 29.8495 26.3449C29.8745 26.2974 29.8989 26.2497 29.9227 26.2017C29.9466 26.1537 29.9698 26.1054 29.9925 26.0568C30.0151 26.0082 30.0372 25.9593 30.0586 25.9101C30.0801 25.861 30.1009 25.8116 30.1212 25.7619C30.1415 25.7123 30.1611 25.6624 30.1801 25.6123C30.1991 25.5622 30.2175 25.5118 30.2353 25.4612C30.253 25.4107 30.2702 25.3599 30.2867 25.3088C30.3032 25.2578 30.3191 25.2066 30.3344 25.1552C30.3497 25.1038 30.3643 25.0522 30.3783 25.0005C30.3923 24.9487 30.4057 24.8968 30.4184 24.8447C30.4311 24.7926 30.4432 24.7404 30.4547 24.688C30.4661 24.6356 30.4769 24.5831 30.4871 24.5304C30.4972 24.4778 30.5067 24.4251 30.5156 24.3722C30.5244 24.3193 30.5326 24.2663 30.5402 24.2132C30.5477 24.1601 30.5546 24.107 30.5609 24.0537C30.5671 24.0005 30.5727 23.9472 30.5777 23.8938C30.5826 23.8404 30.5869 23.7869 30.5905 23.7334C30.5941 23.6799 30.597 23.6264 30.5994 23.5728C30.6017 23.5192 30.6033 23.4656 30.6043 23.412C30.6053 23.3584 30.6056 23.3048 30.6053 23.2512C30.605 23.1976 30.604 23.144 30.6024 23.0904C30.6007 23.0368 30.5984 22.9833 30.5954 22.9297C30.5924 22.8762 30.5888 22.8227 30.5845 22.7692C30.5804 22.7147 30.5756 22.6603 30.5701 22.606C30.5646 22.5516 30.5584 22.4973 30.5515 22.4431C30.5447 22.3889 30.5371 22.3348 30.5289 22.2808C30.5207 22.2268 30.5118 22.1728 30.5023 22.119C30.4927 22.0652 30.4825 22.0116 30.4715 21.958C30.4606 21.9045 30.4491 21.8511 30.4368 21.7978C30.4245 21.7446 30.4116 21.6915 30.3981 21.6386C30.3845 21.5856 30.3703 21.5329 30.3554 21.4804C30.3405 21.4278 30.3249 21.3754 30.3087 21.3232C30.2925 21.271 30.2756 21.2191 30.2581 21.1673C30.2405 21.1156 30.2224 21.064 30.2036 21.0127C30.1848 20.9614 30.1654 20.9103 30.1452 20.8595C30.1252 20.8087 30.1045 20.7581 30.0831 20.7078C30.0618 20.6576 30.0398 20.6076 30.0171 20.5578C29.9945 20.508 29.9713 20.4586 29.9475 20.4095C29.9236 20.3603 29.8992 20.3114 29.8742 20.2629C29.8491 20.2143 29.8234 20.1661 29.7971 20.1181C29.7708 20.0702 29.744 20.0227 29.7165 19.9755C29.689 19.9283 29.661 19.8814 29.6323 19.8348C29.6037 19.7883 29.5745 19.7421 29.5447 19.6963C29.5149 19.6505 29.4845 19.6051 29.4535 19.5601C29.4226 19.515 29.3911 19.4704 29.3591 19.4261C29.327 19.3819 29.2944 19.338 29.2612 19.2946C29.2281 19.2512 29.1944 19.2082 29.1602 19.1655C29.1259 19.123 29.0912 19.0808 29.0559 19.0391C29.0206 18.9974 28.9848 18.9561 28.9484 18.9153C28.9121 18.8745 28.8753 18.8341 28.838 18.7942C28.8006 18.7543 28.7628 18.7149 28.7245 18.6759C28.6862 18.637 28.6474 18.5985 28.6081 18.5606C28.5688 18.5226 28.5291 18.4851 28.4889 18.4481C28.4486 18.4111 28.4079 18.3747 28.3668 18.3387C28.3257 18.3027 28.2841 18.2673 28.242 18.2324C26.9855 17.178 25.4073 16.668 23.7761 16.7134Z" fill="url(#paint0_linear_2428_25528)"/>
<path d="M24.3176 29.852C22.5514 29.8865 20.9451 29.3377 19.62 28.1576C19.5802 28.1217 19.5408 28.0854 19.5019 28.0486C19.4629 28.0118 19.4245 27.9746 19.3864 27.9368C19.3484 27.8991 19.3109 27.8609 19.2738 27.8222C19.2368 27.7835 19.2002 27.7444 19.164 27.7048C19.1279 27.6653 19.0923 27.6253 19.0572 27.5848C19.0221 27.5444 18.9874 27.5036 18.9533 27.4623C18.9192 27.421 18.8855 27.3792 18.8525 27.3372C18.8194 27.295 18.7868 27.2525 18.7547 27.2096C18.7226 27.1667 18.6911 27.1234 18.6601 27.0797C18.6291 27.036 18.5986 26.9919 18.5687 26.9475C18.5388 26.9031 18.5094 26.8583 18.4806 26.8131C18.4518 26.768 18.4235 26.7225 18.3959 26.6766C18.3682 26.6308 18.341 26.5846 18.3145 26.5381C18.2879 26.4916 18.2619 26.4447 18.2365 26.3976C18.211 26.3504 18.1862 26.303 18.1619 26.2552C18.1377 26.2075 18.114 26.1594 18.0909 26.1111C18.0679 26.0627 18.0454 26.0141 18.0235 25.9652C18.0016 25.9163 17.9803 25.8672 17.9596 25.8178C17.939 25.7683 17.9189 25.7187 17.8995 25.6688C17.88 25.6189 17.8612 25.5687 17.8429 25.5183C17.8247 25.468 17.8071 25.4174 17.7901 25.3666C17.7731 25.3158 17.7568 25.2648 17.7411 25.2136C17.7253 25.1624 17.7102 25.111 17.6957 25.0594C17.6812 25.0078 17.6674 24.9561 17.6542 24.9042C17.641 24.8522 17.6284 24.8002 17.6165 24.7479C17.6046 24.6957 17.5933 24.6434 17.5827 24.5909C17.572 24.5384 17.562 24.4858 17.5526 24.433C17.5433 24.3802 17.5346 24.3274 17.5265 24.2745C17.5185 24.2215 17.5111 24.1684 17.5043 24.1153C17.4976 24.0622 17.4915 24.009 17.486 23.9557C17.4806 23.9024 17.4758 23.849 17.4717 23.7956C17.4676 23.7422 17.4641 23.6888 17.4612 23.6353C17.4582 23.581 17.4559 23.5267 17.4542 23.4723C17.4526 23.418 17.4516 23.3637 17.4513 23.3093C17.451 23.255 17.4513 23.2006 17.4524 23.1463C17.4534 23.0919 17.4551 23.0376 17.4576 22.9832C17.46 22.9289 17.463 22.8747 17.4668 22.8204C17.4705 22.7662 17.4749 22.712 17.48 22.6579C17.4851 22.6038 17.4909 22.5497 17.4973 22.4958C17.5037 22.4418 17.5108 22.3879 17.5186 22.3341C17.5264 22.2803 17.5348 22.2266 17.544 22.173C17.553 22.1194 17.5628 22.0659 17.5732 22.0126C17.5837 21.9592 17.5948 21.906 17.6065 21.853C17.6183 21.7999 17.6307 21.7469 17.6438 21.6942C17.6569 21.6414 17.6706 21.5888 17.685 21.5364C17.6994 21.484 17.7144 21.4317 17.73 21.3797C17.7457 21.3277 17.7621 21.2758 17.779 21.2242C17.796 21.1725 17.8136 21.1211 17.8319 21.0698C17.8501 21.0186 17.869 20.9677 17.8885 20.917C17.908 20.8662 17.9282 20.8157 17.949 20.7655C17.9697 20.7153 17.9911 20.6653 18.0131 20.6156C18.0351 20.5659 18.0577 20.5164 18.081 20.4673C18.1042 20.4182 18.1281 20.3693 18.1525 20.3207C18.177 20.2722 18.202 20.224 18.2277 20.176C18.2533 20.1281 18.2796 20.0805 18.3064 20.0332C18.3333 19.986 18.3607 19.939 18.3887 19.8925C18.4167 19.8458 18.4453 19.7996 18.4744 19.7537C18.5035 19.7078 18.5333 19.6623 18.5635 19.6172C18.5938 19.572 18.6247 19.5273 18.6561 19.4829C18.6874 19.4385 18.7194 19.3945 18.7519 19.3509C18.7844 19.3073 18.8174 19.2642 18.851 19.2214C18.8845 19.1787 18.9186 19.1363 18.9532 19.0944C18.9878 19.0525 19.023 19.011 19.0586 18.9699C19.0943 18.9289 19.1304 18.8883 19.1671 18.8482C20.3564 17.5307 22.0158 16.8083 23.7752 16.7137C25.4064 16.6683 26.9845 17.1783 28.2411 18.2327C28.2832 18.2676 28.3248 18.303 28.3659 18.339C28.407 18.375 28.4477 18.4114 28.4879 18.4484C28.5282 18.4854 28.5679 18.5229 28.6072 18.5609C28.6465 18.5988 28.6853 18.6373 28.7236 18.6762C28.7619 18.7152 28.7997 18.7546 28.8371 18.7945C28.8744 18.8344 28.9112 18.8748 28.9475 18.9156C28.9839 18.9564 29.0197 18.9977 29.055 19.0394C29.0903 19.0811 29.125 19.1233 29.1592 19.1658C29.1935 19.2085 29.2272 19.2515 29.2603 19.2949C29.2935 19.3383 29.3261 19.3822 29.3581 19.4264C29.3902 19.4707 29.4217 19.5153 29.4526 19.5604C29.4836 19.6054 29.514 19.6508 29.5438 19.6966C29.5736 19.7424 29.6028 19.7886 29.6314 19.8351C29.66 19.8817 29.6881 19.9286 29.7156 19.9758C29.7431 20.023 29.7699 20.0705 29.7962 20.1184C29.8225 20.1663 29.8482 20.2146 29.8732 20.2632C29.8983 20.3117 29.9227 20.3606 29.9466 20.4098C29.9704 20.4589 29.9936 20.5083 30.0162 20.5581C30.0389 20.6079 30.0609 20.6579 30.0822 20.7081C30.1036 20.7584 30.1243 20.809 30.1443 20.8599C30.1644 20.9107 30.1839 20.9617 30.2026 21.013C30.2215 21.0643 30.2396 21.1159 30.2572 21.1676C30.2747 21.2194 30.2915 21.2713 30.3077 21.3235C30.324 21.3757 30.3395 21.4281 30.3544 21.4807C30.3693 21.5332 30.3836 21.5859 30.3971 21.6389C30.4107 21.6918 30.4236 21.7449 30.4359 21.7981C30.4481 21.8514 30.4597 21.9048 30.4706 21.9583C30.4815 22.0119 30.4918 22.0655 30.5014 22.1193C30.5109 22.1731 30.5198 22.2271 30.528 22.2811C30.5362 22.3351 30.5438 22.3892 30.5506 22.4434C30.5575 22.4976 30.5637 22.5519 30.5692 22.6063C30.5747 22.6606 30.5795 22.715 30.5836 22.7695C30.5879 22.823 30.5915 22.8765 30.5945 22.93C30.5974 22.9836 30.5998 23.0371 30.6015 23.0907C30.6031 23.1443 30.6041 23.1979 30.6044 23.2515C30.6047 23.3051 30.6044 23.3587 30.6034 23.4123C30.6024 23.4659 30.6008 23.5195 30.5984 23.5731C30.5961 23.6267 30.5932 23.6802 30.5896 23.7337C30.586 23.7872 30.5817 23.8407 30.5768 23.8941C30.5718 23.9475 30.5662 24.0008 30.56 24.054C30.5537 24.1073 30.5468 24.1604 30.5393 24.2135C30.5317 24.2666 30.5235 24.3196 30.5146 24.3725C30.5058 24.4254 30.4963 24.4781 30.4862 24.5307C30.476 24.5834 30.4652 24.6359 30.4538 24.6883C30.4423 24.7407 30.4302 24.7929 30.4175 24.845C30.4048 24.8971 30.3914 24.949 30.3774 25.0008C30.3634 25.0525 30.3488 25.1041 30.3335 25.1555C30.3182 25.2069 30.3023 25.2581 30.2858 25.3091C30.2693 25.3602 30.2521 25.411 30.2343 25.4615C30.2166 25.5121 30.1982 25.5625 30.1792 25.6126C30.1602 25.6627 30.1406 25.7126 30.1203 25.7622C30.1 25.8119 30.0792 25.8613 30.0577 25.9104C30.0363 25.9596 30.0142 26.0085 29.9915 26.0571C29.9689 26.1057 29.9457 26.154 29.9218 26.202C29.898 26.25 29.8735 26.2977 29.8485 26.3451C29.8235 26.3926 29.7979 26.4397 29.7718 26.4865C29.7456 26.5333 29.7188 26.5798 29.6915 26.6259C29.6642 26.672 29.6363 26.7178 29.6079 26.7633C29.5794 26.8087 29.5504 26.8539 29.5209 26.8986C29.4913 26.9433 29.4612 26.9877 29.4305 27.0316C29.3999 27.0757 29.3688 27.1193 29.3371 27.1626C29.3053 27.2058 29.2731 27.2486 29.2403 27.2911C29.2075 27.3335 29.1743 27.3755 29.1405 27.4171C29.1067 27.4587 29.0724 27.5 29.0375 27.5407C27.7921 28.9969 26.206 29.699 24.3176 29.852Z" fill="url(#paint1_linear_2428_25528)"/>
<path d="M11.3564 41.4088C11.4935 41.1383 11.5706 40.7996 11.6752 40.5114C11.8491 40.0323 12.0516 39.5655 12.2828 39.1112C12.3314 39.015 12.3813 38.9194 12.4323 38.8245C12.4833 38.7295 12.5355 38.6352 12.5889 38.5415C12.6422 38.4478 12.6967 38.3547 12.7523 38.2624C12.8079 38.17 12.8646 38.0784 12.9225 37.9874C12.9804 37.8965 13.0393 37.8062 13.0994 37.7167C13.1595 37.6272 13.2207 37.5384 13.283 37.4504C13.3452 37.3623 13.4085 37.2751 13.473 37.1886C13.5374 37.1022 13.6028 37.0165 13.6693 36.9317C13.7358 36.8468 13.8033 36.7628 13.8719 36.6796C13.9405 36.5964 14.0101 36.514 14.0807 36.4325C14.1513 36.351 14.2228 36.2704 14.2954 36.1906C14.3679 36.1109 14.4415 36.0321 14.516 35.9542C14.5905 35.8763 14.6659 35.7992 14.7423 35.7231C14.8187 35.6471 14.896 35.5719 14.9742 35.4977C15.0525 35.4235 15.1316 35.3503 15.2116 35.2781C15.2916 35.2058 15.3725 35.1346 15.4543 35.0643C15.536 34.9941 15.6187 34.9248 15.7022 34.8566C15.7857 34.7884 15.8699 34.7211 15.955 34.655C16.0402 34.5888 16.1261 34.5237 16.2128 34.4597C16.2995 34.3956 16.387 34.3326 16.4753 34.2707C16.5635 34.2088 16.6525 34.148 16.7423 34.0882C16.8321 34.0285 16.9225 33.9699 17.0137 33.9124C17.1049 33.8549 17.1968 33.7985 17.2894 33.7433C17.382 33.688 17.4752 33.6339 17.5691 33.5809C17.663 33.5279 17.7576 33.4761 17.8528 33.4255C17.9479 33.3748 18.0437 33.3254 18.1401 33.2771C18.2365 33.2288 18.3334 33.1817 18.431 33.1358C18.5285 33.0898 18.6266 33.0451 18.7253 33.0016C18.824 32.9581 18.9231 32.9158 19.0227 32.8747C19.1224 32.8337 19.2226 32.7938 19.3233 32.7552C19.4239 32.7166 19.5251 32.6792 19.6267 32.6431C19.7282 32.6069 19.8302 32.572 19.9326 32.5384C20.035 32.5051 20.1378 32.4731 20.241 32.4423C20.3442 32.4115 20.4477 32.382 20.5516 32.3537C20.6555 32.3254 20.7597 32.2985 20.8642 32.2728C20.9688 32.247 21.0737 32.2226 21.1788 32.1995C21.2839 32.1763 21.3893 32.1544 21.495 32.1338C21.6007 32.1132 21.7066 32.094 21.8128 32.076C21.9189 32.058 22.0253 32.0413 22.1318 32.0259C22.2384 32.0105 22.3451 31.9964 22.452 31.9836C22.5589 31.9708 22.666 31.9593 22.7732 31.9491C22.8804 31.9389 22.9877 31.93 23.095 31.9225C23.2025 31.9149 23.3099 31.9086 23.4174 31.9036C23.525 31.8987 23.6326 31.8951 23.7402 31.8928C23.8479 31.8904 23.9556 31.8894 24.0632 31.8897C24.1709 31.89 24.2785 31.8916 24.3862 31.8946C24.4938 31.8975 24.6013 31.9017 24.7089 31.9073C24.8164 31.9128 24.9239 31.9197 25.0312 31.9279C25.1386 31.9361 25.2458 31.9455 25.3529 31.9563C25.46 31.9671 25.567 31.9792 25.6739 31.9926C25.7807 32.006 25.8873 32.0207 25.9938 32.0367C26.1003 32.0527 26.2066 32.07 26.3126 32.0886C26.4186 32.1072 26.5244 32.1271 26.63 32.1483C26.7356 32.1694 26.8408 32.1919 26.9459 32.2156C27.0509 32.2394 27.1556 32.2644 27.26 32.2907C27.3644 32.317 27.4685 32.3446 27.5722 32.3734C27.6759 32.4023 27.7793 32.4324 27.8823 32.4637C27.9853 32.4951 28.0879 32.5277 28.1901 32.5615C28.2923 32.5954 28.3941 32.6305 28.4954 32.6669C28.5968 32.7032 28.6976 32.7408 28.7981 32.7796C28.8985 32.8184 28.9985 32.8585 29.0979 32.8997C29.1973 32.9409 29.2963 32.9834 29.3947 33.0271C29.4931 33.0707 29.591 33.1156 29.6883 33.1616C29.7856 33.2077 29.8824 33.2549 29.9785 33.3033C30.0763 33.3532 30.1734 33.4042 30.2698 33.4566C30.3662 33.5088 30.462 33.5623 30.5571 33.617C30.6522 33.6716 30.7466 33.7275 30.8403 33.7845C30.9341 33.8415 31.0271 33.8996 31.1194 33.9589C31.2117 34.0182 31.3032 34.0787 31.394 34.1403C31.4848 34.2018 31.5748 34.2645 31.664 34.3284C31.7533 34.3921 31.8418 34.457 31.9294 34.523C32.017 34.5891 32.1038 34.6561 32.1897 34.7243C32.2757 34.7924 32.3608 34.8616 32.4451 34.9319C32.5293 35.0022 32.6127 35.0734 32.6952 35.1458C32.7777 35.2181 32.8593 35.2914 32.9399 35.3658C33.0205 35.4402 33.1003 35.5155 33.1791 35.5918C33.2579 35.6681 33.3357 35.7454 33.4126 35.8237C33.4895 35.9019 33.5654 35.9811 33.6404 36.0613C33.7153 36.1414 33.7892 36.2224 33.8621 36.3044C33.935 36.3864 34.0069 36.4692 34.0777 36.553C34.1486 36.6367 34.2184 36.7213 34.2872 36.8068C34.3559 36.8923 34.4236 36.9786 34.4902 37.0658C34.5568 37.1529 34.6224 37.2409 34.6868 37.3297C34.7513 37.4185 34.8146 37.508 34.8768 37.5984C34.939 37.6887 35.0001 37.7798 35.0601 37.8717C35.12 37.9636 35.1789 38.0562 35.2366 38.1495C35.2942 38.2428 35.3507 38.3368 35.406 38.4315C35.4614 38.5263 35.5155 38.6217 35.5685 38.7178C35.6215 38.8138 35.6733 38.9105 35.7238 39.0079C35.7744 39.1052 35.8238 39.2032 35.872 39.3017C35.9201 39.4003 35.967 39.4994 36.0127 39.5992C36.0584 39.6989 36.1028 39.7992 36.1461 39.9C36.1892 40.0009 36.2312 40.1022 36.2719 40.2041C36.3126 40.306 36.352 40.4084 36.3902 40.5112C36.4283 40.614 36.4652 40.7174 36.5008 40.8211C36.5364 40.9249 36.5707 41.0291 36.6037 41.1337C36.0276 41.8127 35.4216 42.4639 34.7857 43.0873C32.8973 44.9109 29.7507 47.3664 27.3465 48.2883C26.4004 48.6511 25.3896 48.8384 24.3817 48.9141C22.6745 49.0424 20.8104 48.6287 19.2892 47.851C18.6213 47.5095 17.9949 47.0852 17.3723 46.6684C16.2601 45.9182 15.198 45.1029 14.186 44.2223C13.4425 43.5652 12.7286 42.8773 12.0446 42.1586C11.809 41.9143 11.6011 41.6445 11.3564 41.4088Z" fill="url(#paint2_linear_2428_25528)"/>
<defs>
<linearGradient id="paint0_linear_2428_25528" x1="23.8118" y1="41.2809" x2="23.8484" y2="12.6965" gradientUnits="userSpaceOnUse">
<stop stop-color="#15599B"/>
<stop offset="1" stop-color="#0079D4"/>
</linearGradient>
<linearGradient id="paint1_linear_2428_25528" x1="24.0051" y1="29.7855" x2="24.0295" y2="16.7499" gradientUnits="userSpaceOnUse">
<stop stop-color="#089CE8"/>
<stop offset="1" stop-color="#4DCEF7"/>
</linearGradient>
<linearGradient id="paint2_linear_2428_25528" x1="23.9588" y1="48.8624" x2="23.9835" y2="31.9429" gradientUnits="userSpaceOnUse">
<stop stop-color="#1CAAEC"/>
<stop offset="1" stop-color="#47C9F6"/>
</linearGradient>
</defs>
</svg>
