<svg width="48" height="49" fill="none" xmlns="http://www.w3.org/2000/svg"><path d="M31.92 13.03c0-.021 0-.043-.002-.065-.017-.258-.143-.55-.232-.793-.502-1.381-1.338-2.682-2.457-3.643-1.312-1.126-2.875-1.829-4.603-1.987a6.557 6.557 0 00-1.12-.025c-1.775.138-3.368.742-4.741 1.886-.294.245-.578.488-.827.78-.835.98-1.46 1.997-1.868 3.222-.053.16-.173.436-.16.599l.057.021c-.12.037-.299.017-.428.027-.274.02-.547.045-.82.075-1.444.156-2.958.27-4.36.66.124-.926.25-1.829.489-2.734.754-2.867 2.433-5.539 4.801-7.343a13.835 13.835 0 011.7-1.101 13.458 13.458 0 012.163-.95A13.553 13.553 0 0123.49.943a13.644 13.644 0 012.358.137 13.315 13.315 0 014.647 1.523 13.341 13.341 0 013.12 2.373 13.44 13.44 0 011.07 1.242 14.131 14.131 0 012.065 3.902 13.928 13.928 0 01.517 1.946c.116.59.174 1.182.26 1.776-.745-.265-1.928-.409-2.724-.509a56.143 56.143 0 00-2.883-.302z" fill="#205793"/><path d="M15.967 13.025c1.377-.181 2.803-.23 4.191-.284a99.88 99.88 0 016.697-.039c1.692.06 3.377.199 5.064.329.964.075 1.925.176 2.883.302.796.1 1.979.244 2.725.509l.04.019c.4.188.831.301 1.228.506a9.24 9.24 0 01.682.388 9.243 9.243 0 01.643.449 8.203 8.203 0 01.88.78 8.222 8.222 0 01.762.895 8.105 8.105 0 01.536.82 8.408 8.408 0 01.582 1.241c.6 1.61.56 3.202.456 4.886-.239 3.854-1.095 7.56-2.713 11.077a27.763 27.763 0 01-4.02 6.231 13.275 13.275 0 00-6.915-7.972 13.172 13.172 0 00-3.694-1.125 13.285 13.285 0 00-4.5.097 13.033 13.033 0 00-3.925 1.447 13.2 13.2 0 00-5.287 5.53c-.23.455-.433.922-.607 1.4-.105.289-.182.628-.319.898-.192-.25-.405-.487-.604-.733-.374-.46-.734-.93-1.08-1.41a28.119 28.119 0 01-3.752-7.359c-.923-2.747-1.406-5.594-1.572-8.482-.043-.743-.1-1.49-.03-2.234.101-1.089.363-2.128.856-3.108a8.454 8.454 0 011.358-1.952 8.385 8.385 0 012.45-1.816c.445-.214.91-.372 1.376-.528 1.403-.39 2.917-.504 4.361-.66.273-.03.546-.056.82-.076.13-.009.308.011.428-.026zm7.81 3.688c-1.76.095-3.42.817-4.609 2.135a6.587 6.587 0 00-1.154 1.767 6.365 6.365 0 00-.328.921 6.525 6.525 0 00-.213 2.26 6.138 6.138 0 00.08.637 6.46 6.46 0 00.347 1.236 6.816 6.816 0 00.337.728 6.422 6.422 0 00.717 1.065 6.396 6.396 0 00.667.695c1.325 1.18 2.931 1.73 4.698 1.695 1.888-.153 3.474-.855 4.72-2.312a6.072 6.072 0 00.392-.509 7.065 7.065 0 00.342-.545 7.4 7.4 0 00.22-.43A6.438 6.438 0 0030.378 25a6.469 6.469 0 00.226-1.588c.001-.054.002-.107.001-.16a6.633 6.633 0 00-1.06-3.556 6.21 6.21 0 00-.385-.53 6.991 6.991 0 00-.552-.605 6.658 6.658 0 00-.366-.329c-1.257-1.054-2.835-1.564-4.466-1.519z" fill="url(#prefix__paint0_linear_2428_25528)"/><path d="M24.318 29.852c-1.767.035-3.373-.514-4.698-1.694a6.77 6.77 0 01-.768-.82 7.065 7.065 0 01-.371-.525 5.968 5.968 0 01-.245-.415 6.422 6.422 0 01-.54-1.339 6.452 6.452 0 01-.235-1.424 6.81 6.81 0 01.019-.977 6.743 6.743 0 01.205-1.122 7.01 7.01 0 01.204-.619 6.204 6.204 0 01.264-.596 6.843 6.843 0 01.503-.838 6.153 6.153 0 01.511-.635c1.19-1.317 2.849-2.04 4.608-2.134 1.631-.046 3.21.464 4.466 1.519a6.03 6.03 0 01.483.443 7.04 7.04 0 01.435.49 6.512 6.512 0 011.149 2.157 6.157 6.157 0 01.163.635 6.814 6.814 0 01.123.972 7.194 7.194 0 01.01.482 6.166 6.166 0 01-.044.642 7.093 7.093 0 01-.106.634 6.974 6.974 0 01-.22.774 6.192 6.192 0 01-.312.74 6.423 6.423 0 01-.682 1.09 6.725 6.725 0 01-.202.249c-1.246 1.456-2.832 2.158-4.72 2.311z" fill="url(#prefix__paint1_linear_2428_25528)"/><path d="M11.356 41.409c.137-.27.215-.61.32-.898a12.45 12.45 0 01.913-1.97 12.951 12.951 0 011.08-1.61 12.905 12.905 0 011.073-1.208 13.697 13.697 0 01.96-.866 13.204 13.204 0 014.23-2.319 13.252 13.252 0 019.166.362 12.92 12.92 0 011.742.885 13.151 13.151 0 012.34 1.807 13.09 13.09 0 011.31 1.474 12.986 12.986 0 01.916 1.365 13.238 13.238 0 011.198 2.703 29.088 29.088 0 01-1.818 1.953c-1.889 1.824-5.035 4.28-7.44 5.201-.946.363-1.956.55-2.964.626-1.708.128-3.572-.285-5.093-1.063-.668-.341-1.294-.766-1.917-1.183a32.737 32.737 0 01-3.186-2.446 34.44 34.44 0 01-2.141-2.063c-.236-.245-.444-.514-.689-.75z" fill="url(#prefix__paint2_linear_2428_25528)"/><defs><linearGradient id="prefix__paint0_linear_2428_25528" x1="23.812" y1="41.281" x2="23.848" y2="12.697" gradientUnits="userSpaceOnUse"><stop stop-color="#15599B"/><stop offset="1" stop-color="#0079D4"/></linearGradient><linearGradient id="prefix__paint1_linear_2428_25528" x1="24.005" y1="29.785" x2="24.029" y2="16.75" gradientUnits="userSpaceOnUse"><stop stop-color="#089CE8"/><stop offset="1" stop-color="#4DCEF7"/></linearGradient><linearGradient id="prefix__paint2_linear_2428_25528" x1="23.959" y1="48.862" x2="23.983" y2="31.943" gradientUnits="userSpaceOnUse"><stop stop-color="#1CAAEC"/><stop offset="1" stop-color="#47C9F6"/></linearGradient></defs></svg>