<svg width="48" height="48" fill="none" xmlns="http://www.w3.org/2000/svg"><path fill-rule="evenodd" clip-rule="evenodd" d="M12.268 5.287c-.129.182-.26.367-.405.505-1.452 2.535-2.311 5.142-2.602 8.046-.034.344-.054.698-.075 1.054-.04.688-.08 1.384-.222 2.033l-.023.014c-.015.01-.031.019-.047.027-.153.082-.482.07-.732.06-.076-.003-.144-.006-.198-.006-.186.002-.372.002-.555.002-2.624 0-4.953.002-6.058 3.029-.45 1.234-.358 7.076-.306 10.34.012.764.022 1.386.022 1.776 0 .9-.01 1.805-.022 2.711-.023 1.971-.047 3.95.044 5.904-.04.925-.022 1.848-.004 2.774l.002.117c.158 1.06.487 1.942 1.209 2.756.969 1.094 1.987 1.42 3.41 1.5 1.744.096 3.516.074 5.28.052.757-.009 1.514-.018 2.265-.018l23.7-.002c.461 0 .93.01 1.401.018 1.317.024 2.657.048 3.935-.112.997-.125 1.692-.39 2.446-1.07 1.17-1.057 1.532-2.416 1.61-3.939a34.842 34.842 0 00-.037-1.676c.122-1.493.088-3.053.054-4.592a99.056 99.056 0 01-.031-2.057l-.018-13.164c-.173-1.06-.442-1.768-1.03-2.675-.24-.15-.448-.358-.66-.569-.224-.222-.451-.448-.72-.611-1.041-.63-2.576-.592-3.953-.557-.492.013-.964.025-1.386.006l-.147-.067c-.207-.456-.225-1.32-.24-2.045a14.971 14.971 0 00-.027-.737c-.137-.414-.206-.858-.276-1.303a10.33 10.33 0 00-.205-1.063c-.596-2.233-1.63-4.25-2.891-6.171-2.603-3.11-5.426-5.144-9.6-5.505-3.685-.318-7.828.377-10.715 2.82-.731.62-1.365 1.348-1.968 2.09a5.84 5.84 0 00-.225.305zm2.006 11.455c-.044-.967-.052-1.951.057-2.913.418-2.583 1.411-5.11 3.61-6.685 2.228-1.596 5.24-1.953 7.892-1.496 2.237.386 4.205 1.526 5.513 3.401.909 1.302 1.726 3.365 1.682 4.971.154.794.128 1.686.102 2.521-.005.164-.01.325-.013.482-3.26.046-6.524.036-9.786.027-1.296-.004-2.593-.008-3.888-.008-.265 0-.668.011-1.135.024-1.376.038-3.312.092-3.917-.08a2.178 2.178 0 00-.024-.04.657.657 0 01-.093-.204zM25.016 34.99c.026.553.053 1.105-.442 1.562-.255.211-.725.334-1.05.318a.99.99 0 01-.68-.342c-.594-.67-.625-1.666-.565-2.51-.065-.252-.122-.311-.296-.49l-.002-.002a1.564 1.564 0 00-.02-.006l-.04-.013c-.776-.25-1.5-1.144-1.85-1.854-.522-1.061-.609-2.438-.207-3.55a4.224 4.224 0 011.156-1.721 4.24 4.24 0 011.044-.69 3.95 3.95 0 011.913-.35 3.888 3.888 0 011.145.256 3.877 3.877 0 01.711.354 3.91 3.91 0 01.627.488 3.985 3.985 0 01.906 1.295c.471 1.076.527 2.456.094 3.553-.378.958-1.095 1.5-1.64 1.912-.32.242-.581.44-.678.65-.164.358-.145.75-.126 1.14z" fill="url(#prefix__paint0_linear_2428_25556)"/><defs><linearGradient id="prefix__paint0_linear_2428_25556" x1="23.696" y1="0" x2="23.696" y2="48" gradientUnits="userSpaceOnUse"><stop stop-color="#DEDEDE"/><stop offset="1" stop-color="#777"/></linearGradient></defs></svg>