<svg width="48" height="48" fill="none" xmlns="http://www.w3.org/2000/svg"><path d="M38 48c-1.925 0-3.572-.67-4.942-2.013-1.37-1.341-2.056-2.956-2.058-4.844V6.857c0-1.886.686-3.5 2.058-4.841C34.43.674 36.078.002 38 0c1.923-.002 3.571.67 4.946 2.016C44.32 3.362 45.005 4.976 45 6.857v34.286c0 1.886-.685 3.5-2.054 4.844C41.576 47.331 39.927 48.002 38 48zm-28 0c-1.925 0-3.572-.67-4.942-2.013-1.37-1.341-2.056-2.956-2.058-4.844V6.857c0-1.886.686-3.5 2.058-4.841C6.43.674 8.078.002 10 0c1.923-.002 3.571.67 4.945 2.016 1.375 1.346 2.06 2.96 2.055 4.841v34.286c0 1.886-.685 3.5-2.055 4.844C13.575 47.331 11.927 48.002 10 48z" fill="#000"/></svg>