<svg width="48" height="48" fill="none" xmlns="http://www.w3.org/2000/svg"><path d="M3.6 39.737c.955 0 1.87.383 2.546 1.063A3.648 3.648 0 017.2 43.368c0 .964-.38 1.887-1.054 2.568A3.584 3.584 0 013.6 47c-.955 0-1.87-.383-2.546-1.064A3.648 3.648 0 010 43.368c0-.963.38-1.886 1.054-2.568A3.584 3.584 0 013.6 39.737zm12-7.263c1.591 0 3.117.637 4.243 1.773a6.08 6.08 0 011.757 4.28 6.08 6.08 0 01-1.757 4.28 5.973 5.973 0 01-4.243 1.772 5.973 5.973 0 01-4.243-1.773 6.08 6.08 0 01-1.757-4.28 6.08 6.08 0 011.757-4.28 5.974 5.974 0 014.243-1.772zM30 30.053c-2.856 0-5.448-1.21-7.2-3.269-1.752 2.058-4.344 3.269-7.2 3.269-4.704 0-8.616-3.414-9.432-7.893a9.662 9.662 0 01-4.472-3.566A9.792 9.792 0 010 13.105a9.728 9.728 0 012.812-6.848A9.558 9.558 0 019.6 3.421c.624 0 1.2.073 1.848.17C13.2 1.993 15.48 1 18 1c2.856 0 5.448 1.21 7.2 3.268C26.952 2.211 29.544 1 32.4 1c4.704 0 8.616 3.414 9.432 7.893a9.662 9.662 0 014.472 3.565A9.792 9.792 0 0148 17.948a9.727 9.727 0 01-2.812 6.847 9.558 9.558 0 01-6.788 2.837l-1.848-.17C34.8 29.06 32.52 30.052 30 30.052z" fill="#000"/></svg>