<svg width="48" height="48" fill="none" xmlns="http://www.w3.org/2000/svg"><g clip-path="url(#prefix__clip0_2122_18314)"><path fill-rule="evenodd" clip-rule="evenodd" d="M0 6c0-3.312 2.688-6 6-6h36a6 6 0 016 6v11.167a31.92 31.92 0 01-22.526 30.497 4.971 4.971 0 01-2.948 0A31.92 31.92 0 010 17.167V6zm24 16.286a7.714 7.714 0 100-15.429 7.714 7.714 0 000 15.429zm14.235 9.919a18.858 18.858 0 00-28.47 0A26.742 26.742 0 0024 42.737a26.742 26.742 0 0014.235-10.532z" fill="#000"/></g><defs><clipPath id="prefix__clip0_2122_18314"><path fill="#fff" d="M0 0h48v48H0z"/></clipPath></defs></svg>