<svg width="48" height="48" fill="none" xmlns="http://www.w3.org/2000/svg"><path d="M6.222 0h35.556c.59 0 1.154.23 1.571.639.417.41.651.964.651 1.543v8.727c0 .579-.234 1.134-.65 1.543-.418.409-.983.639-1.572.639H6.222c-.59 0-1.154-.23-1.571-.64A2.162 2.162 0 014 10.91V2.182c0-.579.234-1.134.65-1.543C5.069.229 5.634 0 6.223 0zm0 17.454h35.556c.59 0 1.154.23 1.571.64.417.409.651.964.651 1.542v8.728c0 .578-.234 1.133-.65 1.542-.418.41-.983.64-1.572.64H6.222c-.59 0-1.154-.23-1.571-.64A2.162 2.162 0 014 28.364v-8.728c0-.578.234-1.133.65-1.542.418-.41.983-.64 1.572-.64zm0 17.455h35.556c.59 0 1.154.23 1.571.64.417.408.651.963.651 1.542v8.727c0 .579-.234 1.134-.65 1.543-.418.41-.983.639-1.572.639H6.222c-.59 0-1.154-.23-1.571-.639A2.162 2.162 0 014 45.818v-8.727c0-.579.234-1.134.65-1.543.418-.409.983-.639 1.572-.639zM17.333 8.727h2.223V4.364h-2.223v4.363zm0 17.455h2.223v-4.364h-2.223v4.364zm0 17.454h2.223v-4.363h-2.223v4.363zM8.444 4.364v4.363h4.445V4.364H8.444zm0 17.454v4.364h4.445v-4.364H8.444zm0 17.455v4.363h4.445v-4.363H8.444z" fill="#000"/></svg>