<svg width="48" height="48" fill="none" xmlns="http://www.w3.org/2000/svg"><g clip-path="url(#prefix__clip0_1717_16320)"><path d="M17.433 48l-.955-7.68a9 9 0 01-1.462-.72c-.457-.28-.905-.58-1.344-.9l-7.105 3L0 30.3l6.15-4.68a5.75 5.75 0 01-.06-.809v-1.62c0-.26.02-.531.06-.811L0 17.7 6.567 6.3l7.105 3c.438-.32.895-.62 1.373-.9a12 12 0 011.433-.72L17.433 0h13.134l.955 7.68c.518.2 1.006.44 1.464.72.459.28.906.58 1.342.9l7.105-3L48 17.7l-6.15 4.68c.04.28.06.55.06.811v1.618c0 .26-.04.531-.119.811l6.15 4.68-6.568 11.4-7.045-3c-.437.32-.895.62-1.373.9a12 12 0 01-1.433.72L30.567 48H17.433zm6.686-15.6c2.309 0 4.279-.82 5.91-2.46 1.633-1.64 2.449-3.62 2.449-5.94 0-2.32-.816-4.3-2.448-5.94-1.632-1.64-3.602-2.46-5.91-2.46-2.349 0-4.33.82-5.942 2.46-1.613 1.64-2.418 3.62-2.417 5.94.002 2.32.808 4.3 2.42 5.94 1.61 1.64 3.59 2.46 5.938 2.46z" fill="#000"/></g><defs><clipPath id="prefix__clip0_1717_16320"><path fill="#fff" d="M0 0h48v48H0z"/></clipPath></defs></svg>