<svg width="48" height="48" fill="none" xmlns="http://www.w3.org/2000/svg"><path d="M22.32.703A2.362 2.362 0 0124 0c.63 0 1.234.253 1.68.703l7.124 7.2a2.414 2.414 0 01-.029 3.364 2.361 2.361 0 01-3.33.03l-3.07-3.104V31.2c0 .636-.25 1.247-.696 1.697-.445.45-1.05.703-1.679.703-.63 0-1.234-.253-1.68-.703a2.413 2.413 0 01-.695-1.697V8.193l-3.07 3.103a2.361 2.361 0 01-3.33-.029 2.414 2.414 0 01-.029-3.364l7.125-7.2zM5 21.6c0-1.273.5-2.494 1.391-3.394A4.725 4.725 0 019.75 16.8h4.75c.63 0 1.234.252 1.68.703.445.45.695 1.06.695 1.697 0 .636-.25 1.247-.696 1.697-.445.45-1.05.703-1.679.703H9.75v21.6h28.5V21.6H33.5c-.63 0-1.234-.253-1.68-.703a2.413 2.413 0 01-.695-1.697c0-.637.25-1.247.696-1.697A2.362 2.362 0 0133.5 16.8h4.75c1.26 0 2.468.505 3.359 1.406.89.9 1.391 2.12 1.391 3.394v21.6c0 1.273-.5 2.494-1.391 3.394A4.725 4.725 0 0138.25 48H9.75a4.725 4.725 0 01-3.359-1.406A4.826 4.826 0 015 43.2V21.6z" fill="#000"/></svg>