<svg width="48" height="48" fill="none" xmlns="http://www.w3.org/2000/svg"><path d="M10.286 5.696a2.418 2.418 0 011.7-.695c.636 0 1.247.25 1.698.695l9.612 9.5a2.36 2.36 0 01.674 1.67 2.362 2.362 0 01-.703 1.66c-.446.44-1.049.69-1.679.695a2.418 2.418 0 01-1.69-.667l-5.51-5.446v27.517c0 .63-.253 1.234-.704 1.68a2.418 2.418 0 01-1.699.695c-.637 0-1.248-.25-1.699-.696a2.361 2.361 0 01-.704-1.679V13.108l-5.51 5.446a2.418 2.418 0 01-1.69.667 2.417 2.417 0 01-1.678-.696A2.361 2.361 0 010 16.866a2.36 2.36 0 01.675-1.67l9.611-9.5zm23.326 29.196V7.375c0-.63.253-1.234.704-1.68A2.418 2.418 0 0136.015 5c.637 0 1.248.25 1.699.696.45.445.704 1.05.704 1.679v27.517l5.51-5.446a2.418 2.418 0 011.69-.667c.63.006 1.233.256 1.678.696.446.44.698 1.036.704 1.659a2.36 2.36 0 01-.675 1.67l-9.611 9.5a2.417 2.417 0 01-1.7.695c-.636 0-1.248-.25-1.698-.695l-9.612-9.5a2.36 2.36 0 01-.674-1.67 2.361 2.361 0 01.703-1.66 2.418 2.418 0 011.679-.695 2.418 2.418 0 011.69.667l5.51 5.446z" fill="#000"/></svg>