<svg width="48" height="48" fill="none" xmlns="http://www.w3.org/2000/svg"><g clip-path="url(#prefix__clip0_2428_24941)"><path d="M36.576 40.042l-11.144 7.504c-.88.6-2.04.6-2.932.014l-11.397-7.532a15.826 15.826 0 01-7.105-13.21V8.585a5.277 5.277 0 013.919-5.092L18.341.706a21.19 21.19 0 0110.877 0l10.424 2.786a5.277 5.277 0 013.918 5.092v18.315a15.863 15.863 0 01-6.984 13.143z" fill="#EC1C24"/><path d="M33.003 16.075H14.542a2.645 2.645 0 01-2.64-2.639 2.645 2.645 0 012.64-2.64h18.461a2.645 2.645 0 012.64 2.64 2.628 2.628 0 01-2.64 2.64zm-9.224 5.279a2.645 2.645 0 00-2.64-2.64h-6.597a2.645 2.645 0 00-2.64 2.64 2.645 2.645 0 002.64 2.64h6.598a2.645 2.645 0 002.639-2.64zm-6.598 7.918a2.645 2.645 0 00-2.64-2.64 2.645 2.645 0 00-2.639 2.64 2.645 2.645 0 002.64 2.639 2.637 2.637 0 002.639-2.64z" fill="#fff"/></g><defs><clipPath id="prefix__clip0_2428_24941"><path fill="#fff" transform="translate(4)" d="M0 0h39.562v48H0z"/></clipPath></defs></svg>