<svg width="48" height="48" viewBox="0 0 48 48" fill="none" xmlns="http://www.w3.org/2000/svg">
<path d="M24 0C14 0 4 1.26316 4 10.1053V34.1053C4 36.4503 4.92187 38.6994 6.56282 40.3576C8.20376 42.0158 10.4294 42.9474 12.75 42.9474L9 46.7368V48H14.575L19.575 42.9474H29L34 48H39V46.7368L35.25 42.9474C37.5706 42.9474 39.7962 42.0158 41.4372 40.3576C43.0781 38.6994 44 36.4503 44 34.1053V10.1053C44 1.26316 35.05 0 24 0ZM12.75 37.8947C11.7554 37.8947 10.8016 37.4955 10.0983 36.7848C9.39509 36.0742 9 35.1103 9 34.1053C9 33.1002 9.39509 32.1364 10.0983 31.4257C10.8016 30.715 11.7554 30.3158 12.75 30.3158C13.7446 30.3158 14.6984 30.715 15.4017 31.4257C16.1049 32.1364 16.5 33.1002 16.5 34.1053C16.5 35.1103 16.1049 36.0742 15.4017 36.7848C14.6984 37.4955 13.7446 37.8947 12.75 37.8947ZM21.5 20.2105H9V10.1053H21.5V20.2105ZM26.5 20.2105V10.1053H39V20.2105H26.5ZM35.25 37.8947C34.2554 37.8947 33.3016 37.4955 32.5983 36.7848C31.8951 36.0742 31.5 35.1103 31.5 34.1053C31.5 33.1002 31.8951 32.1364 32.5983 31.4257C33.3016 30.715 34.2554 30.3158 35.25 30.3158C36.2446 30.3158 37.1984 30.715 37.9016 31.4257C38.6049 32.1364 39 33.1002 39 34.1053C39 35.1103 38.6049 36.0742 37.9016 36.7848C37.1984 37.4955 36.2446 37.8947 35.25 37.8947Z" fill="black"/>
</svg>
