<svg width="48" height="48" fill="none" xmlns="http://www.w3.org/2000/svg"><g clip-path="url(#prefix__clip0_1387_17420)"><path d="M30.845 13.332c.763 0 1.376-.63 1.376-1.376v-3.58c0-.763-.613-1.376-1.376-1.376-.763 0-1.376.613-1.376 1.376v3.58c0 .746.614 1.376 1.376 1.376zm-9.613 3.199c.547.546 1.442.53 1.956 0 .514-.532.53-1.393 0-1.924l-2.552-2.552a1.363 1.363 0 00-1.94 0c-.53.514-.53 1.392 0 1.94l2.536 2.536zm17.272 0c.513.53 1.408.546 1.954 0l2.537-2.537c.53-.547.514-1.425 0-1.939a1.364 1.364 0 00-1.94 0l-2.552 2.552c-.53.532-.514 1.393 0 1.924m-3.399 14.751c2.436-1.641 3.945-4.177 3.945-7.095a8.185 8.185 0 00-8.205-8.22c-3 0-5.602 1.608-6.977 4.011a10.046 10.046 0 011.79 2.453c5.468.448 9 3.845 9.447 8.851zM6.88 40.414h17.934c4.69 0 8.336-3.547 8.336-8.138 0-4.574-3.712-8.023-8.668-8.055-1.94-3.696-5.387-5.851-9.398-5.851-5.387 0-9.962 4.193-10.459 9.63C1.807 28.845 0 31.231 0 34.15c0 3.711 2.801 6.265 6.879 6.265m36.166-14.851h3.58c.745 0 1.359-.613 1.375-1.376 0-.763-.63-1.375-1.376-1.375h-3.58c-.746 0-1.376.613-1.376 1.375 0 .763.63 1.376 1.376 1.376m-1.989 10.79a1.38 1.38 0 001.938-.017c.515-.53.532-1.408 0-1.922l-2.568-2.553c-.53-.513-1.392-.53-1.923 0a1.4 1.4 0 000 1.956l2.553 2.537z" fill="#000"/></g><defs><clipPath id="prefix__clip0_1387_17420"><path fill="#fff" d="M0 0h48v48H0z"/></clipPath></defs></svg>