<svg width="48" height="48" fill="none" xmlns="http://www.w3.org/2000/svg"><path d="M5.356 32.991c-.2-.04-.482-.2-.723-.361-2.047-2.008.603-4.336 3.654-5.661v-3.815c.723.442 1.124.482 1.124.522l2.33-2.328-.764-2.008c6.825-2.369 9.596-3.252 15.137-4.216l-1.004-.923 1.606-.924c3.734 1.245 7.267 1.566 6.665 4.698.16-2.128-2.49-2.931-6.505-4.055l-.762.482 1.485 1.244c-6.625 1.124-10.72 2.45-15.618 4.136l.682 1.726-2.449 2.41c.402.12 4.658 1.525 9.114-1.566l.08-.081c-.12-.2-.44-.442-.802-.763 1.285.08 2.128 1.245 2.007 2.41h-.602c.04-.402-.04-.804-.16-1.085-3.454 2.53-7.428 2.891-10.841 1.687v2.97c-1.647.563-4.577 2.37-4.577 4.136.12.843.562 1.165.923 1.365z" fill="#000"/><path d="M19.292 32.236C15.6 34.083 12.065 35.61 6.645 35.81c-7.066-.16-8.19-4.858-4.818-9.757 3.172-4.938 8.19-9.435 16.18-12.245 2.33-.803 5.702-1.767 8.994-1.807 4.738-.04 9.315 1.445 8.994 5.942-.16 3.493-5.18 8.391-7.79 11.884-1.123 1.526-1.324 2.53.603 2.45 6.986-.442 13.33-2.891 19.192-5.38-3.975 2.69-24.572 12.888-24.652 5.942.04-.883.441-1.807 1.084-2.811.642-1.004 1.566-2.048 2.49-3.091 1.404-1.606 4.897-5.42 6.062-7.71 1.967-4.335-2.45-4.577-6.264-5.901l-1.606.923 1.004.923c-5.54.924-8.311 1.807-15.137 4.176l.763 2.008-2.329 2.328c-.08-.08-.401-.08-1.124-.521v3.814c-3.051 1.325-5.701 3.654-3.613 5.66.2.161.522.362.723.362 3.733 2.128 13.891-.763 13.891-.763" fill="#F60"/></svg>