<svg width="98" height="98" viewBox="0 0 98 98" fill="none" xmlns="http://www.w3.org/2000/svg">
<g clip-path="url(#clip0_590_5569)">
<rect x="0.585" y="0.585" width="95.94" height="95.94" rx="19.305" fill="url(#paint0_linear_590_5569)" stroke="#DEDEDE" stroke-width="1.17"/>
<path d="M40.4754 34.5173C40.2657 34.4306 40.075 34.3028 39.9144 34.1412C39.7538 33.9797 39.6265 33.7876 39.5397 33.576L38.1472 30.3808C37.8865 29.8732 37.1368 29.8732 36.8908 30.3808L35.4968 33.5775C35.308 33.9946 34.9761 34.3285 34.5626 34.5173L32.7849 35.2928C32.6679 35.3477 32.569 35.4352 32.4996 35.5451C32.4302 35.655 32.3934 35.7826 32.3934 35.9129C32.3934 36.0432 32.4302 36.1708 32.4996 36.2807C32.569 36.3906 32.6679 36.4781 32.7849 36.533L34.5626 37.3085C34.9916 37.4876 35.3284 37.8309 35.4968 38.2498L36.8908 41.4598C37.1514 41.9674 37.9012 41.9674 38.1472 41.4598L39.5412 38.2483C39.7257 37.8309 40.0625 37.5024 40.4754 37.3085L42.2531 36.533C42.37 36.4781 42.469 36.3906 42.5384 36.2807C42.6077 36.1708 42.6446 36.0432 42.6446 35.9129C42.6446 35.7826 42.6077 35.655 42.5384 35.5451C42.469 35.4352 42.37 35.3477 42.2531 35.2928L40.4754 34.5173ZM62.519 44.1415C61.2459 43.5648 60.2391 42.5181 59.7046 41.2156L55.5138 31.1992C55.3425 30.8399 55.0743 30.5368 54.7402 30.3247C54.406 30.1125 54.0194 30 53.6248 30C53.2302 30 52.8436 30.1125 52.5095 30.3247C52.1753 30.5368 51.9072 30.8399 51.7359 31.1992L47.5436 41.2156C47.0005 42.5118 45.997 43.5556 44.7307 44.1415L39.427 46.5686C37.8572 47.353 37.8572 49.647 39.427 50.4314L44.7307 52.8585C46.0032 53.4359 47.0098 54.4824 47.545 55.7844L51.7359 65.8008C51.9072 66.1601 52.1753 66.4632 52.5095 66.6753C52.8436 66.8875 53.2302 67 53.6248 67C54.0194 67 54.406 66.8875 54.7402 66.6753C55.0743 66.4632 55.3425 66.1601 55.5138 65.8008L59.7061 55.7844C60.2492 54.4882 61.2527 53.4444 62.519 52.8585L67.8227 50.4314C69.3924 49.647 69.3924 47.353 67.8227 46.5686L62.519 44.1415ZM37.1968 54.1683C37.4311 54.7484 37.8616 55.1983 38.4005 55.4588L40.6702 56.5318C40.8236 56.6125 40.9523 56.7343 41.042 56.8838C41.1318 57.0334 41.1793 57.2049 41.1793 57.3798C41.1793 57.5547 41.1318 57.7262 41.042 57.8758C40.9523 58.0253 40.8236 58.1471 40.6702 58.2278L38.4005 59.3008C37.8616 59.5613 37.4326 60.026 37.1968 60.5913L35.3987 64.9972C35.3269 65.153 35.2125 65.285 35.0691 65.3774C34.9256 65.4698 34.759 65.5189 34.5889 65.5189C34.4188 65.5189 34.2522 65.4698 34.1088 65.3774C33.9653 65.285 33.851 65.153 33.7792 64.9972L31.9825 60.5913C31.7547 60.0244 31.3253 59.564 30.7788 59.3008L28.5091 58.2278C28.3556 58.1471 28.227 58.0253 28.1372 57.8758C28.0475 57.7262 28 57.5547 28 57.3798C28 57.2049 28.0475 57.0334 28.1372 56.8838C28.227 56.7343 28.3556 56.6125 28.5091 56.5318L30.7788 55.4588C31.3177 55.1983 31.7467 54.7336 31.9825 54.1683L33.7806 49.7624C33.8524 49.6065 33.9668 49.4746 34.1102 49.3822C34.2537 49.2898 34.4203 49.2407 34.5904 49.2407C34.7605 49.2407 34.9271 49.2898 35.0705 49.3822C35.214 49.4746 35.3283 49.6065 35.4001 49.7624L37.1968 54.1683Z" fill="white"/>
</g>
<defs>
<linearGradient id="paint0_linear_590_5569" x1="8.19" y1="9.36" x2="86.58" y2="88.335" gradientUnits="userSpaceOnUse">
<stop stop-color="#CB7D5D"/>
<stop offset="1" stop-color="#CB685D"/>
</linearGradient>
<clipPath id="clip0_590_5569">
<rect width="97.11" height="97.11" fill="white"/>
</clipPath>
</defs>
</svg>
