<svg width="98" height="98" viewBox="0 0 98 98" fill="none" xmlns="http://www.w3.org/2000/svg">
<g clip-path="url(#clip0_918_11073)">
<rect x="0.585" y="0.585" width="95.94" height="95.94" rx="19.305" fill="url(#paint0_linear_918_11073)" stroke="#DEDEDE" stroke-width="1.17"/>
<g clip-path="url(#clip1_918_11073)">
<path d="M53.6191 25.5352V40.7012C54.9016 41.4396 55.9669 42.503 56.7076 43.7842C57.4484 45.0654 57.8384 46.5192 57.8384 47.9992C57.8384 49.4791 57.4484 50.9329 56.7076 52.2141C55.9669 53.4953 54.9016 54.5587 53.6191 55.2971V70.4632L38.644 59.2312H25.5391V36.7672H38.644L53.6191 25.5352ZM48.0031 36.7672L40.5141 42.3832H31.1551V53.6152H40.5141L48.0031 59.2312V36.7672Z" fill="white"/>
<path d="M63.7254 34.5207L61.4818 32.8359L58.1094 37.3259L60.3558 39.0107C61.2076 39.651 61.964 40.4093 62.6022 41.2627C64.0146 43.1385 64.8486 45.4663 64.8486 47.9991C64.8486 50.532 64.0146 52.857 62.6022 54.7383C61.9636 55.5898 61.2072 56.3462 60.3558 56.9847L58.1094 58.6723L61.4818 63.1651L63.7282 61.4775C65.0034 60.5193 66.136 59.3847 67.0922 58.1079C69.2841 55.1939 70.4678 51.6455 70.4646 47.9991C70.4646 44.2083 69.2094 40.704 67.095 37.8903C66.1371 36.6132 65.0025 35.4786 63.7254 34.5207Z" fill="white"/>
</g>
</g>
<defs>
<linearGradient id="paint0_linear_918_11073" x1="8.19" y1="9.36" x2="86.58" y2="88.335" gradientUnits="userSpaceOnUse">
<stop stop-color="#00C7A0"/>
<stop offset="1" stop-color="#2B3D39"/>
</linearGradient>
<clipPath id="clip0_918_11073">
<rect width="97.11" height="97.11" fill="white"/>
</clipPath>
<clipPath id="clip1_918_11073">
<rect width="44.928" height="44.928" fill="white" transform="translate(25.5352 25.5361)"/>
</clipPath>
</defs>
</svg>
