<svg width="98" height="98" viewBox="0 0 98 98" fill="none" xmlns="http://www.w3.org/2000/svg">
<g clip-path="url(#clip0_911_6753)">
<rect x="0.585" y="0.585" width="95.94" height="95.94" rx="19.305" fill="url(#paint0_linear_911_6753)" stroke="#DEDEDE" stroke-width="1.17"/>
<path d="M58.7562 27.83H51.1101C49.7285 27.8344 49.7802 29.8936 51.1101 29.8815H58.7562V30.9342H51.1101C49.7362 30.9221 49.7868 32.9802 51.1101 32.9857H58.7562V34.0615H51.1101C49.7362 34.0615 49.7868 36.1185 51.1101 36.113H58.7562V37.1382H51.1101C49.7648 37.1481 49.7868 39.2073 51.1101 39.2139H58.7562V40.2413H51.1101C49.7648 40.2369 49.7593 42.2928 51.1101 42.2928H58.7562V43.318H51.1101C49.7648 43.3224 49.7593 45.3805 51.1101 45.3706H58.7562V46.4211H51.1101C49.7648 46.409 49.7593 48.4649 51.1101 48.4726H58.7562V49.4956H51.1101C49.7648 49.4945 49.7868 51.5548 51.1101 51.5482H58.7562V71.5231C58.7606 74.5668 63.3839 74.5118 63.3971 71.5231V24.7786C63.3839 23.3882 62.2421 21.6304 60.3633 21.6249H51.1101C49.7285 21.626 49.7802 23.6852 51.1101 23.6764L58.7562 23.7017V24.7247H51.1101C49.7307 24.7181 49.7824 26.7762 51.1101 26.7773H58.7562V27.83ZM50.5843 63.2434C50.5799 59.6904 46.8971 55.869 42.4971 58.344V44.7546L39.6514 22.3421C39.592 21.7492 39.0893 21.6095 38.7516 21.5996C38.4029 21.6095 37.7044 21.7492 37.6285 22.3421L34.7971 44.7546V58.344C30.3971 55.869 26.8331 59.7146 26.832 63.2159C26.8331 66.3311 29.2311 68.8897 32.4761 68.882C35.7453 68.8897 38.0971 66.022 38.0971 63.2159V49.0996H39.1971V63.2159C39.1971 66.3575 41.6303 68.6829 44.3341 68.8303C44.289 70.5529 44.8511 73.0103 45.9093 73.9849C47.1501 75.1289 48.6274 73.6659 48.0213 72.4746C47.4361 71.3658 46.8619 70.7091 47.3283 68.288C49.2775 67.386 50.5799 65.4874 50.5843 63.2434ZM32.6015 66.0385C31.8598 66.0385 31.1484 65.7439 30.6239 65.2194C30.0994 64.6949 29.8048 63.9835 29.8048 63.2418C29.8048 62.5 30.0994 61.7887 30.6239 61.2642C31.1484 60.7397 31.8598 60.445 32.6015 60.445C34.1261 60.4538 35.368 61.7045 35.379 63.2434C35.3765 63.9809 35.0836 64.6877 34.5637 65.2108C34.0439 65.7339 33.339 66.0313 32.6015 66.0385ZM42.0296 63.2434C42.0322 62.5054 42.3251 61.7981 42.8451 61.2744C43.3651 60.7508 44.0703 60.4528 44.8082 60.445C45.5462 60.4522 46.2517 60.7501 46.7716 61.2739C47.2915 61.7977 47.584 62.5054 47.5857 63.2434C47.5846 63.9813 47.2922 64.6889 46.772 65.2124C46.2519 65.7358 45.5461 66.0327 44.8082 66.0385C44.0706 66.0316 43.3654 65.7343 42.8453 65.2112C42.3253 64.688 42.0322 63.9811 42.0296 63.2434Z" fill="white"/>
</g>
<defs>
<linearGradient id="paint0_linear_911_6753" x1="8.19" y1="9.36" x2="86.58" y2="88.335" gradientUnits="userSpaceOnUse">
<stop stop-color="#FF5C39"/>
<stop offset="1" stop-color="#FF808B"/>
</linearGradient>
<clipPath id="clip0_911_6753">
<rect width="97.11" height="97.11" fill="white"/>
</clipPath>
</defs>
</svg>
