<svg width="98" height="98" viewBox="0 0 98 98" fill="none" xmlns="http://www.w3.org/2000/svg">
<g clip-path="url(#clip0_590_5559)">
<rect x="0.585" y="0.585" width="95.94" height="95.94" rx="19.305" fill="url(#paint0_linear_590_5559)" stroke="#DEDEDE" stroke-width="1.17"/>
<path d="M43.9173 57.6667V55.375H27.8986L27.8757 64.5417C27.8757 67.0854 29.9152 69.125 32.459 69.125H64.5423C67.0861 69.125 69.1256 67.0854 69.1256 64.5417V55.375H53.084V57.6667H43.9173ZM66.834 37.0417H57.6444V32.4583L53.0611 27.875H43.8944L39.3111 32.4583V37.0417H30.1673C27.6465 37.0417 25.584 39.1042 25.584 41.625V48.5C25.584 51.0438 27.6236 53.0833 30.1673 53.0833H43.9173V48.5H53.084V53.0833H66.834C69.3548 53.0833 71.4173 51.0208 71.4173 48.5V41.625C71.4173 39.1042 69.3548 37.0417 66.834 37.0417ZM53.084 37.0417H43.9173V32.4583H53.084V37.0417Z" fill="white"/>
</g>
<defs>
<linearGradient id="paint0_linear_590_5559" x1="8.19" y1="9.36" x2="86.58" y2="88.335" gradientUnits="userSpaceOnUse">
<stop stop-color="#004040"/>
<stop offset="1" stop-color="#008080"/>
</linearGradient>
<clipPath id="clip0_590_5559">
<rect width="97.11" height="97.11" fill="white"/>
</clipPath>
</defs>
</svg>
