<svg width="98" height="98" viewBox="0 0 98 98" fill="none" xmlns="http://www.w3.org/2000/svg">
<g clip-path="url(#clip0_582_4834)">
<rect x="0.585" y="0.585" width="95.94" height="95.94" rx="19.305" fill="url(#paint0_linear_582_4834)" stroke="#DEDEDE" stroke-width="1.17"/>
<path d="M27.0625 67.6406C27.0625 68.2498 27.3045 68.834 27.7352 69.2648C28.166 69.6955 28.7502 69.9375 29.3594 69.9375H67.6406C68.2498 69.9375 68.834 69.6955 69.2648 69.2648C69.6955 68.834 69.9375 68.2498 69.9375 67.6406V40.8438H27.0625V67.6406ZM57.6875 44.2891C57.6875 44.1875 57.7278 44.0902 57.7996 44.0184C57.8714 43.9466 57.9688 43.9062 58.0703 43.9062H61.8984C62 43.9062 62.0973 43.9466 62.1691 44.0184C62.2409 44.0902 62.2812 44.1875 62.2812 44.2891V48.1172C62.2812 48.2187 62.2409 48.3161 62.1691 48.3879C62.0973 48.4597 62 48.5 61.8984 48.5H58.0703C57.9688 48.5 57.8714 48.4597 57.7996 48.3879C57.7278 48.3161 57.6875 48.2187 57.6875 48.1172V44.2891ZM57.6875 51.9453C57.6875 51.8438 57.7278 51.7464 57.7996 51.6746C57.8714 51.6028 57.9688 51.5625 58.0703 51.5625H61.8984C62 51.5625 62.0973 51.6028 62.1691 51.6746C62.2409 51.7464 62.2812 51.8438 62.2812 51.9453V55.7734C62.2812 55.875 62.2409 55.9723 62.1691 56.0441C62.0973 56.1159 62 56.1562 61.8984 56.1562H58.0703C57.9688 56.1562 57.8714 56.1159 57.7996 56.0441C57.7278 55.9723 57.6875 55.875 57.6875 55.7734V51.9453ZM50.0312 44.2891C50.0312 44.1875 50.0716 44.0902 50.1434 44.0184C50.2152 43.9466 50.3125 43.9062 50.4141 43.9062H54.2422C54.3437 43.9062 54.4411 43.9466 54.5129 44.0184C54.5847 44.0902 54.625 44.1875 54.625 44.2891V48.1172C54.625 48.2187 54.5847 48.3161 54.5129 48.3879C54.4411 48.4597 54.3437 48.5 54.2422 48.5H50.4141C50.3125 48.5 50.2152 48.4597 50.1434 48.3879C50.0716 48.3161 50.0312 48.2187 50.0312 48.1172V44.2891ZM50.0312 51.9453C50.0312 51.8438 50.0716 51.7464 50.1434 51.6746C50.2152 51.6028 50.3125 51.5625 50.4141 51.5625H54.2422C54.3437 51.5625 54.4411 51.6028 54.5129 51.6746C54.5847 51.7464 54.625 51.8438 54.625 51.9453V55.7734C54.625 55.875 54.5847 55.9723 54.5129 56.0441C54.4411 56.1159 54.3437 56.1562 54.2422 56.1562H50.4141C50.3125 56.1562 50.2152 56.1159 50.1434 56.0441C50.0716 55.9723 50.0312 55.875 50.0312 55.7734V51.9453ZM50.0312 59.6016C50.0312 59.5 50.0716 59.4027 50.1434 59.3309C50.2152 59.2591 50.3125 59.2188 50.4141 59.2188H54.2422C54.3437 59.2188 54.4411 59.2591 54.5129 59.3309C54.5847 59.4027 54.625 59.5 54.625 59.6016V63.4297C54.625 63.5312 54.5847 63.6286 54.5129 63.7004C54.4411 63.7722 54.3437 63.8125 54.2422 63.8125H50.4141C50.3125 63.8125 50.2152 63.7722 50.1434 63.7004C50.0716 63.6286 50.0312 63.5312 50.0312 63.4297V59.6016ZM42.375 51.9453C42.375 51.8438 42.4153 51.7464 42.4871 51.6746C42.5589 51.6028 42.6563 51.5625 42.7578 51.5625H46.5859C46.6875 51.5625 46.7848 51.6028 46.8566 51.6746C46.9284 51.7464 46.9688 51.8438 46.9688 51.9453V55.7734C46.9688 55.875 46.9284 55.9723 46.8566 56.0441C46.7848 56.1159 46.6875 56.1562 46.5859 56.1562H42.7578C42.6563 56.1562 42.5589 56.1159 42.4871 56.0441C42.4153 55.9723 42.375 55.875 42.375 55.7734V51.9453ZM42.375 59.6016C42.375 59.5 42.4153 59.4027 42.4871 59.3309C42.5589 59.2591 42.6563 59.2188 42.7578 59.2188H46.5859C46.6875 59.2188 46.7848 59.2591 46.8566 59.3309C46.9284 59.4027 46.9688 59.5 46.9688 59.6016V63.4297C46.9688 63.5312 46.9284 63.6286 46.8566 63.7004C46.7848 63.7722 46.6875 63.8125 46.5859 63.8125H42.7578C42.6563 63.8125 42.5589 63.7722 42.4871 63.7004C42.4153 63.6286 42.375 63.5312 42.375 63.4297V59.6016ZM34.7188 51.9453C34.7188 51.8438 34.7591 51.7464 34.8309 51.6746C34.9027 51.6028 35 51.5625 35.1016 51.5625H38.9297C39.0312 51.5625 39.1286 51.6028 39.2004 51.6746C39.2722 51.7464 39.3125 51.8438 39.3125 51.9453V55.7734C39.3125 55.875 39.2722 55.9723 39.2004 56.0441C39.1286 56.1159 39.0312 56.1562 38.9297 56.1562H35.1016C35 56.1562 34.9027 56.1159 34.8309 56.0441C34.7591 55.9723 34.7188 55.875 34.7188 55.7734V51.9453ZM34.7188 59.6016C34.7188 59.5 34.7591 59.4027 34.8309 59.3309C34.9027 59.2591 35 59.2188 35.1016 59.2188H38.9297C39.0312 59.2188 39.1286 59.2591 39.2004 59.3309C39.2722 59.4027 39.3125 59.5 39.3125 59.6016V63.4297C39.3125 63.5312 39.2722 63.6286 39.2004 63.7004C39.1286 63.7722 39.0312 63.8125 38.9297 63.8125H35.1016C35 63.8125 34.9027 63.7722 34.8309 63.7004C34.7591 63.6286 34.7188 63.5312 34.7188 63.4297V59.6016ZM67.6406 30.125H62.2889V27.0625H57.6952V30.125H39.3048V27.0625H34.7111V30.125H29.3594C29.0589 30.1225 28.7609 30.1794 28.4825 30.2926C28.2041 30.4057 27.9509 30.5729 27.7374 30.7843C27.5239 30.9958 27.3544 31.2474 27.2385 31.5247C27.1227 31.8019 27.0629 32.0994 27.0625 32.3999V37.7812H69.9375V32.3999C69.9371 32.0994 69.8773 31.8019 69.7615 31.5247C69.6456 31.2474 69.4761 30.9958 69.2626 30.7843C69.0491 30.5729 68.7959 30.4057 68.5175 30.2926C68.2391 30.1794 67.9411 30.1225 67.6406 30.125Z" fill="white"/>
</g>
<defs>
<linearGradient id="paint0_linear_582_4834" x1="8.19" y1="9.36" x2="86.58" y2="88.335" gradientUnits="userSpaceOnUse">
<stop stop-color="#4867CD"/>
<stop offset="1" stop-color="#5A85EB"/>
</linearGradient>
<clipPath id="clip0_582_4834">
<rect width="97.11" height="97.11" fill="white"/>
</clipPath>
</defs>
</svg>
