<svg width="98" height="98" viewBox="0 0 98 98" fill="none" xmlns="http://www.w3.org/2000/svg">
<g clip-path="url(#clip0_590_5570)">
<rect x="0.585" y="0.585" width="95.94" height="95.94" rx="19.305" fill="url(#paint0_linear_590_5570)" stroke="#DEDEDE" stroke-width="1.17"/>
<path d="M66.1875 31.8125H31.8125C30.9837 31.8125 30.1888 32.1417 29.6028 32.7278C29.0167 33.3138 28.6875 34.1087 28.6875 34.9375V63.0625C28.6875 63.8913 29.0167 64.6862 29.6028 65.2722C30.1888 65.8583 30.9837 66.1875 31.8125 66.1875H66.1875C67.0163 66.1875 67.8112 65.8583 68.3972 65.2722C68.9833 64.6862 69.3125 63.8913 69.3125 63.0625V34.9375C69.3125 34.1087 68.9833 33.3138 68.3972 32.7278C67.8112 32.1417 67.0163 31.8125 66.1875 31.8125ZM42.125 52.4375C42.4565 52.6861 42.6757 53.0563 42.7343 53.4665C42.7929 53.8768 42.6861 54.2935 42.4375 54.625C42.1889 54.9565 41.8187 55.1757 41.4085 55.2343C40.9982 55.2929 40.5815 55.1861 40.25 54.9375L34 50.25C33.8059 50.1045 33.6484 49.9157 33.54 49.6988C33.4315 49.4818 33.375 49.2426 33.375 49C33.375 48.7574 33.4315 48.5182 33.54 48.3012C33.6484 48.0843 33.8059 47.8955 34 47.75L40.25 43.0625C40.5815 42.8139 40.9982 42.7071 41.4085 42.7657C41.8187 42.8243 42.1889 43.0435 42.4375 43.375C42.6861 43.7065 42.7929 44.1232 42.7343 44.5335C42.6757 44.9437 42.4565 45.3139 42.125 45.5625L37.541 49L42.125 52.4375ZM53.627 38.4922L47.377 60.3672C47.3237 60.568 47.2309 60.7561 47.1041 60.9206C46.9772 61.0851 46.8188 61.2227 46.6382 61.3253C46.4576 61.4278 46.2583 61.4934 46.052 61.518C45.8458 61.5426 45.6366 61.5259 45.4369 61.4688C45.2372 61.4116 45.0509 61.3152 44.8889 61.1852C44.7268 61.0552 44.5924 60.8942 44.4933 60.7116C44.3942 60.5291 44.3326 60.3285 44.3119 60.1218C44.2913 59.9151 44.3121 59.7064 44.373 59.5078L50.623 37.6328C50.7432 37.2417 51.0119 36.9133 51.3716 36.7181C51.7312 36.523 52.1531 36.4768 52.5465 36.5893C52.9399 36.7018 53.2734 36.9642 53.4754 37.32C53.6775 37.6758 53.7319 38.0967 53.627 38.4922ZM64 50.25L57.75 54.9375C57.4185 55.1861 57.0018 55.2929 56.5915 55.2343C56.1813 55.1757 55.8111 54.9565 55.5625 54.625C55.3139 54.2935 55.2071 53.8768 55.2657 53.4665C55.3243 53.0563 55.5435 52.6861 55.875 52.4375L60.459 49L55.875 45.5625C55.7108 45.4394 55.5726 45.2851 55.468 45.1086C55.3635 44.932 55.2947 44.7366 55.2657 44.5335C55.2367 44.3303 55.248 44.1235 55.2989 43.9247C55.3498 43.7259 55.4394 43.5392 55.5625 43.375C55.6856 43.2108 55.8399 43.0726 56.0164 42.968C56.193 42.8635 56.3884 42.7947 56.5915 42.7657C56.7947 42.7367 57.0015 42.748 57.2003 42.7989C57.3991 42.8498 57.5858 42.9394 57.75 43.0625L64 47.75C64.1941 47.8955 64.3516 48.0843 64.46 48.3012C64.5685 48.5182 64.625 48.7574 64.625 49C64.625 49.2426 64.5685 49.4818 64.46 49.6988C64.3516 49.9157 64.1941 50.1045 64 50.25Z" fill="white"/>
</g>
<defs>
<linearGradient id="paint0_linear_590_5570" x1="8.19" y1="9.36" x2="86.58" y2="88.335" gradientUnits="userSpaceOnUse">
<stop stop-color="#155D91"/>
<stop offset="1" stop-color="#42ABF4"/>
</linearGradient>
<clipPath id="clip0_590_5570">
<rect width="97.11" height="97.11" fill="white"/>
</clipPath>
</defs>
</svg>
