<svg width="98" height="98" viewBox="0 0 98 98" fill="none" xmlns="http://www.w3.org/2000/svg">
<g clip-path="url(#clip0_590_5565)">
<path d="M45.108 47.7582L47.392 45.4682L45.339 43.4082L44.534 44.2122C44.4407 44.3055 44.3273 44.3565 44.194 44.3652C44.0607 44.3738 43.9383 44.3228 43.827 44.2122C43.7163 44.1015 43.661 43.9825 43.661 43.8552C43.661 43.7278 43.7163 43.6088 43.827 43.4982L44.625 42.7002L42.673 40.7482L40.383 43.0382L45.108 47.7582ZM52.942 55.5982L55.232 53.3082L53.281 51.3562L52.477 52.1542C52.3797 52.2515 52.265 52.3035 52.133 52.3102C52.001 52.3168 51.8797 52.2648 51.769 52.1542C51.6583 52.0435 51.6033 51.9255 51.604 51.8002C51.6047 51.6748 51.6597 51.5568 51.769 51.4462L52.567 50.6422L50.527 48.6082L48.242 50.8922L52.942 55.5982ZM51.532 42.7522L53.26 44.4792L55.006 42.7332L53.273 41.0002L51.532 42.7522ZM40.809 56.0002C40.577 56.0002 40.3843 55.9235 40.231 55.7702C40.0777 55.6168 40.0007 55.4242 40 55.1922V53.1752C40 53.0678 40.0187 52.9675 40.056 52.8742C40.0933 52.7808 40.1553 52.6908 40.242 52.6042L44.394 48.4522L39.646 43.6852C39.4653 43.5045 39.375 43.2892 39.375 43.0392C39.375 42.7892 39.4653 42.5735 39.646 42.3922L42.027 40.0122C42.2077 39.8315 42.423 39.7418 42.673 39.7432C42.923 39.7445 43.1383 39.8358 43.319 40.0172L48.112 44.7842L52.579 40.3112C52.689 40.2012 52.805 40.1218 52.927 40.0732C53.049 40.0245 53.179 40.0002 53.317 40.0002C53.455 40.0002 53.585 40.0245 53.707 40.0732C53.829 40.1218 53.9453 40.2012 54.056 40.3112L55.688 42.0082C55.7987 42.1182 55.8753 42.2342 55.918 42.3562C55.9607 42.4782 55.9817 42.6082 55.981 42.7462C55.9803 42.8842 55.959 43.0102 55.917 43.1242C55.875 43.2382 55.799 43.3502 55.689 43.4602L51.259 47.9142L55.989 52.6812C56.169 52.8618 56.259 53.0772 56.259 53.3272C56.259 53.5772 56.169 53.7925 55.989 53.9732L53.608 56.3532C53.4273 56.5345 53.212 56.6252 52.962 56.6252C52.712 56.6252 52.4967 56.5348 52.316 56.3542L47.548 51.6062L43.396 55.7582C43.3093 55.8448 43.2193 55.9068 43.126 55.9442C43.0327 55.9815 42.9323 56.0002 42.825 56.0002H40.809Z" fill="black"/>
<rect x="0.585" y="0.585" width="95.94" height="95.94" rx="19.305" fill="url(#paint0_linear_590_5565)" stroke="#DEDEDE" stroke-width="1.17"/>
<path d="M41.8725 47.9459L47.1067 42.698L42.4019 37.9771L40.5571 39.8196C40.3432 40.0335 40.0835 40.1504 39.7779 40.1702C39.4724 40.1901 39.192 40.0732 38.9369 39.8196C38.6833 39.566 38.5565 39.2933 38.5565 39.0015C38.5565 38.7097 38.6833 38.437 38.9369 38.1834L40.7656 36.3546L36.2923 31.8813L31.0444 37.1292L41.8725 47.9459ZM59.8254 65.9125L65.0733 60.6646L60.6023 56.1913L58.7598 58.02C58.5367 58.2431 58.274 58.3623 57.9715 58.3775C57.669 58.3928 57.3909 58.2736 57.1373 58.02C56.8837 57.7664 56.7576 57.496 56.7592 57.2088C56.7607 56.9216 56.8867 56.6511 57.1373 56.3975L58.966 54.555L54.291 49.8938L49.0546 55.128L59.8254 65.9125ZM56.5942 36.4738L60.5542 40.4315L64.5554 36.4302L60.584 32.4588L56.5942 36.4738ZM32.0206 66.8338C31.489 66.8338 31.0474 66.6581 30.696 66.3067C30.3447 65.9553 30.1682 65.5138 30.1667 64.9821V60.3598C30.1667 60.1139 30.2094 59.8839 30.295 59.67C30.3806 59.4561 30.5226 59.2499 30.7213 59.0513L40.2362 49.5363L29.3554 38.6119C28.9414 38.1979 28.7344 37.7044 28.7344 37.1315C28.7344 36.5586 28.9414 36.0643 29.3554 35.6488L34.8119 30.1946C35.2259 29.7806 35.7194 29.5751 36.2923 29.5782C36.8652 29.5812 37.3587 29.7905 37.7727 30.2061L48.7567 41.1305L58.9935 30.8798C59.2456 30.6277 59.5115 30.4459 59.791 30.3344C60.0706 30.2229 60.3685 30.1671 60.6848 30.1671C61.001 30.1671 61.299 30.2229 61.5785 30.3344C61.8581 30.4459 62.1247 30.6277 62.3783 30.8798L66.1183 34.7688C66.3719 35.0209 66.5476 35.2867 66.6454 35.5663C66.7432 35.8459 66.7913 36.1438 66.7898 36.46C66.7883 36.7763 66.7394 37.065 66.6431 37.3263C66.5469 37.5875 66.3727 37.8442 66.1206 38.0963L55.9685 48.3034L66.8081 59.2277C67.2206 59.6418 67.4269 60.1352 67.4269 60.7082C67.4269 61.2811 67.2206 61.7745 66.8081 62.1886L61.3517 67.6427C60.9376 68.0583 60.4442 68.2661 59.8712 68.2661C59.2983 68.2661 58.8049 68.0591 58.3908 67.645L47.4642 56.7642L37.9492 66.2792C37.7506 66.4778 37.5443 66.6199 37.3304 66.7055C37.1165 66.791 36.8866 66.8338 36.6406 66.8338H32.0206Z" fill="white"/>
</g>
<defs>
<linearGradient id="paint0_linear_590_5565" x1="8.19" y1="9.36" x2="86.58" y2="88.335" gradientUnits="userSpaceOnUse">
<stop stop-color="#101010"/>
<stop offset="1" stop-color="#2E2E2E"/>
</linearGradient>
<clipPath id="clip0_590_5565">
<rect width="97.11" height="97.11" fill="white"/>
</clipPath>
</defs>
</svg>
