<svg width="98" height="98" viewBox="0 0 98 98" fill="none" xmlns="http://www.w3.org/2000/svg">
<g clip-path="url(#clip0_590_5564)">
<rect x="0.585" y="0.585" width="95.94" height="95.94" rx="19.305" fill="url(#paint0_linear_590_5564)" stroke="#DEDEDE" stroke-width="1.17"/>
<path d="M56.6667 50.5413H50.5417C49.4188 50.5413 48.5 51.4601 48.5 52.583V58.708C48.5 59.8309 49.4188 60.7497 50.5417 60.7497H56.6667C57.7896 60.7497 58.7083 59.8309 58.7083 58.708V52.583C58.7083 51.4601 57.7896 50.5413 56.6667 50.5413ZM56.6667 30.1247V32.1663H40.3333V30.1247C40.3333 29.0018 39.4146 28.083 38.2917 28.083C37.1688 28.083 36.25 29.0018 36.25 30.1247V32.1663H34.2083C31.9421 32.1663 30.1454 34.0038 30.1454 36.2497L30.125 64.833C30.125 65.916 30.5552 66.9546 31.321 67.7204C32.0868 68.4861 33.1254 68.9163 34.2083 68.9163H62.7917C65.0375 68.9163 66.875 67.0788 66.875 64.833V36.2497C66.875 34.0038 65.0375 32.1663 62.7917 32.1663H60.75V30.1247C60.75 29.0018 59.8313 28.083 58.7083 28.083C57.5854 28.083 56.6667 29.0018 56.6667 30.1247ZM60.75 64.833H36.25C35.1271 64.833 34.2083 63.9143 34.2083 62.7913V42.3747H62.7917V62.7913C62.7917 63.9143 61.8729 64.833 60.75 64.833Z" fill="white"/>
</g>
<defs>
<linearGradient id="paint0_linear_590_5564" x1="8.19" y1="9.36" x2="86.58" y2="88.335" gradientUnits="userSpaceOnUse">
<stop stop-color="#A20000"/>
<stop offset="1" stop-color="#E61B3E"/>
</linearGradient>
<clipPath id="clip0_590_5564">
<rect width="97.11" height="97.11" fill="white"/>
</clipPath>
</defs>
</svg>
