<svg width="98" height="98" viewBox="0 0 98 98" fill="none" xmlns="http://www.w3.org/2000/svg">
<g clip-path="url(#clip0_573_4613)">
<rect x="0.585" y="0.585" width="95.94" height="95.94" rx="19.305" fill="url(#paint0_linear_573_4613)" stroke="#DEDEDE" stroke-width="1.17"/>
<g clip-path="url(#clip1_573_4613)">
<path fill-rule="evenodd" clip-rule="evenodd" d="M51.583 28.3333C51.583 27.6482 51.3108 26.9911 50.8264 26.5066C50.3419 26.0222 49.6848 25.75 48.9997 25.75C48.3145 25.75 47.6575 26.0222 47.173 26.5066C46.6885 26.9911 46.4163 27.6482 46.4163 28.3333V30.9167C43.6758 30.9167 41.0474 32.0054 39.1096 33.9432C37.1717 35.8811 36.083 38.5094 36.083 41.25C36.083 43.9906 37.1717 46.6189 39.1096 48.5568C41.0474 50.4946 43.6758 51.5833 46.4163 51.5833V61.9167C45.3476 61.9172 44.305 61.5863 43.4322 60.9696C42.5594 60.3528 41.8993 59.4806 41.5429 58.4731C41.3058 57.839 40.8293 57.3233 40.2158 57.0369C39.6024 56.7506 38.9011 56.7165 38.2628 56.942C37.6244 57.1674 37.1001 57.6345 36.8026 58.2426C36.5051 58.8507 36.4582 59.5513 36.672 60.1936C37.3843 62.2087 38.7039 63.9534 40.449 65.1874C42.1942 66.4213 44.279 67.0837 46.4163 67.0833V69.6667C46.4163 70.3518 46.6885 71.0089 47.173 71.4934C47.6575 71.9778 48.3145 72.25 48.9997 72.25C49.6848 72.25 50.3419 71.9778 50.8264 71.4934C51.3108 71.0089 51.583 70.3518 51.583 69.6667V67.0833C54.3236 67.0833 56.9519 65.9946 58.8898 64.0568C60.8277 62.1189 61.9163 59.4906 61.9163 56.75C61.9163 54.0094 60.8277 51.3811 58.8898 49.4432C56.9519 47.5054 54.3236 46.4167 51.583 46.4167V36.0833C52.6517 36.0828 53.6943 36.4137 54.5671 37.0304C55.44 37.6472 56.1 38.5194 56.4565 39.5269C56.6936 40.161 57.1701 40.6767 57.7835 40.9631C58.3969 41.2494 59.0983 41.2835 59.7366 41.058C60.3749 40.8326 60.8992 40.3655 61.1967 39.7574C61.4942 39.1493 61.5411 38.4487 61.3273 37.8064C60.6151 35.7913 59.2955 34.0466 57.5503 32.8127C55.8052 31.5787 53.7203 30.9163 51.583 30.9167V28.3333ZM46.4163 36.0833C45.0461 36.0833 43.7319 36.6277 42.763 37.5966C41.794 38.5656 41.2497 39.8797 41.2497 41.25C41.2497 42.6203 41.794 43.9344 42.763 44.9034C43.7319 45.8723 45.0461 46.4167 46.4163 46.4167V36.0833ZM51.583 51.5833V61.9167C52.9533 61.9167 54.2675 61.3723 55.2364 60.4034C56.2053 59.4344 56.7497 58.1203 56.7497 56.75C56.7497 55.3797 56.2053 54.0656 55.2364 53.0966C54.2675 52.1277 52.9533 51.5833 51.583 51.5833Z" fill="white"/>
</g>
</g>
<defs>
<linearGradient id="paint0_linear_573_4613" x1="8.19" y1="9.36" x2="86.58" y2="88.335" gradientUnits="userSpaceOnUse">
<stop stop-color="#119106"/>
<stop offset="1" stop-color="#15780D"/>
</linearGradient>
<clipPath id="clip0_573_4613">
<rect width="97.11" height="97.11" fill="white"/>
</clipPath>
<clipPath id="clip1_573_4613">
<rect width="62" height="62" fill="white" transform="translate(18 18)"/>
</clipPath>
</defs>
</svg>
