<svg width="98" height="98" viewBox="0 0 98 98" fill="none" xmlns="http://www.w3.org/2000/svg">
<g clip-path="url(#clip0_580_4645)">
<rect x="0.585" y="0.585" width="95.94" height="95.94" rx="19.305" fill="url(#paint0_linear_580_4645)" stroke="#DEDEDE" stroke-width="1.17"/>
<g clip-path="url(#clip1_580_4645)">
<path d="M54.5 34C56.9853 34 59 31.9853 59 29.5C59 27.0147 56.9853 25 54.5 25C52.0147 25 50 27.0147 50 29.5C50 31.9853 52.0147 34 54.5 34ZM39.6584 54.7628L38.2709 57.9991H32C30.3434 57.9991 29 59.3425 29 60.9991C29 62.6556 30.3434 63.9991 32 63.9991H39.2609C41.0656 63.9991 42.6903 62.9266 43.3962 61.2719L44.2203 59.3481L43.22 58.7575C41.5962 57.7984 40.4019 56.3791 39.6584 54.7628ZM65 45.9991H60.8722L58.4291 41.0069C57.2572 38.6116 55.1056 36.8603 52.6372 36.2312L45.9734 34.2494C43.3203 33.6119 40.5575 34.1978 38.3947 35.8562L34.6756 38.7072C33.3603 39.715 33.1109 41.5975 34.1206 42.9128C35.1303 44.2281 37.0119 44.4747 38.3263 43.4678L42.0472 40.6169C42.7662 40.0647 43.6822 39.8669 44.4163 40.0412L45.7944 40.4509L42.2825 48.6437C41.0994 51.4075 42.1597 54.6447 44.7481 56.1728L52.715 60.8762L50.1397 69.1009C49.6447 70.6816 50.525 72.3644 52.1056 72.8594C52.4047 72.9531 52.7066 72.9981 53.0037 72.9981C54.2797 72.9981 55.4628 72.1759 55.865 70.8934L58.8313 61.4191C59.3853 59.4719 58.5603 57.3803 56.8025 56.32L51.0613 52.9319L53.9966 45.5931L55.8969 49.4772C56.6469 51.0091 58.2331 51.9981 59.9384 51.9981H65C66.6566 51.9981 68 50.6547 68 48.9981C68 47.3416 66.6566 45.9991 65 45.9991Z" fill="white"/>
</g>
</g>
<defs>
<linearGradient id="paint0_linear_580_4645" x1="8.19" y1="9.36" x2="86.58" y2="88.335" gradientUnits="userSpaceOnUse">
<stop stop-color="#B80065"/>
<stop offset="1" stop-color="#88004B"/>
</linearGradient>
<clipPath id="clip0_580_4645">
<rect width="97.11" height="97.11" fill="white"/>
</clipPath>
<clipPath id="clip1_580_4645">
<rect width="39" height="48" fill="white" transform="translate(29 25)"/>
</clipPath>
</defs>
</svg>
