<svg width="98" height="98" viewBox="0 0 98 98" fill="none" xmlns="http://www.w3.org/2000/svg">
<g clip-path="url(#clip0_561_4189)">
<rect x="0.585" y="0.585" width="95.94" height="95.94" rx="19.305" fill="url(#paint0_linear_561_4189)" stroke="#DEDEDE" stroke-width="1.17"/>
<path d="M37.5096 42.4596H35.5296M45.4296 42.4596H43.4496M37.5096 36.5196H35.5296M45.4296 36.5196H43.4496M61.2696 54.3396H59.2896M61.2696 46.4196H59.2896M52.3596 40.4796V68.1996H60.2796C64.0139 68.1996 65.879 68.1996 67.0393 67.0393C68.1996 65.879 68.1996 64.0139 68.1996 60.2796V48.3996C68.1996 44.6653 68.1996 42.8002 67.0393 41.6399C65.879 40.4796 64.0139 40.4796 60.2796 40.4796H52.3596ZM52.3596 40.4796C52.3596 34.8802 52.3596 32.0785 50.6192 30.34C48.8807 28.5996 46.079 28.5996 40.4796 28.5996C34.8802 28.5996 32.0785 28.5996 30.34 30.34C28.5996 32.0785 28.5996 34.8802 28.5996 40.4796V44.4396M40.5291 52.2705C40.5406 52.7979 40.4467 53.3222 40.2528 53.8128C40.0589 54.3033 39.7689 54.7502 39.3999 55.1271C39.031 55.5041 38.5904 55.8035 38.1041 56.0079C37.6178 56.2122 37.0956 56.3173 36.5681 56.317C36.0406 56.3168 35.5185 56.2111 35.0324 56.0063C34.5463 55.8015 34.106 55.5016 33.7374 55.1243C33.3688 54.747 33.0793 54.2998 32.8859 53.8091C32.6925 53.3183 32.599 52.7939 32.6111 52.2665C32.6347 51.2319 33.0625 50.2476 33.8028 49.5244C34.5431 48.8012 35.5371 48.3965 36.572 48.397C37.607 48.3976 38.6006 48.8032 39.3401 49.5272C40.0797 50.2511 40.5065 51.2358 40.5291 52.2705ZM28.7382 64.6554C30.833 61.432 34.1614 60.2242 36.5691 60.2261C38.9768 60.2281 42.2062 61.432 44.303 64.6554C44.4376 64.8633 44.4752 65.1207 44.3525 65.3365C43.8634 66.2057 42.3408 67.9303 41.2439 68.0452C39.9787 68.1798 36.676 68.1996 36.5711 68.1996C36.4661 68.1996 33.0605 68.1798 31.7993 68.0452C30.6984 67.9283 29.1778 66.2057 28.6867 65.3365C28.6316 65.2293 28.6073 65.1089 28.6164 64.9887C28.6255 64.8685 28.6676 64.7531 28.7382 64.6554Z" stroke="white" stroke-width="2.97" stroke-linecap="round" stroke-linejoin="round"/>
</g>
<defs>
<linearGradient id="paint0_linear_561_4189" x1="8.19" y1="9.36" x2="86.58" y2="88.335" gradientUnits="userSpaceOnUse">
<stop stop-color="#049363"/>
<stop offset="1" stop-color="#00C382"/>
</linearGradient>
<clipPath id="clip0_561_4189">
<rect width="97.11" height="97.11" fill="white"/>
</clipPath>
</defs>
</svg>
