<svg width="98" height="98" viewBox="0 0 98 98" fill="none" xmlns="http://www.w3.org/2000/svg">
<g clip-path="url(#clip0_575_4823)">
<rect x="0.585" y="0.585" width="95.94" height="95.94" rx="19.305" fill="url(#paint0_linear_575_4823)" stroke="#DEDEDE" stroke-width="1.17"/>
<path d="M50.6878 28.1875V32.125H55.1316C55.9213 32.125 56.6931 32.3635 57.3456 32.8067L61.1638 35.4032C61.2583 35.4662 61.3633 35.4985 61.4788 35.5H70.7083C71.1559 35.5 71.5851 35.6778 71.9015 35.9943C72.218 36.3107 72.3958 36.7399 72.3958 37.1875C72.3958 37.6351 72.218 38.0643 71.9015 38.3807C71.5851 38.6972 71.1559 38.875 70.7083 38.875H67.1578L74.7313 56.155C74.8828 56.5005 74.9142 56.8869 74.8204 57.2523C74.7266 57.6177 74.513 57.9412 74.2138 58.171C73.9888 58.3375 73.7563 58.492 73.5163 58.6345C72.9467 58.9771 72.3526 59.2772 71.7388 59.5322C69.7036 60.3833 67.5187 60.8186 65.3128 60.8125C63.1075 60.8221 60.9228 60.3874 58.8891 59.5345C58.2752 59.2787 57.6811 58.9779 57.1115 58.6345C56.8722 58.4973 56.6415 58.3455 56.4208 58.18L56.4096 58.171C56.1103 57.9412 55.8968 57.6177 55.803 57.2523C55.7092 56.8869 55.7405 56.5005 55.8921 56.155L63.47 38.875H61.4766C60.6868 38.875 59.9151 38.6365 59.2626 38.1932L55.4443 35.5968C55.3513 35.5338 55.2416 35.5001 55.1293 35.5H50.6878V68.125H60.7835C61.2311 68.125 61.6603 68.3028 61.9768 68.6193C62.2933 68.9357 62.471 69.3649 62.471 69.8125C62.471 70.2601 62.2933 70.6893 61.9768 71.0057C61.6603 71.3222 61.2311 71.5 60.7835 71.5H37.2171C36.7695 71.5 36.3403 71.3222 36.0238 71.0057C35.7073 70.6893 35.5296 70.2601 35.5296 69.8125C35.5296 69.3649 35.7073 68.9357 36.0238 68.6193C36.3403 68.3028 36.7695 68.125 37.2171 68.125H47.3128V35.5H42.8691C42.7567 35.5001 42.647 35.5338 42.5541 35.5968L38.7381 38.1932C38.0856 38.6365 37.3138 38.875 36.5241 38.875H34.5306L42.1086 56.155C42.2552 56.4907 42.2887 56.865 42.2038 57.2214C42.119 57.5778 41.9205 57.8969 41.6383 58.1305C41.4583 58.2768 41.2783 58.414 40.9408 58.6323C40.3721 59.0013 39.7764 59.327 39.1588 59.6065C37.1272 60.5313 34.92 61.0071 32.6878 61.0015C30.4556 61.0071 28.2484 60.5313 26.2168 59.6065C25.5992 59.327 25.0035 59.0013 24.4348 58.6323C24.1953 58.4776 23.9633 58.3117 23.7396 58.135C23.459 57.8992 23.2617 57.5795 23.1766 57.223C23.0915 56.8665 23.1232 56.4921 23.2671 56.155L30.8428 38.875H27.2946C26.847 38.875 26.4178 38.6972 26.1013 38.3807C25.7848 38.0643 25.6071 37.6351 25.6071 37.1875C25.6071 36.7399 25.7848 36.3107 26.1013 35.9943C26.4178 35.6778 26.847 35.5 27.2946 35.5H36.5241C36.6381 35.5 36.7438 35.4677 36.8413 35.4032L40.6551 32.8067C41.3076 32.3612 42.0816 32.125 42.8713 32.125H47.3128V28.1875C47.3128 27.7399 47.4906 27.3107 47.8071 26.9943C48.1235 26.6778 48.5527 26.5 49.0003 26.5C49.4479 26.5 49.8771 26.6778 50.1935 26.9943C50.51 27.3107 50.6878 27.7399 50.6878 28.1875ZM26.9346 56.1955C28.7049 57.1395 30.6815 57.6303 32.6878 57.6243C34.6941 57.6303 36.6707 57.1395 38.4411 56.1955L32.6878 43.078L26.9346 56.1955ZM59.582 56.1415C59.7665 56.2315 59.9728 56.326 60.2008 56.425C61.3933 56.9268 63.1371 57.4375 65.3128 57.4375C67.2963 57.4428 69.2554 56.9998 71.0436 56.1415L65.3128 43.0757L59.582 56.1415Z" fill="white"/>
</g>
<defs>
<linearGradient id="paint0_linear_575_4823" x1="8.19" y1="9.36" x2="86.58" y2="88.335" gradientUnits="userSpaceOnUse">
<stop stop-color="#239CFF"/>
<stop offset="1" stop-color="#005BA5"/>
</linearGradient>
<clipPath id="clip0_575_4823">
<rect width="97.11" height="97.11" fill="white"/>
</clipPath>
</defs>
</svg>
