<svg width="98" height="98" viewBox="0 0 98 98" fill="none" xmlns="http://www.w3.org/2000/svg">
<g clip-path="url(#clip0_582_4833)">
<rect x="0.585" y="0.585" width="95.94" height="95.94" rx="19.305" fill="url(#paint0_linear_582_4833)" stroke="#DEDEDE" stroke-width="1.17"/>
<path d="M30.8327 66.1663C29.6181 66.1663 28.5787 65.7342 27.7145 64.87C26.8503 64.0059 26.4175 62.9657 26.416 61.7497V35.2497C26.416 34.0351 26.8488 32.9957 27.7145 32.1315C28.5802 31.2673 29.6196 30.8345 30.8327 30.833H66.166C67.3806 30.833 68.4207 31.2658 69.2864 32.1315C70.1521 32.9972 70.5842 34.0366 70.5827 35.2497V61.7497C70.5827 62.9643 70.1506 64.0044 69.2864 64.87C68.4222 65.7357 67.3821 66.1678 66.166 66.1663H30.8327ZM48.4993 50.708L66.166 39.6663V35.2497L48.4993 46.2913L30.8327 35.2497V39.6663L48.4993 50.708Z" fill="white"/>
</g>
<defs>
<linearGradient id="paint0_linear_582_4833" x1="8.19" y1="9.36" x2="86.58" y2="88.335" gradientUnits="userSpaceOnUse">
<stop stop-color="#DF4A3A"/>
<stop offset="1" stop-color="#B93622"/>
</linearGradient>
<clipPath id="clip0_582_4833">
<rect width="97.11" height="97.11" fill="white"/>
</clipPath>
</defs>
</svg>
