<svg width="98" height="98" viewBox="0 0 98 98" fill="none" xmlns="http://www.w3.org/2000/svg">
<g clip-path="url(#clip0_590_5566)">
<rect x="0.585" y="0.585" width="95.94" height="95.94" rx="19.305" fill="url(#paint0_linear_590_5566)" stroke="#DEDEDE" stroke-width="1.17"/>
<path d="M48.5007 28.083C40.5994 28.083 34.209 34.4734 34.209 42.3747C34.209 53.0934 48.5007 68.9163 48.5007 68.9163C48.5007 68.9163 62.7923 53.0934 62.7923 42.3747C62.7923 34.4734 56.4019 28.083 48.5007 28.083ZM48.5007 47.4788C47.1469 47.4788 45.8487 46.9411 44.8915 45.9839C43.9342 45.0266 43.3965 43.7284 43.3965 42.3747C43.3965 41.021 43.9342 39.7227 44.8915 38.7655C45.8487 37.8083 47.1469 37.2705 48.5007 37.2705C49.8544 37.2705 51.1526 37.8083 52.1098 38.7655C53.0671 39.7227 53.6048 41.021 53.6048 42.3747C53.6048 43.7284 53.0671 45.0266 52.1098 45.9839C51.1526 46.9411 49.8544 47.4788 48.5007 47.4788Z" fill="white"/>
</g>
<defs>
<linearGradient id="paint0_linear_590_5566" x1="8.19" y1="9.36" x2="86.58" y2="88.335" gradientUnits="userSpaceOnUse">
<stop stop-color="#11672D"/>
<stop offset="1" stop-color="#3EAB61"/>
</linearGradient>
<clipPath id="clip0_590_5566">
<rect width="97.11" height="97.11" fill="white"/>
</clipPath>
</defs>
</svg>
