<svg width="98" height="98" viewBox="0 0 98 98" fill="none" xmlns="http://www.w3.org/2000/svg">
<g clip-path="url(#clip0_729_5930)">
<rect x="0.585" y="0.585" width="95.94" height="95.94" rx="19.305" fill="url(#paint0_linear_729_5930)" stroke="#DEDEDE" stroke-width="1.17"/>
<path d="M29.6654 63.5H34.4987V73.3624L46.8261 63.5H58.6654C61.331 63.5 63.4987 61.3323 63.4987 58.6667V39.3333C63.4987 36.6678 61.331 34.5 58.6654 34.5H29.6654C26.9998 34.5 24.832 36.6678 24.832 39.3333V58.6667C24.832 61.3323 26.9998 63.5 29.6654 63.5Z" fill="white"/>
<path d="M68.3333 24.833H39.3333C36.6678 24.833 34.5 27.0008 34.5 29.6663H63.5C66.1656 29.6663 68.3333 31.8341 68.3333 34.4997V53.833C70.9989 53.833 73.1667 51.6653 73.1667 48.9997V29.6663C73.1667 27.0008 70.9989 24.833 68.3333 24.833Z" fill="white"/>
</g>
<defs>
<linearGradient id="paint0_linear_729_5930" x1="8.19" y1="9.36" x2="86.58" y2="88.335" gradientUnits="userSpaceOnUse">
<stop stop-color="#5861E5"/>
<stop offset="1" stop-color="#62B3E0"/>
</linearGradient>
<clipPath id="clip0_729_5930">
<rect width="97.11" height="97.11" fill="white"/>
</clipPath>
</defs>
</svg>
