<svg width="98" height="98" viewBox="0 0 98 98" fill="none" xmlns="http://www.w3.org/2000/svg">
<g clip-path="url(#clip0_176_6047)">
<rect x="0.585" y="0.585" width="95.94" height="95.94" rx="19.305" fill="url(#paint0_linear_176_6047)" stroke="#DEDEDE" stroke-width="1.17"/>
<path d="M33.25 52.3125V48.5H37.0625V52.3125H33.25ZM21.8125 33.25C21.8125 31.2277 22.6158 29.2883 24.0458 27.8583C25.4758 26.4283 27.4152 25.625 29.4375 25.625H56.125C58.1473 25.625 60.0867 26.4283 61.5167 27.8583C62.9467 29.2883 63.75 31.2277 63.75 33.25V58.0312C63.75 58.5368 63.9508 59.0217 64.3083 59.3792C64.6658 59.7367 65.1507 59.9375 65.6562 59.9375C66.1618 59.9375 66.6467 59.7367 67.0042 59.3792C67.3617 59.0217 67.5625 58.5368 67.5625 58.0312V33.25C69.5848 33.25 71.5242 34.0533 72.9542 35.4833C74.3842 36.9133 75.1875 38.8527 75.1875 40.875V58.0312C75.1875 60.5591 74.1833 62.9834 72.3959 64.7709C70.6084 66.5583 68.1841 67.5625 65.6562 67.5625H31.3438C28.8159 67.5625 26.3916 66.5583 24.6041 64.7709C22.8167 62.9834 21.8125 60.5591 21.8125 58.0312V33.25ZM31.3438 37.0625C30.8382 37.0625 30.3533 37.2633 29.9958 37.6208C29.6383 37.9783 29.4375 38.4632 29.4375 38.9688C29.4375 39.4743 29.6383 39.9592 29.9958 40.3167C30.3533 40.6742 30.8382 40.875 31.3438 40.875H54.2188C54.7243 40.875 55.2092 40.6742 55.5667 40.3167C55.9242 39.9592 56.125 39.4743 56.125 38.9688C56.125 38.4632 55.9242 37.9783 55.5667 37.6208C55.2092 37.2633 54.7243 37.0625 54.2188 37.0625H31.3438ZM31.3438 44.6875C30.8382 44.6875 30.3533 44.8883 29.9958 45.2458C29.6383 45.6033 29.4375 46.0882 29.4375 46.5938V54.2188C29.4375 54.7243 29.6383 55.2092 29.9958 55.5667C30.3533 55.9242 30.8382 56.125 31.3438 56.125H38.9688C39.4743 56.125 39.9592 55.9242 40.3167 55.5667C40.6742 55.2092 40.875 54.7243 40.875 54.2188V46.5938C40.875 46.0882 40.6742 45.6033 40.3167 45.2458C39.9592 44.8883 39.4743 44.6875 38.9688 44.6875H31.3438ZM46.5938 44.6875C46.0882 44.6875 45.6033 44.8883 45.2458 45.2458C44.8883 45.6033 44.6875 46.0882 44.6875 46.5938C44.6875 47.0993 44.8883 47.5842 45.2458 47.9417C45.6033 48.2992 46.0882 48.5 46.5938 48.5H54.2188C54.7243 48.5 55.2092 48.2992 55.5667 47.9417C55.9242 47.5842 56.125 47.0993 56.125 46.5938C56.125 46.0882 55.9242 45.6033 55.5667 45.2458C55.2092 44.8883 54.7243 44.6875 54.2188 44.6875H46.5938ZM46.5938 52.3125C46.0882 52.3125 45.6033 52.5133 45.2458 52.8708C44.8883 53.2283 44.6875 53.7132 44.6875 54.2188C44.6875 54.7243 44.8883 55.2092 45.2458 55.5667C45.6033 55.9242 46.0882 56.125 46.5938 56.125H54.2188C54.7243 56.125 55.2092 55.9242 55.5667 55.5667C55.9242 55.2092 56.125 54.7243 56.125 54.2188C56.125 53.7132 55.9242 53.2283 55.5667 52.8708C55.2092 52.5133 54.7243 52.3125 54.2188 52.3125H46.5938Z" fill="white"/>
</g>
<defs>
<linearGradient id="paint0_linear_176_6047" x1="48.555" y1="0" x2="48.555" y2="97.11" gradientUnits="userSpaceOnUse">
<stop stop-color="#F53F5B"/>
<stop offset="1" stop-color="#DD0B2B"/>
</linearGradient>
<clipPath id="clip0_176_6047">
<rect width="97.11" height="97.11" fill="white"/>
</clipPath>
</defs>
</svg>
