<svg width="98" height="98" viewBox="0 0 98 98" fill="none" xmlns="http://www.w3.org/2000/svg">
<g clip-path="url(#clip0_590_5560)">
<rect x="0.585" y="0.585" width="95.94" height="95.94" rx="19.305" fill="url(#paint0_linear_590_5560)" stroke="#DEDEDE" stroke-width="1.17"/>
<g clip-path="url(#clip1_590_5560)">
<path d="M70.6662 32.2445L65.3218 26.9001C64.8624 26.4621 64.2521 26.2178 63.6173 26.2178C62.9826 26.2178 62.3723 26.4621 61.9129 26.9001L57.1607 31.6668H31.6662C30.9001 31.6668 30.1653 31.9711 29.6235 32.5129C29.0817 33.0547 28.7773 33.7895 28.7773 34.5557V66.3334C28.7773 67.0996 29.0817 67.8344 29.6235 68.3762C30.1653 68.918 30.9001 69.2223 31.6662 69.2223H63.444C64.2102 69.2223 64.945 68.918 65.4868 68.3762C66.0285 67.8344 66.3329 67.0996 66.3329 66.3334V39.9868L70.6662 35.6534C71.1178 35.2012 71.3715 34.5881 71.3715 33.949C71.3715 33.3098 71.1178 32.6968 70.6662 32.2445ZM50.1985 52.0768L44.1462 53.4201L45.5907 47.4257L59.3851 33.6023L64.0507 38.2679L50.1985 52.0768ZM65.6107 36.6212L60.9451 31.9557L63.6173 29.2834L68.2829 33.949L65.6107 36.6212Z" fill="white"/>
</g>
</g>
<defs>
<linearGradient id="paint0_linear_590_5560" x1="8.19" y1="9.36" x2="86.58" y2="88.335" gradientUnits="userSpaceOnUse">
<stop stop-color="#FFA500"/>
<stop offset="1" stop-color="#C49F0F"/>
</linearGradient>
<clipPath id="clip0_590_5560">
<rect width="97.11" height="97.11" fill="white"/>
</clipPath>
<clipPath id="clip1_590_5560">
<rect width="52" height="52" fill="white" transform="translate(23 23)"/>
</clipPath>
</defs>
</svg>
