<svg width="98" height="98" viewBox="0 0 98 98" fill="none" xmlns="http://www.w3.org/2000/svg">
<g clip-path="url(#clip0_599_5230)">
<rect x="0.585" y="0.585" width="95.94" height="95.94" rx="19.305" fill="url(#paint0_linear_599_5230)" stroke="#DEDEDE" stroke-width="1.17"/>
<path d="M12 47.638C12 53.842 12.888 58.276 16.444 63.594C19.146 67.188 22.756 68.088 26.604 65.57C27.456 65.034 28.544 65.034 29.398 65.57C33.244 68.09 36.854 67.188 39.556 63.594C43.112 58.274 44 53.842 44 47.64C44 42.318 40.02 37 35.112 37C32.578 37 30.292 38.386 28.672 39.88C28.488 40.047 28.2485 40.1394 28 40.1394C27.7515 40.1394 27.512 40.047 27.328 39.88C25.71 38.388 23.422 37 20.888 37C15.98 37 12 42.32 12 47.638Z" stroke="white" stroke-width="4" stroke-linecap="round" stroke-linejoin="round"/>
<path d="M18 49C18 46.06 18.908 44.32 21 43M28 39C28 36.6 29.734 31 34 31" stroke="white" stroke-width="4" stroke-linecap="round" stroke-linejoin="round"/>
<path d="M55.5 31.75H83.625L79.875 69.25H59.25L55.5 31.75ZM59.625 35.5L62.625 65.5H64.5L61.9312 39.8875C63.9375 39.25 66.5437 39.0437 68.625 41.125C71.55 44.05 76.7437 42.4187 78.9375 41.5562L79.5 35.5H59.625Z" fill="white"/>
</g>
<defs>
<linearGradient id="paint0_linear_599_5230" x1="8.19" y1="9.36" x2="86.58" y2="88.335" gradientUnits="userSpaceOnUse">
<stop stop-color="#FD8450"/>
<stop offset="1" stop-color="#F42C2D"/>
</linearGradient>
<clipPath id="clip0_599_5230">
<rect width="97.11" height="97.11" fill="white"/>
</clipPath>
</defs>
</svg>
