<svg width="98" height="98" viewBox="0 0 98 98" fill="none" xmlns="http://www.w3.org/2000/svg">
<g clip-path="url(#clip0_590_5604)">
<rect x="0.585" y="0.585" width="95.94" height="95.94" rx="19.305" fill="url(#paint0_linear_590_5604)" stroke="#DEDEDE" stroke-width="1.17"/>
<path d="M40.2188 45.0446L50.1562 54.9821V67.5469C50.1562 67.7665 50.069 67.9771 49.9137 68.1325C49.7584 68.2878 49.5478 68.375 49.3281 68.375H31.9375C31.059 68.375 30.2164 68.026 29.5952 67.4048C28.974 66.7836 28.625 65.941 28.625 65.0625V31.9375C28.625 31.059 28.974 30.2164 29.5952 29.5952C30.2164 28.974 31.059 28.625 31.9375 28.625H36.0781C36.2978 28.625 36.5084 28.7122 36.6637 28.8676C36.819 29.0229 36.9062 29.2335 36.9062 29.4531V53.7545C35.8012 54.1452 34.8698 54.9139 34.2767 55.9249C33.6837 56.9359 33.4671 58.124 33.6653 59.2793C33.8635 60.4345 34.4637 61.4825 35.3599 62.2379C36.256 62.9934 37.3904 63.4078 38.5625 63.4078C39.7346 63.4078 40.869 62.9934 41.7651 62.2379C42.6613 61.4825 43.2615 60.4345 43.4597 59.2793C43.6579 58.124 43.4413 56.9359 42.8483 55.9249C42.2552 54.9139 41.3238 54.1452 40.2188 53.7545V45.0446ZM38.5625 60.0938C38.8901 60.0938 39.2103 59.9966 39.4827 59.8146C39.755 59.6326 39.9673 59.374 40.0927 59.0713C40.218 58.7687 40.2508 58.4357 40.1869 58.1144C40.123 57.7931 39.9653 57.498 39.7336 57.2664C39.502 57.0347 39.2069 56.877 38.8856 56.8131C38.5643 56.7492 38.2313 56.782 37.9287 56.9073C37.626 57.0327 37.3674 57.245 37.1854 57.5173C37.0034 57.7897 36.9062 58.1099 36.9062 58.4375C36.9062 58.8768 37.0807 59.298 37.3914 59.6086C37.702 59.9193 38.1232 60.0938 38.5625 60.0938ZM60.0938 43.5312C60.0938 43.2037 59.9966 42.8835 59.8146 42.6111C59.6326 42.3387 59.374 42.1264 59.0713 42.0011C58.7687 41.8757 58.4357 41.8429 58.1144 41.9068C57.7931 41.9707 57.498 42.1285 57.2664 42.3601C57.0347 42.5917 56.877 42.8869 56.8131 43.2081C56.7492 43.5294 56.782 43.8624 56.9073 44.1651C57.0327 44.4677 57.245 44.7264 57.5173 44.9084C57.7897 45.0904 58.1099 45.1875 58.4375 45.1875C58.8768 45.1875 59.298 45.013 59.6086 44.7024C59.9193 44.3918 60.0938 43.9705 60.0938 43.5312ZM65.0625 28.625H54.2969C54.0772 28.625 53.8666 28.7122 53.7113 28.8676C53.556 29.0229 53.4688 29.2335 53.4688 29.4531V36.221L56.2968 39.049C57.3545 38.5437 58.5567 38.4286 59.691 38.7241C60.8253 39.0195 61.8187 39.7065 62.4955 40.6635C63.1723 41.6205 63.4889 42.786 63.3895 43.9539C63.2901 45.1218 62.7809 46.217 61.9521 47.0459C61.1233 47.8747 60.0281 48.3838 58.8602 48.4833C57.6922 48.5827 56.5268 48.266 55.5697 47.5892C54.6127 46.9124 53.9258 45.9191 53.6303 44.7848C53.3349 43.6504 53.45 42.4482 53.9553 41.3905L50.6428 38.078C50.4886 37.9243 50.3663 37.7417 50.2829 37.5406C50.1994 37.3395 50.1564 37.124 50.1562 36.9062V29.4531C50.1562 29.2335 50.069 29.0229 49.9137 28.8676C49.7584 28.7122 49.5478 28.625 49.3281 28.625H41.0469C40.8272 28.625 40.6166 28.7122 40.4613 28.8676C40.306 29.0229 40.2188 29.2335 40.2188 29.4531V40.3616L52.9843 53.1251C53.1381 53.279 53.26 53.4617 53.3431 53.6628C53.4262 53.8638 53.4689 54.0793 53.4688 54.2969V67.5469C53.4688 67.7665 53.556 67.9771 53.7113 68.1325C53.8666 68.2878 54.0772 68.375 54.2969 68.375H65.0625C65.941 68.375 66.7836 68.026 67.4048 67.4048C68.026 66.7836 68.375 65.941 68.375 65.0625V31.9375C68.375 31.059 68.026 30.2164 67.4048 29.5952C66.7836 28.974 65.941 28.625 65.0625 28.625Z" fill="white"/>
</g>
<defs>
<linearGradient id="paint0_linear_590_5604" x1="8.19" y1="9.36" x2="86.58" y2="88.335" gradientUnits="userSpaceOnUse">
<stop stop-color="#233888"/>
<stop offset="1" stop-color="#2E4EC8"/>
</linearGradient>
<clipPath id="clip0_590_5604">
<rect width="97.11" height="97.11" fill="white"/>
</clipPath>
</defs>
</svg>
