<svg width="98" height="98" viewBox="0 0 98 98" fill="none" xmlns="http://www.w3.org/2000/svg">
<g clip-path="url(#clip0_424_2843)">
<rect x="0.585" y="0.585" width="95.94" height="95.94" rx="19.305" fill="url(#paint0_linear_424_2843)" stroke="#DEDEDE" stroke-width="1.17"/>
<path d="M39.3247 55.0879C38.8723 55.0879 38.5675 55.1321 38.4102 55.1764V58.0723C38.597 58.1166 38.8305 58.1288 39.1526 58.1288C40.3301 58.1288 41.0553 57.5339 41.0553 56.5285C41.0553 55.6287 40.4309 55.0879 39.3247 55.0879ZM47.8969 55.1174C47.4052 55.1174 47.0856 55.1616 46.8963 55.2059V61.6221C47.0856 61.6664 47.3904 61.6664 47.6658 61.6664C49.6742 61.6811 50.9821 60.5749 50.9821 58.2346C50.9968 56.1941 49.8045 55.1174 47.8969 55.1174Z" fill="white"/>
<path d="M53.4154 23.917H33.7487C32.4447 23.917 31.1941 24.435 30.2721 25.3571C29.35 26.2791 28.832 27.5297 28.832 28.8337V68.167C28.832 69.471 29.35 70.7215 30.2721 71.6436C31.1941 72.5657 32.4447 73.0837 33.7487 73.0837H63.2487C64.5527 73.0837 65.8032 72.5657 66.7253 71.6436C67.6474 70.7215 68.1654 69.471 68.1654 68.167V38.667L53.4154 23.917ZM42.3479 58.8007C41.5883 59.5137 40.4673 59.8332 39.1619 59.8332C38.9088 59.836 38.6558 59.8212 38.4048 59.789V63.2946H36.207V53.6186C37.1989 53.4706 38.201 53.4032 39.2037 53.417C40.573 53.417 41.5465 53.6776 42.2029 54.2012C42.8273 54.6978 43.2502 55.5115 43.2502 56.4702C43.2477 57.4339 42.9281 58.2476 42.3479 58.8007ZM51.7068 62.1318C50.6743 62.9897 49.1034 63.3978 47.1835 63.3978C46.033 63.3978 45.2193 63.3241 44.6662 63.2503V53.621C45.6583 53.4762 46.6602 53.408 47.6629 53.417C49.5238 53.417 50.7333 53.7513 51.6773 54.4642C52.6975 55.2214 53.3367 56.4285 53.3367 58.1616C53.3367 60.0373 52.6508 61.3328 51.7068 62.1318ZM60.7904 55.3099H57.0242V57.5495H60.5445V59.3539H57.0242V63.297H54.7969V53.4907H60.7904V55.3099ZM53.4154 41.1253H50.957V28.8337L63.2487 41.1253H53.4154Z" fill="white"/>
</g>
<defs>
<linearGradient id="paint0_linear_424_2843" x1="8.19" y1="9.36" x2="86.58" y2="88.335" gradientUnits="userSpaceOnUse">
<stop stop-color="#B50D0E"/>
<stop offset="1" stop-color="#F42C2D"/>
</linearGradient>
<clipPath id="clip0_424_2843">
<rect width="97.11" height="97.11" fill="white"/>
</clipPath>
</defs>
</svg>
