<svg width="98" height="98" viewBox="0 0 98 98" fill="none" xmlns="http://www.w3.org/2000/svg">
<g clip-path="url(#clip0_337_2568)">
<rect x="0.585" y="0.585" width="95.94" height="95.94" rx="19.305" fill="url(#paint0_linear_337_2568)" stroke="#DEDEDE" stroke-width="1.17"/>
<g clip-path="url(#clip1_337_2568)">
<path d="M24.0039 33.2401C24.0039 31.6063 24.6529 30.0395 25.8081 28.8843C26.9634 27.7291 28.5302 27.0801 30.1639 27.0801H67.1239C68.7576 27.0801 70.3245 27.7291 71.4797 28.8843C72.6349 30.0395 73.2839 31.6063 73.2839 33.2401V64.0401C73.2839 65.6738 72.6349 67.2406 71.4797 68.3959C70.3245 69.5511 68.7576 70.2001 67.1239 70.2001H30.1639C28.5302 70.2001 26.9634 69.5511 25.8081 68.3959C24.6529 67.2406 24.0039 65.6738 24.0039 64.0401V33.2401ZM27.0839 60.9601V64.0401C27.0839 64.8569 27.4084 65.6404 27.986 66.218C28.5636 66.7956 29.347 67.1201 30.1639 67.1201H67.1239C67.9408 67.1201 68.7242 66.7956 69.3018 66.218C69.8794 65.6404 70.2039 64.8569 70.2039 64.0401V53.2601L58.5707 47.2633C58.2819 47.1186 57.9549 47.0684 57.636 47.1198C57.317 47.1712 57.0223 47.3216 56.7936 47.5498L45.3668 58.9766L37.174 53.5188C36.8782 53.3219 36.5234 53.2333 36.1697 53.2681C35.8161 53.3029 35.4853 53.4589 35.2336 53.7098L27.0839 60.9601ZM42.4839 40.9401C42.4839 39.7148 41.9972 38.5397 41.1307 37.6732C40.2643 36.8068 39.0892 36.3201 37.8639 36.3201C36.6386 36.3201 35.4635 36.8068 34.5971 37.6732C33.7307 38.5397 33.2439 39.7148 33.2439 40.9401C33.2439 42.1654 33.7307 43.3405 34.5971 44.2069C35.4635 45.0733 36.6386 45.5601 37.8639 45.5601C39.0892 45.5601 40.2643 45.0733 41.1307 44.2069C41.9972 43.3405 42.4839 42.1654 42.4839 40.9401Z" fill="white"/>
</g>
</g>
<defs>
<linearGradient id="paint0_linear_337_2568" x1="8.19" y1="9.36" x2="86.58" y2="88.335" gradientUnits="userSpaceOnUse">
<stop stop-color="#001E36"/>
<stop offset="1" stop-color="#073A62"/>
</linearGradient>
<clipPath id="clip0_337_2568">
<rect width="97.11" height="97.11" fill="white"/>
</clipPath>
<clipPath id="clip1_337_2568">
<rect width="49.28" height="49.28" fill="white" transform="translate(24 24)"/>
</clipPath>
</defs>
</svg>
