<svg width="98" height="98" viewBox="0 0 98 98" fill="none" xmlns="http://www.w3.org/2000/svg">
<g clip-path="url(#clip0_891_6607)">
<rect x="0.585" y="0.585" width="95.94" height="95.94" rx="19.305" fill="url(#paint0_linear_891_6607)" stroke="#DEDEDE" stroke-width="1.17"/>
<path d="M70.393 27.1998V31.9998C70.393 36.4554 68.623 40.7286 65.4724 43.8792C62.3218 47.0298 58.0486 48.7998 53.593 48.7998H51.193V51.1998H63.193V67.9998C63.193 69.2729 62.6873 70.4937 61.7871 71.3939C60.8869 72.2941 59.666 72.7998 58.393 72.7998H39.193C37.9199 72.7998 36.699 72.2941 35.7989 71.3939C34.8987 70.4937 34.393 69.2729 34.393 67.9998V51.1998H46.393V43.9998C46.393 39.5442 48.163 35.271 51.3136 32.1204C54.4642 28.9698 58.7373 27.1998 63.193 27.1998H70.393ZM33.193 24.7998C36.0729 24.7975 38.9113 25.4871 41.469 26.8107C44.0268 28.1343 46.2291 30.053 47.8906 32.4054C45.3558 35.7386 43.9863 39.8123 43.993 43.9998V46.3998H42.793C38.0191 46.3998 33.4407 44.5034 30.065 41.1277C26.6894 37.7521 24.793 33.1737 24.793 28.3998V24.7998H33.193Z" fill="white"/>
</g>
<defs>
<linearGradient id="paint0_linear_891_6607" x1="8.19" y1="9.36" x2="86.58" y2="88.335" gradientUnits="userSpaceOnUse">
<stop stop-color="#34A853"/>
<stop offset="1" stop-color="#15780D"/>
</linearGradient>
<clipPath id="clip0_891_6607">
<rect width="97.11" height="97.11" fill="white"/>
</clipPath>
</defs>
</svg>
