<svg width="98" height="98" viewBox="0 0 98 98" fill="none" xmlns="http://www.w3.org/2000/svg">
<g clip-path="url(#clip0_592_5217)">
<rect x="0.585" y="0.585" width="95.94" height="95.94" rx="19.305" fill="url(#paint0_linear_592_5217)" stroke="#DEDEDE" stroke-width="1.17"/>
<g clip-path="url(#clip1_592_5217)">
<path d="M63.9688 28.8125C64.7147 28.8125 65.43 29.1088 65.9575 29.6363C66.4849 30.1637 66.7812 30.8791 66.7812 31.625V65.375C66.7812 66.1209 66.4849 66.8363 65.9575 67.3637C65.43 67.8912 64.7147 68.1875 63.9688 68.1875H33.0312C32.2853 68.1875 31.57 67.8912 31.0425 67.3637C30.5151 66.8363 30.2188 66.1209 30.2188 65.375V31.625C30.2188 30.8791 30.5151 30.1637 31.0425 29.6363C31.57 29.1088 32.2853 28.8125 33.0312 28.8125H63.9688ZM33.0312 26C31.5394 26 30.1087 26.5926 29.0538 27.6475C27.9989 28.7024 27.4062 30.1332 27.4062 31.625V65.375C27.4062 66.8668 27.9989 68.2976 29.0538 69.3525C30.1087 70.4074 31.5394 71 33.0312 71H63.9688C65.4606 71 66.8913 70.4074 67.9462 69.3525C69.0011 68.2976 69.5938 66.8668 69.5938 65.375V31.625C69.5938 30.1332 69.0011 28.7024 67.9462 27.6475C66.8913 26.5926 65.4606 26 63.9688 26H33.0312Z" fill="white"/>
<path d="M44.2812 34.4375C44.2812 33.6916 44.5776 32.9762 45.105 32.4488C45.6325 31.9213 46.3478 31.625 47.0938 31.625H49.9062C50.6522 31.625 51.3675 31.9213 51.895 32.4488C52.4224 32.9762 52.7188 33.6916 52.7188 34.4375V42.875C52.7188 43.6209 52.4224 44.3363 51.895 44.8637C51.3675 45.3912 50.6522 45.6875 49.9062 45.6875H47.0938C46.3478 45.6875 45.6325 45.3912 45.105 44.8637C44.5776 44.3363 44.2812 43.6209 44.2812 42.875V34.4375ZM33.0312 34.4375C33.0312 33.6916 33.3276 32.9762 33.855 32.4488C34.3825 31.9213 35.0978 31.625 35.8438 31.625H38.6562C39.4022 31.625 40.1175 31.9213 40.645 32.4488C41.1724 32.9762 41.4688 33.6916 41.4688 34.4375V54.125C41.4688 54.8709 41.1724 55.5863 40.645 56.1137C40.1175 56.6412 39.4022 56.9375 38.6562 56.9375H35.8438C35.0978 56.9375 34.3825 56.6412 33.855 56.1137C33.3276 55.5863 33.0312 54.8709 33.0312 54.125V34.4375ZM55.5312 34.4375C55.5312 33.6916 55.8276 32.9762 56.355 32.4488C56.8825 31.9213 57.5978 31.625 58.3438 31.625H61.1562C61.9022 31.625 62.6175 31.9213 63.145 32.4488C63.6724 32.9762 63.9688 33.6916 63.9688 34.4375V62.5625C63.9688 63.3084 63.6724 64.0238 63.145 64.5512C62.6175 65.0787 61.9022 65.375 61.1562 65.375H58.3438C57.5978 65.375 56.8825 65.0787 56.355 64.5512C55.8276 64.0238 55.5312 63.3084 55.5312 62.5625V34.4375Z" fill="white"/>
</g>
</g>
<defs>
<linearGradient id="paint0_linear_592_5217" x1="8.19" y1="9.36" x2="86.58" y2="88.335" gradientUnits="userSpaceOnUse">
<stop stop-color="#A84647"/>
<stop offset="1" stop-color="#F16E6F"/>
</linearGradient>
<clipPath id="clip0_592_5217">
<rect width="97.11" height="97.11" fill="white"/>
</clipPath>
<clipPath id="clip1_592_5217">
<rect width="45" height="45" fill="white" transform="translate(26 26)"/>
</clipPath>
</defs>
</svg>
