<svg width="98" height="98" viewBox="0 0 98 98" fill="none" xmlns="http://www.w3.org/2000/svg">
<g clip-path="url(#clip0_754_6094)">
<rect x="0.585" y="0.585" width="95.94" height="95.94" rx="19.305" fill="url(#paint0_linear_754_6094)" stroke="#DEDEDE" stroke-width="1.17"/>
<path fill-rule="evenodd" clip-rule="evenodd" d="M58.3696 35.0399H48.0016V40.2239H58.3696V35.0399ZM58.3696 42.8159H48.0016V45.4079H58.3696V42.8159ZM45.4096 35.0399H37.6336V45.4079H45.4096V35.0399ZM45.4096 50.5919H58.3696V47.9999H45.4096V50.5919ZM53.1856 55.7759H58.3696V53.1839H53.1856V55.7759ZM58.3696 58.3679H37.6336V60.9599H58.3696V58.3679ZM50.5936 53.1839H37.6336V55.7759H50.5936V53.1839ZM42.8176 47.9999H37.6336V50.5919H42.8176V47.9999ZM66.1456 24.6719H29.8576C29.1702 24.6719 28.5109 24.945 28.0248 25.4311C27.5387 25.9171 27.2656 26.5764 27.2656 27.2639V68.7359C27.2656 69.4233 27.5387 70.0826 28.0248 70.5687C28.5109 71.0548 29.1702 71.3279 29.8576 71.3279H66.1456C66.8331 71.3279 67.4924 71.0548 67.9784 70.5687C68.4645 70.0826 68.7376 69.4233 68.7376 68.7359V27.2639C68.7376 26.5764 68.4645 25.9171 67.9784 25.4311C67.4924 24.945 66.8331 24.6719 66.1456 24.6719ZM63.5536 66.1439H32.4496V29.8559H63.5536V66.1439Z" fill="white"/>
</g>
<defs>
<linearGradient id="paint0_linear_754_6094" x1="8.19" y1="9.36" x2="86.58" y2="88.335" gradientUnits="userSpaceOnUse">
<stop stop-color="#49021F"/>
<stop offset="1" stop-color="#EB2D5C"/>
</linearGradient>
<clipPath id="clip0_754_6094">
<rect width="97.11" height="97.11" fill="white"/>
</clipPath>
</defs>
</svg>
