<svg width="98" height="98" viewBox="0 0 98 98" fill="none" xmlns="http://www.w3.org/2000/svg">
<g clip-path="url(#clip0_584_4987)">
<rect x="0.585" y="0.585" width="95.94" height="95.94" rx="19.305" fill="url(#paint0_linear_584_4987)" stroke="#DEDEDE" stroke-width="1.17"/>
<path d="M54.0291 64.75C55.9754 64.75 57.0036 67.054 55.7054 68.503C54.8613 69.4459 53.8278 70.2001 52.6725 70.7166C51.5171 71.233 50.2659 71.4999 49.0004 71.5C47.7349 71.4999 46.4836 71.233 45.3283 70.7166C44.1729 70.2001 43.1395 69.4459 42.2954 68.503C41.0534 67.117 41.9399 64.9502 43.7219 64.7658L43.9694 64.7523L54.0291 64.75ZM49.0004 26.5C52.0559 26.5 54.6389 28.5317 55.4691 31.3172L55.5726 31.702L55.5906 31.7987C58.0713 33.1976 60.1852 35.1644 61.759 37.538C63.3328 39.9116 64.3217 42.6244 64.6446 45.454L64.7076 46.0998L64.7504 46.75V53.3447L64.7976 53.6508C65.1057 55.3086 66.0231 56.7911 67.3694 57.8065L67.7451 58.0697L68.1096 58.2925C70.0446 59.3882 69.3696 62.266 67.2614 62.4865L67.0004 62.5H31.0004C28.6874 62.5 27.8796 59.431 29.8911 58.2925C30.7484 57.8073 31.4892 57.1404 32.0613 56.3385C32.6335 55.5366 33.0232 54.6193 33.2031 53.6508L33.2504 53.329L33.2526 46.6465C33.3898 43.7077 34.2452 40.8474 35.744 38.3158C37.2428 35.7842 39.3392 33.6586 41.8499 32.125L42.4079 31.7965L42.4304 31.6997C42.7478 30.3539 43.4708 29.1379 44.5018 28.2164C45.5328 27.2949 46.8219 26.7122 48.1949 26.5472L48.6044 26.509L49.0004 26.5Z" fill="white"/>
</g>
<defs>
<linearGradient id="paint0_linear_584_4987" x1="8.19" y1="9.36" x2="86.58" y2="88.335" gradientUnits="userSpaceOnUse">
<stop stop-color="#8B0000"/>
<stop offset="1" stop-color="#FF6F00"/>
</linearGradient>
<clipPath id="clip0_584_4987">
<rect width="97.11" height="97.11" fill="white"/>
</clipPath>
</defs>
</svg>
