<svg width="98" height="98" viewBox="0 0 98 98" fill="none" xmlns="http://www.w3.org/2000/svg">
<g clip-path="url(#clip0_590_5571)">
<rect x="0.585" y="0.585" width="95.94" height="95.94" rx="19.305" fill="url(#paint0_linear_590_5571)" stroke="#DEDEDE" stroke-width="1.17"/>
<path d="M48.9205 38.1195C47.7747 38.1195 46.6759 37.6644 45.8658 36.8542C45.0556 36.044 44.6005 34.9452 44.6005 33.7995C44.6005 32.6538 45.0556 31.5549 45.8658 30.7448C46.6759 29.9346 47.7747 29.4795 48.9205 29.4795C50.0662 29.4795 51.165 29.9346 51.9752 30.7448C52.7853 31.5549 53.2405 32.6538 53.2405 33.7995C53.2405 34.9452 52.7853 36.044 51.9752 36.8542C51.165 37.6644 50.0662 38.1195 48.9205 38.1195ZM48.9205 38.1195V46.7595M48.9205 46.7595C50.6391 46.7595 52.2873 47.4422 53.5025 48.6574C54.7178 49.8727 55.4005 51.5209 55.4005 53.2395C55.4005 54.9581 54.7178 56.6063 53.5025 57.8215C52.2873 59.0368 50.6391 59.7195 48.9205 59.7195C47.2019 59.7195 45.5537 59.0368 44.3384 57.8215C43.1232 56.6063 42.4405 54.9581 42.4405 53.2395C42.4405 51.5209 43.1232 49.8727 44.3384 48.6574C45.5537 47.4422 47.2019 46.7595 48.9205 46.7595ZM37.4725 61.4475L43.5205 57.1275M60.3685 61.4475L54.3205 57.1275M29.4805 64.0395C29.4805 65.1852 29.9356 66.284 30.7458 67.0942C31.5559 67.9044 32.6547 68.3595 33.8005 68.3595C34.9462 68.3595 36.045 67.9044 36.8552 67.0942C37.6653 66.284 38.1205 65.1852 38.1205 64.0395C38.1205 62.8938 37.6653 61.795 36.8552 60.9848C36.045 60.1746 34.9462 59.7195 33.8005 59.7195C32.6547 59.7195 31.5559 60.1746 30.7458 60.9848C29.9356 61.795 29.4805 62.8938 29.4805 64.0395ZM59.7205 64.0395C59.7205 65.1852 60.1756 66.284 60.9858 67.0942C61.7959 67.9044 62.8947 68.3595 64.0405 68.3595C65.1862 68.3595 66.285 67.9044 67.0952 67.0942C67.9053 66.284 68.3605 65.1852 68.3605 64.0395C68.3605 62.8938 67.9053 61.795 67.0952 60.9848C66.285 60.1746 65.1862 59.7195 64.0405 59.7195C62.8947 59.7195 61.7959 60.1746 60.9858 60.9848C60.1756 61.795 59.7205 62.8938 59.7205 64.0395Z" stroke="white" stroke-width="4.32" stroke-linecap="round" stroke-linejoin="round"/>
</g>
<defs>
<linearGradient id="paint0_linear_590_5571" x1="8.19" y1="9.36" x2="86.58" y2="88.335" gradientUnits="userSpaceOnUse">
<stop stop-color="#044595"/>
<stop offset="1" stop-color="#0281FA"/>
</linearGradient>
<clipPath id="clip0_590_5571">
<rect width="97.11" height="97.11" fill="white"/>
</clipPath>
</defs>
</svg>
