<svg width="98" height="98" viewBox="0 0 98 98" fill="none" xmlns="http://www.w3.org/2000/svg">
<g clip-path="url(#clip0_463_3121)">
<rect x="0.585" y="0.585" width="95.94" height="95.94" rx="19.305" fill="url(#paint0_linear_463_3121)" stroke="#DEDEDE" stroke-width="1.17"/>
<path d="M57.1 37.7498H61.4V67.8498H35.6V37.7498H39.9V35.5998C39.9 34.4594 40.353 33.3657 41.1594 32.5592C41.9658 31.7528 43.0596 31.2998 44.2 31.2998H52.8C53.9404 31.2998 55.0342 31.7528 55.8406 32.5592C56.647 33.3657 57.1 34.4594 57.1 35.5998V37.7498ZM63.55 37.7498H65.7C66.8404 37.7498 67.9342 38.2028 68.7406 39.0092C69.547 39.8157 70 40.9094 70 42.0498V63.5498C70 64.6902 69.547 65.784 68.7406 66.5904C67.9342 67.3968 66.8404 67.8498 65.7 67.8498H63.55V37.7498ZM33.45 37.7498V67.8498H31.3C30.1596 67.8498 29.0658 67.3968 28.2594 66.5904C27.453 65.784 27 64.6902 27 63.5498V42.0498C27 39.6848 28.935 37.7498 31.3 37.7498H33.45ZM44.2 35.5998V37.7498H52.8V35.5998H44.2Z" fill="white"/>
</g>
<defs>
<linearGradient id="paint0_linear_463_3121" x1="8.19" y1="9.36" x2="86.58" y2="88.335" gradientUnits="userSpaceOnUse">
<stop stop-color="#059DB3"/>
<stop offset="1" stop-color="#13DAF5"/>
</linearGradient>
<clipPath id="clip0_463_3121">
<rect width="97.11" height="97.11" fill="white"/>
</clipPath>
</defs>
</svg>
