<svg width="98" height="98" viewBox="0 0 98 98" fill="none" xmlns="http://www.w3.org/2000/svg">
<g clip-path="url(#clip0_590_5567)">
<rect x="0.585" y="0.585" width="95.94" height="95.94" rx="19.305" fill="url(#paint0_linear_590_5567)" stroke="#DEDEDE" stroke-width="1.17"/>
<g clip-path="url(#clip1_590_5567)">
<path fill-rule="evenodd" clip-rule="evenodd" d="M33.6673 31.75C32.6507 31.75 31.6756 32.1539 30.9567 32.8728C30.2379 33.5916 29.834 34.5667 29.834 35.5833V62.4167C29.834 63.4333 30.2379 64.4084 30.9567 65.1272C31.6756 65.8461 32.6507 66.25 33.6673 66.25H64.334C65.3506 66.25 66.3257 65.8461 67.0446 65.1272C67.7634 64.4084 68.1673 63.4333 68.1673 62.4167V35.5833C68.1673 34.5667 67.7634 33.5916 67.0446 32.8728C66.3257 32.1539 65.3506 31.75 64.334 31.75H33.6673ZM42.5319 42.5408C42.5744 42.1744 42.702 41.823 42.9045 41.5146C43.1069 41.2062 43.3787 40.9495 43.698 40.7648C44.0173 40.5801 44.3754 40.4725 44.7437 40.4508C45.1119 40.429 45.4801 40.4937 45.819 40.6395C46.785 41.0535 48.8243 41.985 51.408 43.4762C53.2237 44.5139 54.9773 45.6569 56.6597 46.8993C56.9554 47.1194 57.1957 47.4056 57.3612 47.7351C57.5267 48.0645 57.6129 48.4281 57.6129 48.7968C57.6129 49.1655 57.5267 49.5291 57.3612 49.8586C57.1957 50.188 56.9554 50.4742 56.6597 50.6943C54.9772 51.9354 53.2236 53.0772 51.408 54.1137C49.6019 55.1686 47.7357 56.1171 45.819 56.9542C45.4802 57.1004 45.1118 57.1654 44.7434 57.1438C44.375 57.1223 44.0168 57.0148 43.6974 56.83C43.3779 56.6453 43.1061 56.3883 42.9038 56.0797C42.7014 55.7711 42.574 55.4194 42.5319 55.0528C42.3019 52.9755 42.1893 50.8869 42.1946 48.7968C42.1946 45.8241 42.4092 43.5854 42.5319 42.5408Z" fill="white"/>
</g>
</g>
<defs>
<linearGradient id="paint0_linear_590_5567" x1="8.19" y1="9.36" x2="86.58" y2="88.335" gradientUnits="userSpaceOnUse">
<stop stop-color="#A70B09"/>
<stop offset="1" stop-color="#FF1512"/>
</linearGradient>
<clipPath id="clip0_590_5567">
<rect width="97.11" height="97.11" fill="white"/>
</clipPath>
<clipPath id="clip1_590_5567">
<rect width="46" height="46" fill="white" transform="translate(26 26)"/>
</clipPath>
</defs>
</svg>
