<svg width="98" height="98" viewBox="0 0 98 98" fill="none" xmlns="http://www.w3.org/2000/svg">
<g clip-path="url(#clip0_580_4651)">
<rect x="0.585" y="0.585" width="95.94" height="95.94" rx="19.305" fill="url(#paint0_linear_580_4651)" stroke="#DEDEDE" stroke-width="1.17"/>
<path d="M56.9138 35.7827C57.8515 35.7827 58.6048 35.0084 58.6048 34.0917V29.691C58.6048 28.7533 57.8515 28 56.9138 28C55.9761 28 55.2228 28.7533 55.2228 29.691V34.0917C55.2228 35.0084 55.9772 35.7827 56.9138 35.7827ZM45.098 39.7147C45.7702 40.3868 46.8701 40.3658 47.5023 39.7147C48.1334 39.0614 48.1534 38.0026 47.5023 37.3504L44.3647 34.214C44.2087 34.0565 44.023 33.9315 43.8184 33.8462C43.6138 33.7609 43.3943 33.717 43.1726 33.717C42.9509 33.717 42.7315 33.7609 42.5268 33.8462C42.3222 33.9315 42.1365 34.0565 41.9805 34.214C41.3283 34.8451 41.3283 35.925 41.9805 36.5971L45.098 39.7147ZM66.3275 39.7147C66.9586 40.3658 68.0585 40.3868 68.7296 39.7147L71.8482 36.5971C72.4993 35.925 72.4793 34.8451 71.8482 34.214C71.6922 34.0565 71.5065 33.9315 71.3019 33.8462C71.0972 33.7609 70.8778 33.717 70.6561 33.717C70.4344 33.717 70.2149 33.7609 70.0103 33.8462C69.8057 33.9315 69.62 34.0565 69.464 34.214L66.3264 37.3504C65.6743 38.0037 65.6943 39.0625 66.3264 39.7147M62.149 57.8466C65.1433 55.829 66.9976 52.7126 66.9976 49.1262C67.0034 47.7993 66.7467 46.4844 66.2422 45.2572C65.7377 44.0299 64.9953 42.9146 64.058 41.9755C63.1206 41.0363 62.0067 40.2919 60.7804 39.7851C59.5541 39.2783 58.2397 39.0191 56.9128 39.0225C53.2253 39.0225 50.0266 40.9979 48.3367 43.9521C49.1922 44.8276 49.9255 45.7853 50.5366 46.9674C57.2583 47.5174 61.5991 51.6938 62.149 57.8466ZM27.4549 69.0714H49.4988C55.2639 69.0714 59.7458 64.7117 59.7458 59.0688C59.7458 53.4459 55.1828 49.2073 49.0911 49.1673C46.7068 44.6243 42.4694 41.9756 37.5397 41.9756C30.918 41.9756 25.2951 47.1297 24.684 53.8125C21.2209 54.8513 19 57.7845 19 61.3708C19 65.9338 22.4431 69.0724 27.4549 69.0724M71.9093 50.8183H76.309C77.2256 50.8183 77.98 50.0649 78 49.1273C78 48.1896 77.2256 47.4363 76.309 47.4363H71.9082C70.9916 47.4363 70.2173 48.1906 70.2173 49.1273C70.2173 50.0649 70.9916 50.8183 71.9082 50.8183M69.464 64.0817C69.7841 64.3919 70.2136 64.5636 70.6593 64.5597C71.1051 64.5557 71.5315 64.3764 71.8461 64.0606C72.4782 63.4095 72.4993 62.3296 71.8461 61.6974L68.6885 58.5599C68.0374 57.9288 66.9775 57.9088 66.3254 58.5599C66.0117 58.8814 65.8361 59.3128 65.8361 59.762C65.8361 60.2112 66.0117 60.6426 66.3254 60.9641L69.464 64.0817Z" fill="white"/>
</g>
<defs>
<linearGradient id="paint0_linear_580_4651" x1="8.19" y1="9.36" x2="86.58" y2="88.335" gradientUnits="userSpaceOnUse">
<stop stop-color="#005BA5"/>
<stop offset="1" stop-color="#00A7C9"/>
</linearGradient>
<clipPath id="clip0_580_4651">
<rect width="97.11" height="97.11" fill="white"/>
</clipPath>
</defs>
</svg>
