<svg width="98" height="98" viewBox="0 0 98 98" fill="none" xmlns="http://www.w3.org/2000/svg">
<g clip-path="url(#clip0_590_5568)">
<rect x="0.585" y="0.585" width="95.94" height="95.94" rx="19.305" fill="url(#paint0_linear_590_5568)" stroke="#DEDEDE" stroke-width="1.17"/>
<path d="M58.4473 53.333C58.6206 51.903 58.7506 50.473 58.7506 48.9997C58.7506 47.5263 58.6206 46.0963 58.4473 44.6663H65.7706C66.1173 46.053 66.334 47.5047 66.334 48.9997C66.334 50.4947 66.1173 51.9463 65.7706 53.333M54.6123 65.3797C55.9123 62.9747 56.909 60.3747 57.6023 57.6663H63.994C61.8948 61.2809 58.5646 64.019 54.6123 65.3797ZM54.0707 53.333H43.9306C43.714 51.903 43.584 50.473 43.584 48.9997C43.584 47.5263 43.714 46.0747 43.9306 44.6663H54.0707C54.2656 46.0747 54.4173 47.5263 54.4173 48.9997C54.4173 50.473 54.2656 51.903 54.0707 53.333ZM49.0006 66.2463C47.2023 63.6463 45.7507 60.7647 44.8623 57.6663H53.139C52.2506 60.7647 50.799 63.6463 49.0006 66.2463ZM40.334 40.333H34.0073C36.0844 36.7082 39.4124 33.9657 43.3673 32.6197C42.0673 35.0247 41.0923 37.6247 40.334 40.333ZM34.0073 57.6663H40.334C41.0923 60.3747 42.0673 62.9747 43.3673 65.3797C39.4202 64.0197 36.0966 61.2808 34.0073 57.6663ZM32.2307 53.333C31.884 51.9463 31.6673 50.4947 31.6673 48.9997C31.6673 47.5047 31.884 46.053 32.2307 44.6663H39.554C39.3806 46.0963 39.2507 47.5263 39.2507 48.9997C39.2507 50.473 39.3806 51.903 39.554 53.333M49.0006 31.7313C50.799 34.3313 52.2506 37.2347 53.139 40.333H44.8623C45.7507 37.2347 47.2023 34.3313 49.0006 31.7313ZM63.994 40.333H57.6023C56.9232 37.6498 55.9191 35.0596 54.6123 32.6197C58.599 33.9847 61.914 36.7363 63.994 40.333ZM49.0006 27.333C37.019 27.333 27.334 37.083 27.334 48.9997C27.334 54.746 29.6167 60.257 33.68 64.3203C35.6919 66.3323 38.0805 67.9282 40.7092 69.0171C43.3379 70.1059 46.1553 70.6663 49.0006 70.6663C54.747 70.6663 60.258 68.3836 64.3213 64.3203C68.3846 60.257 70.6673 54.746 70.6673 48.9997C70.6673 46.1544 70.1069 43.3369 69.018 40.7082C67.9292 38.0795 66.3332 35.691 64.3213 33.679C62.3094 31.6671 59.9208 30.0711 57.2921 28.9823C54.6634 27.8934 51.846 27.333 49.0006 27.333Z" fill="white"/>
</g>
<defs>
<linearGradient id="paint0_linear_590_5568" x1="8.19" y1="9.36" x2="86.58" y2="88.335" gradientUnits="userSpaceOnUse">
<stop stop-color="#DE1E66"/>
<stop offset="1" stop-color="#FF763B"/>
</linearGradient>
<clipPath id="clip0_590_5568">
<rect width="97.11" height="97.11" fill="white"/>
</clipPath>
</defs>
</svg>
