<svg width="98" height="98" viewBox="0 0 98 98" fill="none" xmlns="http://www.w3.org/2000/svg">
<g clip-path="url(#clip0_1049_6768)">
<rect x="0.585" y="0.585" width="95.94" height="95.94" rx="19.305" fill="url(#paint0_linear_1049_6768)" stroke="#DEDEDE" stroke-width="1.17"/>
<path d="M58.4454 53.333C58.6187 51.903 58.7487 50.473 58.7487 48.9997C58.7487 47.5263 58.6187 46.0963 58.4454 44.6663H65.7687C66.1154 46.053 66.332 47.5047 66.332 48.9997C66.332 50.4947 66.1154 51.9463 65.7687 53.333M54.6104 65.3797C55.9104 62.9747 56.907 60.3747 57.6004 57.6663H63.992C61.8929 61.2809 58.5626 64.019 54.6104 65.3797ZM54.0687 53.333H43.9287C43.712 51.903 43.582 50.473 43.582 48.9997C43.582 47.5263 43.712 46.0747 43.9287 44.6663H54.0687C54.2637 46.0747 54.4154 47.5263 54.4154 48.9997C54.4154 50.473 54.2637 51.903 54.0687 53.333ZM48.9987 66.2463C47.2004 63.6463 45.7487 60.7647 44.8604 57.6663H53.137C52.2487 60.7647 50.797 63.6463 48.9987 66.2463ZM40.332 40.333H34.0054C36.0824 36.7082 39.4105 33.9657 43.3654 32.6197C42.0654 35.0247 41.0904 37.6247 40.332 40.333ZM34.0054 57.6663H40.332C41.0904 60.3747 42.0654 62.9747 43.3654 65.3797C39.4183 64.0197 36.0947 61.2808 34.0054 57.6663ZM32.2287 53.333C31.882 51.9463 31.6654 50.4947 31.6654 48.9997C31.6654 47.5047 31.882 46.053 32.2287 44.6663H39.552C39.3787 46.0963 39.2487 47.5263 39.2487 48.9997C39.2487 50.473 39.3787 51.903 39.552 53.333M48.9987 31.7313C50.797 34.3313 52.2487 37.2347 53.137 40.333H44.8604C45.7487 37.2347 47.2004 34.3313 48.9987 31.7313ZM63.992 40.333H57.6004C56.9212 37.6498 55.9171 35.0596 54.6104 32.6197C58.597 33.9847 61.912 36.7363 63.992 40.333ZM48.9987 27.333C37.017 27.333 27.332 37.083 27.332 48.9997C27.332 54.746 29.6148 60.257 33.6781 64.3203C35.69 66.3323 38.0785 67.9282 40.7072 69.0171C43.3359 70.1059 46.1534 70.6663 48.9987 70.6663C54.7451 70.6663 60.2561 68.3836 64.3193 64.3203C68.3826 60.257 70.6654 54.746 70.6654 48.9997C70.6654 46.1544 70.1049 43.3369 69.0161 40.7082C67.9272 38.0795 66.3313 35.691 64.3193 33.679C62.3074 31.6671 59.9189 30.0711 57.2902 28.9823C54.6614 27.8934 51.844 27.333 48.9987 27.333Z" fill="white"/>
</g>
<defs>
<linearGradient id="paint0_linear_1049_6768" x1="8.19" y1="9.36" x2="86.58" y2="88.335" gradientUnits="userSpaceOnUse">
<stop stop-color="#DE1E66"/>
<stop offset="1" stop-color="#FF763B"/>
</linearGradient>
<clipPath id="clip0_1049_6768">
<rect width="97.11" height="97.11" fill="white"/>
</clipPath>
</defs>
</svg>
