<svg width="48" height="48" fill="none" xmlns="http://www.w3.org/2000/svg"><path d="M26.467 0c2.7.007 4.07.022 5.254.055l.465.017c.538.02 1.068.043 1.709.072 2.553.12 4.296.523 5.824 1.116 1.584.61 2.919 1.435 4.253 2.767 1.22 1.2 2.165 2.65 2.767 4.253.593 1.529.996 3.27 1.116 5.827.029.638.053 1.169.072 1.709l.014.465c.036 1.181.05 2.551.055 5.251l.003 1.79v3.145c.006 1.75-.013 3.5-.055 5.25l-.015.466c-.019.54-.043 1.07-.072 1.709-.12 2.556-.528 4.296-1.118 5.827a11.757 11.757 0 01-2.767 4.253 11.759 11.759 0 01-4.253 2.767c-1.528.593-3.27.996-5.824 1.116l-1.709.072-.465.014c-1.184.034-2.554.05-5.254.055l-1.79.003h-3.142a187 187 0 01-5.253-.055l-.465-.015c-.57-.021-1.14-.046-1.71-.074-2.553-.12-4.295-.523-5.826-1.116a11.76 11.76 0 01-4.25-2.767 11.76 11.76 0 01-2.77-4.253C.67 38.19.265 36.448.145 33.892l-.072-1.709-.012-.465c-.044-1.75-.064-3.5-.06-5.251v-4.935c-.006-1.75.011-3.5.053-5.25l.017-.466c.02-.54.043-1.07.072-1.71.12-2.555.523-4.295 1.116-5.826a11.76 11.76 0 012.774-4.253A11.76 11.76 0 018.281 1.26C9.812.667 11.552.264 14.108.144a181.82 181.82 0 011.709-.072l.465-.014c1.75-.043 3.5-.061 5.251-.056L26.467 0zM24 12a12 12 0 100 23.999 12 12 0 000-24zm0 4.8a7.198 7.198 0 016.653 9.954 7.2 7.2 0 11-6.65-9.954m12.599-8.4a3 3 0 100 6 3 3 0 000-6z" fill="#000"/></svg>