<svg width="98" height="98" viewBox="0 0 98 98" fill="none" xmlns="http://www.w3.org/2000/svg">
<rect x="0.585" y="0.585" width="95.94" height="95.94" rx="19.305" fill="url(#paint0_linear_458_3296)" stroke="#DEDEDE" stroke-width="1.17"/>
<path d="M38.6148 60.3352C35.6798 57.6453 33.7927 53.8308 33.6365 49.5742H24C24.1617 56.7547 27.3503 63.1875 32.34 67.6478L38.6148 60.3352Z" fill="#6DA252"/>
<path d="M48.9965 23.9971C35.401 23.9971 24.3401 34.848 24.001 48.3616H33.639C33.9739 40.1688 40.7215 33.6298 48.9965 33.6298C57.4855 33.6298 64.3673 40.5115 64.3673 49.0005C64.3673 54.7109 61.253 59.6943 56.6305 62.3444L61.1653 70.8477C68.8218 66.574 73.9999 58.3918 73.9999 49.0005C73.9999 35.1915 62.8053 23.9971 48.9965 23.9971Z" fill="#6DA252"/>
<path d="M55.5556 62.9051C53.5663 63.8451 51.3429 64.3712 48.9968 64.3712C45.4308 64.3712 42.1483 63.1569 39.5406 61.1191L33.2637 68.4342C37.5603 71.917 43.0349 74.0039 48.9969 74.0039C52.9821 74.0039 56.7494 73.0711 60.0928 71.4128L55.5556 62.9051Z" fill="#6DA252"/>
<path d="M73.9998 49H64.3672V74.0034H73.9998V49Z" fill="#6DA252"/>
<defs>
<linearGradient id="paint0_linear_458_3296" x1="8.19" y1="9.36" x2="86.58" y2="88.335" gradientUnits="userSpaceOnUse">
<stop stop-color="white"/>
<stop offset="1" stop-color="#EAEAEA"/>
</linearGradient>
</defs>
</svg>
