<svg width="98" height="98" viewBox="0 0 98 98" fill="none" xmlns="http://www.w3.org/2000/svg">
<rect x="0.695352" y="0.585" width="95.94" height="95.94" rx="19.305" fill="url(#paint0_linear_466_3167)" stroke="#DEDEDE" stroke-width="1.17"/>
<path d="M71.6443 53.3242C71.6403 53.3242 71.6369 53.3271 71.6362 53.331C70.312 60.4751 64.5376 66.7367 57.8473 70.2466C57.0065 70.686 56.7868 70.9283 55.8438 71.0041H69.2968C69.6022 71.0153 69.9066 70.9648 70.192 70.8556C70.4775 70.7465 70.7379 70.5808 70.9578 70.3687C71.1778 70.1565 71.3526 69.9022 71.472 69.6209C71.5913 69.3397 71.6528 69.0372 71.6525 68.7316V53.3325C71.6525 53.3279 71.6488 53.3242 71.6443 53.3242Z" fill="#F7931E"/>
<path d="M56.8512 70.5869C56.5762 70.6058 56.3003 70.6058 56.0254 70.5869H56.8512Z" fill="#FFCE00"/>
<path d="M43.337 39.5143C43.1326 39.6847 42.928 39.8401 42.7197 39.9878C39.2844 42.4042 28.8008 50.2366 26.4336 46.8658C24.1081 43.5556 26.5586 34.1665 32.5958 29.6442C32.7094 29.5533 32.8231 29.47 32.9404 29.3905C39.489 24.7849 44.39 25.4212 46.7723 28.7958C48.9842 31.9622 46.4958 36.9313 43.337 39.5143Z" fill="#8427E0"/>
<path d="M68.9632 46.7791C65.7212 49.0516 60.6044 46.4004 58.0668 43.1394C57.9644 43.0068 57.866 42.8743 57.7713 42.7379C55.355 39.2914 47.5301 28.8077 50.8933 26.4367C54.2566 24.0658 63.9525 26.6526 68.3686 32.9436C68.4671 33.0837 68.5617 33.22 68.6527 33.3564C72.9477 39.7042 72.2622 44.4461 68.9632 46.7791Z" fill="#00B5FF"/>
<path d="M64.6225 67.4516C64.5088 67.54 64.3952 67.6233 64.2816 67.7015C57.7294 72.3071 52.8283 71.6671 50.4574 68.2962C48.2342 65.1299 50.7187 60.1721 53.8661 57.5777C54.0707 57.4073 54.2789 57.2481 54.4873 57.1005C57.9225 54.6879 68.4062 46.8744 70.7733 50.2262C73.114 53.5326 70.6635 62.9294 64.6225 67.4516Z" fill="#FFBD00"/>
<path d="M46.3293 70.6404C42.9546 73.0076 33.2701 70.417 28.8501 64.1298L28.5888 63.751C24.2711 57.3843 24.9528 52.6462 28.2593 50.3245C31.4976 48.0521 36.6145 50.7033 39.152 53.9605C39.2542 54.0931 39.3528 54.2256 39.4512 54.3619C41.8676 57.801 49.7001 68.2847 46.3293 70.6404Z" fill="#E3006D"/>
<path d="M46.8705 34.8603C45.7144 37.4355 43.6146 39.4689 41.0037 40.5415C35.9398 42.6738 28.5051 45.3818 27.2249 42.4353C25.9712 39.5378 28.2892 33.637 32.5918 29.645L32.6826 29.5692C39.3636 24.7667 44.3594 25.3803 46.7719 28.7966C47.965 30.5123 47.787 32.7658 46.8705 34.8603Z" fill="#9327FF"/>
<path d="M68.9633 46.7792C67.206 48.0138 64.8994 47.798 62.7519 46.8246C60.1752 45.6253 58.1462 43.4976 57.0708 40.8668C54.9763 35.7955 52.4198 28.5993 55.3058 27.3533C58.3357 26.0428 64.6722 28.6524 68.6527 33.3563C72.9477 39.7041 72.2622 44.446 68.9633 46.7792Z" fill="#00C8FF"/>
<path d="M64.623 67.4513L64.5473 67.5119C57.8624 72.322 52.8592 71.7122 50.4579 68.2959C49.2535 66.5803 49.4315 64.338 50.3481 62.236C51.5027 59.66 53.6031 57.6261 56.2149 56.5549C61.2749 54.4187 68.7135 51.7144 69.9936 54.6611C71.2737 57.6078 68.9294 63.4442 64.623 67.4513Z" fill="#FFCE00"/>
<path d="M41.9168 69.7389C38.8869 71.0456 32.5732 68.4512 28.5888 63.7623C24.2711 57.3843 24.9528 52.6462 28.2593 50.3245C30.0129 49.0897 32.3194 49.3019 34.4669 50.2753C37.0398 51.4813 39.0621 53.6145 40.1292 56.248C42.2274 61.2815 44.8029 68.4853 41.9168 69.7389Z" fill="#FB006D"/>
<defs>
<linearGradient id="paint0_linear_466_3167" x1="8.30035" y1="9.36" x2="86.6903" y2="88.335" gradientUnits="userSpaceOnUse">
<stop stop-color="#110000"/>
<stop offset="1" stop-color="#1C1540"/>
</linearGradient>
</defs>
</svg>
