<svg width="98" height="98" viewBox="0 0 98 98" fill="none" xmlns="http://www.w3.org/2000/svg">
<rect x="0.585" y="0.585" width="95.94" height="95.94" rx="19.305" fill="url(#paint0_linear_620_8559)" stroke="#DEDEDE" stroke-width="1.17"/>
<g clip-path="url(#clip0_620_8559)">
<path d="M63.691 50.3711C57.4451 50.3711 52.382 55.4196 52.382 61.6475C52.382 67.8753 57.4451 72.9238 63.691 72.9238C69.9369 72.9238 75 67.8751 75 61.6475C75 55.4196 69.9369 50.3711 63.691 50.3711ZM34.309 50.3722C28.0633 50.3722 23 55.4196 23 61.6475C23 67.8753 28.0633 72.9238 34.309 72.9238C40.5551 72.9238 45.6186 67.8751 45.6186 61.6475C45.6186 55.4196 40.5551 50.3722 34.309 50.3722ZM60.309 36.2759C60.309 42.5038 55.2457 47.5529 49.0002 47.5529C42.7541 47.5529 37.691 42.5038 37.691 36.2759C37.691 30.0487 42.7539 25 49 25C55.2455 25 60.3086 30.0491 60.3086 36.2757" fill="#F06A6A"/>
</g>
<defs>
<linearGradient id="paint0_linear_620_8559" x1="8.19" y1="9.36" x2="86.58" y2="88.335" gradientUnits="userSpaceOnUse">
<stop stop-color="white"/>
<stop offset="1" stop-color="#EAEAEA"/>
</linearGradient>
<clipPath id="clip0_620_8559">
<rect width="52" height="48" fill="white" transform="translate(23 25)"/>
</clipPath>
</defs>
</svg>
