<svg width="98" height="98" viewBox="0 0 98 98" fill="none" xmlns="http://www.w3.org/2000/svg">
<rect x="0.585" y="0.585" width="95.94" height="95.94" rx="19.305" fill="white" stroke="#DEDEDE" stroke-width="1.17"/>
<mask id="mask0_918_10952" style="mask-type:luminance" maskUnits="userSpaceOnUse" x="21" y="21" width="55" height="55">
<path d="M75.72 21.7236H21.7227V75.721H75.72V21.7236Z" fill="white"/>
</mask>
<g mask="url(#mask0_918_10952)">
<path d="M26.8229 57.8361L22.5516 67.879C21.3521 70.6915 21.1265 73.8988 24.1308 75.0155C24.8489 75.2862 25.5746 75.4103 26.304 75.4103C28.6202 75.4103 30.8236 74.1018 31.7335 71.9548L32.5945 69.932L39.182 54.4558L45.7395 39.0361C47.3036 36.295 48.2662 32.08 54.41 29.809C49.6348 29.1961 40.0055 27.9365 39.9077 27.9365C39.8476 28.0343 39.2046 29.0119 39.1407 29.1059C39.0091 29.3164 38.8737 29.5383 38.7722 29.7714C38.7609 29.7902 38.7609 29.8015 38.7534 29.809L26.8342 57.8135C26.8342 57.8172 26.8229 57.8285 26.8229 57.8361Z" fill="url(#paint0_radial_918_10952)"/>
<path d="M69.5399 57.8359L73.8113 67.8788C75.0107 70.6913 75.2363 73.8986 72.2321 75.0153C71.5139 75.286 70.7882 75.4101 70.0588 75.4101C67.7426 75.4101 65.5393 74.1016 64.6294 71.9547L63.7683 69.9318L57.1808 54.4556L50.6234 39.0359C49.0592 36.2948 46.4159 30.6285 39.3584 28.7974C40.2495 26.7068 43.3064 26.3496 45.694 26.3496H52.1687H52.2214C52.477 26.3609 52.7252 26.3872 52.9884 26.4248C53.12 26.4436 53.2666 26.4436 53.3982 26.4737C53.5712 26.5113 53.7366 26.579 53.9096 26.6279C54.1051 26.6843 54.3006 26.7256 54.4849 26.8008C54.5676 26.8384 54.6503 26.8873 54.7293 26.9249C54.985 27.0415 55.2331 27.1543 55.4662 27.3009C55.6317 27.3987 55.7633 27.5303 55.9174 27.6468C56.049 27.7521 56.2032 27.8499 56.3273 27.9664C56.4401 28.083 56.5416 28.2183 56.6544 28.3424C56.786 28.4966 56.9326 28.6319 57.0454 28.7936C57.1056 28.8914 57.1582 29.0042 57.2184 29.1019C57.35 29.3125 57.4854 29.5343 57.5869 29.7675C57.5982 29.7863 57.5982 29.7975 57.6057 29.8051L69.5249 57.8095C69.5324 57.8171 69.5399 57.8283 69.5399 57.8359Z" fill="url(#paint1_radial_918_10952)"/>
</g>
<defs>
<radialGradient id="paint0_radial_918_10952" cx="0" cy="0" r="1" gradientUnits="userSpaceOnUse" gradientTransform="translate(42.0099 33.1896) rotate(112.412) scale(46.2679 31.5826)">
<stop stop-color="#142167"/>
<stop offset="1" stop-color="#263DB5"/>
</radialGradient>
<radialGradient id="paint1_radial_918_10952" cx="0" cy="0" r="1" gradientUnits="userSpaceOnUse" gradientTransform="translate(71.2066 37.141) rotate(132.41) scale(42.9464 150.263)">
<stop stop-color="#4259D4"/>
<stop offset="1" stop-color="#6A81FC"/>
</radialGradient>
</defs>
</svg>
