<svg width="98" height="98" viewBox="0 0 98 98" fill="none" xmlns="http://www.w3.org/2000/svg">
<rect x="0.585" y="0.585" width="95.94" height="95.94" rx="19.305" fill="url(#paint0_linear_417_2780)" stroke="#DEDEDE" stroke-width="1.17"/>
<g clip-path="url(#clip0_417_2780)">
<path d="M25.4542 72.998H34.9753C35.2263 72.998 35.4297 72.7946 35.4297 72.5437V67.1407C35.4297 66.8898 35.2263 66.6864 34.9753 66.6864H25.4542C25.2033 66.6864 24.9999 66.8898 24.9999 67.1407V72.5437C24.9999 72.7946 25.2033 72.998 25.4542 72.998Z" fill="#F95015"/>
<path d="M55.6299 29.7669V26.5448C55.6299 25.6906 56.3223 25 57.1746 25H71.4536C72.3078 25 72.9984 25.6924 72.9984 26.5448V42.5866C72.9984 43.4407 72.3059 44.1313 71.4536 44.1313H68.2314C67.3773 44.1313 66.6867 43.4389 66.6867 42.5866V32.8564C66.6867 32.0023 65.9943 31.3117 65.1419 31.3117H57.1746C56.3205 31.3117 55.6299 30.6193 55.6299 29.7669Z" fill="#F95015"/>
<path d="M25 51.7297V48.5075C25 47.6533 25.6924 46.9627 26.5448 46.9627H33.8832C34.7374 46.9627 35.428 47.6552 35.428 48.5075V55.279C35.428 56.1331 36.1204 56.8237 36.9727 56.8237H42.3921C43.2463 56.8237 43.9368 57.5161 43.9368 58.3685V65.1399C43.9368 65.9941 44.6293 66.6847 45.4816 66.6847H65.1399C65.9941 66.6847 66.6847 65.9923 66.6847 65.1399V54.8174C66.6847 53.9632 65.9923 53.2726 65.1399 53.2726H56.7892C55.935 53.2726 55.2444 52.5802 55.2444 51.7279V43.8369C55.2444 42.9827 54.552 42.2921 53.6997 42.2921H48.3076C47.4534 42.2921 46.7628 41.5997 46.7628 40.7474V32.8546C46.7628 32.0005 46.0704 31.3099 45.2181 31.3099H40.8473C39.9932 31.3099 39.3026 30.6174 39.3026 29.7651V26.5448C39.3026 25.6906 39.995 25 40.8473 25H51.2517C52.1059 25 52.7965 25.6924 52.7965 26.5448V34.4357C52.7965 35.2899 53.4889 35.9805 54.3412 35.9805H59.7333C60.5875 35.9805 61.2781 36.6729 61.2781 37.5252V45.4162C61.2781 46.2703 61.9705 46.9609 62.8228 46.9609H71.4516C72.3058 46.9609 72.9964 47.6533 72.9964 48.5057V71.4534C72.9964 72.3076 72.304 72.9982 71.4516 72.9982H39.348C38.4939 72.9982 37.8033 72.3058 37.8033 71.4534V64.682C37.8033 63.8278 37.1109 63.1372 36.2585 63.1372H30.8373C29.9832 63.1372 29.2926 62.4448 29.2926 61.5925V54.821C29.2926 53.9668 28.6002 53.2762 27.7478 53.2762H26.5466C25.6924 53.2762 25.0018 52.5838 25.0018 51.7315L25 51.7297Z" fill="#F95015"/>
<path d="M29.5576 40.7493V37.5272C29.5576 36.673 30.25 35.9824 31.1024 35.9824H42.3409C43.1951 35.9824 43.8856 36.6748 43.8856 37.5272V45.4181C43.8856 46.2723 44.5781 46.9629 45.4304 46.9629H51.2514C52.1055 46.9629 52.7961 47.6553 52.7961 48.5076V55.2791C52.7961 56.1333 53.4886 56.8239 54.3409 56.8239H61.554C62.4081 56.8239 63.0987 57.5163 63.0987 58.3686V61.5908C63.0987 62.4449 62.4063 63.1355 61.554 63.1355H48.2037C47.3495 63.1355 46.6589 62.4431 46.6589 61.5908V54.8193C46.6589 53.9652 45.9665 53.2746 45.1142 53.2746H39.3986C38.5444 53.2746 37.8538 52.5822 37.8538 51.7298V43.8389C37.8538 42.9847 37.1614 42.2941 36.3091 42.2941H31.1024C30.2482 42.2941 29.5576 41.6017 29.5576 40.7493Z" fill="#F95015"/>
<path d="M30.0138 31.3115H35.4168C35.6677 31.3115 35.8711 31.1081 35.8711 30.8572V25.4542C35.8711 25.2033 35.6677 24.9998 35.4168 24.9998H30.0138C29.7628 24.9998 29.5594 25.2033 29.5594 25.4542V30.8572C29.5594 31.1081 29.7628 31.3115 30.0138 31.3115Z" fill="#F95015"/>
</g>
<defs>
<linearGradient id="paint0_linear_417_2780" x1="8.19" y1="9.36" x2="86.58" y2="88.335" gradientUnits="userSpaceOnUse">
<stop stop-color="white"/>
<stop offset="1" stop-color="#EAEAEA"/>
</linearGradient>
<clipPath id="clip0_417_2780">
<rect width="48" height="48" fill="white" transform="translate(25 25)"/>
</clipPath>
</defs>
</svg>
