<svg width="98" height="98" viewBox="0 0 98 98" fill="none" xmlns="http://www.w3.org/2000/svg">
<rect x="0.585" y="0.585" width="95.94" height="95.94" rx="19.305" fill="url(#paint0_linear_732_6149)" stroke="#DEDEDE" stroke-width="1.17"/>
<g clip-path="url(#clip0_732_6149)">
<path d="M69.6727 29.0033C65.6723 27.1085 61.4401 25.7623 57.0881 25C56.546 25.9921 55.9127 27.3264 55.4759 28.388C50.7837 27.6737 46.1346 27.6737 41.5286 28.388C41.0921 27.3267 40.4444 25.9921 39.8973 25C35.541 25.7626 31.3053 27.1123 27.303 29.0132C19.3386 41.1963 17.1796 53.0764 18.259 64.7884C23.5415 68.7815 28.6607 71.2074 33.6937 72.7947C34.9446 71.0536 36.0503 69.2101 36.9993 67.2834C35.1923 66.587 33.4502 65.7288 31.7938 64.7189C32.2297 64.3918 32.6553 64.051 33.0701 63.6969C43.107 68.4492 54.0126 68.4492 63.9299 63.6969C64.3464 64.0487 64.7719 64.3894 65.2059 64.7189C63.5469 65.7315 61.8016 66.5915 59.9909 67.2885C60.9454 69.223 62.0491 71.0682 63.2965 72.7996C68.3343 71.2124 73.4583 68.7866 78.7407 64.7884C80.0074 51.2114 76.5771 39.4403 69.6727 29.0033ZM38.3668 57.5857C35.3538 57.5857 32.8828 54.7383 32.8828 51.271C32.8828 47.8036 35.3011 44.9514 38.3668 44.9514C41.4326 44.9514 43.9035 47.7986 43.8509 51.271C43.8556 54.7383 41.4328 57.5857 38.3668 57.5857ZM58.6329 57.5857C55.6198 57.5857 53.1491 54.7383 53.1491 51.271C53.1491 47.8036 55.5672 44.9514 58.6329 44.9514C61.6989 44.9514 64.1696 47.7986 64.1169 51.271C64.1169 54.7383 61.6989 57.5857 58.6329 57.5857Z" fill="#5865F2"/>
</g>
<defs>
<linearGradient id="paint0_linear_732_6149" x1="8.19" y1="9.36" x2="86.58" y2="88.335" gradientUnits="userSpaceOnUse">
<stop stop-color="white"/>
<stop offset="1" stop-color="#EAEAEA"/>
</linearGradient>
<clipPath id="clip0_732_6149">
<rect width="61" height="48" fill="white" transform="translate(18 25)"/>
</clipPath>
</defs>
</svg>
