<svg width="98" height="98" viewBox="0 0 98 98" fill="none" xmlns="http://www.w3.org/2000/svg">
<g clip-path="url(#clip0_610_6831)">
<rect x="0.585" y="0.585" width="95.94" height="95.94" rx="19.305" fill="url(#paint0_linear_610_6831)" stroke="#DEDEDE" stroke-width="1.17"/>
<g clip-path="url(#clip1_610_6831)">
<path d="M48.5 76C63.6878 76 76 63.6878 76 48.5C76 33.3122 63.6878 21 48.5 21C33.3122 21 21 33.3122 21 48.5C21 63.6878 33.3122 76 48.5 76Z" fill="#F05537"/>
<path d="M46.2392 38.7737C50.385 37.8524 54.5311 39.5415 56.8342 42.7659L38.5106 46.9122C39.1248 42.9709 42.0933 39.6952 46.2392 38.7739M56.9367 53.9754C55.5035 56.074 53.3026 57.5583 50.7945 58.1212C46.6487 59.0425 42.4517 57.3536 40.1484 54.0779L58.5233 49.9318L61.492 49.2664L67.2245 47.9868C67.1733 46.7586 67.0197 45.5301 66.7638 44.353C64.4607 34.4744 54.3775 28.2814 44.2942 30.5845C34.2109 32.8876 27.9156 42.715 30.2701 52.6446C32.6245 62.5743 42.6564 68.7162 52.7395 66.4129C58.6769 65.0822 63.2834 61.0899 65.6378 56.0228L56.9367 53.9754Z" fill="white"/>
</g>
</g>
<defs>
<linearGradient id="paint0_linear_610_6831" x1="8.19" y1="9.36" x2="86.58" y2="88.335" gradientUnits="userSpaceOnUse">
<stop stop-color="white"/>
<stop offset="1" stop-color="#EAEAEA"/>
</linearGradient>
<clipPath id="clip0_610_6831">
<rect width="97.11" height="97.11" fill="white"/>
</clipPath>
<clipPath id="clip1_610_6831">
<rect width="55" height="55" fill="white" transform="translate(21 21)"/>
</clipPath>
</defs>
</svg>
