<svg width="98" height="98" viewBox="0 0 98 98" fill="none" xmlns="http://www.w3.org/2000/svg">
<g clip-path="url(#clip0_231_11340)">
<rect x="0.585" y="0.585" width="95.94" height="95.94" rx="19.305" fill="url(#paint0_linear_231_11340)" stroke="#DEDEDE" stroke-width="1.17"/>
<g clip-path="url(#clip1_231_11340)">
<path d="M76.1954 39.086C74.9336 36.0522 72.3746 32.7767 70.3704 31.7413C71.7998 34.5078 72.7917 37.4789 73.311 40.5488L73.3162 40.5975C70.0333 32.4181 64.4662 29.1201 59.9196 21.9387C59.6847 21.5726 59.4567 21.2022 59.2356 20.8276C59.1216 20.632 59.0149 20.4323 58.9157 20.2288C58.727 19.8638 58.5816 19.4781 58.4825 19.0795C58.4826 19.0611 58.476 19.0433 58.4638 19.0295C58.4517 19.0156 58.4348 19.0068 58.4166 19.0045C58.3987 18.9998 58.3798 18.9998 58.362 19.0045C58.3583 19.0045 58.3522 19.0113 58.3477 19.0129C58.3432 19.0143 58.3334 19.0211 58.3268 19.024L58.3379 19.0045C51.0449 23.2722 48.5702 31.1723 48.3425 35.1239C45.4299 35.324 42.6453 36.3965 40.3518 38.2016C40.1125 37.9991 39.8624 37.8097 39.6026 37.6342C38.941 35.32 38.9129 32.8708 39.521 30.542C36.8427 31.8386 34.4628 33.6767 32.532 35.9399H32.5184C31.3677 34.4823 31.4486 29.6757 31.5145 28.6716C31.1741 28.8084 30.8492 28.9808 30.5451 29.186C29.5293 29.9106 28.5796 30.7236 27.7071 31.6154C26.7131 32.6227 25.8052 33.7114 24.9929 34.8701V34.8744V34.8692C23.1263 37.5141 21.8022 40.5022 21.0972 43.6611L21.0584 43.8527C20.9513 44.4547 20.8561 45.0589 20.773 45.6647C20.773 45.6864 20.7684 45.7066 20.7662 45.7283C20.512 47.0485 20.3545 48.3854 20.2949 49.7284V49.8783C20.3144 72.2166 44.5244 86.1568 63.8729 74.9707C67.5552 72.8418 70.7244 69.9304 73.1564 66.4423C75.5884 62.9542 77.2238 58.9746 77.9469 54.7851C77.9956 54.4109 78.0353 54.0402 78.0788 53.6621C78.6768 48.7225 78.0293 43.7118 76.1954 39.086ZM42.7296 61.7995C42.8653 61.8647 42.9926 61.9351 43.132 61.9971L43.1521 62.0101C43.0102 61.942 42.8694 61.8718 42.7296 61.7995ZM73.3185 40.6043V40.5765L73.3237 40.6073L73.3185 40.6043Z" fill="url(#paint1_linear_231_11340)"/>
<path d="M76.1954 39.0859C74.9336 36.0522 72.3746 32.7766 70.3704 31.7412C71.7998 34.5077 72.7917 37.4788 73.311 40.5488V40.5764L73.3162 40.6072C75.5542 47.0073 75.2304 54.0242 72.4127 60.1914C69.0849 67.3271 61.0297 74.641 48.4211 74.2853C34.7974 73.8997 22.7993 63.7971 20.5564 50.5647C20.1481 48.478 20.5564 47.4202 20.7616 45.7244C20.4816 47.0416 20.3253 48.382 20.2949 49.7283V49.8782C20.3144 72.2165 44.5244 86.1567 63.8729 74.9706C67.5552 72.8417 70.7244 69.9303 73.1564 66.4422C75.5884 62.9541 77.2238 58.9745 77.9469 54.7851C77.9956 54.4108 78.0353 54.0402 78.0788 53.662C78.6768 48.7224 78.0293 43.7117 76.1954 39.0859Z" fill="url(#paint2_radial_231_11340)"/>
<path d="M76.1954 39.0859C74.9336 36.0522 72.3746 32.7766 70.3704 31.7412C71.7998 34.5077 72.7917 37.4788 73.311 40.5488V40.5764L73.3162 40.6072C75.5542 47.0073 75.2304 54.0242 72.4127 60.1914C69.0849 67.3271 61.0297 74.641 48.4211 74.2853C34.7974 73.8997 22.7993 63.7971 20.5564 50.5647C20.1481 48.478 20.5564 47.4202 20.7616 45.7244C20.4816 47.0416 20.3253 48.382 20.2949 49.7283V49.8782C20.3144 72.2165 44.5244 86.1567 63.8729 74.9706C67.5552 72.8417 70.7244 69.9303 73.1564 66.4422C75.5884 62.9541 77.2238 58.9745 77.9469 54.7851C77.9956 54.4108 78.0353 54.0402 78.0788 53.662C78.6768 48.7224 78.0293 43.7117 76.1954 39.0859Z" fill="url(#paint3_radial_231_11340)"/>
<path d="M62.0846 42.4973C62.1476 42.5414 62.2061 42.5856 62.2652 42.6297C61.5358 41.3373 60.6279 40.1539 59.5682 39.1146C50.5438 30.0945 57.2031 19.5567 58.3262 19.0214L58.3373 19.0049C51.0442 23.2726 48.5695 31.1727 48.3418 35.1243C48.6805 35.101 49.016 35.0724 49.3622 35.0724C51.95 35.0772 54.4904 35.7667 56.725 37.0709C58.9596 38.375 60.8089 40.2473 62.0846 42.4973Z" fill="url(#paint4_radial_231_11340)"/>
<path d="M49.381 44.2985C49.3329 45.0203 46.7812 47.5095 45.889 47.5095C37.6323 47.5095 36.292 52.501 36.292 52.501C36.6577 56.7042 39.5885 60.1661 43.1312 61.9973C43.293 62.0813 43.4573 62.1569 43.6213 62.231C43.9021 62.3554 44.1864 62.4718 44.4738 62.5799C45.6897 63.0099 46.9631 63.2555 48.2518 63.3083C62.7237 63.9866 65.5272 46.0138 55.0835 40.7983C57.5472 40.4779 60.0422 41.0833 62.0845 42.4971C60.8088 40.2471 58.9596 38.3749 56.7249 37.0707C54.4903 35.7666 51.9499 35.0771 49.3622 35.0723C49.0176 35.0723 48.6804 35.1008 48.3417 35.1241C45.4292 35.3242 42.6446 36.3967 40.3511 38.2018C40.7938 38.5763 41.2936 39.0764 42.3462 40.1132C44.3164 42.0531 49.3696 44.0625 49.381 44.2985Z" fill="url(#paint5_radial_231_11340)"/>
<path d="M49.381 44.2985C49.3329 45.0203 46.7812 47.5095 45.889 47.5095C37.6323 47.5095 36.292 52.501 36.292 52.501C36.6577 56.7042 39.5885 60.1661 43.1312 61.9973C43.293 62.0813 43.4573 62.1569 43.6213 62.231C43.9021 62.3554 44.1864 62.4718 44.4738 62.5799C45.6897 63.0099 46.9631 63.2555 48.2518 63.3083C62.7237 63.9866 65.5272 46.0138 55.0835 40.7983C57.5472 40.4779 60.0422 41.0833 62.0845 42.4971C60.8088 40.2471 58.9596 38.3749 56.7249 37.0707C54.4903 35.7666 51.9499 35.0771 49.3622 35.0723C49.0176 35.0723 48.6804 35.1008 48.3417 35.1241C45.4292 35.3242 42.6446 36.3967 40.3511 38.2018C40.7938 38.5763 41.2936 39.0764 42.3462 40.1132C44.3164 42.0531 49.3696 44.0625 49.381 44.2985Z" fill="url(#paint6_radial_231_11340)"/>
<path d="M38.9979 37.2366C39.2002 37.3653 39.4 37.4978 39.5972 37.6342C38.9355 35.32 38.9074 32.8708 39.5156 30.542C36.8372 31.8387 34.4573 33.6767 32.5264 35.94C32.668 35.9361 36.88 35.8605 38.9979 37.2366Z" fill="url(#paint7_radial_231_11340)"/>
<path d="M20.5599 50.5652C22.8006 63.7976 34.8009 73.9002 48.4246 74.2858C61.0332 74.6422 69.0882 67.3276 72.4162 60.1919C75.2339 54.0247 75.5577 47.0078 73.3197 40.6077V40.5801C73.3197 40.5583 73.3152 40.5454 73.3197 40.5522L73.3249 40.6009C74.3551 47.3218 70.9342 53.8333 65.5867 58.2361L65.5701 58.2737C55.1508 66.7541 45.1791 63.3903 43.1608 62.017C43.0189 61.9492 42.878 61.8791 42.7383 61.8067C36.6633 58.9047 34.1536 53.3734 34.6915 48.6298C33.2494 48.6511 31.8321 48.2539 30.6113 47.4865C29.3905 46.7191 28.4185 45.6144 27.8133 44.3062C29.408 43.3298 31.2263 42.7779 33.095 42.703C34.9636 42.628 36.8204 43.0325 38.4882 43.878C41.9268 45.438 45.8397 45.5916 49.3902 44.3062C49.3791 44.0703 44.3258 42.0601 42.3554 40.1211C41.3028 39.0841 40.8032 38.5847 40.3605 38.2097C40.1213 38.0071 39.8712 37.8176 39.6113 37.6421C39.4389 37.5246 39.2449 37.3973 39.012 37.2445C36.8941 35.8684 32.6821 35.944 32.5428 35.9478H32.5294C31.3787 34.4902 31.4596 29.6836 31.5255 28.6797C31.185 28.8163 30.8601 28.9887 30.556 29.1939C29.5402 29.9184 28.5905 30.7314 27.7181 31.6233C26.7206 32.6279 25.8089 33.7141 24.9926 34.8706V34.8749V34.8696C23.1259 37.5145 21.8018 40.5026 21.0968 43.6616C21.0828 43.7207 20.051 48.2277 20.5599 50.5652Z" fill="url(#paint8_radial_231_11340)"/>
<path d="M59.5703 39.1143C60.6302 40.1549 61.5381 41.3395 62.2673 42.6332C62.4178 42.7452 62.5631 42.8641 62.7025 42.9896C69.2855 49.0539 65.8363 57.6264 65.5794 58.2366C70.927 53.8335 74.3447 47.3223 73.3177 40.6011C70.0332 32.4181 64.4661 29.1201 59.9194 21.9387C59.6846 21.5726 59.4565 21.2022 59.2354 20.8276C59.1215 20.632 59.0148 20.4323 58.9155 20.2288C58.7269 19.8638 58.5815 19.4781 58.4823 19.0795C58.4825 19.0611 58.4758 19.0433 58.4637 19.0295C58.4515 19.0156 58.4347 19.0068 58.4164 19.0045C58.3985 18.9998 58.3797 18.9998 58.3618 19.0045C58.3582 19.0045 58.3521 19.0113 58.3475 19.0129C58.343 19.0143 58.3333 19.0211 58.3267 19.024C57.2036 19.5563 50.5443 30.0941 59.5703 39.1143Z" fill="url(#paint9_radial_231_11340)"/>
<path d="M62.698 42.9853C62.5585 42.8598 62.4133 42.7409 62.2628 42.6289C62.2037 42.5847 62.1452 42.5406 62.0822 42.4964C60.0399 41.0827 57.5449 40.4773 55.0812 40.7976C65.5246 46.016 62.7227 63.9859 48.2494 63.3076C46.9608 63.2548 45.6873 63.0093 44.4715 62.5792C44.1839 62.4715 43.8996 62.3552 43.619 62.2303C43.4547 62.1554 43.2907 62.0807 43.1289 61.9967L43.1491 62.0096C45.1673 63.3864 55.1358 66.7502 65.5584 58.266L65.5749 58.2286C65.8348 57.6221 69.284 49.0475 62.698 42.9853Z" fill="url(#paint10_radial_231_11340)"/>
<path d="M36.2919 52.5011C36.2919 52.5011 37.6322 47.5096 45.8888 47.5096C46.781 47.5096 49.3351 45.0204 49.3808 44.2986C45.8303 45.5841 41.9174 45.4303 38.4789 43.8702C36.8109 43.0248 34.9542 42.6204 33.0855 42.6953C31.2168 42.7703 29.3985 43.3223 27.8037 44.2986C28.409 45.6068 29.3809 46.7115 30.6017 47.4789C31.8225 48.2463 33.2398 48.6435 34.6819 48.6222C34.1441 53.3667 36.6537 58.8981 42.7287 61.7991C42.8645 61.8643 42.9918 61.9347 43.1311 61.9968C39.5854 60.1662 36.6575 56.7043 36.2919 52.5011Z" fill="url(#paint11_radial_231_11340)"/>
<path d="M76.1954 39.086C74.9336 36.0522 72.3746 32.7767 70.3704 31.7413C71.7998 34.5078 72.7917 37.4789 73.311 40.5488L73.3162 40.5975C70.0333 32.4181 64.4662 29.1201 59.9196 21.9387C59.6847 21.5726 59.4567 21.2022 59.2356 20.8276C59.1216 20.632 59.0149 20.4323 58.9157 20.2288C58.727 19.8638 58.5816 19.4781 58.4825 19.0795C58.4826 19.0611 58.476 19.0433 58.4638 19.0295C58.4517 19.0156 58.4348 19.0068 58.4166 19.0045C58.3987 18.9998 58.3798 18.9998 58.362 19.0045C58.3583 19.0045 58.3522 19.0113 58.3477 19.0129C58.3432 19.0143 58.3334 19.0211 58.3268 19.024L58.3379 19.0045C51.0449 23.2722 48.5702 31.1723 48.3425 35.1239C48.6812 35.1006 49.0167 35.0721 49.3629 35.0721C51.9507 35.0769 54.491 35.7664 56.7257 37.0705C58.9603 38.3747 60.8095 40.2469 62.0853 42.4969C60.0429 41.0831 57.548 40.4777 55.0843 40.7981C65.5279 46.0165 62.726 63.9864 48.2525 63.3081C46.9639 63.2553 45.6904 63.0098 44.4746 62.5797C44.1869 62.472 43.9026 62.3557 43.622 62.2308C43.458 62.1559 43.2937 62.0811 43.132 61.9971L43.1521 62.0101C43.0102 61.942 42.8694 61.8718 42.7296 61.7995C42.8653 61.8647 42.9926 61.9351 43.132 61.9971C39.5863 60.1659 36.6584 56.704 36.2927 52.5008C36.2927 52.5008 37.6331 47.5093 45.8897 47.5093C46.7819 47.5093 49.3359 45.0201 49.3817 44.2983C49.3704 44.0624 44.3171 42.0522 42.3469 40.113C41.2943 39.0762 40.7945 38.5768 40.3518 38.2016C40.1125 37.9991 39.8624 37.8097 39.6026 37.6342C38.941 35.32 38.9129 32.8708 39.521 30.542C36.8427 31.8386 34.4628 33.6767 32.532 35.9399H32.5184C31.3677 34.4823 31.4486 29.6757 31.5145 28.6716C31.1741 28.8084 30.8492 28.9808 30.5451 29.186C29.5293 29.9106 28.5796 30.7236 27.7071 31.6154C26.7131 32.6227 25.8052 33.7114 24.9929 34.8701V34.8744V34.8692C23.1263 37.5141 21.8022 40.5022 21.0972 43.6611L21.0584 43.8527C21.0036 44.1081 20.7587 45.4048 20.7234 45.6833C20.7234 45.6615 20.7234 45.7043 20.7234 45.6833C20.4993 47.0218 20.3563 48.3726 20.2949 49.7284V49.8783C20.3144 72.2166 44.5244 86.1568 63.8729 74.9707C67.5552 72.8418 70.7244 69.9304 73.1564 66.4423C75.5884 62.9542 77.2238 58.9746 77.9469 54.7851C77.9956 54.4109 78.0353 54.0402 78.0788 53.6621C78.6768 48.7225 78.0293 43.7118 76.1954 39.086Z" fill="url(#paint12_linear_231_11340)"/>
</g>
</g>
<defs>
<linearGradient id="paint0_linear_231_11340" x1="8.19" y1="9.36" x2="86.58" y2="88.335" gradientUnits="userSpaceOnUse">
<stop stop-color="white"/>
<stop offset="1" stop-color="#EAEAEA"/>
</linearGradient>
<linearGradient id="paint1_linear_231_11340" x1="72.352" y1="28.2762" x2="24.1811" y2="74.7823" gradientUnits="userSpaceOnUse">
<stop offset="0.048" stop-color="#FFF44F"/>
<stop offset="0.111" stop-color="#FFE847"/>
<stop offset="0.225" stop-color="#FFC830"/>
<stop offset="0.368" stop-color="#FF980E"/>
<stop offset="0.401" stop-color="#FF8B16"/>
<stop offset="0.462" stop-color="#FF672A"/>
<stop offset="0.534" stop-color="#FF3647"/>
<stop offset="0.705" stop-color="#E31587"/>
</linearGradient>
<radialGradient id="paint2_radial_231_11340" cx="0" cy="0" r="1" gradientUnits="userSpaceOnUse" gradientTransform="translate(70.1257 25.6462) scale(60.531 60.4916)">
<stop offset="0.129" stop-color="#FFBD4F"/>
<stop offset="0.186" stop-color="#FFAC31"/>
<stop offset="0.247" stop-color="#FF9D17"/>
<stop offset="0.283" stop-color="#FF980E"/>
<stop offset="0.403" stop-color="#FF563B"/>
<stop offset="0.467" stop-color="#FF3750"/>
<stop offset="0.71" stop-color="#F5156C"/>
<stop offset="0.782" stop-color="#EB0878"/>
<stop offset="0.86" stop-color="#E50080"/>
</radialGradient>
<radialGradient id="paint3_radial_231_11340" cx="0" cy="0" r="1" gradientUnits="userSpaceOnUse" gradientTransform="translate(48.0071 50.3768) scale(60.531 60.4916)">
<stop offset="0.3" stop-color="#960E18"/>
<stop offset="0.351" stop-color="#B11927" stop-opacity="0.74"/>
<stop offset="0.435" stop-color="#DB293D" stop-opacity="0.343"/>
<stop offset="0.497" stop-color="#F5334B" stop-opacity="0.094"/>
<stop offset="0.53" stop-color="#FF3750" stop-opacity="0"/>
</radialGradient>
<radialGradient id="paint4_radial_231_11340" cx="0" cy="0" r="1" gradientUnits="userSpaceOnUse" gradientTransform="translate(55.3041 11.9187) scale(43.8522 43.8236)">
<stop offset="0.132" stop-color="#FFF44F"/>
<stop offset="0.252" stop-color="#FFDC3E"/>
<stop offset="0.506" stop-color="#FF9D12"/>
<stop offset="0.526" stop-color="#FF980E"/>
</radialGradient>
<radialGradient id="paint5_radial_231_11340" cx="0" cy="0" r="1" gradientUnits="userSpaceOnUse" gradientTransform="translate(41.311 66.1781) scale(28.8215 28.8027)">
<stop offset="0.353" stop-color="#3A8EE6"/>
<stop offset="0.472" stop-color="#5C79F0"/>
<stop offset="0.669" stop-color="#9059FF"/>
<stop offset="1" stop-color="#C139E6"/>
</radialGradient>
<radialGradient id="paint6_radial_231_11340" cx="0" cy="0" r="1" gradientUnits="userSpaceOnUse" gradientTransform="translate(51.3233 45.4203) rotate(-13.583) scale(15.2804 17.8792)">
<stop offset="0.206" stop-color="#9059FF" stop-opacity="0"/>
<stop offset="0.278" stop-color="#8C4FF3" stop-opacity="0.064"/>
<stop offset="0.747" stop-color="#7716A8" stop-opacity="0.45"/>
<stop offset="0.975" stop-color="#6E008B" stop-opacity="0.6"/>
</radialGradient>
<radialGradient id="paint7_radial_231_11340" cx="0" cy="0" r="1" gradientUnits="userSpaceOnUse" gradientTransform="translate(47.2427 23.1711) scale(20.7341 20.7207)">
<stop stop-color="#FFE226"/>
<stop offset="0.121" stop-color="#FFDB27"/>
<stop offset="0.295" stop-color="#FFC82A"/>
<stop offset="0.502" stop-color="#FFA930"/>
<stop offset="0.732" stop-color="#FF7E37"/>
<stop offset="0.792" stop-color="#FF7139"/>
</radialGradient>
<radialGradient id="paint8_radial_231_11340" cx="0" cy="0" r="1" gradientUnits="userSpaceOnUse" gradientTransform="translate(63.5401 10.0291) scale(88.4632 88.4057)">
<stop offset="0.113" stop-color="#FFF44F"/>
<stop offset="0.456" stop-color="#FF980E"/>
<stop offset="0.622" stop-color="#FF5634"/>
<stop offset="0.716" stop-color="#FF3647"/>
<stop offset="0.904" stop-color="#E31587"/>
</radialGradient>
<radialGradient id="paint9_radial_231_11340" cx="0" cy="0" r="1" gradientUnits="userSpaceOnUse" gradientTransform="translate(56.0985 14.9427) rotate(83.9722) scale(64.7952 42.5516)">
<stop stop-color="#FFF44F"/>
<stop offset="0.06" stop-color="#FFE847"/>
<stop offset="0.168" stop-color="#FFC830"/>
<stop offset="0.304" stop-color="#FF980E"/>
<stop offset="0.356" stop-color="#FF8B16"/>
<stop offset="0.455" stop-color="#FF672A"/>
<stop offset="0.57" stop-color="#FF3647"/>
<stop offset="0.737" stop-color="#E31587"/>
</radialGradient>
<radialGradient id="paint10_radial_231_11340" cx="0" cy="0" r="1" gradientUnits="userSpaceOnUse" gradientTransform="translate(46.7543 30.8454) scale(55.2291 55.1932)">
<stop offset="0.137" stop-color="#FFF44F"/>
<stop offset="0.48" stop-color="#FF980E"/>
<stop offset="0.592" stop-color="#FF5634"/>
<stop offset="0.655" stop-color="#FF3647"/>
<stop offset="0.904" stop-color="#E31587"/>
</radialGradient>
<radialGradient id="paint11_radial_231_11340" cx="0" cy="0" r="1" gradientUnits="userSpaceOnUse" gradientTransform="translate(61.3325 34.0768) scale(60.4479 60.4085)">
<stop offset="0.094" stop-color="#FFF44F"/>
<stop offset="0.231" stop-color="#FFE141"/>
<stop offset="0.509" stop-color="#FFAF1E"/>
<stop offset="0.626" stop-color="#FF980E"/>
</radialGradient>
<linearGradient id="paint12_linear_231_11340" x1="71.7729" y1="28.0277" x2="30.7853" y2="69.0412" gradientUnits="userSpaceOnUse">
<stop offset="0.167" stop-color="#FFF44F" stop-opacity="0.8"/>
<stop offset="0.266" stop-color="#FFF44F" stop-opacity="0.634"/>
<stop offset="0.489" stop-color="#FFF44F" stop-opacity="0.217"/>
<stop offset="0.6" stop-color="#FFF44F" stop-opacity="0"/>
</linearGradient>
<clipPath id="clip0_231_11340">
<rect width="97.11" height="97.11" fill="white"/>
</clipPath>
<clipPath id="clip1_231_11340">
<rect width="58" height="60" fill="white" transform="translate(20 19)"/>
</clipPath>
</defs>
</svg>
