<svg width="98" height="98" viewBox="0 0 98 98" fill="none" xmlns="http://www.w3.org/2000/svg">
<rect x="0.585" y="0.585" width="95.94" height="95.94" rx="19.305" fill="url(#paint0_linear_754_6293)" stroke="#DEDEDE" stroke-width="1.17"/>
<path d="M73.6706 58.0093C73.6706 64.1178 62.2446 69.0964 48.1031 69.0964C33.9616 69.0964 22.5361 64.1184 22.5361 58.0093C22.5361 51.9003 33.9621 46.9229 48.1026 46.9229C62.2446 46.9229 73.6706 51.9003 73.6706 58.0093Z" fill="url(#paint1_radial_754_6293)"/>
<path d="M30.2859 30.7446C30.2859 30.7446 34.3014 39.0596 43.7479 38.8331C63.4888 38.3241 66.9394 28.0296 67.4479 26.5586C67.9574 25.0881 68.6929 25.3141 68.8629 26.6716C75.3114 85.0466 24.2329 59.9886 22.4229 50.0896C32.5479 47.1481 30.1159 41.4346 30.1159 41.4346L30.2859 30.7446Z" fill="url(#paint2_radial_754_6293)"/>
<path d="M68.3271 25.2757C68.0711 25.2352 67.8271 25.3722 67.6471 25.5792C67.4666 25.7857 67.3156 26.0767 67.1806 26.4662C66.9241 27.2077 65.9696 30.0627 62.6296 32.8392C59.2896 35.6157 53.5631 38.2972 43.7416 38.5507C34.4631 38.7727 30.5401 30.6207 30.5401 30.6207L30.0226 29.5472L30.0026 30.7402L29.8326 41.4902L29.8556 41.5452C29.8556 41.5452 30.4226 42.8642 29.8006 44.5622C29.1786 46.2602 27.3541 48.3622 22.3446 49.8172L22.0996 49.8887L22.1446 50.1407C22.3906 51.4832 23.4256 52.9817 25.0051 54.5222C26.5846 56.0627 28.7201 57.6362 31.2091 59.0612C36.1866 61.9102 42.5741 64.1622 48.7351 64.2657C54.8961 64.3692 60.8491 62.2966 64.8151 56.5092C68.7821 50.7217 70.7601 41.2722 69.1441 26.6402V26.6362C69.0998 26.2735 69.0156 25.9752 68.8916 25.7412C68.7666 25.5077 68.5836 25.3162 68.3271 25.2757ZM68.2391 25.8337C68.2516 25.8357 68.3156 25.8637 68.3921 26.0077C68.4686 26.1512 68.5421 26.3902 68.5821 26.7027C70.1896 41.2577 68.2021 50.5667 64.3486 56.1892C60.4951 61.8122 54.7736 63.8017 48.7446 63.7002C42.7156 63.5987 36.3981 61.3792 31.4911 58.5702C29.0371 57.1652 26.9361 55.6137 25.4011 54.1172C23.9511 52.7037 23.0701 51.3522 22.7961 50.2502C27.6626 48.7652 29.6541 46.6087 30.3321 44.7567C30.9921 42.9537 30.4546 41.5597 30.3996 41.4212L30.5536 31.7387C31.7166 33.6827 35.7251 39.3087 43.7551 39.1157C53.6746 38.8602 59.5436 36.1397 62.9906 33.2742C66.4381 30.4087 67.4636 27.3812 67.7156 26.6517C67.8356 26.3062 67.9671 26.0727 68.0731 25.9507C68.1796 25.8287 68.2266 25.8317 68.2391 25.8337Z" fill="#2E3436"/>
<path d="M37.752 55.407C47.1985 57.273 52.0065 55.5205 54.778 53.371C54.043 52.409 52.742 51.335 52.742 51.335C52.742 51.335 56.023 52.2395 57.2105 53.7665C58.342 55.237 57.6625 56.199 57.3235 58.0655C56.6445 56.3685 55.4005 55.746 55.2305 55.0675C52.742 58.631 46.463 58.4615 37.752 55.407Z" fill="url(#paint3_linear_754_6293)"/>
<path opacity="0.185" d="M67.7873 28.8867L67.2633 29.7492C66.4863 31.0262 65.3168 32.5292 63.5883 34.0367C63.5876 34.0367 63.5868 34.0374 63.5858 34.0387C59.9633 37.0457 53.8698 39.7957 43.7983 40.0212H43.7963C37.9513 40.1882 34.2523 37.3637 31.9648 34.8527L31.4918 34.3337L31.3018 41.3602L31.3153 41.4037C31.4843 41.9657 31.8583 43.2222 31.2078 45.0137C30.5158 46.8767 28.3268 48.9387 24.4143 50.4482L24.1328 50.5567L24.2593 50.8302C24.5978 51.5642 24.9718 52.3587 26.0693 53.4002L26.0723 53.4027L26.0748 53.4057C27.5123 54.8427 29.5633 56.3787 31.9553 57.7457C36.7418 60.4807 42.9408 62.6457 48.7763 62.7602C54.6103 62.8742 59.9348 60.9632 63.6088 55.6237L63.6098 55.6217L63.6118 55.6197C66.8893 50.6747 68.7518 42.4122 67.7868 29.8747L67.7873 28.8867ZM67.2433 30.7432C68.0468 42.7027 66.2343 50.6382 63.1398 55.3072C59.5738 60.4857 54.4913 62.3062 48.7878 62.1947C43.0848 62.0822 36.9513 59.9482 32.2363 57.2537C29.8793 55.9067 27.8593 54.3907 26.4693 53.0007L26.4668 52.9977L26.4638 52.9957C25.5348 52.1157 25.2063 51.4872 24.9033 50.8427C28.7173 49.3087 30.9798 47.2507 31.7383 45.2102L31.7393 45.2092V45.2082C32.4293 43.3097 32.0463 41.9007 31.8693 41.3062L32.0208 35.6832C34.4043 38.1437 38.1258 40.7487 43.8128 40.5862C53.9853 40.3587 60.2208 37.5687 63.9528 34.4692L63.9558 34.4672L63.9578 34.4652C65.2129 33.3753 66.3173 32.1237 67.2433 30.7432Z" fill="url(#paint4_linear_754_6293)"/>
<path d="M40.5237 43.2453C40.5237 46.4137 37.9787 48.9587 34.8107 48.9587C34.0598 48.9609 33.3159 48.8146 32.6217 48.5283C31.9276 48.2419 31.2969 47.8211 30.7659 47.2901C30.235 46.7591 29.8143 46.1284 29.528 45.4342C29.2417 44.7401 29.0954 43.9961 29.0977 43.2453C29.0956 42.4944 29.2419 41.7506 29.5283 41.0565C29.8146 40.3624 30.2354 39.7318 30.7663 39.2008C31.2972 38.6699 31.9278 38.2492 32.6219 37.9628C33.316 37.6765 34.0598 37.5301 34.8107 37.5322C37.9782 37.5322 40.5237 40.1343 40.5237 43.2453Z" fill="url(#paint5_radial_754_6293)"/>
<path d="M34.811 37.3106C34.0312 37.309 33.2588 37.4614 32.5381 37.759C31.8174 38.0567 31.1626 38.4937 30.6111 39.045C30.0597 39.5963 29.6226 40.2511 29.3248 40.9718C29.0271 41.6924 28.8745 42.4648 28.876 43.2446C28.876 46.5311 31.524 49.1796 34.811 49.1796C35.5907 49.181 36.3631 49.0285 37.0837 48.7307C37.8043 48.4329 38.4591 47.9958 39.0104 47.4444C39.5617 46.893 39.9986 46.2381 40.2962 45.5174C40.5938 44.7967 40.7461 44.0243 40.7445 43.2446C40.7445 40.0131 38.0995 37.3106 34.811 37.3106ZM34.811 37.7531C37.857 37.7531 40.3025 40.2546 40.3025 43.2446C40.3053 43.9665 40.1652 44.6819 39.8903 45.3494C39.6153 46.017 39.2109 46.6235 38.7004 47.134C38.1899 47.6445 37.5834 48.0489 36.9159 48.3238C36.2483 48.5988 35.5329 48.7389 34.811 48.7361C34.089 48.739 33.3736 48.5989 32.706 48.324C32.0384 48.049 31.4318 47.6447 30.9212 47.1342C30.4107 46.6236 30.0063 46.0171 29.7313 45.3495C29.4563 44.682 29.3161 43.9666 29.319 43.2446C29.3161 42.5226 29.4563 41.8072 29.7313 41.1396C30.0063 40.472 30.4107 39.8655 30.9212 39.355C31.4318 38.8445 32.0384 38.4401 32.706 38.1651C33.3736 37.8902 34.089 37.7501 34.811 37.7531Z" fill="#888A85"/>
<path d="M29.2105 45.3955C31.982 49.242 31.982 53.8805 29.267 55.8605C26.552 57.84 22.1395 56.3125 19.3675 52.4665C16.5965 48.6195 16.5965 43.9815 19.3115 42.0015C22.0265 40.0785 26.4385 41.606 29.2105 45.3955Z" fill="url(#paint6_radial_754_6293)"/>
<path d="M21.5871 40.9063C20.7036 40.9788 19.8711 41.2583 19.1486 41.7703L19.1466 41.7713L19.1451 41.7723C17.7026 42.8243 16.9926 44.5773 17.0001 46.5338C17.0076 48.4903 17.7211 50.6638 19.1381 52.6313C20.5551 54.5978 22.3931 55.9778 24.2466 56.6153C26.1001 57.2523 27.9896 57.1413 29.4336 56.0878C30.8761 55.0363 31.5866 53.2828 31.5796 51.3263C31.5721 49.4033 30.8641 47.2733 29.4936 45.3328V45.3028L29.4401 45.2303L29.4391 45.2278C28.0216 43.2903 26.1841 41.9248 24.3316 41.2878C23.4051 40.9693 22.4711 40.8338 21.5871 40.9063ZM21.6401 41.4678C22.4336 41.4038 23.2851 41.5263 24.1481 41.8228C25.8731 42.4163 27.6271 43.7093 28.9811 45.5603L28.9821 45.5613C30.3356 47.4403 31.0061 49.5093 31.0131 51.3283C31.0196 53.1483 30.3731 54.7033 29.1001 55.6313C27.8301 56.5578 26.1551 56.6728 24.4311 56.0798C22.7066 55.4868 20.9516 54.1798 19.5971 52.2998C18.2426 50.4198 17.5721 48.3513 17.5651 46.5318C17.5581 44.7143 18.2051 43.1603 19.4751 42.2318L19.4766 42.2308C20.1111 41.7823 20.8471 41.5318 21.6401 41.4678Z" fill="black"/>
<path d="M38.9398 44.0944C38.9398 45.6214 37.6953 46.8089 36.2248 46.8089C34.6973 46.8089 33.5098 45.5644 33.5098 44.0939C33.5098 42.6234 34.7543 41.3789 36.2248 41.3789C37.6953 41.3789 38.9398 42.5669 38.9398 44.0944Z" fill="#2E3436"/>
<path d="M36.2247 41.0479C34.5672 41.0479 33.1777 42.4364 33.1777 44.0944C33.1777 45.7434 34.5177 47.1414 36.2257 47.1414C37.8747 47.1414 39.2722 45.8019 39.2722 44.0944C39.2722 42.3874 37.8742 41.0479 36.2247 41.0479ZM36.2247 41.7119C37.5167 41.7119 38.6082 42.7479 38.6082 44.0944C38.6086 44.4074 38.5473 44.7174 38.4277 45.0066C38.3081 45.2959 38.1326 45.5587 37.9113 45.7801C37.69 46.0014 37.4272 46.177 37.138 46.2966C36.8487 46.4163 36.5387 46.4777 36.2257 46.4774C35.9126 46.4779 35.6024 46.4166 35.313 46.297C35.0236 46.1775 34.7606 46.002 34.5392 45.7806C34.3177 45.5592 34.1421 45.2963 34.0224 45.007C33.9027 44.7176 33.8413 44.4075 33.8417 44.0944C33.8417 42.8109 34.9417 41.7119 36.2247 41.7119Z" fill="black"/>
<path opacity="0.281" d="M21.3672 42.4276C20.7372 42.4846 20.1797 42.6886 19.7012 43.0191H19.6722L19.5972 43.0741C19.5972 43.0741 19.5972 43.0756 19.5962 43.0756C18.6612 43.7631 18.1217 45.0006 18.1812 46.6486V46.6496C18.2392 48.2376 18.8247 50.1561 20.1617 51.9011C21.4407 53.5871 23.1177 54.7501 24.6592 55.2241C26.1832 55.6936 27.4877 55.5821 28.4752 54.8411C29.4717 54.0946 29.9467 52.8036 29.9467 51.2206C29.9467 49.6166 29.3022 47.7026 28.0227 46.0156C26.7462 44.3331 25.1237 43.1661 23.5812 42.6916H23.5782C22.7877 42.4576 22.0407 42.3666 21.3672 42.4276ZM21.4282 42.9886C22.0132 42.9371 22.6802 43.0156 23.4157 43.2336C24.8137 43.6636 26.3587 44.7591 27.5712 46.3576C28.7807 47.9516 29.3807 49.7706 29.3807 51.2206C29.3807 52.6916 28.9507 53.7776 28.1357 54.3886C27.3142 55.0046 26.2427 55.1196 24.8257 54.6836C23.4247 54.2526 21.8222 53.1541 20.6122 51.5591V51.5581H20.6112C19.3472 49.9096 18.8002 48.0946 18.7462 46.6296C18.6917 45.1126 19.1712 44.0911 19.9297 43.5331L19.9347 43.5291C20.3412 43.2241 20.8432 43.0406 21.4282 42.9886Z" fill="url(#paint7_linear_754_6293)"/>
<path d="M23.8935 45.8478C23.8935 47.4883 22.7625 48.7888 21.405 48.7888C20.0475 48.7888 18.916 47.4888 18.916 45.8478C18.916 44.2078 20.0475 42.9063 21.405 42.9063C22.819 42.9063 23.8935 44.2073 23.8935 45.8478ZM37.0165 42.8503C37.0186 43.1034 36.9704 43.3544 36.8745 43.5886C36.7787 43.8229 36.6371 44.0357 36.4582 44.2147C36.2793 44.3937 36.0665 44.5352 35.8323 44.6311C35.5981 44.7271 35.3471 44.7754 35.094 44.7733C34.8408 44.7755 34.5898 44.7272 34.3554 44.6313C34.1211 44.5354 33.9082 44.3939 33.7291 44.2149C33.5501 44.0359 33.4084 43.8231 33.3124 43.5888C33.2164 43.3545 33.168 43.1035 33.17 42.8503C33.1679 42.5971 33.2162 42.346 33.3121 42.1116C33.4081 41.8772 33.5497 41.6643 33.7288 41.4853C33.9079 41.3062 34.1209 41.1646 34.3553 41.0688C34.5896 40.9729 34.8408 40.9246 35.094 40.9268C35.3472 40.9247 35.5982 40.973 35.8325 41.0689C36.0669 41.1648 36.2797 41.3064 36.4587 41.4855C36.6377 41.6645 36.7793 41.8774 36.8751 42.1118C36.971 42.3461 37.0187 42.5972 37.0165 42.8503Z" fill="white"/>
<path d="M53.308 43.8684C53.308 47.5449 50.3105 50.5424 46.633 50.5424C42.957 50.5424 39.959 47.5449 39.959 43.8684C39.959 40.1919 42.9 37.1934 46.5765 37.1934C50.2535 37.1934 53.308 40.1919 53.308 43.8684Z" fill="url(#paint8_radial_754_6293)"/>
<path d="M46.5755 37.0054C42.7965 37.0054 39.7695 40.0904 39.7695 43.8679C39.7695 47.6469 42.853 50.7314 46.6325 50.7314C50.412 50.7314 53.496 47.6469 53.496 43.8679C53.496 40.0869 50.355 37.0054 46.5755 37.0054ZM46.5755 37.3819C50.15 37.3819 53.118 40.2959 53.118 43.8679C53.118 47.4419 50.2065 50.3534 46.6325 50.3534C43.0585 50.3534 40.1465 47.4419 40.1465 43.8679C40.1465 40.2919 43.0015 37.3819 46.5755 37.3819Z" fill="#888A85"/>
<path d="M51.384 44.8861C51.384 46.6391 49.97 48.1096 48.1605 48.1096C46.4065 48.1096 44.9355 46.6956 44.9355 44.8861C44.9355 43.0751 46.3505 41.6611 48.16 41.6611C49.9135 41.6611 51.384 43.0756 51.384 44.8861Z" fill="#2E3436"/>
<path d="M48.1598 41.3789C46.2028 41.3789 44.6533 42.9284 44.6533 44.8864C44.6533 46.8494 46.2548 48.3929 48.1608 48.3929C50.1233 48.3929 51.6668 46.7914 51.6668 44.8864V44.8854C51.6668 42.9219 50.0653 41.3789 48.1598 41.3789ZM48.1598 41.9439C49.7613 41.9439 51.1018 43.2284 51.1018 44.8854V44.8864C51.1018 46.4869 49.8168 47.8274 48.1608 47.8274C46.5588 47.8274 45.2183 46.5424 45.2183 44.8864C45.2183 43.2229 46.4973 41.9439 48.1598 41.9439Z" fill="black"/>
<path d="M49.1786 43.3593C49.1786 44.6038 48.1606 45.5648 46.9726 45.5648C45.7846 45.5648 44.7666 44.5468 44.7666 43.3593C44.7666 42.1143 45.7846 41.1533 46.9721 41.1533C48.1601 41.1533 49.1786 42.1713 49.1786 43.3593Z" fill="white"/>
<path d="M66.9833 63.8204L68.2818 61.2314C63.4498 57.6929 54.5668 55.1334 54.5668 55.1334C53.0343 54.4104 52.5343 55.8044 53.6163 56.7084C53.5943 56.7149 61.1973 62.1699 66.9833 63.8204Z" fill="url(#paint9_linear_754_6293)"/>
<path d="M52.8187 56.0627C52.9132 56.3502 53.1122 56.6332 53.3912 56.8797V56.8807C53.3912 56.8807 53.4167 56.9107 53.4222 56.9157C53.4292 56.9222 53.4312 56.9232 53.4342 56.9257L53.4412 56.9322L53.4642 56.9502L53.5317 57.0002C53.5897 57.0425 53.6735 57.1025 53.7832 57.1802C54.0022 57.3342 54.3212 57.5552 54.7232 57.8252C55.7895 58.5416 56.874 59.2305 57.9757 59.8912C60.6072 61.4682 63.9642 63.2542 66.9047 64.0932L67.1302 64.1572L67.2352 63.9477L68.6412 61.1447L68.4482 61.0037C63.5357 57.4052 54.6447 54.8617 54.6447 54.8617L54.6872 54.8777C54.2672 54.6792 53.8922 54.6122 53.5702 54.6687C53.2482 54.7252 52.9857 54.9227 52.8567 55.1867C52.7277 55.4512 52.7182 55.7577 52.8187 56.0627ZM53.3657 55.8967C53.3032 55.7082 53.3122 55.5417 53.3647 55.4352C53.4167 55.3282 53.4992 55.2557 53.6677 55.2262C53.8367 55.1962 54.0992 55.2262 54.4452 55.3897L54.4657 55.3997L54.4872 55.4057C54.4872 55.4057 63.1222 57.9197 67.9147 61.3312L66.8407 63.4722C64.0432 62.6352 60.8127 60.9312 58.2667 59.4052C57.1735 58.7496 56.0973 58.066 55.0392 57.3552C54.644 57.0897 54.2525 56.8189 53.8647 56.5427L53.8067 56.4992L53.8037 56.4972L53.7967 56.4917C53.5617 56.2952 53.4282 56.0847 53.3657 55.8967Z" fill="#673907"/>
<path d="M73.1798 66.2136L73.8743 64.6661L68.4933 61.2176L68.0728 61.1736L67.8973 60.5781C67.1083 61.0741 65.9898 62.8906 66.2888 63.9056L66.8713 63.6856L67.1803 64.0021L73.1798 66.2136Z" fill="url(#paint10_linear_754_6293)"/>
<path d="M66.1025 64.2781L66.7975 64.0161L67.022 64.2461L73.3285 66.5706L73.437 66.3296L74.2315 64.5597L68.5885 60.9431L68.29 60.9116L68.0625 60.1396L67.7455 60.3382C67.2705 60.6372 66.7935 61.2376 66.4345 61.9151C66.075 62.5926 65.827 63.3426 66.0165 63.9856L66.1025 64.2781ZM66.571 63.4966C66.576 63.1196 66.684 62.6521 66.934 62.1801C67.1496 61.7785 67.4262 61.4128 67.754 61.0961L67.854 61.4352L68.3965 61.4916L73.5155 64.7726L73.029 65.8566L67.3375 63.7586L66.944 63.3556L66.571 63.4966Z" fill="#888A85"/>
<path d="M69.4196 63.177C69.4049 63.2111 69.397 63.2478 69.3965 63.285C69.396 63.3222 69.4028 63.3591 69.4165 63.3937C69.4303 63.4282 69.4507 63.4597 69.4766 63.4864C69.5025 63.513 69.5335 63.5343 69.5676 63.549L73.1376 65.086C73.1718 65.1007 73.2085 65.1086 73.2456 65.1091C73.2828 65.1096 73.3197 65.1028 73.3543 65.0891C73.3888 65.0753 73.4203 65.0549 73.447 65.029C73.4736 65.0031 73.4949 64.9721 73.5096 64.938C73.5243 64.9038 73.5322 64.8671 73.5327 64.83C73.5332 64.7928 73.5264 64.7559 73.5127 64.7213C73.4989 64.6868 73.4785 64.6553 73.4526 64.6286C73.4267 64.602 73.3958 64.5807 73.3616 64.566L69.7916 63.029C69.7575 63.0143 69.7208 63.0064 69.6836 63.0059C69.6464 63.0054 69.6095 63.0122 69.5749 63.0259C69.5404 63.0396 69.5089 63.0601 69.4822 63.086C69.4556 63.1119 69.4343 63.1428 69.4196 63.177Z" fill="white"/>
<path d="M80.9995 72.7313C79.321 67.0403 78.7235 62.4928 74.3355 62.8993C70.7875 63.2263 70.552 68.2833 74.2065 69.6993C77.725 71.0593 80.9995 72.7313 80.9995 72.7313Z" fill="url(#paint11_radial_754_6293)"/>
<path opacity="0.528" d="M74.5962 63.374C74.9705 63.2665 75.3721 63.3106 75.7141 63.4968C76.0562 63.683 76.3112 63.9963 76.4242 64.369C76.5318 64.7434 76.4878 65.1451 76.3016 65.4873C76.1154 65.8294 75.802 66.0846 75.4292 66.1975C75.0548 66.3051 74.6531 66.2611 74.3109 66.0749C73.9687 65.8887 73.7136 65.5753 73.6007 65.2025C73.493 64.8281 73.5371 64.4263 73.7234 64.0841C73.9097 63.7419 74.2232 63.4868 74.5962 63.374Z" fill="white"/>
<path d="M68.1775 61.2864C68.302 61.2486 68.4328 61.236 68.5623 61.2492C68.6918 61.2625 68.8173 61.3013 68.9317 61.3635C69.046 61.4257 69.1468 61.5101 69.2282 61.6116C69.3097 61.7131 69.3701 61.8298 69.406 61.955C69.4438 62.0795 69.4564 62.2104 69.4431 62.3399C69.4299 62.4694 69.391 62.595 69.3287 62.7093C69.2665 62.8236 69.1821 62.9244 69.0805 63.0058C68.9789 63.0872 68.8621 63.1476 68.737 63.1834C68.6124 63.2212 68.4816 63.2337 68.3522 63.2204C68.2227 63.2071 68.0972 63.1682 67.9829 63.106C67.8687 63.0437 67.7679 62.9594 67.6865 62.8578C67.6052 62.7563 67.5448 62.6395 67.509 62.5144C67.4712 62.3899 67.4586 62.2592 67.4719 62.1297C67.4852 62.0003 67.5241 61.8748 67.5863 61.7606C67.6485 61.6463 67.7328 61.5455 67.8343 61.4641C67.9358 61.3828 68.0524 61.3223 68.1775 61.2864Z" fill="white"/>
<path opacity="0.428" d="M78.8928 69.3243C78.8928 69.3243 78.3383 67.2818 77.1383 66.2208C76.7148 65.8423 77.2443 65.2783 77.6558 65.7808C78.5143 66.8223 78.8928 69.3243 78.8928 69.3243Z" fill="url(#paint12_linear_754_6293)"/>
<path d="M47.9336 57.7261C50.0261 57.9526 51.9491 57.3301 52.6846 57.0476C52.7981 56.2551 53.4201 54.7851 55.5696 54.6721L54.8346 53.3711C54.8346 53.3711 52.0626 55.2371 49.1211 55.8031L47.9336 57.7261Z" fill="url(#paint13_linear_754_6293)"/>
<defs>
<linearGradient id="paint0_linear_754_6293" x1="8.19" y1="9.36" x2="86.58" y2="88.335" gradientUnits="userSpaceOnUse">
<stop stop-color="white"/>
<stop offset="1" stop-color="#EAEAEA"/>
</linearGradient>
<radialGradient id="paint1_radial_754_6293" cx="0" cy="0" r="1" gradientUnits="userSpaceOnUse" gradientTransform="translate(48.1148 58.0275) scale(25.5434 11.1114)">
<stop/>
<stop offset="1" stop-opacity="0"/>
</radialGradient>
<radialGradient id="paint2_radial_754_6293" cx="0" cy="0" r="1" gradientUnits="userSpaceOnUse" gradientTransform="translate(38.9534 44.5297) scale(47.7187 34.9073)">
<stop stop-color="#857C63"/>
<stop offset="1" stop-color="#221F19"/>
</radialGradient>
<linearGradient id="paint3_linear_754_6293" x1="55.9438" y1="54.5538" x2="40.3558" y2="57.6468" gradientUnits="userSpaceOnUse">
<stop/>
<stop offset="1" stop-opacity="0"/>
</linearGradient>
<linearGradient id="paint4_linear_754_6293" x1="42.3105" y1="36.063" x2="75.407" y2="73.6326" gradientUnits="userSpaceOnUse">
<stop stop-color="white"/>
<stop offset="1" stop-color="white" stop-opacity="0"/>
</linearGradient>
<radialGradient id="paint5_radial_754_6293" cx="0" cy="0" r="1" gradientUnits="userSpaceOnUse" gradientTransform="translate(34.8849 39.2539) scale(8.29015)">
<stop stop-color="white"/>
<stop offset="1" stop-color="#B9B9B0"/>
</radialGradient>
<radialGradient id="paint6_radial_754_6293" cx="0" cy="0" r="1" gradientUnits="userSpaceOnUse" gradientTransform="translate(21.9088 46.046) rotate(-29.9923) scale(6.22232 7.26728)">
<stop stop-color="#5B676B"/>
<stop offset="1" stop-color="#141718"/>
</radialGradient>
<linearGradient id="paint7_linear_754_6293" x1="20.7881" y1="44.3973" x2="26.9915" y2="53.3354" gradientUnits="userSpaceOnUse">
<stop stop-color="white"/>
<stop offset="1" stop-color="white" stop-opacity="0"/>
</linearGradient>
<radialGradient id="paint8_radial_754_6293" cx="0" cy="0" r="1" gradientUnits="userSpaceOnUse" gradientTransform="translate(46.6358 39.1751) scale(9.73176)">
<stop stop-color="white"/>
<stop offset="1" stop-color="#B9B9B0"/>
</radialGradient>
<linearGradient id="paint9_linear_754_6293" x1="61.327" y1="57.0857" x2="59.1834" y2="58.9501" gradientUnits="userSpaceOnUse">
<stop stop-color="#6E3D09"/>
<stop offset="0.242" stop-color="#EA8113"/>
<stop offset="0.621" stop-color="#5C3307"/>
<stop offset="1" stop-color="#E07C12"/>
</linearGradient>
<linearGradient id="paint10_linear_754_6293" x1="69.6189" y1="64.9098" x2="70.4784" y2="64.1144" gradientUnits="userSpaceOnUse">
<stop stop-color="#BDBDBD"/>
<stop offset="0.333" stop-color="#E2E2E2"/>
<stop offset="0.667" stop-color="#A3A3A3"/>
<stop offset="1" stop-color="#DDDDDD"/>
</linearGradient>
<radialGradient id="paint11_radial_754_6293" cx="0" cy="0" r="1" gradientUnits="userSpaceOnUse" gradientTransform="translate(73.4455 66.6176) rotate(0.410701) scale(2.69483 2.75053)">
<stop stop-color="#696969"/>
<stop offset="1"/>
</radialGradient>
<linearGradient id="paint12_linear_754_6293" x1="77.076" y1="65.4878" x2="76.5323" y2="64.1948" gradientUnits="userSpaceOnUse">
<stop stop-color="white"/>
<stop offset="1" stop-color="white" stop-opacity="0"/>
</linearGradient>
<linearGradient id="paint13_linear_754_6293" x1="52.2646" y1="55.6398" x2="49.6977" y2="56.258" gradientUnits="userSpaceOnUse">
<stop/>
<stop offset="1" stop-opacity="0"/>
</linearGradient>
</defs>
</svg>
