<svg width="98" height="98" viewBox="0 0 98 98" fill="none" xmlns="http://www.w3.org/2000/svg">
<rect x="0.585" y="0.585" width="95.94" height="95.94" rx="19.305" fill="url(#paint0_linear_315_2576)" stroke="#DEDEDE" stroke-width="1.17"/>
<path d="M49 20.5C45.3886 20.5 41.8127 21.2113 38.4762 22.5933C35.1398 23.9753 32.1082 26.001 29.5546 28.5546C24.3973 33.7118 21.5 40.7065 21.5 48C21.5 60.155 29.3925 70.4675 40.31 74.125C41.685 74.345 42.125 73.4925 42.125 72.75V68.1025C34.5075 69.7525 32.885 64.4175 32.885 64.4175C31.62 61.2275 29.8325 60.375 29.8325 60.375C27.33 58.67 30.025 58.725 30.025 58.725C32.775 58.9175 34.2325 61.5575 34.2325 61.5575C36.625 65.7375 40.6675 64.5 42.235 63.84C42.4825 62.0525 43.1975 60.8425 43.9675 60.155C37.8625 59.4675 31.455 57.1025 31.455 46.625C31.455 43.5725 32.5 41.125 34.2875 39.1725C34.0125 38.485 33.05 35.625 34.5625 31.9125C34.5625 31.9125 36.8725 31.17 42.125 34.7175C44.2975 34.1125 46.6625 33.81 49 33.81C51.3375 33.81 53.7025 34.1125 55.875 34.7175C61.1275 31.17 63.4375 31.9125 63.4375 31.9125C64.95 35.625 63.9875 38.485 63.7125 39.1725C65.5 41.125 66.545 43.5725 66.545 46.625C66.545 57.13 60.11 59.44 53.9775 60.1275C54.9675 60.98 55.875 62.6575 55.875 65.215V72.75C55.875 73.4925 56.315 74.3725 57.7175 74.125C68.635 70.44 76.5 60.155 76.5 48C76.5 44.3886 75.7887 40.8127 74.4067 37.4762C73.0247 34.1398 70.999 31.1082 68.4454 28.5546C65.8918 26.001 62.8602 23.9753 59.5238 22.5933C56.1873 21.2113 52.6114 20.5 49 20.5Z" fill="white"/>
<defs>
<linearGradient id="paint0_linear_315_2576" x1="8.19" y1="9.36" x2="86.58" y2="88.335" gradientUnits="userSpaceOnUse">
<stop/>
<stop offset="1" stop-color="#1D1D1D"/>
</linearGradient>
</defs>
</svg>
