<svg width="98" height="98" viewBox="0 0 98 98" fill="none" xmlns="http://www.w3.org/2000/svg">
<rect x="0.585" y="0.585" width="95.94" height="95.94" rx="19.305" fill="url(#paint0_linear_393_2735)" stroke="#DEDEDE" stroke-width="1.17"/>
<g clip-path="url(#clip0_393_2735)">
<path d="M33.5 69.7928V48.2684L26.9097 42.1614L21 38.7725V65.9943C21 68.0961 22.6812 69.7928 24.7501 69.7928H33.5Z" fill="#4285F4"/>
<path d="M63.5 69.7936H72.2499C74.3251 69.7936 76 68.0905 76 65.9951V38.7734L69.3064 42.6551L63.5 48.2691V69.7936Z" fill="#34A853"/>
<path d="M33.5003 48.2692L32.6035 39.859L33.5003 31.8096L48.5002 43.2048L63.5002 31.8096L64.5033 39.4244L63.5002 48.2692L48.5002 59.6645L33.5003 48.2692Z" fill="#EA4335"/>
<path d="M63.5 31.8091V48.2687L76 38.7728V33.7082C76 29.011 70.7063 26.3332 67.0002 29.1503L63.5 31.8091Z" fill="#FBBC04"/>
<path d="M21 38.7729L26.749 43.1405L33.5 48.2688V31.8092L29.9998 29.1504C26.2873 26.3331 21 29.0111 21 33.7081V38.7729Z" fill="#C5221F"/>
</g>
<defs>
<linearGradient id="paint0_linear_393_2735" x1="8.19" y1="9.36" x2="86.58" y2="88.335" gradientUnits="userSpaceOnUse">
<stop stop-color="white"/>
<stop offset="1" stop-color="#EAEAEA"/>
</linearGradient>
<clipPath id="clip0_393_2735">
<rect width="55" height="42" fill="white" transform="translate(21 28)"/>
</clipPath>
</defs>
</svg>
