<svg width="98" height="98" viewBox="0 0 98 98" fill="none" xmlns="http://www.w3.org/2000/svg">
<rect x="0.585" y="0.585" width="95.94" height="95.94" rx="19.305" fill="url(#paint0_linear_620_7754)" stroke="#DEDEDE" stroke-width="1.17"/>
<g clip-path="url(#clip0_620_7754)">
<path d="M39.7529 62.4834C41.3698 64.5475 42.8415 66.7216 44.1573 68.9901C45.2807 71.1236 45.749 72.5703 46.57 75.141C47.0735 76.5613 47.5286 76.9852 48.5069 76.9852C49.573 76.9852 50.0567 76.264 50.4304 75.1488C51.2064 72.7211 51.8154 70.8683 52.776 69.1177C54.6611 65.7378 57.0036 62.7344 59.3052 59.8479C59.9283 59.031 63.9569 54.2716 65.7705 50.5162C65.7705 50.5162 67.9996 46.391 67.9996 40.6297C67.9996 35.2406 65.8013 31.5029 65.8013 31.5029L59.4722 33.2006L55.6285 43.3403L54.6776 44.7385L54.4875 44.9918L54.2346 45.3088L53.7906 45.8153L53.1563 46.4505L49.7336 49.2435L41.1764 54.1922L39.7529 62.4834Z" fill="#34A853"/>
<path d="M30.9209 49.8227C33.0094 54.6007 37.0367 58.8009 39.7616 62.4868L54.2344 45.3154C54.2344 45.3154 52.1954 47.9863 48.4968 47.9863C44.377 47.9863 41.0487 44.6912 41.0487 40.5362C41.0487 37.6869 42.7601 35.7295 42.7601 35.7295L32.9356 38.3662L30.9209 49.8227Z" fill="#FBBC04"/>
<path d="M54.396 21.8828C59.2028 23.4351 63.3169 26.6939 65.8055 31.4994L54.2388 45.3053C54.2388 45.3053 55.9502 43.3125 55.9502 40.4809C55.9502 36.2292 52.3758 33.0529 48.5143 33.0529C44.8628 33.0529 42.7656 35.7194 42.7656 35.7194V27.0218L54.396 21.8828Z" fill="#4285F4"/>
<path d="M33.5723 27.9832C36.4432 24.5428 41.4949 21 48.4594 21C51.8384 21 54.3841 21.8885 54.3841 21.8885L42.7548 35.7272H34.5153L33.5723 27.9832Z" fill="#1A73E8"/>
<path d="M30.9214 49.8229C30.9214 49.8229 29 46.0543 29 40.5947C29 35.4346 31.0027 30.9241 33.5726 27.9834L42.7617 35.7286L30.9214 49.8229Z" fill="#EA4335"/>
</g>
<defs>
<linearGradient id="paint0_linear_620_7754" x1="8.19" y1="9.36" x2="86.58" y2="88.335" gradientUnits="userSpaceOnUse">
<stop stop-color="white"/>
<stop offset="1" stop-color="#EAEAEA"/>
</linearGradient>
<clipPath id="clip0_620_7754">
<rect width="39" height="56" fill="white" transform="translate(29 21)"/>
</clipPath>
</defs>
</svg>
