<svg width="98" height="98" viewBox="0 0 98 98" fill="none" xmlns="http://www.w3.org/2000/svg">
<rect x="0.585" y="0.585" width="95.94" height="95.94" rx="19.305" fill="url(#paint0_linear_393_2774)" stroke="#DEDEDE" stroke-width="1.17"/>
<g clip-path="url(#clip0_393_2774)">
<path d="M61.921 35.0791H35.0791V61.921H61.921V35.0791Z" fill="white"/>
<path d="M61.9206 74L73.9997 61.921L67.9602 60.8906L61.9206 61.921L60.8184 67.4453L61.9206 74Z" fill="#EA4335"/>
<path d="M23 61.921V69.9736C23 72.1983 24.8017 74 27.0262 74H35.079L36.3192 67.9605L35.079 61.921L28.4982 60.8906L23 61.921Z" fill="#188038"/>
<path d="M73.9997 35.079V27.0262C73.9997 24.8017 72.1979 23 69.9735 23H61.9206C61.1859 25.9955 60.8184 28.1998 60.8184 29.6133C60.8184 31.0265 61.1859 32.8486 61.9206 35.079C64.5922 35.844 66.6053 36.2265 67.9602 36.2265C69.315 36.2265 71.3281 35.844 73.9997 35.079Z" fill="#1967D2"/>
<path d="M73.9999 35.0791H61.9209V61.921H73.9999V35.0791Z" fill="#FBBC04"/>
<path d="M61.921 61.9209H35.0791V73.9999H61.921V61.9209Z" fill="#34A853"/>
<path d="M61.921 23H27.0264C24.8017 23 23 24.8017 23 27.0262V61.921H35.079V35.079H61.921V23Z" fill="#4285F4"/>
<path d="M40.5849 55.9022C39.5816 55.2244 38.8869 54.2347 38.5078 52.9258L40.8365 51.9664C41.0477 52.7716 41.4168 53.3958 41.9437 53.8386C42.4671 54.2815 43.1046 54.4997 43.8495 54.4997C44.6111 54.4997 45.2653 54.2682 45.8122 53.805C46.3592 53.342 46.6343 52.7515 46.6343 52.0369C46.6343 51.3054 46.3457 50.7081 45.7687 50.2451C45.1916 49.7822 44.4668 49.5507 43.6012 49.5507H42.2557V47.2457H43.4636C44.2085 47.2457 44.8358 47.0443 45.3458 46.6415C45.8558 46.239 46.1108 45.6886 46.1108 44.9874C46.1108 44.3634 45.8827 43.8668 45.4265 43.4944C44.9703 43.1219 44.3929 42.934 43.6917 42.934C43.0072 42.934 42.4637 43.1153 42.0611 43.4809C41.6587 43.8476 41.3561 44.3106 41.1819 44.8264L38.877 43.8667C39.1822 43.0011 39.7426 42.2361 40.5645 41.5751C41.3867 40.9141 42.4368 40.582 43.7118 40.582C44.6547 40.582 45.5036 40.7633 46.2552 41.1289C47.0067 41.4947 47.5972 42.0013 48.0233 42.6455C48.4496 43.293 48.6608 44.0178 48.6608 44.823C48.6608 45.645 48.463 46.3397 48.0671 46.91C47.6711 47.4804 47.1846 47.9165 46.6074 48.2219V48.3593C47.3527 48.6666 48 49.1713 48.4797 49.819C48.9662 50.4732 49.2112 51.255 49.2112 52.1678C49.2112 53.0802 48.9795 53.8956 48.5166 54.6102C48.0536 55.325 47.4129 55.8886 46.6007 56.298C45.7855 56.7074 44.8695 56.9156 43.8529 56.9156C42.6751 56.9188 41.5881 56.5799 40.5849 55.9022ZM54.888 44.3465L52.3314 46.1952L51.053 44.256L55.6396 40.9476H57.3977V56.553H54.888V44.3465Z" fill="#4285F4"/>
</g>
<defs>
<linearGradient id="paint0_linear_393_2774" x1="8.19" y1="9.36" x2="86.58" y2="88.335" gradientUnits="userSpaceOnUse">
<stop stop-color="white"/>
<stop offset="1" stop-color="#EAEAEA"/>
</linearGradient>
<clipPath id="clip0_393_2774">
<rect width="51" height="51" fill="white" transform="translate(23 23)"/>
</clipPath>
</defs>
</svg>
