<svg width="98" height="98" viewBox="0 0 98 98" fill="none" xmlns="http://www.w3.org/2000/svg">
<rect x="0.585" y="0.585" width="95.94" height="95.94" rx="19.305" fill="url(#paint0_linear_610_5488)" stroke="#DEDEDE" stroke-width="1.17"/>
<g clip-path="url(#clip0_610_5488)">
<mask id="mask0_610_5488" style="mask-type:luminance" maskUnits="userSpaceOnUse" x="30" y="23" width="37" height="51">
<path d="M53.125 23H33.4688C31.5609 23 30 24.5648 30 26.4773V70.5227C30 72.4352 31.5609 74 33.4688 74H63.5312C65.4391 74 67 72.4352 67 70.5227V36.9091L53.125 23Z" fill="white"/>
</mask>
<g mask="url(#mask0_610_5488)">
<path d="M53.125 23H33.4688C31.5609 23 30 24.5648 30 26.4773V70.5227C30 72.4352 31.5609 74 33.4688 74H63.5312C65.4391 74 67 72.4352 67 70.5227V36.9091L58.9062 31.1136L53.125 23Z" fill="#4285F4"/>
</g>
<mask id="mask1_610_5488" style="mask-type:luminance" maskUnits="userSpaceOnUse" x="30" y="23" width="37" height="51">
<path d="M53.125 23H33.4688C31.5609 23 30 24.5648 30 26.4773V70.5227C30 72.4352 31.5609 74 33.4688 74H63.5312C65.4391 74 67 72.4352 67 70.5227V36.9091L53.125 23Z" fill="white"/>
</mask>
<g mask="url(#mask1_610_5488)">
<path d="M54.1396 35.8916L67 48.7807V36.9087L54.1396 35.8916Z" fill="url(#paint1_linear_610_5488)"/>
</g>
<mask id="mask2_610_5488" style="mask-type:luminance" maskUnits="userSpaceOnUse" x="30" y="23" width="37" height="51">
<path d="M53.125 23H33.4688C31.5609 23 30 24.5648 30 26.4773V70.5227C30 72.4352 31.5609 74 33.4688 74H63.5312C65.4391 74 67 72.4352 67 70.5227V36.9091L53.125 23Z" fill="white"/>
</mask>
<g mask="url(#mask2_610_5488)">
<path d="M39.25 60.0909H57.75V57.7727H39.25V60.0909ZM39.25 64.7273H53.125V62.4091H39.25V64.7273ZM39.25 48.5V50.8182H57.75V48.5H39.25ZM39.25 55.4545H57.75V53.1364H39.25V55.4545Z" fill="#F1F1F1"/>
</g>
<mask id="mask3_610_5488" style="mask-type:luminance" maskUnits="userSpaceOnUse" x="30" y="23" width="37" height="51">
<path d="M53.125 23H33.4688C31.5609 23 30 24.5648 30 26.4773V70.5227C30 72.4352 31.5609 74 33.4688 74H63.5312C65.4391 74 67 72.4352 67 70.5227V36.9091L53.125 23Z" fill="white"/>
</mask>
<g mask="url(#mask3_610_5488)">
<path d="M53.125 23V33.4318C53.125 35.353 54.6773 36.9091 56.5938 36.9091H67L53.125 23Z" fill="#A1C2FA"/>
</g>
<mask id="mask4_610_5488" style="mask-type:luminance" maskUnits="userSpaceOnUse" x="30" y="23" width="37" height="51">
<path d="M53.125 23H33.4688C31.5609 23 30 24.5648 30 26.4773V70.5227C30 72.4352 31.5609 74 33.4688 74H63.5312C65.4391 74 67 72.4352 67 70.5227V36.9091L53.125 23Z" fill="white"/>
</mask>
<g mask="url(#mask4_610_5488)">
<path d="M33.4688 23C31.5609 23 30 24.5648 30 26.4773V26.767C30 24.8545 31.5609 23.2898 33.4688 23.2898H53.125V23H33.4688Z" fill="white" fill-opacity="0.2"/>
</g>
<mask id="mask5_610_5488" style="mask-type:luminance" maskUnits="userSpaceOnUse" x="30" y="23" width="37" height="51">
<path d="M53.125 23H33.4688C31.5609 23 30 24.5648 30 26.4773V70.5227C30 72.4352 31.5609 74 33.4688 74H63.5312C65.4391 74 67 72.4352 67 70.5227V36.9091L53.125 23Z" fill="white"/>
</mask>
<g mask="url(#mask5_610_5488)">
<path d="M63.5312 73.7107H33.4688C31.5609 73.7107 30 72.1459 30 70.2334V70.5232C30 72.4357 31.5609 74.0004 33.4688 74.0004H63.5312C65.4391 74.0004 67 72.4357 67 70.5232V70.2334C67 72.1459 65.4391 73.7107 63.5312 73.7107Z" fill="#1A237E" fill-opacity="0.2"/>
</g>
<mask id="mask6_610_5488" style="mask-type:luminance" maskUnits="userSpaceOnUse" x="30" y="23" width="37" height="51">
<path d="M53.125 23H33.4688C31.5609 23 30 24.5648 30 26.4773V70.5227C30 72.4352 31.5609 74 33.4688 74H63.5312C65.4391 74 67 72.4352 67 70.5227V36.9091L53.125 23Z" fill="white"/>
</mask>
<g mask="url(#mask6_610_5488)">
<path d="M56.5938 36.9089C54.6773 36.9089 53.125 35.3528 53.125 33.4316V33.7214C53.125 35.6426 54.6773 37.1987 56.5938 37.1987H67V36.9089H56.5938Z" fill="#1A237E" fill-opacity="0.1"/>
</g>
<path d="M53.125 23H33.4688C31.5609 23 30 24.5648 30 26.4773V70.5227C30 72.4352 31.5609 74 33.4688 74H63.5312C65.4391 74 67 72.4352 67 70.5227V36.9091L53.125 23Z" fill="url(#paint2_radial_610_5488)"/>
</g>
<defs>
<linearGradient id="paint0_linear_610_5488" x1="8.19" y1="9.36" x2="86.58" y2="88.335" gradientUnits="userSpaceOnUse">
<stop stop-color="white"/>
<stop offset="1" stop-color="#EAEAEA"/>
</linearGradient>
<linearGradient id="paint1_linear_610_5488" x1="697.229" y1="146.559" x2="697.229" y2="1324.98" gradientUnits="userSpaceOnUse">
<stop stop-color="#1A237E" stop-opacity="0.2"/>
<stop offset="1" stop-color="#1A237E" stop-opacity="0.02"/>
</linearGradient>
<radialGradient id="paint2_radial_610_5488" cx="0" cy="0" r="1" gradientUnits="userSpaceOnUse" gradientTransform="translate(147.218 123.217) scale(5966.19 5946.35)">
<stop stop-color="white" stop-opacity="0.1"/>
<stop offset="1" stop-color="white" stop-opacity="0"/>
</radialGradient>
<clipPath id="clip0_610_5488">
<rect width="37" height="51" fill="white" transform="translate(30 23)"/>
</clipPath>
</defs>
</svg>
