<svg width="98" height="98" viewBox="0 0 98 98" fill="none" xmlns="http://www.w3.org/2000/svg">
<rect x="0.585" y="0.585" width="95.94" height="95.94" rx="19.305" fill="url(#paint0_linear_610_6327)" stroke="#DEDEDE" stroke-width="1.17"/>
<g clip-path="url(#clip0_610_6327)">
<mask id="mask0_610_6327" style="mask-type:luminance" maskUnits="userSpaceOnUse" x="29" y="22" width="39" height="53">
<path d="M53.209 22.7578H33.195C31.2524 22.7578 29.6631 24.3374 29.6631 26.2681V70.7314C29.6631 72.662 31.2524 74.2416 33.195 74.2416H63.8047C65.7472 74.2416 67.3366 72.662 67.3366 70.7314V36.7989L53.209 22.7578Z" fill="white"/>
</mask>
<g mask="url(#mask0_610_6327)">
<path d="M53.209 22.7578H33.195C31.2524 22.7578 29.6631 24.3374 29.6631 26.2681V70.7314C29.6631 72.662 31.2524 74.2416 33.195 74.2416H63.8047C65.7472 74.2416 67.3366 72.662 67.3366 70.7314V36.7989L59.0955 30.9484L53.209 22.7578Z" fill="#0F9D58"/>
</g>
<mask id="mask1_610_6327" style="mask-type:luminance" maskUnits="userSpaceOnUse" x="29" y="22" width="39" height="53">
<path d="M53.209 22.7578H33.195C31.2524 22.7578 29.6631 24.3374 29.6631 26.2681V70.7314C29.6631 72.662 31.2524 74.2416 33.195 74.2416H63.8047C65.7472 74.2416 67.3366 72.662 67.3366 70.7314V36.7989L53.209 22.7578Z" fill="white"/>
</mask>
<g mask="url(#mask1_610_6327)">
<path d="M39.0811 47.915V64.8813H57.9178V47.915H39.0811ZM47.3221 62.5411H41.4356V59.6159H47.3221V62.5411ZM47.3221 57.8608H41.4356V54.9356H47.3221V57.8608ZM47.3221 53.1804H41.4356V50.2552H47.3221V53.1804ZM55.5632 62.5411H49.6767V59.6159H55.5632V62.5411ZM55.5632 57.8608H49.6767V54.9356H55.5632V57.8608ZM55.5632 53.1804H49.6767V50.2552H55.5632V53.1804Z" fill="#F1F1F1"/>
</g>
<mask id="mask2_610_6327" style="mask-type:luminance" maskUnits="userSpaceOnUse" x="29" y="22" width="39" height="53">
<path d="M53.209 22.7578H33.195C31.2524 22.7578 29.6631 24.3374 29.6631 26.2681V70.7314C29.6631 72.662 31.2524 74.2416 33.195 74.2416H63.8047C65.7472 74.2416 67.3366 72.662 67.3366 70.7314V36.7989L53.209 22.7578Z" fill="white"/>
</mask>
<g mask="url(#mask2_610_6327)">
<path d="M54.2422 35.7725L67.3367 48.7838V36.7992L54.2422 35.7725Z" fill="url(#paint1_linear_610_6327)"/>
</g>
<mask id="mask3_610_6327" style="mask-type:luminance" maskUnits="userSpaceOnUse" x="29" y="22" width="39" height="53">
<path d="M53.209 22.7578H33.195C31.2524 22.7578 29.6631 24.3374 29.6631 26.2681V70.7314C29.6631 72.662 31.2524 74.2416 33.195 74.2416H63.8047C65.7472 74.2416 67.3366 72.662 67.3366 70.7314V36.7989L53.209 22.7578Z" fill="white"/>
</mask>
<g mask="url(#mask3_610_6327)">
<path d="M53.209 22.7578V33.2886C53.209 35.228 54.7895 36.7989 56.7409 36.7989H67.3365L53.209 22.7578Z" fill="#87CEAC"/>
</g>
<mask id="mask4_610_6327" style="mask-type:luminance" maskUnits="userSpaceOnUse" x="29" y="22" width="39" height="53">
<path d="M53.209 22.7578H33.195C31.2524 22.7578 29.6631 24.3374 29.6631 26.2681V70.7314C29.6631 72.662 31.2524 74.2416 33.195 74.2416H63.8047C65.7472 74.2416 67.3366 72.662 67.3366 70.7314V36.7989L53.209 22.7578Z" fill="white"/>
</mask>
<g mask="url(#mask4_610_6327)">
<path d="M33.195 22.7578C31.2524 22.7578 29.6631 24.3374 29.6631 26.2681V26.5606C29.6631 24.63 31.2524 23.0503 33.195 23.0503H53.209V22.7578H33.195Z" fill="white" fill-opacity="0.2"/>
</g>
<mask id="mask5_610_6327" style="mask-type:luminance" maskUnits="userSpaceOnUse" x="29" y="22" width="39" height="53">
<path d="M53.209 22.7578H33.195C31.2524 22.7578 29.6631 24.3374 29.6631 26.2681V70.7314C29.6631 72.662 31.2524 74.2416 33.195 74.2416H63.8047C65.7472 74.2416 67.3366 72.662 67.3366 70.7314V36.7989L53.209 22.7578Z" fill="white"/>
</mask>
<g mask="url(#mask5_610_6327)">
<path d="M63.8047 73.9487H33.195C31.2524 73.9487 29.6631 72.3691 29.6631 70.4385V70.731C29.6631 72.6616 31.2524 74.2413 33.195 74.2413H63.8047C65.7472 74.2413 67.3366 72.6616 67.3366 70.731V70.4385C67.3366 72.3691 65.7472 73.9487 63.8047 73.9487Z" fill="#263238" fill-opacity="0.2"/>
</g>
<mask id="mask6_610_6327" style="mask-type:luminance" maskUnits="userSpaceOnUse" x="29" y="22" width="39" height="53">
<path d="M53.209 22.7578H33.195C31.2524 22.7578 29.6631 24.3374 29.6631 26.2681V70.7314C29.6631 72.662 31.2524 74.2416 33.195 74.2416H63.8047C65.7472 74.2416 67.3366 72.662 67.3366 70.7314V36.7989L53.209 22.7578Z" fill="white"/>
</mask>
<g mask="url(#mask6_610_6327)">
<path d="M56.7409 36.7993C54.7895 36.7993 53.209 35.2285 53.209 33.2891V33.5816C53.209 35.521 54.7895 37.0918 56.7409 37.0918H67.3365V36.7993H56.7409Z" fill="#263238" fill-opacity="0.1"/>
</g>
<path d="M53.209 22.7578H33.195C31.2524 22.7578 29.6631 24.3374 29.6631 26.2681V70.7314C29.6631 72.662 31.2524 74.2416 33.195 74.2416H63.8047C65.7472 74.2416 67.3366 72.662 67.3366 70.7314V36.7989L53.209 22.7578Z" fill="url(#paint2_radial_610_6327)"/>
</g>
<defs>
<linearGradient id="paint0_linear_610_6327" x1="8.19" y1="9.36" x2="86.58" y2="88.335" gradientUnits="userSpaceOnUse">
<stop stop-color="white"/>
<stop offset="1" stop-color="#EAEAEA"/>
</linearGradient>
<linearGradient id="paint1_linear_610_6327" x1="709.036" y1="147.489" x2="709.036" y2="1337.09" gradientUnits="userSpaceOnUse">
<stop stop-color="#263238" stop-opacity="0.2"/>
<stop offset="1" stop-color="#263238" stop-opacity="0.02"/>
</linearGradient>
<radialGradient id="paint2_radial_610_6327" cx="0" cy="0" r="1" gradientUnits="userSpaceOnUse" gradientTransform="translate(149.015 124.513) scale(6074.79 6037.6)">
<stop stop-color="white" stop-opacity="0.1"/>
<stop offset="1" stop-color="white" stop-opacity="0"/>
</radialGradient>
<clipPath id="clip0_610_6327">
<rect width="39" height="53" fill="white" transform="translate(29 22)"/>
</clipPath>
</defs>
</svg>
