<svg width="98" height="98" viewBox="0 0 98 98" fill="none" xmlns="http://www.w3.org/2000/svg">
<g clip-path="url(#clip0_229_11218)">
<rect x="0.585" y="0.585" width="95.94" height="95.94" rx="19.305" fill="url(#paint0_linear_229_11218)" stroke="#DEDEDE" stroke-width="1.17"/>
<g clip-path="url(#clip1_229_11218)">
<path d="M40.5078 22.8422C34.9125 24.7832 30.0872 28.4674 26.7405 33.3536C23.3938 38.2397 21.7023 44.0703 21.9142 49.9889C22.1262 55.9075 24.2306 61.6021 27.9182 66.2364C31.6058 70.8706 36.6824 74.2001 42.4022 75.7359C47.0393 76.9325 51.8977 76.985 56.5597 75.8891C60.7829 74.9404 64.6875 72.9113 67.8909 70.0003C71.225 66.8781 73.6451 62.9061 74.8909 58.5116C76.2446 53.7325 76.4856 48.7069 75.5953 43.8203H49.5553V54.6222H64.6359C64.3345 56.345 63.6886 57.9893 62.737 59.4567C61.7853 60.9241 60.5473 62.1844 59.0972 63.1622C57.2559 64.3808 55.1799 65.2004 53.0028 65.5684C50.8194 65.9745 48.5799 65.9745 46.3965 65.5684C44.1835 65.1114 42.09 64.198 40.2497 62.8866C37.2928 60.7935 35.0726 57.82 33.9059 54.3903C32.7198 50.8963 32.7198 47.1086 33.9059 43.6147C34.7364 41.1656 36.1093 38.9358 37.9222 37.0915C39.9968 34.9423 42.6232 33.406 45.5135 32.6513C48.4037 31.8965 51.446 31.9524 54.3065 32.8128C56.5413 33.4985 58.5848 34.697 60.274 36.3128C61.9745 34.6211 63.672 32.9251 65.3665 31.2247C66.2415 30.3103 67.1953 29.4397 68.0572 28.5034C65.4782 26.1038 62.4513 24.2365 59.1497 23.0084C53.1371 20.8253 46.5583 20.7666 40.5078 22.8422Z" fill="white"/>
<path d="M40.5077 22.8423C46.5577 20.7653 53.1365 20.8225 59.1495 23.0042C62.4517 24.2406 65.4773 26.1169 68.0527 28.5255C67.1777 29.4617 66.2545 30.3367 65.362 31.2467C63.6645 32.9413 61.9685 34.6301 60.2739 36.313C58.5847 34.6972 56.5411 33.4986 54.3064 32.813C51.4468 31.9495 48.4046 31.8904 45.5136 32.6421C42.6226 33.3938 39.9945 34.9272 37.9177 37.0742C36.1048 38.9184 34.7319 41.1483 33.9014 43.5973L24.832 36.5755C28.0783 30.1379 33.6991 25.2137 40.5077 22.8423Z" fill="#E33629"/>
<path d="M22.4263 43.5314C22.9134 41.1154 23.7227 38.7758 24.8325 36.5752L33.9019 43.6146C32.7158 47.1085 32.7158 50.8962 33.9019 54.3902C30.8802 56.7235 27.8571 59.0685 24.8325 61.4252C22.0551 55.8966 21.208 49.5974 22.4263 43.5314Z" fill="#F8BD00"/>
<path d="M49.5557 43.8154H75.5957C76.4859 48.702 76.245 53.7277 74.8913 58.5067C73.6454 62.9013 71.2254 66.8732 67.8913 69.9954C64.9644 67.7117 62.0244 65.4454 59.0975 63.1617C60.5486 62.1829 61.7871 60.9212 62.7389 59.4523C63.6906 57.9833 64.336 56.3373 64.6363 54.6129H49.5557C49.5513 51.0167 49.5557 47.4161 49.5557 43.8154Z" fill="#587DBD"/>
<path d="M24.8281 61.4246C27.8527 59.0913 30.8758 56.7463 33.8975 54.3896C35.0665 57.8205 37.2899 60.7942 40.25 62.8859C42.096 64.1913 44.194 65.0972 46.41 65.5459C48.5934 65.952 50.8329 65.952 53.0163 65.5459C55.1934 65.1779 57.2693 64.3582 59.1106 63.1396C62.0375 65.4234 64.9775 67.6897 67.9044 69.9734C64.7014 72.886 60.7968 74.9166 56.5731 75.8665C51.9112 76.9625 47.0528 76.9099 42.4156 75.7134C38.7481 74.7342 35.3223 73.0079 32.3531 70.6428C29.2107 68.1474 26.6439 65.0031 24.8281 61.4246Z" fill="#319F43"/>
</g>
</g>
<defs>
<linearGradient id="paint0_linear_229_11218" x1="8.19" y1="9.36" x2="86.58" y2="88.335" gradientUnits="userSpaceOnUse">
<stop stop-color="white"/>
<stop offset="1" stop-color="#EAEAEA"/>
</linearGradient>
<clipPath id="clip0_229_11218">
<rect width="97.11" height="97.11" fill="white"/>
</clipPath>
<clipPath id="clip1_229_11218">
<rect width="56" height="56" fill="white" transform="translate(21 21)"/>
</clipPath>
</defs>
</svg>
