<svg width="98" height="98" viewBox="0 0 98 98" fill="none" xmlns="http://www.w3.org/2000/svg">
<rect x="0.585" y="0.585" width="95.94" height="95.94" rx="19.305" fill="white" stroke="#DEDEDE" stroke-width="1.17"/>
<path d="M73 69.9526C73 71.6026 71.65 72.9526 70 72.9526H28C26.35 72.9526 25 71.6026 25 69.9526V51.9526C25 50.3026 25.954 47.9988 27.122 46.8308L46.878 27.0747C48.044 25.9087 49.954 25.9087 51.12 27.0747L70.878 46.8326C72.044 47.9986 73 50.3046 73 51.9546V69.9546V69.9526Z" fill="#F2F4F9"/>
<path d="M70.878 46.8308L51.122 27.0747C49.956 25.9087 48.046 25.9087 46.88 27.0747L27.122 46.8308C25.956 47.9968 25 50.3026 25 51.9526V69.9526C25 71.6026 26.35 72.9526 28 72.9526H46.454L38.328 64.8266C37.91 64.9706 37.464 65.0526 37 65.0526C34.74 65.0526 32.9 63.2126 32.9 60.9526C32.9 58.6926 34.74 56.8526 37 56.8526C39.26 56.8526 41.1 58.6926 41.1 60.9526C41.1 61.4186 41.018 61.8646 40.874 62.2826L47.2 68.6086V45.4326C45.84 44.7647 44.9 43.3687 44.9 41.7547C44.9 39.4947 46.74 37.6547 49 37.6547C51.26 37.6547 53.1 39.4947 53.1 41.7547C53.1 43.3687 52.16 44.7647 50.8 45.4326V61.6866L57.092 55.3946C56.968 55.0026 56.9 54.5866 56.9 54.1546C56.9 51.8946 58.74 50.0546 61 50.0546C63.26 50.0546 65.1 51.8946 65.1 54.1546C65.1 56.4146 63.26 58.2546 61 58.2546C60.5 58.2546 60.024 58.1606 59.582 57.9966L50.8 66.7786V72.9546H70C71.65 72.9546 73 71.6046 73 69.9546V51.9546C73 50.3046 72.046 48.0006 70.878 46.8326V46.8308Z" fill="#18BCF2"/>
</svg>
