<svg width="98" height="98" viewBox="0 0 98 98" fill="none" xmlns="http://www.w3.org/2000/svg">
<rect x="0.585" y="0.585" width="95.94" height="95.94" rx="19.305" fill="url(#paint0_linear_620_8504)" stroke="#DEDEDE" stroke-width="1.17"/>
<g clip-path="url(#clip0_620_8504)">
<path d="M27.3895 22.4449C27.4459 22.2861 27.5604 22.1544 27.7102 22.0762C27.86 21.9981 28.034 21.9792 28.1971 22.0234L28.245 22.0381L46.3382 28.8898C47.1935 28.7495 48.043 28.6797 48.8785 28.6856C52.0362 28.7074 55.0183 29.4134 58.0087 31.1732L75.4117 29.7381C75.5322 29.7328 75.6513 29.7663 75.7513 29.8335C75.8513 29.9007 75.927 29.9982 75.9672 30.1115C76.0075 30.2248 76.0101 30.348 75.9748 30.4629C75.9394 30.5778 75.868 30.6784 75.7709 30.7498L75.7218 30.7819L64.8501 37.0896C65.0256 37.2902 65.2016 37.4951 65.378 37.7044C70.3311 43.5875 73.3441 52.0999 74.7831 57.0219C75.2024 58.4563 75.2857 59.9673 75.0268 61.4387C74.7678 62.9102 74.1734 64.3029 73.2892 65.5096C70.0547 69.9189 63.1571 75.9219 49.6242 75.8263C34.8501 75.7244 27.2188 68.4025 23.5523 63.9028C22.7845 62.9528 22.2794 61.8193 22.0871 60.6148C21.8949 59.4103 22.0221 58.1766 22.4563 57.0362L22.7305 56.3218C24.8943 50.7165 28.9249 40.981 32.1535 37.3609C34.0971 35.1841 36.3385 33.3046 38.7067 31.8571L27.5943 23.182C27.4885 23.0948 27.4122 22.9773 27.3756 22.8455C27.3391 22.7137 27.3437 22.5739 27.3895 22.4449Z" fill="#FF4C46"/>
<path d="M49.2033 60.5515C49.2089 60.5371 49.2173 60.5238 49.228 60.5126C49.2388 60.5014 49.2516 60.4925 49.2658 60.4862C49.2801 60.48 49.2954 60.4766 49.3109 60.4762C49.3265 60.4759 49.3419 60.4786 49.3564 60.4843C50.5221 61.1508 51.8191 61.5574 53.1579 61.6758C54.4967 61.7943 55.8454 61.6218 57.1107 61.1703L57.2579 61.1165C57.2806 61.1058 57.3062 61.1028 57.3307 61.1082C57.3551 61.1137 57.3771 61.1271 57.3931 61.1463C57.409 61.1656 57.4181 61.1897 57.4187 61.2146C57.4194 61.2396 57.4116 61.2641 57.3967 61.2842L54.158 64.8364C54.059 64.9442 53.9216 65.0092 53.7752 65.0177C53.6288 65.0262 53.4848 64.9774 53.3739 64.8818C52.1764 63.8568 50.1763 61.7153 49.2178 60.6637C49.2061 60.6477 49.1986 60.6291 49.196 60.6095C49.1934 60.5899 49.1959 60.5699 49.2031 60.5515M53.6992 42.3583C62.0743 36.5541 66.6145 41.5925 69.162 47.1816C71.0022 51.2095 71.654 58.7506 65.6796 59.9064C61.1033 60.7954 56.8747 56.1769 53.7471 51.8653C53.6554 51.7393 53.5352 51.6367 53.3962 51.5658C53.2572 51.4949 53.1034 51.4577 52.9472 51.4573C52.7911 51.4568 52.637 51.4931 52.4976 51.5632C52.3582 51.6333 52.2374 51.7352 52.145 51.8607L52.0178 52.0372C49.8768 55.0271 44.7719 63.1561 37.217 61.0989C29.927 59.1109 28.3253 50.9424 31.3571 45.296C35.8433 36.7812 42.3972 34.0068 53.6992 42.3583ZM52.5089 54.0423C52.6472 53.9099 52.8305 53.8345 53.0223 53.8311C53.214 53.8277 53.4 53.8966 53.5429 54.024L53.5851 54.0648L57.5872 58.6075C57.6086 58.6319 57.6268 58.6583 57.6418 58.6869C57.7452 58.8849 57.668 59.1286 57.4695 59.2315C56.2648 59.8435 54.9372 60.1773 53.5853 60.2084C51.8056 60.1937 49.9846 59.017 49.2389 58.4764L49.2086 58.4518C49.1339 58.3857 49.0864 58.2944 49.0751 58.1956C49.0638 58.0967 49.0896 57.9971 49.1474 57.916L49.175 57.8815L52.4637 54.0818L52.4692 54.0833C52.482 54.0692 52.4952 54.0555 52.5089 54.0423Z" fill="white"/>
<path d="M63.4193 47.3775L63.4655 47.4521C64.4337 48.9494 64.0003 50.9453 62.4969 51.91C60.9936 52.8746 58.9899 52.4428 58.0214 50.9453C57.0796 49.4888 57.4631 47.5574 58.8749 46.5646L58.9529 46.5114C60.3591 45.5092 62.3149 45.8317 63.3212 47.2321C63.3553 47.2798 63.388 47.3282 63.4193 47.3775ZM43.1742 45.6594C41.4888 46.2316 40.6512 48.0146 41.1534 49.6749C41.7278 51.3538 43.5176 52.1884 45.1844 51.6883C46.8698 51.1159 47.6939 49.3104 47.2056 47.6725C47.2101 47.6618 47.1993 47.6309 47.1786 47.5937C46.6601 45.9777 45.0043 45.1236 43.4282 45.5699C43.3556 45.5516 43.2649 45.6056 43.1742 45.6594Z" fill="#FF4C46"/>
</g>
<defs>
<linearGradient id="paint0_linear_620_8504" x1="8.19" y1="9.36" x2="86.58" y2="88.335" gradientUnits="userSpaceOnUse">
<stop stop-color="white"/>
<stop offset="1" stop-color="#EAEAEA"/>
</linearGradient>
<clipPath id="clip0_620_8504">
<rect width="54" height="54" fill="white" transform="translate(22 22)"/>
</clipPath>
</defs>
</svg>
