<svg width="98" height="98" viewBox="0 0 98 98" fill="none" xmlns="http://www.w3.org/2000/svg">
<rect x="0.585" y="0.585" width="95.94" height="95.94" rx="19.305" fill="url(#paint0_linear_620_8557)" stroke="#DEDEDE" stroke-width="1.17"/>
<g clip-path="url(#clip0_620_8557)">
<path d="M71.7844 24H47.7705C47.7705 25.4236 48.0508 26.8332 48.5956 28.1484C49.1403 29.4637 49.9388 30.6587 50.9454 31.6653C51.952 32.6719 53.1471 33.4704 54.4623 34.0152C55.7775 34.5599 57.1872 34.8403 58.6107 34.8402H63.0344V39.1113C63.0383 45.0928 67.8861 49.9408 73.8676 49.9447V26.0832C73.8676 24.933 72.9352 24 71.7844 24Z" fill="#2684FF"/>
<path d="M59.9023 35.9648H35.8887C35.8924 41.9463 40.7402 46.7943 46.7219 46.7982H51.1455V51.083C51.1531 57.0645 56.0043 61.9092 61.9857 61.9092V38.0484C61.9857 36.8979 61.0529 35.9648 59.9023 35.9648Z" fill="url(#paint1_linear_620_8557)"/>
<path d="M48.0139 47.9238H24C24 53.9107 28.8535 58.7641 34.8402 58.7641H39.2777V63.035C39.2816 69.0109 44.1211 73.8568 50.0973 73.8682V50.0072C50.0973 48.8566 49.1645 47.9238 48.0139 47.9238Z" fill="url(#paint2_linear_620_8557)"/>
</g>
<defs>
<linearGradient id="paint0_linear_620_8557" x1="8.19" y1="9.36" x2="86.58" y2="88.335" gradientUnits="userSpaceOnUse">
<stop stop-color="white"/>
<stop offset="1" stop-color="#EAEAEA"/>
</linearGradient>
<linearGradient id="paint1_linear_620_8557" x1="2594.21" y1="40.1419" x2="1578.91" y2="1099.57" gradientUnits="userSpaceOnUse">
<stop offset="0.18" stop-color="#0052CC"/>
<stop offset="1" stop-color="#2684FF"/>
</linearGradient>
<linearGradient id="paint2_linear_620_8557" x1="2651.08" y1="59.7285" x2="1476.63" y2="1215.24" gradientUnits="userSpaceOnUse">
<stop offset="0.18" stop-color="#0052CC"/>
<stop offset="1" stop-color="#2684FF"/>
</linearGradient>
<clipPath id="clip0_620_8557">
<rect width="50" height="50" fill="white" transform="translate(24 24)"/>
</clipPath>
</defs>
</svg>
