<svg width="98" height="98" viewBox="0 0 98 98" fill="none" xmlns="http://www.w3.org/2000/svg">
<rect x="0.585" y="0.585" width="95.94" height="95.94" rx="19.305" fill="url(#paint0_linear_754_6230)" stroke="#DEDEDE" stroke-width="1.17"/>
<g clip-path="url(#clip0_754_6230)">
<path d="M40.4326 31.3252V34.1095H44.2189V31.3252H40.4326Z" fill="#83B9F5"/>
<path d="M37.4551 35.8174V38.6017H44.2557V35.8174H37.4551Z" fill="#83B9F5"/>
<path d="M29.4785 40.3096V43.0939H44.2193V40.3096H29.4785Z" fill="#83B9F5"/>
<path d="M21.3545 44.7637V47.548H44.2193V44.7637H21.3545Z" fill="#83B9F5"/>
<path d="M15.9873 49.2559V52.0401H44.2191V49.2559H15.9873Z" fill="#83B9F5"/>
<path d="M24.9199 53.7109V56.4952H44.219V53.7109H24.9199Z" fill="#83B9F5"/>
<path d="M32.7871 58.2031V60.9874H44.2563V58.2031H32.7871Z" fill="#83B9F5"/>
<path d="M29.6992 62.6572V65.4415H44.2563V62.6572H29.6992Z" fill="#83B9F5"/>
<path d="M37.1982 66.9268V69.711H44.2194V66.9268H37.1982Z" fill="#83B9F5"/>
<path d="M55.748 24.0518H43.7926L49.7061 33.2692L55.748 24.0518Z" fill="#F38577"/>
<path d="M50.4775 25.7393V74.0337H48.9349V25.7393H50.4775Z" fill="#F38577"/>
<path d="M56.1435 31.3184C55.5947 31.3184 55.1191 31.7617 55.1191 32.3159V68.7807C55.1191 69.5935 56.0337 70.0738 56.6922 69.5935L81.5689 51.3796C82.1176 50.9732 82.1176 50.1604 81.5689 49.754L56.6922 31.54C56.5459 31.3922 56.363 31.3184 56.1435 31.3184Z" fill="#527EB2"/>
</g>
<defs>
<linearGradient id="paint0_linear_754_6230" x1="8.19" y1="9.36" x2="86.58" y2="88.335" gradientUnits="userSpaceOnUse">
<stop stop-color="white"/>
<stop offset="1" stop-color="#EAEAEA"/>
</linearGradient>
<clipPath id="clip0_754_6230">
<rect width="66" height="50" fill="white" transform="translate(16 24)"/>
</clipPath>
</defs>
</svg>
