<svg width="98" height="98" viewBox="0 0 98 98" fill="none" xmlns="http://www.w3.org/2000/svg">
<rect x="0.585" y="0.585" width="95.94" height="95.94" rx="19.305" fill="white" stroke="#DEDEDE" stroke-width="1.17"/>
<path d="M23.4688 34.2709L48.9795 19.5449V78.4586L23.4688 63.7293V34.2709Z" fill="black"/>
<path d="M48.9795 78.4584L23.4688 63.7293L48.9795 49L74.4902 63.7293L48.9795 78.4584Z" fill="url(#paint0_linear_890_6473)"/>
<path d="M48.9795 78.4584L23.4688 63.7293L48.9795 49L74.4902 63.7293L48.9795 78.4584Z" fill="url(#paint1_linear_890_6473)"/>
<path style="mix-blend-mode:screen" d="M23.4688 34.2709L48.9795 19.5449V78.4586L23.4688 63.7293V34.2709Z" fill="url(#paint2_linear_890_6473)"/>
<path style="mix-blend-mode:overlay" d="M48.9795 78.4584L23.4688 63.7293L48.9795 49L74.4902 63.7293L48.9795 78.4584Z" fill="url(#paint3_linear_890_6473)"/>
<path style="mix-blend-mode:overlay" d="M23.4688 34.2709L48.9795 19.5449V78.4586L23.4688 63.7293V34.2709Z" fill="url(#paint4_linear_890_6473)"/>
<defs>
<linearGradient id="paint0_linear_890_6473" x1="23.4688" y1="63.7293" x2="74.4902" y2="63.7293" gradientUnits="userSpaceOnUse">
<stop stop-color="#0000AA"/>
<stop offset="1" stop-color="#A78DFF"/>
</linearGradient>
<linearGradient id="paint1_linear_890_6473" x1="23.4688" y1="63.7293" x2="74.4902" y2="63.7293" gradientUnits="userSpaceOnUse">
<stop stop-color="#0000AA"/>
<stop offset="1" stop-color="#A78DFF"/>
</linearGradient>
<linearGradient id="paint2_linear_890_6473" x1="52.3062" y1="75.1253" x2="30.029" y2="28.737" gradientUnits="userSpaceOnUse">
<stop stop-color="#004EFF"/>
<stop offset="1" stop-color="#00FFFF"/>
</linearGradient>
<linearGradient id="paint3_linear_890_6473" x1="23.4688" y1="63.7293" x2="74.4902" y2="63.7293" gradientUnits="userSpaceOnUse">
<stop stop-color="#0000AA"/>
<stop offset="1" stop-color="#A78DFF"/>
</linearGradient>
<linearGradient id="paint4_linear_890_6473" x1="52.3062" y1="75.1253" x2="30.029" y2="28.737" gradientUnits="userSpaceOnUse">
<stop stop-color="#004EFF"/>
<stop offset="1" stop-color="#00FFFF"/>
</linearGradient>
</defs>
</svg>
