<svg width="98" height="98" viewBox="0 0 98 98" fill="none" xmlns="http://www.w3.org/2000/svg">
<rect x="0.585" y="0.585" width="95.94" height="95.94" rx="19.305" fill="url(#paint0_linear_732_6151)" stroke="#DEDEDE" stroke-width="1.17"/>
<g clip-path="url(#clip0_732_6151)">
<path d="M26.2733 41.306C29.7315 31.0905 39.3968 24.7316 49.6414 25.0087L46.3581 28.8888C40.2805 29.9876 35.0325 34.1379 32.97 40.2307C29.9014 49.2958 35.0449 59.2276 44.4585 62.4148C53.8724 65.6011 63.9912 60.8358 67.0598 51.7711C69.1157 45.6986 67.4854 39.2373 63.3555 34.6749L63.1032 29.5807C71.382 35.5897 75.1793 46.4941 71.7265 56.6932C67.4773 69.2446 53.8581 75.9751 41.3065 71.7262C28.7552 67.4771 22.0245 53.8576 26.2733 41.3062M55.9722 27.236C56.0988 27.1802 56.2417 27.1736 56.3729 27.2176C56.5007 27.2615 56.6083 27.3504 56.6755 27.4678L56.689 27.4895L56.701 27.5146C56.7325 27.5748 56.7593 27.644 56.7719 27.7286C56.7966 27.8955 56.8079 28.2883 56.8124 28.6905L56.8133 28.8001C56.8144 28.9282 56.815 29.0551 56.8152 29.174V29.2738C56.8148 29.5991 56.812 29.8428 56.812 29.8428L56.9063 33.3928L57.0458 37.4906L57.2196 44.6118V44.6274L57.2198 44.6358V44.6585C57.2185 45.0654 57.135 48.0427 55.0229 50.112C52.7519 52.3368 49.9622 52.1332 48.1472 51.519C46.3322 50.9043 43.9926 49.3715 43.54 46.2245C43.1552 43.5496 44.5774 41.3013 45.0126 40.6871L45.0417 40.6464C45.1009 40.5643 45.1354 40.5211 45.1354 40.5211L49.5994 34.97L52.1997 31.7994L54.4309 29.0368C54.4309 29.0368 54.759 28.5971 55.0967 28.1643L55.1642 28.0781C55.2699 27.9429 55.3773 27.8091 55.4864 27.6766L55.5435 27.608C55.6268 27.5092 55.6973 27.4295 55.747 27.3815C55.8047 27.3253 55.8642 27.2889 55.9223 27.2606L55.9649 27.2388L55.9722 27.236Z" fill="#0058CC"/>
</g>
<defs>
<linearGradient id="paint0_linear_732_6151" x1="8.19" y1="9.36" x2="86.58" y2="88.335" gradientUnits="userSpaceOnUse">
<stop stop-color="white"/>
<stop offset="1" stop-color="#EAEAEA"/>
</linearGradient>
<clipPath id="clip0_732_6151">
<rect width="48" height="48" fill="white" transform="translate(25 25)"/>
</clipPath>
</defs>
</svg>
