<svg width="98" height="98" viewBox="0 0 98 98" fill="none" xmlns="http://www.w3.org/2000/svg">
<g clip-path="url(#clip0_200_8714)">
<rect x="0.585" y="0.585" width="95.94" height="95.94" rx="19.305" fill="#ED1C40" stroke="#DEDEDE" stroke-width="1.17"/>
<g clip-path="url(#clip1_200_8714)">
<path d="M73.5511 65.6681C72.917 61.6011 65.3871 64.7304 64.9191 60.2744C64.2597 53.9494 73.665 40.327 72.9249 35.0314C72.2655 30.2797 69.0461 29.2756 66.2536 29.2171C63.5418 29.1776 62.8271 29.6045 61.9131 30.1406C61.3771 30.4442 60.6212 31.0529 59.5665 30.0504C58.866 29.3816 58.3885 28.923 57.6564 28.3284C57.2769 28.0248 56.676 27.6453 55.6624 27.4983C54.6678 27.3417 53.3491 27.4983 52.5252 27.8446C51.684 28.2067 51.0436 28.8329 50.3605 29.4258C49.6758 30.0188 47.938 31.9543 46.3315 31.2364C45.6231 30.9328 43.2512 29.7452 41.5387 29.0147C38.2434 27.59 33.4854 29.8955 31.7618 32.9504C29.2081 37.4791 24.1782 55.3014 23.4018 57.6496C21.6988 62.9199 25.5855 67.2193 30.8068 66.971C33.0221 66.8651 34.4958 66.0666 35.8873 63.5223C36.6953 62.0549 44.2806 42.2577 44.8483 41.2947C45.261 40.6116 46.6272 39.7055 47.7815 40.289C48.9437 40.8899 49.173 42.1249 49.0006 43.2871C48.7112 45.1735 43.3761 57.2637 43.1611 58.6236C42.8148 60.9528 43.9201 62.2368 46.341 62.3696C47.9902 62.4518 49.6442 61.8683 50.9456 59.3968C51.6793 58.0196 60.1121 41.1223 60.8521 39.9933C61.6759 38.7584 62.3337 38.3441 63.1844 38.3947C63.8343 38.4263 64.8621 38.5923 64.6076 40.5341C64.353 42.4458 57.5678 54.8334 56.8594 57.863C55.9028 61.9316 58.126 66.0334 61.7993 67.8376C64.1395 68.9887 74.3844 70.9495 73.5527 65.6697L73.5511 65.6681Z" fill="white"/>
</g>
</g>
<defs>
<clipPath id="clip0_200_8714">
<rect width="97.11" height="97.11" fill="white"/>
</clipPath>
<clipPath id="clip1_200_8714">
<rect width="50.6" height="50.6" fill="white" transform="translate(23 23)"/>
</clipPath>
</defs>
</svg>
