<svg width="98" height="98" viewBox="0 0 98 98" fill="none" xmlns="http://www.w3.org/2000/svg">
<g clip-path="url(#clip0_154_2630)">
<rect x="0.585" y="0.585" width="95.94" height="95.94" rx="19.305" fill="url(#paint0_linear_154_2630)" stroke="#DEDEDE" stroke-width="1.17"/>
<g clip-path="url(#clip1_154_2630)">
<path d="M23.8048 55.7068C23.8048 58.1257 24.3328 59.975 25.0229 61.0964C25.3906 61.7349 25.9202 62.2643 26.5578 62.6308C27.1954 62.9973 27.9184 63.1879 28.6531 63.1832C30.4277 63.1832 32.0511 62.7435 35.1796 58.3983C37.686 54.9174 40.6392 50.0423 42.6285 46.9638L45.9937 41.7742C48.3313 38.1702 51.0326 34.1637 54.1392 31.4392C56.6697 29.2314 59.4017 28 62.1512 28C66.7673 28 71.1643 30.6849 74.5295 35.7205C78.2123 41.2355 80.0066 48.182 80.0066 55.3506C80.0066 59.6121 79.1697 62.7435 77.7456 65.2173C76.372 67.6097 73.6816 70 69.1706 70V63.1832C73.0331 63.1832 73.9905 59.6209 73.9905 55.5441C73.9905 49.7345 72.6409 43.2871 69.668 38.6803C67.5582 35.4127 64.824 33.416 61.816 33.416C58.5626 33.416 55.9445 35.8788 53.0022 40.2702C51.4379 42.6032 49.832 45.4465 48.029 48.6548L46.0441 52.1731C42.0567 59.2691 41.0467 60.8853 39.0531 63.5527C35.5652 68.2408 32.5813 70 28.6531 70C23.9932 70 21.0465 67.9748 19.2325 64.9226C17.7317 62.4356 17 59.1724 17 55.4539L23.8048 55.7068Z" fill="#0081FB"/>
<path d="M22.3652 36.2021C25.485 31.3754 29.9872 28 35.151 28C38.1415 28 41.1145 28.8796 44.2189 31.4326C47.6147 34.2142 51.2296 38.7947 55.7494 46.3437L57.3684 49.0528C61.2769 55.5881 63.5028 58.9481 64.8019 60.5357C66.4757 62.5719 67.65 63.1744 69.1705 63.1744C73.033 63.1744 73.9904 59.6121 73.9904 55.5353L79.9933 55.3462C79.9933 59.6077 79.1564 62.7391 77.7323 65.2129C76.3718 67.6097 73.6814 70 69.1705 70C66.3662 70 63.8818 69.3887 61.1345 66.7873C59.0225 64.7907 56.5534 61.2438 54.6539 58.0553L49.0037 48.5822C46.1688 43.8281 43.5683 40.2834 42.0631 38.6869C40.4419 36.9519 38.3628 34.8673 35.0415 34.8673C32.3533 34.8673 30.0704 36.7606 28.16 39.6566L22.3652 36.2021Z" fill="url(#paint1_linear_154_2630)"/>
<path d="M35.0416 34.8673C32.3535 34.8673 30.0706 36.7606 28.1602 39.6566C25.4589 43.7489 23.8048 49.8444 23.8048 55.7068C23.8048 58.1257 24.3328 59.975 25.0229 61.0964L19.2215 64.9226C17.7317 62.4356 17 59.1724 17 55.4539C17 48.6921 18.8491 41.6445 22.3654 36.2021C25.4852 31.3754 29.9873 28 35.1512 28L35.0416 34.8673Z" fill="url(#paint2_linear_154_2630)"/>
</g>
</g>
<defs>
<linearGradient id="paint0_linear_154_2630" x1="8.19" y1="9.36" x2="86.58" y2="88.335" gradientUnits="userSpaceOnUse">
<stop stop-color="white"/>
<stop offset="1" stop-color="#EAEAEA"/>
</linearGradient>
<linearGradient id="paint1_linear_154_2630" x1="30.6576" y1="47.9115" x2="74.0372" y2="50.0943" gradientUnits="userSpaceOnUse">
<stop stop-color="#0064E1"/>
<stop offset="0.4" stop-color="#0064E1"/>
<stop offset="0.83" stop-color="#0073EE"/>
<stop offset="1" stop-color="#0082FB"/>
</linearGradient>
<linearGradient id="paint2_linear_154_2630" x1="26.0745" y1="58.5654" x2="26.0745" y2="42.5131" gradientUnits="userSpaceOnUse">
<stop stop-color="#0082FB"/>
<stop offset="1" stop-color="#0064E0"/>
</linearGradient>
<clipPath id="clip0_154_2630">
<rect width="97.11" height="97.11" fill="white"/>
</clipPath>
<clipPath id="clip1_154_2630">
<rect width="63" height="42" fill="white" transform="translate(17 28)"/>
</clipPath>
</defs>
</svg>
