<svg width="98" height="98" viewBox="0 0 98 98" fill="none" xmlns="http://www.w3.org/2000/svg">
<rect x="0.585" y="0.585" width="95.94" height="95.94" rx="19.305" fill="url(#paint0_linear_610_5989)" stroke="#DEDEDE" stroke-width="1.17"/>
<g clip-path="url(#clip0_610_5989)">
<path d="M54.2459 51.3193L50.3471 22.7285H50.056C35.8792 22.7699 24.3969 34.2522 24.3555 48.4291V48.7202L54.2459 51.3193Z" fill="#ED6C47"/>
<path d="M50.6378 22.7285H50.3467V48.7202L63.3425 53.9185L76.3383 48.7202V48.4291C76.2969 34.2522 64.8146 22.7699 50.6378 22.7285Z" fill="#FF8F6B"/>
<path d="M76.3388 48.7197V49.0056C76.2981 63.1856 64.813 74.6707 50.633 74.7114H50.0612C35.8812 74.6707 24.3962 63.1856 24.3555 49.0056V48.7197H76.3388Z" fill="#D35230"/>
<path opacity="0.1" d="M51.6467 35.5033V63.2364C51.6403 64.2 51.0563 65.0657 50.1652 65.4326C49.8815 65.5526 49.5766 65.6145 49.2685 65.6146H30.4895C30.1256 65.1987 29.7748 64.7568 29.4499 64.315C26.1389 59.8982 24.3512 54.5259 24.3555 49.0059V48.4341C24.3479 43.4552 25.803 38.5837 28.5402 34.4246C28.8261 33.9827 29.125 33.5409 29.4499 33.125H49.2685C50.5779 33.1349 51.6368 34.1939 51.6467 35.5033Z" fill="black"/>
<path opacity="0.2" d="M50.3472 36.8031V64.5362C50.3471 64.8442 50.2852 65.1492 50.1652 65.4329C49.7983 66.3239 48.9326 66.9079 47.9689 66.9144H31.6722C31.261 66.4969 30.8665 66.0634 30.4895 65.6148C30.1256 65.1989 29.7748 64.7571 29.4499 64.3152C26.1389 59.8984 24.3512 54.5261 24.3555 49.0061V48.4343C24.3479 43.4554 25.803 38.5839 28.5402 34.4248H47.9689C49.2783 34.4347 50.3373 35.4937 50.3472 36.8031Z" fill="black"/>
<path opacity="0.2" d="M50.3472 36.803V61.937C50.3373 63.2463 49.2783 64.3053 47.9689 64.3152H29.4499C26.1389 59.8984 24.3512 54.5261 24.3555 49.0061V48.4343C24.3479 43.4554 25.803 38.5839 28.5402 34.4248H47.9689C49.2783 34.4347 50.3373 35.4937 50.3472 36.803Z" fill="black"/>
<path opacity="0.2" d="M49.0476 36.803V61.937C49.0377 63.2463 47.9787 64.3053 46.6694 64.3152H29.4499C26.1389 59.8984 24.3512 54.5261 24.3555 49.0061V48.4343C24.3479 43.4554 25.803 38.5839 28.5402 34.4248H46.6693C47.9787 34.4347 49.0377 35.4937 49.0476 36.803Z" fill="black"/>
<path d="M22.8392 34.4248H46.6657C47.9813 34.4248 49.0478 35.4913 49.0478 36.8069V60.6335C49.0478 61.9491 47.9813 63.0156 46.6657 63.0156H22.8392C21.5236 63.0156 20.457 61.9491 20.457 60.6335V36.8069C20.457 35.4913 21.5236 34.4248 22.8392 34.4248Z" fill="url(#paint1_linear_610_5989)"/>
<path d="M35.012 40.7776C36.563 40.6729 38.1007 41.1234 39.35 42.0486C40.392 42.9788 40.9488 44.3363 40.8601 45.7303C40.8771 46.6993 40.6189 47.6533 40.1155 48.4815C39.6058 49.2954 38.8714 49.9444 38.001 50.3503C37.006 50.8131 35.9181 51.0416 34.8209 51.0183H31.8072V56.6195H28.7207V40.7776H35.012ZM31.8046 48.5985H34.461C35.3031 48.6603 36.1387 48.4111 36.8093 47.898C37.364 47.3659 37.6548 46.6155 37.6034 45.8486C37.6034 44.1028 36.5888 43.2299 34.5598 43.2299H31.8047V48.5985H31.8046Z" fill="white"/>
</g>
<defs>
<linearGradient id="paint0_linear_610_5989" x1="8.19" y1="9.36" x2="86.58" y2="88.335" gradientUnits="userSpaceOnUse">
<stop stop-color="white"/>
<stop offset="1" stop-color="#EAEAEA"/>
</linearGradient>
<linearGradient id="paint1_linear_610_5989" x1="25.4238" y1="32.5635" x2="44.0811" y2="64.877" gradientUnits="userSpaceOnUse">
<stop stop-color="#CA4C28"/>
<stop offset="0.5" stop-color="#C5401E"/>
<stop offset="1" stop-color="#B62F14"/>
</linearGradient>
<clipPath id="clip0_610_5989">
<rect width="55.8821" height="51.9833" fill="white" transform="translate(20.459 22.7285)"/>
</clipPath>
</defs>
</svg>
