<svg width="98" height="98" viewBox="0 0 98 98" fill="none" xmlns="http://www.w3.org/2000/svg">
<rect x="0.585" y="0.585" width="95.94" height="95.94" rx="19.305" fill="url(#paint0_linear_610_6358)" stroke="#DEDEDE" stroke-width="1.17"/>
<g clip-path="url(#clip0_610_6358)">
<path d="M55.7907 47.1752L33.2559 43.2002V72.5715C33.2559 73.9128 34.3437 75.0002 35.6856 75.0002H74.5703C75.9122 75.0002 77 73.9128 77 72.5715V61.7502L55.7907 47.1752Z" fill="#185C37"/>
<path d="M55.7907 22H35.6856C34.3437 22 33.2559 23.0874 33.2559 24.4287V35.25L55.7907 48.5L67.721 52.475L77 48.5V35.25L55.7907 22Z" fill="#21A366"/>
<path d="M33.2559 35.25H55.7907V48.5H33.2559V35.25Z" fill="#107C41"/>
<path opacity="0.1" d="M49.3842 32.5996H33.2559V65.7246H49.3842C50.7243 65.7203 51.8096 64.6354 51.814 63.2959V35.0283C51.8096 33.6888 50.7243 32.604 49.3842 32.5996Z" fill="black"/>
<path opacity="0.2" d="M48.0586 33.9248H33.2559V67.0498H48.0586C49.3988 67.0455 50.4841 65.9606 50.4884 64.6211V36.3535C50.4841 35.014 49.3988 33.9292 48.0586 33.9248Z" fill="black"/>
<path opacity="0.2" d="M48.0586 33.9248H33.2559V64.3998H48.0586C49.3988 64.3955 50.4841 63.3106 50.4884 61.9711V36.3535C50.4841 35.014 49.3988 33.9292 48.0586 33.9248Z" fill="black"/>
<path opacity="0.2" d="M46.733 33.9248H33.2559V64.3998H46.733C48.0732 64.3955 49.1585 63.3106 49.1628 61.9711V36.3535C49.1585 35.014 48.0732 33.9292 46.733 33.9248Z" fill="black"/>
<path d="M22.4298 33.9248H46.733C48.0749 33.9248 49.1628 35.0122 49.1628 36.3535V60.6461C49.1628 61.9874 48.0749 63.0748 46.733 63.0748H22.4298C21.0878 63.0748 20 61.9874 20 60.6461V36.3535C20 35.0122 21.0878 33.9248 22.4298 33.9248Z" fill="url(#paint1_linear_610_6358)"/>
<path d="M27.5254 56.3945L32.6368 48.4777L27.9536 40.6045H31.7208L34.2766 45.6395C34.5125 46.1178 34.6742 46.4729 34.7617 46.7074H34.7949C34.9628 46.3258 35.1395 45.9553 35.3251 45.5957L38.0571 40.6072H41.5156L36.713 48.4339L41.6375 56.3945H37.9577L35.0057 50.868C34.8666 50.6328 34.7486 50.3858 34.6531 50.1299H34.6093C34.5228 50.3806 34.4081 50.6207 34.2673 50.8454L31.2278 56.3945H27.5254Z" fill="white"/>
<path d="M74.5696 22H55.79V35.25H76.9993V24.4287C76.9993 23.0874 75.9115 22 74.5696 22Z" fill="#33C481"/>
<path d="M55.79 48.5H76.9993V61.75H55.79V48.5Z" fill="#107C41"/>
</g>
<defs>
<linearGradient id="paint0_linear_610_6358" x1="8.19" y1="9.36" x2="86.58" y2="88.335" gradientUnits="userSpaceOnUse">
<stop stop-color="white"/>
<stop offset="1" stop-color="#EAEAEA"/>
</linearGradient>
<linearGradient id="paint1_linear_610_6358" x1="25.0662" y1="32.027" x2="44.0841" y2="64.9798" gradientUnits="userSpaceOnUse">
<stop stop-color="#18884F"/>
<stop offset="0.5" stop-color="#117E43"/>
<stop offset="1" stop-color="#0B6631"/>
</linearGradient>
<clipPath id="clip0_610_6358">
<rect width="57" height="53" fill="white" transform="translate(20 22)"/>
</clipPath>
</defs>
</svg>
