<svg width="98" height="98" viewBox="0 0 98 98" fill="none" xmlns="http://www.w3.org/2000/svg">
<rect x="0.585" y="0.585" width="95.94" height="95.94" rx="19.305" fill="url(#paint0_linear_610_5598)" stroke="#DEDEDE" stroke-width="1.17"/>
<g clip-path="url(#clip0_610_5598)">
<path d="M74.5693 22H35.6847C34.3427 22 33.2549 23.0874 33.2549 24.4287V35.25L55.7898 41.875L76.9991 35.25V24.4287C76.9991 23.0874 75.9112 22 74.5693 22Z" fill="#41A5EE"/>
<path d="M76.9991 35.25H33.2549V48.5L55.7898 52.475L76.9991 48.5V35.25Z" fill="#2B7CD3"/>
<path d="M33.2549 48.5V61.75L54.4642 64.4L76.9991 61.75V48.5H33.2549Z" fill="#185ABD"/>
<path d="M35.6847 75H74.5693C75.9112 75 76.9991 73.9126 76.9991 72.5713V61.75H33.2549V72.5713C33.2549 73.9126 34.3427 75 35.6847 75Z" fill="#103F91"/>
<path opacity="0.1" d="M49.3832 32.5996H33.2549V65.7246H49.3832C50.7234 65.7202 51.8087 64.6354 51.813 63.2959V35.0283C51.8087 33.6888 50.7234 32.604 49.3832 32.5996Z" fill="black"/>
<path opacity="0.2" d="M48.0576 33.9248H33.2549V67.0498H48.0576C49.3978 67.0454 50.4831 65.9606 50.4874 64.6211V36.3535C50.4831 35.014 49.3978 33.9292 48.0576 33.9248Z" fill="black"/>
<path opacity="0.2" d="M48.0576 33.9248H33.2549V64.3998H48.0576C49.3978 64.3954 50.4831 63.3106 50.4874 61.9711V36.3535C50.4831 35.014 49.3978 33.9292 48.0576 33.9248Z" fill="black"/>
<path opacity="0.2" d="M46.7321 33.9248H33.2549V64.3998H46.7321C48.0722 64.3954 49.1575 63.3106 49.1619 61.9711V36.3535C49.1575 35.014 48.0722 33.9292 46.7321 33.9248Z" fill="black"/>
<path d="M22.4288 33.9248H46.732C48.074 33.9248 49.1618 35.0122 49.1618 36.3535V60.6461C49.1618 61.9875 48.074 63.0748 46.732 63.0748H22.4288C21.0869 63.0748 19.999 61.9875 19.999 60.6461V36.3535C19.999 35.0122 21.0869 33.9248 22.4288 33.9248Z" fill="url(#paint1_linear_610_5598)"/>
<path d="M29.9701 52.5521C30.0179 52.9271 30.0497 53.253 30.0643 53.5326H30.1199C30.1411 53.2676 30.1853 52.9483 30.2525 52.5746C30.3196 52.201 30.3802 51.8852 30.4341 51.6272L32.9898 40.6059H36.2945L38.9456 51.4616C39.0997 52.1366 39.2099 52.8209 39.2757 53.5101H39.3195C39.3689 52.8423 39.461 52.1785 39.5952 51.5226L41.7095 40.6006H44.7172L41.003 56.3946H37.4888L34.9702 45.935C34.8973 45.6343 34.8138 45.2407 34.7224 44.7571C34.6309 44.2735 34.5739 43.9197 34.5514 43.6971H34.5076C34.4785 43.9541 34.4214 44.3358 34.3366 44.8419C34.2518 45.3481 34.1837 45.7226 34.1324 45.9655L31.7649 56.3919H28.1912L24.457 40.6059H27.5191L29.8217 51.6497C29.8734 51.8763 29.9224 52.1784 29.9701 52.5521Z" fill="white"/>
</g>
<defs>
<linearGradient id="paint0_linear_610_5598" x1="8.19" y1="9.36" x2="86.58" y2="88.335" gradientUnits="userSpaceOnUse">
<stop stop-color="white"/>
<stop offset="1" stop-color="#EAEAEA"/>
</linearGradient>
<linearGradient id="paint1_linear_610_5598" x1="25.0652" y1="32.0271" x2="44.0831" y2="64.9798" gradientUnits="userSpaceOnUse">
<stop stop-color="#2368C4"/>
<stop offset="0.5" stop-color="#1A5DBE"/>
<stop offset="1" stop-color="#1146AC"/>
</linearGradient>
<clipPath id="clip0_610_5598">
<rect width="57" height="53" fill="white" transform="translate(20 22)"/>
</clipPath>
</defs>
</svg>
