<svg width="98" height="98" viewBox="0 0 98 98" fill="none" xmlns="http://www.w3.org/2000/svg">
<rect x="0.585" y="0.585" width="95.94" height="95.94" rx="19.305" fill="url(#paint0_linear_235_2357)" stroke="#DEDEDE" stroke-width="1.17"/>
<g clip-path="url(#clip0_235_2357)">
<path d="M54.5507 20.1133L60.468 20.1522C60.5795 20.2388 60.6697 20.2954 60.7653 20.338C61.8378 20.8229 63.0005 21.17 63.967 21.8143C66.7692 23.6767 69.5056 25.6391 72.2402 27.6007C73.5112 28.5101 74.7641 29.4572 75.9359 30.4871C76.8068 31.252 77.1978 32.3372 77.2001 33.4945L77.1978 69.9126C77.1965 70.4206 77.1095 70.943 76.9681 71.4315C76.3256 73.6582 74.9005 75.182 72.658 75.777C71.4753 76.0901 70.2261 76.1875 68.9994 76.2885C67.0859 76.4476 65.1656 76.5255 63.2484 76.6406L59.6216 76.8672L53.8143 77.2088L50.2442 77.4318L44.3803 77.7716L41.3498 77.8958C41.2523 77.9008 41.1622 78.0372 41.0702 78.1133C38.7638 78.1133 36.4592 78.1133 34.1333 78.0761C34.0218 77.9878 33.9371 77.9166 33.8379 77.8885C32.4323 77.4812 31.2537 76.7045 30.3474 75.5767C29.0923 74.0175 27.8997 72.4102 26.6925 70.8139C25.209 68.8523 23.6869 66.9197 22.285 64.902C21.4609 63.7229 21.0196 62.3189 21.0208 60.8805C21.0168 50.1247 21.0182 39.3688 21.0248 28.613C21.0248 28.3031 21.0792 27.99 21.1327 27.6818C21.6955 24.3704 24.1469 22.6037 27.0623 22.276C28.5757 22.1061 30.0996 22.03 31.6203 21.9294L35.6395 21.6974L37.3672 21.5841L42.5782 21.1346L45.4669 20.9081L50.2514 20.5682L54.2706 20.3308C54.3685 20.324 54.4587 20.1894 54.5507 20.1133ZM31.7562 71.7396C31.9973 72.0527 32.266 72.35 32.4767 72.683C33.498 74.2812 34.9621 74.8617 36.8221 74.738L49.4231 73.9876L63.6041 73.1307L70.6647 72.6758C72.7572 72.5077 73.7677 71.3767 73.8085 69.2773V68.8242L73.8243 34.4488C73.8261 33.4134 73.4686 32.6893 72.6403 32.1107L62.6607 25.0782C61.0553 23.91 59.3511 23.3649 57.3772 23.5208L46.2014 24.3473L34.5157 25.2091L27.181 25.781C25.6993 25.9169 24.7808 26.8232 24.5153 28.2768C24.4504 28.6478 24.419 29.0239 24.4215 29.4005L24.3911 59.4164C24.3807 61.383 24.9824 63.0188 26.1596 64.5232L31.7562 71.7396Z" fill="white"/>
<path d="M31.7296 71.7097L26.1593 64.5231C24.9821 63.0188 24.3803 61.3834 24.3908 59.4169L24.4211 29.401C24.4211 29.0258 24.4492 28.6452 24.5149 28.2772C24.7804 26.824 25.6989 25.9178 27.1806 25.7814L34.5154 25.2096L46.2015 24.3477L57.3769 23.5212C59.3507 23.3653 61.0549 23.9105 62.6603 25.0786C65.9509 27.4734 69.3032 29.7834 72.64 32.1111C73.4683 32.6898 73.8258 33.4138 73.824 34.4492L73.8081 68.8265V69.2796C73.7673 71.3771 72.7569 72.5081 70.6643 72.6762C68.314 72.8656 65.9582 72.988 63.6037 73.1312L49.4227 73.9876L36.8218 74.7384C34.9617 74.8621 33.4977 74.2816 32.4763 72.6835C32.2656 72.3504 31.9969 72.0532 31.7296 71.7097ZM34.6323 50.8696V66.0438L34.6359 68.874C34.6604 70.1432 35.2821 70.7754 36.5508 70.8479C36.8694 70.8655 37.1915 70.8547 37.5119 70.8352L48.1341 70.209L68.4182 69.0494C69.6824 68.9787 70.2665 68.4245 70.3848 67.1717C70.4079 66.9464 70.4006 66.7185 70.4006 66.492L70.4024 37.2758C70.4024 37.1059 70.4079 36.936 70.3974 36.7661C70.3213 35.6033 69.822 35.1289 68.6665 35.1905L58.2125 35.7928C53.3159 36.0776 48.4194 36.3643 43.5231 36.6528L36.1793 37.0937C35.2431 37.1535 34.8199 37.5572 34.6785 38.4725C34.6451 38.7153 34.6303 38.9602 34.6341 39.2052L34.6323 50.8696ZM60.5384 26.9777C59.6516 26.4964 58.6887 26.3369 57.6973 26.3918C56.1734 26.4751 54.6495 26.6007 53.1252 26.7108L31.3983 28.2895C30.7418 28.337 30.0816 28.3846 29.4336 28.502C29.2161 28.5409 28.9415 28.7603 28.8744 28.9587C28.8246 29.0983 29.0444 29.3801 29.2052 29.5342C29.5029 29.8188 29.8459 30.0575 30.1704 30.3145C30.9402 30.9217 31.7595 31.4754 32.4659 32.1465C33.8058 33.4188 35.365 33.7129 37.1512 33.5838L51.2139 32.702L66.3529 31.7939C66.4911 31.7871 66.6293 31.7445 66.9333 31.6879C66.6555 31.3993 66.4942 31.1781 66.284 31.0223C65.5423 30.4745 64.7935 29.9364 64.0378 29.4082C62.8768 28.5902 61.7103 27.78 60.5384 26.9777Z" fill="black"/>
<path d="M34.6327 50.8122L34.6345 39.2045C34.6345 38.9598 34.6418 38.7124 34.6789 38.4718C34.8203 37.5565 35.2435 37.1532 36.1797 37.0929L43.5235 36.652L58.2129 35.792L68.6665 35.1898C69.8224 35.1282 70.3217 35.604 70.3974 36.7653C70.4083 36.9352 70.4028 37.1052 70.4028 37.2751L70.401 66.4912L70.3852 67.1709C70.2669 68.4238 69.6828 68.978 68.4186 69.0487L48.1345 70.2082L37.5123 70.8344L36.5517 70.8471C35.2825 70.7746 34.6608 70.1425 34.6363 68.8751L34.6327 66.0431V50.8122ZM55.3704 50.8421L49.5396 41.9586C49.3362 41.6486 49.1363 41.5462 48.7611 41.587L46.2757 41.7547L41.7037 42.0895C40.58 42.1924 39.9003 43.2491 40.2116 44.3447L42.6331 44.5518V64.169L40.9837 64.6343C40.2524 64.85 39.9392 65.4663 40.1853 66.2538L45.7624 65.9334L47.9591 65.7531C48.9061 65.5972 49.4159 65.0168 49.5432 64.0697L46.4937 63.3742V48.6191L46.7203 48.9362L53.7292 59.8801C54.7595 61.4783 55.8175 63.0585 56.9029 64.6198C57.6764 65.73 58.8164 66.0698 60.0979 65.7934C60.8999 65.6221 61.6698 65.2963 62.4555 65.043C62.8647 64.9103 63.0042 64.666 63.0024 64.2075L62.9888 44.0434C62.9888 42.8648 62.9888 42.8648 64.1547 42.6297C65.3337 42.3922 65.6292 41.9214 65.36 40.6613L58.3139 41.0895C57.5472 41.1443 56.9668 41.785 56.8503 42.5304C56.7932 42.8897 56.8675 43.0878 57.2976 43.1127L59.4309 43.3483V57.0232C58.0796 54.9619 56.7262 52.9022 55.3704 50.8439V50.8421ZM60.5773 26.9964C61.734 27.7952 62.8873 28.5987 64.0373 29.407C64.7932 29.9354 65.5421 30.4736 66.2839 31.0215C66.4942 31.1774 66.6555 31.3985 66.9333 31.6871L66.3528 31.7932L51.2139 32.7012L37.1512 33.583C35.3649 33.7122 33.8057 33.4181 32.4659 32.1457C31.7594 31.4751 30.9402 30.9209 30.1699 30.3137C29.8459 30.0568 29.5029 29.818 29.2052 29.533C29.0443 29.3789 28.8245 29.098 28.8744 28.9575C28.9414 28.7595 29.2179 28.5402 29.4335 28.5012C30.0815 28.3843 30.7417 28.3363 31.3983 28.2887L53.1256 26.71L57.6977 26.391C58.6887 26.3366 59.6515 26.4952 60.5773 26.9964Z" fill="white"/>
<path d="M55.3949 50.8755L59.4309 57.023V43.3477L57.298 43.1121C56.8676 43.0876 56.7932 42.8896 56.8499 42.5303C56.9668 41.7849 57.5477 41.1442 58.3135 41.0893L65.36 40.6611C65.6292 41.9208 65.3337 42.3921 64.1547 42.6291C62.9884 42.8629 62.9884 42.8629 62.9884 44.0433L63.0024 64.2073C63.0042 64.6659 62.8647 64.9101 62.4555 65.0429L60.0979 65.7933C58.8164 66.0679 57.6764 65.7298 56.9034 64.6197C55.8184 63.058 54.7604 61.4779 53.7297 59.88L46.7198 48.9356C46.6704 48.8577 46.6138 48.7852 46.4933 48.6189V63.374L49.5432 64.0696C49.4159 65.0166 48.9062 65.5966 47.9591 65.7529C47.2368 65.8712 46.4955 65.8889 45.7624 65.9333L40.1853 66.2536C39.9393 65.4661 40.2524 64.8499 40.9837 64.6342L42.6331 64.1688V44.5517L40.2116 44.3446C39.9003 43.2489 40.58 42.1922 41.7037 42.0894C43.2244 41.9476 44.7519 41.861 46.2758 41.755C47.1041 41.6983 47.936 41.677 48.7612 41.5869C49.1363 41.5461 49.3366 41.6485 49.5396 41.9584L55.3949 50.8755Z" fill="black"/>
</g>
<defs>
<linearGradient id="paint0_linear_235_2357" x1="8.19" y1="9.36" x2="86.58" y2="88.335" gradientUnits="userSpaceOnUse">
<stop stop-color="white"/>
<stop offset="1" stop-color="#EAEAEA"/>
</linearGradient>
<clipPath id="clip0_235_2357">
<rect width="58" height="58" fill="white" transform="translate(20 20)"/>
</clipPath>
</defs>
</svg>
