<svg width="98" height="98" viewBox="0 0 98 98" fill="none" xmlns="http://www.w3.org/2000/svg">
<g clip-path="url(#clip0_153_1770)">
<rect x="0.585" y="0.585" width="95.94" height="95.94" rx="19.305" fill="url(#paint0_linear_153_1770)" stroke="#DEDEDE" stroke-width="1.17"/>
<path d="M71.5843 43.5067C72.1738 41.6548 72.3776 39.6929 72.1823 37.7522C71.987 35.8115 71.397 33.9367 70.4517 32.2528C67.5763 27.0308 61.7969 24.3446 56.1527 25.6069C54.5899 23.7932 52.5972 22.4404 50.3747 21.6845C48.1523 20.9286 45.7783 20.7961 43.4912 21.3003C41.2042 21.8045 39.0845 22.9277 37.3452 24.5571C35.6058 26.1864 34.308 28.2646 33.582 30.5829C31.7494 30.9749 30.0181 31.7706 28.5038 32.9167C26.9895 34.0628 25.7271 35.533 24.8009 37.2289C21.8942 42.4426 22.5542 49.0191 26.4327 53.492C25.841 55.3431 25.6351 57.3046 25.8287 59.2453C26.0222 61.1861 26.6107 63.0614 27.5549 64.7457C30.434 69.9697 36.217 72.6556 41.8643 71.3917C43.1059 72.8504 44.6315 74.016 46.3393 74.8106C48.047 75.6053 49.8976 76.0107 51.7674 75.9998C57.5526 76.0051 62.6781 72.1086 64.4453 66.3612C66.2777 65.9684 68.0087 65.1725 69.5229 64.0264C71.037 62.8804 72.2996 61.4106 73.2262 59.7152C76.0978 54.5107 75.4352 47.9699 71.5843 43.5067ZM51.7674 72.4C49.4582 72.4038 47.2214 71.5594 45.4492 70.0148L45.761 69.8304L56.2565 63.5097C56.5177 63.3499 56.7346 63.1219 56.8859 62.8482C57.0371 62.5745 57.1175 62.2644 57.1192 61.9485V46.5097L61.5564 49.1876C61.6007 49.2111 61.6316 49.2554 61.6395 49.3069V62.1002C61.6281 67.7836 57.2148 72.3881 51.7674 72.4ZM30.5478 62.946C29.3897 60.8597 28.9739 58.4142 29.3735 56.0396L29.6851 56.2348L40.1911 62.5557C40.4511 62.7148 40.747 62.7987 41.0484 62.7987C41.3498 62.7987 41.6458 62.7148 41.9057 62.5557L54.7394 54.8363V60.1812C54.7382 60.2089 54.731 60.236 54.7184 60.2604C54.7058 60.2848 54.6881 60.3059 54.6666 60.3222L44.0361 66.7189C39.312 69.5583 33.2765 67.8699 30.5478 62.946ZM27.7834 39.0938C28.9496 36.9941 30.7902 35.3926 32.9794 34.5728V47.5829C32.9754 47.8972 33.0524 48.2069 33.2023 48.4797C33.3522 48.7524 33.5695 48.9781 33.8315 49.1334L46.6028 56.8203L42.1655 59.4982C42.1415 59.5115 42.1148 59.5184 42.0876 59.5184C42.0604 59.5184 42.0337 59.5115 42.0097 59.4982L31.3999 53.1127C26.6851 50.2614 25.0683 43.9694 27.7834 39.0398V39.0938ZM64.2375 47.93L51.4244 40.1672L55.8515 37.5001C55.8755 37.4868 55.9023 37.4799 55.9295 37.4799C55.9567 37.4799 55.9834 37.4868 56.0075 37.5001L66.6173 43.8969C68.2395 44.8735 69.562 46.3114 70.4304 48.0428C71.2987 49.7741 71.6771 51.7275 71.5212 53.6748C71.3654 55.6221 70.6819 57.4829 69.5504 59.0401C68.4189 60.5973 66.8862 61.7865 65.1312 62.469V49.4587C65.122 49.1449 65.0348 48.839 64.8781 48.571C64.7215 48.303 64.5007 48.0821 64.2375 47.93ZM68.6538 41.0022L68.342 40.8068L57.8569 34.4319C57.5954 34.2718 57.2977 34.1874 56.9944 34.1874C56.6912 34.1874 56.3935 34.2718 56.132 34.4319L43.3085 42.1515V36.8065C43.3058 36.7793 43.3101 36.7519 43.3211 36.7271C43.3321 36.7023 43.3493 36.681 43.3708 36.6656L53.9807 30.2796C55.6068 29.3023 57.466 28.8282 59.3408 28.9128C61.2157 28.9974 63.0287 29.6372 64.5678 30.7574C66.1069 31.8776 67.3086 33.4319 68.0321 35.2384C68.7556 37.0449 68.9712 39.0291 68.6536 40.9587L68.6538 41.0022ZM40.8874 50.4778L36.4502 47.8107C36.428 47.7967 36.409 47.7778 36.3946 47.7553C36.3803 47.7328 36.3708 47.7073 36.3669 47.6806V34.9199C36.3694 32.9623 36.9059 31.0459 37.9138 29.3948C38.9217 27.7436 40.3593 26.426 42.0586 25.5958C43.7578 24.7657 45.6484 24.4574 47.5094 24.707C49.3704 24.9566 51.1248 25.7538 52.5675 27.0054L52.2557 27.1897L41.7603 33.5104C41.4991 33.6703 41.2822 33.8982 41.131 34.172C40.9798 34.4457 40.8994 34.7557 40.8978 35.0717L40.8874 50.4778ZM43.2981 45.0567L49.0137 41.62L54.7394 45.057V51.9306L49.0344 55.3676L43.3087 51.9306L43.2981 45.0567Z" fill="black"/>
</g>
<defs>
<linearGradient id="paint0_linear_153_1770" x1="8.19" y1="9.36" x2="86.58" y2="88.335" gradientUnits="userSpaceOnUse">
<stop stop-color="white"/>
<stop offset="1" stop-color="#EAEAEA"/>
</linearGradient>
<clipPath id="clip0_153_1770">
<rect width="97.11" height="97.11" fill="white"/>
</clipPath>
</defs>
</svg>
