<svg width="98" height="98" viewBox="0 0 98 98" fill="none" xmlns="http://www.w3.org/2000/svg">
<rect x="0.585" y="0.585" width="95.94" height="95.94" rx="19.305" fill="url(#paint0_linear_467_3224)" stroke="#DEDEDE" stroke-width="1.17"/>
<path d="M27.0145 35.0961C26.7025 35.2951 26.4458 35.5702 26.2684 35.8958C26.091 36.2213 25.9986 36.5866 26 36.9577V65.0852C26.0049 65.9275 26.2469 66.7513 26.6982 67.4616C27.1495 68.1718 27.7917 68.7395 28.5507 69.0993L45.8261 77.3019C46.8214 77.7618 47.9042 78 49 78C50.0958 78 51.1786 77.7618 52.1739 77.3019L69.4492 69.0993C70.2082 68.7395 70.8504 68.1718 71.3018 67.4616C71.7531 66.7513 71.9951 65.9275 72 65.0852V36.9577C72.0019 36.5832 71.9067 36.2146 71.7238 35.8883C71.5408 35.5619 71.2764 35.2889 70.9565 35.0961L64.4927 31.751V28.8423C64.4922 28.3071 64.3415 27.783 64.0579 27.3297L60.2029 21.0468C60.0092 20.7272 59.7368 20.463 59.4119 20.2797C59.087 20.0963 58.7206 20 58.3478 20C57.9751 20 57.6086 20.0963 57.2837 20.2797C56.9588 20.463 56.6864 20.7272 56.4927 21.0468L52.7681 27.1843L50.8551 24.0719C50.6567 23.7588 50.3826 23.5012 50.0582 23.3232C49.7338 23.1451 49.3697 23.0525 49 23.0539C48.6295 23.0649 48.2671 23.166 47.944 23.3483C47.6209 23.5307 47.3467 23.789 47.1449 24.101L45.2609 27.1843L41.4638 21.0468C41.2701 20.7272 40.9977 20.463 40.6728 20.2797C40.3479 20.0963 39.9815 20 39.6087 20C39.2359 20 38.8695 20.0963 38.5446 20.2797C38.2197 20.463 37.9473 20.7272 37.7536 21.0468L33.942 27.3297C33.6585 27.783 33.5078 28.3071 33.5073 28.8423V31.751L27.0145 35.0961ZM64.4927 35.067L66.5217 36.085L64.4927 37.0449V35.067ZM57.4203 25.09H59.2753L60.7246 27.4461H55.971L57.4203 25.09ZM61.5942 30.3548V38.412L59.8261 39.2556V30.3548H61.5942ZM55.1304 30.3548H56.9275V40.6227L55.1304 41.4953V30.3548ZM38.6957 25.09H40.5507L42 27.4461H37.2464L38.6957 25.09ZM42.8696 30.3548V41.4662L41.1014 40.6227V30.3548H42.8696ZM36.4058 30.3548H38.2029V39.2556L36.4058 38.412V30.3548ZM33.5073 35.067V37.0449L31.4783 36.085L33.5073 35.067ZM29.7681 66.4523C29.5088 66.3308 29.2893 66.1377 29.1353 65.8956C28.9813 65.6535 28.8992 65.3724 28.8986 65.0852V38.063L47.5362 46.9056V74.8004L29.7681 66.4523ZM47.5362 43.6769L45.7681 42.8333V33.409H47.5362V43.6769ZM46.6087 30.5003L48.087 28.1151H49.8841L51.3623 30.5003H46.6087ZM52.2319 33.409V42.8624L50.4348 43.7059V33.409H52.2319ZM50.4493 74.8295V46.9346L69.1159 38.063V65.0852C69.1157 65.3763 69.0304 65.6609 68.8707 65.9038C68.711 66.1468 68.4839 66.3375 68.2174 66.4523L50.4493 74.8295Z" fill="black"/>
<defs>
<linearGradient id="paint0_linear_467_3224" x1="8.19" y1="9.36" x2="86.58" y2="88.335" gradientUnits="userSpaceOnUse">
<stop stop-color="white"/>
<stop offset="1" stop-color="#EAEAEA"/>
</linearGradient>
</defs>
</svg>
