<svg width="98" height="98" viewBox="0 0 98 98" fill="none" xmlns="http://www.w3.org/2000/svg">
<g clip-path="url(#clip0_551_4169)">
<rect x="0.695352" y="0.585" width="95.94" height="95.94" rx="19.305" fill="url(#paint0_linear_551_4169)" stroke="#DEDEDE" stroke-width="1.17"/>
<path d="M65.4512 39.7545C65.4512 32.72 59.7257 27 52.6857 27H31.5547V34.0767H51.681C54.8674 34.0767 57.5055 36.581 57.5642 39.6573C57.5808 40.4137 57.4452 41.1657 57.1656 41.8686C56.8859 42.5715 56.4678 43.2111 55.9362 43.7493C55.4083 44.2909 54.777 44.7208 54.0797 45.0137C53.3824 45.3066 52.6335 45.4564 51.8772 45.4543H44.036C43.9025 45.4548 43.7745 45.5081 43.6801 45.6025C43.5856 45.697 43.5323 45.8249 43.5319 45.9585V52.2487C43.5319 52.3587 43.5636 52.4577 43.6272 52.5457L56.9299 71H66.6667L53.3329 52.4943C60.0484 52.157 65.4512 46.5177 65.4512 39.7545ZM39.7497 37.8588H31.5547V71H39.7497V37.8588Z" fill="white"/>
</g>
<defs>
<linearGradient id="paint0_linear_551_4169" x1="8.30035" y1="9.36" x2="86.6903" y2="88.335" gradientUnits="userSpaceOnUse">
<stop/>
<stop offset="1" stop-color="#303030"/>
</linearGradient>
<clipPath id="clip0_551_4169">
<rect width="97.11" height="97.11" fill="white" transform="translate(0.110352)"/>
</clipPath>
</defs>
</svg>
