<svg width="98" height="98" viewBox="0 0 98 98" fill="none" xmlns="http://www.w3.org/2000/svg">
<rect x="0.585" y="0.585" width="95.94" height="95.94" rx="19.305" fill="#CC071E" stroke="#DEDEDE" stroke-width="1.17"/>
<g clip-path="url(#clip0_894_6832)">
<path d="M86.7743 35.459H11.1982V61.7174H86.7743V35.459Z" fill="#CC071E"/>
<path d="M19.3343 57.5409C20.3322 57.5409 20.8047 57.0684 20.8047 56.0969V50.7923H20.8576L23.9572 56.1221C24.5355 57.12 25.0345 57.5409 25.9266 57.5409H29.0514C29.8074 57.5409 30.4374 57.2523 30.4374 56.6475C30.4374 56.4115 30.3324 56.1225 30.1224 55.7807L26.2882 50.1107C28.7628 49.1921 29.8389 47.4281 29.8389 45.329C29.8389 41.7833 27.7385 39.6829 22.2234 39.6829H16.8395C15.8617 39.6816 15.3955 40.1554 15.3955 41.1533V56.0969C15.3955 57.0684 15.868 57.5409 16.8395 57.5409H19.3343ZM20.8047 47.5088V43.7741H21.9601C23.5099 43.7741 24.1664 44.4306 24.1664 45.6389C24.1664 46.8473 23.5099 47.5088 21.9601 47.5088H20.8047ZM43.6006 57.5409C44.5985 57.5409 45.071 57.0684 45.071 56.0969V54.8092C45.071 53.8113 44.5985 53.3388 43.6006 53.3388H37.7177V50.66H42.0243C43.0223 50.66 43.4948 50.1875 43.4948 49.2161V47.9321C43.4948 46.9342 43.0223 46.4617 42.0243 46.4617H37.7177V43.8837H42.8131C43.811 43.8837 44.2835 43.4112 44.2835 42.4398V41.1533C44.2835 40.1554 43.811 39.6829 42.8131 39.6829H33.6479C32.6764 39.6829 32.2039 40.1554 32.2039 41.1533V56.0969C32.2039 57.0684 32.6764 57.5409 33.6479 57.5409H43.6006ZM60.0877 41.1004C59.8773 40.1025 59.3783 39.6816 58.2758 39.6816H56.0494C54.9469 39.6816 54.4479 40.1012 54.2375 41.1004L52.4508 49.8725H52.4017L50.954 41.1004C50.7965 40.1025 50.2975 39.6816 49.1421 39.6816H46.9837C46.0904 39.6816 45.5977 40.076 45.5977 40.8635C45.6018 41.0583 45.6284 41.252 45.6771 41.4406L49.1169 56.0944C49.3538 57.0659 49.8263 57.5384 51.0598 57.5384H53.2131C54.3156 57.5384 54.8146 57.1175 55.025 56.1196L56.9944 46.5335H57.0473L59.0167 56.1221C59.2271 57.12 59.7261 57.5409 60.8286 57.5409H62.9857C64.2205 57.5409 64.693 57.0684 64.9286 56.0969L68.3684 41.4431C68.4172 41.2545 68.4439 41.0608 68.4478 40.866C68.4478 40.0785 67.9224 39.6842 67.0618 39.6842H65.2146C64.0592 39.6842 63.5603 40.1037 63.4028 41.1029L61.9575 49.8725H61.9046L60.0877 41.1004ZM81.1562 57.5409C82.1541 57.5409 82.6266 57.0684 82.6266 56.0969V54.8092C82.6266 53.8113 82.1541 53.3388 81.1562 53.3388H75.2732V50.66H79.5799C80.5778 50.66 81.0503 50.1875 81.0503 49.2161V47.9321C81.0503 46.9342 80.5778 46.4617 79.5799 46.4617H75.2732V43.8837H80.3737C81.3716 43.8837 81.8441 43.4112 81.8441 42.4398V41.1533C81.8441 40.1554 81.3716 39.6829 80.3737 39.6829H71.2022C70.2307 39.6829 69.7582 40.1554 69.7582 41.1533V56.0969C69.7582 57.0684 70.2307 57.5409 71.2022 57.5409H81.1562Z" fill="white"/>
</g>
<defs>
<clipPath id="clip0_894_6832">
<rect width="75.5761" height="26.2584" fill="white" transform="translate(11.1982 35.459)"/>
</clipPath>
</defs>
</svg>
