<svg width="98" height="98" viewBox="0 0 98 98" fill="none" xmlns="http://www.w3.org/2000/svg">
<rect x="0.585" y="0.585" width="95.94" height="95.94" rx="19.305" fill="url(#paint0_linear_754_6468)" stroke="#DEDEDE" stroke-width="1.17"/>
<path fill-rule="evenodd" clip-rule="evenodd" d="M72.0499 48.2577C72.0499 41.3976 69.3859 34.8184 64.6439 29.9676C59.9019 25.1168 53.4704 22.3916 46.7642 22.3916C40.058 22.3916 33.6265 25.1168 28.8845 29.9676C24.1425 34.8184 21.4785 41.3976 21.4785 48.2577C21.4785 55.1178 24.1425 61.697 28.8845 66.5478C33.6265 71.3986 40.058 74.1238 46.7642 74.1238C53.4704 74.1238 59.9019 71.3986 64.6439 66.5478C69.3859 61.697 72.0499 55.1178 72.0499 48.2577Z" fill="url(#paint1_linear_754_6468)"/>
<path d="M72.0499 48.2577C72.0499 41.3976 69.3859 34.8184 64.6439 29.9676C59.9019 25.1168 53.4704 22.3916 46.7642 22.3916C40.058 22.3916 33.6265 25.1168 28.8845 29.9676C24.1425 34.8184 21.4785 41.3976 21.4785 48.2577C21.4785 55.1178 24.1425 61.697 28.8845 66.5478C33.6265 71.3986 40.058 74.1238 46.7642 74.1238C53.4704 74.1238 59.9019 71.3986 64.6439 66.5478C69.3859 61.697 72.0499 55.1178 72.0499 48.2577ZM72.0499 48.2577H46.7642" stroke="black" stroke-width="1.06102"/>
<path fill-rule="evenodd" clip-rule="evenodd" d="M71.5287 47.9115C71.5287 41.265 68.9332 34.8906 64.3131 30.1908C59.6931 25.4909 53.427 22.8506 46.8932 22.8506C40.3595 22.8506 34.0934 25.4909 29.4734 30.1908C24.8533 34.8906 22.2578 41.265 22.2578 47.9115C22.2578 54.5581 24.8533 60.9325 29.4734 65.6323C34.0934 70.3322 40.3595 72.9725 46.8932 72.9725C53.427 72.9725 59.6931 70.3321 64.3131 65.6323C68.9332 60.9325 71.5287 54.5581 71.5287 47.9115Z" fill="url(#paint2_linear_754_6468)"/>
<path fill-rule="evenodd" clip-rule="evenodd" d="M74.081 32.8831C74.959 32.0778 75.1821 30.7846 74.7011 29.2881C74.2201 27.7916 73.0744 26.2143 71.5161 24.9033C69.9579 23.5922 68.1146 22.6548 66.3919 22.2972C64.6691 21.9396 63.208 22.1911 62.33 22.9965C61.4519 23.8018 61.2289 25.0949 61.7099 26.5914C62.1909 28.088 63.3365 29.6652 64.8948 30.9763C66.4531 32.2873 68.2963 33.2247 70.0191 33.5823C71.7418 33.9399 73.2029 33.6884 74.081 32.8831Z" fill="#060000"/>
<path d="M74.081 32.8831C74.959 32.0778 75.1821 30.7846 74.7011 29.2881C74.2201 27.7916 73.0744 26.2143 71.5161 24.9033C69.9579 23.5922 68.1146 22.6548 66.3919 22.2972C64.6691 21.9396 63.208 22.1911 62.33 22.9965C61.4519 23.8018 61.2289 25.0949 61.7099 26.5914C62.1909 28.088 63.3365 29.6652 64.8948 30.9763C66.4531 32.2873 68.2963 33.2247 70.0191 33.5823C71.7418 33.9399 73.2029 33.6884 74.081 32.8831ZM74.081 32.8831L68.2055 27.9398" stroke="black" stroke-width="0.0749201"/>
<path fill-rule="evenodd" clip-rule="evenodd" d="M43.5624 67.81C43.5624 67.81 36.6632 56.8907 42.0181 45.8581C46.274 36.9895 47.5949 28.8241 44.1333 23.0469C37.9857 23.8132 32.634 26.955 29.9824 29.638C25.9659 33.5521 24.0441 37.6556 23.1738 40.5241C24.3342 54.6689 43.6591 68.1068 43.5624 67.81Z" fill="url(#paint3_linear_754_6468)" fill-opacity="0.75" stroke="#F6F7F7" stroke-opacity="0.392857" stroke-width="0.104318"/>
<path fill-rule="evenodd" clip-rule="evenodd" d="M45.328 68.3507C45.1448 68.1795 54.3457 54.5373 65.5928 52.6849C65.6273 37.9794 72.3888 32.5699 72.8168 31.6492C71.9131 26.7639 69.2598 24.9187 66.865 24.5301C62.806 24.0128 63.5679 25.8338 63.0692 26.3187C60.3225 32.5212 54.5704 41.2772 53.7585 42.8429C51.474 46.0084 46.6362 61.6318 44.7012 68.3197L45.328 68.3507Z" fill="url(#paint4_linear_754_6468)" stroke="#323232" stroke-width="0.450806"/>
<path fill-rule="evenodd" clip-rule="evenodd" d="M54.8846 45.7997C55.1569 45.3461 55.3573 44.8704 55.4415 44.4773C55.5258 44.0841 55.487 43.8056 55.3337 43.703C55.1805 43.6005 54.9253 43.6823 54.6243 43.9305C54.3233 44.1787 54.0012 44.5729 53.7289 45.0264C53.4565 45.48 53.2561 45.9557 53.1719 46.3489C53.0877 46.7421 53.1265 47.0206 53.2797 47.1231C53.433 47.2256 53.6882 47.1438 53.9891 46.8956C54.2901 46.6474 54.6122 46.2532 54.8846 45.7997Z" fill="#665123"/>
<path fill-rule="evenodd" clip-rule="evenodd" d="M53.4734 47.0201L53.2932 46.8848C53.086 46.7291 46.1368 64.9699 45.0645 68.2378C46.1302 64.792 52.4008 48.4578 53.4734 47.0201Z" fill="#665123" stroke="#665123" stroke-width="0.13913"/>
<path fill-rule="evenodd" clip-rule="evenodd" d="M57.3721 53.1677C59.8118 51.2496 60.8871 49.6886 63.3027 49.2129C62.8854 43.2153 67.4951 35.973 71.2422 29.201L70.5674 27.9834C69.0174 30.331 59.8058 47.199 57.3721 53.1677Z" fill="url(#paint5_linear_754_6468)"/>
<defs>
<linearGradient id="paint0_linear_754_6468" x1="8.19" y1="9.36" x2="86.58" y2="88.335" gradientUnits="userSpaceOnUse">
<stop stop-color="white"/>
<stop offset="1" stop-color="#EAEAEA"/>
</linearGradient>
<linearGradient id="paint1_linear_754_6468" x1="25.7908" y1="25.2207" x2="46.9604" y2="71.7462" gradientUnits="userSpaceOnUse">
<stop stop-color="#66B8FF"/>
<stop offset="1" stop-color="#00507A"/>
</linearGradient>
<linearGradient id="paint2_linear_754_6468" x1="26.4592" y1="25.5916" x2="46.8948" y2="70.7547" gradientUnits="userSpaceOnUse">
<stop stop-color="#66B8FF"/>
<stop offset="1" stop-color="#00507A"/>
</linearGradient>
<linearGradient id="paint3_linear_754_6468" x1="34.1288" y1="25.4951" x2="55.9475" y2="53.989" gradientUnits="userSpaceOnUse">
<stop stop-color="#B9E5FF" stop-opacity="0.419643"/>
<stop offset="1" stop-color="white"/>
</linearGradient>
<linearGradient id="paint4_linear_754_6468" x1="56.8125" y1="40.2194" x2="61.778" y2="42.7858" gradientUnits="userSpaceOnUse">
<stop stop-color="#FFF2BC"/>
<stop offset="1" stop-color="#83560B"/>
</linearGradient>
<linearGradient id="paint5_linear_754_6468" x1="64.7317" y1="34.4762" x2="75.277" y2="39.1698" gradientUnits="userSpaceOnUse">
<stop stop-color="#FFF9DB" stop-opacity="0.732143"/>
<stop offset="1" stop-color="#2C2C2C"/>
</linearGradient>
</defs>
</svg>
