<svg width="98" height="98" viewBox="0 0 98 98" fill="none" xmlns="http://www.w3.org/2000/svg">
<rect x="0.585" y="0.585" width="95.94" height="95.94" rx="19.305" fill="url(#paint0_linear_732_6150)" stroke="#DEDEDE" stroke-width="1.17"/>
<g clip-path="url(#clip0_732_6150)">
<path d="M34.0723 55.7919C34.0723 58.7697 31.6437 61.2019 28.6655 61.2019C25.6873 61.2019 23.2559 58.7697 23.2559 55.7919C23.2559 52.8141 25.6881 50.3818 28.6659 50.3818H34.0727L34.0723 55.7919ZM36.7978 55.7919C36.7978 52.8141 39.23 50.3818 42.2078 50.3818C45.1856 50.3818 47.6179 52.8136 47.6179 55.7919V69.3342C47.6179 72.312 45.186 74.7442 42.2078 74.7442C39.23 74.7442 36.7978 72.312 36.7978 69.3342V55.7919Z" fill="#DE1C59"/>
<path d="M42.2078 34.0723C39.23 34.0723 36.7978 31.6437 36.7978 28.6655C36.7978 25.6873 39.23 23.2559 42.2078 23.2559C45.1856 23.2559 47.6179 25.6881 47.6179 28.6659V34.0727L42.2078 34.0723ZM42.2078 36.7978C45.1856 36.7978 47.6179 39.23 47.6179 42.2078C47.6179 45.1856 45.186 47.6179 42.2078 47.6179H28.6655C25.6877 47.6179 23.2559 45.186 23.2559 42.2078C23.2559 39.23 25.6881 36.7978 28.6659 36.7978H42.2078Z" fill="#35C5F0"/>
<path d="M63.9274 42.2078C63.9274 39.23 66.356 36.7978 69.3342 36.7978C72.3124 36.7978 74.7442 39.23 74.7442 42.2078C74.7442 45.1856 72.312 47.6179 69.3342 47.6179H63.9274V42.2078ZM61.2019 42.2078C61.2019 45.1856 58.7697 47.6179 55.7919 47.6179C52.8141 47.6179 50.3818 45.186 50.3818 42.2078V28.6655C50.3818 25.6877 52.8136 23.2559 55.7919 23.2559C58.7697 23.2559 61.2019 25.6881 61.2019 28.6659V42.2078Z" fill="#2EB57D"/>
<path d="M55.7919 63.9274C58.7697 63.9274 61.2019 66.356 61.2019 69.3342C61.2019 72.3124 58.7697 74.7442 55.7919 74.7442C52.8141 74.7442 50.3818 72.312 50.3818 69.3342V63.9274H55.7919ZM55.7919 61.2019C52.8141 61.2019 50.3818 58.7697 50.3818 55.7919C50.3818 52.8141 52.8136 50.3818 55.7919 50.3818H69.3342C72.312 50.3818 74.7442 52.8136 74.7442 55.7919C74.7442 58.7697 72.312 61.2019 69.3342 61.2019H55.7919Z" fill="#EBB02E"/>
</g>
<defs>
<linearGradient id="paint0_linear_732_6150" x1="8.19" y1="9.36" x2="86.58" y2="88.335" gradientUnits="userSpaceOnUse">
<stop stop-color="white"/>
<stop offset="1" stop-color="#EAEAEA"/>
</linearGradient>
<clipPath id="clip0_732_6150">
<rect width="52" height="52" fill="white" transform="translate(23 23)"/>
</clipPath>
</defs>
</svg>
