<svg width="98" height="98" viewBox="0 0 98 98" fill="none" xmlns="http://www.w3.org/2000/svg">
<rect x="0.585" y="0.585" width="95.94" height="95.94" rx="19.305" fill="white" stroke="#DEDEDE" stroke-width="1.17"/>
<path d="M47.92 42.34C47.92 45.4 45.4 47.92 42.34 47.92C39.28 47.92 36.76 45.4 36.76 42.34C36.76 39.28 39.28 36.76 42.34 36.76C45.4 36.76 47.92 39.28 47.92 42.34ZM42.34 50.08C39.28 50.08 36.76 52.6 36.76 55.66C36.76 58.72 39.28 61.24 42.34 61.24C45.4 61.24 47.92 58.72 47.92 55.66C47.92 52.6 45.4 50.08 42.34 50.08ZM76 49C76 63.94 63.94 76 49 76C34.06 76 22 63.94 22 49C22 34.06 34.06 22 49 22C63.94 22 76 34.06 76 49ZM68.8 49C68.8 38.02 59.98 29.2 49 29.2C38.02 29.2 29.2 38.02 29.2 49C29.2 59.98 38.02 68.8 49 68.8C59.98 68.8 68.8 59.98 68.8 49ZM55.66 50.08C52.6 50.08 50.08 52.6 50.08 55.66C50.08 58.72 52.6 61.24 55.66 61.24C58.72 61.24 61.24 58.72 61.24 55.66C61.24 52.6 58.72 50.08 55.66 50.08ZM55.66 36.76C52.6 36.76 50.08 39.28 50.08 42.34C50.08 45.4 52.6 47.92 55.66 47.92C58.72 47.92 61.24 45.4 61.24 42.34C61.24 39.28 58.72 36.76 55.66 36.76Z" fill="#F22F46"/>
</svg>
