<svg width="98" height="98" viewBox="0 0 98 98" fill="none" xmlns="http://www.w3.org/2000/svg">
<rect x="0.585" y="0.585" width="95.94" height="95.94" rx="19.305" fill="url(#paint0_linear_295_2891)" stroke="#DEDEDE" stroke-width="1.17"/>
<path d="M75.0201 27.0599L63.4881 21.5079C62.8368 21.1938 62.104 21.0902 61.3912 21.2114C60.6785 21.3325 60.021 21.6724 59.5101 22.1839L21.7601 56.5999C21.302 57.0155 21.0279 57.596 20.9979 58.2137C20.9679 58.8315 21.1845 59.4358 21.6001 59.8939C21.6501 59.9479 21.7001 59.9999 21.7541 60.0479L24.8361 62.8479C25.2388 63.2144 25.7572 63.4283 26.3012 63.4524C26.8452 63.4765 27.3805 63.3093 27.8141 62.9799L73.2841 28.4999C73.6275 28.2392 74.0369 28.0797 74.4661 28.0391C74.8953 27.9985 75.3273 28.0786 75.7135 28.2702C76.0997 28.4618 76.4248 28.7575 76.6521 29.1238C76.8794 29.4902 76.9999 29.9127 77.0001 30.3439V30.2099C77 29.5517 76.8142 28.9068 76.4639 28.3496C76.1136 27.7923 75.6132 27.3453 75.0201 27.0599Z" fill="#0065A9"/>
<path d="M75.0201 70.9403L63.4881 76.4943C62.8366 76.8074 62.104 76.9105 61.3915 76.7894C60.6789 76.6684 60.0215 76.329 59.5101 75.8183L21.7601 41.4003C21.302 40.9847 21.0279 40.4042 20.9979 39.7864C20.9679 39.1687 21.1845 38.5643 21.6001 38.1063C21.6501 38.0523 21.7001 38.0003 21.7541 37.9523L24.8361 35.1523C25.2392 34.7842 25.7588 34.5694 26.3041 34.5452C26.8495 34.5211 27.386 34.6892 27.8201 35.0203L73.2841 69.5003C73.6275 69.7609 74.0369 69.9205 74.4661 69.9611C74.8953 70.0016 75.3273 69.9216 75.7135 69.7299C76.0997 69.5383 76.4248 69.2427 76.6521 68.8763C76.8794 68.5099 76.9999 68.0874 77.0001 67.6563V67.8003C76.9979 68.4567 76.8111 69.0993 76.4609 69.6546C76.1108 70.2099 75.6115 70.6554 75.0201 70.9403Z" fill="#007ACC"/>
<path d="M63.488 76.4944C62.8365 76.8075 62.1039 76.9106 61.3914 76.7895C60.6788 76.6684 60.0214 76.3291 59.51 75.8184C59.7972 76.1018 60.1616 76.2942 60.5577 76.3714C60.9538 76.4487 61.3639 76.4072 61.7365 76.2524C62.1092 76.0976 62.4278 75.8362 62.6526 75.5011C62.8773 75.1659 62.9982 74.7719 63 74.3684V23.6324C63.0003 23.2269 62.8803 22.8305 62.6551 22.4934C62.43 22.1562 62.1099 21.8935 61.7353 21.7384C61.3607 21.5833 60.9485 21.5429 60.5509 21.6223C60.1533 21.7017 59.7883 21.8973 59.502 22.1844C60.013 21.6731 60.6703 21.3332 61.383 21.2117C62.0956 21.0902 62.8284 21.1932 63.48 21.5064L75.01 27.0504C75.6049 27.3344 76.1075 27.7808 76.4596 28.3382C76.8117 28.8955 76.999 29.5411 77 30.2004V67.8004C77.0001 68.4591 76.8141 69.1045 76.4635 69.6622C76.1128 70.2198 75.6117 70.6671 75.018 70.9524L63.488 76.4944Z" fill="#1F9CF0"/>
<defs>
<linearGradient id="paint0_linear_295_2891" x1="8.19" y1="9.36" x2="86.58" y2="88.335" gradientUnits="userSpaceOnUse">
<stop stop-color="white"/>
<stop offset="1" stop-color="#EAEAEA"/>
</linearGradient>
</defs>
</svg>
