<svg width="98" height="98" viewBox="0 0 98 98" fill="none" xmlns="http://www.w3.org/2000/svg">
<g clip-path="url(#clip0_148_1303)">
<rect x="0.585" y="0.585" width="95.94" height="95.94" rx="19.305" fill="url(#paint0_linear_148_1303)" stroke="#DEDEDE" stroke-width="1.17"/>
<g clip-path="url(#clip1_148_1303)">
<path d="M72.8737 36.615C72.5811 35.5297 72.0105 34.5403 71.2186 33.7453C70.4267 32.9502 69.4412 32.3773 68.3602 32.0836C64.4025 31 48.4741 31 48.4741 31C48.4741 31 32.545 31.0328 28.5873 32.1164C27.5063 32.4101 26.5207 32.9831 25.7288 33.7781C24.9369 34.5732 24.3663 35.5627 24.0738 36.648C22.8767 43.7076 22.4123 54.4648 24.1067 61.242C24.3992 62.3273 24.9698 63.3167 25.7617 64.1117C26.5536 64.9068 27.5392 65.4797 28.6202 65.7734C32.5779 66.857 48.5066 66.857 48.5066 66.857C48.5066 66.857 64.4352 66.857 68.3926 65.7734C69.4737 65.4797 70.4593 64.9068 71.2512 64.1118C72.0431 63.3168 72.6138 62.3273 72.9063 61.242C74.169 54.1724 74.5581 43.4218 72.8737 36.615Z" fill="#FF0000"/>
<path d="M43.4043 56.6123L56.6181 48.9287L43.4043 41.2451V56.6123Z" fill="white"/>
</g>
</g>
<defs>
<linearGradient id="paint0_linear_148_1303" x1="8.19" y1="9.36" x2="86.58" y2="88.335" gradientUnits="userSpaceOnUse">
<stop stop-color="white"/>
<stop offset="1" stop-color="#EAEAEA"/>
</linearGradient>
<clipPath id="clip0_148_1303">
<rect width="97.11" height="97.11" fill="white"/>
</clipPath>
<clipPath id="clip1_148_1303">
<rect width="51" height="36" fill="white" transform="translate(23 31)"/>
</clipPath>
</defs>
</svg>
