<svg width="39" height="138" viewBox="0 0 39 138" fill="none" xmlns="http://www.w3.org/2000/svg">
<g clip-path="url(#clip0_1384_14621)">
<rect y="138" width="17" height="17" rx="5" transform="rotate(-90 0 138)" fill="#CDCDCD" fill-opacity="0.15"/>
<rect x="22" y="127" width="17" height="17" rx="5" transform="rotate(-90 22 127)" fill="#CDCDCD" fill-opacity="0.15"/>
<rect y="116" width="17" height="17" rx="5" transform="rotate(-90 0 116)" fill="#CDCDCD" fill-opacity="0.3"/>
<rect x="22" y="105" width="17" height="17" rx="5" transform="rotate(-90 22 105)" fill="#CDCDCD" fill-opacity="0.3"/>
<rect y="94" width="17" height="17" rx="5" transform="rotate(-90 0 94)" fill="#CDCDCD" fill-opacity="0.45"/>
<rect x="22" y="83" width="17" height="17" rx="5" transform="rotate(-90 22 83)" fill="#CDCDCD" fill-opacity="0.45"/>
<rect y="72" width="17" height="17" rx="5" transform="rotate(-90 0 72)" fill="#CDCDCD" fill-opacity="0.6"/>
<rect x="22" y="61" width="17" height="17" rx="5" transform="rotate(-90 22 61)" fill="#CDCDCD" fill-opacity="0.6"/>
<rect y="50" width="17" height="17" rx="5" transform="rotate(-90 0 50)" fill="#CDCDCD" fill-opacity="0.75"/>
<rect x="22" y="39" width="17" height="17" rx="5" transform="rotate(-90 22 39)" fill="#CDCDCD" fill-opacity="0.75"/>
<rect y="28" width="17" height="17" rx="5" transform="rotate(-90 0 28)" fill="#CDCDCD" fill-opacity="0.9"/>
<rect x="22" y="17" width="17" height="17" rx="5" transform="rotate(-90 22 17)" fill="#CDCDCD" fill-opacity="0.9"/>
</g>
</svg>
