<svg width="98" height="98" viewBox="0 0 98 98" fill="none" xmlns="http://www.w3.org/2000/svg">
<rect width="98" height="98" fill="url(#paint0_linear_5346_44872)"/>
<mask id="mask0_5346_44872" style="mask-type:alpha" maskUnits="userSpaceOnUse" x="1" y="1" width="95" height="95">
<rect x="1" y="1" width="95" height="95" rx="19" fill="url(#paint1_linear_5346_44872)"/>
</mask>
<g mask="url(#mask0_5346_44872)">
<path d="M66.3643 45.375C68.3046 45.375 70.0782 45.7006 71.6846 46.3516C73.291 47.0026 74.6512 47.8734 75.7646 48.9639C76.8781 50.0544 77.8647 51.3727 78.7236 52.9189C79.5825 54.4652 80.2664 56.0521 80.7754 57.6797C81.2844 59.3073 81.706 61.0732 82.04 62.9775C82.3741 64.8818 82.5967 66.6559 82.708 68.2998C82.8194 69.9437 82.875 71.6283 82.875 73.3535C82.875 77.2598 81.7139 80.3441 79.3916 82.6064C77.0693 84.8688 73.9831 86 70.1338 86H28.4287C24.5794 86 21.4932 84.8688 19.1709 82.6064C16.8486 80.3441 15.6875 77.2598 15.6875 73.3535C15.6875 71.6283 15.7431 69.9437 15.8545 68.2998C15.9658 66.6559 16.1884 64.8818 16.5225 62.9775C16.8565 61.0732 17.2781 59.3073 17.7871 57.6797C18.2961 56.0521 18.98 54.4652 19.8389 52.9189C20.6978 51.3727 21.6844 50.0544 22.7979 48.9639C23.9113 47.8734 25.2715 47.0026 26.8779 46.3516C28.4843 45.7006 30.2579 45.375 32.1982 45.375C32.5164 45.3751 33.2004 45.7251 34.25 46.4248C35.2998 47.1247 36.4609 47.9059 37.7334 48.7686C39.0058 49.6311 40.7076 50.4125 42.8389 51.1123C44.9703 51.8122 47.118 52.1621 49.2812 52.1621C51.4445 52.1621 53.5922 51.8122 55.7236 51.1123C57.8549 50.4125 59.5567 49.6311 60.8291 48.7686C62.1016 47.9059 63.2627 47.1247 64.3125 46.4248C65.3621 45.7251 66.0461 45.3751 66.3643 45.375ZM52.2109 59.3398C51.9854 59.3398 51.7642 59.402 51.5732 59.5195C51.3822 59.6371 51.2288 59.8058 51.1309 60.0049L48.7344 65.5566C48.4239 66.2748 47.8505 66.853 47.127 67.1777L44.0947 68.5234C43.1974 68.9582 43.1974 70.2293 44.0947 70.6641L47.127 72.0098C47.8541 72.3298 48.4294 72.9095 48.7354 73.6309L51.1309 79.1826C51.2288 79.3817 51.3822 79.5504 51.5732 79.668C51.7642 79.7855 51.9854 79.8477 52.2109 79.8477C52.4365 79.8476 52.6576 79.7855 52.8486 79.668C53.0396 79.5504 53.1931 79.3817 53.291 79.1826L55.6875 73.6309C55.998 72.9127 56.5713 72.3345 57.2949 72.0098L60.3271 70.6641C61.2242 70.2293 61.2242 68.9582 60.3271 68.5234L57.2949 67.1777C56.5674 66.8581 55.992 66.2783 55.6865 65.5566L53.291 60.0049C53.1931 59.8058 53.0396 59.6371 52.8486 59.5195C52.6576 59.402 52.4365 59.3399 52.2109 59.3398ZM41.3301 70.0039C41.2329 70.0039 41.1377 70.0318 41.0557 70.083C40.9737 70.1342 40.9082 70.2076 40.8672 70.2939L39.8389 72.7354C39.7041 73.0487 39.4593 73.3068 39.1514 73.4512L37.8535 74.0459C37.7659 74.0906 37.6919 74.1575 37.6406 74.2402C37.5893 74.3231 37.5625 74.4187 37.5625 74.5156C37.5625 74.6124 37.5895 74.7073 37.6406 74.79C37.6919 74.8729 37.7658 74.9406 37.8535 74.9854L39.1514 75.5801C39.4637 75.726 39.7087 75.9817 39.8389 76.2959L40.8662 78.7373C40.9073 78.8237 40.9727 78.897 41.0547 78.9482C41.1367 78.9994 41.2319 79.0264 41.3291 79.0264C41.4263 79.0264 41.5215 78.9995 41.6035 78.9482C41.6855 78.897 41.751 78.8237 41.792 78.7373L42.8203 76.2959C42.9551 75.9825 43.1998 75.7245 43.5078 75.5801L44.8057 74.9854C44.8933 74.9406 44.9663 74.8728 45.0176 74.79C45.0688 74.7072 45.0967 74.6125 45.0967 74.5156C45.0967 74.4187 45.0689 74.3231 45.0176 74.2402C44.9664 74.1577 44.8931 74.0906 44.8057 74.0459L43.5078 73.4512C43.1998 73.3068 42.9542 73.0569 42.8203 72.7354L41.793 70.2939C41.752 70.2076 41.6864 70.1342 41.6045 70.083C41.5225 70.0318 41.4273 70.0039 41.3301 70.0039ZM43.3633 59.5508C43.2143 59.2694 42.7852 59.2694 42.6445 59.5508L41.8477 61.3223C41.7397 61.5534 41.5499 61.7391 41.3135 61.8438L40.2979 62.2734C40.2311 62.3038 40.1744 62.3523 40.1348 62.4131C40.0951 62.474 40.0742 62.545 40.0742 62.6172C40.0742 62.6894 40.0951 62.7604 40.1348 62.8213C40.1744 62.8821 40.2311 62.9305 40.2979 62.9609L41.3135 63.3906C41.5586 63.4898 41.7513 63.6801 41.8477 63.9121L42.6445 65.6914C42.7935 65.9728 43.2227 65.9728 43.3633 65.6914L44.1602 63.9111C44.2657 63.68 44.4584 63.498 44.6943 63.3906L45.71 62.9609C45.7767 62.9306 45.8334 62.882 45.873 62.8213C45.9127 62.7604 45.9336 62.6894 45.9336 62.6172C45.9336 62.545 45.9127 62.474 45.873 62.4131C45.8334 62.3523 45.7767 62.3038 45.71 62.2734L44.6943 61.8438C44.5744 61.7957 44.4649 61.7243 44.373 61.6348C44.2815 61.5454 44.2087 61.4392 44.1592 61.3223L43.3633 59.5508ZM49.2812 11C54.3393 11 58.6575 12.8312 62.2363 16.4932C65.8152 20.1553 67.6055 24.5742 67.6055 29.75C67.6055 34.9258 65.8152 39.3447 62.2363 43.0068C58.6575 46.6688 54.3393 48.5 49.2812 48.5C44.2232 48.5 39.905 46.6688 36.3262 43.0068C32.7473 39.3447 30.957 34.9258 30.957 29.75C30.957 24.5742 32.7473 20.1553 36.3262 16.4932C39.905 12.8312 44.2232 11 49.2812 11Z" fill="white"/>
</g>
<defs>
<linearGradient id="paint0_linear_5346_44872" x1="8.19" y1="9.36" x2="86.58" y2="88.335" gradientUnits="userSpaceOnUse">
<stop stop-color="#4867CD"/>
<stop offset="1" stop-color="#5A85EB"/>
</linearGradient>
<linearGradient id="paint1_linear_5346_44872" x1="9.01205" y1="10.1566" x2="85.6988" y2="87.4157" gradientUnits="userSpaceOnUse">
<stop stop-color="white"/>
<stop offset="1" stop-color="#EAEAEA"/>
</linearGradient>
</defs>
</svg>
