<svg width="48" height="48" viewBox="0 0 48 48" fill="none" xmlns="http://www.w3.org/2000/svg">
<path d="M43.9784 19.6422C44.4999 18.026 44.6802 16.3138 44.5074 14.6201C44.3346 12.9264 43.8127 11.2902 42.9765 9.82067C40.4328 5.26323 35.3204 2.91895 30.3274 4.02053C28.9449 2.43768 27.1821 1.25711 25.2161 0.597395C23.2501 -0.0623241 21.15 -0.177969 19.1269 0.262075C17.1037 0.702119 15.2286 1.68236 13.6899 3.10435C12.1513 4.52634 11.0032 6.34002 10.361 8.36323C8.73985 8.70541 7.20828 9.39982 5.86871 10.4001C4.52913 11.4003 3.4124 12.6833 2.59315 14.1634C0.021817 18.7136 0.605622 24.4531 4.03658 28.3567C3.51322 29.9721 3.33106 31.684 3.50227 33.3777C3.67348 35.0715 4.19412 36.7081 5.02935 38.1781C7.57624 42.7372 12.6919 45.0813 17.6876 43.9782C18.786 45.2513 20.1356 46.2685 21.6463 46.962C23.157 47.6555 24.794 48.0093 26.4481 47.9998C31.5658 48.0044 36.0998 44.6039 37.6631 39.588C39.2841 39.2452 40.8154 38.5505 42.1548 37.5504C43.4943 36.5502 44.6111 35.2675 45.4308 33.7878C47.9711 29.2457 47.3849 23.5373 43.9784 19.6422ZM26.4481 44.8582C24.4053 44.8615 22.4266 44.1246 20.8589 42.7766L21.1348 42.6156L30.4192 37.0994C30.6503 36.9599 30.8422 36.761 30.9759 36.5221C31.1097 36.2832 31.1809 36.0126 31.1823 35.7369V22.263L35.1076 24.6001C35.1468 24.6206 35.1741 24.6593 35.1811 24.7042V35.8693C35.171 40.8294 31.267 44.8478 26.4481 44.8582ZM7.67687 36.6074C6.65242 34.7867 6.28459 32.6524 6.63809 30.58L6.91373 30.7503L16.2075 36.2668C16.4375 36.4056 16.6993 36.4789 16.9659 36.4789C17.2325 36.4789 17.4943 36.4056 17.7243 36.2668L29.0771 29.5298V34.1945C29.0761 34.2187 29.0697 34.2423 29.0586 34.2636C29.0475 34.2849 29.0318 34.3033 29.0128 34.3175L19.6088 39.9002C15.4298 42.3782 10.0908 40.9046 7.67687 36.6074ZM5.2315 15.791C6.26306 13.9585 7.89129 12.5608 9.82791 11.8453V23.1996C9.82441 23.474 9.89251 23.7442 10.0251 23.9822C10.1577 24.2203 10.3499 24.4173 10.5817 24.5527L21.8794 31.2614L17.9541 33.5984C17.9329 33.61 17.9092 33.6161 17.8852 33.6161C17.8612 33.6161 17.8375 33.61 17.8163 33.5984L8.43066 28.0256C4.25993 25.5372 2.82962 20.046 5.2315 15.7438V15.791ZM37.4793 23.5026L26.1446 16.7277L30.0609 14.4001C30.0822 14.3885 30.1059 14.3824 30.1299 14.3824C30.154 14.3824 30.1777 14.3885 30.1989 14.4001L39.5845 19.9827C41.0196 20.835 42.1895 22.0899 42.9576 23.601C43.7258 25.112 44.0605 26.8167 43.9226 28.5162C43.7848 30.2156 43.1801 31.8397 42.1792 33.1987C41.1783 34.5576 39.8224 35.5955 38.2699 36.1911V24.8366C38.2618 24.5628 38.1847 24.2959 38.046 24.062C37.9074 23.8281 37.7121 23.6353 37.4793 23.5026ZM41.3861 17.4565L41.1103 17.2859L31.835 11.7224C31.6036 11.5826 31.3402 11.509 31.072 11.509C30.8038 11.509 30.5404 11.5826 30.3091 11.7224L18.9652 18.4595V13.7948C18.9628 13.771 18.9666 13.7471 18.9763 13.7254C18.9861 13.7038 19.0013 13.6853 19.0204 13.6718L28.406 8.09857C29.8444 7.24561 31.4891 6.83186 33.1477 6.90571C34.8062 6.97955 36.41 7.53794 37.7715 8.51556C39.1331 9.49319 40.196 10.8496 40.8361 12.4262C41.4762 14.0029 41.6669 15.7345 41.3859 17.4185L41.3861 17.4565ZM16.8235 25.7261L12.8982 23.3984C12.8786 23.3862 12.8618 23.3697 12.8491 23.3501C12.8364 23.3305 12.828 23.3082 12.8246 23.2849V12.1483C12.8267 10.4399 13.3014 8.76737 14.193 7.32636C15.0846 5.88535 16.3563 4.73538 17.8595 4.0109C19.3627 3.28642 21.0352 3.01737 22.6814 3.23521C24.3277 3.45305 25.8796 4.14877 27.1559 5.24104L26.8801 5.40195L17.5956 10.9182C17.3646 11.0577 17.1727 11.2567 17.039 11.4955C16.9052 11.7344 16.8341 12.005 16.8327 12.2807L16.8235 25.7261ZM18.956 20.995L24.0121 17.9956L29.0771 20.9952V26.9939L24.0304 29.9935L18.9654 26.9939L18.956 20.995Z" fill="black"/>
</svg>
