<svg width="48" height="48" fill="none" xmlns="http://www.w3.org/2000/svg"><g clip-path="url(#prefix__clip0_1745_19623)"><path d="M40.667 0A7.333 7.333 0 0148 7.333v33.334A7.333 7.333 0 0140.667 48H7.333A7.334 7.334 0 010 40.667V7.333A7.333 7.333 0 017.333 0h33.334zm-28 16.01a2 2 0 00-2 1.993v17.352c0 1.098.896 1.989 2 1.989s2-.89 2-1.99V18a2 2 0 00-2-1.99zm22.666-5.333a1.975 1.975 0 00-2 1.947V35.4c0 1.075.896 1.947 2 1.947a1.975 1.975 0 002-1.947V12.621a1.972 1.972 0 00-2-1.944zM23.933 24A1.946 1.946 0 0022 25.957l.093 9.459a1.947 1.947 0 001.974 1.92A1.946 1.946 0 0026 35.379l-.093-9.462A1.947 1.947 0 0023.933 24z" fill="#000"/></g><defs><clipPath id="prefix__clip0_1745_19623"><path fill="#fff" d="M0 0h48v48H0z"/></clipPath></defs></svg>