<svg fill="none" height="48" width="48" xmlns="http://www.w3.org/2000/svg"><path d="M35.434 22c1.241 0 2.377.208 3.405.625 1.028.417 1.898.974 2.61 1.672.713.698 1.344 1.542 1.894 2.531.55.99.987 2.005 1.313 3.047.326 1.042.596 2.172.81 3.39.214 1.22.356 2.355.428 3.407A47.91 47.91 0 0146 39.906c0 2.5-.743 4.474-2.23 5.922S40.31 48 37.846 48H11.154c-2.463 0-4.438-.724-5.925-2.172S3 42.406 3 39.906c0-1.104.035-2.182.106-3.234.072-1.052.214-2.188.428-3.406.214-1.22.484-2.35.81-3.391s.764-2.057 1.313-3.047c.55-.99 1.181-1.833 1.894-2.531.712-.698 1.582-1.255 2.61-1.672 1.028-.417 2.164-.625 3.405-.625.204 0 .642.224 1.314.672s1.415.948 2.23 1.5c.814.552 1.903 1.052 3.267 1.5s2.739.672 4.123.672 2.759-.224 4.123-.672 2.453-.948 3.268-1.5c.814-.552 1.557-1.052 2.23-1.5S35.23 22 35.433 22zm-9.059 8.938a.78.78 0 00-.408.115.76.76 0 00-.283.31l-1.534 3.553c-.198.46-.566.83-1.029 1.038l-1.94.86a.76.76 0 000 1.372l1.94.86c.466.205.834.576 1.03 1.038l1.533 3.553a.76.76 0 00.283.31.78.78 0 00.816 0 .759.759 0 00.283-.31l1.534-3.553c.198-.46.566-.83 1.029-1.038l1.94-.86a.76.76 0 000-1.371l-1.94-.86a1.98 1.98 0 01-1.03-1.039l-1.533-3.553a.759.759 0 00-.283-.31.78.78 0 00-.408-.115zm-6.964 6.825a.324.324 0 00-.296.185l-.658 1.563a.898.898 0 01-.44.458l-.83.38a.337.337 0 000 .603l.83.38c.2.092.357.256.44.457l.657 1.563a.325.325 0 00.296.185.325.325 0 00.297-.185l.657-1.563a.898.898 0 01.44-.458l.832-.38a.335.335 0 000-.603l-.831-.38a.877.877 0 01-.44-.457l-.658-1.563a.323.323 0 00-.296-.185zm1.3-6.69c-.095-.18-.368-.18-.458 0l-.51 1.134a.681.681 0 01-.342.333l-.65.275a.24.24 0 00-.105.35c.026.039.062.07.105.09l.65.275c.157.064.28.186.342.334l.51 1.139c.095.18.369.18.459 0l.51-1.14a.681.681 0 01.342-.333l.65-.275a.238.238 0 00.143-.22.24.24 0 00-.142-.22l-.65-.275a.628.628 0 01-.343-.334zM24.5 0c3.237 0 6.002 1.172 8.292 3.516 2.29 2.343 3.436 5.172 3.436 8.484s-1.146 6.14-3.436 8.484C30.502 22.828 27.737 24 24.5 24s-6.002-1.172-8.292-3.516c-2.29-2.343-3.436-5.172-3.436-8.484s1.146-6.14 3.436-8.484C18.498 1.172 21.263 0 24.5 0z" fill="#000"/></svg>