<svg width="98" height="98" viewBox="0 0 98 98" fill="none" xmlns="http://www.w3.org/2000/svg">
<rect x="0.585" y="0.585" width="95.94" height="95.94" rx="19.305" fill="url(#paint0_linear_585_5044)" stroke="#DEDEDE" stroke-width="1.17"/>
<path d="M84.375 80.25V84.625C84.375 85.0891 84.1906 85.5342 83.8624 85.8624C83.5342 86.1906 83.0891 86.375 82.625 86.375H70.375C69.9109 86.375 69.4658 86.1906 69.1376 85.8624C68.8094 85.5342 68.625 85.0891 68.625 84.625V72.375C68.625 71.9109 68.8094 71.4658 69.1376 71.1376C69.4658 70.8094 69.9109 70.625 70.375 70.625H74.75V72.375H70.375V84.625H82.625V80.25H84.375Z" fill="#B2B2B2"/>
<path d="M84.375 74.125H80.875V70.625H79.125V74.125H75.625V75.875H79.125V79.375H80.875V75.875H84.375V74.125Z" fill="#B2B2B2"/>
<path d="M40.6229 30.248C39.9874 32.221 39.6648 34.2813 39.6667 36.3541C39.6667 47.3306 48.5651 56.2291 59.5417 56.2291C62.2507 56.2324 64.9317 55.68 67.4188 54.606C64.8428 62.5968 57.3466 68.3749 48.5 68.3749C37.5235 68.3749 28.625 59.4764 28.625 48.4999C28.625 40.3214 33.5639 33.2978 40.6229 30.248Z" fill="#B2B2B2" stroke="#B2B2B2" stroke-width="4" stroke-linejoin="round"/>
<path d="M56.9582 33.042H67.2712L56.2295 41.8753H67.2712" stroke="#B2B2B2" stroke-width="4" stroke-linecap="round" stroke-linejoin="round"/>
<defs>
<linearGradient id="paint0_linear_585_5044" x1="8.19" y1="9.36" x2="86.58" y2="88.335" gradientUnits="userSpaceOnUse">
<stop stop-color="white"/>
<stop offset="1" stop-color="#EAEAEA"/>
</linearGradient>
</defs>
</svg>
