<svg width="98" height="98" viewBox="0 0 98 98" fill="none" xmlns="http://www.w3.org/2000/svg">
<rect x="0.585" y="0.585" width="95.94" height="95.94" rx="19.305" fill="url(#paint0_linear_453_3148)" stroke="#DEDEDE" stroke-width="1.17"/>
<g clip-path="url(#clip0_453_3148)">
<path d="M30.833 26.417H63.958L59.5413 70.5837H35.2497L30.833 26.417ZM35.6913 30.8337L39.2247 66.167H41.433L38.4076 36.0012C40.7705 35.2503 43.8401 35.0074 46.2913 37.4587C49.7363 40.9037 55.8534 38.9824 58.4372 37.9666L59.0997 30.8337H35.6913Z" fill="#B2B2B2"/>
</g>
<path d="M84.375 80.25V84.625C84.375 85.0891 84.1906 85.5342 83.8624 85.8624C83.5342 86.1906 83.0891 86.375 82.625 86.375H70.375C69.9109 86.375 69.4658 86.1906 69.1376 85.8624C68.8094 85.5342 68.625 85.0891 68.625 84.625V72.375C68.625 71.9109 68.8094 71.4658 69.1376 71.1376C69.4658 70.8094 69.9109 70.625 70.375 70.625H74.75V72.375H70.375V84.625H82.625V80.25H84.375Z" fill="#B2B2B2"/>
<path d="M84.375 74.125H80.875V70.625H79.125V74.125H75.625V75.875H79.125V79.375H80.875V75.875H84.375V74.125Z" fill="#B2B2B2"/>
<defs>
<linearGradient id="paint0_linear_453_3148" x1="8.19" y1="9.36" x2="86.58" y2="88.335" gradientUnits="userSpaceOnUse">
<stop stop-color="white"/>
<stop offset="1" stop-color="#EAEAEA"/>
</linearGradient>
<clipPath id="clip0_453_3148">
<rect width="53" height="53" fill="white" transform="translate(22 22)"/>
</clipPath>
</defs>
</svg>
