<svg width="98" height="98" viewBox="0 0 98 98" fill="none" xmlns="http://www.w3.org/2000/svg">
<rect x="0.585" y="0.585" width="95.94" height="95.94" rx="19.305" fill="url(#paint0_linear_453_3143)" stroke="#DEDEDE" stroke-width="1.17"/>
<path d="M84.375 80.25V84.625C84.375 85.0891 84.1906 85.5342 83.8624 85.8624C83.5342 86.1906 83.0891 86.375 82.625 86.375H70.375C69.9109 86.375 69.4658 86.1906 69.1376 85.8624C68.8094 85.5342 68.625 85.0891 68.625 84.625V72.375C68.625 71.9109 68.8094 71.4658 69.1376 71.1376C69.4658 70.8094 69.9109 70.625 70.375 70.625H74.75V72.375H70.375V84.625H82.625V80.25H84.375Z" fill="#B2B2B2"/>
<path d="M84.375 74.125H80.875V70.625H79.125V74.125H75.625V75.875H79.125V79.375H80.875V75.875H84.375V74.125Z" fill="#B2B2B2"/>
<path d="M67.5148 29.4688L67.5123 67.0031C68.1843 68.1089 68.8795 68.5341 69.4625 68.5313C70.041 68.5285 70.7288 68.0982 71.3877 67.0256L69.5883 47.8545L69.5673 47.621L69.7113 47.4349C71.7791 44.7816 72.5017 40.1978 71.9118 36.3206C71.6169 34.3819 70.9995 32.6272 70.135 31.3868C69.41 30.3466 68.5451 29.683 67.515 29.4688H67.5148ZM31.1501 29.4691L31.1485 36.0245L29.922 36.0229V29.4695H28.525L28.5252 36.0232H27.2969V29.4695H25.874V39.5504C25.8739 40.6653 26.4824 41.2836 27.4404 41.6658L27.8369 41.8242L27.8281 42.251C27.6328 50.5098 27.4397 58.7685 27.2459 67.0271C27.9139 68.1201 28.6 68.534 29.1713 68.5313C29.7426 68.5285 30.4281 68.1038 31.0876 67.0242C30.8614 58.7676 30.6355 50.511 30.4098 42.2543L30.398 41.8246L30.7958 41.6678C31.804 41.2668 32.4598 40.5863 32.4598 39.551V29.4691H31.1501ZM49.0004 33.2773C44.8305 33.2773 40.8314 34.9338 37.8828 37.8824C34.9342 40.831 33.2777 44.8301 33.2777 49C33.2777 53.1699 34.9342 57.169 37.8828 60.1176C40.8314 63.0662 44.8305 64.7227 49.0004 64.7227C53.1703 64.7227 57.1694 63.0662 60.118 60.1176C63.0666 57.169 64.723 53.1699 64.723 49C64.723 44.8301 63.0666 40.831 60.118 37.8824C57.1694 34.9338 53.1703 33.2773 49.0004 33.2773Z" fill="#B2B2B2"/>
<defs>
<linearGradient id="paint0_linear_453_3143" x1="8.19" y1="9.36" x2="86.58" y2="88.335" gradientUnits="userSpaceOnUse">
<stop stop-color="white"/>
<stop offset="1" stop-color="#EAEAEA"/>
</linearGradient>
</defs>
</svg>
