<svg width="98" height="98" viewBox="0 0 98 98" fill="none" xmlns="http://www.w3.org/2000/svg">
<rect x="0.585" y="0.585" width="95.94" height="95.94" rx="19.305" fill="url(#paint0_linear_581_4847)" stroke="#DEDEDE" stroke-width="1.17"/>
<path d="M84.375 80.25V84.625C84.375 85.0891 84.1906 85.5342 83.8624 85.8624C83.5342 86.1906 83.0891 86.375 82.625 86.375H70.375C69.9109 86.375 69.4658 86.1906 69.1376 85.8624C68.8094 85.5342 68.625 85.0891 68.625 84.625V72.375C68.625 71.9109 68.8094 71.4658 69.1376 71.1376C69.4658 70.8094 69.9109 70.625 70.375 70.625H74.75V72.375H70.375V84.625H82.625V80.25H84.375Z" fill="#B2B2B2"/>
<path d="M84.375 74.125H80.875V70.625H79.125V74.125H75.625V75.875H79.125V79.375H80.875V75.875H84.375V74.125Z" fill="#B2B2B2"/>
<path d="M70.9587 64.8337V68.917H56.667V64.8337H61.6895L48.5003 33.4124C48.1124 32.4528 47.4795 31.677 46.5812 31.0645C45.6828 30.452 44.7028 30.1253 43.6207 30.1253C42.1712 30.1253 40.9053 30.6766 39.8437 31.7382C38.782 32.7999 38.292 34.0453 38.292 35.5153V42.3753H40.3337C44.8457 42.3753 48.5003 46.0299 48.5003 50.542V68.917H40.3337C41.5791 67.202 42.3753 65.0991 42.3753 62.792C42.3753 57.157 37.802 52.5837 32.167 52.5837C30.7174 52.5837 29.3291 52.8899 28.0837 53.4412V42.3753H34.2087V35.5153C34.2087 33.8003 34.6782 32.167 35.4949 30.7787C36.332 29.3495 37.4549 28.2062 38.9045 27.3282C40.3337 26.4707 41.9057 26.042 43.6207 26.042C45.5399 26.042 47.2753 26.5728 48.827 27.6141C50.3787 28.6553 51.5628 30.0641 52.3182 31.7791L66.1812 64.8337H70.9587ZM38.292 62.792C38.292 66.1812 35.5562 68.917 32.167 68.917C28.7778 68.917 26.042 66.1812 26.042 62.792C26.042 59.4028 28.7778 56.667 32.167 56.667C35.5562 56.667 38.292 59.4028 38.292 62.792ZM34.2087 62.792C34.2087 61.6691 33.2899 60.7503 32.167 60.7503C31.0441 60.7503 30.1253 61.6691 30.1253 62.792C30.1253 63.9149 31.0441 64.8337 32.167 64.8337C33.2899 64.8337 34.2087 63.9149 34.2087 62.792Z" fill="#B2B2B2"/>
<defs>
<linearGradient id="paint0_linear_581_4847" x1="8.19" y1="9.36" x2="86.58" y2="88.335" gradientUnits="userSpaceOnUse">
<stop stop-color="white"/>
<stop offset="1" stop-color="#EAEAEA"/>
</linearGradient>
</defs>
</svg>
