<svg width="98" height="98" viewBox="0 0 98 98" fill="none" xmlns="http://www.w3.org/2000/svg">
<rect x="0.585" y="0.585" width="95.94" height="95.94" rx="19.305" fill="url(#paint0_linear_481_3723)" stroke="#DEDEDE" stroke-width="1.17"/>
<path d="M84.375 80.25V84.625C84.375 85.0891 84.1906 85.5342 83.8624 85.8624C83.5342 86.1906 83.0891 86.375 82.625 86.375H70.375C69.9109 86.375 69.4658 86.1906 69.1376 85.8624C68.8094 85.5342 68.625 85.0891 68.625 84.625V72.375C68.625 71.9109 68.8094 71.4658 69.1376 71.1376C69.4658 70.8094 69.9109 70.625 70.375 70.625H74.75V72.375H70.375V84.625H82.625V80.25H84.375Z" fill="#B2B2B2"/>
<path d="M84.375 74.125H80.875V70.625H79.125V74.125H75.625V75.875H79.125V79.375H80.875V75.875H84.375V74.125Z" fill="#B2B2B2"/>
<path d="M25.4163 36.167L14.333 42.0003V44.3337H36.4997V42.0003M30.6663 46.667V54.8337H34.1663V46.667M14.333 60.667H36.4997V57.167H14.333M23.6663 46.667V54.8337H27.1663V46.667M16.6663 46.667V54.8337H20.1663V46.667H16.6663Z" fill="#B2B2B2"/>
<path d="M71.4163 36.167L60.333 42.0003V44.3337H82.4997V42.0003M76.6663 46.667V54.8337H80.1663V46.667M60.333 60.667H82.4997V57.167H60.333M69.6663 46.667V54.8337H73.1663V46.667M62.6663 46.667V54.8337H66.1663V46.667H62.6663Z" fill="#B2B2B2"/>
<path d="M49.0928 44.0674C49.3436 43.8166 49.6838 43.6758 50.0384 43.6758C50.3931 43.6758 50.7333 43.8166 50.9841 44.0674L57.0033 50.0866C57.254 50.3374 57.3949 50.6776 57.3949 51.0322C57.3949 51.3869 57.254 51.7271 57.0033 51.9779L50.9841 57.9971C50.7319 58.2407 50.394 58.3755 50.0433 58.3725C49.6926 58.3694 49.3571 58.2288 49.1091 57.9808C48.8611 57.7328 48.7204 57.3973 48.7173 57.0466C48.7143 56.6959 48.8491 56.358 49.0928 56.1057L52.7136 52.3698H40.0065C39.6518 52.3698 39.3116 52.2289 39.0607 51.9781C38.8099 51.7272 38.6689 51.387 38.6689 51.0322C38.6689 50.6775 38.8099 50.3373 39.0607 50.0864C39.3116 49.8356 39.6518 49.6946 40.0065 49.6946H52.7136L49.0928 45.9588C48.842 45.7079 48.7011 45.3678 48.7011 45.0131C48.7011 44.6584 48.842 44.3182 49.0928 44.0674Z" fill="#B2B2B2"/>
<defs>
<linearGradient id="paint0_linear_481_3723" x1="8.19" y1="9.36" x2="86.58" y2="88.335" gradientUnits="userSpaceOnUse">
<stop stop-color="white"/>
<stop offset="1" stop-color="#EAEAEA"/>
</linearGradient>
</defs>
</svg>
