<svg width="98" height="98" viewBox="0 0 98 98" fill="none" xmlns="http://www.w3.org/2000/svg">
<rect x="0.585" y="0.585" width="95.94" height="95.94" rx="19.305" fill="url(#paint0_linear_453_3153)" stroke="#DEDEDE" stroke-width="1.17"/>
<path d="M66.9624 31.0437C64.9332 29.0148 62.1812 27.875 59.3117 27.875C56.4422 27.875 53.6901 29.0148 51.661 31.0437L31.0438 51.6589C29.0574 53.6964 27.9537 56.4345 27.9719 59.2799C27.9901 62.1254 29.1286 64.8492 31.1408 66.8612C33.1531 68.8731 35.877 70.0113 38.7225 70.0291C41.568 70.0469 44.3059 68.9429 46.3431 66.9562L66.9624 46.3411C68.9875 44.3107 70.1249 41.5601 70.1249 38.6924C70.1249 35.8247 68.9875 33.0741 66.9624 31.0437ZM64.663 44.0437L54.3544 54.3503L43.6517 43.6497L53.9603 33.3411C55.3852 31.9491 57.3014 31.175 59.2933 31.1866C61.2853 31.1983 63.1923 31.9947 64.6008 33.4032C66.0093 34.8118 66.8058 36.7188 66.8174 38.7107C66.8291 40.7026 66.055 42.6188 64.663 44.0437ZM61.5288 39.7253C61.6799 39.8762 61.7997 40.0554 61.8815 40.2527C61.9633 40.45 62.0054 40.6614 62.0054 40.875C62.0054 41.0885 61.9633 41.3 61.8815 41.4972C61.7997 41.6945 61.6799 41.8737 61.5288 42.0247L56.6538 46.8997C56.5028 47.0505 56.3236 47.1701 56.1264 47.2517C55.9292 47.3333 55.7178 47.3752 55.5044 47.3752C55.291 47.3751 55.0796 47.3329 54.8825 47.2512C54.6854 47.1694 54.5063 47.0496 54.3554 46.8986C54.2046 46.7477 54.0849 46.5684 54.0033 46.3712C53.9218 46.174 53.8798 45.9627 53.8799 45.7493C53.88 45.5358 53.9221 45.3245 54.0039 45.1274C54.0857 44.9302 54.2054 44.7511 54.3564 44.6003L59.2314 39.7253C59.5361 39.4208 59.9493 39.2497 60.3801 39.2497C60.8109 39.2497 61.2241 39.4208 61.5288 39.7253Z" fill="#B2B2B2"/>
<path d="M84.375 80.25V84.625C84.375 85.0891 84.1906 85.5342 83.8624 85.8624C83.5342 86.1906 83.0891 86.375 82.625 86.375H70.375C69.9109 86.375 69.4658 86.1906 69.1376 85.8624C68.8094 85.5342 68.625 85.0891 68.625 84.625V72.375C68.625 71.9109 68.8094 71.4658 69.1376 71.1376C69.4658 70.8094 69.9109 70.625 70.375 70.625H74.75V72.375H70.375V84.625H82.625V80.25H84.375Z" fill="#B2B2B2"/>
<path d="M84.375 74.125H80.875V70.625H79.125V74.125H75.625V75.875H79.125V79.375H80.875V75.875H84.375V74.125Z" fill="#B2B2B2"/>
<defs>
<linearGradient id="paint0_linear_453_3153" x1="8.19" y1="9.36" x2="86.58" y2="88.335" gradientUnits="userSpaceOnUse">
<stop stop-color="white"/>
<stop offset="1" stop-color="#EAEAEA"/>
</linearGradient>
</defs>
</svg>
