<svg width="98" height="98" viewBox="0 0 98 98" fill="none" xmlns="http://www.w3.org/2000/svg">
<rect x="0.585" y="0.585" width="95.94" height="95.94" rx="19.305" fill="url(#paint0_linear_479_3307)" stroke="#DEDEDE" stroke-width="1.17"/>
<path fill-rule="evenodd" clip-rule="evenodd" d="M67.823 57.4074L67.9275 57.4264L67.9429 57.392L67.823 57.4074ZM48.5 67.5C50.7349 67.5 52.8795 67.1141 54.8709 66.4051L57.3576 67.9596C54.5771 69.2273 51.5559 69.8806 48.5 69.875C36.6951 69.875 27.125 60.3049 27.125 48.5C27.125 36.6951 36.6951 27.125 48.5 27.125C60.3049 27.125 69.875 36.6951 69.875 48.5C69.875 48.994 69.8584 49.4836 69.8251 49.9689L67.4181 50.2765C67.4727 49.6907 67.5 49.0985 67.5 48.5C67.5 38.0061 58.9939 29.5 48.5 29.5C38.0061 29.5 29.5 38.0061 29.5 48.5C29.5 58.9939 38.0061 67.5 48.5 67.5Z" fill="#B2B2B2"/>
<path fill-rule="evenodd" clip-rule="evenodd" d="M40.4736 41.7895C40.6625 41.5692 40.9255 41.4257 41.213 41.3861C41.5005 41.3465 41.7925 41.4136 42.034 41.5746L45.5965 43.9496C45.7591 44.058 45.8924 44.2049 45.9847 44.3773C46.0769 44.5496 46.1252 44.7421 46.1252 44.9376C46.1252 45.1331 46.0769 45.3255 45.9847 45.4979C45.8924 45.6702 45.7591 45.8171 45.5965 45.9256L42.034 48.3006C41.7894 48.4637 41.493 48.5303 41.2021 48.4875C40.9113 48.4447 40.6466 48.2956 40.4594 48.0689C40.2722 47.8422 40.1757 47.5542 40.1886 47.2605C40.2016 46.9668 40.323 46.6883 40.5294 46.479C41.3891 45.6073 41.5091 45.1965 41.5079 44.9827C41.5055 44.7428 41.3547 44.3011 40.4985 43.3641C40.3029 43.1499 40.1925 42.8714 40.1881 42.5813C40.1837 42.2912 40.2857 42.0096 40.4748 41.7895M61.2762 41.7895C61.0873 41.5692 60.8243 41.4257 60.5368 41.3861C60.2493 41.3465 59.9573 41.4136 59.7158 41.5746L56.1533 43.9496C55.9907 44.058 55.8573 44.2049 55.7651 44.3773C55.6729 44.5496 55.6246 44.7421 55.6246 44.9376C55.6246 45.1331 55.6729 45.3255 55.7651 45.4979C55.8573 45.6702 55.9907 45.8171 56.1533 45.9256L59.7158 48.3006C59.9604 48.4637 60.2568 48.5303 60.5477 48.4875C60.8385 48.4447 61.1032 48.2956 61.2904 48.0689C61.4776 47.8422 61.5741 47.5542 61.5611 47.2605C61.5482 46.9668 61.4268 46.6883 61.2204 46.479C60.3607 45.6073 60.2407 45.1965 60.2419 44.9827C60.2443 44.7428 60.3951 44.3011 61.2513 43.3641C61.4469 43.1499 61.5573 42.8714 61.5617 42.5813C61.5661 42.2912 61.4653 42.0096 61.2762 41.7895Z" fill="#B2B2B2"/>
<path d="M58 56.8125C58 58.7022 57.2493 60.5144 55.9131 61.8506C54.5769 63.1868 52.7647 63.9375 50.875 63.9375C48.9853 63.9375 47.1731 63.1868 45.8369 61.8506C44.5007 60.5144 43.75 58.7022 43.75 56.8125C43.75 54.9228 44.5007 53.1106 45.8369 51.7744C47.1731 50.4382 48.9853 49.6875 50.875 49.6875C52.7647 49.6875 54.5769 50.4382 55.9131 51.7744C57.2493 53.1106 58 54.9228 58 56.8125Z" fill="#B2B2B2"/>
<path fill-rule="evenodd" clip-rule="evenodd" d="M50.875 61.5625C52.1348 61.5625 53.343 61.0621 54.2338 60.1713C55.1246 59.2805 55.625 58.0723 55.625 56.8125C55.625 55.5527 55.1246 54.3445 54.2338 53.4537C53.343 52.5629 52.1348 52.0625 50.875 52.0625C49.6152 52.0625 48.407 52.5629 47.5162 53.4537C46.6254 54.3445 46.125 55.5527 46.125 56.8125C46.125 58.0723 46.6254 59.2805 47.5162 60.1713C48.407 61.0621 49.6152 61.5625 50.875 61.5625ZM50.875 63.9375C52.7647 63.9375 54.5769 63.1868 55.9131 61.8506C57.2493 60.5144 58 58.7022 58 56.8125C58 54.9228 57.2493 53.1106 55.9131 51.7744C54.5769 50.4382 52.7647 49.6875 50.875 49.6875C48.9853 49.6875 47.1731 50.4382 45.8369 51.7744C44.5007 53.1106 43.75 54.9228 43.75 56.8125C43.75 58.7022 44.5007 60.5144 45.8369 61.8506C47.1731 63.1868 48.9853 63.9375 50.875 63.9375ZM69.8631 56.2484C69.8627 56.4019 69.8307 56.5536 69.7691 56.6942C69.7074 56.8347 69.6174 56.961 69.5048 57.0652C69.3921 57.1694 69.2592 57.2492 69.1143 57.2997C68.9694 57.3503 68.8156 57.3703 68.6626 57.3587L66.8219 57.2222C66.5039 57.1929 66.2087 57.0444 65.9955 56.8066C65.7823 56.5687 65.6669 56.259 65.6724 55.9397C65.6728 55.7863 65.7048 55.6347 65.7664 55.4943C65.828 55.3538 65.9178 55.2276 66.0304 55.1234C66.1429 55.0192 66.2757 54.9393 66.4205 54.8888C66.5652 54.8382 66.7189 54.818 66.8718 54.8294L68.7124 54.9648C69.3608 55.0123 69.8762 55.587 69.8619 56.2473M64.2272 55.8328C64.2269 55.9862 64.1949 56.1378 64.1333 56.2782C64.0717 56.4187 63.9818 56.5449 63.8693 56.6491C63.7568 56.7533 63.624 56.8332 63.4792 56.8837C63.3344 56.9343 63.1808 56.9545 63.0279 56.9431L61.6658 56.8422C61.3475 56.8132 61.052 56.6648 60.8386 56.4269C60.6252 56.189 60.5096 55.8792 60.5151 55.5597C60.5155 55.4063 60.5475 55.2547 60.6091 55.1143C60.6707 54.9738 60.7605 54.8476 60.8731 54.7434C60.9856 54.6392 61.1184 54.5593 61.2632 54.5088C61.4079 54.4582 61.5616 54.438 61.7145 54.4494L63.0778 54.5491C63.7261 54.5966 64.2415 55.1726 64.2272 55.8328ZM62.2394 65.2224C62.7001 64.7806 63.4435 64.8222 63.9019 65.3162L66.1094 67.7019C66.5666 68.1959 66.5631 68.9535 66.1023 69.3953C65.6416 69.8382 64.8982 69.7954 64.4398 69.3026L62.2322 66.9157C61.7751 66.4229 61.7786 65.6641 62.2394 65.2224ZM58.5261 61.211C58.9868 60.7692 59.7302 60.8108 60.1886 61.3048L61.2478 62.4508C61.705 62.9448 61.7026 63.7024 61.2419 64.1453C60.7811 64.5871 60.0366 64.5455 59.5794 64.0503L58.5189 62.9056C58.0618 62.4116 58.0653 61.6527 58.5261 61.211ZM67.2779 62.0019C67.5119 61.3986 68.1923 61.1279 68.7979 61.3986L69.0034 61.4901C69.609 61.7608 69.9094 62.4709 69.6743 63.0754C69.4404 63.681 68.7599 63.9506 68.1543 63.681L67.9477 63.5884C67.3421 63.3176 67.0428 62.6075 67.2768 62.0031M59.9926 58.7434C60.2266 58.1377 60.907 57.867 61.5126 58.1378L65.3981 59.8763C66.0037 60.147 66.303 60.8571 66.0691 61.4616C66.0137 61.6048 65.9293 61.7351 65.8213 61.8442C65.7132 61.9533 65.5838 62.039 65.4411 62.0959C65.2985 62.1527 65.1456 62.1795 64.9921 62.1746C64.8386 62.1696 64.6878 62.1331 64.5491 62.0672L60.6636 60.3287C60.0579 60.0579 59.7575 59.3478 59.9926 58.7434Z" fill="#B2B2B2"/>
<path d="M84.375 80.25V84.625C84.375 85.0891 84.1906 85.5342 83.8624 85.8624C83.5342 86.1906 83.0891 86.375 82.625 86.375H70.375C69.9109 86.375 69.4658 86.1906 69.1376 85.8624C68.8094 85.5342 68.625 85.0891 68.625 84.625V72.375C68.625 71.9109 68.8094 71.4658 69.1376 71.1376C69.4658 70.8094 69.9109 70.625 70.375 70.625H74.75V72.375H70.375V84.625H82.625V80.25H84.375Z" fill="#B2B2B2"/>
<path d="M84.375 74.125H80.875V70.625H79.125V74.125H75.625V75.875H79.125V79.375H80.875V75.875H84.375V74.125Z" fill="#B2B2B2"/>
<defs>
<linearGradient id="paint0_linear_479_3307" x1="8.19" y1="9.36" x2="86.58" y2="88.335" gradientUnits="userSpaceOnUse">
<stop stop-color="white"/>
<stop offset="1" stop-color="#EAEAEA"/>
</linearGradient>
</defs>
</svg>
