<svg width="98" height="98" viewBox="0 0 98 98" fill="none" xmlns="http://www.w3.org/2000/svg">
<rect x="0.585" y="0.585" width="95.94" height="95.94" rx="19.305" fill="url(#paint0_linear_479_3344)" stroke="#DEDEDE" stroke-width="1.17"/>
<path d="M84.375 80.25V84.625C84.375 85.0891 84.1906 85.5342 83.8624 85.8624C83.5342 86.1906 83.0891 86.375 82.625 86.375H70.375C69.9109 86.375 69.4658 86.1906 69.1376 85.8624C68.8094 85.5342 68.625 85.0891 68.625 84.625V72.375C68.625 71.9109 68.8094 71.4658 69.1376 71.1376C69.4658 70.8094 69.9109 70.625 70.375 70.625H74.75V72.375H70.375V84.625H82.625V80.25H84.375Z" fill="#B2B2B2"/>
<path d="M84.375 74.125H80.875V70.625H79.125V74.125H75.625V75.875H79.125V79.375H80.875V75.875H84.375V74.125Z" fill="#B2B2B2"/>
<path d="M42.0669 47.2668C39.7684 47.2668 37.564 46.3537 35.9387 44.7284C34.3134 43.1031 33.4003 40.8987 33.4003 38.6001V31.6668C33.4003 31.2071 33.5829 30.7662 33.9079 30.4411C34.233 30.1161 34.6739 29.9335 35.1336 29.9335H36.8669C37.3266 29.9335 37.7675 29.7508 38.0926 29.4258C38.4176 29.1007 38.6003 28.6598 38.6003 28.2001C38.6003 27.7404 38.4176 27.2995 38.0926 26.9745C37.7675 26.6494 37.3266 26.4668 36.8669 26.4668H35.1336C33.7545 26.4668 32.4318 27.0147 31.4566 27.9898C30.4814 28.965 29.9336 30.2877 29.9336 31.6668V38.6001C29.9358 40.5583 30.4133 42.4867 31.3251 44.2197C32.2369 45.9527 33.5557 47.4385 35.1683 48.5495C36.7176 49.9154 37.974 51.5811 38.8618 53.446C39.7496 55.3109 40.2502 57.3364 40.3336 59.4001C40.3336 62.6181 41.6119 65.7043 43.8874 67.9797C46.1628 70.2551 49.249 71.5335 52.4669 71.5335C55.6849 71.5335 58.771 70.2551 61.0465 67.9797C63.3219 65.7043 64.6003 62.6181 64.6003 59.4001V57.4241C66.2342 57.0023 67.6582 55.9989 68.6053 54.6023C69.5524 53.2056 69.9576 51.5114 69.745 49.8373C69.5324 48.1633 68.7165 46.6242 67.4503 45.5086C66.184 44.3931 64.5545 43.7776 62.8669 43.7776C61.1794 43.7776 59.5498 44.3931 58.2836 45.5086C57.0174 46.6242 56.2015 48.1633 55.9889 49.8373C55.7762 51.5114 56.1814 53.2056 57.1285 54.6023C58.0757 55.9989 59.4997 57.0023 61.1336 57.4241V59.4001C61.1336 61.6987 60.2205 63.9031 58.5952 65.5284C56.9699 67.1537 54.7655 68.0668 52.4669 68.0668C50.1684 68.0668 47.964 67.1537 46.3387 65.5284C44.7134 63.9031 43.8003 61.6987 43.8003 59.4001C43.888 57.3338 44.3941 55.3068 45.2879 53.4417C46.1817 51.5766 47.4446 49.9123 49.0003 48.5495C50.6064 47.4346 51.9185 45.9472 52.8241 44.2144C53.7297 42.4817 54.2019 40.5553 54.2003 38.6001V31.6668C54.2003 30.2877 53.6524 28.965 52.6772 27.9898C51.702 27.0147 50.3794 26.4668 49.0003 26.4668H47.2669C46.8072 26.4668 46.3663 26.6494 46.0413 26.9745C45.7162 27.2995 45.5336 27.7404 45.5336 28.2001C45.5336 28.6598 45.7162 29.1007 46.0413 29.4258C46.3663 29.7508 46.8072 29.9335 47.2669 29.9335H49.0003C49.46 29.9335 49.9008 30.1161 50.2259 30.4411C50.551 30.7662 50.7336 31.2071 50.7336 31.6668V38.6001C50.7336 39.7383 50.5094 40.8652 50.0739 41.9167C49.6383 42.9682 49 43.9236 48.1952 44.7284C47.3904 45.5332 46.435 46.1715 45.3835 46.6071C44.332 47.0426 43.205 47.2668 42.0669 47.2668ZM62.8669 54.2001C61.9475 54.2001 61.0657 53.8349 60.4156 53.1848C59.7655 52.5346 59.4003 51.6529 59.4003 50.7335C59.4003 49.814 59.7655 48.9323 60.4156 48.2822C61.0657 47.632 61.9475 47.2668 62.8669 47.2668C63.7863 47.2668 64.6681 47.632 65.3182 48.2822C65.9684 48.9323 66.3336 49.814 66.3336 50.7335C66.3336 51.6529 65.9684 52.5346 65.3182 53.1848C64.6681 53.8349 63.7863 54.2001 62.8669 54.2001Z" fill="#B2B2B2"/>
<defs>
<linearGradient id="paint0_linear_479_3344" x1="8.19" y1="9.36" x2="86.58" y2="88.335" gradientUnits="userSpaceOnUse">
<stop stop-color="white"/>
<stop offset="1" stop-color="#EAEAEA"/>
</linearGradient>
</defs>
</svg>
