<svg width="98" height="98" viewBox="0 0 98 98" fill="none" xmlns="http://www.w3.org/2000/svg">
<rect x="0.585" y="0.585" width="95.94" height="95.94" rx="19.305" fill="url(#paint0_linear_546_4015)" stroke="#DEDEDE" stroke-width="1.17"/>
<path d="M46.6562 52.1875C48.2132 52.1875 49.5243 51.6549 50.5896 50.5896C51.6549 49.5243 52.1875 48.2132 52.1875 46.6562C52.1875 45.0993 51.6549 43.7882 50.5896 42.7229C49.5243 41.6576 48.2132 41.125 46.6562 41.125C45.0993 41.125 43.7882 41.6576 42.7229 42.7229C41.6576 43.7882 41.125 45.0993 41.125 46.6562C41.125 48.2132 41.6576 49.5243 42.7229 50.5896C43.7882 51.6549 45.0993 52.1875 46.6562 52.1875ZM58.5177 62.0208L52.0646 55.5677C51.2451 56.1003 50.3749 56.4896 49.4538 56.7354C48.5328 56.9813 47.6003 57.1042 46.6562 57.1042C43.7472 57.1042 41.2791 56.0905 39.2517 54.0632C37.2244 52.0359 36.21 49.5669 36.2083 46.6562C36.2067 43.7456 37.2212 41.2774 39.2517 39.2517C41.2823 37.2261 43.7505 36.2116 46.6562 36.2083C49.562 36.2051 52.031 37.2195 54.0632 39.2517C56.0954 41.284 57.1091 43.7521 57.1042 46.6562C57.1042 47.5986 56.9714 48.5311 56.7059 49.4538C56.4404 50.3765 56.0405 51.2468 55.5063 52.0646L62.0208 58.5792L58.5177 62.0208ZM31.2917 70.625C29.9396 70.625 28.7825 70.144 27.8205 69.182C26.8585 68.2199 26.3766 67.0621 26.375 65.7083V55.875H31.2917V65.7083H41.125V70.625H31.2917ZM55.875 70.625V65.7083H65.7083V55.875H70.625V65.7083C70.625 67.0604 70.144 68.2183 69.182 69.182C68.2199 70.1456 67.0621 70.6266 65.7083 70.625H55.875ZM26.375 41.125V31.2917C26.375 29.9396 26.8568 28.7825 27.8205 27.8205C28.7842 26.8585 29.9412 26.3766 31.2917 26.375H41.125V31.2917H31.2917V41.125H26.375ZM65.7083 41.125V31.2917H55.875V26.375H65.7083C67.0604 26.375 68.2183 26.8568 69.182 27.8205C70.1456 28.7842 70.6266 29.9412 70.625 31.2917V41.125H65.7083Z" fill="#B2B2B2"/>
<defs>
<linearGradient id="paint0_linear_546_4015" x1="8.19" y1="9.36" x2="86.58" y2="88.335" gradientUnits="userSpaceOnUse">
<stop stop-color="white"/>
<stop offset="1" stop-color="#EAEAEA"/>
</linearGradient>
</defs>
</svg>
