<svg width="98" height="98" viewBox="0 0 98 98" fill="none" xmlns="http://www.w3.org/2000/svg">
<rect x="0.585" y="0.585" width="95.94" height="95.94" rx="19.305" fill="url(#paint0_linear_561_4173)" stroke="#DEDEDE" stroke-width="1.17"/>
<path d="M43.7199 40.2406C45.0639 40.2406 46.1439 39.1606 46.1439 37.8166C46.1439 36.4726 45.0639 35.3926 43.7199 35.3926C42.3759 35.3926 41.2959 36.4726 41.2959 37.8166C41.2959 39.1606 42.3759 40.2406 43.7199 40.2406Z" fill="#B2B2B2"/>
<path fill-rule="evenodd" clip-rule="evenodd" d="M48.5918 45.5206C48.5918 42.9286 46.4078 41.0566 43.7198 41.0566C41.0318 41.0566 38.8478 42.9286 38.8478 45.5206V46.7446C38.8478 46.9606 38.9438 47.1766 39.0878 47.3206C39.2318 47.4646 39.4478 47.5606 39.6638 47.5606H47.7758C47.9918 47.5606 48.2078 47.4646 48.3518 47.3206C48.4958 47.1766 48.5918 46.9606 48.5918 46.7446V45.5206ZM38.7998 52.6006C38.7998 52.1233 38.9894 51.6654 39.327 51.3278C39.6646 50.9903 40.1224 50.8006 40.5998 50.8006H57.3998C57.8772 50.8006 58.335 50.9903 58.6726 51.3278C59.0102 51.6654 59.1998 52.1233 59.1998 52.6006C59.1998 53.078 59.0102 53.5359 58.6726 53.8734C58.335 54.211 57.8772 54.4006 57.3998 54.4006H40.5998C40.1224 54.4006 39.6646 54.211 39.327 53.8734C38.9894 53.5359 38.7998 53.078 38.7998 52.6006ZM38.7998 59.8006C38.7998 59.3233 38.9894 58.8654 39.327 58.5278C39.6646 58.1903 40.1224 58.0006 40.5998 58.0006H57.3998C57.8772 58.0006 58.335 58.1903 58.6726 58.5278C59.0102 58.8654 59.1998 59.3233 59.1998 59.8006C59.1998 60.278 59.0102 60.7359 58.6726 61.0734C58.335 61.411 57.8772 61.6006 57.3998 61.6006H40.5998C40.1224 61.6006 39.6646 61.411 39.327 61.0734C38.9894 60.7359 38.7998 60.278 38.7998 59.8006Z" fill="#B2B2B2"/>
<path fill-rule="evenodd" clip-rule="evenodd" d="M31 31.0002C31 28.3554 33.1552 26.2002 35.8 26.2002H51.856C53.2048 26.2002 54.4768 26.7714 55.372 27.7146L55.3864 27.7314L65.7352 39.0162C66.5968 39.9354 67 41.1378 67 42.2802V67.0002C67 69.645 64.8448 71.8002 62.2 71.8002H35.8C33.1552 71.8002 31 69.645 31 67.0002V31.0002ZM51.8536 31.0002H35.8V67.0002H62.2V42.261L51.8896 31.017L51.8824 31.0146C51.8737 31.0082 51.8639 31.0034 51.8536 31.0002Z" fill="#B2B2B2"/>
<path fill-rule="evenodd" clip-rule="evenodd" d="M51.8561 26.2002C52.4926 26.2002 53.103 26.4531 53.5531 26.9031C54.0032 27.3532 54.2561 27.9637 54.2561 28.6002V39.8802H64.6001C64.9152 39.8802 65.2273 39.9423 65.5185 40.0629C65.8097 40.1835 66.0743 40.3603 66.2971 40.5831C66.52 40.806 66.6968 41.0706 66.8174 41.3618C66.938 41.6529 67.0001 41.965 67.0001 42.2802C67.0001 42.5954 66.938 42.9075 66.8174 43.1986C66.6968 43.4898 66.52 43.7544 66.2971 43.9773C66.0743 44.2001 65.8097 44.3769 65.5185 44.4975C65.2273 44.6181 64.9152 44.6802 64.6001 44.6802H51.8561C51.2195 44.6802 50.6091 44.4273 50.159 43.9773C49.7089 43.5272 49.4561 42.9167 49.4561 42.2802V28.6002C49.4561 27.9637 49.7089 27.3532 50.159 26.9031C50.6091 26.4531 51.2195 26.2002 51.8561 26.2002Z" fill="#B2B2B2"/>
<defs>
<linearGradient id="paint0_linear_561_4173" x1="8.19" y1="9.36" x2="86.58" y2="88.335" gradientUnits="userSpaceOnUse">
<stop stop-color="white"/>
<stop offset="1" stop-color="#EAEAEA"/>
</linearGradient>
</defs>
</svg>
