<svg width="98" height="98" viewBox="0 0 98 98" fill="none" xmlns="http://www.w3.org/2000/svg">
<rect x="0.585" y="0.585" width="95.94" height="95.94" rx="19.305" fill="url(#paint0_linear_976_12374)" stroke="#DEDEDE" stroke-width="1.17"/>
<path d="M74.477 74.9534C74.3849 74.9159 74.3012 74.8607 74.2307 74.7908C74.1602 74.7209 74.1043 74.6379 74.0662 74.5464L73.4549 73.1647C73.3404 72.9451 73.0113 72.9451 72.9033 73.1647L72.2913 74.547C72.2084 74.7274 72.0627 74.8718 71.8811 74.9534L71.1007 75.2888C71.0493 75.3125 71.0059 75.3504 70.9754 75.3979C70.945 75.4454 70.9288 75.5006 70.9288 75.5569C70.9288 75.6133 70.945 75.6685 70.9754 75.716C71.0059 75.7635 71.0493 75.8013 71.1007 75.8251L71.8811 76.1604C72.0695 76.2379 72.2173 76.3863 72.2913 76.5675L72.9033 77.9556C73.0177 78.1751 73.3469 78.1751 73.4549 77.9556L74.0669 76.5668C74.1479 76.3863 74.2957 76.2443 74.477 76.1604L75.2574 75.8251C75.3088 75.8013 75.3522 75.7635 75.3827 75.716C75.4131 75.6685 75.4293 75.6133 75.4293 75.5569C75.4293 75.5006 75.4131 75.4454 75.3827 75.3979C75.3522 75.3504 75.3088 75.3125 75.2574 75.2888L74.477 74.9534ZM84.1547 79.1152C83.5958 78.8659 83.1537 78.4132 82.9191 77.85L81.0792 73.5186C81.004 73.3632 80.8863 73.2321 80.7396 73.1404C80.5929 73.0487 80.4232 73 80.2499 73C80.0767 73 79.907 73.0487 79.7603 73.1404C79.6136 73.2321 79.4958 73.3632 79.4206 73.5186L77.5801 77.85C77.3417 78.4105 76.9011 78.8619 76.3452 79.1152L74.0167 80.1648C73.3276 80.504 73.3276 81.496 74.0167 81.8352L76.3452 82.8848C76.9039 83.1345 77.3458 83.587 77.5808 84.15L79.4206 88.4814C79.4958 88.6368 79.6136 88.7679 79.7603 88.8596C79.907 88.9513 80.0767 89 80.2499 89C80.4232 89 80.5929 88.9513 80.7396 88.8596C80.8863 88.7679 81.004 88.6368 81.0792 88.4814L82.9197 84.15C83.1582 83.5895 83.5987 83.1381 84.1547 82.8848L86.4831 81.8352C87.1723 81.496 87.1723 80.504 86.4831 80.1648L84.1547 79.1152ZM73.0376 83.4511C73.1405 83.702 73.3295 83.8966 73.5661 84.0092L74.5625 84.4732C74.6299 84.5081 74.6864 84.5608 74.7258 84.6254C74.7652 84.6901 74.786 84.7643 74.786 84.8399C74.786 84.9155 74.7652 84.9897 74.7258 85.0544C74.6864 85.119 74.6299 85.1717 74.5625 85.2066L73.5661 85.6706C73.3295 85.7832 73.1411 85.9842 73.0376 86.2287L72.2482 88.1339C72.2167 88.2013 72.1665 88.2584 72.1035 88.2983C72.0405 88.3383 71.9674 88.3595 71.8927 88.3595C71.818 88.3595 71.7449 88.3383 71.6819 88.2983C71.6189 88.2584 71.5687 88.2013 71.5372 88.1339L70.7484 86.2287C70.6484 85.9835 70.4599 85.7844 70.22 85.6706L69.2235 85.2066C69.1561 85.1717 69.0997 85.119 69.0603 85.0544C69.0208 84.9897 69 84.9155 69 84.8399C69 84.7643 69.0208 84.6901 69.0603 84.6254C69.0997 84.5608 69.1561 84.5081 69.2235 84.4732L70.22 84.0092C70.4565 83.8966 70.6449 83.6956 70.7484 83.4511L71.5378 81.5459C71.5694 81.4785 71.6196 81.4215 71.6825 81.3815C71.7455 81.3415 71.8186 81.3203 71.8933 81.3203C71.968 81.3203 72.0412 81.3415 72.1041 81.3815C72.1671 81.4215 72.2173 81.4785 72.2488 81.5459L73.0376 83.4511Z" fill="url(#paint1_linear_976_12374)"/>
<path d="M29.1529 43.9602C34.1179 54.7699 42.9383 63.3377 53.8877 67.9865L55.646 68.77C57.5931 69.637 59.7838 69.789 61.832 69.1991C63.8801 68.6093 65.6544 67.3155 66.8421 65.5456L69.1408 62.1222C69.5005 61.5853 69.6461 60.9331 69.549 60.2942C69.4518 59.6553 69.1189 59.0759 68.6159 58.6702L60.8278 52.387C60.5565 52.1683 60.2439 52.0067 59.9087 51.9119C59.5734 51.8171 59.2225 51.7909 58.8769 51.8351C58.5313 51.8793 58.1982 51.9929 57.8976 52.1691C57.597 52.3452 57.3351 52.5803 57.1276 52.8602L54.7178 56.1104C48.5317 53.0552 43.5246 48.0472 40.4705 41.8606L43.7182 39.4507C43.9981 39.2433 44.2332 38.9814 44.4093 38.6808C44.5854 38.3802 44.699 38.0471 44.7432 37.7015C44.7874 37.3559 44.7613 37.0049 44.6665 36.6697C44.5716 36.3345 44.41 36.0218 44.1914 35.7506L37.9081 27.9625C37.5024 27.4594 36.923 27.1265 36.2841 27.0294C35.6452 26.9322 34.9931 27.0779 34.4562 27.4376L31.0095 29.7492C29.229 30.9432 27.9301 32.7305 27.3444 34.7928C26.7586 36.855 26.924 39.0582 27.811 41.0099L29.1529 43.9602Z" fill="#B2B2B2"/>
<defs>
<linearGradient id="paint0_linear_976_12374" x1="8.19" y1="9.36" x2="86.58" y2="88.335" gradientUnits="userSpaceOnUse">
<stop stop-color="white"/>
<stop offset="1" stop-color="#EAEAEA"/>
</linearGradient>
<linearGradient id="paint1_linear_976_12374" x1="69" y1="74" x2="87" y2="88" gradientUnits="userSpaceOnUse">
<stop stop-color="#FF0000"/>
<stop offset="1" stop-color="#4800FF"/>
</linearGradient>
</defs>
</svg>
