<svg width="98" height="98" viewBox="0 0 98 98" fill="none" xmlns="http://www.w3.org/2000/svg">
<rect x="0.585" y="0.585" width="95.94" height="95.94" rx="19.305" fill="url(#paint0_linear_615_7099)" stroke="#DEDEDE" stroke-width="1.17"/>
<path fill-rule="evenodd" clip-rule="evenodd" d="M56.1241 32.0552C56.2968 31.4079 56.2107 30.7187 55.8841 30.1337C55.5574 29.5488 55.0159 29.1139 54.3742 28.9213C53.7325 28.7287 53.041 28.7935 52.4462 29.1019C51.8515 29.4103 51.4001 29.9382 51.1878 30.5736L40.8753 64.9486C40.7073 65.5946 40.7964 66.2806 41.1239 66.8622C41.4513 67.4438 41.9915 67.8758 42.6309 68.0672C43.2703 68.2587 43.959 68.1947 44.5522 67.8888C45.1454 67.5828 45.5969 67.0587 45.8116 66.4268L56.1241 32.0552ZM36.5716 38.0846C37.0544 38.568 37.3255 39.2232 37.3255 39.9065C37.3255 40.5897 37.0544 41.2449 36.5716 41.7283L29.7997 48.5002L36.5716 55.2721C37.027 55.7608 37.2749 56.4072 37.2631 57.0751C37.2513 57.743 36.9807 58.3803 36.5084 58.8527C36.036 59.325 35.3988 59.5956 34.7309 59.6074C34.0629 59.6192 33.4165 59.3712 32.9278 58.9158L24.3341 50.3221C23.8513 49.8387 23.5801 49.1834 23.5801 48.5002C23.5801 47.817 23.8513 47.1617 24.3341 46.6783L32.9278 38.0846C33.4112 37.6018 34.0665 37.3306 34.7497 37.3306C35.4329 37.3306 36.0882 37.6018 36.5716 38.0846ZM60.4278 58.9158C59.945 58.4324 59.6738 57.7772 59.6738 57.094C59.6738 56.4108 59.945 55.7555 60.4278 55.2721L67.1997 48.5002L60.4278 41.7283C59.9724 41.2396 59.7245 40.5932 59.7363 39.9253C59.7481 39.2574 60.0186 38.6201 60.491 38.1478C60.9633 37.6754 61.6006 37.4048 62.2685 37.393C62.9364 37.3813 63.5828 37.6292 64.0716 38.0846L72.6653 46.6783C73.1481 47.1617 73.4193 47.817 73.4193 48.5002C73.4193 49.1834 73.1481 49.8387 72.6653 50.3221L64.0716 58.9158C63.5882 59.3986 62.9329 59.6698 62.2497 59.6698C61.5665 59.6698 60.9112 59.3986 60.4278 58.9158Z" fill="#B2B2B2"/>
<path d="M74.477 74.9534C74.3849 74.9159 74.3012 74.8607 74.2307 74.7908C74.1602 74.7209 74.1043 74.6379 74.0662 74.5464L73.4549 73.1647C73.3404 72.9451 73.0113 72.9451 72.9033 73.1647L72.2913 74.547C72.2084 74.7274 72.0627 74.8718 71.8811 74.9534L71.1007 75.2888C71.0493 75.3125 71.0059 75.3504 70.9754 75.3979C70.945 75.4454 70.9288 75.5006 70.9288 75.5569C70.9288 75.6133 70.945 75.6685 70.9754 75.716C71.0059 75.7635 71.0493 75.8013 71.1007 75.8251L71.8811 76.1604C72.0695 76.2379 72.2173 76.3863 72.2913 76.5675L72.9033 77.9556C73.0177 78.1751 73.3469 78.1751 73.4549 77.9556L74.0669 76.5668C74.1479 76.3863 74.2957 76.2443 74.477 76.1604L75.2574 75.8251C75.3088 75.8013 75.3522 75.7635 75.3827 75.716C75.4131 75.6685 75.4293 75.6133 75.4293 75.5569C75.4293 75.5006 75.4131 75.4454 75.3827 75.3979C75.3522 75.3504 75.3088 75.3125 75.2574 75.2888L74.477 74.9534ZM84.1547 79.1152C83.5958 78.8659 83.1537 78.4132 82.9191 77.85L81.0792 73.5186C81.004 73.3632 80.8863 73.2321 80.7396 73.1404C80.5929 73.0487 80.4232 73 80.2499 73C80.0767 73 79.907 73.0487 79.7603 73.1404C79.6136 73.2321 79.4958 73.3632 79.4206 73.5186L77.5801 77.85C77.3417 78.4105 76.9011 78.8619 76.3452 79.1152L74.0167 80.1648C73.3276 80.504 73.3276 81.496 74.0167 81.8352L76.3452 82.8848C76.9039 83.1345 77.3458 83.587 77.5808 84.15L79.4206 88.4814C79.4958 88.6368 79.6136 88.7679 79.7603 88.8596C79.907 88.9513 80.0767 89 80.2499 89C80.4232 89 80.5929 88.9513 80.7396 88.8596C80.8863 88.7679 81.004 88.6368 81.0792 88.4814L82.9197 84.15C83.1582 83.5895 83.5987 83.1381 84.1547 82.8848L86.4831 81.8352C87.1723 81.496 87.1723 80.504 86.4831 80.1648L84.1547 79.1152ZM73.0376 83.4511C73.1405 83.702 73.3295 83.8966 73.5661 84.0092L74.5625 84.4732C74.6299 84.5081 74.6864 84.5608 74.7258 84.6254C74.7652 84.6901 74.786 84.7643 74.786 84.8399C74.786 84.9155 74.7652 84.9897 74.7258 85.0544C74.6864 85.119 74.6299 85.1717 74.5625 85.2066L73.5661 85.6706C73.3295 85.7832 73.1411 85.9842 73.0376 86.2287L72.2482 88.1339C72.2167 88.2013 72.1665 88.2584 72.1035 88.2983C72.0405 88.3383 71.9674 88.3595 71.8927 88.3595C71.818 88.3595 71.7449 88.3383 71.6819 88.2983C71.6189 88.2584 71.5687 88.2013 71.5372 88.1339L70.7484 86.2287C70.6484 85.9835 70.4599 85.7844 70.22 85.6706L69.2235 85.2066C69.1561 85.1717 69.0997 85.119 69.0603 85.0544C69.0208 84.9897 69 84.9155 69 84.8399C69 84.7643 69.0208 84.6901 69.0603 84.6254C69.0997 84.5608 69.1561 84.5081 69.2235 84.4732L70.22 84.0092C70.4565 83.8966 70.6449 83.6956 70.7484 83.4511L71.5378 81.5459C71.5694 81.4785 71.6196 81.4215 71.6825 81.3815C71.7455 81.3415 71.8186 81.3203 71.8933 81.3203C71.968 81.3203 72.0412 81.3415 72.1041 81.3815C72.1671 81.4215 72.2173 81.4785 72.2488 81.5459L73.0376 83.4511Z" fill="url(#paint1_linear_615_7099)"/>
<defs>
<linearGradient id="paint0_linear_615_7099" x1="8.19" y1="9.36" x2="86.58" y2="88.335" gradientUnits="userSpaceOnUse">
<stop stop-color="white"/>
<stop offset="1" stop-color="#EAEAEA"/>
</linearGradient>
<linearGradient id="paint1_linear_615_7099" x1="69" y1="74" x2="87" y2="88" gradientUnits="userSpaceOnUse">
<stop stop-color="#FF0000"/>
<stop offset="1" stop-color="#4800FF"/>
</linearGradient>
</defs>
</svg>
