<svg width="98" height="98" viewBox="0 0 98 98" fill="none" xmlns="http://www.w3.org/2000/svg">
<rect x="0.585" y="0.585" width="95.94" height="95.94" rx="19.305" fill="url(#paint0_linear_583_5021)" stroke="#DEDEDE" stroke-width="1.17"/>
<path d="M67.625 32.5625H51.6875V29.375C51.6875 28.5296 51.3517 27.7189 50.7539 27.1211C50.1561 26.5233 49.3454 26.1875 48.5 26.1875H29.375C28.5296 26.1875 27.7189 26.5233 27.1211 27.1211C26.5233 27.7189 26.1875 28.5296 26.1875 29.375V61.25C26.1875 62.0954 26.5233 62.9061 27.1211 63.5039C27.7189 64.1017 28.5296 64.4375 29.375 64.4375H45.3125V67.625C45.3125 68.4704 45.6483 69.2811 46.2461 69.8789C46.8439 70.4767 47.6546 70.8125 48.5 70.8125H67.625C68.4704 70.8125 69.2811 70.4767 69.8789 69.8789C70.4767 69.2811 70.8125 68.4704 70.8125 67.625V35.75C70.8125 34.9046 70.4767 34.0939 69.8789 33.4961C69.2811 32.8983 68.4704 32.5625 67.625 32.5625ZM29.375 46.9062H39.2084L35.0966 51.0341L37.3438 53.2812L45.3125 45.3125L37.3438 37.3438L35.0966 39.5909L39.2084 43.7188H29.375V29.375H48.5V61.25H29.375V46.9062ZM48.5 67.625V64.4375C49.3454 64.4375 50.1561 64.1017 50.7539 63.5039C51.3517 62.9061 51.6875 62.0954 51.6875 61.25V35.75H67.625V50.0938H57.7916L61.9034 45.9659L59.6562 43.7188L51.6875 51.6875L59.6562 59.6562L61.9034 57.4091L57.7916 53.2812H67.625V67.625H48.5Z" fill="#B2B2B2"/>
<defs>
<linearGradient id="paint0_linear_583_5021" x1="8.19" y1="9.36" x2="86.58" y2="88.335" gradientUnits="userSpaceOnUse">
<stop stop-color="white"/>
<stop offset="1" stop-color="#EAEAEA"/>
</linearGradient>
</defs>
</svg>
