<svg width="98" height="98" viewBox="0 0 98 98" fill="none" xmlns="http://www.w3.org/2000/svg">
<rect x="0.585" y="0.585" width="95.94" height="95.94" rx="19.305" fill="url(#paint0_linear_825_6347)" stroke="#DEDEDE" stroke-width="1.17"/>
<path d="M30.8014 35.1994C31.9683 35.1994 33.0875 34.7358 33.9126 33.9107C34.7378 33.0855 35.2014 31.9664 35.2014 30.7994C35.2014 29.6325 34.7378 28.5133 33.9126 27.6881C33.0875 26.863 31.9683 26.3994 30.8014 26.3994C29.6344 26.3994 28.5153 26.863 27.6901 27.6881C26.8649 28.5133 26.4014 29.6325 26.4014 30.7994C26.4014 31.9664 26.8649 33.0855 27.6901 33.9107C28.5153 34.7358 29.6344 35.1994 30.8014 35.1994ZM33.0014 68.1994C34.7518 68.1994 36.4305 67.5041 37.6683 66.2663C38.906 65.0286 39.6014 63.3498 39.6014 61.5994C39.6014 59.849 38.906 58.1702 37.6683 56.9325C36.4305 55.6948 34.7518 54.9994 33.0014 54.9994C31.2509 54.9994 29.5722 55.6948 28.3345 56.9325C27.0967 58.1702 26.4014 59.849 26.4014 61.5994C26.4014 63.3498 27.0967 65.0286 28.3345 66.2663C29.5722 67.5041 31.2509 68.1994 33.0014 68.1994ZM63.8014 70.3994C65.5518 70.3994 67.2305 69.7041 68.4683 68.4663C69.706 67.2286 70.4014 65.5498 70.4014 63.7994C70.4014 62.049 69.706 60.3702 68.4683 59.1325C67.2305 57.8948 65.5518 57.1994 63.8014 57.1994C62.0509 57.1994 60.3722 57.8948 59.1345 59.1325C57.8967 60.3702 57.2014 62.049 57.2014 63.7994C57.2014 65.5498 57.8967 67.2286 59.1345 68.4663C60.3722 69.7041 62.0509 70.3994 63.8014 70.3994ZM46.2014 52.7994C48.5353 52.7994 50.7736 51.8723 52.4239 50.222C54.0742 48.5716 55.0014 46.3333 55.0014 43.9994C55.0014 41.6655 54.0742 39.4272 52.4239 37.7769C50.7736 36.1266 48.5353 35.1994 46.2014 35.1994C43.8675 35.1994 41.6291 36.1266 39.9788 37.7769C38.3285 39.4272 37.4014 41.6655 37.4014 43.9994C37.4014 46.3333 38.3285 48.5716 39.9788 50.222C41.6291 51.8723 43.8675 52.7994 46.2014 52.7994ZM59.4014 35.1994C60.5683 35.1994 61.6875 34.7358 62.5126 33.9107C63.3378 33.0855 63.8014 31.9664 63.8014 30.7994C63.8014 29.6325 63.3378 28.5133 62.5126 27.6881C61.6875 26.863 60.5683 26.3994 59.4014 26.3994C58.2344 26.3994 57.1153 26.863 56.2901 27.6881C55.4649 28.5133 55.0014 29.6325 55.0014 30.7994C55.0014 31.9664 55.4649 33.0855 56.2901 33.9107C57.1153 34.7358 58.2344 35.1994 59.4014 35.1994Z" stroke="#B2B2B2" stroke-width="4.4" stroke-linecap="round" stroke-linejoin="round"/>
<path d="M34.1016 34.0996L38.5016 38.4996M55.0016 35.1996L52.8016 37.3996M59.4016 58.8496L52.8016 50.5996M37.4016 56.0996L41.8016 51.6996" stroke="#B2B2B2" stroke-width="4.4" stroke-linecap="round" stroke-linejoin="round"/>
<defs>
<linearGradient id="paint0_linear_825_6347" x1="8.19" y1="9.36" x2="86.58" y2="88.335" gradientUnits="userSpaceOnUse">
<stop stop-color="white"/>
<stop offset="1" stop-color="#EAEAEA"/>
</linearGradient>
</defs>
</svg>
