<svg width="98" height="98" viewBox="0 0 98 98" fill="none" xmlns="http://www.w3.org/2000/svg">
<rect x="0.585" y="0.585" width="95.94" height="95.94" rx="19.305" fill="url(#paint0_linear_493_4136)" stroke="#DEDEDE" stroke-width="1.17"/>
<path d="M25.4163 36.167L14.333 42.0003V44.3337H36.4997V42.0003M30.6663 46.667V54.8337H34.1663V46.667M14.333 60.667H36.4997V57.167H14.333M23.6663 46.667V54.8337H27.1663V46.667M16.6663 46.667V54.8337H20.1663V46.667H16.6663Z" fill="#B2B2B2"/>
<path d="M71.4163 36.167L60.333 42.0003V44.3337H82.4997V42.0003M76.6663 46.667V54.8337H80.1663V46.667M60.333 60.667H82.4997V57.167H60.333M69.6663 46.667V54.8337H73.1663V46.667M62.6663 46.667V54.8337H66.1663V46.667H62.6663Z" fill="#B2B2B2"/>
<path d="M49.0928 44.0674C49.3436 43.8166 49.6838 43.6758 50.0384 43.6758C50.3931 43.6758 50.7333 43.8166 50.9841 44.0674L57.0033 50.0866C57.254 50.3374 57.3949 50.6776 57.3949 51.0322C57.3949 51.3869 57.254 51.7271 57.0033 51.9779L50.9841 57.9971C50.7319 58.2407 50.394 58.3755 50.0433 58.3725C49.6926 58.3694 49.3571 58.2288 49.1091 57.9808C48.8611 57.7328 48.7204 57.3973 48.7173 57.0466C48.7143 56.6959 48.8491 56.358 49.0928 56.1057L52.7136 52.3698H40.0065C39.6518 52.3698 39.3116 52.2289 39.0607 51.9781C38.8099 51.7272 38.6689 51.387 38.6689 51.0322C38.6689 50.6775 38.8099 50.3373 39.0607 50.0864C39.3116 49.8356 39.6518 49.6946 40.0065 49.6946H52.7136L49.0928 45.9588C48.842 45.7079 48.7011 45.3678 48.7011 45.0131C48.7011 44.6584 48.842 44.3182 49.0928 44.0674Z" fill="#B2B2B2"/>
<path d="M70.4997 84.4167C70.4997 85.425 71.3247 86.25 72.333 86.25H79.6663C80.6747 86.25 81.4997 85.425 81.4997 84.4167V73.4167H70.4997V84.4167ZM82.4163 70.6667H79.208L78.2913 69.75H73.708L72.7913 70.6667H69.583V72.5H82.4163V70.6667Z" fill="#B2B2B2"/>
<defs>
<linearGradient id="paint0_linear_493_4136" x1="8.19" y1="9.36" x2="86.58" y2="88.335" gradientUnits="userSpaceOnUse">
<stop stop-color="white"/>
<stop offset="1" stop-color="#EAEAEA"/>
</linearGradient>
</defs>
</svg>
