<svg width="98" height="98" viewBox="0 0 98 98" fill="none" xmlns="http://www.w3.org/2000/svg">
<rect x="0.585" y="0.585" width="95.94" height="95.94" rx="19.305" fill="url(#paint0_linear_196_7985)" stroke="#DEDEDE" stroke-width="1.17"/>
<path d="M48.5 24.208L28.625 33.0413V46.2913C28.625 58.5476 37.105 70.0088 48.5 72.7913C59.895 70.0088 68.375 58.5476 68.375 46.2913V33.0413L48.5 24.208ZM48.5 32.8205C49.8103 32.8205 51.0912 33.2091 52.1807 33.937C53.2701 34.665 54.1193 35.6997 54.6207 36.9102C55.1221 38.1208 55.2533 39.4529 54.9977 40.738C54.7421 42.0231 54.1111 43.2036 53.1846 44.1301C52.2581 45.0566 51.0776 45.6876 49.7925 45.9432C48.5073 46.1988 47.1753 46.0676 45.9647 45.5662C44.7542 45.0648 43.7195 44.2156 42.9915 43.1262C42.2635 42.0367 41.875 40.7558 41.875 39.4455C41.875 37.6884 42.573 36.0034 43.8154 34.7609C45.0578 33.5185 46.7429 32.8205 48.5 32.8205ZM48.5 50.2663C52.9167 50.2663 61.75 52.6734 61.75 57.068C60.2996 59.2545 58.3307 61.0481 56.0188 62.2889C53.7069 63.5296 51.1238 64.179 48.5 64.179C45.8762 64.179 43.2931 63.5296 40.9812 62.2889C38.6693 61.0481 36.7004 59.2545 35.25 57.068C35.25 52.6734 44.0833 50.2663 48.5 50.2663Z" fill="#B2B2B2"/>
<path d="M65.4997 79.4167C65.4997 80.425 66.3247 81.25 67.333 81.25H74.6663C75.6747 81.25 76.4997 80.425 76.4997 79.4167V68.4167H65.4997V79.4167ZM77.4163 65.6667H74.208L73.2913 64.75H68.708L67.7913 65.6667H64.583V67.5H77.4163V65.6667Z" fill="#B2B2B2"/>
<defs>
<linearGradient id="paint0_linear_196_7985" x1="8.19" y1="9.36" x2="86.58" y2="88.335" gradientUnits="userSpaceOnUse">
<stop stop-color="white"/>
<stop offset="1" stop-color="#EAEAEA"/>
</linearGradient>
</defs>
</svg>
