<svg width="98" height="98" viewBox="0 0 98 98" fill="none" xmlns="http://www.w3.org/2000/svg">
<rect x="0.585" y="0.585" width="95.94" height="95.94" rx="19.305" fill="url(#paint0_linear_631_5834)" stroke="#DEDEDE" stroke-width="1.17"/>
<path fill-rule="evenodd" clip-rule="evenodd" d="M54.0256 26.1077C54.0256 25.9501 53.963 25.799 53.8516 25.6877C53.7403 25.5763 53.5892 25.5137 53.4316 25.5137H36.7996C35.0667 25.5137 33.4048 26.2021 32.1794 27.4274C30.954 28.6528 30.2656 30.3147 30.2656 32.0477V65.3117C30.2656 67.0446 30.954 68.7065 32.1794 69.9319C33.4048 71.1573 35.0667 71.8457 36.7996 71.8457H60.5596C62.2926 71.8457 63.9545 71.1573 65.1799 69.9319C66.4052 68.7065 67.0936 67.0446 67.0936 65.3117V41.9009C67.0936 41.7434 67.031 41.5923 66.9197 41.4809C66.8083 41.3695 66.6572 41.3069 66.4996 41.3069H55.8076C55.335 41.3069 54.8818 41.1192 54.5476 40.785C54.2134 40.4508 54.0256 39.9976 54.0256 39.5249V26.1077ZM55.8076 49.2737C56.2802 49.2737 56.7335 49.4614 57.0677 49.7956C57.4019 50.1298 57.5896 50.5831 57.5896 51.0557C57.5896 51.5283 57.4019 51.9815 57.0677 52.3157C56.7335 52.6499 56.2802 52.8377 55.8076 52.8377H41.5516C41.079 52.8377 40.6258 52.6499 40.2916 52.3157C39.9574 51.9815 39.7696 51.5283 39.7696 51.0557C39.7696 50.5831 39.9574 50.1298 40.2916 49.7956C40.6258 49.4614 41.079 49.2737 41.5516 49.2737H55.8076ZM55.8076 58.7777C56.2802 58.7777 56.7335 58.9654 57.0677 59.2996C57.4019 59.6338 57.5896 60.0871 57.5896 60.5597C57.5896 61.0323 57.4019 61.4855 57.0677 61.8197C56.7335 62.1539 56.2802 62.3417 55.8076 62.3417H41.5516C41.079 62.3417 40.6258 62.1539 40.2916 61.8197C39.9574 61.4855 39.7696 61.0323 39.7696 60.5597C39.7696 60.0871 39.9574 59.6338 40.2916 59.2996C40.6258 58.9654 41.079 58.7777 41.5516 58.7777H55.8076Z" fill="#B2B2B2"/>
<path d="M57.5889 26.8776C57.5889 26.4404 58.0474 26.1624 58.3872 26.4357C58.6755 26.6685 58.9313 26.9394 59.1547 27.2483L66.3135 37.2203C66.4751 37.4484 66.2993 37.743 66.0189 37.743H58.1829C58.0253 37.743 57.8742 37.6805 57.7628 37.5691C57.6514 37.4577 57.5889 37.3066 57.5889 37.149V26.8776Z" fill="#B2B2B2"/>
<path d="M74.477 74.9534C74.3849 74.9159 74.3012 74.8607 74.2307 74.7908C74.1602 74.7209 74.1043 74.6379 74.0662 74.5464L73.4549 73.1647C73.3404 72.9451 73.0113 72.9451 72.9033 73.1647L72.2913 74.547C72.2084 74.7274 72.0627 74.8718 71.8811 74.9534L71.1007 75.2888C71.0493 75.3125 71.0059 75.3504 70.9754 75.3979C70.945 75.4454 70.9288 75.5006 70.9288 75.5569C70.9288 75.6133 70.945 75.6685 70.9754 75.716C71.0059 75.7635 71.0493 75.8013 71.1007 75.8251L71.8811 76.1604C72.0695 76.2379 72.2173 76.3863 72.2913 76.5675L72.9033 77.9556C73.0177 78.1751 73.3469 78.1751 73.4549 77.9556L74.0669 76.5668C74.1479 76.3863 74.2957 76.2443 74.477 76.1604L75.2574 75.8251C75.3088 75.8013 75.3522 75.7635 75.3827 75.716C75.4131 75.6685 75.4293 75.6133 75.4293 75.5569C75.4293 75.5006 75.4131 75.4454 75.3827 75.3979C75.3522 75.3504 75.3088 75.3125 75.2574 75.2888L74.477 74.9534ZM84.1547 79.1152C83.5958 78.8659 83.1537 78.4132 82.9191 77.85L81.0792 73.5186C81.004 73.3632 80.8863 73.2321 80.7396 73.1404C80.5929 73.0487 80.4232 73 80.2499 73C80.0767 73 79.907 73.0487 79.7603 73.1404C79.6136 73.2321 79.4958 73.3632 79.4206 73.5186L77.5801 77.85C77.3417 78.4105 76.9011 78.8619 76.3452 79.1152L74.0167 80.1648C73.3276 80.504 73.3276 81.496 74.0167 81.8352L76.3452 82.8848C76.9039 83.1345 77.3458 83.587 77.5808 84.15L79.4206 88.4814C79.4958 88.6368 79.6136 88.7679 79.7603 88.8596C79.907 88.9513 80.0767 89 80.2499 89C80.4232 89 80.5929 88.9513 80.7396 88.8596C80.8863 88.7679 81.004 88.6368 81.0792 88.4814L82.9197 84.15C83.1582 83.5895 83.5987 83.1381 84.1547 82.8848L86.4831 81.8352C87.1723 81.496 87.1723 80.504 86.4831 80.1648L84.1547 79.1152ZM73.0376 83.4511C73.1405 83.702 73.3295 83.8966 73.5661 84.0092L74.5625 84.4732C74.6299 84.5081 74.6864 84.5608 74.7258 84.6254C74.7652 84.6901 74.786 84.7643 74.786 84.8399C74.786 84.9155 74.7652 84.9897 74.7258 85.0544C74.6864 85.119 74.6299 85.1717 74.5625 85.2066L73.5661 85.6706C73.3295 85.7832 73.1411 85.9842 73.0376 86.2287L72.2482 88.1339C72.2167 88.2013 72.1665 88.2584 72.1035 88.2983C72.0405 88.3383 71.9674 88.3595 71.8927 88.3595C71.818 88.3595 71.7449 88.3383 71.6819 88.2983C71.6189 88.2584 71.5687 88.2013 71.5372 88.1339L70.7484 86.2287C70.6484 85.9835 70.4599 85.7844 70.22 85.6706L69.2235 85.2066C69.1561 85.1717 69.0997 85.119 69.0603 85.0544C69.0208 84.9897 69 84.9155 69 84.8399C69 84.7643 69.0208 84.6901 69.0603 84.6254C69.0997 84.5608 69.1561 84.5081 69.2235 84.4732L70.22 84.0092C70.4565 83.8966 70.6449 83.6956 70.7484 83.4511L71.5378 81.5459C71.5694 81.4785 71.6196 81.4215 71.6825 81.3815C71.7455 81.3415 71.8186 81.3203 71.8933 81.3203C71.968 81.3203 72.0412 81.3415 72.1041 81.3815C72.1671 81.4215 72.2173 81.4785 72.2488 81.5459L73.0376 83.4511Z" fill="url(#paint1_linear_631_5834)"/>
<defs>
<linearGradient id="paint0_linear_631_5834" x1="8.19" y1="9.36" x2="86.58" y2="88.335" gradientUnits="userSpaceOnUse">
<stop stop-color="white"/>
<stop offset="1" stop-color="#EAEAEA"/>
</linearGradient>
<linearGradient id="paint1_linear_631_5834" x1="69" y1="74" x2="87" y2="88" gradientUnits="userSpaceOnUse">
<stop stop-color="#FF0000"/>
<stop offset="1" stop-color="#4800FF"/>
</linearGradient>
</defs>
</svg>
