<svg width="98" height="98" viewBox="0 0 98 98" fill="none" xmlns="http://www.w3.org/2000/svg">
<rect x="0.585" y="0.585" width="95.94" height="95.94" rx="19.305" fill="url(#paint0_linear_196_8238)" stroke="#DEDEDE" stroke-width="1.17"/>
<path d="M49 57.334L37.75 46.2923L40.9 43.0902L46.75 48.8319V30.834H51.25V48.8319L57.1 43.0902L60.25 46.2923L49 57.334ZM35.5 66.1673C34.2625 66.1673 33.2035 65.7352 32.323 64.871C31.4425 64.0068 31.0015 62.9667 31 61.7507V55.1257H35.5V61.7507H62.5V55.1257H67V61.7507C67 62.9652 66.5597 64.0054 65.6792 64.871C64.7988 65.7367 63.739 66.1688 62.5 66.1673H35.5Z" fill="#B2B2B2"/>
<defs>
<linearGradient id="paint0_linear_196_8238" x1="8.19" y1="9.36" x2="86.58" y2="88.335" gradientUnits="userSpaceOnUse">
<stop stop-color="white"/>
<stop offset="1" stop-color="#EAEAEA"/>
</linearGradient>
</defs>
</svg>
