<svg width="98" height="98" viewBox="0 0 98 98" fill="none" xmlns="http://www.w3.org/2000/svg">
<rect x="0.585" y="0.585" width="95.94" height="95.94" rx="19.305" fill="url(#paint0_linear_526_3875)" stroke="#DEDEDE" stroke-width="1.17"/>
<g clip-path="url(#clip0_526_3875)">
<path fill-rule="evenodd" clip-rule="evenodd" d="M56.583 28.3333C56.583 27.6482 56.3108 26.9911 55.8264 26.5066C55.3419 26.0222 54.6848 25.75 53.9997 25.75C53.3145 25.75 52.6575 26.0222 52.173 26.5066C51.6885 26.9911 51.4163 27.6482 51.4163 28.3333V30.9167C48.6758 30.9167 46.0474 32.0054 44.1096 33.9432C42.1717 35.8811 41.083 38.5094 41.083 41.25C41.083 43.9906 42.1717 46.6189 44.1096 48.5568C46.0474 50.4946 48.6758 51.5833 51.4163 51.5833V61.9167C50.3476 61.9172 49.305 61.5863 48.4322 60.9696C47.5594 60.3528 46.8993 59.4806 46.5429 58.4731C46.3058 57.839 45.8293 57.3233 45.2158 57.0369C44.6024 56.7506 43.9011 56.7165 43.2628 56.942C42.6244 57.1674 42.1001 57.6345 41.8026 58.2426C41.5051 58.8507 41.4582 59.5513 41.672 60.1936C42.3843 62.2087 43.7039 63.9534 45.449 65.1874C47.1942 66.4213 49.279 67.0837 51.4163 67.0833V69.6667C51.4163 70.3518 51.6885 71.0089 52.173 71.4934C52.6575 71.9778 53.3145 72.25 53.9997 72.25C54.6848 72.25 55.3419 71.9778 55.8264 71.4934C56.3108 71.0089 56.583 70.3518 56.583 69.6667V67.0833C59.3236 67.0833 61.9519 65.9946 63.8898 64.0568C65.8277 62.1189 66.9163 59.4906 66.9163 56.75C66.9163 54.0094 65.8277 51.3811 63.8898 49.4432C61.9519 47.5054 59.3236 46.4167 56.583 46.4167V36.0833C57.6517 36.0828 58.6943 36.4137 59.5671 37.0304C60.44 37.6472 61.1 38.5194 61.4565 39.5269C61.6936 40.161 62.1701 40.6767 62.7835 40.9631C63.3969 41.2494 64.0983 41.2835 64.7366 41.058C65.3749 40.8326 65.8992 40.3655 66.1967 39.7574C66.4942 39.1493 66.5411 38.4487 66.3273 37.8064C65.6151 35.7913 64.2955 34.0466 62.5503 32.8127C60.8052 31.5787 58.7203 30.9163 56.583 30.9167V28.3333ZM51.4163 36.0833C50.0461 36.0833 48.7319 36.6277 47.763 37.5966C46.794 38.5656 46.2497 39.8797 46.2497 41.25C46.2497 42.6203 46.794 43.9344 47.763 44.9034C48.7319 45.8723 50.0461 46.4167 51.4163 46.4167V36.0833ZM56.583 51.5833V61.9167C57.9533 61.9167 59.2675 61.3723 60.2364 60.4034C61.2053 59.4344 61.7497 58.1203 61.7497 56.75C61.7497 55.3797 61.2053 54.0656 60.2364 53.0966C59.2675 52.1277 57.9533 51.5833 56.583 51.5833Z" fill="#B2B2B2"/>
</g>
<path fill-rule="evenodd" clip-rule="evenodd" d="M16.4004 44.1996C16.4004 43.7753 16.569 43.3683 16.869 43.0682C17.1691 42.7682 17.576 42.5996 18.0004 42.5996H34.0004C34.4247 42.5996 34.8317 42.7682 35.1318 43.0682C35.4318 43.3683 35.6004 43.7753 35.6004 44.1996C35.6004 44.624 35.4318 45.0309 35.1318 45.331C34.8317 45.631 34.4247 45.7996 34.0004 45.7996H18.0004C17.576 45.7996 17.1691 45.631 16.869 45.331C16.569 45.0309 16.4004 44.624 16.4004 44.1996ZM16.4004 53.7996C16.4004 53.3753 16.569 52.9683 16.869 52.6682C17.1691 52.3682 17.576 52.1996 18.0004 52.1996H34.0004C34.4247 52.1996 34.8317 52.3682 35.1318 52.6682C35.4318 52.9683 35.6004 53.3753 35.6004 53.7996C35.6004 54.224 35.4318 54.6309 35.1318 54.931C34.8317 55.231 34.4247 55.3996 34.0004 55.3996H18.0004C17.576 55.3996 17.1691 55.231 16.869 54.931C16.569 54.6309 16.4004 54.224 16.4004 53.7996Z" fill="#B2B2B2"/>
<defs>
<linearGradient id="paint0_linear_526_3875" x1="8.19" y1="9.36" x2="86.58" y2="88.335" gradientUnits="userSpaceOnUse">
<stop stop-color="white"/>
<stop offset="1" stop-color="#EAEAEA"/>
</linearGradient>
<clipPath id="clip0_526_3875">
<rect width="62" height="62" fill="white" transform="translate(23 18)"/>
</clipPath>
</defs>
</svg>
