<svg width="98" height="98" viewBox="0 0 98 98" fill="none" xmlns="http://www.w3.org/2000/svg">
<rect x="0.585" y="0.585" width="95.94" height="95.94" rx="19.305" fill="url(#paint0_linear_576_4586)" stroke="#DEDEDE" stroke-width="1.17"/>
<path d="M69.875 34.25H54.4382L48.2618 29.6188C47.6442 29.158 46.8948 28.9082 46.1243 28.9062H36.0312C35.0864 28.9062 34.1803 29.2816 33.5122 29.9497C32.8441 30.6178 32.4688 31.5239 32.4688 32.4688V36.0312H28.9062C27.9614 36.0312 27.0553 36.4066 26.3872 37.0747C25.7191 37.7428 25.3438 38.6489 25.3438 39.5938V64.5312C25.3438 65.4761 25.7191 66.3822 26.3872 67.0503C27.0553 67.7184 27.9614 68.0938 28.9062 68.0938H62.9482C63.8401 68.0926 64.6951 67.7377 65.3258 67.1071C65.9565 66.4764 66.3113 65.6213 66.3125 64.7294V60.9688H70.0732C70.9651 60.9676 71.8201 60.6127 72.4508 59.9821C73.0815 59.3514 73.4363 58.4963 73.4375 57.6044V37.8125C73.4375 36.8677 73.0622 35.9615 72.3941 35.2934C71.726 34.6253 70.8198 34.25 69.875 34.25ZM69.875 57.4062H66.3125V44.9375C66.3125 43.9927 65.9372 43.0865 65.2691 42.4184C64.601 41.7503 63.6948 41.375 62.75 41.375H47.3132L41.1368 36.7437C40.5192 36.283 39.7698 36.0332 38.9993 36.0312H36.0312V32.4688H46.1243L52.775 37.4563C53.0833 37.6875 53.4583 37.8125 53.8438 37.8125H69.875V57.4062Z" fill="#B2B2B2"/>
<defs>
<linearGradient id="paint0_linear_576_4586" x1="8.19" y1="9.36" x2="86.58" y2="88.335" gradientUnits="userSpaceOnUse">
<stop stop-color="white"/>
<stop offset="1" stop-color="#EAEAEA"/>
</linearGradient>
</defs>
</svg>
