<svg width="98" height="98" viewBox="0 0 98 98" fill="none" xmlns="http://www.w3.org/2000/svg">
<rect x="0.585" y="0.585" width="95.94" height="95.94" rx="19.305" fill="url(#paint0_linear_380_2885)" stroke="#DEDEDE" stroke-width="1.17"/>
<path d="M76.24 68.9356C80.476 68.9356 83.956 72.0676 84.544 76.1356H87.04L82.84 80.9355L78.64 76.1356H81.424C81.1555 74.9609 80.4967 73.9119 79.5552 73.16C78.6136 72.4081 77.4449 71.9976 76.24 71.9956C74.5 71.9956 72.964 72.8476 71.992 74.1316L69.94 71.7916C70.7254 70.8934 71.694 70.1739 72.7806 69.6812C73.8673 69.1886 75.0468 68.9344 76.24 68.9356ZM75.76 85.0635C71.536 85.0635 68.044 81.9316 67.456 77.8636H64.96L69.16 73.0636C70.564 74.6596 71.956 76.2676 73.36 77.8636H70.576C70.8444 79.0382 71.5032 80.0872 72.4448 80.8391C73.3863 81.591 74.555 82.0015 75.76 82.0035C77.5 82.0035 79.036 81.1516 80.008 79.8676L82.06 82.2076C81.2753 83.1066 80.3069 83.8268 79.22 84.3195C78.1332 84.8122 76.9533 85.0659 75.76 85.0635Z" fill="#B2B2B2"/>
<path d="M65.069 32.9314C62.8353 30.6946 59.9131 29.2756 56.7739 28.9035C53.6348 28.5313 50.4618 29.2277 47.7671 30.8802C45.0723 32.5327 43.0128 35.0449 41.9211 38.0116C40.8294 40.9782 40.7691 44.2261 41.7498 47.2312L32.0432 56.9379C31.7809 57.1981 31.5729 57.5078 31.4314 57.8491C31.2899 58.1904 31.2176 58.5565 31.2188 58.9259V63.9691C31.2188 64.715 31.5151 65.4304 32.0425 65.9578C32.57 66.4853 33.2853 66.7816 34.0313 66.7816H39.6563C40.0292 66.7816 40.3869 66.6334 40.6506 66.3697C40.9144 66.106 41.0625 65.7483 41.0625 65.3754V62.5629H43.875C44.248 62.5629 44.6057 62.4147 44.8694 62.151C45.1331 61.8873 45.2813 61.5296 45.2813 61.1566V58.3441H48.0938C48.2785 58.3442 48.4614 58.308 48.6321 58.2374C48.8029 58.1668 48.958 58.0633 49.0887 57.9328L50.7692 56.2505C52.1757 56.7082 53.6459 56.9401 55.125 56.9379H55.1426C57.9225 56.9345 60.639 56.1073 62.949 54.5607C65.2589 53.0142 67.0587 50.8177 68.1209 48.2488C69.1831 45.6799 69.4601 42.8537 68.9169 40.1275C68.3737 37.4012 67.0347 34.897 65.069 32.9314ZM58.6406 42.1722C58.0844 42.1722 57.5406 42.0073 57.0781 41.6982C56.6156 41.3892 56.2551 40.9499 56.0422 40.436C55.8294 39.9221 55.7737 39.3566 55.8822 38.811C55.9907 38.2655 56.2586 37.7643 56.6519 37.371C57.0452 36.9777 57.5464 36.7098 58.0919 36.6013C58.6375 36.4928 59.203 36.5484 59.7169 36.7613C60.2309 36.9742 60.6701 37.3347 60.9791 37.7972C61.2882 38.2597 61.4531 38.8035 61.4531 39.3597C61.4531 40.1057 61.1568 40.821 60.6294 41.3485C60.1019 41.8759 59.3866 42.1722 58.6406 42.1722Z" fill="#B2B2B2"/>
<defs>
<linearGradient id="paint0_linear_380_2885" x1="8.19" y1="9.36" x2="86.58" y2="88.335" gradientUnits="userSpaceOnUse">
<stop stop-color="white"/>
<stop offset="1" stop-color="#EAEAEA"/>
</linearGradient>
</defs>
</svg>
