<svg width="98" height="98" viewBox="0 0 98 98" fill="none" xmlns="http://www.w3.org/2000/svg">
<rect x="0.585" y="0.585" width="95.94" height="95.94" rx="19.305" fill="url(#paint0_linear_919_11825)" stroke="#DEDEDE" stroke-width="1.17"/>
<path d="M48.0002 22C50.6684 22 53.2346 23.0255 55.1679 24.8645C57.1012 26.7034 58.2538 29.2151 58.3872 31.88L58.4002 32.4L58.4028 49.8928L58.5458 50.0436C60.6256 52.3144 61.9168 55.196 62.2274 58.2596L62.282 58.9772L62.3002 59.7C62.3 61.9953 61.7472 64.2567 60.6887 66.2933C59.6302 68.3299 58.097 70.0818 56.2187 71.401C54.3404 72.7201 52.1721 73.5677 49.8972 73.8722C47.6222 74.1767 45.3073 73.9291 43.1482 73.1503C40.9891 72.3715 39.0492 71.0844 37.4924 69.3979C35.9356 67.7113 34.8076 65.6747 34.2039 63.4603C33.6001 61.2459 33.5382 58.9187 34.0234 56.6753C34.5087 54.4319 35.5268 52.3383 36.9918 50.5714L37.4572 50.0384L37.5976 49.8902L37.6002 32.4C37.6 29.823 38.5565 27.3377 40.2844 25.4258C42.0123 23.5139 44.3885 22.3116 46.9524 22.052L47.4802 22.013L48.0002 22ZM48.0002 27.2C46.6883 27.1996 45.4247 27.6951 44.4628 28.5871C43.5008 29.4791 42.9116 30.7018 42.8132 32.01L42.8002 32.4V52.1418L41.9344 52.9166C40.5781 54.1295 39.6166 55.7212 39.174 57.4861C38.7314 59.251 38.828 61.108 39.4514 62.8174C40.0748 64.5269 41.1964 66.0101 42.6712 67.0758C44.146 68.1414 45.9065 68.7404 47.7252 68.7955C49.5439 68.8506 51.3373 68.3592 52.874 67.3848C54.4106 66.4104 55.6198 64.9977 56.3455 63.3292C57.0713 61.6606 57.2801 59.8128 56.9451 58.0244C56.6102 56.236 55.7468 54.589 54.4664 53.2962L54.0686 52.9192L53.2028 52.1444L53.2002 32.4C53.2002 31.0209 52.6523 29.6982 51.6772 28.723C50.702 27.7479 49.3793 27.2 48.0002 27.2ZM48.0002 37.6C48.6898 37.6 49.3511 37.8739 49.8387 38.3615C50.3263 38.8491 50.6002 39.5104 50.6002 40.2V53.7408C51.9688 54.3381 53.0901 55.3885 53.7754 56.7153C54.4606 58.0421 54.6682 59.5643 54.3631 61.0262C54.058 62.488 53.2589 63.8002 52.1001 64.7421C50.9413 65.684 49.4935 66.1981 48.0002 66.1981C46.5069 66.1981 45.0591 65.684 43.9003 64.7421C42.7415 63.8002 41.9424 62.488 41.6373 61.0262C41.3322 59.5643 41.5398 58.0421 42.225 56.7153C42.9103 55.3885 44.0316 54.3381 45.4002 53.7408V40.2C45.4002 39.5104 45.6741 38.8491 46.1617 38.3615C46.6493 37.8739 47.3106 37.6 48.0002 37.6Z" fill="#B2B2B2"/>
<defs>
<linearGradient id="paint0_linear_919_11825" x1="8.19" y1="9.36" x2="86.58" y2="88.335" gradientUnits="userSpaceOnUse">
<stop stop-color="white"/>
<stop offset="1" stop-color="#EAEAEA"/>
</linearGradient>
</defs>
</svg>
