<svg width="98" height="98" viewBox="0 0 98 98" fill="none" xmlns="http://www.w3.org/2000/svg">
<rect x="0.585" y="0.585" width="95.94" height="95.94" rx="19.305" fill="url(#paint0_linear_158_6814)" stroke="#DEDEDE" stroke-width="1.17"/>
<path d="M25 37.6553C25 36.9511 25.2529 36.2757 25.7029 35.7777C26.153 35.2798 26.7635 35 27.4 35H70.6C71.2365 35 71.847 35.2798 72.2971 35.7777C72.7471 36.2757 73 36.9511 73 37.6553C73 38.3596 72.7471 39.0349 72.2971 39.5329C71.847 40.0309 71.2365 40.3106 70.6 40.3106H27.4C26.7635 40.3106 26.153 40.0309 25.7029 39.5329C25.2529 39.0349 25 38.3596 25 37.6553ZM25 48.2766C25 47.5724 25.2529 46.897 25.7029 46.399C26.153 45.901 26.7635 45.6213 27.4 45.6213H70.6C71.2365 45.6213 71.847 45.901 72.2971 46.399C72.7471 46.897 73 47.5724 73 48.2766C73 48.9808 72.7471 49.6562 72.2971 50.1542C71.847 50.6522 71.2365 50.9319 70.6 50.9319H27.4C26.7635 50.9319 26.153 50.6522 25.7029 50.1542C25.2529 49.6562 25 48.9808 25 48.2766ZM27.4 56.2426C26.7635 56.2426 26.153 56.5223 25.7029 57.0203C25.2529 57.5182 25 58.1936 25 58.8979C25 59.6021 25.2529 60.2775 25.7029 60.7755C26.153 61.2734 26.7635 61.5532 27.4 61.5532H56.2C56.8365 61.5532 57.447 61.2734 57.8971 60.7755C58.3471 60.2775 58.6 59.6021 58.6 58.8979C58.6 58.1936 58.3471 57.5182 57.8971 57.0203C57.447 56.5223 56.8365 56.2426 56.2 56.2426H27.4Z" fill="#B2B2B2"/>
<defs>
<linearGradient id="paint0_linear_158_6814" x1="8.19" y1="9.36" x2="86.58" y2="88.335" gradientUnits="userSpaceOnUse">
<stop stop-color="white"/>
<stop offset="1" stop-color="#EAEAEA"/>
</linearGradient>
</defs>
</svg>
