<svg width="98" height="98" viewBox="0 0 98 98" fill="none" xmlns="http://www.w3.org/2000/svg">
<rect x="0.585" y="0.585" width="95.94" height="95.94" rx="19.305" fill="url(#paint0_linear_158_6932)" stroke="#DEDEDE" stroke-width="1.17"/>
<path d="M44.7078 66.7992L43.9718 60.9188C43.3225 60.7223 42.621 60.4146 41.8673 59.9957C41.1122 59.5755 40.4697 59.1254 39.9397 58.6456L34.5168 60.9534L30.7246 54.3451L35.4114 50.8111C35.3518 50.4424 35.3023 50.0629 35.263 49.6725C35.2251 49.2834 35.2061 48.9052 35.2061 48.5379C35.2061 48.1963 35.2251 47.837 35.263 47.4602C35.301 47.0833 35.3504 46.6591 35.4114 46.1873L30.7246 42.6534L34.5168 36.1223L39.901 38.3936C40.5083 37.8879 41.1658 37.4318 41.8734 37.0251C42.5783 36.6185 43.2649 36.304 43.9331 36.0817L44.7058 30.1992H52.2922L53.0282 36.1203C53.8077 36.3928 54.4963 36.7066 55.0941 37.0617C55.6933 37.4169 56.3094 37.8601 56.9424 38.3915L62.4832 36.1223L66.2754 42.6534L61.432 46.3053C61.5432 46.7255 61.6055 47.1105 61.6191 47.4602C61.6326 47.8126 61.6394 48.159 61.6394 48.4992C61.6394 48.8151 61.6259 49.1479 61.5987 49.4976C61.573 49.8487 61.5133 50.273 61.4198 50.7705L66.1859 54.3451L62.3938 60.9534L56.9424 58.6069C56.3094 59.1383 55.6723 59.5944 55.0311 59.9753C54.3885 60.3563 53.7209 60.6572 53.0282 60.8782L52.2922 66.7992H44.7078ZM48.4451 53.5826C49.863 53.5826 51.0647 53.0898 52.0502 52.1043C53.0357 51.1188 53.5284 49.9171 53.5284 48.4992C53.5284 47.0813 53.0357 45.8796 52.0502 44.8941C51.0647 43.9086 49.863 43.4159 48.4451 43.4159C47.0191 43.4159 45.8153 43.9086 44.8339 44.8941C43.8525 45.8796 43.3618 47.0813 43.3618 48.4992C43.3618 49.9171 43.8525 51.1188 44.8339 52.1043C45.8153 53.0898 47.0191 53.5826 48.4451 53.5826Z" fill="#B2B2B2"/>
<path d="M70.5999 77.1332L64.9332 71.4665L66.5199 69.8232L69.4665 72.7699V63.5332H71.7332V72.7699L74.6799 69.8232L76.2665 71.4665L70.5999 77.1332ZM63.7999 81.6665C63.1765 81.6665 62.6431 81.4448 62.1996 81.0013C61.7561 80.5578 61.534 80.024 61.5332 79.3999V75.9999H63.7999V79.3999H77.3999V75.9999H79.6665V79.3999C79.6665 80.0232 79.4448 80.557 79.0013 81.0013C78.5578 81.4455 78.024 81.6673 77.3999 81.6665H63.7999Z" fill="#B2B2B2"/>
<defs>
<linearGradient id="paint0_linear_158_6932" x1="8.19" y1="9.36" x2="86.58" y2="88.335" gradientUnits="userSpaceOnUse">
<stop stop-color="white"/>
<stop offset="1" stop-color="#EAEAEA"/>
</linearGradient>
</defs>
</svg>
