<svg width="98" height="98" viewBox="0 0 98 98" fill="none" xmlns="http://www.w3.org/2000/svg">
<rect x="0.915078" y="0.585" width="95.94" height="95.94" rx="19.305" fill="url(#paint0_linear_196_7479)" stroke="#DEDEDE" stroke-width="1.17"/>
<path d="M62.4412 65H35.219V43H62.4412M56.6079 29V33H41.0523V29H37.1634V33H35.219C33.0606 33 31.3301 34.78 31.3301 37V65C31.3301 66.0609 31.7398 67.0783 32.4691 67.8284C33.1984 68.5786 34.1876 69 35.219 69H62.4412C63.4726 69 64.4617 68.5786 65.191 67.8284C65.9204 67.0783 66.3301 66.0609 66.3301 65V37C66.3301 35.9391 65.9204 34.9217 65.191 34.1716C64.4617 33.4214 63.4726 33 62.4412 33H60.4967V29M58.5523 51H48.8301V61H58.5523V51Z" fill="#B2B2B2"/>
<path d="M72.9299 77.1332L67.2633 71.4665L68.8499 69.8232L71.7966 72.7699V63.5332H74.0633V72.7699L77.0099 69.8232L78.5966 71.4665L72.9299 77.1332ZM66.1299 81.6665C65.5066 81.6665 64.9732 81.4448 64.5297 81.0013C64.0862 80.5578 63.864 80.024 63.8633 79.3999V75.9999H66.1299V79.3999H79.7299V75.9999H81.9966V79.3999C81.9966 80.0232 81.7749 80.557 81.3313 81.0013C80.8878 81.4455 80.354 81.6673 79.7299 81.6665H66.1299Z" fill="#B2B2B2"/>
<defs>
<linearGradient id="paint0_linear_196_7479" x1="8.52008" y1="9.36" x2="86.9101" y2="88.335" gradientUnits="userSpaceOnUse">
<stop stop-color="white"/>
<stop offset="1" stop-color="#EAEAEA"/>
</linearGradient>
</defs>
</svg>
