<svg width="98" height="98" viewBox="0 0 98 98" fill="none" xmlns="http://www.w3.org/2000/svg">
<rect x="0.585" y="0.585" width="95.94" height="95.94" rx="19.305" fill="url(#paint0_linear_158_6810)" stroke="#DEDEDE" stroke-width="1.17"/>
<path d="M35.6667 40.4V35H73V40.4H35.6667ZM35.6667 51.2V45.8H73V51.2H35.6667ZM35.6667 62V56.6H73V62H35.6667ZM27.6667 40.4C26.9111 40.4 26.2782 40.1408 25.768 39.6224C25.2578 39.104 25.0018 38.4632 25 37.7C25 36.935 25.256 36.2942 25.768 35.7776C26.28 35.261 26.9129 35.0018 27.6667 35C28.4222 35 29.056 35.2592 29.568 35.7776C30.08 36.296 30.3351 36.9368 30.3333 37.7C30.3333 38.465 30.0773 39.1067 29.5653 39.6251C29.0533 40.1435 28.4204 40.4018 27.6667 40.4ZM27.6667 51.2C26.9111 51.2 26.2782 50.9408 25.768 50.4224C25.2578 49.904 25.0018 49.2632 25 48.5C25 47.735 25.256 47.0942 25.768 46.5776C26.28 46.061 26.9129 45.8018 27.6667 45.8C28.4222 45.8 29.056 46.0592 29.568 46.5776C30.08 47.096 30.3351 47.7368 30.3333 48.5C30.3333 49.265 30.0773 49.9067 29.5653 50.4251C29.0533 50.9435 28.4204 51.2018 27.6667 51.2ZM27.6667 62C26.9111 62 26.2782 61.7408 25.768 61.2224C25.2578 60.704 25.0018 60.0632 25 59.3C25 58.535 25.256 57.8942 25.768 57.3776C26.28 56.861 26.9129 56.6018 27.6667 56.6C28.4222 56.6 29.056 56.8592 29.568 57.3776C30.08 57.896 30.3351 58.5368 30.3333 59.3C30.3333 60.065 30.0773 60.7067 29.5653 61.2251C29.0533 61.7435 28.4204 62.0018 27.6667 62Z" fill="#B2B2B2"/>
<defs>
<linearGradient id="paint0_linear_158_6810" x1="8.19" y1="9.36" x2="86.58" y2="88.335" gradientUnits="userSpaceOnUse">
<stop stop-color="white"/>
<stop offset="1" stop-color="#EAEAEA"/>
</linearGradient>
</defs>
</svg>
