<svg width="98" height="98" viewBox="0 0 98 98" fill="none" xmlns="http://www.w3.org/2000/svg">
<rect x="0.585" y="0.585" width="95.94" height="95.94" rx="19.305" fill="url(#paint0_linear_572_4370)" stroke="#DEDEDE" stroke-width="1.17"/>
<path d="M48.2002 37.7002C45.7867 37.6986 43.4464 38.5285 41.573 40.0503C39.6997 41.572 38.4078 43.6926 37.9148 46.0552C37.4218 48.4179 37.7577 50.8782 38.8661 53.0221C39.9744 55.1661 41.7875 56.8628 44.0002 57.8266V62.9002H52.4002V57.8266C54.6109 56.8612 56.4218 55.1641 57.5285 53.0207C58.6353 50.8774 58.9704 48.4183 58.4777 46.0569C57.9849 43.6955 56.6942 41.5758 54.8226 40.0539C52.951 38.5321 50.6125 37.7009 48.2002 37.7002Z" fill="#B2B2B2"/>
<path d="M67.1002 48.2002H69.2002M61.8502 34.5502L63.9502 32.4502M48.2002 29.3002V27.2002M34.5502 34.5502L32.4502 32.4502M29.3002 48.2002H27.2002M44.0002 69.2002H52.4002M58.7002 48.2002C58.6997 46.3073 58.1874 44.4497 57.2177 42.8241C56.2479 41.1984 54.8568 39.8651 53.1914 38.9653C51.526 38.0655 49.6484 37.6327 47.7571 37.7125C45.8659 37.7924 44.0314 38.3821 42.4479 39.4191C40.8643 40.4561 39.5905 41.9019 38.7613 43.6035C37.9321 45.3052 37.5783 47.1993 37.7373 49.0855C37.8964 50.9718 38.5624 52.7799 39.6649 54.3186C40.7674 55.8574 42.2653 57.0694 44.0002 57.8266V62.9002H52.4002V57.8266C54.273 57.0089 55.8666 55.6627 56.9856 53.9528C58.1046 52.2429 58.7005 50.2437 58.7002 48.2002Z" stroke="#B2B2B2" stroke-width="4.2" stroke-linecap="round" stroke-linejoin="round"/>
<defs>
<linearGradient id="paint0_linear_572_4370" x1="8.19" y1="9.36" x2="86.58" y2="88.335" gradientUnits="userSpaceOnUse">
<stop stop-color="white"/>
<stop offset="1" stop-color="#EAEAEA"/>
</linearGradient>
</defs>
</svg>
