<svg width="98" height="98" viewBox="0 0 98 98" fill="none" xmlns="http://www.w3.org/2000/svg">
<rect x="0.585" y="0.585" width="95.94" height="95.94" rx="19.305" fill="url(#paint0_linear_867_6248)" stroke="#DEDEDE" stroke-width="1.17"/>
<path fill-rule="evenodd" clip-rule="evenodd" d="M29.7998 27.4C29.7998 26.7635 30.0527 26.153 30.5027 25.7029C30.9528 25.2529 31.5633 25 32.1998 25H65.7998C66.4363 25 67.0468 25.2529 67.4969 25.7029C67.947 26.153 68.1998 26.7635 68.1998 27.4V70.6C68.1998 71.0588 68.0684 71.508 67.821 71.8944C67.5736 72.2807 67.2206 72.5881 66.8039 72.78C66.3872 72.972 65.9242 73.0405 65.4697 72.9774C65.0153 72.9142 64.5885 72.7222 64.2398 72.424L61.7606 70.3C61.3257 69.9275 60.772 69.7228 60.1994 69.7228C59.6268 69.7228 59.0731 69.9275 58.6382 70.3L56.1614 72.4216C55.7264 72.7947 55.1721 72.9998 54.599 72.9998C54.0259 72.9998 53.4717 72.7947 53.0366 72.4216L50.5622 70.3C50.1272 69.9269 49.5729 69.7218 48.9998 69.7218C48.4267 69.7218 47.8725 69.9269 47.4374 70.3L44.963 72.4216C44.528 72.7947 43.9737 72.9998 43.4006 72.9998C42.8275 72.9998 42.2733 72.7947 41.8382 72.4216L39.3614 70.3C38.9265 69.9275 38.3728 69.7228 37.8002 69.7228C37.2276 69.7228 36.6739 69.9275 36.239 70.3L33.7622 72.4216C33.4138 72.7204 32.9869 72.9131 32.5323 72.9767C32.0777 73.0403 31.6144 72.9722 31.1973 72.7804C30.7803 72.5887 30.4269 72.2814 30.1792 71.8949C29.9315 71.5084 29.7998 71.059 29.7998 70.6V27.4ZM41.7998 34.6C41.1633 34.6 40.5528 34.8529 40.1027 35.3029C39.6527 35.753 39.3998 36.3635 39.3998 37C39.3998 37.6365 39.6527 38.247 40.1027 38.6971C40.5528 39.1471 41.1633 39.4 41.7998 39.4H56.1998C56.8363 39.4 57.4468 39.1471 57.8969 38.6971C58.3469 38.247 58.5998 37.6365 58.5998 37C58.5998 36.3635 58.3469 35.753 57.8969 35.3029C57.4468 34.8529 56.8363 34.6 56.1998 34.6H41.7998ZM41.7998 44.2C41.1633 44.2 40.5528 44.4529 40.1027 44.9029C39.6527 45.353 39.3998 45.9635 39.3998 46.6C39.3998 47.2365 39.6527 47.847 40.1027 48.2971C40.5528 48.7471 41.1633 49 41.7998 49H56.1998C56.8363 49 57.4468 48.7471 57.8969 48.2971C58.3469 47.847 58.5998 47.2365 58.5998 46.6C58.5998 45.9635 58.3469 45.353 57.8969 44.9029C57.4468 44.4529 56.8363 44.2 56.1998 44.2H41.7998ZM44.1998 56.2C44.1998 55.5635 44.4527 54.953 44.9027 54.5029C45.3528 54.0529 45.9633 53.8 46.5998 53.8H56.1998C56.8363 53.8 57.4468 54.0529 57.8969 54.5029C58.3469 54.953 58.5998 55.5635 58.5998 56.2C58.5998 56.8365 58.3469 57.447 57.8969 57.8971C57.4468 58.3471 56.8363 58.6 56.1998 58.6H46.5998C45.9633 58.6 45.3528 58.3471 44.9027 57.8971C44.4527 57.447 44.1998 56.8365 44.1998 56.2Z" fill="#B2B2B2"/>
<defs>
<linearGradient id="paint0_linear_867_6248" x1="8.19" y1="9.36" x2="86.58" y2="88.335" gradientUnits="userSpaceOnUse">
<stop stop-color="white"/>
<stop offset="1" stop-color="#EAEAEA"/>
</linearGradient>
</defs>
</svg>
