<svg width="98" height="98" viewBox="0 0 98 98" fill="none" xmlns="http://www.w3.org/2000/svg">
<rect x="0.585" y="0.585" width="95.94" height="95.94" rx="19.305" fill="url(#paint0_linear_1002_6295)" stroke="#DEDEDE" stroke-width="1.17"/>
<path d="M50.5579 27.6875V31.625H55.0017C55.7914 31.625 56.5632 31.8635 57.2157 32.3067L61.0339 34.9032C61.1284 34.9662 61.2334 34.9985 61.3489 35H70.5784C71.026 35 71.4552 35.1778 71.7717 35.4943C72.0881 35.8107 72.2659 36.2399 72.2659 36.6875C72.2659 37.1351 72.0881 37.5643 71.7717 37.8807C71.4552 38.1972 71.026 38.375 70.5784 38.375H67.0279L74.6014 55.655C74.7529 56.0005 74.7843 56.3869 74.6905 56.7523C74.5967 57.1177 74.3831 57.4412 74.0839 57.671C73.8589 57.8375 73.6264 57.992 73.3864 58.1345C72.8168 58.4771 72.2227 58.7772 71.6089 59.0322C69.5737 59.8833 67.3889 60.3186 65.1829 60.3125C62.9776 60.3221 60.7929 59.8874 58.7592 59.0345C58.1453 58.7787 57.5512 58.4779 56.9817 58.1345C56.7423 57.9973 56.5117 57.8455 56.2909 57.68L56.2797 57.671C55.9805 57.4412 55.7669 57.1177 55.6731 56.7523C55.5793 56.3869 55.6106 56.0005 55.7622 55.655L63.3402 38.375H61.3467C60.5569 38.375 59.7852 38.1365 59.1327 37.6932L55.3144 35.0968C55.2214 35.0338 55.1117 35.0001 54.9994 35H50.5579V67.625H60.6537C61.1012 67.625 61.5304 67.8028 61.8469 68.1193C62.1634 68.4357 62.3412 68.8649 62.3412 69.3125C62.3412 69.7601 62.1634 70.1893 61.8469 70.5057C61.5304 70.8222 61.1012 71 60.6537 71H37.0872C36.6396 71 36.2104 70.8222 35.8939 70.5057C35.5775 70.1893 35.3997 69.7601 35.3997 69.3125C35.3997 68.8649 35.5775 68.4357 35.8939 68.1193C36.2104 67.8028 36.6396 67.625 37.0872 67.625H47.1829V35H42.7392C42.6269 35.0001 42.5172 35.0338 42.4242 35.0968L38.6082 37.6932C37.9557 38.1365 37.1839 38.375 36.3942 38.375H34.4007L41.9787 55.655C42.1253 55.9907 42.1588 56.365 42.074 56.7214C41.9891 57.0778 41.7906 57.3969 41.5084 57.6305C41.3284 57.7768 41.1484 57.914 40.8109 58.1323C40.2422 58.5013 39.6465 58.827 39.0289 59.1065C36.9973 60.0313 34.7901 60.5071 32.5579 60.5015C30.3257 60.5071 28.1185 60.0313 26.0869 59.1065C25.4693 58.827 24.8736 58.5013 24.3049 58.1323C24.0654 57.9776 23.8334 57.8117 23.6097 57.635C23.3291 57.3992 23.1318 57.0795 23.0467 56.723C22.9616 56.3665 22.9933 55.9921 23.1372 55.655L30.7129 38.375H27.1647C26.7171 38.375 26.2879 38.1972 25.9714 37.8807C25.655 37.5643 25.4772 37.1351 25.4772 36.6875C25.4772 36.2399 25.655 35.8107 25.9714 35.4943C26.2879 35.1778 26.7171 35 27.1647 35H36.3942C36.5082 35 36.6139 34.9677 36.7114 34.9032L40.5252 32.3067C41.1777 31.8612 41.9517 31.625 42.7414 31.625H47.1829V27.6875C47.1829 27.2399 47.3607 26.8107 47.6772 26.4943C47.9936 26.1778 48.4229 26 48.8704 26C49.318 26 49.7472 26.1778 50.0637 26.4943C50.3801 26.8107 50.5579 27.2399 50.5579 27.6875ZM26.8047 55.6955C28.575 56.6395 30.5516 57.1303 32.5579 57.1243C34.5642 57.1303 36.5408 56.6395 38.3112 55.6955L32.5579 42.578L26.8047 55.6955ZM59.4522 55.6415C59.6367 55.7315 59.8429 55.826 60.0709 55.925C61.2634 56.4268 63.0072 56.9375 65.1829 56.9375C67.1664 56.9428 69.1255 56.4998 70.9137 55.6415L65.1829 42.5757L59.4522 55.6415Z" fill="#B2B2B2"/>
<defs>
<linearGradient id="paint0_linear_1002_6295" x1="8.19" y1="9.36" x2="86.58" y2="88.335" gradientUnits="userSpaceOnUse">
<stop stop-color="white"/>
<stop offset="1" stop-color="#EAEAEA"/>
</linearGradient>
</defs>
</svg>
