<svg width="98" height="98" viewBox="0 0 98 98" fill="none" xmlns="http://www.w3.org/2000/svg">
<rect x="0.585" y="0.585" width="95.94" height="95.94" rx="19.305" fill="url(#paint0_linear_481_3574)" stroke="#DEDEDE" stroke-width="1.17"/>
<path d="M32.8998 28.2998C31.6798 28.2998 30.5098 28.7844 29.6471 29.6471C28.7844 30.5098 28.2998 31.6798 28.2998 32.8998V43.2498H32.8998V32.8998H44.3998V28.2998H32.8998ZM28.2998 65.0998V52.4498H32.8998V65.0998H44.3998V69.6998H32.8998C31.6798 69.6998 30.5098 69.2152 29.6471 68.3525C28.7844 67.4898 28.2998 66.3198 28.2998 65.0998ZM53.5998 65.0998V69.6998H65.0998C66.3198 69.6998 67.4898 69.2152 68.3525 68.3525C69.2152 67.4898 69.6998 66.3198 69.6998 65.0998V52.4498H65.0998V65.0998H53.5998ZM65.0998 43.2498H69.6998V32.8998C69.6998 31.6798 69.2152 30.5098 68.3525 29.6471C67.4898 28.7844 66.3198 28.2998 65.0998 28.2998H53.5998V32.8998H65.0998V43.2498Z" fill="#B2B2B2"/>
<path d="M39.8 37.5H58.2V39.8H39.8V37.5ZM37.5 44.4H60.5V46.7H37.5V44.4ZM39.8 51.3H58.2V53.6H39.8V51.3ZM37.5 58.2H60.5V60.5H37.5V58.2Z" fill="#B2B2B2"/>
<defs>
<linearGradient id="paint0_linear_481_3574" x1="8.19" y1="9.36" x2="86.58" y2="88.335" gradientUnits="userSpaceOnUse">
<stop stop-color="white"/>
<stop offset="1" stop-color="#EAEAEA"/>
</linearGradient>
</defs>
</svg>
