<svg width="98" height="98" viewBox="0 0 98 98" fill="none" xmlns="http://www.w3.org/2000/svg">
<rect x="0.585" y="0.585" width="95.94" height="95.94" rx="19.305" fill="url(#paint0_linear_238_3146)" stroke="#DEDEDE" stroke-width="1.17"/>
<path d="M48.9997 50.167C46.8337 50.167 44.7565 51.0274 43.225 52.559C41.6934 54.0905 40.833 56.1677 40.833 58.3337C40.833 60.4996 41.6934 62.5768 43.225 64.1084C44.7565 65.6399 46.8337 66.5003 48.9997 66.5003C51.1656 66.5003 53.2428 65.6399 54.7744 64.1084C56.3059 62.5768 57.1663 60.4996 57.1663 58.3337C57.1663 56.1677 56.3059 54.0905 54.7744 52.559C53.2428 51.0274 51.1656 50.167 48.9997 50.167ZM45.4997 58.3337C45.4997 57.4054 45.8684 56.5152 46.5248 55.8588C47.1812 55.2024 48.0714 54.8337 48.9997 54.8337C49.9279 54.8337 50.8182 55.2024 51.4745 55.8588C52.1309 56.5152 52.4997 57.4054 52.4997 58.3337C52.4997 59.2619 52.1309 60.1522 51.4745 60.8085C50.8182 61.4649 49.9279 61.8337 48.9997 61.8337C48.0714 61.8337 47.1812 61.4649 46.5248 60.8085C45.8684 60.1522 45.4997 59.2619 45.4997 58.3337Z" fill="#B2B2B2"/>
<path d="M61.894 32.9378L54.4763 22.5381L27.202 44.3267L25.69 44.3104V44.3338H24.5V72.3338H73.5V44.3338H71.2553L66.7893 31.2694L61.894 32.9378ZM66.325 44.3338H42.9263L60.354 38.3931L63.9053 37.2568L66.325 44.3338ZM57.2833 34.5104L39.2933 40.6424L53.5407 29.2604L57.2833 34.5104ZM29.1667 63.3948V53.2681C30.1511 52.9192 31.0453 52.3551 31.784 51.6168C32.5227 50.8785 33.0873 49.9846 33.4367 49.0004H64.5633C64.9126 49.985 65.4771 50.8792 66.2158 51.6179C66.9545 52.3566 67.8488 52.9212 68.8333 53.2704V63.3971C67.8488 63.7463 66.9545 64.3109 66.2158 65.0496C65.4771 65.7883 64.9126 66.6825 64.5633 67.6671H33.4413C33.0918 66.6817 32.5266 65.7867 31.787 65.0476C31.0475 64.3085 30.1523 63.7438 29.1667 63.3948Z" fill="#B2B2B2"/>
<defs>
<linearGradient id="paint0_linear_238_3146" x1="8.19" y1="9.36" x2="86.58" y2="88.335" gradientUnits="userSpaceOnUse">
<stop stop-color="white"/>
<stop offset="1" stop-color="#EAEAEA"/>
</linearGradient>
</defs>
</svg>
