<svg width="98" height="98" viewBox="0 0 98 98" fill="none" xmlns="http://www.w3.org/2000/svg">
<path d="M42.2803 37.2803L39.0003 40.5633L37.7203 39.2833L36.2803 40.7203L38.2803 42.7203L39.0003 43.4063L39.7203 42.7193L43.7203 38.7193L42.2803 37.2803ZM47.0003 39.0003V41.0003H60.0003V39.0003H47.0003ZM42.2803 45.2803L39.0003 48.5643L37.7203 47.2803L36.2803 48.7203L38.2803 50.7203L39.0003 51.4063L39.7203 50.7193L43.7203 46.7193L42.2803 45.2803ZM47.0003 47.0003V49.0003H60.0003V47.0003H47.0003ZM42.2803 53.2803L39.0003 56.5633L37.7203 55.2833L36.2803 56.7203L38.2803 58.7203L39.0003 59.4063L39.7203 58.7193L43.7203 54.7193L42.2803 53.2793V53.2803ZM47.0003 55.0003V57.0003H60.0003V55.0003H47.0003Z" fill="black"/>
<rect x="0.585" y="0.585" width="95.94" height="95.94" rx="19.305" fill="url(#paint0_linear_629_5776)" stroke="#DEDEDE" stroke-width="1.17"/>
<g clip-path="url(#clip0_629_5776)">
<path d="M38.7746 24.6001C38.3078 24.662 37.8839 24.9044 37.5938 25.2751L31.4612 32.9809L27.4112 30.2809C27.2117 30.147 26.9877 30.0537 26.7521 30.0065C26.5165 29.9593 26.2739 29.9591 26.0382 30.0059C25.8025 30.0527 25.5783 30.1455 25.3786 30.2792C25.1789 30.4128 25.0075 30.5845 24.8743 30.7845C24.7412 30.9845 24.6488 31.2089 24.6025 31.4447C24.5562 31.6805 24.557 31.9231 24.6047 32.1586C24.6524 32.3941 24.7462 32.6179 24.8806 32.8171C25.015 33.0163 25.1874 33.1869 25.388 33.3193L30.788 36.9193C31.1664 37.1713 31.6262 37.2707 32.075 37.1976C32.5238 37.1245 32.9283 36.8842 33.2072 36.5251L40.4072 27.5251C40.6363 27.2456 40.776 26.9036 40.808 26.5436C40.8401 26.1836 40.763 25.8223 40.5869 25.5067C40.4107 25.1911 40.1436 24.9359 39.8204 24.7742C39.4972 24.6125 39.1327 24.5518 38.7746 24.6001ZM46.1996 30.0001V33.6001H71.3996V30.0001H46.1996ZM38.7746 40.8001C38.3078 40.862 37.8839 41.1044 37.5938 41.4751L31.4612 49.1809L27.4112 46.4809C27.0082 46.2124 26.5151 46.1149 26.0404 46.2099C25.5656 46.305 25.148 46.5847 24.8795 46.9876C24.6109 47.3905 24.5134 47.8836 24.6085 48.3584C24.7035 48.8332 24.9832 49.2508 25.3862 49.5193L30.7862 53.1193C31.1646 53.3713 31.6244 53.4707 32.0732 53.3976C32.522 53.3245 32.9265 53.0842 33.2054 52.7251L40.4054 43.7251C40.6343 43.4457 40.7739 43.1039 40.806 42.7441C40.8381 42.3843 40.7611 42.0232 40.5852 41.7077C40.4093 41.3922 40.1426 41.1369 39.8197 40.9751C39.4967 40.8132 39.1326 40.7523 38.7746 40.8001ZM46.1996 46.2001V49.8001H71.3996V46.2001H46.1996ZM38.7746 57.0001C38.3078 57.062 37.8839 57.3044 37.5938 57.6751L31.4612 65.3809L27.4112 62.6809C27.2116 62.548 26.9879 62.4556 26.7527 62.4091C26.5175 62.3626 26.2755 62.3629 26.0404 62.41C25.5656 62.505 25.148 62.7847 24.8795 63.1876C24.6109 63.5905 24.5134 64.0836 24.6085 64.5584C24.7035 65.0332 24.9832 65.4508 25.3862 65.7193L30.7862 69.3193C31.1646 69.5713 31.6244 69.6707 32.0732 69.5976C32.522 69.5245 32.9265 69.2842 33.2054 68.9251L40.4054 59.9251C40.6343 59.6457 40.7739 59.3039 40.806 58.9441C40.8381 58.5843 40.7611 58.2232 40.5852 57.9077C40.4093 57.5922 40.1426 57.3369 39.8197 57.1751C39.4967 57.0132 39.1326 56.9523 38.7746 57.0001ZM46.1996 62.4001V66.0001H71.3996V62.4001H46.1996Z" fill="#B2B2B2"/>
</g>
<defs>
<linearGradient id="paint0_linear_629_5776" x1="8.19" y1="9.36" x2="86.58" y2="88.335" gradientUnits="userSpaceOnUse">
<stop stop-color="white"/>
<stop offset="1" stop-color="#EAEAEA"/>
</linearGradient>
<clipPath id="clip0_629_5776">
<rect width="46.8" height="46.8" fill="white" transform="translate(24.5996 24.5996)"/>
</clipPath>
</defs>
</svg>
