<svg width="98" height="98" viewBox="0 0 98 98" fill="none" xmlns="http://www.w3.org/2000/svg">
<rect x="0.585" y="0.585" width="95.94" height="95.94" rx="19.305" fill="url(#paint0_linear_345_2741)" stroke="#DEDEDE" stroke-width="1.17"/>
<path d="M76.24 68.9356C80.476 68.9356 83.956 72.0676 84.544 76.1356H87.04L82.84 80.9355L78.64 76.1356H81.424C81.1555 74.9609 80.4967 73.9119 79.5552 73.16C78.6136 72.4081 77.4449 71.9976 76.24 71.9956C74.5 71.9956 72.964 72.8476 71.992 74.1316L69.94 71.7916C70.7254 70.8934 71.694 70.1739 72.7806 69.6812C73.8673 69.1886 75.0468 68.9344 76.24 68.9356ZM75.76 85.0635C71.536 85.0635 68.044 81.9316 67.456 77.8636H64.96L69.16 73.0636C70.564 74.6596 71.956 76.2676 73.36 77.8636H70.576C70.8444 79.0382 71.5032 80.0872 72.4448 80.8391C73.3863 81.591 74.555 82.0015 75.76 82.0035C77.5 82.0035 79.036 81.1516 80.008 79.8676L82.06 82.2076C81.2753 83.1066 80.3069 83.8268 79.22 84.3195C78.1332 84.8122 76.9533 85.0659 75.76 85.0635Z" fill="#B2B2B2"/>
<path d="M34.4167 67.75C33.2708 67.75 32.2903 67.3424 31.475 66.5271C30.6597 65.7118 30.2514 64.7306 30.25 63.5833V34.4167C30.25 33.2708 30.6583 32.2903 31.475 31.475C32.2917 30.6597 33.2722 30.2514 34.4167 30.25H63.5833C64.7292 30.25 65.7104 30.6583 66.5271 31.475C67.3438 32.2917 67.7514 33.2722 67.75 34.4167V63.5833C67.75 64.7292 67.3424 65.7104 66.5271 66.5271C65.7118 67.3438 64.7306 67.7514 63.5833 67.75H34.4167ZM36.5 59.4167H61.5L53.6875 49L47.4375 57.3333L42.75 51.0833L36.5 59.4167Z" fill="#B2B2B2"/>
<defs>
<linearGradient id="paint0_linear_345_2741" x1="8.19" y1="9.36" x2="86.58" y2="88.335" gradientUnits="userSpaceOnUse">
<stop stop-color="white"/>
<stop offset="1" stop-color="#EAEAEA"/>
</linearGradient>
</defs>
</svg>
