<svg width="98" height="98" viewBox="0 0 98 98" fill="none" xmlns="http://www.w3.org/2000/svg">
<rect x="0.585" y="0.585" width="95.94" height="95.94" rx="19.305" fill="url(#paint0_linear_550_4142)" stroke="#DEDEDE" stroke-width="1.17"/>
<path d="M56.1497 59.183L59.183 56.1497L51.1663 48.133V38.1663H46.833V49.8663L56.1497 59.183ZM48.9997 70.6663C46.0025 70.6663 43.1858 70.0972 40.5497 68.959C37.9136 67.8208 35.6205 66.2774 33.6705 64.3288C31.7205 62.3803 30.1771 60.0872 29.0403 57.4497C27.9036 54.8121 27.3345 51.9955 27.333 48.9997C27.3316 46.0039 27.9007 43.1872 29.0403 40.5497C30.18 37.9121 31.7234 35.6191 33.6705 33.6705C35.6176 31.722 37.9107 30.1786 40.5497 29.0403C43.1887 27.9021 46.0053 27.333 48.9997 27.333C51.994 27.333 54.8107 27.9021 57.4497 29.0403C60.0887 30.1786 62.3817 31.722 64.3288 33.6705C66.276 35.6191 67.8201 37.9121 68.9612 40.5497C70.1023 43.1872 70.6707 46.0039 70.6663 48.9997C70.662 51.9955 70.0929 54.8121 68.959 57.4497C67.8251 60.0872 66.2817 62.3803 64.3288 64.3288C62.376 66.2774 60.0829 67.8215 57.4497 68.9612C54.8165 70.1008 51.9998 70.6692 48.9997 70.6663Z" fill="#B2B2B2"/>
<defs>
<linearGradient id="paint0_linear_550_4142" x1="8.19" y1="9.36" x2="86.58" y2="88.335" gradientUnits="userSpaceOnUse">
<stop stop-color="white"/>
<stop offset="1" stop-color="#EAEAEA"/>
</linearGradient>
</defs>
</svg>
