<svg width="98" height="98" viewBox="0 0 98 98" fill="none" xmlns="http://www.w3.org/2000/svg">
<g clip-path="url(#clip0_148_1341)">
<rect x="0.585" y="0.585" width="95.94" height="95.94" rx="19.305" fill="url(#paint0_linear_148_1341)" stroke="#DEDEDE" stroke-width="1.17"/>
<path d="M63.7316 66.5809L50.9098 53.7591C49.8922 54.5732 48.722 55.2177 47.3991 55.6925C46.0762 56.1674 44.6685 56.4049 43.1761 56.4049C39.4788 56.4049 36.35 55.124 33.7897 52.5624C31.2294 50.0008 29.9486 46.872 29.9473 43.1761C29.9473 39.4788 31.2281 36.35 33.7897 33.7897C36.3514 31.2294 39.4801 29.9486 43.1761 29.9473C46.8733 29.9473 50.0028 31.2281 52.5644 33.7897C55.1261 36.3514 56.4062 39.4801 56.4049 43.1761C56.4049 44.6685 56.1674 46.0762 55.6925 47.3991C55.2177 48.722 54.5732 49.8922 53.7591 50.9098L66.5809 63.7316L63.7316 66.5809ZM43.1761 52.3345C45.7201 52.3345 47.8828 51.4444 49.6643 49.6643C51.4458 47.8842 52.3358 45.7214 52.3345 43.1761C52.3345 40.6321 51.4444 38.47 49.6643 36.6899C47.8842 34.9098 45.7214 34.019 43.1761 34.0177C40.6321 34.0177 38.47 34.9084 36.6899 36.6899C34.9098 38.4714 34.019 40.6334 34.0177 43.1761C34.0177 45.7201 34.9084 47.8828 36.6899 49.6643C38.4714 51.4458 40.6334 52.3358 43.1761 52.3345Z" fill="#B2B2B2"/>
</g>
<defs>
<linearGradient id="paint0_linear_148_1341" x1="8.19" y1="9.36" x2="86.58" y2="88.335" gradientUnits="userSpaceOnUse">
<stop stop-color="white"/>
<stop offset="1" stop-color="#EAEAEA"/>
</linearGradient>
<clipPath id="clip0_148_1341">
<rect width="97.11" height="97.11" fill="white"/>
</clipPath>
</defs>
</svg>
