<svg width="98" height="98" viewBox="0 0 98 98" fill="none" xmlns="http://www.w3.org/2000/svg">
<rect x="0.585" y="0.585" width="95.94" height="95.94" rx="19.305" fill="url(#paint0_linear_919_11765)" stroke="#DEDEDE" stroke-width="1.17"/>
<path d="M65.2804 69.6002V37.2002C65.2804 36.0122 64.8578 34.9956 64.0125 34.1503C63.1672 33.305 62.1498 32.8817 60.9604 32.8802H58.8004V35.6882C58.8004 36.1202 58.6564 36.4802 58.3684 36.7682C58.0804 37.0562 57.7204 37.2002 57.2884 37.2002H45.1924C44.6884 37.2002 44.2838 36.9302 43.9785 36.3902C43.6732 35.8502 43.6458 35.3282 43.8964 34.8242L48.0004 25.9682C48.2524 25.4282 48.6217 25.0049 49.1085 24.6982C49.5952 24.3914 50.1618 24.2388 50.8084 24.2402H55.7764C56.6404 24.2402 57.3604 24.5642 57.9364 25.2122C58.5124 25.8602 58.8004 26.6162 58.8004 27.4802V28.5602H60.9604C63.3364 28.5602 65.3704 29.4062 67.0624 31.0982C68.7544 32.7902 69.6004 34.8242 69.6004 37.2002V69.6002H65.2804ZM32.8804 69.6002C31.0444 69.6002 29.5058 68.9796 28.2645 67.7383C27.0232 66.497 26.4018 64.9577 26.4004 63.1202V57.7202C26.4004 56.8202 26.7158 56.0556 27.3465 55.4263C27.9772 54.797 28.7418 54.4817 29.6404 54.4802C30.539 54.4788 31.3043 54.7942 31.9365 55.4263C32.5686 56.0585 32.8833 56.8231 32.8804 57.7202V63.1202H54.4804V57.7202C54.4804 56.8202 54.7958 56.0556 55.4265 55.4263C56.0572 54.797 56.8218 54.4817 57.7204 54.4802C58.619 54.4788 59.3843 54.7942 60.0165 55.4263C60.6486 56.0585 60.9633 56.8231 60.9604 57.7202V63.1202C60.9604 64.9562 60.3398 66.4956 59.0985 67.7383C57.8572 68.981 56.3178 69.6017 54.4804 69.6002H32.8804ZM35.0404 60.9602V57.7202C35.0404 56.5682 34.6624 55.4702 33.9064 54.4262C33.1504 53.3822 32.0884 52.7162 30.7204 52.4282V48.0002C30.7204 46.8122 31.143 45.7949 31.9883 44.9482C32.8336 44.1014 33.851 43.6788 35.0404 43.6802H52.3204C53.5084 43.6802 54.5258 44.1036 55.3725 44.9503C56.2192 45.797 56.6418 46.8137 56.6404 48.0002V52.4282C55.2724 52.7162 54.2104 53.3822 53.4544 54.4262C52.6984 55.4702 52.3204 56.5682 52.3204 57.7202V60.9602H35.0404Z" fill="#B2B2B2"/>
<defs>
<linearGradient id="paint0_linear_919_11765" x1="8.19" y1="9.36" x2="86.58" y2="88.335" gradientUnits="userSpaceOnUse">
<stop stop-color="white"/>
<stop offset="1" stop-color="#EAEAEA"/>
</linearGradient>
</defs>
</svg>
