<svg width="98" height="98" viewBox="0 0 98 98" fill="none" xmlns="http://www.w3.org/2000/svg">
<rect x="0.585" y="0.585" width="95.94" height="95.94" rx="19.305" fill="url(#paint0_linear_919_11798)" stroke="#DEDEDE" stroke-width="1.17"/>
<path d="M51.0794 26.4404C51.0794 25.6235 50.7549 24.8401 50.1773 24.2625C49.5997 23.6849 48.8162 23.3604 47.9994 23.3604C47.1825 23.3604 46.3991 23.6849 45.8215 24.2625C45.2439 24.8401 44.9194 25.6235 44.9194 26.4404V29.5204C44.9194 30.3372 45.2439 31.1206 45.8215 31.6982C46.3991 32.2759 47.1825 32.6004 47.9994 32.6004C48.8162 32.6004 49.5997 32.2759 50.1773 31.6982C50.7549 31.1206 51.0794 30.3372 51.0794 29.5204V26.4404ZM65.4229 34.9319C65.984 34.351 66.2944 33.573 66.2874 32.7654C66.2804 31.9579 65.9565 31.1854 65.3854 30.6143C64.8144 30.0433 64.0419 29.7193 63.2343 29.7123C62.4267 29.7053 61.6487 30.0157 61.0678 30.5768L58.8903 32.7544C58.3292 33.3352 58.0188 34.1133 58.0258 34.9208C58.0328 35.7284 58.3567 36.5009 58.9278 37.072C59.4988 37.643 60.2713 37.9669 61.0789 37.9739C61.8865 37.981 62.6645 37.6705 63.2454 37.1095L65.4229 34.9319ZM72.6394 48.0004C72.6394 48.8172 72.3149 49.6006 71.7373 50.1782C71.1597 50.7559 70.3762 51.0804 69.5594 51.0804H66.4794C65.6625 51.0804 64.8791 50.7559 64.3015 50.1782C63.7239 49.6006 63.3994 48.8172 63.3994 48.0004C63.3994 47.1835 63.7239 46.4001 64.3015 45.8225C64.8791 45.2449 65.6625 44.9204 66.4794 44.9204H69.5594C70.3762 44.9204 71.1597 45.2449 71.7373 45.8225C72.3149 46.4001 72.6394 47.1835 72.6394 48.0004ZM32.7534 37.1095C33.0375 37.4036 33.3774 37.6383 33.7531 37.7997C34.1289 37.9611 34.5331 38.0461 34.942 38.0496C35.351 38.0532 35.7566 37.9753 36.1351 37.8204C36.5136 37.6655 36.8575 37.4368 37.1467 37.1476C37.4359 36.8585 37.6646 36.5146 37.8194 36.136C37.9743 35.7575 38.0522 35.352 38.0487 34.943C38.0451 34.534 37.9601 34.1299 37.7987 33.7541C37.6373 33.3783 37.4027 33.0385 37.1085 32.7544L34.9309 30.5768C34.35 30.0157 33.572 29.7053 32.7645 29.7123C31.9569 29.7193 31.1844 30.0433 30.6133 30.6143C30.0423 31.1854 29.7184 31.9579 29.7113 32.7654C29.7043 33.573 30.0148 34.351 30.5758 34.9319L32.7534 37.1095ZM32.5994 48.0004C32.5994 48.8172 32.2749 49.6006 31.6973 50.1782C31.1197 50.7559 30.3362 51.0804 29.5194 51.0804H26.4394C25.6225 51.0804 24.8391 50.7559 24.2615 50.1782C23.6839 49.6006 23.3594 48.8172 23.3594 48.0004C23.3594 47.1835 23.6839 46.4001 24.2615 45.8225C24.8391 45.2449 25.6225 44.9204 26.4394 44.9204H29.5194C30.3362 44.9204 31.1197 45.2449 31.6973 45.8225C32.2749 46.4001 32.5994 47.1835 32.5994 48.0004ZM41.8394 66.4804V63.4004H54.1594V66.4804C54.1594 68.1141 53.5104 69.6809 52.3552 70.8361C51.1999 71.9914 49.6331 72.6404 47.9994 72.6404C46.3656 72.6404 44.7988 71.9914 43.6436 70.8361C42.4884 69.6809 41.8394 68.1141 41.8394 66.4804ZM54.1594 60.3204C54.2056 59.2732 54.8 58.3307 55.6285 57.6746C57.6388 56.0892 59.1052 53.9169 59.8239 51.4597C60.5427 49.0024 60.478 46.3823 59.639 43.9635C58.7999 41.5447 57.2282 39.4473 55.1422 37.963C53.0562 36.4786 50.5596 35.681 47.9994 35.681C45.4392 35.681 42.9426 36.4786 40.8566 37.963C38.7706 39.4473 37.1988 41.5447 36.3598 43.9635C35.5207 46.3823 35.4561 49.0024 36.1748 51.4597C36.8935 53.9169 38.36 56.0892 40.3702 57.6746C41.2018 58.3307 41.7932 59.2732 41.8363 60.3204H54.1594Z" fill="#B2B2B2"/>
<defs>
<linearGradient id="paint0_linear_919_11798" x1="8.19" y1="9.36" x2="86.58" y2="88.335" gradientUnits="userSpaceOnUse">
<stop stop-color="white"/>
<stop offset="1" stop-color="#EAEAEA"/>
</linearGradient>
</defs>
</svg>
