<svg width="98" height="98" viewBox="0 0 98 98" fill="none" xmlns="http://www.w3.org/2000/svg">
<rect x="0.804727" y="0.585" width="95.94" height="95.94" rx="19.305" fill="url(#paint0_linear_158_6990)" stroke="#DEDEDE" stroke-width="1.17"/>
<g clip-path="url(#clip0_158_6990)">
<path d="M58.7926 41.4268L50.9126 49.1734C50.0626 48.764 49.0952 48.6682 48.1814 48.903C47.2675 49.1378 46.4661 49.688 45.9187 50.4565C45.3713 51.225 45.1132 52.1623 45.19 53.1027C45.2668 54.0431 45.6736 54.926 46.3384 55.5955C47.0032 56.2651 47.8832 56.678 48.8231 56.7615C49.7629 56.8449 50.7019 56.5934 51.4743 56.0515C52.2466 55.5096 52.8026 54.712 53.0438 53.7999C53.285 52.8877 53.1961 51.9197 52.7926 51.0668L60.686 43.3201L58.7926 41.4268Z" fill="#B2B2B2"/>
<path d="M49.2199 30.667C45.0235 30.6622 40.9134 31.8584 37.375 34.1143C33.8365 36.3702 31.0176 39.5916 29.2511 43.3981C27.4846 47.2045 26.8442 51.437 27.4057 55.5956C27.9672 59.7543 29.7071 63.6654 32.4199 66.867L32.8199 67.3337H65.6199L66.0199 66.867C68.7326 63.6654 70.4725 59.7543 71.034 55.5956C71.5955 51.437 70.9552 47.2045 69.1887 43.3981C67.4221 39.5916 64.6032 36.3702 61.0648 34.1143C57.5264 31.8584 53.4163 30.6622 49.2199 30.667ZM64.3399 64.667H34.0999C31.7074 61.6733 30.2635 58.0333 29.9532 54.2137H34.5532V51.547H29.9532C30.1765 47.3133 31.7938 43.2723 34.5532 40.0537L37.8199 43.3203L39.6999 41.4403L36.4599 38.1603C39.6376 35.3517 43.6552 33.6734 47.8865 33.387V38.0537H50.5532V33.4003C55.2272 33.7393 59.618 35.7678 62.9058 39.1072C66.1936 42.4465 68.1536 46.8683 68.4199 51.547H63.7799V54.2137H68.4865C68.1762 58.0333 66.7323 61.6733 64.3399 64.667Z" fill="#B2B2B2"/>
</g>
<defs>
<linearGradient id="paint0_linear_158_6990" x1="8.40973" y1="9.36" x2="86.7997" y2="88.335" gradientUnits="userSpaceOnUse">
<stop stop-color="white"/>
<stop offset="1" stop-color="#EAEAEA"/>
</linearGradient>
<clipPath id="clip0_158_6990">
<rect width="48" height="48" fill="white" transform="translate(25.2197 25)"/>
</clipPath>
</defs>
</svg>
