<svg width="98" height="98" viewBox="0 0 98 98" fill="none" xmlns="http://www.w3.org/2000/svg">
<rect x="0.585" y="0.585" width="95.94" height="95.94" rx="19.305" fill="url(#paint0_linear_631_5835)" stroke="#DEDEDE" stroke-width="1.17"/>
<path d="M56.4016 49.1733L60.016 56.3997H52.7872L54.3136 53.3517L56.4016 49.1733ZM71.7616 29.5197V67.9197C71.7616 68.9381 71.3571 69.9148 70.6369 70.635C69.9168 71.3551 68.9401 71.7597 67.9216 71.7597H29.5216C28.5032 71.7597 27.5265 71.3551 26.8064 70.635C26.0862 69.9148 25.6816 68.9381 25.6816 67.9197V29.5197C25.6816 28.5013 26.0862 27.5245 26.8064 26.8044C27.5265 26.0843 28.5032 25.6797 29.5216 25.6797H67.9216C68.9401 25.6797 69.9168 26.0843 70.6369 26.8044C71.3571 27.5245 71.7616 28.5013 71.7616 29.5197ZM67.72 63.2205L58.12 44.0205C57.9608 43.701 57.7156 43.4322 57.4121 43.2443C57.1085 43.0565 56.7586 42.9569 56.4016 42.9569C56.0447 42.9569 55.6947 43.0565 55.3912 43.2443C55.0876 43.4322 54.8425 43.701 54.6832 44.0205L51.52 50.3517C49.4853 49.9532 47.5556 49.1359 45.8536 47.9517C48.5066 44.9485 50.148 41.1871 50.5456 37.1997H54.4816C54.9909 37.1997 55.4792 36.9974 55.8393 36.6373C56.1994 36.2773 56.4016 35.7889 56.4016 35.2797C56.4016 34.7705 56.1994 34.2821 55.8393 33.922C55.4792 33.562 54.9909 33.3597 54.4816 33.3597H44.8816V31.4397C44.8816 30.9305 44.6794 30.4421 44.3193 30.082C43.9592 29.722 43.4709 29.5197 42.9616 29.5197C42.4524 29.5197 41.9641 29.722 41.604 30.082C41.2439 30.4421 41.0416 30.9305 41.0416 31.4397V33.3597H31.4416C30.9324 33.3597 30.4441 33.562 30.084 33.922C29.7239 34.2821 29.5216 34.7705 29.5216 35.2797C29.5216 35.7889 29.7239 36.2773 30.084 36.6373C30.4441 36.9974 30.9324 37.1997 31.4416 37.1997H46.6768C46.2959 40.2291 45.0171 43.0753 43.0048 45.3717C42.1525 44.3764 41.427 43.2792 40.8448 42.1053C40.609 41.6656 40.2113 41.3349 39.7359 41.1834C39.2605 41.0318 38.7448 41.0713 38.298 41.2935C37.8512 41.5156 37.5084 41.903 37.3423 42.3735C37.1762 42.844 37.1998 43.3607 37.408 43.8141C38.143 45.2959 39.0623 46.6788 40.144 47.9301C37.5869 49.6985 34.5507 50.6438 31.4416 50.6397C30.9324 50.6397 30.4441 50.842 30.084 51.202C29.7239 51.5621 29.5216 52.0505 29.5216 52.5597C29.5216 53.0689 29.7239 53.5573 30.084 53.9173C30.4441 54.2774 30.9324 54.4797 31.4416 54.4797C35.6098 54.4841 39.6649 53.1245 42.988 50.6085C44.9987 52.1456 47.2991 53.2607 49.7512 53.8869L45.0832 63.2205C44.8554 63.6762 44.8179 64.2038 44.979 64.6872C45.1401 65.1706 45.4867 65.5702 45.9424 65.7981C46.3982 66.026 46.9258 66.0635 47.4092 65.9023C47.8926 65.7412 48.2922 65.3946 48.52 64.9389L50.8672 60.2397H61.936L64.2832 64.9389C64.3961 65.1646 64.5522 65.3658 64.7428 65.5311C64.9334 65.6964 65.1547 65.8225 65.3941 65.9023C65.6334 65.9821 65.8862 66.014 66.1378 65.9961C66.3895 65.9782 66.6352 65.9109 66.8608 65.7981C67.0865 65.6853 67.2877 65.5291 67.453 65.3385C67.6183 65.1479 67.7445 64.9266 67.8243 64.6872C67.9041 64.4479 67.9359 64.1952 67.918 63.9435C67.9002 63.6918 67.8329 63.4461 67.72 63.2205Z" fill="#B2B2B2"/>
<path d="M74.477 74.9534C74.3849 74.9159 74.3012 74.8607 74.2307 74.7908C74.1602 74.7209 74.1043 74.6379 74.0662 74.5464L73.4549 73.1647C73.3404 72.9451 73.0113 72.9451 72.9033 73.1647L72.2913 74.547C72.2084 74.7274 72.0627 74.8718 71.8811 74.9534L71.1007 75.2888C71.0493 75.3125 71.0059 75.3504 70.9754 75.3979C70.945 75.4454 70.9288 75.5006 70.9288 75.5569C70.9288 75.6133 70.945 75.6685 70.9754 75.716C71.0059 75.7635 71.0493 75.8013 71.1007 75.8251L71.8811 76.1604C72.0695 76.2379 72.2173 76.3863 72.2913 76.5675L72.9033 77.9556C73.0177 78.1751 73.3469 78.1751 73.4549 77.9556L74.0669 76.5668C74.1479 76.3863 74.2957 76.2443 74.477 76.1604L75.2574 75.8251C75.3088 75.8013 75.3522 75.7635 75.3827 75.716C75.4131 75.6685 75.4293 75.6133 75.4293 75.5569C75.4293 75.5006 75.4131 75.4454 75.3827 75.3979C75.3522 75.3504 75.3088 75.3125 75.2574 75.2888L74.477 74.9534ZM84.1547 79.1152C83.5958 78.8659 83.1537 78.4132 82.9191 77.85L81.0792 73.5186C81.004 73.3632 80.8863 73.2321 80.7396 73.1404C80.5929 73.0487 80.4232 73 80.2499 73C80.0767 73 79.907 73.0487 79.7603 73.1404C79.6136 73.2321 79.4958 73.3632 79.4206 73.5186L77.5801 77.85C77.3417 78.4105 76.9011 78.8619 76.3452 79.1152L74.0167 80.1648C73.3276 80.504 73.3276 81.496 74.0167 81.8352L76.3452 82.8848C76.9039 83.1345 77.3458 83.587 77.5808 84.15L79.4206 88.4814C79.4958 88.6368 79.6136 88.7679 79.7603 88.8596C79.907 88.9513 80.0767 89 80.2499 89C80.4232 89 80.5929 88.9513 80.7396 88.8596C80.8863 88.7679 81.004 88.6368 81.0792 88.4814L82.9197 84.15C83.1582 83.5895 83.5987 83.1381 84.1547 82.8848L86.4831 81.8352C87.1723 81.496 87.1723 80.504 86.4831 80.1648L84.1547 79.1152ZM73.0376 83.4511C73.1405 83.702 73.3295 83.8966 73.5661 84.0092L74.5625 84.4732C74.6299 84.5081 74.6864 84.5608 74.7258 84.6254C74.7652 84.6901 74.786 84.7643 74.786 84.8399C74.786 84.9155 74.7652 84.9897 74.7258 85.0544C74.6864 85.119 74.6299 85.1717 74.5625 85.2066L73.5661 85.6706C73.3295 85.7832 73.1411 85.9842 73.0376 86.2287L72.2482 88.1339C72.2167 88.2013 72.1665 88.2584 72.1035 88.2983C72.0405 88.3383 71.9674 88.3595 71.8927 88.3595C71.818 88.3595 71.7449 88.3383 71.6819 88.2983C71.6189 88.2584 71.5687 88.2013 71.5372 88.1339L70.7484 86.2287C70.6484 85.9835 70.4599 85.7844 70.22 85.6706L69.2235 85.2066C69.1561 85.1717 69.0997 85.119 69.0603 85.0544C69.0208 84.9897 69 84.9155 69 84.8399C69 84.7643 69.0208 84.6901 69.0603 84.6254C69.0997 84.5608 69.1561 84.5081 69.2235 84.4732L70.22 84.0092C70.4565 83.8966 70.6449 83.6956 70.7484 83.4511L71.5378 81.5459C71.5694 81.4785 71.6196 81.4215 71.6825 81.3815C71.7455 81.3415 71.8186 81.3203 71.8933 81.3203C71.968 81.3203 72.0412 81.3415 72.1041 81.3815C72.1671 81.4215 72.2173 81.4785 72.2488 81.5459L73.0376 83.4511Z" fill="url(#paint1_linear_631_5835)"/>
<defs>
<linearGradient id="paint0_linear_631_5835" x1="8.19" y1="9.36" x2="86.58" y2="88.335" gradientUnits="userSpaceOnUse">
<stop stop-color="white"/>
<stop offset="1" stop-color="#EAEAEA"/>
</linearGradient>
<linearGradient id="paint1_linear_631_5835" x1="69" y1="74" x2="87" y2="88" gradientUnits="userSpaceOnUse">
<stop stop-color="#FF0000"/>
<stop offset="1" stop-color="#4800FF"/>
</linearGradient>
</defs>
</svg>
