<svg width="98" height="98" viewBox="0 0 98 98" fill="none" xmlns="http://www.w3.org/2000/svg">
<rect x="0.585" y="0.585" width="95.94" height="95.94" rx="19.305" fill="url(#paint0_linear_393_2820)" stroke="#DEDEDE" stroke-width="1.17"/>
<path d="M76.24 68.9356C80.476 68.9356 83.956 72.0676 84.544 76.1356H87.04L82.84 80.9355L78.64 76.1356H81.424C81.1555 74.9609 80.4967 73.9119 79.5552 73.16C78.6136 72.4081 77.4449 71.9976 76.24 71.9956C74.5 71.9956 72.964 72.8476 71.992 74.1316L69.94 71.7916C70.7254 70.8934 71.694 70.1739 72.7806 69.6812C73.8673 69.1886 75.0468 68.9344 76.24 68.9356ZM75.76 85.0635C71.536 85.0635 68.044 81.9316 67.456 77.8636H64.96L69.16 73.0636C70.564 74.6596 71.956 76.2676 73.36 77.8636H70.576C70.8444 79.0382 71.5032 80.0872 72.4448 80.8391C73.3863 81.591 74.555 82.0015 75.76 82.0035C77.5 82.0035 79.036 81.1516 80.008 79.8676L82.06 82.2076C81.2753 83.1066 80.3069 83.8268 79.22 84.3195C78.1332 84.8122 76.9533 85.0659 75.76 85.0635Z" fill="#B2B2B2"/>
<path d="M69 63.5807C69 65.8724 68.3087 67.6819 66.9261 69.0091C65.5436 70.3364 63.7064 71 61.4148 71H36.5852C34.2936 71 32.4564 70.3364 31.0739 69.0091C29.6913 67.6819 29 65.8724 29 63.5807C29 62.5686 29.0331 61.5803 29.0994 60.6159C29.1657 59.6515 29.2983 58.6107 29.4972 57.4935C29.696 56.3763 29.947 55.3403 30.25 54.3854C30.553 53.4306 30.9602 52.4996 31.4716 51.5924C31.983 50.6853 32.5701 49.9119 33.233 49.2721C33.8958 48.6324 34.7055 48.1215 35.6619 47.7396C36.6184 47.3576 37.6742 47.1667 38.8295 47.1667C39.0189 47.1667 39.4261 47.372 40.0511 47.7826C40.6761 48.1931 41.3674 48.6515 42.125 49.1576C42.8826 49.6636 43.8958 50.122 45.1648 50.5326C46.4337 50.9431 47.7121 51.1484 49 51.1484C50.2879 51.1484 51.5663 50.9431 52.8352 50.5326C54.1042 50.122 55.1174 49.6636 55.875 49.1576C56.6326 48.6515 57.3239 48.1931 57.9489 47.7826C58.5739 47.372 58.9811 47.1667 59.1705 47.1667C60.3258 47.1667 61.3816 47.3576 62.3381 47.7396C63.2945 48.1215 64.1042 48.6324 64.767 49.2721C65.4299 49.9119 66.017 50.6853 66.5284 51.5924C67.0398 52.4996 67.447 53.4306 67.75 54.3854C68.053 55.3403 68.304 56.3763 68.5028 57.4935C68.7017 58.6107 68.8343 59.6515 68.9006 60.6159C68.9669 61.5803 69 62.5686 69 63.5807ZM59.9091 38C59.9091 41.0365 58.8438 43.6289 56.7131 45.7773C54.5824 47.9258 52.0114 49 49 49C45.9886 49 43.4176 47.9258 41.2869 45.7773C39.1563 43.6289 38.0909 41.0365 38.0909 38C38.0909 34.9635 39.1563 32.3711 41.2869 30.2227C43.4176 28.0742 45.9886 27 49 27C52.0114 27 54.5824 28.0742 56.7131 30.2227C58.8438 32.3711 59.9091 34.9635 59.9091 38Z" fill="#B2B2B2"/>
<defs>
<linearGradient id="paint0_linear_393_2820" x1="8.19" y1="9.36" x2="86.58" y2="88.335" gradientUnits="userSpaceOnUse">
<stop stop-color="white"/>
<stop offset="1" stop-color="#EAEAEA"/>
</linearGradient>
</defs>
</svg>
