<svg width="98" height="98" viewBox="0 0 98 98" fill="none" xmlns="http://www.w3.org/2000/svg">
<rect x="0.695352" y="0.585" width="95.94" height="95.94" rx="19.305" fill="url(#paint0_linear_158_6936)" stroke="#DEDEDE" stroke-width="1.17"/>
<path d="M44.8192 66.7992L44.0831 60.9188C43.4338 60.7223 42.7323 60.4146 41.9786 59.9957C41.2236 59.5755 40.581 59.1254 40.051 58.6456L34.6281 60.9534L30.8359 54.3451L35.5228 50.8111C35.4631 50.4424 35.4136 50.0629 35.3743 49.6725C35.3364 49.2834 35.3174 48.9052 35.3174 48.5379C35.3174 48.1963 35.3364 47.837 35.3743 47.4602C35.4123 47.0833 35.4618 46.6591 35.5228 46.1873L30.8359 42.6534L34.6281 36.1223L40.0124 38.3936C40.6197 37.8879 41.2771 37.4318 41.9847 37.0251C42.6896 36.6185 43.3762 36.304 44.0445 36.0817L44.8171 30.1992H52.4035L53.1396 36.1203C53.919 36.3928 54.6076 36.7066 55.2054 37.0617C55.8046 37.4169 56.4207 37.8601 57.0537 38.3915L62.5946 36.1223L66.3867 42.6534L61.5433 46.3053C61.6545 46.7255 61.7169 47.1105 61.7304 47.4602C61.744 47.8126 61.7507 48.159 61.7507 48.4992C61.7507 48.8151 61.7372 49.1479 61.7101 49.4976C61.6843 49.8487 61.6247 50.273 61.5311 50.7705L66.2973 54.3451L62.5051 60.9534L57.0537 58.6069C56.4207 59.1383 55.7836 59.5944 55.1424 59.9753C54.4999 60.3563 53.8323 60.6572 53.1396 60.8782L52.4035 66.7992H44.8192ZM48.5564 53.5826C49.9743 53.5826 51.1761 53.0898 52.1615 52.1043C53.147 51.1188 53.6398 49.9171 53.6398 48.4992C53.6398 47.0813 53.147 45.8796 52.1615 44.8941C51.1761 43.9086 49.9743 43.4159 48.5564 43.4159C47.1304 43.4159 45.9267 43.9086 44.9452 44.8941C43.9638 45.8796 43.4731 47.0813 43.4731 48.4992C43.4731 49.9171 43.9638 51.1188 44.9452 52.1043C45.9267 53.0898 47.1304 53.5826 48.5564 53.5826Z" fill="#B2B2B2"/>
<path d="M69.5779 77.1332V67.8965L66.6312 70.8432L65.0445 69.1999L70.7112 63.5332L76.3779 69.1999L74.7912 70.8432L71.8445 67.8965V77.1332H69.5779ZM63.9112 81.6665C63.2879 81.6665 62.7544 81.4448 62.3109 81.0013C61.8674 80.5578 61.6453 80.024 61.6445 79.3999V75.9999H63.9112V79.3999H77.5112V75.9999H79.7779V79.3999C79.7779 80.0232 79.5561 80.557 79.1126 81.0013C78.6691 81.4455 78.1353 81.6673 77.5112 81.6665H63.9112Z" fill="#B2B2B2"/>
<defs>
<linearGradient id="paint0_linear_158_6936" x1="8.30035" y1="9.36" x2="86.6903" y2="88.335" gradientUnits="userSpaceOnUse">
<stop stop-color="white"/>
<stop offset="1" stop-color="#EAEAEA"/>
</linearGradient>
</defs>
</svg>
