<svg width="98" height="98" viewBox="0 0 98 98" fill="none" xmlns="http://www.w3.org/2000/svg">
<rect x="1.02445" y="0.585" width="95.94" height="95.94" rx="19.305" fill="url(#paint0_linear_196_7496)" stroke="#DEDEDE" stroke-width="1.17"/>
<path d="M62.5506 65H35.3283V43H62.5506M56.7172 29V33H41.1617V29H37.2728V33H35.3283C33.17 33 31.4395 34.78 31.4395 37V65C31.4395 66.0609 31.8492 67.0783 32.5785 67.8284C33.3078 68.5786 34.2969 69 35.3283 69H62.5506C63.582 69 64.5711 68.5786 65.3004 67.8284C66.0297 67.0783 66.4395 66.0609 66.4395 65V37C66.4395 35.9391 66.0297 34.9217 65.3004 34.1716C64.5711 33.4214 63.582 33 62.5506 33H60.6061V29M58.6617 51H48.9395V61H58.6617V51Z" fill="#B2B2B2"/>
<path d="M71.906 77.1332V67.8965L68.9593 70.8432L67.3727 69.1999L73.0393 63.5332L78.706 69.1999L77.1193 70.8432L74.1727 67.8965V77.1332H71.906ZM66.2393 81.6665C65.616 81.6665 65.0826 81.4448 64.6391 81.0013C64.1955 80.5578 63.9734 80.024 63.9727 79.3999V75.9999H66.2393V79.3999H79.8393V75.9999H82.106V79.3999C82.106 80.0232 81.8842 80.557 81.4407 81.0013C80.9972 81.4455 80.4634 81.6673 79.8393 81.6665H66.2393Z" fill="#B2B2B2"/>
<defs>
<linearGradient id="paint0_linear_196_7496" x1="8.62945" y1="9.36" x2="87.0194" y2="88.335" gradientUnits="userSpaceOnUse">
<stop stop-color="white"/>
<stop offset="1" stop-color="#EAEAEA"/>
</linearGradient>
</defs>
</svg>
