<svg width="98" height="98" viewBox="0 0 98 98" fill="none" xmlns="http://www.w3.org/2000/svg">
<rect x="0.585" y="0.585" width="95.94" height="95.94" rx="19.305" fill="url(#paint0_linear_158_6878)" stroke="#DEDEDE" stroke-width="1.17"/>
<path d="M49.5201 31.5283C58.6981 31.5283 66.2381 38.3143 67.5121 47.1283H72.9201L63.8201 57.5283L54.7201 47.1283H60.7521C60.1704 44.5832 58.743 42.3105 56.703 40.6813C54.663 39.0521 52.1308 38.1627 49.5201 38.1583C45.7501 38.1583 42.4221 40.0043 40.3161 42.7863L35.8701 37.7163C37.5718 35.7704 39.6704 34.2113 42.0249 33.144C44.3793 32.0766 46.935 31.5257 49.5201 31.5283ZM48.4801 66.4723C39.3281 66.4723 31.7621 59.6863 30.4881 50.8723H25.0801L34.1801 40.4723C37.2221 43.9303 40.2381 47.4143 43.2801 50.8723H37.2481C37.8297 53.4175 39.2571 55.6902 41.2972 57.3194C43.3372 58.9486 45.8693 59.838 48.4801 59.8423C52.2501 59.8423 55.5781 57.9963 57.6841 55.2143L62.1301 60.2843C60.43 62.2323 58.3317 63.7927 55.9769 64.8602C53.622 65.9277 51.0656 66.4775 48.4801 66.4723Z" fill="#B2B2B2"/>
<defs>
<linearGradient id="paint0_linear_158_6878" x1="8.19" y1="9.36" x2="86.58" y2="88.335" gradientUnits="userSpaceOnUse">
<stop stop-color="white"/>
<stop offset="1" stop-color="#EAEAEA"/>
</linearGradient>
</defs>
</svg>
