<svg width="98" height="98" viewBox="0 0 98 98" fill="none" xmlns="http://www.w3.org/2000/svg">
<rect x="0.585" y="0.585" width="95.94" height="95.94" rx="19.305" fill="url(#paint0_linear_493_3771)" stroke="#DEDEDE" stroke-width="1.17"/>
<g clip-path="url(#clip0_493_3771)">
<path fill-rule="evenodd" clip-rule="evenodd" d="M56.583 28.3333C56.583 27.6482 56.3108 26.9911 55.8264 26.5066C55.3419 26.0222 54.6848 25.75 53.9997 25.75C53.3145 25.75 52.6575 26.0222 52.173 26.5066C51.6885 26.9911 51.4163 27.6482 51.4163 28.3333V30.9167C48.6758 30.9167 46.0474 32.0054 44.1096 33.9432C42.1717 35.8811 41.083 38.5094 41.083 41.25C41.083 43.9906 42.1717 46.6189 44.1096 48.5568C46.0474 50.4946 48.6758 51.5833 51.4163 51.5833V61.9167C50.3476 61.9172 49.305 61.5863 48.4322 60.9696C47.5594 60.3528 46.8993 59.4806 46.5429 58.4731C46.3058 57.839 45.8293 57.3233 45.2158 57.0369C44.6024 56.7506 43.9011 56.7165 43.2628 56.942C42.6244 57.1674 42.1001 57.6345 41.8026 58.2426C41.5051 58.8507 41.4582 59.5513 41.672 60.1936C42.3843 62.2087 43.7039 63.9534 45.449 65.1874C47.1942 66.4213 49.279 67.0837 51.4163 67.0833V69.6667C51.4163 70.3518 51.6885 71.0089 52.173 71.4934C52.6575 71.9778 53.3145 72.25 53.9997 72.25C54.6848 72.25 55.3419 71.9778 55.8264 71.4934C56.3108 71.0089 56.583 70.3518 56.583 69.6667V67.0833C59.3236 67.0833 61.9519 65.9946 63.8898 64.0568C65.8277 62.1189 66.9163 59.4906 66.9163 56.75C66.9163 54.0094 65.8277 51.3811 63.8898 49.4432C61.9519 47.5054 59.3236 46.4167 56.583 46.4167V36.0833C57.6517 36.0828 58.6943 36.4137 59.5671 37.0304C60.44 37.6472 61.1 38.5194 61.4565 39.5269C61.6936 40.161 62.1701 40.6767 62.7835 40.9631C63.3969 41.2494 64.0983 41.2835 64.7366 41.058C65.3749 40.8326 65.8992 40.3655 66.1967 39.7574C66.4942 39.1493 66.5411 38.4487 66.3273 37.8064C65.6151 35.7913 64.2955 34.0466 62.5503 32.8127C60.8052 31.5787 58.7203 30.9163 56.583 30.9167V28.3333ZM51.4163 36.0833C50.0461 36.0833 48.7319 36.6277 47.763 37.5966C46.794 38.5656 46.2497 39.8797 46.2497 41.25C46.2497 42.6203 46.794 43.9344 47.763 44.9034C48.7319 45.8723 50.0461 46.4167 51.4163 46.4167V36.0833ZM56.583 51.5833V61.9167C57.9533 61.9167 59.2675 61.3723 60.2364 60.4034C61.2053 59.4344 61.7497 58.1203 61.7497 56.75C61.7497 55.3797 61.2053 54.0656 60.2364 53.0966C59.2675 52.1277 57.9533 51.5833 56.583 51.5833Z" fill="#B2B2B2"/>
</g>
<path d="M34.0003 46.667H29.3337V42.0003C29.3337 41.3815 29.0878 40.788 28.6502 40.3504C28.2127 39.9128 27.6192 39.667 27.0003 39.667C26.3815 39.667 25.788 39.9128 25.3504 40.3504C24.9128 40.788 24.667 41.3815 24.667 42.0003L24.7498 46.667H20.0003C19.3815 46.667 18.788 46.9128 18.3504 47.3504C17.9128 47.788 17.667 48.3815 17.667 49.0003C17.667 49.6192 17.9128 50.2127 18.3504 50.6502C18.788 51.0878 19.3815 51.3337 20.0003 51.3337L24.7498 51.2508L24.667 56.0003C24.667 56.6192 24.9128 57.2127 25.3504 57.6502C25.788 58.0878 26.3815 58.3337 27.0003 58.3337C27.6192 58.3337 28.2127 58.0878 28.6502 57.6502C29.0878 57.2127 29.3337 56.6192 29.3337 56.0003V51.2508L34.0003 51.3337C34.6192 51.3337 35.2127 51.0878 35.6502 50.6502C36.0878 50.2127 36.3337 49.6192 36.3337 49.0003C36.3337 48.3815 36.0878 47.788 35.6502 47.3504C35.2127 46.9128 34.6192 46.667 34.0003 46.667Z" fill="#B2B2B2"/>
<path d="M76.24 68.9356C80.476 68.9356 83.956 72.0676 84.544 76.1356H87.04L82.84 80.9355L78.64 76.1356H81.424C81.1555 74.9609 80.4967 73.9119 79.5552 73.16C78.6136 72.4081 77.4449 71.9976 76.24 71.9956C74.5 71.9956 72.964 72.8476 71.992 74.1316L69.94 71.7916C70.7254 70.8934 71.694 70.1739 72.7806 69.6812C73.8673 69.1886 75.0468 68.9344 76.24 68.9356ZM75.76 85.0635C71.536 85.0635 68.044 81.9316 67.456 77.8636H64.96L69.16 73.0636C70.564 74.6596 71.956 76.2676 73.36 77.8636H70.576C70.8444 79.0382 71.5032 80.0872 72.4448 80.8391C73.3863 81.591 74.555 82.0015 75.76 82.0035C77.5 82.0035 79.036 81.1516 80.008 79.8676L82.06 82.2076C81.2753 83.1066 80.3069 83.8268 79.22 84.3195C78.1332 84.8122 76.9533 85.0659 75.76 85.0635Z" fill="#B2B2B2"/>
<defs>
<linearGradient id="paint0_linear_493_3771" x1="8.19" y1="9.36" x2="86.58" y2="88.335" gradientUnits="userSpaceOnUse">
<stop stop-color="white"/>
<stop offset="1" stop-color="#EAEAEA"/>
</linearGradient>
<clipPath id="clip0_493_3771">
<rect width="62" height="62" fill="white" transform="translate(23 18)"/>
</clipPath>
</defs>
</svg>
