<svg width="98" height="98" viewBox="0 0 98 98" fill="none" xmlns="http://www.w3.org/2000/svg">
<rect x="0.585" y="0.585" width="95.94" height="95.94" rx="19.305" fill="url(#paint0_linear_196_8253)" stroke="#DEDEDE" stroke-width="1.17"/>
<path d="M46.75 58V39.6625L40.9 45.5125L37.75 42.25L49 31L60.25 42.25L57.1 45.5125L51.25 39.6625V58H46.75ZM35.5 67C34.2625 67 33.2035 66.5597 32.323 65.6792C31.4425 64.7988 31.0015 63.739 31 62.5V55.75H35.5V62.5H62.5V55.75H67V62.5C67 63.7375 66.5597 64.7972 65.6792 65.6792C64.7988 66.5612 63.739 67.0015 62.5 67H35.5Z" fill="#B2B2B2"/>
<defs>
<linearGradient id="paint0_linear_196_8253" x1="8.19" y1="9.36" x2="86.58" y2="88.335" gradientUnits="userSpaceOnUse">
<stop stop-color="white"/>
<stop offset="1" stop-color="#EAEAEA"/>
</linearGradient>
</defs>
</svg>
