<svg width="48" height="48" fill="none" xmlns="http://www.w3.org/2000/svg"><g clip-path="url(#prefix__clip0_1484_16332)"><path d="M39.373 24.002c0 3.014-.92 5.898-2.49 8.39l6.278 6.295A24.308 24.308 0 0048 24.128c0-5.508-1.831-10.493-4.97-14.556l-6.151 6.16a14.982 14.982 0 012.49 8.261l.003.009z" fill="#B8D3F4"/><path d="M23.934 39.473c-8.515-.016-15.415-6.933-15.433-15.472.013-8.542 6.914-15.465 15.433-15.481 3.14 0 6.017.922 8.373 2.497l6.146-6.17A24.163 24.163 0 0023.934.002C10.722.001 0 10.753 0 24.001c0 13.243 10.722 24 23.934 24a23.445 23.445 0 0014.519-4.988l-6.278-6.292c-2.226 1.836-5.098 2.752-8.241 2.752z" fill="#7FADF2"/></g><defs><clipPath id="prefix__clip0_1484_16332"><path fill="#fff" d="M0 0h48v48H0z"/></clipPath></defs></svg>