<svg width="48" height="48" fill="none" xmlns="http://www.w3.org/2000/svg"><path fill-rule="evenodd" clip-rule="evenodd" d="M17.691 45.45l-8.786-6.135c-2.404-1.677-3.608-2.519-4.255-3.75-.647-1.23-.65-2.678-.65-5.562V18.89c0-.921 0-1.694.02-2.36l17.551 12.248V48c-1.045-.572-2.263-1.422-3.88-2.55zm9.738 2.547c1.045-.572 2.263-1.425 3.88-2.553l8.786-6.132c2.404-1.677 3.608-2.519 4.255-3.75.647-1.23.65-2.675.65-5.56V18.89c0-.921 0-1.694-.02-2.36L27.429 28.777v19.22zm15.017-36.736L24.5 23.79 6.554 11.264c.62-.481 1.39-1.019 2.351-1.689l8.786-6.132C20.98 1.148 22.626 0 24.5 0c1.874 0 3.52 1.145 6.809 3.443l8.786 6.132c.963.67 1.73 1.205 2.351 1.686z" fill="#000"/></svg>