<svg width="48" height="48" viewBox="0 0 48 48" fill="none" xmlns="http://www.w3.org/2000/svg">
<g clip-path="url(#clip0_1862_19172)">
<path d="M48 23.9995C48 26.2167 46.19 28.0124 43.955 28.0124H30L24 15.9737L30.475 4.84768C31.595 2.92803 34.065 2.27327 36 3.37942C37.935 4.49054 38.595 6.94093 37.48 8.86058L31.005 19.9866H43.955C46.19 19.9866 48 21.7822 48 23.9995Z" fill="#1A73E8"/>
<path d="M35.9995 44.62C34.0645 45.7262 31.5945 45.0714 30.4745 43.1518L23.9995 32.0258L17.5245 43.1518C16.4045 45.0714 13.9345 45.7262 11.9995 44.62C10.0645 43.5089 9.40447 41.0585 10.5195 39.1389L16.9945 28.0129L23.9995 27.75L31.0045 28.0129L37.4795 39.1389C38.5945 41.0585 37.9345 43.5089 35.9995 44.62Z" fill="#EA4335"/>
<path d="M23.9995 15.9737L22.1745 20.8943L16.9945 19.9866L10.5195 8.86057C9.40447 6.94093 10.0645 4.49053 11.9995 3.37942C13.9345 2.27327 16.4045 2.92803 17.5245 4.84768L23.9995 15.9737Z" fill="#FBBC04"/>
<path d="M22.955 19.9863L18.26 28.0121H4.045C1.81 28.0121 0 26.2165 0 23.9992C0 21.782 1.81 19.9863 4.045 19.9863H22.955Z" fill="#34A853"/>
<path d="M31.0051 28.0123H16.9951L24.0001 15.9736L31.0051 28.0123Z" fill="#185DB7"/>
</g>
<defs>
<clipPath id="clip0_1862_19172">
<rect width="48" height="44" fill="white" transform="translate(0 2)"/>
</clipPath>
</defs>
</svg>
