<svg width="48" height="48" fill="none" xmlns="http://www.w3.org/2000/svg"><path d="M24.5 30c4.98 0 9.015-4.029 9.015-9V9c0-4.971-4.035-9-9.015-9s-9.015 4.029-9.015 9v12c0 4.971 4.035 9 9.015 9zM42 20.893a.428.428 0 00-.424-.429h-3.182a.428.428 0 00-.424.429c0 7.516-6.03 13.607-13.47 13.607s-13.47-6.091-13.47-13.607a.428.428 0 00-.424-.429H7.424a.428.428 0 00-.424.429c0 9.037 6.714 16.495 15.379 17.55v5.486h-7.706c-.726 0-1.31.766-1.31 1.714v1.928c0 .236.15.429.33.429h21.615c.18 0 .328-.193.328-.429v-1.928c0-.948-.583-1.714-1.31-1.714H26.41v-5.46C35.175 37.506 42 30.006 42 20.894z" fill="#000"/></svg>