<svg width="48" height="48" fill="none" xmlns="http://www.w3.org/2000/svg"><path d="M32.107 21.937l6.475-8.4L43 16.842l-6.476 8.405-4.417-3.31zm-1.326-.968l6.886-8.938-4.638-3.469-6.886 8.938 4.638 3.47zm-2.832-9.931l-1.99 4.019 5.875-7.618-4.381-3.28-3.735 4.845 4.23 2.034zm-2.138-7.44L21.004 0l-4.33 5.618 5.533 2.658 3.604-4.677zM36.84 27.52L22.513 17.088l-1.023.093.47.203 6.407 14.06-1.703.229L20.72 18.62l-4.122-1.798-.413-3.132 4.062 1.972 3.748-.338 1.752-3.538-11.43-5.494L6 17.721l10.42 15.488L14.08 48h19.18V35.845l3.638-4.97 1.104-4.867-1.163 1.512z" fill="#000"/></svg>