<svg version="1.1" xmlns="http://www.w3.org/2000/svg" x="0" y="0" width="342" height="100" viewBox="0 0 342 100" role="img" aria-label="Berliner Philharmoniker"><path d="M149.29,29.393 C144.598,29.393 140.83,32.956 140.83,37.821 C140.83,42.65 143.776,46.108 149.36,46.108 C153.244,46.108 155.354,44.178 156.352,42.781 L153.424,40.816 C152.659,41.747 151.286,42.686 149.325,42.686 C146.926,42.686 145.487,41.416 145.081,39.02 L157.474,39.02 C157.474,39.02 157.509,38.301 157.509,37.683 C157.509,32.819 153.946,29.393 149.29,29.393 M145.081,36.216 C145.589,33.782 147.099,32.688 149.254,32.688 C151.516,32.688 152.99,33.852 153.23,36.216 z M213.64,29.393 C208.948,29.393 205.18,32.956 205.18,37.821 C205.18,42.65 208.129,46.108 213.71,46.108 C217.594,46.108 219.704,44.178 220.702,42.781 L217.774,40.816 C217.009,41.747 215.64,42.686 213.675,42.686 C211.276,42.686 209.837,41.416 209.431,39.02 L221.828,39.02 C221.828,39.02 221.859,38.301 221.859,37.683 C221.859,32.819 218.3,29.393 213.64,29.393 M209.431,36.216 C209.939,33.782 211.449,32.688 213.604,32.688 C215.866,32.688 217.34,33.852 217.58,36.216 z M320.983,61.231 C316.291,61.231 312.523,64.787 312.523,69.652 C312.523,74.482 315.469,77.942 321.05,77.942 C324.937,77.942 327.047,76.013 328.045,74.612 L325.117,72.651 C324.352,73.578 322.98,74.517 321.018,74.517 C318.619,74.517 317.18,73.25 316.774,70.851 L329.167,70.851 C329.167,70.851 329.203,70.135 329.203,69.514 C329.203,64.65 325.639,61.231 320.983,61.231 M316.774,68.047 C317.282,65.616 318.792,64.519 320.948,64.519 C323.209,64.519 324.683,65.683 324.923,68.047 z M182.525,61.224 C180.609,61.224 178.556,62.088 177.427,63.623 L177.427,53.421 L173.451,55.474 L173.451,77.395 L177.427,77.395 L177.427,69.585 C177.427,65.891 179.512,64.759 181.463,64.759 C183.283,64.759 184.723,65.581 184.723,68.248 L184.723,77.395 L188.691,77.395 L188.691,67.772 C188.691,62.942 185.887,61.224 182.525,61.224 M276.307,69.86 C276.307,66.124 278.396,65.031 280.343,65.031 C282.163,65.031 283.595,65.849 283.595,68.523 L283.595,77.395 L287.571,77.395 L287.571,68.047 C287.571,63.217 284.76,61.503 281.405,61.503 C279.489,61.503 277.436,62.357 276.307,63.898 L276.307,61.778 L272.331,61.778 L272.331,77.395 L276.307,77.395 z M169.627,53.421 L165.757,55.439 L165.757,77.395 L169.627,77.395 z M158.056,77.395 L161.93,77.395 L161.93,61.224 L158.056,63.217 z M160.011,58.896 C161.383,58.896 162.476,57.802 162.476,56.465 C162.476,55.065 161.383,54.006 160.011,54.006 C158.642,54.006 157.509,55.065 157.509,56.465 C157.509,57.802 158.642,58.896 160.011,58.896 M291.032,77.395 L294.902,77.395 L294.902,61.224 L291.032,63.217 z M292.979,58.896 C294.352,58.896 295.449,57.802 295.449,56.465 C295.449,55.065 294.352,54.006 292.979,54.006 C291.618,54.006 290.485,55.065 290.485,56.465 C290.485,57.802 291.618,58.896 292.979,58.896 M336.064,64.279 L336.064,61.778 L332.057,61.778 L332.057,77.395 L336.064,77.395 L336.064,70.033 C336.064,67.221 337.609,65.373 339.423,65.373 C340.308,65.373 341.035,65.719 341.035,65.719 L341.888,61.778 C341.888,61.778 340.964,61.503 340.11,61.503 C337.747,61.503 336.851,62.836 336.064,64.279 M216.335,64.279 L216.335,61.778 L212.324,61.778 L212.324,77.395 L216.335,77.395 L216.335,70.033 C216.335,67.221 217.87,65.373 219.69,65.373 C220.579,65.373 221.295,65.719 221.295,65.719 L222.156,61.778 C222.156,61.778 221.235,61.503 220.371,61.503 C218.007,61.503 217.122,62.836 216.335,64.279 M228.725,32.445 L228.725,29.943 L224.713,29.943 L224.713,45.564 L228.725,45.564 L228.725,38.198 C228.725,35.387 230.266,33.542 232.079,33.542 C232.968,33.542 233.692,33.884 233.692,33.884 L234.545,29.943 C234.545,29.943 233.621,29.668 232.767,29.668 C230.404,29.668 229.508,31.005 228.725,32.445 M176.104,21.586 L172.238,23.604 L172.238,45.564 L176.104,45.564 z M130.451,42.167 L125.728,42.167 L125.728,35.422 L130.25,35.422 C133.09,35.422 134.6,36.519 134.6,38.812 C134.6,40.837 133.471,42.167 130.451,42.167 M125.728,26.105 L129.771,26.105 C132.508,26.105 133.672,27.238 133.672,29.023 C133.672,30.97 132.339,32.102 129.943,32.102 L125.728,32.102 z M134.565,33.369 C136.449,32.857 137.546,30.628 137.546,28.642 C137.546,23.198 132.441,22.715 128.571,22.715 L121.724,22.715 L121.724,45.564 L130.628,45.564 C135.524,45.564 138.572,43.539 138.572,38.95 C138.572,35.972 137.271,34.05 134.565,33.369 M191.207,38.026 C191.207,34.293 193.302,33.196 195.249,33.196 C197.07,33.196 198.502,34.018 198.502,36.688 L198.502,45.564 L202.478,45.564 L202.478,36.216 C202.478,31.383 199.666,29.668 196.311,29.668 C194.396,29.668 192.343,30.522 191.207,32.067 L191.207,29.943 L187.238,29.943 L187.238,45.564 L191.207,45.564 z M179.734,45.564 L183.608,45.564 L183.608,29.393 L179.734,31.383 z M181.685,27.065 C183.054,27.065 184.151,25.968 184.151,24.631 C184.151,23.234 183.054,22.165 181.685,22.165 C180.32,22.165 179.191,23.234 179.191,24.631 C179.191,25.968 180.32,27.065 181.685,27.065 M164.431,32.445 L164.431,29.943 L160.42,29.943 L160.42,45.564 L164.431,45.564 L164.431,38.198 C164.431,35.387 165.973,33.542 167.786,33.542 C168.675,33.542 169.394,33.884 169.394,33.884 L170.252,29.943 C170.252,29.943 169.327,29.668 168.474,29.668 C166.11,29.668 165.218,31.005 164.431,32.445 M128.335,65.27 L125.728,65.27 L125.728,57.94 L128.571,57.94 C132.272,57.94 133.192,59.344 133.192,61.503 C133.192,63.694 132.307,65.27 128.335,65.27 M127.372,54.55 L121.724,54.55 L121.724,77.395 L125.728,77.395 L125.728,68.661 L128.091,68.661 C134.053,68.661 137.271,66.812 137.271,61.535 C137.271,55.989 133.672,54.55 127.372,54.55 M200.273,74.104 C197.394,74.104 195.444,72.464 195.444,69.479 C195.444,66.78 197.324,64.83 200.068,64.83 C202.63,64.83 204.69,66.537 204.69,69.419 C204.69,72.291 202.672,74.104 200.273,74.104 M204.69,63.623 C204.69,63.623 202.94,61.503 199.31,61.503 C195.031,61.503 191.401,64.893 191.401,69.585 C191.401,74.277 194.375,77.667 199.483,77.667 C201.437,77.667 203.628,76.916 204.69,75.614 L204.69,77.395 L208.659,77.395 L208.659,61.778 L204.69,61.778 z M148.436,61.224 C146.517,61.224 144.464,62.088 143.335,63.623 L143.335,53.421 L139.359,55.474 L139.359,77.395 L143.335,77.395 L143.335,69.585 C143.335,65.891 145.42,64.759 147.374,64.759 C149.191,64.759 150.63,65.581 150.63,68.248 L150.63,77.395 L154.603,77.395 L154.603,67.772 C154.603,62.942 151.791,61.224 148.436,61.224 M311.955,61.778 L307.401,61.778 L302.536,68.047 L302.536,53.421 L298.536,55.439 L298.536,77.395 L302.536,77.395 L302.536,70.202 L307.471,77.395 L312.372,77.395 L306.237,68.865 z M260.549,74.552 C257.702,74.552 255.648,72.361 255.648,69.585 C255.648,66.812 257.702,64.621 260.549,64.621 C263.388,64.621 265.516,66.812 265.516,69.585 C265.516,72.361 263.526,74.552 260.549,74.552 M260.549,61.231 C255.581,61.231 251.535,64.83 251.535,69.585 C251.535,74.552 255.546,77.942 260.549,77.942 C265.614,77.942 269.622,74.379 269.622,69.585 C269.622,64.65 265.551,61.231 260.549,61.231 M243.15,61.503 C241.202,61.503 239.107,62.258 237.872,63.761 C237.191,62.258 235.138,61.503 233.251,61.503 C231.437,61.503 229.282,62.088 228.082,63.694 L228.082,61.778 L224.142,61.778 L224.142,77.395 L228.118,77.395 L228.118,69.585 C228.118,66.745 229.282,64.995 231.818,64.995 C233.561,64.995 234.588,65.951 234.588,67.98 L234.588,77.395 L238.563,77.395 L238.563,69.617 C238.563,66.675 239.795,65.031 242.158,65.031 C244.007,65.031 245.033,65.987 245.033,68.047 L245.033,77.395 L249.009,77.395 L249.009,67.634 C249.009,63.457 247.224,61.503 243.15,61.503 M33.949,14.915 L78.9,20.235 L47.919,2.342 z M88.46,45.723 L96.236,55.1 L101.037,33.016 L84.238,23.308 z M2.333,43.388 L10.168,60.536 L29.599,18.838 z M89.159,49.424 L91.593,62.307 L95.343,56.885 z M92.055,64.822 L93.011,69.874 L95.054,60.501 z M11.495,62.011 L27.68,77.004 L31.261,35.168 L70.79,24.419 L86.058,42.823 L82.216,22.461 L32.651,16.605 z M90.605,66.932 L83.211,77.597 L91.801,73.303 z M29.423,77.981 L60.034,89.185 L79.814,79.297 L90.129,64.41 L86.749,46.52 L70.141,26.486 L32.968,36.593 z M62.394,90.046 L70.345,92.956 L77.648,82.419 z M81.041,80.726 L72.395,93.21 L88.294,91.535 L91.822,75.328 z M60.146,91.171 L51.729,95.38 L67.213,93.754 z M31.758,80.779 L47.566,95.422 L57.793,90.311 z M12.342,65.285 L27.271,97.945 L45.538,96.029 z M26.16,99.899 L0.118,42.926 L47.679,0.102 L103.104,32.102 L89.801,93.218 z" fill="#000"/></svg>
