<svg width="48" height="48" fill="none" xmlns="http://www.w3.org/2000/svg"><path d="M46.548 44.861c.174-.025.327-.046.489.046a.519.519 0 01.249.317.37.37 0 01-.058.299c-.093.133-.21.172-.362.207a.44.44 0 01-.218.012c-.129-.02-.224-.062-.295-.174a.55.55 0 01-.061-.4c.037-.156.127-.221.256-.306zM32.682 41.7l.072.017c.079.255.03.62.03.889l.877.014c-.284.09-.581.094-.877.105-.003.524-.098 2.28.084 2.683.29.065.412-.22.655-.236-.083.174-.16.3-.298.437a1.269 1.269 0 01-.574.156.579.579 0 01-.46-.173c-.459-.466-.29-2.186-.284-2.863-.13-.004-.348.008-.448-.08.141-.06.294-.044.445-.043l.002-.773c.27-.015.516-.062.776-.133zM25.037 42.523a.74.74 0 01.346.06l.045.02c.1.046.203.085.265.182.054.087.058.18.034.277a.74.74 0 01-.34.449c-.107.063-.254.114-.38.075a.272.272 0 01-.165-.154c-.117-.253.016-.447.094-.683l-.046-.032a.92.92 0 00-.272.161c-.278.253-.269.55-.274.895-.005.31-.097 1.424.102 1.628.117.12.326.091.446.214-.092.057-.182.046-.287.045-.57-.018-1.142-.002-1.712.004.131-.07.457-.143.532-.267.106-.175.08-2.219-.003-2.494-.108-.133-.281-.202-.431-.28.246 0 1.174-.112 1.327-.006.013.119.023.238.03.357.094-.023.318-.332.69-.451zM44.28 42.543c.532-.063.742.18 1.078.161.08-.004.14-.125.2-.185l.055.035.014.065c.05.285.015.871-.157 1.111.003-.037.005-.075.005-.113.002-.262-.084-.575-.283-.756a.665.665 0 00-.502-.174.465.465 0 00-.335.17c-.415.57 1.255 1.072 1.394 1.88a.76.76 0 01-.15.608c-.209.265-.504.344-.822.394-.353.052-.665-.09-.976-.237-.107.024-.143.106-.209.19h-.059c-.01-.364.073-.974-.066-1.294l-.013-.028c.325.335.236.912.666 1.158.14.08.364.092.516.04.1-.033.173-.119.215-.212.245-.533-1.113-1.258-1.333-1.836a.52.52 0 01.021-.447c.154-.288.444-.432.741-.53zM29.811 42.527c.363-.016.62.075.953.197.122-.03.148-.091.224-.184l.056.008c.066.39-.01.885-.04 1.284-.027-.08-.044-.161-.063-.243-.078-.334-.208-.692-.526-.874a.475.475 0 00-.367-.06.403.403 0 00-.244.207c-.326.62 1.184 1.117 1.366 1.769.06.214.028.479-.097.665-.2.299-.562.392-.894.457-.352.007-.614-.11-.93-.24-.12.015-.16.107-.247.186l-.049-.042c-.053-.433-.017-.96.062-1.39.112.395.111.927.459 1.206.143.116.348.143.526.115.136-.022.206-.094.283-.201.181-.68-1.1-1.205-1.324-1.924-.048-.156-.061-.317.024-.463.156-.265.547-.405.828-.473zM11.272 42.53c.282-.023.688.006.939.146a.568.568 0 01.29.367.63.63 0 01-.075.479.512.512 0 01-.323.23.386.386 0 01-.304-.066c-.082-.056-.167-.15-.181-.25-.037-.257.16-.489.31-.674a.575.575 0 00-.218-.11.414.414 0 00-.323.075c-.255.179-.389.553-.45.843-.086.415-.094 1.002.164 1.364.166.233.364.296.632.34l.116-.037c.345-.111.53-.317.775-.567-.05.152-.107.302-.186.442-.159.282-.434.535-.752.623-.326.09-.691.017-.978-.153a1.451 1.451 0 01-.66-.912c-.118-.474-.091-1.07.178-1.49.249-.39.608-.552 1.046-.65zM35.766 41.097a1.7 1.7 0 01.326-.016c.198.33-.153 3.746.092 4.284.072.158.394.233.55.288-.525.022-1.057.002-1.584.006-.09 0-.151.015-.227-.037a.79.79 0 00.374-.631c.03-.407-.013-.852-.013-1.265 0-.693.059-1.447-.014-2.133a.506.506 0 00-.123-.29c-.09-.038-.184-.063-.238-.148.15-.083.67-.047.857-.058zM6.174 41.056c.187.206-.144 3.685.083 4.301.056.151.366.242.512.303a49.59 49.59 0 00-1.751.004l-.027-.022-.007-.066c.098-.044.29-.112.337-.209.09-.187.063-3.668-.034-3.983-.11-.14-.315-.199-.477-.266.46.001.909 0 1.364-.062zM19.195 41.038c.145-.004.277.007.417.05.204.06.48.27.568.468a.29.29 0 010 .264c-.057.111-.216.207-.332.243a.451.451 0 01-.44-.088.411.411 0 01-.121-.191.42.42 0 01-.011-.044c-.056-.29.15-.341.29-.527l-.08-.045a.61.61 0 00-.328.063c-.284.291-.196 1.007-.195 1.378.176-.004.346-.01.52.023.05.009.03-.002.061.045-.189.063-.384.052-.58.051l-.001 2.33c.013.09.024.19.07.27.119.203.519.252.733.308-.723.078-1.513.03-2.242.011.177-.062.383-.112.525-.237.143-.326.1-2.19.049-2.621-.127-.088-.269-.027-.392-.115l.039-.052.287-.025c.25-.207.082-.772.288-1.085.19-.29.555-.401.875-.474zM27.133 42.53c.292-.028.646.007.888.184.366.268.41.713.468 1.124l-1.711.01c-.011.364.005.776.212 1.091.104.158.247.282.44.314.48.08.636-.239.979-.457l.021-.012a.701.701 0 01-.096.306 1.222 1.222 0 01-.776.618 1.29 1.29 0 01-.99-.112c-.33-.193-.539-.52-.633-.883-.128-.494-.084-1.114.192-1.555.243-.39.572-.53 1.006-.628zm.107.093c-.343.262-.395.515-.448.926l-.022.17.441.003c.14 0 .335.03.456-.043.092-.179.063-.354.003-.538-.055-.173-.129-.395-.306-.477a.543.543 0 00-.124-.041zM38.513 42.541c1.417.156.451 2.41.87 2.928a.942.942 0 00.26-.041l.005.08a.317.317 0 01-.117.123c-.206.111-.545.093-.763.024-.198-.062-.25-.177-.333-.35-.137.127-.27.245-.444.317-.24.099-.512.137-.757.031-.233-.1-.325-.268-.415-.489 0-.104-.005-.213.014-.315.119-.654 1.076-.724 1.546-1.026l.046-.03c.013-.288.087-.786-.12-1.018a.432.432 0 00-.301-.135c-.122-.009-.243.004-.337.085-.01.243.243.406.224.672-.067.137-.145.187-.29.236-.141.048-.294.07-.431-.005a.367.367 0 01-.182-.258.565.565 0 01.121-.447c.228-.294.551-.338.895-.388.165-.017.344-.012.509.006zm-.128 1.433c-.275.18-.633.379-.714.723a.701.701 0 00.104.524c.018.027.026.035.048.062.144.029.29.062.423-.021.13-.082.185-.275.207-.418.04-.257-.011-.568-.03-.828l-.038-.042zM8.244 42.523c.42 0 .69.074.994.368.224.597-.028 2.306.204 2.587a.977.977 0 00.259-.047l.016.063a.257.257 0 01-.106.095c-.212.103-.592.165-.819.08-.169-.064-.23-.216-.3-.367-.136.13-.27.247-.446.32-.245.102-.522.138-.771.026-.236-.107-.316-.274-.407-.497 0-.099-.004-.204.014-.301.126-.664 1.081-.716 1.552-1.032l.043-.029c.016-.337.052-.688-.125-.993-.054-.093-.141-.187-.25-.21-.162-.033-.315.073-.443.154-.021.098.174.203.226.304a.44.44 0 01.018.362.45.45 0 01-.284.247.477.477 0 01-.397-.026.384.384 0 01-.177-.257.552.552 0 01.106-.436c.218-.301.556-.347.898-.399.065-.007.13-.011.195-.012zm.193 1.452c-.276.18-.631.377-.712.722a.705.705 0 00.151.59c.148.03.309.06.44-.035.128-.094.179-.302.194-.452.017-.163.014-.704-.073-.825zM14.068 41.056c.2.265-.14 2.439.064 2.894.038.004.043.007.085-.003.265-.065.742-.546.854-.79.05-.11.045-.148.001-.254-.156-.143-.396-.212-.592-.289l1.692.003a4.345 4.345 0 00-1.26.955c.405.68.805 1.554 1.392 2.088l-.76-.007c-.225.008-.483.042-.702-.011l-.008-.076c.059-.04.113-.081.167-.127-.092-.352-.377-.757-.576-1.066-.072-.112-.143-.23-.278-.26-.075.125-.048.34-.051.483-.01.472-.054.658.291 1.015-.139.098-1.454.05-1.715.053.167-.086.336-.138.496-.242.124-.243.103-3.63.008-4.033-.116-.138-.292-.196-.453-.27.451 0 .897-.004 1.345-.063z" fill="#000"/><path d="M21.052 42.53c.378-.017.741.008 1.065.22.319.21.494.539.568.904.1.496.066 1.115-.231 1.543-.248.356-.568.47-.98.543-.36.03-.731-.008-1.043-.198-.323-.197-.512-.522-.59-.884-.106-.49-.074-1.123.21-1.55.252-.38.571-.494 1.001-.579zm.099.102c-.41.401-.45.957-.452 1.505-.001.412-.008 1.033.297 1.35.078.08.17.134.285.134.043 0 .086-.004.129-.008.391-.398.42-1.008.416-1.538-.004-.406-.014-.997-.319-1.303a.462.462 0 00-.356-.14zM2.646 41.09c.132.269.045 1.58.042 1.948.104-.124.206-.25.342-.34.22-.145.49-.228.753-.17.268.06.486.23.636.455.304.455.329 1.149.21 1.667-.099.437-.315.728-.691.968a4.466 4.466 0 01-.118.04c-.495.161-.822.072-1.277-.155a3.633 3.633 0 00-.729.265c.045-.563.112-3.898-.007-4.269-.068-.21-.279-.202-.328-.354.274-.086.738-.035 1.036-.052.046-.014.083-.007.13-.004zm.566 1.684c-.193.057-.363.144-.46.33-.138.272-.084 1.965-.038 2.337.124.16.308.164.498.19a.665.665 0 00.405-.394c.228-.522.252-1.604.028-2.127-.05-.117-.131-.247-.256-.295-.056-.022-.118-.031-.177-.041zM40.954 41.082c.136.193.058 1.595.059 1.925.177-.204.359-.362.62-.448a.883.883 0 01.695.052c.292.152.484.441.578.747.159.518.142 1.253-.12 1.736-.154.28-.372.463-.68.553a.4.4 0 01-.094.05c-.42.145-.792-.017-1.17-.193-.253.068-.48.148-.714.268.026-.593.088-3.995-.01-4.308-.052-.16-.243-.185-.35-.307.14-.076.839-.054 1.045-.064l.141-.011zm.549 1.693c-.238.082-.352.195-.487.402-.003.304-.083 2.158.056 2.308.123.133.325.129.494.131h.04c.274-.184.365-.418.426-.73.098-.497.147-1.456-.138-1.897-.095-.146-.193-.18-.359-.209a1.142 1.142 0 00-.032-.005zM20.685 23.586c.319.319.983 1.469 1.263 1.894l2.945 4.444-4.162.003-4.248-.002 4.202-6.34zM43.591 13.846c.052.006.097.02.147.035.234.277.425.61.625.913l1.136 1.717 1.5 2.26c.258.388.54.773.77 1.175.039.066.044.111.047.185l-4.145.002-4.186.001c.488-.795 4.068-5.99 4.106-6.288zM25.343 20.466c1.409-.041 2.828-.009 4.238-.01 2.559 4.017 5.224 7.977 7.835 11.961l2.205 3.358c.388.59.828 1.186 1.16 1.808-1.405.058-2.834.007-4.242.007-.892-1.414-1.835-2.802-2.752-4.2l-5.22-7.97-2.164-3.298c-.35-.535-.778-1.084-1.06-1.655z" fill="#000"/><path d="M24.336 2.095c.008.005.017.01.024.017.212.18 1.008 1.493 1.23 1.829l3.824 5.77 18.132 27.351c.1.151.267.342.276.524-1.417.038-2.843.003-4.26.003-.004-.176-4.384-6.688-4.84-7.375L29.179 15.82l-3.094-4.668c-.574-.866-1.127-1.76-1.741-2.598-.438.596-.83 1.234-1.238 1.851l-2.272 3.432-6.866 10.361c-2.117 3.315-4.35 6.57-6.522 9.85 2.74.05 5.488.006 8.229.006l15.739-.002c.795 1.168 1.563 2.358 2.342 3.538L.81 37.583c1.926-2.82 3.778-5.696 5.665-8.542L24.336 2.095z" fill="#000"/></svg>