<svg width="48" height="48" fill="none" xmlns="http://www.w3.org/2000/svg"><path d="M10.66 7.318C15.074 10.78 19.84 17.79 22 21.414c2.16-3.624 6.926-10.634 11.34-14.096C36.71 4.654 43 1.706 43 8.076c0 1.272-.73 10.69-1.158 12.213-1.49 5.298-6.916 6.648-11.778 5.828 8.496 1.45 10.66 6.246 5.99 11.042-8.866 9.107-12.74-2.285-13.734-5.203-.183-.538-.269-.79-.32-.578-.051-.212-.137.04-.32.578-.993 2.918-4.868 14.31-13.734 5.203-4.669-4.796-2.506-9.593 5.99-11.042-4.862.82-10.288-.53-11.778-5.828C1.73 18.766 1 9.348 1 8.076 1 1.706 7.29 4.654 10.66 7.318z" fill="#000"/></svg>
