<svg width="48" height="48" fill="none" xmlns="http://www.w3.org/2000/svg"><g clip-path="url(#prefix__clip0_3781_44662)"><path d="M45 15.528l-1.483-4.023L44.549 9.2a.805.805 0 00-.16-.882l-2.806-2.832a4.53 4.53 0 00-4.713-1.097l-.79.272L31.8.038 24.533 0h-.047l-7.304.056-4.282 4.67-.76-.272A4.56 4.56 0 007.39 5.56L4.534 8.45a.631.631 0 00-.131.703l1.07 2.39L4 15.557l.958 3.62 4.347 16.512a8.353 8.353 0 003.257 4.707s5.277 3.723 10.487 7.099a2.33 2.33 0 002.902 0c5.849-3.826 10.477-7.108 10.477-7.108a8.462 8.462 0 003.258-4.707l4.328-16.522.986-3.629z" fill="url(#prefix__paint0_linear_3781_44662)"/><path d="M25.706 29.762a7.164 7.164 0 00-.854-.31h-.517a6.614 6.614 0 00-.854.31l-1.296.535c-.413.168-1.07.478-1.464.675l-2.385 1.237a.46.46 0 00-.29.572.45.45 0 00.234.272l2.075 1.463c.366.253.939.703 1.276 1.013l.583.497c.338.29.882.769 1.22 1.069l.554.487c.357.291.864.291 1.22 0l.583-.506 1.22-1.06.582-.515c.338-.291.911-.741 1.268-1.013l2.075-1.481a.453.453 0 00.216-.6.45.45 0 00-.273-.235l-2.384-1.21a20.907 20.907 0 00-1.474-.675l-1.315-.525z" fill="#fff"/><path d="M40.39 16.428l.066-.216c0-.29-.01-.572-.056-.862a7.112 7.112 0 00-.77-1.444l-1.352-1.979a25.867 25.867 0 00-.958-1.303l-1.802-2.26a8.582 8.582 0 00-.535-.628h-.038s-.366.065-.798.15l-2.76.534-1.211.235a3.15 3.15 0 01-1.183-.17l-2.179-.702a18.273 18.273 0 00-1.558-.432 6.788 6.788 0 00-1.38 0c-.432.103-1.136.3-1.559.432l-2.178.703a3.15 3.15 0 01-1.183.169l-1.21-.216-2.761-.525c-.441-.084-.798-.15-.798-.15h-.038a5.724 5.724 0 00-.535.628l-1.803 2.26c-.272.338-.713.938-.957 1.303l-1.352 1.979c-.235.337-.441.694-.639 1.06a4.655 4.655 0 00-.178 1.247l.066.215c.028.14.075.272.122.403.281.338.76.891 1.06 1.22l4.714 5.007c.319.375.413.89.235 1.35l-.77 1.828a2.347 2.347 0 00-.038 1.5l.16.423a4.132 4.132 0 001.258 1.762l.741.6c.395.282.902.348 1.352.16l2.639-1.256a6.875 6.875 0 001.352-.891l2.112-1.904a.835.835 0 00.056-1.19l-.018-.02-4.76-3.206a.922.922 0 01-.292-1.172l1.85-3.47c.216-.431.244-.919.094-1.378-.225-.432-.6-.76-1.052-.947l-5.783-2.185c-.413-.16-.394-.338.047-.366l3.399-.337c.535-.038 1.07.01 1.586.14l2.958.825a.903.903 0 01.629 1.013l-1.164 6.339a3.4 3.4 0 00-.057 1.069c.047.15.441.337.883.44l1.802.385c.526.094 1.061.094 1.587 0l1.624-.366c.432-.093.826-.3.883-.45a3.4 3.4 0 00-.056-1.069l-1.174-6.338a.903.903 0 01.629-1.013l2.957-.825a5.013 5.013 0 011.587-.14l3.399.318c.441.037.47.206.047.366l-5.784 2.194c-.45.187-.817.525-1.051.947-.15.45-.122.947.094 1.378l1.85 3.47c.206.403.084.9-.292 1.172l-4.76 3.207a.843.843 0 00.028 1.19l.02.02 2.111 1.903c.414.347.864.647 1.352.89l2.639 1.248c.45.178.957.122 1.352-.17l.741-.609a4.077 4.077 0 001.258-1.762l.16-.422c.15-.488.14-1.022-.038-1.5l-.779-1.83a1.379 1.379 0 01.235-1.35l4.713-5.016c.31-.338.78-.872 1.06-1.22.048-.121.095-.252.132-.393z" fill="#fff"/></g><defs><linearGradient id="prefix__paint0_linear_3781_44662" x1="4.01" y1="24.005" x2="44.999" y2="24.005" gradientUnits="userSpaceOnUse"><stop stop-color="#F1562B"/><stop offset=".3" stop-color="#F1542B"/><stop offset=".41" stop-color="#F04D2A"/><stop offset=".49" stop-color="#EF4229"/><stop offset=".5" stop-color="#EF4029"/><stop offset=".56" stop-color="#E83E28"/><stop offset=".67" stop-color="#E13C26"/><stop offset="1" stop-color="#DF3C26"/></linearGradient><clipPath id="prefix__clip0_3781_44662"><path fill="#fff" transform="translate(4)" d="M0 0h41v48H0z"/></clipPath></defs></svg>