<svg width="48" height="48" fill="none" xmlns="http://www.w3.org/2000/svg"><path fill-rule="evenodd" clip-rule="evenodd" d="M29.999 3.145a20.857 20.857 0 000 41.713V48C16.743 48 6 37.254 6 23.999 6 10.743 16.741 0 29.997 0v3.142l.002.003zm10.658 8.247a16.492 16.492 0 10-21.202 25.266l-2.02 2.409A19.635 19.635 0 0128.342 4.46a19.636 19.636 0 0114.335 4.52l-2.02 2.41zM35.6 13.285a12.127 12.127 0 00-11.322 21.448l-1.471 2.782a15.274 15.274 0 0114.26-27.012L35.6 13.285zm-5.602 2.953a7.763 7.763 0 000 15.526v3.144a10.907 10.907 0 010-21.814v3.144z" fill="#F15A29"/><path d="M32.882 21.39c-.335-.36-.72-.669-1.144-.917-.37-.22-.79-.337-1.22-.341a3.543 3.543 0 00-3.418 2.36 4.122 4.122 0 00-.247 1.415c0 .489.08.964.247 1.415a3.576 3.576 0 001.884 2.048c.448.208.964.314 1.534.314.484 0 .935-.103 1.35-.303a2.891 2.891 0 001.065-.88l2.082 2.257a4.914 4.914 0 01-1.081.814 7.548 7.548 0 01-2.43.852c-.38.059-.71.09-.986.09a7.437 7.437 0 01-2.651-.47 6.336 6.336 0 01-2.156-1.34 6.313 6.313 0 01-1.444-2.083 6.698 6.698 0 01-.534-2.714c0-.996.18-1.9.534-2.714a6.33 6.33 0 011.442-2.084 6.395 6.395 0 012.158-1.337 7.437 7.437 0 012.65-.47c.797 0 1.598.152 2.405.457.81.31 1.537.807 2.117 1.456l-2.157 2.175z" fill="#000"/></svg>