<svg width="48" height="48" fill="none" xmlns="http://www.w3.org/2000/svg"><g clip-path="url(#prefix__clip0_1398_24932)"><path d="M45.6 0h-36a4.8 4.8 0 00-4.8 4.8V12H0v4.8h4.8v4.8H0v4.8h4.8v4.8H0V36h4.8v7.2A4.8 4.8 0 009.6 48h36a2.4 2.4 0 002.4-2.4V2.4A2.4 2.4 0 0045.6 0zM26.4 7.198c3.955 0 7.2 3.242 7.2 7.2a7.224 7.224 0 01-7.2 7.202c-3.953 0-7.2-3.247-7.2-7.202 0-3.958 3.247-7.2 7.2-7.2zM40.8 38.4H12v-1.8c0-5.326 6.492-10.8 14.4-10.8s14.4 5.474 14.4 10.8v1.8z" fill="#000"/></g><defs><clipPath id="prefix__clip0_1398_24932"><path fill="#fff" d="M0 0h48v48H0z"/></clipPath></defs></svg>