<svg width="48" height="48" fill="none" xmlns="http://www.w3.org/2000/svg"><path d="M2.046.006a1167.5 1167.5 0 0115.856.056L17.9 5.229l-9.194.022 4.12 8.224 3.169 6.382-5.895.017C8.334 16.366 2.815 6.508 2.137 3.38 1.91 2.333 2.03 1.076 2.046.006zM32.012 28.156l6.063.01c1.907 3.886 6.971 12.825 7.866 16.433.257 1.032.127 2.314.105 3.378l-9.237.003-6.582.016.001-5.238c3.057.06 6.123.011 9.18.01a943.515 943.515 0 00-7.396-14.612zM10.165 28.122l5.863.004L8.76 42.778l9.134-.022c.02 1.623.2 3.445-.084 5.04l-.346.204-15.371-.014c-.022-1.084-.146-2.335.118-3.388.612-2.437 2.061-4.725 3.186-6.958l4.767-9.518zM30.235.02l15.79.024c.012 1.108.131 2.386-.143 3.463-.896 3.513-5.819 12.276-7.696 16.09-.636.61-5.022.277-6.088.28 2.47-4.847 4.905-9.711 7.304-14.593-3.054-.055-6.11-.074-9.165-.056L30.235.02z" fill="#367658"/></svg>