<svg width="48" height="48" fill="none" xmlns="http://www.w3.org/2000/svg"><path d="M47.496 8.938c-.508-.247-.727.223-1.024.462-.102.077-.188.177-.274.27-.743.786-1.611 1.303-2.746 1.241-1.658-.092-3.074.424-4.325 1.681-.267-1.55-1.15-2.475-2.496-3.069-.704-.308-1.416-.616-1.908-1.287-.345-.478-.438-1.01-.61-1.535-.11-.316-.22-.64-.587-.694-.4-.061-.556.27-.712.548-.626 1.133-.868 2.382-.845 3.647.055 2.845 1.267 5.112 3.676 6.723.274.185.345.37.259.64-.165.555-.36 1.095-.532 1.65-.11.355-.274.432-.657.278-1.322-.548-2.465-1.357-3.474-2.336-1.713-1.643-3.261-3.455-5.194-4.873-.453-.332-.907-.64-1.376-.933-1.972-1.897.258-3.454.774-3.64.54-.192.188-.855-1.557-.847-1.744.007-3.34.585-5.373 1.356-.298.116-.61.2-.931.27a19.368 19.368 0 00-5.765-.2c-3.77.416-6.782 2.182-8.996 5.197C.163 17.11-.462 21.227.304 25.521c.806 4.526 3.137 8.273 6.72 11.203 3.715 3.038 7.994 4.526 12.875 4.24 2.965-.17 6.266-.562 9.99-3.685.938.463 1.924.648 3.558.786 1.26.116 2.472-.061 3.411-.254 1.47-.308 1.369-1.658.837-1.904-4.31-1.99-3.364-1.18-4.224-1.835 2.19-2.568 5.491-5.236 6.782-13.879.102-.686.016-1.118 0-1.673-.008-.339.07-.47.462-.509 1.079-.123 2.127-.416 3.09-.94 2.792-1.511 3.918-3.994 4.184-6.97.04-.455-.008-.926-.493-1.164zM23.161 35.722c-4.177-3.253-6.203-4.325-7.04-4.279-.782.047-.641.933-.47 1.512.18.57.415.964.744 1.465.227.331.383.825-.227 1.195-1.345.825-3.684-.278-3.794-.332-2.722-1.588-4.998-3.686-6.602-6.553-1.549-2.76-2.448-5.721-2.597-8.883-.04-.763.188-1.033.954-1.172a9.475 9.475 0 013.059-.077c4.263.617 7.893 2.506 10.936 5.498 1.736 1.703 3.05 3.74 4.404 5.728 1.439 2.113 2.988 4.125 4.959 5.775.696.579 1.251 1.018 1.783 1.342-1.603.177-4.279.216-6.109-1.219zm2.003-12.76a.61.61 0 01.829-.57.55.55 0 01.227.146.61.61 0 01-.446 1.033.603.603 0 01-.61-.609zm6.218 3.162c-.399.161-.797.3-1.18.316-.595.03-1.245-.209-1.596-.502-.548-.455-.94-.709-1.103-1.503-.07-.34-.032-.864.031-1.164.14-.648-.016-1.064-.477-1.442-.376-.309-.853-.393-1.377-.393-.196 0-.375-.085-.508-.155-.22-.107-.4-.377-.227-.709.055-.108.32-.37.383-.416.712-.401 1.533-.27 2.292.03.704.286 1.236.81 2.003 1.55.782.895.923 1.142 1.368 1.812.353.525.673 1.064.892 1.681.133.386-.039.702-.5.895z" fill="#4D6BFE"/></svg>