<svg role="img" viewBox="0 0 64 64" xmlns="http://www.w3.org/2000/svg"><title>Deutscher Wetterdienst</title><rect width="64" height="64" rx="14" fill="#fff"/><path fill="#0b5aa9" d="M12 17h40v30H12z"/><path fill="#fff" d="M18 24h7.5c6.5 0 10.5 4 10.5 8.2 0 4.8-4 7.8-10.5 7.8H18V24zm6 4.7v6.6h1.2c2.8 0 4.7-1 4.7-3.3 0-2.1-1.9-3.3-4.7-3.3H24zM38 24h8c5.1 0 8 2.5 8 6.1 0 2.1-1.1 3.8-3.1 4.8L55 40h-7.1l-3.2-4.1H44V40h-6V24zm6 4.7v3.1h1.7c1.6 0 2.4-.5 2.4-1.6s-.8-1.5-2.4-1.5H44z"/><path fill="#8bc53f" d="M12 42h40v5H12z"/></svg>
