<svg width="157" height="157" viewBox="0 0 157 157" fill="none" xmlns="http://www.w3.org/2000/svg">
<path d="M0.0429688 0.0424805H6.31956V6.31908H0.0429688V0.0424805ZM6.31956 0.0424805H12.5962V6.31908H6.31956V0.0424805ZM12.5962 0.0424805H18.8728V6.31908H12.5962V0.0424805ZM18.8728 0.0424805H25.1494V6.31908H18.8728V0.0424805ZM25.1494 0.0424805H31.4259V6.31908H25.1494V0.0424805ZM31.4259 0.0424805H37.7025V6.31908H31.4259V0.0424805ZM37.7025 0.0424805H43.9791V6.31908H37.7025V0.0424805ZM69.0855 0.0424805H75.3621V6.31908H69.0855V0.0424805ZM87.9153 0.0424805H94.1919V6.31908H87.9153V0.0424805ZM94.1919 0.0424805H100.469V6.31908H94.1919V0.0424805ZM100.469 0.0424805H106.745V6.31908H100.469V0.0424805ZM113.022 0.0424805H119.298V6.31908H113.022V0.0424805ZM119.298 0.0424805H125.575V6.31908H119.298V0.0424805ZM125.575 0.0424805H131.851V6.31908H125.575V0.0424805ZM131.851 0.0424805H138.128V6.31908H131.851V0.0424805ZM138.128 0.0424805H144.405V6.31908H138.128V0.0424805ZM144.405 0.0424805H150.681V6.31908H144.405V0.0424805ZM150.681 0.0424805H156.958V6.31908H150.681V0.0424805ZM0.0429688 6.31908H6.31956V12.5957H0.0429688V6.31908ZM37.7025 6.31908H43.9791V12.5957H37.7025V6.31908ZM56.5323 6.31908H62.8089V12.5957H56.5323V6.31908ZM81.6387 6.31908H87.9153V12.5957H81.6387V6.31908ZM87.9153 6.31908H94.1919V12.5957H87.9153V6.31908ZM100.469 6.31908H106.745V12.5957H100.469V6.31908ZM113.022 6.31908H119.298V12.5957H113.022V6.31908ZM150.681 6.31908H156.958V12.5957H150.681V6.31908ZM0.0429688 12.5957H6.31956V18.8723H0.0429688V12.5957ZM12.5962 12.5957H18.8728V18.8723H12.5962V12.5957ZM18.8728 12.5957H25.1494V18.8723H18.8728V12.5957ZM25.1494 12.5957H31.4259V18.8723H25.1494V12.5957ZM37.7025 12.5957H43.9791V18.8723H37.7025V12.5957ZM56.5323 12.5957H62.8089V18.8723H56.5323V12.5957ZM62.8089 12.5957H69.0855V18.8723H62.8089V12.5957ZM75.3621 12.5957H81.6387V18.8723H75.3621V12.5957ZM87.9153 12.5957H94.1919V18.8723H87.9153V12.5957ZM94.1919 12.5957H100.469V18.8723H94.1919V12.5957ZM113.022 12.5957H119.298V18.8723H113.022V12.5957ZM125.575 12.5957H131.851V18.8723H125.575V12.5957ZM131.851 12.5957H138.128V18.8723H131.851V12.5957ZM138.128 12.5957H144.405V18.8723H138.128V12.5957ZM150.681 12.5957H156.958V18.8723H150.681V12.5957ZM0.0429688 18.8723H6.31956V25.1489H0.0429688V18.8723ZM12.5962 18.8723H18.8728V25.1489H12.5962V18.8723ZM18.8728 18.8723H25.1494V25.1489H18.8728V18.8723ZM25.1494 18.8723H31.4259V25.1489H25.1494V18.8723ZM37.7025 18.8723H43.9791V25.1489H37.7025V18.8723ZM50.2557 18.8723H56.5323V25.1489H50.2557V18.8723ZM56.5323 18.8723H62.8089V25.1489H56.5323V18.8723ZM75.3621 18.8723H81.6387V25.1489H75.3621V18.8723ZM87.9153 18.8723H94.1919V25.1489H87.9153V18.8723ZM94.1919 18.8723H100.469V25.1489H94.1919V18.8723ZM113.022 18.8723H119.298V25.1489H113.022V18.8723ZM125.575 18.8723H131.851V25.1489H125.575V18.8723ZM131.851 18.8723H138.128V25.1489H131.851V18.8723ZM138.128 18.8723H144.405V25.1489H138.128V18.8723ZM150.681 18.8723H156.958V25.1489H150.681V18.8723ZM0.0429688 25.1489H6.31956V31.4255H0.0429688V25.1489ZM12.5962 25.1489H18.8728V31.4255H12.5962V25.1489ZM18.8728 25.1489H25.1494V31.4255H18.8728V25.1489ZM25.1494 25.1489H31.4259V31.4255H25.1494V25.1489ZM37.7025 25.1489H43.9791V31.4255H37.7025V25.1489ZM62.8089 25.1489H69.0855V31.4255H62.8089V25.1489ZM69.0855 25.1489H75.3621V31.4255H69.0855V25.1489ZM75.3621 25.1489H81.6387V31.4255H75.3621V25.1489ZM81.6387 25.1489H87.9153V31.4255H81.6387V25.1489ZM87.9153 25.1489H94.1919V31.4255H87.9153V25.1489ZM113.022 25.1489H119.298V31.4255H113.022V25.1489ZM125.575 25.1489H131.851V31.4255H125.575V25.1489ZM131.851 25.1489H138.128V31.4255H131.851V25.1489ZM138.128 25.1489H144.405V31.4255H138.128V25.1489ZM150.681 25.1489H156.958V31.4255H150.681V25.1489ZM0.0429688 31.4255H6.31956V37.7021H0.0429688V31.4255ZM37.7025 31.4255H43.9791V37.7021H37.7025V31.4255ZM50.2557 31.4255H56.5323V37.7021H50.2557V31.4255ZM69.0855 31.4255H75.3621V37.7021H69.0855V31.4255ZM100.469 31.4255H106.745V37.7021H100.469V31.4255ZM113.022 31.4255H119.298V37.7021H113.022V31.4255ZM150.681 31.4255H156.958V37.7021H150.681V31.4255ZM0.0429688 37.7021H6.31956V43.9787H0.0429688V37.7021ZM6.31956 37.7021H12.5962V43.9787H6.31956V37.7021ZM12.5962 37.7021H18.8728V43.9787H12.5962V37.7021ZM18.8728 37.7021H25.1494V43.9787H18.8728V37.7021ZM25.1494 37.7021H31.4259V43.9787H25.1494V37.7021ZM31.4259 37.7021H37.7025V43.9787H31.4259V37.7021ZM37.7025 37.7021H43.9791V43.9787H37.7025V37.7021ZM50.2557 37.7021H56.5323V43.9787H50.2557V37.7021ZM62.8089 37.7021H69.0855V43.9787H62.8089V37.7021ZM75.3621 37.7021H81.6387V43.9787H75.3621V37.7021ZM87.9153 37.7021H94.1919V43.9787H87.9153V37.7021ZM100.469 37.7021H106.745V43.9787H100.469V37.7021ZM113.022 37.7021H119.298V43.9787H113.022V37.7021ZM119.298 37.7021H125.575V43.9787H119.298V37.7021ZM125.575 37.7021H131.851V43.9787H125.575V37.7021ZM131.851 37.7021H138.128V43.9787H131.851V37.7021ZM138.128 37.7021H144.405V43.9787H138.128V37.7021ZM144.405 37.7021H150.681V43.9787H144.405V37.7021ZM150.681 37.7021H156.958V43.9787H150.681V37.7021ZM50.2557 43.9787H56.5323V50.2552H50.2557V43.9787ZM56.5323 43.9787H62.8089V50.2552H56.5323V43.9787ZM62.8089 43.9787H69.0855V50.2552H62.8089V43.9787ZM87.9153 43.9787H94.1919V50.2552H87.9153V43.9787ZM94.1919 43.9787H100.469V50.2552H94.1919V43.9787ZM100.469 43.9787H106.745V50.2552H100.469V43.9787ZM6.31956 50.2552H12.5962V56.5318H6.31956V50.2552ZM12.5962 50.2552H18.8728V56.5318H12.5962V50.2552ZM37.7025 50.2552H43.9791V56.5318H37.7025V50.2552ZM81.6387 50.2552H87.9153V56.5318H81.6387V50.2552ZM87.9153 50.2552H94.1919V56.5318H87.9153V50.2552ZM100.469 50.2552H106.745V56.5318H100.469V50.2552ZM113.022 50.2552H119.298V56.5318H113.022V50.2552ZM119.298 50.2552H125.575V56.5318H119.298V50.2552ZM131.851 50.2552H138.128V56.5318H131.851V50.2552ZM6.31956 56.5318H12.5962V62.8084H6.31956V56.5318ZM12.5962 56.5318H18.8728V62.8084H12.5962V56.5318ZM25.1494 56.5318H31.4259V62.8084H25.1494V56.5318ZM43.9791 56.5318H50.2557V62.8084H43.9791V56.5318ZM62.8089 56.5318H69.0855V62.8084H62.8089V56.5318ZM69.0855 56.5318H75.3621V62.8084H69.0855V56.5318ZM75.3621 56.5318H81.6387V62.8084H75.3621V56.5318ZM81.6387 56.5318H87.9153V62.8084H81.6387V56.5318ZM87.9153 56.5318H94.1919V62.8084H87.9153V56.5318ZM94.1919 56.5318H100.469V62.8084H94.1919V56.5318ZM100.469 56.5318H106.745V62.8084H100.469V56.5318ZM113.022 56.5318H119.298V62.8084H113.022V56.5318ZM119.298 56.5318H125.575V62.8084H119.298V56.5318ZM131.851 56.5318H138.128V62.8084H131.851V56.5318ZM144.405 56.5318H150.681V62.8084H144.405V56.5318ZM150.681 56.5318H156.958V62.8084H150.681V56.5318ZM37.7025 62.8084H43.9791V69.085H37.7025V62.8084ZM69.0855 62.8084H75.3621V69.085H69.0855V62.8084ZM94.1919 62.8084H100.469V69.085H94.1919V62.8084ZM106.745 62.8084H113.022V69.085H106.745V62.8084ZM119.298 62.8084H125.575V69.085H119.298V62.8084ZM131.851 62.8084H138.128V69.085H131.851V62.8084ZM138.128 62.8084H144.405V69.085H138.128V62.8084ZM150.681 62.8084H156.958V69.085H150.681V62.8084ZM0.0429688 69.085H6.31956V75.3616H0.0429688V69.085ZM6.31956 69.085H12.5962V75.3616H6.31956V69.085ZM25.1494 69.085H31.4259V75.3616H25.1494V69.085ZM43.9791 69.085H50.2557V75.3616H43.9791V69.085ZM56.5323 69.085H62.8089V75.3616H56.5323V69.085ZM62.8089 69.085H69.0855V75.3616H62.8089V69.085ZM81.6387 69.085H87.9153V75.3616H81.6387V69.085ZM94.1919 69.085H100.469V75.3616H94.1919V69.085ZM106.745 69.085H113.022V75.3616H106.745V69.085ZM119.298 69.085H125.575V75.3616H119.298V69.085ZM131.851 69.085H138.128V75.3616H131.851V69.085ZM0.0429688 75.3616H6.31956V81.6382H0.0429688V75.3616ZM6.31956 75.3616H12.5962V81.6382H6.31956V75.3616ZM18.8728 75.3616H25.1494V81.6382H18.8728V75.3616ZM37.7025 75.3616H43.9791V81.6382H37.7025V75.3616ZM43.9791 75.3616H50.2557V81.6382H43.9791V75.3616ZM50.2557 75.3616H56.5323V81.6382H50.2557V75.3616ZM56.5323 75.3616H62.8089V81.6382H56.5323V75.3616ZM62.8089 75.3616H69.0855V81.6382H62.8089V75.3616ZM81.6387 75.3616H87.9153V81.6382H81.6387V75.3616ZM94.1919 75.3616H100.469V81.6382H94.1919V75.3616ZM100.469 75.3616H106.745V81.6382H100.469V75.3616ZM113.022 75.3616H119.298V81.6382H113.022V75.3616ZM119.298 75.3616H125.575V81.6382H119.298V75.3616ZM150.681 75.3616H156.958V81.6382H150.681V75.3616ZM12.5962 81.6382H18.8728V87.9148H12.5962V81.6382ZM18.8728 81.6382H25.1494V87.9148H18.8728V81.6382ZM25.1494 81.6382H31.4259V87.9148H25.1494V81.6382ZM62.8089 81.6382H69.0855V87.9148H62.8089V81.6382ZM69.0855 81.6382H75.3621V87.9148H69.0855V81.6382ZM75.3621 81.6382H81.6387V87.9148H75.3621V81.6382ZM94.1919 81.6382H100.469V87.9148H94.1919V81.6382ZM100.469 81.6382H106.745V87.9148H100.469V81.6382ZM113.022 81.6382H119.298V87.9148H113.022V81.6382ZM119.298 81.6382H125.575V87.9148H119.298V81.6382ZM144.405 81.6382H150.681V87.9148H144.405V81.6382ZM150.681 81.6382H156.958V87.9148H150.681V81.6382ZM0.0429688 87.9148H6.31956V94.1914H0.0429688V87.9148ZM6.31956 87.9148H12.5962V94.1914H6.31956V87.9148ZM18.8728 87.9148H25.1494V94.1914H18.8728V87.9148ZM31.4259 87.9148H37.7025V94.1914H31.4259V87.9148ZM37.7025 87.9148H43.9791V94.1914H37.7025V87.9148ZM50.2557 87.9148H56.5323V94.1914H50.2557V87.9148ZM56.5323 87.9148H62.8089V94.1914H56.5323V87.9148ZM62.8089 87.9148H69.0855V94.1914H62.8089V87.9148ZM75.3621 87.9148H81.6387V94.1914H75.3621V87.9148ZM94.1919 87.9148H100.469V94.1914H94.1919V87.9148ZM100.469 87.9148H106.745V94.1914H100.469V87.9148ZM113.022 87.9148H119.298V94.1914H113.022V87.9148ZM131.851 87.9148H138.128V94.1914H131.851V87.9148ZM138.128 87.9148H144.405V94.1914H138.128V87.9148ZM150.681 87.9148H156.958V94.1914H150.681V87.9148ZM12.5962 94.1914H18.8728V100.468H12.5962V94.1914ZM18.8728 94.1914H25.1494V100.468H18.8728V94.1914ZM25.1494 94.1914H31.4259V100.468H25.1494V94.1914ZM43.9791 94.1914H50.2557V100.468H43.9791V94.1914ZM62.8089 94.1914H69.0855V100.468H62.8089V94.1914ZM87.9153 94.1914H94.1919V100.468H87.9153V94.1914ZM94.1919 94.1914H100.469V100.468H94.1919V94.1914ZM100.469 94.1914H106.745V100.468H100.469V94.1914ZM106.745 94.1914H113.022V100.468H106.745V94.1914ZM113.022 94.1914H119.298V100.468H113.022V94.1914ZM119.298 94.1914H125.575V100.468H119.298V94.1914ZM125.575 94.1914H131.851V100.468H125.575V94.1914ZM131.851 94.1914H138.128V100.468H131.851V94.1914ZM0.0429688 100.468H6.31956V106.745H0.0429688V100.468ZM6.31956 100.468H12.5962V106.745H6.31956V100.468ZM12.5962 100.468H18.8728V106.745H12.5962V100.468ZM25.1494 100.468H31.4259V106.745H25.1494V100.468ZM37.7025 100.468H43.9791V106.745H37.7025V100.468ZM50.2557 100.468H56.5323V106.745H50.2557V100.468ZM69.0855 100.468H75.3621V106.745H69.0855V100.468ZM100.469 100.468H106.745V106.745H100.469V100.468ZM106.745 100.468H113.022V106.745H106.745V100.468ZM113.022 100.468H119.298V106.745H113.022V100.468ZM119.298 100.468H125.575V106.745H119.298V100.468ZM125.575 100.468H131.851V106.745H125.575V100.468ZM144.405 100.468H150.681V106.745H144.405V100.468ZM50.2557 106.745H56.5323V113.021H50.2557V106.745ZM56.5323 106.745H62.8089V113.021H56.5323V106.745ZM62.8089 106.745H69.0855V113.021H62.8089V106.745ZM69.0855 106.745H75.3621V113.021H69.0855V106.745ZM81.6387 106.745H87.9153V113.021H81.6387V106.745ZM87.9153 106.745H94.1919V113.021H87.9153V106.745ZM100.469 106.745H106.745V113.021H100.469V106.745ZM125.575 106.745H131.851V113.021H125.575V106.745ZM150.681 106.745H156.958V113.021H150.681V106.745ZM0.0429688 113.021H6.31956V119.298H0.0429688V113.021ZM6.31956 113.021H12.5962V119.298H6.31956V113.021ZM12.5962 113.021H18.8728V119.298H12.5962V113.021ZM18.8728 113.021H25.1494V119.298H18.8728V113.021ZM25.1494 113.021H31.4259V119.298H25.1494V113.021ZM31.4259 113.021H37.7025V119.298H31.4259V113.021ZM37.7025 113.021H43.9791V119.298H37.7025V113.021ZM62.8089 113.021H69.0855V119.298H62.8089V113.021ZM69.0855 113.021H75.3621V119.298H69.0855V113.021ZM87.9153 113.021H94.1919V119.298H87.9153V113.021ZM100.469 113.021H106.745V119.298H100.469V113.021ZM113.022 113.021H119.298V119.298H113.022V113.021ZM125.575 113.021H131.851V119.298H125.575V113.021ZM150.681 113.021H156.958V119.298H150.681V113.021ZM0.0429688 119.298H6.31956V125.574H0.0429688V119.298ZM37.7025 119.298H43.9791V125.574H37.7025V119.298ZM56.5323 119.298H62.8089V125.574H56.5323V119.298ZM62.8089 119.298H69.0855V125.574H62.8089V119.298ZM75.3621 119.298H81.6387V125.574H75.3621V119.298ZM81.6387 119.298H87.9153V125.574H81.6387V119.298ZM100.469 119.298H106.745V125.574H100.469V119.298ZM125.575 119.298H131.851V125.574H125.575V119.298ZM144.405 119.298H150.681V125.574H144.405V119.298ZM0.0429688 125.574H6.31956V131.851H0.0429688V125.574ZM12.5962 125.574H18.8728V131.851H12.5962V125.574ZM18.8728 125.574H25.1494V131.851H18.8728V125.574ZM25.1494 125.574H31.4259V131.851H25.1494V125.574ZM37.7025 125.574H43.9791V131.851H37.7025V125.574ZM56.5323 125.574H62.8089V131.851H56.5323V125.574ZM62.8089 125.574H69.0855V131.851H62.8089V125.574ZM87.9153 125.574H94.1919V131.851H87.9153V125.574ZM94.1919 125.574H100.469V131.851H94.1919V125.574ZM100.469 125.574H106.745V131.851H100.469V125.574ZM106.745 125.574H113.022V131.851H106.745V125.574ZM113.022 125.574H119.298V131.851H113.022V125.574ZM119.298 125.574H125.575V131.851H119.298V125.574ZM125.575 125.574H131.851V131.851H125.575V125.574ZM144.405 125.574H150.681V131.851H144.405V125.574ZM150.681 125.574H156.958V131.851H150.681V125.574ZM0.0429688 131.851H6.31956V138.128H0.0429688V131.851ZM12.5962 131.851H18.8728V138.128H12.5962V131.851ZM18.8728 131.851H25.1494V138.128H18.8728V131.851ZM25.1494 131.851H31.4259V138.128H25.1494V131.851ZM37.7025 131.851H43.9791V138.128H37.7025V131.851ZM56.5323 131.851H62.8089V138.128H56.5323V131.851ZM62.8089 131.851H69.0855V138.128H62.8089V131.851ZM69.0855 131.851H75.3621V138.128H69.0855V131.851ZM75.3621 131.851H81.6387V138.128H75.3621V131.851ZM94.1919 131.851H100.469V138.128H94.1919V131.851ZM106.745 131.851H113.022V138.128H106.745V131.851ZM125.575 131.851H131.851V138.128H125.575V131.851ZM138.128 131.851H144.405V138.128H138.128V131.851ZM144.405 131.851H150.681V138.128H144.405V131.851ZM0.0429688 138.128H6.31956V144.404H0.0429688V138.128ZM12.5962 138.128H18.8728V144.404H12.5962V138.128ZM18.8728 138.128H25.1494V144.404H18.8728V138.128ZM25.1494 138.128H31.4259V144.404H25.1494V138.128ZM37.7025 138.128H43.9791V144.404H37.7025V138.128ZM50.2557 138.128H56.5323V144.404H50.2557V138.128ZM81.6387 138.128H87.9153V144.404H81.6387V138.128ZM87.9153 138.128H94.1919V144.404H87.9153V138.128ZM94.1919 138.128H100.469V144.404H94.1919V138.128ZM100.469 138.128H106.745V144.404H100.469V138.128ZM106.745 138.128H113.022V144.404H106.745V138.128ZM119.298 138.128H125.575V144.404H119.298V138.128ZM125.575 138.128H131.851V144.404H125.575V138.128ZM131.851 138.128H138.128V144.404H131.851V138.128ZM144.405 138.128H150.681V144.404H144.405V138.128ZM150.681 138.128H156.958V144.404H150.681V138.128ZM0.0429688 144.404H6.31956V150.681H0.0429688V144.404ZM37.7025 144.404H43.9791V150.681H37.7025V144.404ZM50.2557 144.404H56.5323V150.681H50.2557V144.404ZM56.5323 144.404H62.8089V150.681H56.5323V144.404ZM62.8089 144.404H69.0855V150.681H62.8089V144.404ZM81.6387 144.404H87.9153V150.681H81.6387V144.404ZM100.469 144.404H106.745V150.681H100.469V144.404ZM106.745 144.404H113.022V150.681H106.745V144.404ZM113.022 144.404H119.298V150.681H113.022V144.404ZM119.298 144.404H125.575V150.681H119.298V144.404ZM125.575 144.404H131.851V150.681H125.575V144.404ZM0.0429688 150.681H6.31956V156.957H0.0429688V150.681ZM6.31956 150.681H12.5962V156.957H6.31956V150.681ZM12.5962 150.681H18.8728V156.957H12.5962V150.681ZM18.8728 150.681H25.1494V156.957H18.8728V150.681ZM25.1494 150.681H31.4259V156.957H25.1494V150.681ZM31.4259 150.681H37.7025V156.957H31.4259V150.681ZM37.7025 150.681H43.9791V156.957H37.7025V150.681ZM62.8089 150.681H69.0855V156.957H62.8089V150.681ZM75.3621 150.681H81.6387V156.957H75.3621V150.681ZM100.469 150.681H106.745V156.957H100.469V150.681ZM113.022 150.681H119.298V156.957H113.022V150.681ZM131.851 150.681H138.128V156.957H131.851V150.681ZM150.681 150.681H156.958V156.957H150.681V150.681Z" fill="black"/>
</svg>
