<svg width="48" height="48" fill="none" xmlns="http://www.w3.org/2000/svg"><path fill-rule="evenodd" clip-rule="evenodd" d="M17 2.829A2.829 2.829 0 0119.829 0C30.417 0 39 8.583 39 19.171a2.829 2.829 0 11-5.657 0c0-7.463-6.05-13.514-13.514-13.514A2.829 2.829 0 0117 2.83zM45.043 17C46.676 17 48 18.266 48 19.829 48 30.417 39.027 39 27.957 39 26.324 39 25 37.734 25 36.171c0-1.562 1.324-2.828 2.957-2.828 7.803 0 14.129-6.05 14.129-13.514 0-1.563 1.324-2.829 2.957-2.829z" fill="#000"/><path fill-rule="evenodd" clip-rule="evenodd" d="M31 45.171A2.829 2.829 0 0128.171 48C17.583 48 9 39.417 9 28.829a2.829 2.829 0 115.657 0c0 7.463 6.05 13.514 13.514 13.514A2.829 2.829 0 0131 45.17zM2.957 31C1.324 31 0 29.734 0 28.171 0 17.583 8.973 9 20.043 9 21.676 9 23 10.266 23 11.829c0 1.562-1.324 2.828-2.957 2.828-7.803 0-14.129 6.05-14.129 13.514C5.914 29.734 4.59 31 2.957 31z" fill="#000"/></svg>