<svg width="48" height="48" fill="none" xmlns="http://www.w3.org/2000/svg"><path d="M33.778 26.4h-7.334C25.1 26.4 24 27.48 24 28.8V36c0 1.32 1.1 2.4 2.444 2.4h7.334c1.344 0 2.444-1.08 2.444-2.4v-7.2c0-1.32-1.1-2.4-2.444-2.4zm0-24v2.4H14.222V2.4c0-1.32-1.1-2.4-2.444-2.4-1.345 0-2.445 1.08-2.445 2.4v2.4H6.89c-2.713 0-4.865 2.16-4.865 4.8L2 43.2c0 1.273.515 2.494 1.432 3.394.917.9 2.16 1.406 3.457 1.406H41.11C43.8 48 46 45.84 46 43.2V9.6c0-2.64-2.2-4.8-4.889-4.8h-2.444V2.4c0-1.32-1.1-2.4-2.445-2.4-1.344 0-2.444 1.08-2.444 2.4zm4.889 40.8H9.333c-1.344 0-2.444-1.08-2.444-2.4v-24H41.11v24c0 1.32-1.1 2.4-2.444 2.4z" fill="#000"/></svg>