<svg width="48" height="48" fill="none" xmlns="http://www.w3.org/2000/svg"><g clip-path="url(#prefix__clip0_4100_36478)"><path d="M35.367 15.462c-1.879.547-3.295 1.783-4.332 3.126-.223.289-.687.072-.598-.281 1.985-8.005-.638-14.658-8.814-17.933-.415-.166-.847.199-.738.625 3.72 14.641-11.925 13.406-9.948 30.004.034.285-.292.48-.53.313-.742-.522-1.57-1.61-2.137-2.375a.344.344 0 00-.604.107C7.214 30.65 7 32.16 7 33.66c0 5.833 3.058 10.967 7.687 13.944.265.17.605-.073.515-.372a8.828 8.828 0 01-.382-2.465c0-.525.034-1.061.117-1.561a8.475 8.475 0 011.387-3.543c2.565-3.775 7.707-7.422 6.886-12.373-.052-.313.325-.52.563-.305 3.623 3.245 4.34 7.61 3.745 11.524-.051.34.384.522.604.255a7.814 7.814 0 011.966-1.724.342.342 0 01.498.173c.41 1.168 1.019 2.265 1.593 3.361a8.827 8.827 0 01.615 6.655c-.093.302.244.553.514.38C37.94 44.633 41 39.499 41 33.662c0-2.028-.362-4.016-1.047-5.88-1.437-3.907-5.081-6.842-4.16-11.935a.34.34 0 00-.426-.385z" fill="#FA5D19"/></g><defs><clipPath id="prefix__clip0_4100_36478"><path fill="#fff" transform="translate(7)" d="M0 0h34v48H0z"/></clipPath></defs></svg>