<svg width="48" height="48" fill="none" xmlns="http://www.w3.org/2000/svg"><path d="M31.677 1.794C35.683-2.086 42.38.766 42.38 6.367c0 .702-.204 1.357-.556 1.908h1.65a3.873 3.873 0 013.871 3.877v7.144a3.873 3.873 0 01-3.31 3.837v19.76c0 2.823-2.312 5.107-5.151 5.107H9.46c-2.833 0-5.15-2.261-5.15-5.108v-19.76A3.873 3.873 0 011 19.297v-7.144a3.873 3.873 0 013.87-3.877h1.643a3.559 3.559 0 01-.547-1.908C5.966.766 12.66-2.1 16.67 1.794l2.962 2.873a4.966 4.966 0 014.549-3.012c2.027 0 3.77 1.233 4.538 3.006l2.958-2.867zM7.621 23.172v19.72c0 .982.798 1.798 1.84 1.798h9.746V23.172H7.621zm21.517 0V44.69h9.746a1.82 1.82 0 001.84-1.798v-19.72H29.139zm14.897-3.876v-7.144a.563.563 0 00-.56-.566H29.138v8.276h14.337a.563.563 0 00.56-.566zm-24.828-7.71H4.87a.562.562 0 00-.56.566v7.144a.562.562 0 00.56.566h14.337v-8.276z" fill="#000"/></svg>