<svg width="48" height="48" fill="none" xmlns="http://www.w3.org/2000/svg"><path d="M3 6a3 3 0 013-3h28a3 3 0 013 3v16.5a14.92 14.92 0 00-3-1.34V9H6v24h11.16a15.08 15.08 0 00.24 3H6a3 3 0 01-3-3V6z" fill="#000"/><path d="M9.5 25.5l5.31-5.31a1.5 1.5 0 012.12 0l4.94 4.94 3.31-3.31a1.5 1.5 0 012.12 0L30 24.72A15 15 0 0029.5 26l-2.19-2.19-3.31 3.31a1.5 1.5 0 01-2.12 0L17 23.18 12.5 27.68a1.5 1.5 0 01-1.88.18L9.5 26.5V25.5zM15.5 15.5a2.5 2.5 0 100-5 2.5 2.5 0 000 5z" fill="#000"/><path d="M34 22a10 10 0 110 20 10 10 0 010-20zm0 3a7 7 0 100 14 7 7 0 000-14z" fill="#000"/><path d="M40.47 43.53a1.5 1.5 0 01-2.12-2.12l4-4a1.5 1.5 0 012.12 2.12l-4 4z" fill="#000"/></svg>
