<svg width="48" height="48" fill="none" xmlns="http://www.w3.org/2000/svg"><g clip-path="url(#prefix__clip0_5248_45400)"><path d="M40.244 25.448c.034.271-.177.492-.177.492l-.237-.076s-1.72-.612-4.361-1.385c0 0-2.337-.696-3.285-1.01 0 0-.203-.077-.601-.043-.398.042-1.778.144-2.693.238l-1.389.161c-2.506.289-3.657.34-3.657.34-3.98.382-4.937.459-4.937.459-2.1.153-3.437.407-6.587.611L6.4 25.83l-.423.042-.16.017c-.128-.085-.145-.187-.145-.187l.009-.22c.254-.094-.034-.357-.034-.357-.127-.051-.085-.153-.085-.153 0-.017.009-.026.017-.043.017-.025.042-.059.034-.067-.025-.068.102-.323.102-.323-.068-.085-.043-.068-.11-.153-.043-.051-.06-.213-.077-.331-.008-.077.136-.238.093-.28l-.177-.205a.385.385 0 01-.051-.119c-.009-.025.008-.067.017-.085.042-.059.042-.059-.009-.16a.709.709 0 00-.067-.103c-.043-.076.101-.246.093-.357a.989.989 0 00-.034-.152c-.009-.035-.026-.077-.034-.128 0-.008-.009-.017-.009-.034-.008-.025-.008-.05-.008-.076a.24.24 0 010-.11l-.05-.162c-.01-.043-.01-.077.008-.102.008-.009.008-.017.017-.017.033-.017.017-.093.033-.136-.008-.009-.008-.017-.016-.026-.026-.025-.026-.042-.026-.068.017-.042 0-.11.009-.16a.336.336 0 00-.034-.18c-.009-.025-.017-.059-.026-.084-.008-.043-.008-.068 0-.085a.748.748 0 00.051-.085c.009-.017.009-.068-.008-.11a.395.395 0 00-.043-.085.332.332 0 00-.067-.085.26.26 0 01-.068-.221c.008-.06 0-.094-.034-.128-.017-.025-.042-.05-.06-.085-.067-.127-.059-.161.01-.178.067-.008.075-.025.058-.161-.016-.128-.016-.204.051-.221.034-.009.068-.051.051-.153-.017-.102.034-.289-.025-.314-.077-.034-.085-.162-.127-.238 0 0 .008-.034.008-.026.009.009.026.026.034.026.017.008.025 0 .042 0-.008-.034-.017-.068-.034-.085-.042-.051-.05-.094-.05-.187 0-.11-.009-.255-.102-.331-.017-.009-.034-.085-.034-.128 0-.025.017-.05.034-.06.017-.008.042 0 .06-.008a.102.102 0 00.042-.042c-.017-.034-.026-.077-.043-.102-.025-.043-.059-.068-.084-.102-.051-.051-.077-.128-.043-.17.06-.06.009-.11-.025-.178-.017-.034-.042-.077-.05-.11-.01-.026-.01-.069 0-.077a.173.173 0 01.16-.102c.042 0 .05-.06.05-.077-.016-.034-.118-.008-.135-.017-.042-.034 0-.05-.034-.076-.042-.025-.101-.195-.093-.246.009-.026.034-.034.051-.043.034-.008.068.017.017-.102-.034-.076-.017-.042 0-.136.009-.042.034-.025.017-.076l.034-.026s.5-.076.576-.085c.144-.017.025-.212.025-.212-.042-.263-.008-.374-.008-.408-.017-.212-.094-.238-.178-.289-.017-.008-.043-.093-.06-.144 0-.017.026-.06.043-.06.025 0 .042-.016.076 0 .008.01.017-.042.025-.033 0-.026.017-.017.009-.026-.026-.042-.042-.008-.06-.05a.492.492 0 01-.042-.12c0-.017.026-.042.043-.042.025-.009.042-.085.008-.17-.025-.06-.025-.06-.042-.127-.026-.11-.009-.187.034-.23.05-.05.042-.102-.017-.204-.009-.008-.009-.017-.017-.025-.026-.026-.06-.051-.051-.12 0-.076.06-.135.085-.127.017 0 .025-.042.033-.05.017-.085.009-.06-.016-.11-.026-.052-.085-.052-.136-.06-.102-.009-.085-.051-.135-.12-.043-.059-.06-.084-.026-.135.009-.017.076-.026.093-.026.043.009.026-.025.026-.102 0-.017.008-.034.008-.05.043-.128.034-.128-.008-.315-.034-.136-.051-.263 0-.348.034-.06.008-.264.05-.272.026-.008.026-.085.034-.127.009-.026.009-.043.026-.043.008 0 .017-.034.025-.05.009-.035-.05-.094-.06-.128-.024-.051-.05-.102-.075-.145-.034-.068-.068-.119-.009-.144.034-.017.026-.094 0-.136-.059-.076-.067-.178-.093-.272 0-.008-.008-.025-.008-.034-.009-.06-.068-.11-.043-.17.017-.025.051-.008.077-.025.042-.034.135-.085.084-.128-.017-.008 0-.085-.008-.101-.034-.052-.043-.085-.076-.12-.06-.05-.034-.025-.077-.127l.026.017c-.017-.05.05-.06.05-.06l.644-.076s1.702-.178 3.302-.34c0 0 1.228-.119 6.384-.645 0 0 2.177-.187 4.666-.527 0 0 2.167-.263 6.646-.62 0 0 3.057-.314 5.25-.586 0 0 .804-.127 1.372.153 0 0 3.581 1.512 4.851 1.996l6.02 2.59c.153.086.051.154.051.154-.008.017-.025.017-.042.025-.025.017-.085.043-.085.043.009.068.009.144.043.195.05.094.025.068.076.162.034.059-.009.195-.043.297-.025.068-.287.161-.254.204.051.076.11.144.161.23.017.024.026.075.017.11-.008.025-.042.05-.059.059-.085.034-.085.042-.06.136.01.034.035.068.043.102.034.076-.254.17-.28.272-.016.042-.016.093-.016.136 0 .034-.009.068-.009.11v.025a.077.077 0 01-.025.06.191.191 0 01-.042.093v.145c0 .042-.017.068-.051.085-.009.008-.017.008-.026.008-.05.009-.067.068-.101.102.008.009.008.017.017.026.017.025.017.042 0 .06-.043.033-.051.092-.085.135-.042.05-.025.119-.034.178 0 .017 0 .034-.008.06 0 .034-.017.06-.043.068-.034.017-.076.034-.11.05-.025.018-.042.06-.042.094 0 .026.008.06.017.085.017.034.034.06.05.094.043.067.051.136-.008.203-.042.043-.034.077-.008.12.017.025.034.05.042.084.034.128.008.153-.093.145-.093-.009-.119 0-.152.119-.026.11-.068.178-.17.17a.146.146 0 00-.144.11c-.025.093-.008.204.06.238.093.05.042.161.067.238 0 0-.017.025-.025.017-.017-.009-.026-.026-.034-.034-.017-.009-.034-.009-.06-.017 0 .025-.008.06.01.085.033.059.033.093-.01.17-.05.093-.1.212-.008.305.017.017.009.085-.008.11-.009.026-.051.035-.077.043-.025 0-.059-.008-.084-.008-.026 0-.05.017-.076.017 0 .034 0 .068.017.093a.23.23 0 00.076.102c.05.051.05.128-.017.153-.102.034-.068.093-.042.153a.497.497 0 01.017.11c0 .017-.017.06-.034.068-.085.009-.17.102-.246.026-.008-.009-.034 0-.06-.009 0 .034 0 .077.01.094.033.042.084.068.126.102.043.034.06.187.017.229-.017.025-.06.017-.093.017-.042 0-.093-.034-.068.076.017.077-.008.153-.093.153-.068 0-.076.077-.076.128 0 .11-.042.178-.119.22-.042.026-.084.043-.008.085.068.043.102.11.085.238-.017.102-.026.221.067.29.026.016.026.093.017.135 0 .017-.059.043-.084.034-.043-.008-.077-.042-.11-.068-.009-.008-.026-.017-.034-.025-.009.017-.026.042-.017.06.008.042.034.076.042.11a.246.246 0 01.009.11c0 .017-.051.025-.077.025-.042 0-.067-.008-.059.068.009.06-.017.128-.034.187-.017.102-.068.162-.144.179-.093.025-.11.068-.067.17 0 .008.008.017.008.025.025.034.05.06.017.119-.042.068-.06.008-.093 0-.026-.009-.076 0-.076.008a.378.378 0 00-.026.162c.009.05.051.093.085.127.05.068.11.12.152.187.034.068.017.102-.059.094-.025 0-.05-.009-.076-.009-.051-.017-.093-.008-.136.051-.008.017-.025.025-.042.042-.11.094-.11.094-.127.264-.017.119-.042.23-.152.297-.077.043-.127.213-.195.213-.042 0-.076.059-.102.093-.017.025-.034.034-.05.025-.017 0-.034-.025-.051-.008-.034.025.017.136.017.161a.887.887 0 00.033.145c.026.068.034.119-.05.119-.06 0-.085.076-.06.11.043.085.017.17 0 .255 0 .008 0 .025-.008.034-.017.05.05.11-.017.153-.034.017-.076-.009-.119 0a1.65 1.65 0 00-.22.068c-.008 0-.025.06-.017.076.026.051.051.102.085.136a.37.37 0 01.11.238c.009.076 0 .136-.05.195-.068.12-.035.264-.035.264z" fill="#00FFD0"/><path d="M19.948 15.11a2.331 2.331 0 00-1.549-.56c-1.058 0-1.88.492-2.218 1.29-.348-.943-1.194-1.29-1.897-1.29-.779 0-1.423.347-1.761.942l-.178-.756h-1.058v7.271h1.295v-4.476c0-1.07.593-1.767 1.507-1.767.788 0 1.236.5 1.236 1.367V22h1.296v-4.477c0-1.07.593-1.767 1.507-1.767.788 0 1.236.501 1.236 1.368v4.867h1.296V16.8c.008-.688-.237-1.274-.712-1.69zM30.558 15.11a2.33 2.33 0 00-1.55-.56c-1.058 0-1.88.492-2.218 1.29-.347-.951-1.194-1.29-1.897-1.29-.779 0-1.422.347-1.76.942l-.179-.756h-1.058v7.271h1.296v-4.476c0-1.07.592-1.767 1.507-1.767.787 0 1.236.5 1.236 1.367V22h1.295v-4.477c0-1.07.593-1.767 1.507-1.767.788 0 1.237.501 1.237 1.368v4.867h1.295V16.8c.009-.688-.237-1.274-.711-1.69zM35.808 14.55c-1.05 0-1.948.39-2.6 1.12-.618.697-.956 1.648-.956 2.693 0 1.045.338 2.005.956 2.693.652.73 1.558 1.121 2.6 1.121 2.066 0 3.564-1.605 3.564-3.814s-1.498-3.814-3.564-3.814zm.017 6.37c-1.118 0-2.253-.875-2.253-2.548 0-1.47.949-2.54 2.253-2.54 1.287 0 2.218 1.07 2.218 2.54 0 1.665-1.118 2.548-2.218 2.548zM8.628 12.52v9.487h1.397V11.992l-1.397.527zM35.664 35.42c.203-.161.406-.323.618-.476 1.905-1.47 3.87-2.99 3.87-5.207 0-1.741-1.254-2.956-3.04-2.956-1.575 0-3.269 1.054-3.269 3.381 0 .11.009.238.017.314l1.287-.492c0-1.275.948-1.946 1.88-1.946.906 0 1.829.578 1.829 1.878 0 1.673-1.702 2.99-4.065 4.8-.338.254-.685.526-1.05.815l-.016.017v1.24h6.706v-1.35h-4.767v-.018zM3.717 31.088l-.118-.043c-1.059-.424-1.804-.798-1.804-1.75 0-.934.745-1.427 1.473-1.427.593 0 1.338.315 1.634 1.003l1.245-.484-.017-.043c-.49-1.223-1.778-1.767-2.845-1.767-1.388 0-2.887.884-2.887 2.812 0 1.886 1.44 2.472 2.6 2.948l.143.06c1.186.492 1.956.883 1.956 1.85 0 1.003-.838 1.453-1.668 1.453-.821 0-1.803-.441-2.091-1.673l-.017-.051L0 34.469C.398 36.015 1.71 37 3.37 37c.838 0 1.609-.255 2.184-.722.652-.527 1-1.274 1-2.166 0-1.894-1.508-2.497-2.837-3.024zM17.671 29.347c-2.057 0-3.547 1.597-3.547 3.797s1.49 3.797 3.547 3.797c2.058 0 3.548-1.597 3.548-3.797s-1.49-3.797-3.548-3.797zm2.244 3.797c0 1.682-1.126 2.565-2.235 2.565-1.126 0-2.261-.883-2.261-2.565 0-1.478.948-2.549 2.26-2.549 1.305 0 2.236 1.07 2.236 2.549zM26.655 33.696c0 1.333-.974 2.055-1.897 2.055-.703 0-1.448-.416-1.448-1.588v-4.63h-1.27v4.63c0 2.056 1.33 2.786 2.464 2.786.914 0 1.719-.442 2.142-1.155l.246.985h1.041v-7.246h-1.27v4.163h-.008zM31.253 27.46l-1.27.494v1.571H28.78v1.164h1.203v3.967c0 1.979 1.126 2.276 1.795 2.276.296 0 .61-.05.94-.144l.042-.009v-1.257l-.085.051a1.187 1.187 0 01-.618.204c-.508 0-.804-.374-.804-1.01v-4.07h1.498v-1.163h-1.498V27.46zM40.44 34.35h4.58v2.42h1.296v-2.42H48v-1.325h-1.685v-2.94l-1.296.51v2.43H42.1l3.556-6.09h-1.44l-3.776 6.43v.985zM12.6 34.58a2.08 2.08 0 01-1.846 1.12c-1.084 0-2.176-.79-2.176-2.565 0-1.223.652-2.531 2.09-2.531.72 0 1.356.382 1.694 1.01l1.211-.467-.025-.042c-.508-1.079-1.609-1.75-2.888-1.75-.897 0-1.727.331-2.336.943-.686.688-1.059 1.673-1.059 2.854 0 2.608 1.778 3.797 3.42 3.797 1.28 0 2.414-.697 3.04-1.877l.026-.043-.008-.008-1.144-.442z" fill="#333"/></g><defs><clipPath id="prefix__clip0_5248_45400"><path fill="#fff" transform="translate(0 8)" d="M0 0h48v29H0z"/></clipPath></defs></svg>