<svg width="48" height="48" fill="none" xmlns="http://www.w3.org/2000/svg"><g clip-path="url(#prefix__clip0_2282_40290)"><path d="M4.8 40.8c-1.32 0-2.45-.47-3.389-1.409-.939-.939-1.41-2.07-1.411-3.39V12c0-1.32.47-2.45 1.411-3.39.941-.939 2.07-1.41 3.389-1.41h38.4c1.32 0 2.45.47 3.391 1.41.941.941 1.41 2.07 1.409 3.39v24c0 1.32-.47 2.45-1.409 3.39-.939.941-2.07 1.41-3.391 1.41H4.8zm9.6-7.2h19.2v-4.8H14.4v4.8zm-7.2-7.2H12v-4.8H7.2v4.8zm7.2 0h4.8v-4.8h-4.8v4.8zm7.2 0h4.8v-4.8h-4.8v4.8zm7.2 0h4.8v-4.8h-4.8v4.8zm7.2 0h4.8v-4.8H36v4.8zM7.2 19.2H12v-4.8H7.2v4.8zm7.2 0h4.8v-4.8h-4.8v4.8zm7.2 0h4.8v-4.8h-4.8v4.8zm7.2 0h4.8v-4.8h-4.8v4.8zm7.2 0h4.8v-4.8H36v4.8z" fill="#000"/></g><defs><clipPath id="prefix__clip0_2282_40290"><path fill="#fff" d="M0 0h48v48H0z"/></clipPath></defs></svg>