<svg width="48" height="48" fill="none" xmlns="http://www.w3.org/2000/svg"><g clip-path="url(#prefix__clip0_5248_45433)" fill="#1D4B00"><path d="M5.19 27.998a2.041 2.041 0 01-1.703-.903c-.316.311-.794.903-1.655.903-.994 0-1.832-.751-1.832-1.969v-4.06C0 20.749.84 20 1.832 20c.993 0 1.832.795 1.832 1.95a1.84 1.84 0 012.442 1.741c0 .283-.053.534-.17.774.648.29 1.086.944 1.086 1.687a1.84 1.84 0 01-1.832 1.846zm-1.26-1.35c.263.462.707.735 1.26.735.674 0 1.222-.553 1.222-1.23 0-.537-.343-1.004-.835-1.169L3.93 26.65zm-2.098-6.033c-.607 0-1.22.419-1.22 1.354v4.06c0 .935.612 1.354 1.22 1.354.483 0 .75-.246 1.18-.68l.19-.191a3.082 3.082 0 01-.149-.975v-3.569c0-.935-.613-1.353-1.22-1.353zm1.832 2.01v2.912c0 .165.014.322.04.47l1.327-1.338c.386-.388.465-.672.465-.978 0-.653-.522-1.23-1.221-1.23-.218 0-.427.056-.61.164zM9.83 21.116h.768v2.687c.595-.257 1.004-.707 1.267-1.402h.787c-.218.663-.525 1.177-.934 1.55l1.247 1.665h-.908l-.934-1.254c-.166.077-.339.142-.524.193v1.06H9.83v-4.5zm3.403 3.593v-3.593h.73v3.555c0 .302.083.392.25.392a.7.7 0 00.3-.07v.623c-.134.052-.288.09-.467.09-.493 0-.813-.257-.813-.996zm1.526-.7c0-1.022.64-1.698 1.65-1.698 1.126 0 1.708.85 1.401 1.904h-2.277c.064.533.358.848.87.848.34 0 .659-.16.838-.366l.557.398c-.32.347-.78.611-1.408.611-.998 0-1.63-.675-1.63-1.697zm2.36-.315c.045-.463-.217-.765-.722-.765-.506 0-.774.27-.851.765h1.573zM18.81 21c.263 0 .467.206.467.47 0 .263-.204.469-.467.469a.463.463 0 01-.467-.47c0-.263.205-.469.467-.469zm-.37 1.402h.729v3.214h-.73v-3.214zm1.437 0h.729v.591a1.18 1.18 0 011.087-.682c1.03 0 1.03 1.023 1.03 1.505v1.8h-.73v-1.78c0-.367 0-.888-.562-.888-.486 0-.825.437-.825 1.093v1.575h-.73v-3.214zm6.462 2.661a.43.43 0 00.173-.032v.605a.792.792 0 01-.346.07c-.383 0-.601-.308-.601-.74v-.102c-.211.534-.646.842-1.241.842-.678 0-1.1-.398-1.1-.958 0-.649.563-1.041 1.464-1.041.25 0 .506.032.73.084 0-.476-.218-.843-.704-.843-.345 0-.601.167-.64.514h-.735c.025-.7.582-1.15 1.388-1.15.998 0 1.42.61 1.42 1.479v1.06c0 .155.083.212.192.212zm-1.868.058c.467 0 .851-.302.973-.771a2.291 2.291 0 00-.698-.11c-.524 0-.78.193-.78.489 0 .257.192.392.505.392zm2.485-2.72h.73v.592a1.18 1.18 0 011.087-.682c1.03 0 1.03 1.023 1.03 1.505v1.8h-.73v-1.78c0-.367 0-.888-.562-.888-.486 0-.825.437-.825 1.093v1.575h-.73v-3.214zm3.308 2.63l1.682-2.019h-1.567v-.61h2.514v.469l-1.79 2.16h1.854v.585h-2.693v-.585zm2.955-1.022c0-1.022.64-1.697 1.65-1.697 1.126 0 1.709.848 1.401 1.903h-2.277c.064.533.358.848.87.848.34 0 .659-.16.838-.366l.557.399c-.32.347-.78.61-1.408.61-.997 0-1.63-.675-1.63-1.697zm2.36-.315c.045-.463-.217-.765-.722-.765-.506 0-.774.27-.851.765h1.573zM37.268 21c.263 0 .467.206.467.47 0 .263-.204.47-.467.47a.463.463 0 01-.467-.47c0-.264.205-.47.467-.47zm-.37 1.402h.729v3.214h-.73v-3.214zm1.195 3.478h.761c.058.27.346.47.813.47.428 0 .697-.174.697-.444 0-.598-1.708-.244-1.708-.9 0-.219.192-.328.46-.412-.607-.096-.998-.501-.998-1.086 0-.707.582-1.19 1.452-1.19.448 0 .813.129 1.069.341.063-.18.044-.45 0-.656h.594c.064.373-.057.785-.32 1.01.071.141.11.308.11.482 0 1.266-1.562 1.093-1.562 1.337 0 .309 1.664-.02 1.664 1.08 0 .643-.602 1.08-1.452 1.08-.915 0-1.459-.514-1.58-1.112zm1.478-1.794c.416 0 .69-.225.69-.566 0-.34-.268-.565-.69-.565-.422 0-.691.225-.691.566 0 .34.275.565.69.565zm1.914-.077c0-1.022.64-1.697 1.65-1.697 1.126 0 1.708.848 1.4 1.903H42.26c.064.533.358.848.87.848.339 0 .658-.16.838-.366l.556.399c-.32.347-.78.61-1.407.61-.998 0-1.631-.675-1.631-1.697zm2.36-.315c.045-.463-.217-.765-.723-.765-.505 0-.774.27-.85.765h1.573zm1.308-1.292h.73v.591a1.18 1.18 0 011.087-.682c1.03 0 1.03 1.023 1.03 1.505v1.8h-.73v-1.78c0-.367 0-.888-.562-.888-.486 0-.825.437-.825 1.093v1.575h-.73v-3.214z"/></g><defs><clipPath id="prefix__clip0_5248_45433"><path fill="#fff" transform="translate(0 20)" d="M0 0h48v8H0z"/></clipPath></defs></svg>