<svg width="50" height="50" viewBox="0 0 50 50" fill="none" xmlns="http://www.w3.org/2000/svg">
<path d="M26.5625 5.72949V9.37533H30.6771C31.4083 9.37533 32.1229 9.59616 32.7271 10.0066L36.2625 12.4107C36.35 12.4691 36.4472 12.4989 36.5542 12.5003H45.1C45.5144 12.5003 45.9118 12.6649 46.2048 12.958C46.4979 13.251 46.6625 13.6484 46.6625 14.0628C46.6625 14.4772 46.4979 14.8747 46.2048 15.1677C45.9118 15.4607 45.5144 15.6253 45.1 15.6253H41.8125L48.825 31.6253C48.9653 31.9453 48.9943 32.303 48.9075 32.6413C48.8206 32.9797 48.6229 33.2792 48.3458 33.492C48.1375 33.6462 47.9222 33.7892 47.7 33.9212C47.1726 34.2384 46.6225 34.5162 46.0542 34.7524C44.1697 35.5404 42.1467 35.9435 40.1042 35.9378C38.0622 35.9467 36.0393 35.5442 34.1562 34.7545C33.5879 34.5176 33.0377 34.2391 32.5104 33.9212C32.2888 33.7941 32.0752 33.6535 31.8708 33.5003L31.8604 33.492C31.5834 33.2792 31.3856 32.9797 31.2988 32.6413C31.2119 32.303 31.2409 31.9453 31.3812 31.6253L38.3979 15.6253H36.5521C35.8208 15.6253 35.1062 15.4045 34.5021 14.9941L30.9667 12.5899C30.8806 12.5316 30.779 12.5004 30.675 12.5003H26.5625V42.7087H35.9104C36.3248 42.7087 36.7222 42.8733 37.0153 43.1663C37.3083 43.4593 37.4729 43.8568 37.4729 44.2712C37.4729 44.6856 37.3083 45.083 37.0153 45.376C36.7222 45.669 36.3248 45.8337 35.9104 45.8337H14.0896C13.6752 45.8337 13.2777 45.669 12.9847 45.376C12.6917 45.083 12.5271 44.6856 12.5271 44.2712C12.5271 43.8568 12.6917 43.4593 12.9847 43.1663C13.2777 42.8733 13.6752 42.7087 14.0896 42.7087H23.4375V12.5003H19.3229C19.2189 12.5004 19.1173 12.5316 19.0312 12.5899L15.4979 14.9941C14.8937 15.4045 14.1792 15.6253 13.4479 15.6253H11.6021L18.6187 31.6253C18.7546 31.9362 18.7855 32.2827 18.707 32.6127C18.6284 32.9427 18.4446 33.2382 18.1833 33.4545C18.0167 33.5899 17.85 33.717 17.5375 33.9191C17.0109 34.2608 16.4594 34.5623 15.8875 34.8212C14.0064 35.6775 11.9627 36.118 9.89582 36.1128C7.82897 36.118 5.78529 35.6775 3.90416 34.8212C3.33229 34.5623 2.78073 34.2608 2.25416 33.9191C2.0324 33.7759 1.81758 33.6222 1.61041 33.4587C1.35065 33.2403 1.16791 32.9443 1.08914 32.6142C1.01038 32.2841 1.03974 31.9375 1.17291 31.6253L8.18749 15.6253H4.90207C4.48767 15.6253 4.09024 15.4607 3.79722 15.1677C3.50419 14.8747 3.33957 14.4772 3.33957 14.0628C3.33957 13.6484 3.50419 13.251 3.79722 12.958C4.09024 12.6649 4.48767 12.5003 4.90207 12.5003H13.4479C13.5535 12.5003 13.6514 12.4705 13.7417 12.4107L17.2729 10.0066C17.8771 9.59408 18.5937 9.37533 19.325 9.37533H23.4375V5.72949C23.4375 5.31509 23.6021 4.91766 23.8951 4.62464C24.1882 4.33161 24.5856 4.16699 25 4.16699C25.4144 4.16699 25.8118 4.33161 26.1048 4.62464C26.3979 4.91766 26.5625 5.31509 26.5625 5.72949ZM4.56874 31.6628C6.20797 32.5369 8.03814 32.9914 9.89582 32.9857C11.7535 32.9914 13.5837 32.5369 15.2229 31.6628L9.89582 19.517L4.56874 31.6628ZM34.7979 31.6128C34.9687 31.6962 35.1597 31.7837 35.3708 31.8753C36.475 32.3399 38.0896 32.8128 40.1042 32.8128C41.9407 32.8177 43.7547 32.4075 45.4104 31.6128L40.1042 19.5149L34.7979 31.6128Z" fill="black"/>
</svg>
