<svg width="48" height="48" fill="none" xmlns="http://www.w3.org/2000/svg"><path d="M47.953 39.266c-.601-3.858-7.744-.89-8.188-5.116-.626-6 8.296-18.923 7.594-23.946-.625-4.508-3.68-5.46-6.328-5.516-2.573-.037-3.25.368-4.118.876-.508.288-1.225.866-2.226-.085-.664-.635-1.117-1.07-1.812-1.634-.36-.288-.93-.648-1.891-.787-.944-.149-2.195 0-2.976.328-.798.344-1.406.938-2.054 1.5-.65.563-2.298 2.399-3.822 1.718-.672-.288-2.922-1.415-4.546-2.108-3.126-1.351-7.64.836-9.275 3.734C5.89 12.526 1.117 29.432.381 31.66c-1.616 5 2.071 9.078 7.024 8.842 2.102-.1 3.5-.858 4.82-3.271.766-1.392 7.962-20.172 8.5-21.086.392-.648 1.688-1.507 2.783-.954 1.102.57 1.32 1.742 1.156 2.844-.274 1.79-5.335 13.259-5.54 14.549-.328 2.21.72 3.427 3.017 3.553 1.565.078 3.134-.475 4.368-2.82.696-1.306 8.696-17.335 9.398-18.406.781-1.172 1.405-1.565 2.212-1.517.617.03 1.592.188 1.35 2.03-.241 1.813-6.678 13.564-7.35 16.438-.907 3.86 1.202 7.75 4.686 9.462 2.22 1.092 11.939 2.952 11.15-2.056l-.002-.002z" fill="#000"/></svg>