<svg width="48" height="48" fill="none" xmlns="http://www.w3.org/2000/svg"><g clip-path="url(#prefix__clip0_1417_15135)"><path d="M34.91 2h8.726v8.789H34.91v-8.79z" fill="#000"/><path d="M39.273 2H48v8.789h-8.727v-8.79z" fill="#F7D046"/><path d="M0 2h8.728v8.789H0v-8.79zm0 8.789h8.728v8.79H0v-8.79zm0 8.79h8.728v8.79H0v-8.79zm0 8.79h8.728v8.789H0v-8.79zm0 8.79h8.728v8.789H0v-8.79z" fill="#000"/><path d="M4.364 2h8.727v8.789H4.364v-8.79z" fill="#F7D046"/><path d="M39.273 10.79H48v8.789h-8.727v-8.79zm-34.91 0h8.728v8.789H4.364v-8.79z" fill="#F2A73B"/><path d="M26.182 10.79h8.727v8.789h-8.727v-8.79z" fill="#000"/><path d="M30.546 10.79h8.727v8.789h-8.727v-8.79zm-17.455 0h8.728v8.789H13.09v-8.79z" fill="#F2A73B"/><path d="M21.819 19.579h8.727v8.79h-8.727v-8.79zm8.727 0h8.727v8.79h-8.727v-8.79zm-17.455 0h8.728v8.79H13.09v-8.79z" fill="#EE792F"/><path d="M17.455 28.368h8.727v8.79h-8.727v-8.79z" fill="#000"/><path d="M21.818 28.368h8.727v8.79h-8.727v-8.79z" fill="#EB5829"/><path d="M39.273 19.579H48v8.79h-8.727v-8.79zm-34.91 0h8.728v8.79H4.364v-8.79z" fill="#EE792F"/><path d="M34.91 28.368h8.726v8.79H34.91v-8.79z" fill="#000"/><path d="M39.273 28.368H48v8.79h-8.727v-8.79z" fill="#EB5829"/><path d="M34.91 37.158h8.726v8.79H34.91v-8.79z" fill="#000"/><path d="M4.364 28.368h8.727v8.79H4.364v-8.79z" fill="#EB5829"/><path d="M39.273 37.158H48v8.79h-8.727v-8.79zm-34.91 0h8.728v8.79H4.364v-8.79z" fill="#EA3326"/></g><defs><clipPath id="prefix__clip0_1417_15135"><path fill="#fff" transform="translate(0 2)" d="M0 0h48v44H0z"/></clipPath></defs></svg>