<svg width="48" height="48" fill="none" xmlns="http://www.w3.org/2000/svg"><g clip-path="url(#prefix__clip0_4649_41234)"><path fill-rule="evenodd" clip-rule="evenodd" d="M2.104 33.832l19.078 5.104a42.046 42.046 0 00.12 4.066l11.912 3.186a23.993 23.993 0 01-11.172 1.73l-.36-.032-.088-.008-.168-.018-.188-.02-.314-.04-.214-.028-.22-.032a23.918 23.918 0 01-.64-.102l-.084-.016-.15-.026-.214-.04-.14-.03-.186-.038-.15-.032-.19-.04-.194-.046-.188-.044-.136-.034-.176-.044-.18-.048-.19-.05-.164-.046-.218-.06-.124-.04-.168-.05-.186-.056-.21-.068-.116-.038-.16-.052-.18-.062-.132-.048a7.61 7.61 0 01-.088-.03l-.136-.05-.202-.074-.114-.044-.16-.06-.174-.07-.176-.07-.158-.064-.19-.08-.126-.056-.126-.054a7.3 7.3 0 01-.082-.036l-.132-.06-.206-.094-.104-.048-.192-.092-.124-.06-.168-.08-.172-.088-.186-.094-.104-.054-.206-.11-.114-.06-.116-.064-.092-.052-.188-.106-.12-.068-.102-.06-.144-.082-.164-.1-.186-.112-.104-.064-.168-.106-.122-.078-.158-.1-.14-.094-.106-.07a12.656 12.656 0 01-.108-.072l-.088-.06-.088-.06a10.487 10.487 0 01-.08-.056l-.114-.08-.152-.108-.138-.1-.148-.108-.112-.084-.152-.114-.152-.118-.172-.134-.09-.07-.128-.104-.148-.12-.178-.146-.092-.078-.092-.078-.086-.074-.09-.08-.122-.106-.14-.124-.136-.12-.124-.116-.134-.124-.106-.1-.176-.168a24.456 24.456 0 01-.198-.194l-.058-.056-.082-.084-.138-.14-.1-.102-.1-.106a12.712 12.712 0 01-.336-.358l-.16-.176-.124-.14-.142-.16-.084-.098-.106-.124-.116-.136-.092-.112a10.315 10.315 0 01-.054-.066l-.09-.11-.132-.164-.082-.104-.1-.128-.04-.05a23.977 23.977 0 01-2.88-4.804zM.064 22.244l22.706 6.074a40.96 40.96 0 00-.938 4.022l21.634 5.788a24.143 24.143 0 01-3.69 4.01L1.314 31.846l-.032-.092-.07-.208a23.207 23.207 0 01-.1-.306l-.014-.046c-.154-.49-.292-.984-.414-1.482l-.06-.252-.036-.16-.042-.194-.036-.162-.036-.18-.034-.168-.036-.188c-.052-.282-.1-.566-.142-.852l-.034-.236-.022-.166-.026-.204a23.771 23.771 0 01-.038-.322l-.01-.094a24.24 24.24 0 01-.068-4.29zm3.186-10.3l23.896 6.392a40.912 40.912 0 00-2.02 3.75l22.59 6.044a23.71 23.71 0 01-1.336 4.73l-23.1-6.18L.248 20.52l.03-.2.016-.098.02-.134.03-.174.036-.196c.052-.296.112-.59.176-.884l.056-.248.04-.17.048-.194c.044-.18.09-.36.14-.536l.056-.204.046-.166.06-.2.05-.164.06-.192.052-.164.062-.19a23.796 23.796 0 012.02-4.464l.004.002zm8.884-8.8l22.57 6.036a41.562 41.562 0 00-3.376 3.442l15.646 4.186A23.968 23.968 0 0148 22.138L4.212 10.426l.09-.13.054-.08.08-.11.092-.13.11-.152.108-.144.128-.172.1-.13.114-.146.11-.14.12-.148.11-.138.13-.154.108-.132.132-.154.106-.12.144-.164.106-.12.134-.148.108-.116.146-.156.116-.12.126-.134.336-.34.2-.196.118-.112.152-.142a24.169 24.169 0 014.544-3.354zM24.034 0h.194l.164.002.138.002.108.004.136.004.092.002.152.006.094.004.12.006.108.004.174.01.21.014.288.022.176.014.088.008.154.016.164.016.094.01.204.024.1.012.216.028.162.02.084.012.13.02.414.064.14.024.13.022.28.052.184.036.22.044.092.02.15.032.082.02L29.4.6l.084.02.13.03.098.024.142.034.192.048.224.06.226.06.226.064.1.03.14.04.156.048.146.046.1.032.1.032.152.05.198.066.204.072.096.034.128.046.186.068.22.082.232.09.2.08.094.04.12.048.082.036.126.052.08.036.114.05.22.096.2.092.148.07.15.072.12.056.184.092.182.09.204.104.106.056.098.052.092.048.12.066.082.044.104.058.176.1.212.12.174.102.114.068.106.064.192.118.176.11.196.124.072.048.128.082.168.112.08.054.124.084.124.086.046.034c.108.074.216.15.322.228l.166.12.13.096.112.086.172.13.164.128.08.06.1.082.172.138.158.13.17.142a24.168 24.168 0 013.818 4.062L14.444 1.988l.124-.054.13-.056.162-.068.172-.07c.226-.09.454-.18.682-.262l.192-.07.186-.066.168-.06.192-.062c.174-.06.352-.116.528-.17l.182-.054.172-.05.204-.06.17-.046.2-.052.172-.048.18-.046.182-.044.19-.044.18-.04.196-.042.182-.04.19-.036.184-.036.2-.036.182-.032.196-.034.184-.028.194-.03.184-.026.204-.026.182-.024.21-.024.18-.02.21-.02c.186-.02.372-.036.56-.048l.212-.016.18-.01.22-.012.186-.008.2-.008.194-.004.198-.004.394-.004V0z" fill="#000"/></g><defs><clipPath id="prefix__clip0_4649_41234"><path fill="#fff" d="M0 0h48v48H0z"/></clipPath></defs></svg>