<svg role="img" viewBox="0 0 64 64" xmlns="http://www.w3.org/2000/svg"><title>Open-Meteo</title><rect width="64" height="64" rx="14" fill="#f7fbff"/><circle cx="43" cy="22" r="10" fill="#f6c453"/><path fill="#5aa7e8" d="M25 45h21.5c5.2 0 9.5-3.9 9.5-8.8 0-4.8-4.1-8.5-9.4-8.8C44.5 21.7 39.2 18 33 18c-7.8 0-14.2 5.6-15.2 12.9C12.3 31.6 8 35.5 8 40.4 8 45.8 12.7 50 18.6 50H25v-5z" opacity=".92"/><path fill="#2d7fc3" d="M21 45h28c3.9 0 7-2.7 7-6.2s-3.1-6.2-7-6.2c-.8 0-1.6.1-2.3.4-2.1-5.6-7.2-9.4-13.3-9.4-7 0-12.9 5-14.1 11.5a7.3 7.3 0 0 0-1.9-.3c-4.1 0-7.4 3.1-7.4 6.9S13.3 49 17.4 49H21v-4z"/></svg>
