<svg width="48" height="48" fill="none" xmlns="http://www.w3.org/2000/svg"><path d="M19.483 16.226a2.256 2.256 0 011.408-.081c.465.124.849.391 1.068.743L24 20.177l2.043-3.289c.102-.183.249-.347.432-.484.183-.136.398-.24.633-.308a2.26 2.26 0 011.447.07c.222.09.42.216.581.369.161.153.282.33.356.522.073.192.098.394.072.593a1.29 1.29 0 01-.223.568l-2.355 3.796h2.552c.49 0 .96.157 1.306.436.346.279.54.657.54 1.051 0 .394-.194.772-.54 1.051a2.094 2.094 0 01-1.306.436h-2.552l2.358 3.796a1.217 1.217 0 01.108 1.14 1.442 1.442 0 01-.357.506c-.16.149-.354.27-.572.358a2.264 2.264 0 01-1.416.078 1.992 1.992 0 01-.627-.291 1.573 1.573 0 01-.44-.463L24 26.825l-2.043 3.287c-.1.184-.247.35-.43.488a1.966 1.966 0 01-.633.312 2.26 2.26 0 01-1.453-.069 1.843 1.843 0 01-.584-.37 1.43 1.43 0 01-.355-.525 1.212 1.212 0 01-.07-.595c.027-.2.104-.394.227-.57l2.355-3.795h-2.552c-.49 0-.96-.157-1.306-.436-.346-.279-.54-.657-.54-1.051 0-.394.194-.772.54-1.051a2.094 2.094 0 011.306-.436h2.552l-2.358-3.796a1.226 1.226 0 01-.1-1.135c.156-.373.489-.68.927-.857zm-16.615-.002a2.257 2.257 0 011.409-.08c.464.124.848.392 1.067.744l2.04 3.287 2.044-3.287c.232-.332.615-.58 1.068-.691a2.256 2.256 0 011.366.091c.424.171.75.466.91.825.162.36.145.754-.046 1.103l-2.353 3.796h2.55c.49 0 .96.157 1.306.436.346.279.54.657.54 1.051 0 .394-.194.772-.54 1.051a2.094 2.094 0 01-1.306.436h-2.55l2.356 3.796c.214.352.246.758.09 1.13-.156.371-.488.678-.924.853-.436.176-.94.205-1.402.082-.463-.123-.847-.388-1.068-.737l-2.04-3.287-2.043 3.287c-.233.332-.615.58-1.069.691a2.256 2.256 0 01-1.365-.091c-.424-.171-.75-.466-.911-.825a1.221 1.221 0 01.046-1.103l2.353-3.796h-2.55c-.49 0-.96-.157-1.305-.436C.195 24.271 0 23.893 0 23.5c0-.394.195-.772.54-1.051a2.094 2.094 0 011.306-.436h2.55l-2.353-3.794a1.226 1.226 0 01-.1-1.135c.156-.373.487-.683.925-.859zm33.233 0a2.257 2.257 0 011.409-.08c.464.124.848.392 1.067.744l2.04 3.287 2.044-3.287c.1-.184.247-.35.43-.488.182-.137.398-.243.633-.312a2.26 2.26 0 011.453.069c.223.09.422.216.584.37.161.153.282.332.355.525.074.192.097.395.07.595-.027.2-.104.394-.227.57l-2.355 3.795h2.55c.49 0 .96.157 1.305.436.346.279.541.657.541 1.051 0 .394-.194.772-.54 1.051a2.094 2.094 0 01-1.306.436H43.6l2.358 3.796c.215.352.247.758.091 1.13-.156.371-.488.678-.924.853-.436.176-.94.205-1.403.082-.462-.123-.846-.388-1.067-.737l-2.04-3.287-2.044 3.287c-.232.332-.615.58-1.068.691a2.256 2.256 0 01-1.366-.091c-.423-.171-.75-.466-.91-.825a1.221 1.221 0 01.046-1.103l2.355-3.796h-2.552c-.49 0-.96-.157-1.305-.436-.347-.279-.541-.657-.541-1.051 0-.394.194-.772.54-1.051a2.094 2.094 0 011.306-.436h2.553l-2.359-3.796a1.226 1.226 0 01-.099-1.135c.155-.373.488-.683.927-.859" fill="#000"/></svg>