<svg width="48" height="48" fill="none" xmlns="http://www.w3.org/2000/svg"><path d="M19.5 38a1 1 0 011-1h7a1 1 0 010 2h-7a1 1 0 01-1-1z" fill="#000"/><path d="M20.34 4.5h7.32c1.07 0 1.96 0 2.69.06.76.06 1.472.196 2.146.54A5.5 5.5 0 0134.9 7.504c.344.674.48 1.386.54 2.146.06.73.06 1.62.06 2.69v23.32c0 1.07 0 1.96-.06 2.69-.06.76-.196 1.472-.54 2.146a5.5 5.5 0 01-2.402 2.404c-.676.344-1.388.48-2.148.54-.73.06-1.62.06-2.688.06H20.34c-1.07 0-1.96 0-2.69-.06-.76-.06-1.472-.196-2.146-.54a5.5 5.5 0 01-2.404-2.4c-.344-.676-.48-1.388-.54-2.148-.06-.73-.06-1.62-.06-2.69V12.34c0-1.07 0-1.96.06-2.69.06-.76.196-1.472.54-2.146A5.5 5.5 0 0115.504 5.1c.674-.344 1.386-.48 2.146-.54.73-.06 1.62-.06 2.69-.06zm-2.446 3.05c-.574.046-.848.13-1.028.222a2.5 2.5 0 00-1.094 1.094c-.092.18-.176.454-.222 1.028-.048.592-.05 1.36-.05 2.506v23.2c0 1.144 0 1.914.05 2.504.046.576.13.85.222 1.03.24.472.622.854 1.094 1.094.18.092.454.176 1.028.222.592.048 1.36.05 2.506.05h7.2c1.144 0 1.914 0 2.504-.05.576-.046.85-.13 1.032-.222a2.5 2.5 0 001.092-1.094c.092-.18.176-.454.222-1.03.048-.59.05-1.36.05-2.504V12.4c0-1.144 0-1.914-.05-2.506-.046-.574-.13-.848-.222-1.028a2.5 2.5 0 00-1.092-1.094c-.182-.092-.456-.176-1.03-.222-.424-.03-.849-.046-1.274-.046l-.248.746c-.21.628-.316.944-.51 1.176a1.6 1.6 0 01-.64.462c-.284.112-.616.112-1.28.112h-4.308c-.664 0-.996 0-1.28-.112a1.6 1.6 0 01-.64-.46c-.194-.234-.3-.55-.51-1.18l-.248-.744c-.425 0-.85.016-1.274.046z" fill="#000"/><path d="M34.571 39.273H12.43V8.727H34.57m0-8.727H12.43C9.97 0 8 1.942 8 4.364v39.272c0 1.158.467 2.268 1.297 3.086A4.462 4.462 0 0012.43 48H34.57c1.175 0 2.301-.46 3.132-1.278A4.331 4.331 0 0039 43.636V4.364a4.332 4.332 0 00-1.297-3.086A4.462 4.462 0 0034.57 0z" fill="#000"/><path d="M34 38H14V10h20m0-8H14c-2.22 0-4 1.78-4 4v36a4 4 0 004 4h20a4 4 0 004-4V6a4 4 0 00-4-4z" fill="#000"/></svg>