<svg width="48" height="48" fill="none" xmlns="http://www.w3.org/2000/svg"><path fill-rule="evenodd" clip-rule="evenodd" d="M13 45.449c0-3.34 7.3-1.572 7.3-10.596 0-4.91-5.625-5.254-5.625-9.592C14.675 18.611 20.9 0 24.545 0c3.644 0 9.984 18.594 9.984 24.716 0 4.544-5.821 4.31-5.821 9.335 0 9.504 6.945 8.97 6.945 11.556 0 3.257-22.653 3.175-22.653-.158zM23.454 7.906c-1.523-.546-6.155 13.94-4.938 15.571.917 1.228 2.995 1.157 3.961-5.63.655-4.589 2.013-9.576.977-9.941zm-1.2 35.076c-1.927-.392-3.673-.049-3.749 1.244-.109 1.703 6.99 1.768 6.951.388-.038-.922-1.435-1.266-3.203-1.632z" fill="#000"/></svg>