<svg width="48" height="48" fill="none" xmlns="http://www.w3.org/2000/svg"><path d="M15 3a6 6 0 016 6v17.997c0 9.389-4.95 15.577-14.271 17.908a3.001 3.001 0 01-3.717-3.35 3 3 0 012.259-2.47C11.952 37.416 15 33.606 15 26.998v-3H6a6 6 0 01-5.985-5.549L0 17.998V9A5.999 5.999 0 016 3h9zm27 0a6 6 0 016 6v17.997c0 9.389-4.95 15.577-14.271 17.908a3.001 3.001 0 01-3.716-3.35 2.998 2.998 0 012.258-2.47C38.952 37.416 42 33.606 42 26.998v-3h-9a6 6 0 01-5.985-5.549l-.015-.45V9A5.999 5.999 0 0133 3h9z" fill="#000"/></svg>