<svg width="48" height="48" fill="none" xmlns="http://www.w3.org/2000/svg"><g clip-path="url(#prefix__clip0_1387_16652)" fill="#000"><path d="M.002 12h47.96a.214.214 0 01.036.103c.034.386.004.796.004 1.185V27.732c0 .242.041.677-.01.897a.744.744 0 01-.017.06c.054.139.054.852-.002.983.055.136.053 5.184.013 5.282a.267.267 0 01-.025.045H.002V12zm14.86 0v.027c4.682.198 6.648 2.258 9.792 5.353l1.95 1.935c.342.337.73.668 1.043 1.03a.206.206 0 01.04.074.184.184 0 01-.053.09c-.948.999-1.948 1.96-2.92 2.935-.207.207-.903.975-1.104 1.09a.407.407 0 01-.028.015c-.016-.054-.05-.084-.088-.123-.99-1.032-2.014-2.035-3.012-3.06-.628-.643-1.23-1.345-1.898-1.945a6.957 6.957 0 00-1.347-.958 6.353 6.353 0 00-1.338-.537 6.597 6.597 0 00-.849-.174c-.711-.1-1.426-.072-2.142-.062-.634.01-1.268.013-1.903.011l-3.153-.008c-.71-.006-1.426-.032-2.135-.002l.001 2.893c.831.067 1.671.04 2.504.041 1.267.01 2.533.012 3.799.007.966-.002 1.992-.107 2.935.129a4.223 4.223 0 011.513.741c.353.269.657.593.967.91.322.328.646.655.973.98l3.544 3.528.822.827c.574.582 1.106 1.108 1.911 1.352.716.217 1.496.156 2.235.152l1.974-.009H39.124c.41 0 .837-.025 1.245.003-.035-.126-2.182-2.247-2.443-2.51l-6.09-6.157c-.291-.294-1.7-1.781-1.885-1.884a.419.419 0 00-.028-.014c.234-.138.825-.791 1.06-1.025l2.414-2.408c.109-.109.697-.65.728-.754.22.12 1.201 1.237 1.444 1.496.516.553 1.04 1.1 1.57 1.638l6.946 6.938c1.117 1.112 2.259 2.208 3.35 3.345.184.193.467.499.536.761l.004.018a.744.744 0 00.017-.06c.051-.22.01-.655.01-.896V13.288c0-.389.03-.8-.004-1.185A.214.214 0 0047.96 12h-33.1zM.001 26.318v8.68h47.96a.267.267 0 00.024-.045c.04-.098.042-5.146-.012-5.282-.058.373-.796 1.058-1.08 1.343l-2.065 2.06c-.39.392-.778.834-1.208 1.181a2.969 2.969 0 01-.622.385 3.165 3.165 0 01-1.107.27c-.67.048-1.36.006-2.032.005-1.27.005-2.54.002-3.809-.009l-8.6.009H24.93c-.802 0-1.672.075-2.452-.136a3.745 3.745 0 01-1.031-.453 3.918 3.918 0 01-.309-.216c-.37-.284-.69-.635-1.019-.965l-1.19-1.179a516.795 516.795 0 01-4.58-4.571c-.487-.487-1.053-.854-1.733-.998-.62-.13-1.277-.086-1.907-.084l-2.172.003-8.534.002zm0-14.32v.058c.724-.045 1.45-.032 2.174-.032h3.097l9.588.002V12H.002z"/><path d="M.002 12h14.86v.027l-9.59-.002H2.177c-.725 0-1.45-.013-2.174.032V12z"/></g><defs><clipPath id="prefix__clip0_1387_16652"><path fill="#fff" transform="translate(0 12)" d="M0 0h48v23H0z"/></clipPath></defs></svg>