<svg width="48" height="48" fill="none" xmlns="http://www.w3.org/2000/svg"><path d="M27.429 3a20.608 20.608 0 00-14.547 6.004A20.464 20.464 0 006.857 23.5H0l8.891 8.86.16.32 9.235-9.18h-6.857c0-8.815 7.154-15.944 16-15.944 8.845 0 16 7.129 16 15.944 0 8.815-7.155 15.944-16 15.944-4.412 0-8.412-1.799-11.292-4.692l-3.246 3.235a20.46 20.46 0 006.665 4.455A20.52 20.52 0 0027.43 44c5.456 0 10.688-2.16 14.546-6.004A20.464 20.464 0 0048 23.5a20.464 20.464 0 00-6.025-14.496A20.608 20.608 0 0027.429 3zm-2.286 11.389v11.389l9.783 5.785 1.645-2.756-8-4.738v-9.68h-3.428z" fill="#000"/></svg>