<svg width="48" height="48" viewBox="0 0 48 48" fill="none" xmlns="http://www.w3.org/2000/svg">
<path d="M22.3209 0.702695C22.7663 0.252759 23.3702 0 24 0C24.6298 0 25.2337 0.252759 25.6791 0.702695L32.8041 7.90277C33.2367 8.35542 33.4761 8.96167 33.4707 9.59095C33.4653 10.2202 33.2155 10.8222 32.7752 11.2672C32.3349 11.7122 31.7392 11.9646 31.1165 11.97C30.4937 11.9755 29.8938 11.7336 29.4459 11.2964L26.375 8.19317V31.1998C26.375 31.8363 26.1248 32.4468 25.6794 32.8969C25.234 33.347 24.6299 33.5998 24 33.5998C23.3701 33.5998 22.766 33.347 22.3206 32.8969C21.8752 32.4468 21.625 31.8363 21.625 31.1998V8.19317L18.5541 11.2964C18.1062 11.7336 17.5063 11.9755 16.8835 11.97C16.2608 11.9646 15.6652 11.7122 15.2248 11.2672C14.7845 10.8222 14.5347 10.2202 14.5293 9.59095C14.5239 8.96167 14.7633 8.35542 15.1959 7.90277L22.3209 0.702695ZM5 21.5997C5 20.3267 5.50044 19.1058 6.39124 18.2056C7.28204 17.3054 8.49022 16.7997 9.75 16.7997H14.5C15.1299 16.7997 15.734 17.0525 16.1794 17.5026C16.6248 17.9527 16.875 18.5632 16.875 19.1997C16.875 19.8362 16.6248 20.4467 16.1794 20.8968C15.734 21.3469 15.1299 21.5997 14.5 21.5997H9.75V43.1999H38.25V21.5997H33.5C32.8701 21.5997 32.266 21.3469 31.8206 20.8968C31.3752 20.4467 31.125 19.8362 31.125 19.1997C31.125 18.5632 31.3752 17.9527 31.8206 17.5026C32.266 17.0525 32.8701 16.7997 33.5 16.7997H38.25C39.5098 16.7997 40.718 17.3054 41.6088 18.2056C42.4996 19.1058 43 20.3267 43 21.5997V43.1999C43 44.473 42.4996 45.6939 41.6088 46.5941C40.718 47.4943 39.5098 48 38.25 48H9.75C8.49022 48 7.28204 47.4943 6.39124 46.5941C5.50044 45.6939 5 44.473 5 43.1999V21.5997Z" fill="black"/>
</svg>
