<svg width="48" height="48" viewBox="0 0 48 48" fill="none" xmlns="http://www.w3.org/2000/svg" aria-label="Texas Instruments logo"><rect width="48" height="48" rx="10" fill="#BE372F"/><path d="M12.3 11.2h10.1v5.2h-2.5v18.8h-5.1V16.4h-2.5v-5.2Zm14.2 0a3.1 3.1 0 1 1 0 6.2 3.1 3.1 0 0 1 0-6.2Zm-2.6 8.3H29v15.7h-5.1V19.5Zm9.7 4.1c1.3.3 2.1 1.6 1.8 2.9-.6 2.5-1.9 4.6-3.8 6.1-1.9 1.6-4.4 2.4-7.2 2.4-2.6 0-4.9-.7-6.8-2a9.6 9.6 0 0 1-3.7-5.5 2.4 2.4 0 1 1 4.6-1.3c.4 1.4 1.1 2.4 2.1 3.1 1 .7 2.3 1 3.8 1 1.7 0 3-.4 4-1.2 1-.8 1.7-2 2-3.7.3-1.3 1.6-2.1 3.2-1.8Z" fill="#fff"/></svg>
