<svg width="48" height="48" fill="none" xmlns="http://www.w3.org/2000/svg"><g clip-path="url(#prefix__clip0_2195_20518)"><path fill-rule="evenodd" clip-rule="evenodd" d="M.002 6.001H47.86v35.893H.002V6.001z" fill="#F7FCFF"/><path fill-rule="evenodd" clip-rule="evenodd" d="M.002 27.936v2.991H47.86v-2.99H.002zm0 5.483v2.991H47.86v-2.99H.002zm0-16.451v2.991H47.86v-2.991H.002zm0 21.935v2.991H47.86v-2.99H.002zm0-16.45v2.99H47.86v-2.99H.002zM.002 6v2.991H47.86V6.001H.002zm0 5.484v2.991H47.86v-2.99H.002z" fill="#E31D1C"/><path d="M.002 6.001h29.911v19.442H.002V6.001z" fill="#2E42A5"/><path fill-rule="evenodd" clip-rule="evenodd" d="M2.579 10.397l-1.086.761.366-1.355-.964-.858h1.26l.422-1.107.495 1.107h1.074l-.844.858.326 1.355-1.05-.761zm5.982 0l-1.086.761.366-1.355-.963-.858h1.26l.421-1.107.495 1.107h1.074l-.843.858.326 1.355-1.05-.761zm4.896.761l1.086-.763 1.05.763-.326-1.355.843-.858h-1.073l-.496-1.107-.421 1.107h-1.26l.964.858-.367 1.355zm7.068-.763l-1.085.763.366-1.355-.963-.858h1.259l.422-1.107.495 1.107h1.074l-.844.858.326 1.355-1.05-.763zM1.493 17.142l1.086-.763 1.05.763-.327-1.355.844-.859H3.072l-.495-1.106-.422 1.106H.895l.964.859-.366 1.355zm7.068-.763l-1.086.763.366-1.355-.963-.859h1.26l.421-1.106.495 1.106h1.074l-.843.859.326 1.355-1.05-.763zm4.896.763l1.086-.763 1.05.763-.326-1.355.843-.859h-1.073l-.496-1.106-.421 1.106h-1.26l.964.859-.367 1.355zm7.068-.763l-1.085.763.366-1.355-.963-.859h1.259l.422-1.106.495 1.106h1.074l-.844.859.326 1.355-1.05-.763zM1.493 23.124l1.086-.763 1.05.763-.327-1.355.844-.858H3.072l-.495-1.107-.422 1.107H.895l.964.858-.366 1.355zm7.068-.763l-1.086.763.366-1.355-.963-.858h1.26l.421-1.107.495 1.107h1.074l-.843.858.326 1.355-1.05-.763zm4.896.763l1.086-.763 1.05.763-.326-1.355.843-.858h-1.073l-.496-1.107-.421 1.107h-1.26l.964.858-.367 1.355zm7.068-.763l-1.085.763.366-1.355-.963-.858h1.259l.422-1.107.495 1.107h1.074l-.844.858.326 1.355-1.05-.763zm4.897-11.202l1.085-.762 1.05.762-.326-1.354.844-.859H27l-.495-1.107-.422 1.107h-1.26l.964.859-.366 1.354zm1.085 5.22l-1.085.763.366-1.355-.965-.859h1.261l.422-1.106.495 1.106h1.074l-.844.859.326 1.355-1.05-.763zm-1.085 6.745l1.085-.763 1.05.763-.326-1.355.844-.858H27l-.495-1.107-.422 1.107h-1.26l.964.858-.366 1.355zM5.57 13.386l-1.086.763.366-1.355-.964-.858h1.26l.422-1.107.495 1.107h1.074l-.843.858.326 1.355-1.05-.763zm4.896.763l1.086-.763 1.05.763-.326-1.355.843-.858h-1.074l-.495-1.107-.421 1.107H9.868l.964.858-.366 1.355zm7.068-.763l-1.086.763.367-1.355-.963-.858h1.259l.422-1.107.495 1.107h1.074l-.844.858.326 1.355-1.05-.763zm-13.05 6.745l1.086-.762 1.05.762-.327-1.355.844-.858H6.063l-.495-1.107-.422 1.107h-1.26l.964.858-.366 1.355zm7.068-.762l-1.086.762.367-1.355-.964-.858h1.26l.421-1.107.495 1.107h1.074l-.843.858.326 1.355-1.05-.762zm4.896.762l1.086-.762 1.05.762-.326-1.355.844-.858h-1.074l-.495-1.107-.422 1.107h-1.26l.964.858-.367 1.355zm7.068-6.745l-1.085.763.366-1.355-.963-.858h1.26l.42-1.107.496 1.107h1.074l-.844.858.326 1.355-1.05-.763zm-1.085 6.745l1.085-.762 1.05.762-.326-1.355.844-.858H24.01l-.495-1.107-.422 1.107h-1.26l.964.858-.366 1.355z" fill="#F7FCFF"/></g><defs><clipPath id="prefix__clip0_2195_20518"><path fill="#fff" transform="translate(0 6)" d="M0 0h47.858v35.893H0z"/></clipPath></defs></svg>