<svg width="48" height="48" fill="none" xmlns="http://www.w3.org/2000/svg"><path d="M43.37 35.5c1.307 0 2.41.46 3.307 1.38.897.92 1.338 1.993 1.323 3.22L29.686 47 13.72 42.4V21.7h4.447l16.58 6.187c1.187.475 1.78 1.334 1.78 2.576 0 .72-.259 1.35-.776 1.886-.517.537-1.17.82-1.961.851h-6.386l-3.991-1.541-.753 2.162 4.744 1.679H43.37zM34.247 3.829C35.859 1.943 37.911 1 40.405 1c2.068 0 3.816.767 5.245 2.3 1.43 1.533 2.19 3.297 2.281 5.29 0 1.58-.76 3.465-2.28 5.658-1.521 2.193-3.019 4.025-4.494 5.497-1.474 1.472-3.778 3.657-6.91 6.555-3.163-2.898-5.489-5.083-6.979-6.555-1.49-1.472-2.988-3.304-4.493-5.497-1.505-2.193-2.243-4.079-2.212-5.658 0-2.085.737-3.849 2.212-5.29C24.25 1.859 26.03 1.092 28.112 1c2.433 0 4.478.943 6.135 2.829zM0 21.7h9.16V47H0V21.7z" fill="#000"/></svg>