<svg width="48" height="48" fill="none" xmlns="http://www.w3.org/2000/svg"><path d="M46.395 31.226L31.958 7C30.064 3.819 27.165 2 24.001 2c-3.165 0-6.064 1.82-7.958 4.994L1.607 31.226c-1.92 3.219-2.13 6.651-.574 9.417C2.586 43.412 5.618 45 9.35 45h29.302c3.73 0 6.763-1.588 8.316-4.354 1.553-2.766 1.346-6.199-.574-9.42zM24 36.516c-2.085 0-3.784-1.71-3.784-3.81 0-2.102 1.697-3.813 3.784-3.813 2.088 0 3.785 1.711 3.785 3.814 0 2.1-1.7 3.808-3.785 3.808zm3.988-18.254c-.027.076-3.421 8.526-3.421 8.526a.61.61 0 01-.564.384.61.61 0 01-.564-.384l-3.397-8.453a4.453 4.453 0 01-.315-1.61c0-2.373 1.917-4.303 4.273-4.303a4.254 4.254 0 011.986.498 4.288 4.288 0 011.529 1.37 4.326 4.326 0 01.473 3.972z" fill="#000"/></svg>