<svg width="49" height="48" fill="none" xmlns="http://www.w3.org/2000/svg"><g clip-path="url(#prefix__clip0_5248_45454)" fill="#F0861E"><path d="M.627 20.563h1.401l.547 5.176h.02l.583-5.176H4.7l.603 5.185h.018l.53-5.185h1.4l-1.02 6.622H4.521l-.575-5.064h-.019l-.574 5.064H1.647L.626 20.563h.001zM11.758 27.185h-.88l-.195-.482a2.117 2.117 0 01-.204.269 1.104 1.104 0 01-.227.19.943.943 0 01-.284.116 1.69 1.69 0 01-.38.037c-.396 0-.714-.11-.955-.334-.241-.222-.362-.547-.362-.974V21.99c0-.55.13-.947.39-1.191.26-.245.699-.367 1.317-.367.327 0 .604.03.83.089.226.059.409.151.552.278.142.127.244.29.306.487.062.198.093.433.093.705v.408h-1.354V22c0-.13-.03-.222-.088-.278-.06-.056-.16-.084-.302-.084s-.243.028-.302.084c-.059.056-.088.149-.088.278v3.748c0 .13.03.223.088.278.059.056.16.084.302.084s.242-.028.302-.084c.058-.055.088-.148.088-.278v-1.42h-.399v-1.205h1.753v4.062zM13.13 25.349v-1.113h2.143v1.113H13.13zM20.134 27.185h-.881l-.195-.482a2.117 2.117 0 01-.204.269 1.104 1.104 0 01-.227.19.942.942 0 01-.283.116 1.69 1.69 0 01-.38.037c-.396 0-.714-.11-.956-.334-.24-.222-.361-.547-.361-.974V21.99c0-.55.13-.947.39-1.191.26-.245.698-.367 1.316-.367.328 0 .605.03.83.089.226.059.41.151.552.278.143.127.245.29.307.487.061.198.093.433.093.705v.408H18.78V22c0-.13-.029-.222-.088-.278-.059-.056-.16-.084-.302-.084s-.242.028-.301.084c-.06.056-.088.149-.088.278v3.748c0 .13.029.223.088.278.058.056.16.084.302.084s.242-.028.301-.084c.059-.055.088-.148.088-.278v-1.42h-.398v-1.205h1.753v4.062h-.001zM21.525 20.563h2.783v1.206H22.88v1.354h1.363v1.206H22.88v1.651h1.428v1.206h-2.783v-6.623zM27.499 22.557v-.371c0-.365-.13-.548-.39-.548-.142 0-.242.042-.301.125-.06.084-.089.225-.089.422a.79.79 0 00.158.497c.105.138.236.272.394.398.157.127.33.257.515.39s.356.29.515.473c.157.182.289.398.394.649.105.25.157.555.157.914 0 .358-.03.635-.088.867-.06.232-.156.417-.293.556a1.147 1.147 0 01-.538.297 3.344 3.344 0 01-.834.089c-.31 0-.574-.027-.793-.08a1.247 1.247 0 01-.538-.26 1.05 1.05 0 01-.307-.486 2.572 2.572 0 01-.097-.77v-.622h1.354v.464c0 .365.13.548.39.548.142 0 .242-.042.301-.125.058-.084.088-.224.088-.422 0-.229-.054-.422-.162-.58a2.1 2.1 0 00-.399-.43c-.157-.13-.327-.262-.51-.395a3.156 3.156 0 01-.51-.468 2.362 2.362 0 01-.394-.64c-.105-.247-.158-.557-.158-.928 0-.297.03-.552.089-.765.058-.213.157-.388.297-.524.139-.137.318-.237.538-.302a2.93 2.93 0 01.82-.098c.575 0 1.004.12 1.285.362.281.241.422.655.422 1.242v.52h-1.317zM33.463 25.757c0 .31-.036.564-.107.765-.071.202-.178.36-.32.478-.143.118-.323.2-.543.246-.22.046-.478.07-.775.07-.297 0-.555-.024-.775-.07-.219-.047-.4-.128-.543-.246a1.063 1.063 0 01-.32-.478 2.324 2.324 0 01-.107-.765v-5.194h1.354v4.99c0 .235.03.386.089.454.058.069.159.103.301.103.143 0 .243-.034.302-.103.059-.068.088-.219.088-.454v-4.99h1.355v5.194zM34.761 21.99c0-.55.13-.947.39-1.191.26-.245.699-.367 1.316-.367.619 0 1.058.123 1.318.367s.389.641.389 1.192v.936H36.82v-.992a.255.255 0 00-.107-.223.421.421 0 00-.245-.074c-.124 0-.214.032-.27.097-.055.065-.083.187-.083.366v3.543c0 .18.028.302.083.366.056.066.146.098.27.098a.417.417 0 00.245-.075c.072-.05.107-.124.107-.223v-1.224h1.354v1.169c0 .55-.13.947-.39 1.192-.26.244-.698.366-1.316.366-.618 0-1.058-.122-1.317-.366-.26-.245-.39-.642-.39-1.192v-3.767.003zM39.473 20.563h1.354v2.56h.78v-2.56h1.353v6.622h-1.354V24.33h-.78v2.856h-1.353v-6.622zM45.066 21.768h-1.002v-1.206h3.358v1.206H46.42v5.417h-1.354v-5.417z"/></g><defs><clipPath id="prefix__clip0_5248_45454"><path fill="#fff" transform="translate(0 20)" d="M0 0h49v7.656H0z"/></clipPath></defs></svg>