<svg width="48" height="48" fill="none" xmlns="http://www.w3.org/2000/svg"><g clip-path="url(#prefix__clip0_1319_12239)"><path fill-rule="evenodd" clip-rule="evenodd" d="M3.428 0a1.714 1.714 0 00-1.714 1.714V12a1.714 1.714 0 001.714 1.714h10.286A1.714 1.714 0 0015.428 12V9.429h17.143v2.365L11.794 32.571H3.428a1.714 1.714 0 00-1.714 1.715V44.57a1.714 1.714 0 001.714 1.715h10.286a1.714 1.714 0 001.714-1.715V42H36v4.286a1.715 1.715 0 002.928 1.213l6.857-6.857a1.713 1.713 0 000-2.427l-6.857-6.857A1.714 1.714 0 0036 32.57v4.286H15.428v-.651L37.92 13.714h6.651A1.714 1.714 0 0046.285 12V1.714A1.714 1.714 0 0044.571 0H34.285a1.714 1.714 0 00-1.714 1.714v2.572H15.428V1.714A1.714 1.714 0 0013.714 0H3.428z" fill="#000"/></g><defs><clipPath id="prefix__clip0_1319_12239"><path fill="#fff" d="M0 0h48v48H0z"/></clipPath></defs></svg>