<svg width="48" height="48" fill="none" xmlns="http://www.w3.org/2000/svg"><g clip-path="url(#prefix__clip0_4052_24734)"><path d="M46.94 12.303a6.089 6.089 0 00-1.558-2.71 6.023 6.023 0 00-2.69-1.57C38.967 7 23.976 7 23.976 7S8.984 7.031 5.259 8.054a6.024 6.024 0 00-2.69 1.57 6.089 6.089 0 00-1.558 2.71c-1.127 6.668-1.564 16.827.03 23.228a6.09 6.09 0 001.558 2.71 6.023 6.023 0 002.69 1.57c3.725 1.023 18.717 1.023 18.717 1.023s14.992 0 18.716-1.023a6.022 6.022 0 002.69-1.57 6.09 6.09 0 001.559-2.71c1.188-6.677 1.554-16.83-.031-23.259z" fill="red"/><path d="M19.204 31.189l12.437-7.257-12.437-7.256v14.513z" fill="#fff"/></g><defs><clipPath id="prefix__clip0_4052_24734"><path fill="#fff" transform="translate(0 7)" d="M0 0h48v34H0z"/></clipPath></defs></svg>