<svg width="48" height="48" fill="none" xmlns="http://www.w3.org/2000/svg"><g clip-path="url(#prefix__clip0_1395_23314)"><path d="M24 12.333a4.666 4.666 0 110-9.332 4.666 4.666 0 010 9.332zm0 0v9.334m0 0a7 7 0 110 14 7 7 0 010-14zM11.633 37.533l6.534-4.666m18.2 4.666l-6.534-4.666M3 40.333a4.667 4.667 0 109.334 0 4.667 4.667 0 00-9.334 0zm32.667 0a4.667 4.667 0 109.333 0 4.667 4.667 0 00-9.333 0z" stroke="#000" stroke-width="4.363" stroke-linecap="round" stroke-linejoin="round"/></g><defs><clipPath id="prefix__clip0_1395_23314"><path fill="#fff" d="M0 0h48v48H0z"/></clipPath></defs></svg>